<svg xmlns="http://www.w3.org/2000/svg" viewBox="0 0 32 32">
<path d="M8.9,11.4v16.8H3.3V11.4H8.9z M9.3,6.2C9.3,7,9,7.7,8.4,8.2S7.1,9.1,6.1,9.1h0c-0.9,0-1.7-0.3-2.2-0.8S3,7,3,6.2
	c0-0.8,0.3-1.5,0.9-2.1s1.3-0.8,2.3-0.8s1.7,0.3,2.2,0.8C9,4.7,9.3,5.3,9.3,6.2z M29,18.5v9.6h-5.6v-9c0-1.2-0.2-2.1-0.7-2.8
	c-0.5-0.7-1.2-1-2.1-1c-0.7,0-1.3,0.2-1.8,0.6c-0.5,0.4-0.8,0.9-1.1,1.5c-0.1,0.3-0.2,0.8-0.2,1.4v9.4H12c0-4.5,0-8.1,0-11
	s0-4.5,0-5l0-0.8h5.6v2.4h0c0.2-0.4,0.5-0.7,0.7-0.9c0.2-0.3,0.6-0.6,1-0.9c0.4-0.3,0.9-0.6,1.5-0.7c0.6-0.2,1.2-0.3,1.9-0.3
	c1.9,0,3.5,0.6,4.7,1.9C28.4,14.2,29,16.1,29,18.5z"/>
</svg>
