<svg xmlns="http://www.w3.org/2000/svg" viewBox="0 0 32 32">
	<path d="M31.4,6.3c-1.1,0.5-2.4,0.8-3.6,1c1.3-0.8,2.3-2,2.8-3.5c-1.2,0.7-2.6,1.2-4,1.5c-1.2-1.2-2.8-2-4.6-2
	c-3.5,0-6.3,2.8-6.3,6.3c0,0.5,0.1,1,0.2,1.4c-5.3-0.3-9.9-2.8-13.1-6.6c-0.5,0.9-0.9,2-0.9,3.2c0,2.2,1.1,4.1,2.8,5.3
	c-1,0-2-0.3-2.9-0.8c0,0,0,0.1,0,0.1c0,3.1,2.2,5.6,5.1,6.2c-0.5,0.1-1.1,0.2-1.7,0.2c-0.4,0-0.8,0-1.2-0.1
	c0.8,2.5,3.1,4.4,5.9,4.4c-2.2,1.7-4.9,2.7-7.9,2.7c-0.5,0-1,0-1.5-0.1c2.8,1.8,6.1,2.8,9.7,2.8c11.6,0,18-9.6,18-18
	c0-0.3,0-0.6,0-0.8C29.5,8.7,30.6,7.6,31.4,6.3z"/>
</svg>