<svg xmlns="http://www.w3.org/2000/svg" viewBox="0 0 32 32">
<path d="M22.5,15c-0.1-0.1-0.2-0.1-0.4-0.2c-0.2-3.8-2.3-6-5.8-6.1c0,0,0,0,0,0c-2.1,0-3.9,0.9-4.9,2.5l1.9,1.3
	c0.8-1.2,2.1-1.5,3-1.5c0,0,0,0,0,0c1.2,0,2,0.3,2.6,1c0.4,0.5,0.7,1.1,0.8,2c-1-0.2-2.1-0.2-3.3-0.2c-3.3,0.2-5.5,2.1-5.4,4.9
	c0.1,1.4,0.8,2.6,1.9,3.3c1,0.7,2.3,1,3.6,0.9c1.8-0.1,3.1-0.8,4.1-2c0.7-0.9,1.2-2.1,1.4-3.6c0.8,0.5,1.5,1.2,1.8,2
	c0.6,1.4,0.6,3.6-1.2,5.4c-1.6,1.6-3.5,2.3-6.4,2.3c-3.2,0-5.6-1.1-7.2-3.1c-1.5-1.9-2.2-4.6-2.3-8.1c0-3.5,0.8-6.2,2.3-8.1
	c1.6-2,4-3,7.2-3.1c3.2,0,5.7,1.1,7.3,3.1c0.8,1,1.4,2.2,1.8,3.7l2.3-0.6c-0.5-1.8-1.2-3.3-2.3-4.6c-2.1-2.6-5.2-3.9-9.1-3.9h0
	c-3.9,0-7,1.4-9,3.9C5.4,8.8,4.4,12,4.4,16l0,0l0,0c0,4,1,7.2,2.8,9.5c2,2.6,5.1,3.9,9,3.9h0c3.5,0,6-0.9,8-3c2.7-2.7,2.6-6,1.7-8.1
	C25.3,17,24.1,15.8,22.5,15z M16.4,20.7c-1.5,0.1-3-0.6-3.1-2c-0.1-1,0.7-2.2,3.2-2.4c0.3,0,0.5,0,0.8,0c0.9,0,1.7,0.1,2.4,0.2
	C19.5,20.1,17.8,20.6,16.4,20.7z"/>
</svg>
