<svg xmlns="http://www.w3.org/2000/svg" viewBox="0 0 32 32">
<path d="M22,2.4H9.9c-4.1,0-7.4,3.3-7.4,7.4v12.1c0,4.1,3.3,7.5,7.4,7.5H22c4.1,0,7.5-3.3,7.5-7.5V9.8C29.5,5.7,26.2,2.4,22,2.4z
	 M27.1,21.9c0,2.8-2.3,5.1-5.1,5.1H9.9c-2.8,0-5.1-2.3-5.1-5.1V9.8c0-2.8,2.3-5.1,5.1-5.1H22c2.8,0,5.1,2.3,5.1,5.1L27.1,21.9
	L27.1,21.9z M16,8.9c-3.8,0-7,3.1-7,7s3.1,7,7,7s7-3.1,7-7S19.8,8.9,16,8.9z M16,20.5c-2.5,0-4.6-2-4.6-4.6c0-2.5,2-4.6,4.6-4.6
	s4.6,2,4.6,4.6C20.6,18.4,18.5,20.5,16,20.5z M23.2,6.9c-0.5,0-0.9,0.2-1.2,0.5c-0.3,0.3-0.5,0.8-0.5,1.2s0.2,0.9,0.5,1.2
	c0.3,0.3,0.8,0.5,1.2,0.5s0.9-0.2,1.2-0.5C24.8,9.6,25,9.1,25,8.7s-0.2-0.9-0.5-1.2C24.2,7.1,23.7,6.9,23.2,6.9z"/>
</svg>
