<?xml version="1.0" encoding="utf-8"?>
<svg version="1.1" id="Capa_1" xmlns="http://www.w3.org/2000/svg" xmlns:xlink="http://www.w3.org/1999/xlink" x="0px" y="0px"
	 width="512px" height="512px" viewBox="0 0 512 512" style="enable-background:new 0 0 512 512;" xml:space="preserve">
<g>
	<path d="M193.1,52.6c-11.9,7.9-15.6,16.6-15.7,19.3c0,2.7,5.9,2.1,7.3,4.1c1.4,2-0.5,5.6,0.9,7c1.3,1.4,4,1.4,6,5.2
		c2,3.7,60.2,118.4,68.7,132c3.7,10.1,6.9,46.4,9.7,51.4c2.8,4.9,129.1,181.1,133.2,186.8c9.8,13.5,42.2,9.9,67.4-7.6
		c26.5-18.4,45.7-48,36.2-64.6c-3.5-6.1-128.9-183-132.6-187.3c-3.7-4.3-37-19.2-45.3-26c-10.1-12.5-99.3-105.1-102.1-108.3
		c-2.9-3.1-2-5.7-2.9-7.4c-0.9-1.7-4.9-1.1-6.3-3.1c-1.4-2-0.3-8-2.9-8.7C206.7,43.3,193.1,52.6,193.1,52.6z"/>
	<path d="M316.9,53.6c-11.4-8.5-20.8-9.1-23.4-8.3c-2.6,0.9,0,6.3-1.4,8.3c-1.4,2-5.4,1.4-6.3,3.1c-0.9,1.7,0,4.3-2.8,7.4
		c-2.9,3.1-91.2,96.1-101.2,108.6c-8.3,6.8-41.3,21.9-45,26.2C133.1,203.2,9.7,380.6,5.7,386.4c-9.4,13.7,4.8,42.9,29.6,60.7
		c26.1,18.8,60.4,26.9,72.8,12.4c4.6-5.3,129-182.1,131.7-187.1c2.7-4.9,5.7-41.2,9.3-51.3c8.4-13.6,65.7-128.3,67.7-132.1
		c2-3.7,4.7-3.8,6-5.2c1.3-1.4-0.6-5,0.8-7c1.4-2,7.5-2.9,7.2-5.6C330.1,63.3,316.9,53.6,316.9,53.6z"/>
</g>
</svg>
