<svg xmlns="http://www.w3.org/2000/svg" viewBox="0 0 32 32">
<g>
	<path d="M12.1,3.3c-0.7,0.5-1,1-1,1.2c0,0.2,0.4,0.1,0.5,0.3c0.1,0.1,0,0.3,0.1,0.4c0.1,0.1,0.2,0.1,0.4,0.3
		c0.1,0.2,3.8,7.4,4.3,8.2c0.2,0.6,0.4,2.9,0.6,3.2c0.2,0.3,8.1,11.3,8.3,11.7c0.6,0.8,2.6,0.6,4.2-0.5c1.7-1.1,2.9-3,2.3-4
		c-0.2-0.4-8.1-11.4-8.3-11.7s-2.3-1.2-2.8-1.6C19.9,10,14.4,4.2,14.2,4C14,3.8,14.1,3.7,14,3.6s-0.3-0.1-0.4-0.2
		c-0.1-0.1,0-0.5-0.2-0.5C12.9,2.7,12.1,3.3,12.1,3.3z"/>
	<path d="M19.8,3.3c-0.7-0.5-1.3-0.6-1.5-0.5c-0.2,0.1,0,0.4-0.1,0.5s-0.3,0.1-0.4,0.2c-0.1,0.1,0,0.3-0.2,0.5
		c-0.2,0.2-5.7,6-6.3,6.8c-0.5,0.4-2.6,1.4-2.8,1.6c-0.2,0.3-7.9,11.4-8.2,11.7c-0.6,0.9,0.3,2.7,1.8,3.8c1.6,1.2,3.8,1.7,4.6,0.8
		C7,28.4,14.8,17.3,15,17c0.2-0.3,0.4-2.6,0.6-3.2c0.5-0.9,4.1-8,4.2-8.3c0.1-0.2,0.3-0.2,0.4-0.3c0.1-0.1,0-0.3,0-0.4
		s0.5-0.2,0.5-0.3C20.6,4,19.8,3.3,19.8,3.3z"/>
</g>
</svg>
