<svg version="1.1" xmlns="http://www.w3.org/2000/svg" xmlns:xlink="http://www.w3.org/1999/xlink" x="0px" y="0px"
	 viewBox="0 0 300 300" style="enable-background:new 0 0 300 300;" xml:space="preserve">
<g>
	<path style="fill:#E62B27;" d="M67.4,159.1v67c0,14.3,2,24.6,5.9,30.5c4.8,7.1,13.9,11.5,27.3,13.1l1.6,2.8l-2.4,2.8H2.4L0,272.4
		l1.6-2.8c13.1-1.6,21.8-5.9,26.6-13.5c4-5.9,5.9-16.2,5.9-30.1V73.9c0-13.9-1.6-23.4-4.8-29.3C25,37,16.6,32.3,4.4,30.3l-1.6-2.8
		l2.4-2.8l45.6-1.6l67.4-0.8c28.9-0.4,53.1,3.6,72.5,11.5C218,45,231.4,63.2,231.4,88.2c0,34.9-23.8,56.3-71.7,64.6
		c16.6,5.9,30.1,13.9,40.4,24.2c6.7,6.7,15.1,18.2,25,33.7c9.9,16.2,18.2,27.7,24.6,34.5c15.5,16.6,32.1,25.4,49.5,26.6
		c0.4,0.8,0.8,1.6,0.8,2.4c0,0.4-3.6,1.6-10.7,2.8c-7.1,1.2-15.9,1.2-26.2-0.4c-10.3-1.6-19.8-4.4-29.3-8.3
		c-11.5-4.4-21.8-11.9-30.9-23c-4.4-8.3-11.5-21-21-38c-15.9-28.1-37.3-44-64.6-47.6L67.4,159.1z M67.4,150.8l49.5,0.4
		c49.9,0.4,74.9-19.8,74.9-61c0-39.6-23.8-59.4-71.7-59l-52.7,0.4L67.4,150.8L67.4,150.8z"/>
</g>
</svg>
