<svg version="1.1" xmlns="http://www.w3.org/2000/svg" xmlns:xlink="http://www.w3.org/1999/xlink" x="0px" y="0px"
	 viewBox="0 0 300 300" style="enable-background:new 0 0 300 300;" xml:space="preserve">
<g>
	<g id="logo">
		<path d="M243.6,38.5c-0.5,0.2-1.1,0.6-1.6,0.7c-0.5,0.1-1.3,0-1.3-0.1c-0.8-2-2.6-2.9-4-4.4l-0.1-0.1c-1.2-1.1-2.6-0.8-3.8-0.5
			c-0.2,0-0.4,0.2-0.5,0.5c-0.2,0.5-0.5,1.3-0.6,1.9c-0.2,1.2-0.7,1.5-1.8,1.2c-2.5-0.9-4.8-0.5-7.2,0.7c-0.8,0.4-1.6,0.7-2.5,1.1
			c-0.9,0.4-1.3-0.1-1.2-1.1c0-0.5,0.1-1.1,0.2-1.5c-0.1-0.1-0.2-0.1-0.4-0.2c-0.8,0.7-1.6,1.4-2.6,2.4c-0.1-0.5-0.2-0.8-0.2-1.1
			c0.1-1.1,0.5-2,0.5-3.1v-0.2c0-1.1-0.6-1.4-1.8-1.1c-0.8,0.2-1.6,0.6-2.2,1.1c-0.9,0.8-1.5,2.1-1.5,3.6c0,1.9,0.1,3.9,0,5.8
			c0,0.5-0.6,0.9-0.8,1.4c-0.4-0.4-0.8-0.7-1.1-1.1c-0.6-1.2-1.2-2.4-1.8-3.5c-0.6-0.9-1.4-1.2-2.5-0.6c-1.1,0.6-1.2,1.4-0.6,2.2
			c0.9,1.5,1.9,2.9,3.1,4.4c0.9,1.2,2.1,2.2,1.2,4c-0.1,0.1-0.1,0.5,0,0.7c1.2,1.6,2.4,3.3,3.6,4.8c0.1,0.1,0.5,0.2,0.6,0.2
			c0.5,0,1.2,0,1.4-0.2c0.2-0.4,0.2-1.1,0-1.5c-0.5-0.9-0.1-1.5,0.7-1.6c1.2-0.4,2.4-0.6,3.6-0.6c2.6-0.1,3.9-2.1,5.4-3.8
			c0.8-0.8,0.5-1.8-0.7-2.2c-1.3-0.5-2.5-0.9-3.9-0.5c-1.2,0.4-2.8-1.6-2.4-2.9c0.2-0.6,0.6-1.1,1.4-0.8c2.1,0.5,4.5,1.5,6.3-0.7
			c0-0.1,0.1-0.1,0.2-0.1c1.8-0.6,3.5-1.1,5.2-1.6c1.8-0.7,3.4-0.7,4.7,0.8c0.6,0.7,1.2,0.9,2.1,0.5c0.2-0.1,0.6,0,0.9,0
			c0,0.4,0.1,0.7,0,1.1c-0.4,0.8,0.1,1.3,0.7,1.8c1.3,0.9,2.7,0.5,3.6-0.4c0.9-0.8,1.3-2.1,1.8-3.3
			C244.2,39.8,243.7,39.1,243.6,38.5z M217.3,17c-0.4-0.2-0.5-1.1-0.2-1.5c0.7-1.9,1.5-3.8,2.4-5.6c0.1-0.4,0-0.7-0.1-1.2
			c-0.4,0.2-0.8,0.5-0.9,0.8c-0.2,1.1-0.8,2-1.9,1.6c-0.5-0.1-0.8-1.4-0.8-2.2c-0.1-1.9,0.2-3.5,1.2-5.3c0.7-1.4-0.1-2.4-1.6-2.4
			c-0.8,0-1.5-0.6-2.4-0.8c-0.4-0.1-0.8-0.2-1.3-0.2c-0.7,0.1-1.3,0.4-1.9,0.7c-0.5,0.2-0.9,0.5-1.3,0.8c-0.4,0.2-0.5,0.7-0.8,0.9
			c-0.8,0.9-1.8,1.8-2.5,2.8c-0.7,0.9-0.2,1.6,0.8,1.5c1.8-0.2,2.9,0.1,3.6,1.8c0.1,0.1,0.2,0.2,0.4,0.4c1.8,1.4,2,3.2,0.8,5.2
			c-1.6,2.6-0.4,5.9,2.6,6.7c0.5,0.1,1.1,0.1,1.5,0.2c0.7,0.2,1.6,0.5,1.3,1.4c-0.1,0.4-1.1,0.7-1.6,0.7c-0.7,0.1-1.5-0.1-2.2-0.2
			c-2.6-0.1-2.9,0.2-2.7,2.8c0,0.6-0.1,1.3-0.2,1.9c-0.4,1.5,0.1,3.2,1.3,4.1c1.1,0.8,2.4,0.7,2.9-0.4c0.6-1.3,1.3-1.4,2.4-0.6
			c0.8,0.6,1.4,0.4,1.8-0.6c0.6-1.6,1.4-3.2,1.6-4.9C219.9,22.5,220.2,19.4,217.3,17z M192.8,34.6C192.8,34.6,192.8,34.5,192.8,34.6
			c-0.5-0.6-1.1-1.1-1.8-1.2c-1.2-0.4-2.5-0.4-3.8-0.6c-2.2-0.5-3.6,0.5-4.9,1.8c-0.6,0.6-1.1,1.2-1.5,1.8c-0.8,0.9-0.5,1.9,0.8,2
			c1.2,0.1,2.4-0.1,3.4-0.4c2.2-0.4,4.5-0.8,6.7-1.3c0.4-0.1,1.1-0.4,1.2-0.6C193.1,35.7,193.1,35,192.8,34.6z M192.5,42.4
			c-1.2-0.5-2.4-0.7-3.4-1.3c-3.1-1.6-6.1-1.1-9,0.2c-0.8,0.4-1.9,0.7-1.4,2c0.5,1.3,1.5,1.8,2.8,1.3c0.8-0.4,1.6-0.9,2.5-1.3
			c2.6-1.1,5.3-0.5,7.9,0l1.5,0.2c0-0.1,0.1-0.4,0.2-0.5C193.1,42.9,192.8,42.5,192.5,42.4z M227.8,27.8c-1.3,0.7-2.7,1.3-3.8,2.4
			c-1.3,1.2-2.4,2.6-3.5,4c-0.1,0.1-0.2,0.4-0.4,0.5c-0.2,0.5-0.4,0.9-0.2,1.2c0.1,0.5,1.1,0.6,1.8,1.1c0.7-0.5,1.5-0.9,1.9-1.5
			c0.1-0.2,0.2-0.5,0.4-0.7c1.3-2,2.5-4.1,4.5-5.6c0.2-0.1,0.2-0.6,0.4-0.9C228.4,27.9,228.1,27.7,227.8,27.8z M234,28.2
			c-1.2,0.2-2.5,0.7-3.5,1.3c-1.1,0.6-1.6,1.6-1.4,2.8c0,0.5,0.2,1.1,0.6,1.3c0.2,0.1,0.8-0.1,1.3-0.4c0.8-0.4,1.6-0.8,2.6-1.3
			c0,0.1,0.1,0.2,0.1,0.4c0.2,0,0.5,0,0.7,0c1.4-0.1,2.4-1.1,2.4-2.5C236.4,28.6,235.4,27.8,234,28.2z M207.4,23c0.1,0,0.1,0,0.2,0
			c-0.1-1.2-0.1-2.2-0.2-3.3c-0.1-0.8-0.8-1.2-1.4-0.6c-0.5,0.5-0.8,1.2-0.9,1.9s0,1.4-0.1,2.2c-0.1,1.4-0.5,2.8-0.5,4.2
			c0,0.4,0.4,1.1,0.7,1.2c1.3,0.5,2.7-0.6,2.7-2C207.6,25.2,207.5,24.2,207.4,23z M205.8,50.4c-1.2-0.6-2.4-0.8-3.6-1.3
			c0,0.1,0,0.2-0.1,0.4c-0.5,0-0.9-0.1-1.4,0c-0.9,0.2-1.2,1.2-0.6,1.9c0.6,0.6,1.2,1.3,1.9,1.9c0.4,0.2,0.9,0.5,1.4,0.4
			c0.8-0.2,1.8-0.5,2.5-0.9C206.8,52.1,206.9,51,205.8,50.4z M197.6,43.3c-0.2-0.4-1.3-0.6-1.8-0.5c-0.4,0.1-0.6,1.2-0.5,1.6
			c0.2,0.8,0.9,1.4,1.4,2c0.2,0.2,0.7,0.4,0.9,0.2c0.4-0.1,0.5-0.6,0.7-0.9C198.4,45,198.2,44.1,197.6,43.3z M202.7,34.6
			c-0.5-0.6-1.3-0.8-2.4-0.8c-0.1,0.1-0.6,0.5-0.8,0.8v0.1c-0.1,0.9,1.5,2,2.7,1.9c0.4,0,0.8-0.6,0.8-0.8
			C203.1,35.4,202.9,34.9,202.7,34.6z M198.4,27c-1.3-0.5-3.4,0.6-4.5,2c0,0.1,0.1,0.2,0.1,0.5c1.4-0.4,2.9-0.7,4.3-1.2
			c0.2-0.1,0.5-0.5,0.7-0.7C198.8,27.5,198.6,27.1,198.4,27z M205.9,14.9c-0.4,0.6-0.9,1.2-1.2,1.9c-0.1,0.2,0.4,0.6,0.8,1.2
			c0.8-0.6,1.4-1.1,2-1.5C206.9,15.9,206.3,15.5,205.9,14.9z M210.7,55.9c-0.2,0-0.5,0.1-0.8,0.2c0.2,0.9,0.4,1.9,0.6,2.8
			c0.2-0.1,0.5-0.1,0.7-0.2C211,57.8,210.8,56.9,210.7,55.9z M151.8,111.3c-0.2,0-0.7,0.5-0.7,0.6c0.1,0.4,0.5,0.7,0.7,0.8
			c0.2,0,0.5-0.4,1.1-0.6C152.4,111.7,152.1,111.3,151.8,111.3z"/>
		<g>
			<path style="fill:none;" d="M220.6,130.2c-0.4,0.5-0.8,0.8-1.2,1.3c-0.1,0.2,0,0.6-0.1,0.8c-0.4,2-0.9,4-1.1,6
				c-0.2,2.4-1.3,4.5-0.9,7.1c0.9,5.4,1.5,10.9,2.2,16.5c0.1,0.7,0.4,1.5,0.6,2.2h0.4c0.1-0.6,0.4-1.2,0.5-1.9
				c0.1-1.5,0.2-2.9,0.2-4.5c0-8.7,0-17.4-0.1-26.1C221,131,220.7,130.6,220.6,130.2z"/>
			<path style="fill:none;" d="M211.5,136.6c0.5-0.5,0.9-0.9,1.4-1.3c0.4-0.2,0.7-0.5,1.2-0.6c0.2,0.4,0.5,0.8,0.6,1.2
				c0.2,0.9,0.5,1.9,0.6,2.8c0.2,0,0.4-0.1,0.6-0.1c-0.1-1.2-0.1-2.4-0.4-3.4c-0.2-1.4,0.1-2.4,1.2-3.4c1.4-1.3,2.7-2.9,3.8-4.5
				c0.4-0.5,0.5-1.6,0.1-2.1c-0.9-1.5-3.6-2.5-5.4-1.9c-1.8,0.6-3.5,1.4-5.2,2.1c-0.4,0.2-0.8,0.7-0.9,1.1c0,2.9,0,5.9,0,8.8
				c0,0.4,0.1,0.6,0.2,0.9C210.1,137.5,210.7,137.6,211.5,136.6z"/>
			<path style="fill:none;" d="M211.8,147c-0.5-0.5-1.4-0.2-1.3,0.7c0,3.1-0.1,6,0.1,9.1c0.5,4.4,1.4,8.7,1.3,13.1
				c0,2.6,0.5,5.3,2.4,7.3c1.3,1.4,2.9,2.7,4.3,4c0.2,0.2,0.6,0.4,1.1,0.6c0.6-11.8-2-22.9-3.5-34.9
				C214.2,148.5,213,148.4,211.8,147z"/>
			<path d="M237.1,229c-0.4-1.3-0.6-2.7-1.1-4.1c-0.5-1.5-0.9-3.1-1.3-4.6c-0.4-1.9-0.9-3.8-0.8-5.5c0.2-4.1,0.6-8.1-0.6-12.1
				c-0.8-2.6-1.3-5.4-2.5-7.9c-1.8-3.4-4-6.5-6.8-9.2c-1.1-1.1-1.4-2.1-1.3-3.5c0.1-2.4,0.1-4.7,0.1-7.1c0-6.1,0-12.1,0.1-18.2
				c0-3.5,0.1-7.1,0.1-10.5c0-6.4,0-12.7,0-19.2c0-1.4,0.1-2.7,0.4-4.1c0.1-0.7,0.4-1.9,0.9-2.1c2.5-1.1,3.5-3.3,4.7-5.4
				c0.5-0.8,0.5-2.1,0.1-2.9c-1.4-2.9-2-5.9-2.2-9.1c-0.1-1.6-1.1-3.3-1.4-4.9c-0.6-3.3-1.2-6.7-1.5-10c-0.1-0.7,0.2-1.5,0.5-2.2
				c0.8-1.8,1.3-3.5,0.4-5.5c-0.7-1.4-0.8-3.2-1.2-4.7c-0.2-0.7-0.4-1.6-0.8-2.2c-1.2-1.3-1.2-2.6-0.8-4.1c0.2-0.9,0.2-1.9,0.5-2.8
				c-0.1,0-0.2-0.1-0.5-0.1c-0.4,0.4-0.8,0.7-1.2,1.1c-0.8,0.7-1.8,0.8-2.5-0.1c-1.3-1.5-2.7-2-4.6-1.9c-0.2,0-0.4-0.1-0.6-0.1
				c-0.1-0.1-0.2-0.4-0.4-0.5c0.5-0.2,0.9-0.5,1.3-0.8c0.5-0.5,0.8-1.1,1.2-1.6c1.1-1.9-0.4-3.3-1.3-4.7c0-0.1-0.8,0-0.9,0.2
				c-0.9,1.4-1.8,2.8-2.5,4.4c-0.2,0.4-0.5,1.2-0.2,1.4c1.1,0.9,0.8,2,0.4,3.2c-0.6,1.4-0.9,1.8-2.4,1.2c-1.2-0.6-1.8-1.5-1.8-2.8
				c0-0.9,0.1-1.8,0.1-2.7c0-0.5-0.2-0.8-0.5-1.2c-0.4,0.1-0.9,0.2-1.1,0.5c-1.4,2.1-2.7,4.2-4.1,6.4c-0.7,1.1-1.3,2.4-2.2,2.9
				c-3.9,2.4-6.5,5.9-9,9.4c-1.9,2.5-3.6,4.9-5.6,7.4c-0.7,0.9-1.9,1.5-2.7,2.5c-1.5,1.9-3.1,3.9-4.2,6c-1.9,3.3-3.5,6.6-5.1,10
				c-1.2,2.7-2.1,5.4-3.2,8.1c-0.9,2.5-2,4.9-2.7,7.5c-0.8,2.5-1.3,4.9-1.9,7.5c-0.7,2.7-1.3,5.4-2,8.2c-0.2,0.9-0.2,2.1-0.6,3.1
				c-0.2,0.6-0.8,1.1-1.2,1.6c-0.5-0.5-0.9-0.9-1.3-1.4c-0.2-0.4-0.2-0.9-0.6-1.2c-1.2-0.8-2.4-1.6-3.5-2.2
				c-1.3-0.7-1.3-1.3-0.2-2.5c0.8-0.8,1.2-2,1.8-2.9c0.5-0.8,0.7-1.8,1.4-2.2c2.9-2,2.9-6,0-8c-1.5-0.9-1.9-1.8-1.4-3.5
				c0.4-1.3,1.3-2.5,0.5-4c-0.1-0.2,0.2-0.9,0.6-1.3c1.1-1.2,0.7-2.4,0-3.6c-0.5-0.9-0.9-1.9-1.4-2.7c-0.2-0.4-0.6-0.6-0.9-0.9
				c-0.2,0.4-0.8,0.7-0.8,1.2c0,1.5,0.1,3.2,0.1,4.7c0,0.4-0.4,0.8-0.6,0.9c-0.8,0.4-1.6,0.6-2.4,0.9c-0.9,0.4-0.8,1.1-0.4,1.6
				c0.2,0.4,0.7,0.6,1.1,0.8c0.9,0.9,2.4,1.9,2.1,3.4c-0.1,1.6-1.6,1.8-2.7,2.5c-1.6,1.1-3.5,2-3.5,4.5c0,0.7-0.6,2-1.1,2
				c-1.2,0.2-0.9-1.1-1.1-1.8c-0.5-2.4-1.5-3.1-3.9-2.6c-0.7,0.1-1.6,0.4-2.1,0.1c-2-1.1-3.6-2.7-4.2-4.8c-1.2-4.4-2-8.8-3.1-13.2
				c-0.6-2.7-1.3-5.5-1.9-8.2c-0.1-0.4-0.4-0.6-0.6-0.9c-0.2,0.2-0.4,0.4-0.4,0.4c0.2,3.5-0.1,7.1,1.3,10.4c0.2,0.5,0.2,0.9,0.4,1.5
				c0.5,2.6,0.9,5.1,1.3,7.6c0.1,1.3,0.4,2.7,0,3.9c-0.7,2.6,0.1,4,2.8,4.1c0.5,0,1.2,0.2,1.4,0.6c0.5,0.8,0.8,1.6,1.1,2.6
				c0.1,0.4-0.1,1.1-0.5,1.2c-0.8,0.5-1.8,0.7-2.9,1.1c-0.8-1.9-2.8-1.6-4.7-2c-0.8-0.1-1.8-0.9-2-1.8c-0.6-1.6-0.5-3.6-2.2-4.7
				c-1.4-4.4-2.9-8.7-4.2-13.1c-0.7-2.4-1.3-4.7-2.1-7.1c-0.2-0.7-0.8-1.4-1.3-2.1c-0.2,0.1-0.5,0.2-0.6,0.2c0,0.8-0.1,1.5,0,2.4
				c0.4,1.6,0.9,3.3,1.4,4.9c0.4,1.3,0.7,2.5,1.2,3.8c0.6,2,1.3,4,1.9,5.9c0.1,0.5,0.4,0.9,0.5,1.3c0.5,1.8,1.1,3.5,1.3,5.3
				c0.1,0.7,0,1.5-0.5,2.1c-0.8,1.2-0.4,2.2,0.5,2.7c1.2,0.6,1.5,1.5,2.2,2.5c0.7,1.1,0.7,2,0.7,3.1s-0.8,1.4-1.8,0.8
				c-0.4-0.2-0.6-0.6-0.9-0.9c-0.7-0.7-1.4-0.8-2.2-0.2c-2,1.3-2.8,0.9-3.9-1.2c-0.9-1.8-1.8-3.8-3.1-5.2c-0.9-1.2-1.6-2.4-2.1-3.6
				c-0.1-0.5-0.2-0.9-0.4-1.4c-1.2-3.6-2.4-7.4-3.6-11.1c-0.6-1.8-1.3-3.5-2-5.3c-0.1-0.4-0.7-0.5-1.1-0.7c-0.1,0.5-0.4,0.9-0.5,1.3
				c0,0.1,0.1,0.4,0.1,0.6c0.9,2.9,1.8,5.9,2.6,8.7c0.7,2.2,1.3,4.4,2.1,6.6c0.4,0.9,1.1,1.8,1.2,2.8c0.4,1.6,0.9,3.1,1.9,4.5
				c0.5,0.7,0.7,1.5,0.9,2.5c0.5,1.8,0.6,3.9,2.2,4.9c1.2,0.8,1.3,1.5,0.8,2.7c-0.1,0.4-0.2,0.7-0.4,1.1c-0.1,0.6-0.4,1.1-0.5,1.5
				c-0.7-0.2-1.5-0.4-2.2-0.8c-0.6-0.4-0.8-1.1-1.3-1.4c-2.6-1.9-4.1-4.5-5.6-7.1c-0.2-0.5-0.8-0.9-1.2-1.4
				c-0.7-0.9-1.6-1.8-2.1-2.8c-1.1-2.7-2-5.5-2.9-8.4c-0.8-2.6-1.6-5.3-2.5-7.9c-0.5-1.3-0.8-2.7-1.4-4c-0.1-0.4-0.7-0.5-1.1-0.8
				c-0.1,0.4-0.5,0.7-0.5,1.1c0.1,1.2,0.2,2.4,0.6,3.4c0.2,1.1,0.8,2.1,1.2,3.2c0.9,2.7,1.9,5.5,2.7,8.2c0.8,2.7,1.5,5.4,2.4,8.1
				c0.2,0.7,0.6,1.3,0.9,2c0.7,1.3,1.5,2.6,2.2,3.8c1.2,2,1.8,4.2,3.6,5.9c1.4,1.3,2.2,3.4,3.1,5.2c0.6,1.3,0.5,2.9,1.2,4.2
				c0.7,1.4,0.7,2.8,0.4,4.2c-0.1,0.5-0.2,1.1-0.4,1.5c-0.2,2.4-0.5,4.7-0.7,7.1c0,0.2,0,0.6-0.1,0.8c-0.8,1.5-0.6,2.8,0.7,4
				c0.4,0.4,0.6,1.2,0.4,1.5c-0.7,1.6-1.4,3.5-2.6,4.8c-2.6,2.6-5.5,4.8-8.3,7.2c-0.1,0.1-0.4,0.2-0.6,0.4c-2.1,0.5-4,1.4-5.2,3.3
				c-0.1,0.1-0.4,0.2-0.5,0.2c-2.8,1.3-5.8,2.5-8.5,4c-4.1,2.1-8,4.5-12,6.7c-1.1,0.6-2,1.3-2.8,2.1c-2.4,2.4-4.8,4.6-7.1,7.1
				c-1.8,2-3.2,4.2-4.7,6.5c-0.6,0.8-0.9,1.9-1.5,2.7c-2,2.9-3.3,6.1-3.2,9.9c0,1.1,0.4,1.6,1.4,1.9c8,2.2,15.9,4.8,24,6.8
				c17.2,4.1,34.7,6.6,52.3,7.3c9.8,0.4,19.5,0.4,29.3,0.1c11.5-0.2,22.8-1.5,34.2-3.3c12.9-2,25.6-4.9,38.1-8.8
				C237.4,231.1,237.6,230.7,237.1,229z M210.9,118.8c1.3-0.4,2.1,0.4,2.8,2.8c-1.3,0.6-2.6,1.1-3.9,1.5
				C209.2,120,209.4,119.1,210.9,118.8z M209.6,136.3c-0.1-0.4-0.2-0.6-0.2-0.9c0-2.9-0.1-5.9,0-8.8c0-0.4,0.5-0.9,0.9-1.1
				c1.8-0.8,3.4-1.5,5.2-2.1c1.8-0.6,4.5,0.4,5.4,1.9c0.4,0.6,0.2,1.6-0.1,2.1c-1.2,1.5-2.5,3.2-3.8,4.5c-1.1,1.1-1.4,2-1.2,3.4
				c0.2,1.2,0.2,2.4,0.4,3.4c-0.2,0-0.4,0.1-0.6,0.1c-0.2-0.9-0.4-1.9-0.6-2.8c-0.1-0.5-0.4-0.8-0.6-1.2c-0.4,0.2-0.8,0.4-1.2,0.6
				c-0.5,0.4-0.9,0.9-1.4,1.3C210.7,137.6,210.1,137.5,209.6,136.3z M219.5,181.7c-0.5-0.2-0.8-0.4-1.1-0.6c-1.4-1.3-3.1-2.6-4.3-4
				c-1.9-2-2.4-4.7-2.4-7.3c0.1-4.5-0.8-8.7-1.3-13.1c-0.2-2.9-0.1-6-0.1-9.1c0-0.9,0.9-1.2,1.3-0.7c1.3,1.4,2.6,1.5,4.3-0.1
				C217.5,158.8,220.1,169.9,219.5,181.7z M221,162.2c0,0.6-0.2,1.2-0.5,1.9h-0.4c-0.2-0.7-0.5-1.5-0.6-2.2
				c-0.8-5.5-1.4-10.9-2.2-16.5c-0.4-2.5,0.7-4.7,0.9-7.1c0.2-2,0.7-4,1.1-6c0-0.2,0-0.6,0.1-0.8c0.4-0.5,0.7-0.8,1.2-1.3
				c0.2,0.5,0.6,0.9,0.6,1.4c0,8.7,0.1,17.4,0.1,26.1C221.2,159.1,221.2,160.6,221,162.2z"/>
		</g>
		<path d="M216.3,39c0.9-0.9,1.8-1.6,2.6-2.4c0.1,0.1,0.2,0.1,0.4,0.2c-0.1,0.5-0.2,1.1-0.2,1.5c-0.1,0.9,0.4,1.4,1.3,1.1
			c0.8-0.2,1.6-0.6,2.5-1.1c2.4-1.2,4.6-1.8,7.2-0.7c1.1,0.4,1.5,0,1.6-1.2c0.1-0.8,0.5-2.1,1.1-2.4c1.3-0.4,2.7-0.6,3.9,0.6
			c1.4,1.4,3.2,2.4,4,4.4c0.1,0.2,0.9,0.2,1.4,0.1c0.6-0.1,1.1-0.5,1.6-0.7c0.2,0.6,0.7,1.3,0.5,1.8c-0.4,1.2-0.8,2.6-1.8,3.3
			c-0.9,0.8-2.4,1.2-3.6,0.4c-0.7-0.5-1.1-0.9-0.7-1.8c0.1-0.4,0-0.7,0-1.1c-0.4,0-0.7-0.1-0.9,0.1c-0.8,0.5-1.5,0.2-2.1-0.5
			c-1.3-1.5-2.9-1.5-4.7-0.8c-1.6,0.7-3.4,1.2-5.2,1.6c-0.1,0-0.2,0-0.2,0.1c-1.9,2.2-4.1,1.1-6.3,0.7c-0.9-0.2-1.2,0.2-1.5,0.8
			c-0.5,1.2,1.2,3.3,2.4,2.9c1.4-0.5,2.7,0,3.9,0.5c1.2,0.5,1.5,1.3,0.7,2.2c-1.5,1.6-2.8,3.6-5.4,3.8c-1.2,0-2.5,0.4-3.6,0.6
			c-0.8,0.2-1.3,0.7-0.7,1.6c0.2,0.4,0.2,1.2,0,1.5c-0.2,0.2-0.9,0.2-1.4,0.2c-0.2,0-0.5-0.1-0.6-0.2c-1.2-1.6-2.5-3.2-3.6-4.8
			c-0.1-0.1-0.1-0.5,0-0.7c0.9-1.8-0.4-2.7-1.2-4c-1.1-1.4-2.1-2.8-3.1-4.4c-0.5-0.8-0.4-1.8,0.6-2.2c1.1-0.6,1.9-0.2,2.5,0.6
			c0.7,1.1,1.2,2.4,1.8,3.5c0.2,0.5,0.7,0.7,1.1,1.1c0.2-0.5,0.8-0.9,0.8-1.4c0.1-1.9,0-3.9,0-5.8c0-2.5,1.4-4.1,3.6-4.7
			c1.3-0.2,1.9,0.1,1.8,1.4c0,1.1-0.4,2-0.5,3.1C216.1,38.2,216.2,38.5,216.3,39z"/>
		<path d="M212.3,23.1c0.7,0.1,1.5,0.4,2.2,0.2c0.6,0,1.5-0.4,1.6-0.7c0.4-0.9-0.6-1.2-1.3-1.4c-0.5-0.1-1.1-0.1-1.5-0.4
			c-2.9-0.8-4.2-4.1-2.6-6.7c1.3-2,1.1-3.8-0.7-5.2c-0.1-0.1-0.4-0.2-0.5-0.4c-0.7-1.6-1.9-2-3.6-1.8c-1.1,0.1-1.5-0.6-0.8-1.5
			s1.6-1.9,2.5-2.8c0.2-0.4,0.5-0.7,0.8-0.9c0.4-0.4,0.8-0.6,1.4-0.8c0.6-0.2,1.3-0.6,1.9-0.7c0.4-0.1,0.8,0.1,1.3,0.2
			c0.8,0.2,1.5,0.8,2.4,0.8c1.5,0.1,2.4,0.9,1.6,2.4c-0.9,1.6-1.3,3.4-1.2,5.3c0,0.8,0.4,2.1,0.8,2.2c1.1,0.4,1.6-0.6,1.9-1.6
			c0.1-0.4,0.6-0.5,0.9-0.8c0,0.4,0.2,0.8,0.1,1.1c-0.7,1.9-1.6,3.8-2.4,5.6c-0.1,0.5,0,1.3,0.2,1.5c2.9,2.4,2.6,5.4,2,8.5
			c-0.4,1.6-1.1,3.3-1.6,4.9c-0.4,0.8-0.9,1.2-1.8,0.5c-1.1-0.8-1.8-0.7-2.5,0.6c-0.6,1.1-1.8,1.2-2.9,0.4c-1.2-0.8-1.6-2.6-1.3-4.1
			c0.1-0.6,0.4-1.3,0.4-1.9C209.4,23.2,209.6,23,212.3,23.1z"/>
		<path d="M187.4,32.9c1.3,0.1,2.5,0.2,3.8,0.6c0.6,0.1,1.3,0.6,1.6,1.2c0.2,0.4,0.2,1.1,0.1,1.5c-0.1,0.4-0.7,0.6-1.1,0.6
			c-2.2,0.5-4.5,0.9-6.7,1.3c-1.2,0.2-2.4,0.5-3.4,0.4c-1.3-0.1-1.5-1.1-0.7-2C182.6,34.4,184.3,32.2,187.4,32.9z"/>
		<path d="M193.2,43.6c-0.5-0.1-1.1-0.1-1.5-0.2c-2.6-0.4-5.3-1.1-7.9,0c-0.8,0.4-1.6,0.9-2.5,1.3c-1.3,0.5-2.2,0-2.8-1.3
			c-0.5-1.3,0.5-1.6,1.4-2c2.9-1.3,6-1.9,9-0.2c1.1,0.6,2.2,0.8,3.4,1.3c0.4,0.1,0.7,0.5,0.9,0.7C193.3,43.2,193.3,43.3,193.2,43.6z
			"/>
		<path d="M221.7,36.8c-0.8-0.4-1.6-0.6-1.8-0.9c-0.1-0.5,0.2-1.2,0.6-1.6c1.1-1.4,2.2-2.8,3.5-4c1.1-0.9,2.5-1.6,3.8-2.4
			c0.2-0.1,0.7,0.1,1.1,0.2c-0.1,0.4-0.1,0.8-0.4,0.9c-2.1,1.8-3.4,4.1-4.8,6.4C223.3,35.9,222.4,36.3,221.7,36.8z"/>
		<path d="M233.4,31.9c-0.8,0.5-1.6,0.8-2.5,1.3c-0.4,0.2-1.1,0.5-1.3,0.4c-0.4-0.2-0.6-0.8-0.6-1.3c-0.1-1.2,0.4-2.2,1.4-2.8
			c1.1-0.6,2.4-1.1,3.5-1.3c1.5-0.4,2.5,0.5,2.6,1.6c0.1,1.4-0.8,2.4-2.4,2.5c-0.2,0-0.5,0-0.7,0C233.4,32.2,233.4,32.1,233.4,31.9z
			"/>
		<path d="M207.4,23c0.1,1.2,0.2,2.4,0.2,3.5c0,1.4-1.3,2.5-2.7,2c-0.4-0.1-0.7-0.8-0.7-1.2c0.1-1.4,0.4-2.8,0.5-4.2
			c0.1-0.7,0-1.5,0.1-2.2c0.1-0.7,0.5-1.4,0.9-1.9c0.6-0.6,1.3-0.2,1.4,0.6c0.1,1.1,0.2,2.2,0.2,3.3C207.5,23,207.5,23,207.4,23z"/>
		<path d="M202.2,49.1c1.2,0.5,2.5,0.7,3.6,1.3c1.1,0.6,1.1,1.6,0,2.2c-0.8,0.5-1.6,0.7-2.5,0.9c-0.5,0.1-1.1-0.1-1.4-0.4
			c-0.7-0.6-1.3-1.2-1.9-1.9c-0.6-0.6-0.4-1.6,0.6-1.9c0.5-0.1,0.9,0,1.4,0C202.1,49.3,202.1,49.2,202.2,49.1z"/>
		<path d="M198.6,45.9c-0.2,0.4-0.5,0.8-0.7,0.9c-0.2,0.1-0.8,0-0.9-0.2c-0.6-0.6-1.2-1.3-1.4-2c-0.1-0.5,0.1-1.5,0.5-1.6
			c0.5-0.2,1.4,0,1.8,0.5C198.2,44.1,198.4,45,198.6,45.9z"/>
		<path d="M200.4,33.7c1.8,0,2.8,0.8,2.8,2c0,0.4-0.6,0.8-0.8,0.8c-1.2,0.1-2.8-1.1-2.7-1.9C199.5,34.3,200.1,33.9,200.4,33.7z"/>
		<path d="M193.9,29c0.9-1.4,3.1-2.5,4.5-2c0.4,0.1,0.6,0.5,0.8,0.6c-0.2,0.2-0.5,0.6-0.7,0.7c-1.4,0.5-2.9,0.8-4.3,1.2
			C194,29.4,193.9,29.1,193.9,29z"/>
		<path d="M205.4,18.1c-0.4-0.6-0.8-1.1-0.7-1.2c0.2-0.7,0.8-1.3,1.2-1.9c0.5,0.6,1.1,1.1,1.5,1.6C206.8,17,206.2,17.5,205.4,18.1z"
			/>
		<path d="M210.7,55.9c0.2,0.9,0.4,1.9,0.6,2.8c-0.2,0-0.5,0.1-0.8,0.1c-0.2-0.9-0.4-1.9-0.6-2.8C210.1,56.1,210.3,55.9,210.7,55.9z
			"/>
		<path d="M152.9,112.2c-0.5,0.4-0.8,0.7-1.1,0.6c-0.4-0.1-0.6-0.5-0.7-0.8c0-0.1,0.5-0.7,0.7-0.6
			C152.1,111.3,152.4,111.8,152.9,112.2z"/>
		<path style="fill:#FFFFFF;" d="M224.2,192.6c-0.5,0.1-0.9,0.6-0.1,1.4c0.2,0.2,0.2,0.9,0.1,1.3c-1.2,2.6-0.6,5.3-0.5,8
			c0.1,2.4,1.3,4.5,0.6,6.8c-0.1,0.2,0.1,0.6,0.2,0.9c0.2,0.7,0.4,1.4,0.7,2.2c0.5,0.1,1.2,0.4,2,0.5c1.3,0.2,3.1,1.8,3.3,2.9
			c0,0.2-0.2,0.7-0.5,0.8c-0.6,0.1-1.1,0-1.6-0.1c-0.8-0.1-1.8-0.4-2.6-0.5c-1.5,0-2.1,0.7-2.1,2.1c0.4,4.5,0.6,8.9,0.9,13.4
			c0.1,1.6-0.1,1.9-1.8,1.5c2.4-1.8,0-3.6,0.4-5.6c0.2-1.9-0.5-3.6-0.1-5.6c0.2-1.8-0.2-3.6-0.5-5.4c-0.1-0.9-0.8-1.2-1.8-1.3
			c-1.4-0.1-2.8-0.4-4.1-0.7c-1.4-0.4-1.8-0.1-1.5,1.4c0.1,0.5,0.1,0.8,0.1,1.3c-0.1,0-0.4,0.1-0.5,0.1c-0.2-0.6-0.6-1.2-0.7-1.8
			c-0.1-0.8-0.5-1.2-1.3-1.2c-1.2,0-2.4-0.4-3.5-0.4c-2.2,0-4.5,0.2-6.7,0.4c-0.5,0-0.9-0.2-1.4-0.4c-0.8-0.1-1.6-0.1-2.5-0.1
			c-1.2-0.1-2.4-0.2-3.5-0.4c-0.4,0-0.7,0-1.1,0c-0.1,0-0.4,0.4-0.5,0.2c-1.5-0.9-3.1,0.2-4.6-0.1c-0.2,0-0.5,0-0.6-0.1
			c-2.1-1.5-4.3-0.6-6.6-0.8c-2.8-0.2-5.1,1.9-7.8,1.4c-0.1,0-0.2,0.1-0.5,0.5c2.4,1.2,4.8-0.6,6.9,0.7c-0.1,0.8-0.2,1.8-0.4,2.7
			c-0.1,0.4-0.5,0.7-0.7,0.9c-0.9,0.8-0.8,1.6,0.4,2.1c0.6,0.2,1.2,0.5,1.8,0.5s1.3-0.1,1.6-0.5c0.2-0.2,0-1.1-0.2-1.5
			c-0.4-0.7-0.9-1.3-1.2-2c-0.2-0.7,0-1.4,0-2.4c2.6,0,5.3,0,8,0c-0.1,0.1-0.2,0.4-0.4,0.5c0.4,0.8,0.9,1.5,1.2,2.4
			c0.1,0.6,0,1.4-0.4,1.8c-0.5,0.7-1.3,1.1-1.9,1.6c-0.4,0.4-0.4,1.1-0.6,1.9c1.2-0.4,2-0.7,2.8-0.9c0.8-0.2,1.3,0.2,1.2,1.1
			c-0.1,0.7-0.2,1.5-0.4,2.2c-0.2,0.8-0.6,1.3-1.6,0.8c-0.4-0.1-1.1,0-1.3,0.2c-0.8,1.1-1.5,2.2-2.4,3.3c-0.7,0.9-1.3,2.1-2.2,2.8
			c-0.7,0.5-1.9,0.6-2.8,0.6c-1.4,0-1.8,0.1-1.3,1.5c0.1,0.5,0.4,0.8,0.5,0.9c1.4,0,2.6,0,3.6,0c0.2,0,0.5,0.1,0.6,0.2
			c0.7,0.6,1.4,1.2,2.4,2.1c-1.5,0.8-3.1,1.8-4.7,2.6c-0.6,0.4-1.3,0.2-1.3-0.8c0-0.8-0.4-1.8-0.6-2.6c-0.1,0-0.2,0-0.4,0
			c-0.1,0.9-0.2,1.9-0.4,2.8c-0.1,0.4-0.4,0.6-0.6,0.9c-0.2-0.4-0.6-0.6-0.6-0.9c-0.2-1.4-0.4-2.8-0.5-4.4c-0.1-0.5-0.2-0.9-0.5-1.4
			c-0.1,0-0.4,0-0.5-0.1c-0.1,0.5-0.5,1.1-0.5,1.5c0,1.3,0.1,2.6,0.1,3.9c0,0.7-1.3,1.8-2,1.5c-0.8-0.4-1.3-0.9-1.1-1.9
			c0.4-1.1,0-2.1-0.8-2.6c-1.1-0.7-1.2-1.8-1.4-2.8c-0.4-1.8-0.8-3.5-0.9-5.3c-0.4-3.9-1.4-7.8-0.9-11.8c0-0.4-0.5-0.9-0.7-1.1
			c-2.1-0.6-4.2-0.2-6.1,0.7c-0.4,0.2-0.6,1.2-0.5,1.6c0.2,1.4,0.5,2.7-1.3,3.4c-0.4,0.1-0.6,0.9-0.5,1.3c0.2,0.5,0.7,0.7,1.3,0.9
			c0.2,0.1,0.6-0.1,1.3-0.4c0.2,1.8,0.4,3.4,0.6,5.2c0.4,2.9,0.7,6,1.2,8.9c0.1,1.1,0.4,2.1,0.6,3.3c0.2,1.1-0.4,1.3-1.1,1.2
			c-0.2-2.7-0.5-5.2-0.7-7.8c0-0.4-0.6-0.7-0.9-1.1c-0.2,0.5-0.8,0.8-0.8,1.3c-0.1,0.9,0.2,2,0.1,2.9c0,0.5-0.6,0.9-0.8,1.3
			c-0.4-0.4-0.8-0.7-1.1-1.2c-0.8-1.8-0.9-3.8-0.7-5.6c0.1-0.6,0.5-1.1,0.8-1.5c0.5-0.8,1.3-1.5,1.5-2.4c0.2-0.7-0.2-1.3-1.2-0.9
			c-0.8,0.4-1.5,0.8-2.2,1.1c-0.5,0.1-0.9,0-1.4,0.1c0-0.5,0.1-0.9,0.2-1.6c-0.4-0.2-0.9-0.8-1.5-0.7c-1.4,0.2-1.9-0.4-2.2-1.5
			c-0.1-0.4-0.6-0.8-0.9-1.1c-0.8-0.6-1.5-0.2-1.6,0.8c-0.1,0.5-0.1,0.9-0.2,1.6c-1.6-2.5-1.6-2.5-4.1-2c0.1-1.3,0.4-2.5,0.5-3.6
			c0.1-0.6,0.2-1.2,0.5-1.6c0.2-0.4,0.7-0.7,1.1-0.7c0.2,0,0.7,0.6,0.8,0.9c0.1,0.5,0,1.1,0,1.5c0,1.2,0.8,1.8,1.9,1.6
			c0.5,0,1.1,0.1,1.4,0.4c0.9,0.9,1.9,0.6,2.7,0c0.8-0.7,0.4-1.4-0.1-2.1c-0.6-0.9-1.2-1.8-1.5-2.8c-0.4-1.1,0.6-0.9,1.3-1.1
			c1.8-0.2,3.5-0.5,5.3-0.8c0,0,0.1-0.1,0.4-0.6c-1.1,0-2,0-2.9,0c-1.1-0.1-2.1-0.2-3.2-0.4c-0.2,0-0.6-0.2-0.8-0.1
			c-1.9,0.5-3.8,0.9-5.8,1.3c-2.2,0.5-4.5,0.8-6.7,1.5c-1.9,0.6-3.8,1.5-5.5,2.4c-1.5,0.7-3.1,1.4-4.6,2c-1.9,0.7-3.9,1.2-5.6,1.9
			c-1.8,0.7-3.4,1.8-5.2,2.5c-2.9,1.2-5.9,2.2-8.8,3.4c-1.5,0.6-3.1,1.5-4.6,2.2c-1.4,0.6-2.8,1.1-4.3,1.5c-1.1,0.4-2.2,0.5-2.8,1.6
			c-0.2,0.4-0.7,0.6-1.2,0.7c-1.2,0.5-2.5,0.7-3.5,1.3c-1.8,0.8-3.5,0.7-5.2,0.1c-0.2-0.1-0.4-0.7-0.5-1.2c-0.1-0.6,0-1.3-0.2-1.9
			c-0.1-0.4-0.7-0.6-1.1-0.7c-0.2,0-0.6,0.5-0.8,0.8c-0.4,0.6-0.6,1.2-0.7,1.6c-1.9-0.5-3.5-0.9-5.4-1.5c0.2-0.2,0.6-0.5,1.1-0.7
			c2.5-1.4,5.1-2.8,7.5-4.2c0.2-0.1,0.6-0.4,0.9-0.4c3.4-0.2,6.1-2.2,9-3.6c0.4-0.1,0.6-0.4,0.8-0.5c2.4-0.1,3.9-1.6,5.9-2.6
			s4.1-1.8,6.1-2.7c1.4-0.6,2.8-1.1,4.2-1.8c0.8-0.4,1.5-1.1,2.4-1.5c0.5-0.2,1.1-0.4,1.5-0.5c0.7-0.2,1.5-0.2,2.2-0.6
			c1.8-0.7,3.5-1.5,5.2-2.4c2.4-1.2,4.8-2.4,7.2-3.4c0.9-0.5,2-0.7,3.1-1.1c2.6-1.1,5.2-2.2,7.9-3.2c1.1-0.5,2.4-0.6,3.5-0.8
			c0.2-0.1,0.5-0.2,0.7-0.4c1.2-1.1,2.4-2.1,3.6-3.1c0.8-0.6,2-0.8,3.1-0.8c2.1-0.1,4.5-0.5,6.3,0.8c0.4,0.2,0.7,0.5,0.9,0.8
			c0.7,0.8,2,1.2,2.7,0.4c1.1-1.2,2.2-1.2,3.6-1.2c2.5,0,4.8,0,7.3,0c0.8,0,1.6,0,2.4,0.1c1.5,0.1,1.9-0.2,1.9-1.6
			c0-0.9,0.1-1.8,0.2-2.7c0.1,0,0.4,0,0.5,0c0.1,0.4,0.1,0.6,0.2,0.9c0.1,0.9,0.2,2,0.5,2.8c0.4,1.1,1.1,1.4,2.2,0.8
			c0.5-0.2,1.1-0.1,1.6,0c0.8,0.1,1.6,0.5,2.5,0.6c3.1,0.1,6.1,0.2,9.2,0.4c0.7,0,1.3,0,2,0.1c1.1,0,2.1-0.1,2.8,1.1
			c0.4,0.5,1.2,0.5,1.8,0.7c0.8,0.4,1.8,0.7,2.5,1.3c0.4,0.2,0.1,1.2,0.2,1.8c-0.5-0.2-1.2-0.2-1.4-0.6c-0.8-1.1-2.1-1.3-3.2-0.5
			c-0.8,0.7-1.6,0.8-2.7,0.6c-0.5-0.1-1.2,0.7-1.6,1.3c-0.2,0.2-0.2,0.9,0,1.2c0.6,0.7,1.2,1.5,2.5,1.2c0.7-0.1,1.5,0.5,2.6,0.6
			c-0.2-0.4-0.7-0.6-0.8-0.9c-0.1-0.5-0.4-1.2-0.1-1.5c1.4-1.9,3.3-1.6,4.1,0.7c0.1,0.4,0,0.8-0.2,1.2c-0.2,0.6-0.7,1.2-0.8,2
			c0.4-0.1,0.6-0.4,0.9-0.5c1.6-0.9,3.2-0.4,4.7,0.2c1.3,0.5,2.8,0.7,4.2,0.8c0.5,0,0.9-0.7,1.4-1.1c1.3-1.1,1.4-1.1,2.6,0.2
			c0.2,0.4,0.7,0.5,1.1,0.7c0.2-0.5,0.5-0.8,0.6-1.3c0.1-0.2,0-0.5-0.1-0.7c-0.2-0.6-0.5-1.3-0.6-1.9c-0.6,0.4-1.3,0.5-1.8,0.9
			c-0.7,0.6-1.3,0.6-1.4-0.2c-0.1-0.9-0.1-2,0.2-2.8c0.2-0.6,1.4-1.1,2.1-0.9c1.1,0.2,1.4-0.4,1.3-1.1c-0.1-1.6-0.4-3.3-0.8-4.8
			c-0.1-0.5-0.8-0.9-1.4-1.2c-0.9-0.4-2-0.6-2.9-0.8c-0.4,0-0.9,0.2-0.9,0.4c0,1.2-0.2,2.5,0.1,3.6c0.2,0.8,1.4,0.7,2-0.2
			c0.4-0.5,0.8-0.8,1.3-1.3c0.1,0.1,0.4,0.1,0.5,0.2c-0.1,0.9-0.1,2-0.5,2.8c-0.9,1.9-2.1,3.6-3.2,5.4c-0.1,0.2-0.7,0.6-0.9,0.5
			c-0.9-0.5-1.9-1.1-2.8-1.6c-1.4-1.1-2.4-2.4-2.7-4.1c0-0.4-0.6-0.5-0.8-0.8c-0.7-0.7-1.6-1.3-2-2.1c-0.5-1.2-1.2-1.9-2.2-2.4
			c-0.1,0-0.2-0.1-0.4-0.2c-3.1-3.3-6.9-5.1-11.4-5.9c-2.8-0.6-5.3-0.5-7.9,0.7c-0.8,0.4-1.6,1.2-2.2,1.1c-0.7-0.1-1.1-1.3-1.8-1.9
			c-1.6-1.3-3.5-2.4-5.3-3.5c-0.1-0.1-0.2-0.1-0.4-0.1c-2.1,0-4.2-0.2-6.1-1.4c-0.1-0.1-0.4,0.1-0.6,0.1c0.1,0.2,0.1,0.5,0.2,0.6
			c0.7,0.7,1.8,1.4,1.3,2.5c-0.7,1.4-1.5,3.2-2.8,3.9c-1.9,0.9-4.1,1.5-6.2,1.6c-4.3,0.2-5.4-2.7-4.5-6.8c0.1-0.8,0.9-1.5,1.3-2.2
			c0.1-0.4,0.4-0.7,0.4-0.9c0-0.1-0.6-0.4-0.8-0.4c-2,0.1-3.6-1.1-5.1-2.1c-2.5-1.8-5.1-1.4-7.6-1.2c-0.7,0.1-1.4,0.4-2.2,0.6
			c-1.6,0.5-3.1,1.2-4.5,2.4c-2.8,2.5-6.1,4.4-9.3,6.5c-1.6,1.1-3.1,4.5-2.6,6.4c0.2,1.2,0.1,2.5,0.1,3.8c0,0.1-0.1,0.5-0.2,0.5
			c-0.9,0-1.9,0.1-2.7,0c-0.2,0-0.6-0.9-0.6-1.4c0.1-1.5,0.6-2.8,1.9-3.9c0.7-0.6,0.9-1.8,1.3-2.7c-0.1-0.1-0.2-0.4-0.5-0.5
			c-2,0.7-4,1.4-5.9,2.1c-0.1-0.2-0.1-0.4-0.2-0.6c3.4-1.9,6.8-3.8,10.2-5.6c0-0.2-0.1-0.4-0.1-0.6c-0.5-0.1-1.1-0.2-1.6-0.4
			c0-0.2,0.1-0.7,0-0.8c-0.4-0.5-0.8-1.2-1.1-1.1c-1.3,0.4-2.5,0.7-3.6,1.3c-1.9,0.9-3.8,2.1-5.6,3.2c-1.5,0.8-3.1,1.6-4.6,2.4
			c-0.8,0.4-1.8,0.7-2.9,1.2c1.3,0.7,2.2,1.3,3.2,1.8c-0.5,0.9-1.8,1.3-2.9,0.7c-0.7-0.4-1.5-0.7-2.2-1.1c-0.8-0.2-1.3-0.1-1.4,0.9
			c-0.5,3.4-1.3,4-4.7,3.1c-1.3-0.4-2.6-0.7-3.9-0.7c-1.4,0-1.6,0.6-1.5,2c0,0.4-0.5,0.9-0.9,1.1c-1.5,0.6-3.1,0.9-4.5,1.8
			c-0.8,0.5-1.3,1.5-2.1,2.5c-0.1-0.6-0.2-1.3-0.4-2c-0.1-0.1-0.2-0.1-0.5-0.2c-0.9,1.1-1.9,2-2.9,3.2c-0.9,0-2.2-0.1-3.4,0
			c-1.3,0.2-2.2,0.9-2.5,2.4c-0.9-0.7-1.3-2.2-0.5-3.6c1.2-2.1,2.6-4.2,4-6.2c3.4-5.3,8.8-8,14.2-10.6c1.8-0.9,2.2-0.5,2.1,1.5
			c0,0.4,0,0.6,0,0.9c0.7,0.1,1.4,0.4,2,0.4c0.4,0,0.8-0.1,1.2-0.4c1.1-0.7,2-1.4,2.9-2.2c0.6-0.6,0.9-1.5,1.5-2.2
			c0.8-0.8,1.8-1.6,2.8-2.2c0.4-0.2,1.1,0.1,1.4,0.4c1.2,0.9,2.2,1.1,3.4,0.2c0.7-0.5,1.5-0.7,2-1.1c0.4-0.8,0.5-1.8,1.1-2.2
			c1.1-0.9,2.1-2.4,3.9-1.3c0.2,0.1,0.8-0.1,1.2-0.4c2.5-1.6,5.1-2.9,6.9-5.3c0.6-0.8,1.4-1.5,2.1-2.1c0.9-0.8,2-0.8,2.9-0.2
			c0.6,0.4,1.2,0.7,1.9,1.3c-0.5,2.4-2.2,4.5-3.5,6.6c0.1,0.1,0.4,0.2,0.5,0.4c0.5-0.5,1.2-0.7,1.5-1.3c1.1-1.4,2-2.9,3.1-4.4
			c0.6-0.9,1.3-1.6,2.6-1.1c0.2,0.1,0.5-0.1,0.5-0.1c0.2-2.1,0.1-4.1,0.7-5.9c0.2-0.9,1.8-1.5,2.7-2.2c0.6-0.4,1.1-0.7,1.6-1.1
			c0.2-0.2,0.5-0.5,0.7-0.7c2.6-1.4,5.3-2.5,7.6-4.1c3.2-2,6.2-1.3,9.3-0.2c1.1,0.4,2.1,0.6,3.2,0.8c1.3,0.4,2.6,0.7,3.9,0.9
			c0.4,0.1,0.8,0.1,1.3,0.1c2.2,0.1,4.5,0.6,6.7,0.4c1.9-0.1,3.8-0.9,5.6-1.5c2-0.7,2.1-0.8,3.3,0.8c2,2.7,3.9,5.6,6,8.4
			c0.6,0.8,1.9,1.2,2.9,1.4c2.2,0.5,2.2,0.5,2.5,2.8c0,0.4,0.5,0.9,0.7,1.1c1.9,0.8,3.6,1.4,5.9,1.2c2.6-0.4,5.2,0.1,7.5,1.8
			c0.2,0.2,0.6,0.4,0.8,0.6c0.5,0.4,0.8,0.8,1.2,1.3c-0.5,0.5-0.9,1.1-1.5,1.2c-0.8,0.2-1.9,0.2-2.7,0.2c-1.3-0.1-2.6-0.4-3.9-0.4
			c-0.9,0-1.3,0.7-0.6,1.4c0.6,0.6,1.5,0.9,2.4,1.2c1.1,0.4,2.2,0.5,3.4,0.6c0.6,0.1,1.2-0.1,1.9-0.2c0.4,0,0.7,0,1.2-0.1
			c0,0.5,0,1.1-0.2,1.4c-0.6,0.8-1.3,1.4-2,2.1c-0.8,0.8-1.4,0.9-2.6,0.4c-2.1-0.9-4.2-1.5-6.5-2.2c-2.8-0.8-5.6-1.5-8.3-2.4
			c-0.8-0.2-1.5-0.2-2,0.7c-0.1,0.4-0.8,0.5-1.3,0.5c-0.5,0-0.9-0.1-1.5-0.1c0,0.4,0,0.6,0,0.6c2,0.5,3.8,2.4,6.1,1.5
			c0.2-0.1,1.1,0.5,1.2,0.9c0.4,1.1,0.7,1.4,1.9,1.4c1.3-0.1,2.5,0.6,3.5,1.8c-1.6,0-2.9,0.5-4.2-0.7c-0.2-0.2-1.2-0.2-1.2,0
			c-0.2,0.5-0.4,1.2-0.2,1.6c0,0.2,0.8,0.6,1.1,0.6c1.2-0.5,1.9,0,2.7,0.8c1.1,1.2,1.6,0.9,2.7-0.4c0.5-0.6,1.4-1.1,2.1-1.2
			c1.3-0.1,2.5,0.2,3.8,0.4c0.8,0.1,1.8,0.2,2.6,0.5c1.3,0.4,2.5,0.7,4,1.1c-0.8,1.2-1.8,1.2-2.7,1.2c-1.4,0-2.8-0.2-4.1,0
			c-1.2,0.1-2.2,0.8-3.3,1.3c0,0,0.1,0.9,0.4,0.9c0.8,0,1.8,0.1,2.6-0.1c1.1-0.2,2-0.6,2.7,0.7c0.1,0.1,0.4,0.4,0.6,0.4
			c0.9-0.2,2-0.4,2.8-0.8c0.7-0.5,1.2-0.6,1.9-0.1c1.1,0.6,3.3-0.6,3.6-1.9c0.1-0.6,0.1-1.3,0.2-2c0-0.9,0.1-1.8,0.1-2.7
			c0-0.2,0.1-0.6,0-0.8c-0.9-1.5-0.6-3.3-1.3-4.8c-0.2-0.5,0-1.1,0-1.6c0.6,0.1,1.2,0,1.6,0.4c1.6,1.3,2.4,3.1,2.5,5.2
			c0,0.5-0.2,1.1,0,1.5C223.5,191.3,223.9,192,224.2,192.6z M90,234.5c0.8,0.6,1.3,0.9,1.9,1.3c0.2,0.1,0.6,0,0.9,0
			c0.8,0,1.5,0.1,2.4,0.1c-0.5-0.6-1.1-1.2-1.3-1.8s-0.1-1.3,0-2c0-0.2,0.4-0.4,0.6-0.5c0.2,0.5,0.5,1.1,0.8,1.5
			c0.2,0.4,0.5,0.6,0.7,0.9c0.7-0.7,1.6-1.3,2.1-2c0.2-0.4-0.1-1.5-0.5-1.6c-1.2-0.5-2.6-0.6-3.9-0.7c-0.1,0-0.4,0.6-0.6,0.8
			c-0.4,0.5-0.7,0.8-1.1,1.2C91.3,232.5,90.7,233.3,90,234.5z M154.5,206.9c-0.2-0.2-0.6-0.9-0.8-0.9c-0.7,0.1-1.5,0.5-2.2,0.8
			c-0.6,0.4-1.2,1.3-1.5,1.2c-1.6-0.4-2,0.9-2.6,1.9c-0.2,0.4-0.2,1.2,0,1.5c0.2,0.4,1.1,0.6,1.5,0.4c1.3-0.5,2,0,2.8,0.9
			c0.4,0.4,0.8,0.4,1.2,0.6c0.1-0.1,0.2-0.2,0.4-0.4c-1.6-1.3-3.6-2.5-1.8-4.8C152.1,207.3,153.3,207.3,154.5,206.9z M185.7,207.5
			c0,0.1,0.1,0.4,0.1,0.5c-0.8,0.4-1.6,0.9-2.5,0.9c-1.9,0.2-2.6,0.8-2.8,2.8c3.3,0.7,5.5-0.5,6.7-3.8
			C186.7,207.8,186.2,207.7,185.7,207.5z M173.1,229.1c0.2,1.6,0.5,3.3,0.8,5.2c1.3-1.6,1.4-1.6,2.5-0.4c0.7,0.8,1.5,0.8,2.5,0.5
			C178.3,232.4,174.7,229.1,173.1,229.1z M180.7,229.6c-0.2-0.9-0.5-1.8-0.7-2.5c-0.4-1.1-1.5-1.5-2.6-1.1c-0.8,0.4-0.7,0.8-0.2,1.4
			c0.6,0.7,0.9,1.4,1.5,2.1c0.4,0.5,0.8,0.7,1.2,1.2C180.1,230.4,180.5,229.9,180.7,229.6z M195.4,209.1c-0.9-0.9-1.5-1.8-2.4-2
			c-0.5-0.1-1.2,0.9-1.8,1.5c0.7,0.7,1.3,1.5,2.1,1.9C193.8,210.6,194.5,209.8,195.4,209.1z M121.7,218c0.7,0.8,1.3,1.5,1.9,2.2
			c0.2,0.2,0.8,0.5,1.1,0.4c0.6-0.4,1.1-0.9,1.4-1.4c0.1-0.1-0.2-0.8-0.5-0.8c-1.2-0.4-2.2-0.5-3.4-0.7
			C122.1,217.6,121.8,217.9,121.7,218z M144.3,214c0.4-0.8,0.8-1.6,0.8-2.4s-0.7-1.3-1.1-1.9c-0.5,0.4-1.1,0.6-1.2,1.1
			C142.1,212.3,142.3,212.7,144.3,214z M105.3,229.9c0.8-0.6,1.9-1.2,1.8-1.4c-0.4-0.8-1.1-1.6-1.5-2.5c-0.6,0.7-1.3,1.4-1.6,2.4
			C103.8,228.6,104.7,229.3,105.3,229.9z M185.4,226.5c-0.8,0-1.5-0.4-2-0.1c-0.6,0.4-0.9,1.1-1.2,1.6c-0.1,0.4,0.4,1.3,0.6,1.3
			c0.6,0,1.3-0.2,1.6-0.7C185,228.2,185.1,227.3,185.4,226.5z M136.5,212c0.7,0.8,1.2,1.5,1.8,2.1c0.4,0.4,1.3,0.7,1.4,0.6
			c0.4-0.5,0.8-1.1,0.7-1.6c0-0.4-0.7-0.9-1.2-0.9C138.4,211.9,137.6,212,136.5,212z M108.2,224.2c-0.1,0.7,1.2,2.6,2,2.7
			c0.4,0,0.9-0.2,0.9-0.5c0.2-0.6,0.2-1.2,0.1-1.8c0-0.2-0.6-0.4-1.1-0.5C109.7,224,109,224.2,108.2,224.2z M131.8,215.8
			c0.8,0.7,1.2,1.3,1.5,1.2c1.1-0.1,1.9-0.1,2.5,1.1c0.1,0.1,0.6,0,0.9-0.1c-0.1-0.4-0.1-0.7-0.4-0.9c-0.5-0.6-1.1-1.1-1.6-1.5
			c-0.4-0.2-0.9-0.5-1.4-0.5C132.9,215.1,132.5,215.5,131.8,215.8z M186.8,219.3c-0.8-0.8-1.5-1.4-2.1-1.9c0,0-1.1,0.8-0.9,0.9
			c0.5,0.8,1.1,1.4,1.6,2.1C185.8,220.2,186.1,219.9,186.8,219.3z M120.4,219.9c-0.1-0.1-0.2-0.2-0.4-0.4c-0.5,0.5-1.2,0.9-1.3,1.6
			c-0.2,0.6,0.1,1.3,0.1,2c0.6-0.2,1.3-0.6,1.9-0.8c0.1,0,0.1-0.1,0.1-0.1C120.7,221.3,120.6,220.6,120.4,219.9z M102.5,230
			c0.1-0.2,0.2-0.5,0.4-0.7c-0.6-0.4-1.2-0.7-1.8-0.9c-0.2-0.1-0.6,0-0.9,0c0,0.5,0,1.1,0.1,1.5c0,0.1,0,0.4,0.1,0.4
			c0.2,0.4,0.8,0.9,0.8,0.8C101.8,230.9,102.1,230.5,102.5,230z M192.5,184c-1.5-1.8-4.6-2.5-6.1-1.5
			C188.5,183.1,190.4,183.6,192.5,184z M157.7,206.6c-0.1,0.1-0.2,0.2-0.4,0.2c0.4,0.8,0.6,1.8,1.1,2.5c0.1,0.2,0.9,0.4,1.3,0.2
			c0.2,0,0.4-0.9,0.2-1.2C159.2,207.7,158.4,207.2,157.7,206.6z M214.7,204.5c-0.7-0.9-3.3-1.9-3.9-1.5c-0.2,0.1-0.4,0.4-0.5,0.6
			c0,0.1,0.2,0.4,0.5,0.5C212,204.3,213.2,204.4,214.7,204.5z M116,223.7c-0.5-0.5-0.8-0.8-1.2-1.1c-0.2,0.6-0.7,1.2-0.8,1.9
			c0,0.2,0.5,0.6,0.7,0.9C115.2,224.9,115.5,224.3,116,223.7z M194.5,190.3c-0.4-0.6-0.6-1.3-0.9-1.9c-0.1-0.2-0.6-0.2-0.8-0.2
			s-0.5,0.4-0.5,0.6C192.1,189.6,193.4,190.5,194.5,190.3z M177.6,217.2c-0.6,0-1.3,0.1-1.9,0.1c0,0.4,0,0.8,0.1,0.9
			C176.5,218.9,177.2,218.5,177.6,217.2z M128.9,218.4c0.2,0,0.5,0,0.8,0c0.1-0.6,0.2-1.2,0.2-1.9c-0.4,0.1-1.1,0.1-1.2,0.2
			C128.7,217.3,128.9,217.9,128.9,218.4z M177.7,220.7c-0.2-1.1-0.8-1.2-1.6-0.9c-0.1,0.1-0.4,0.6-0.2,0.8
			C176.4,221.5,177,221.2,177.7,220.7z M182.3,183.8c0.1-0.1,0.1-0.4,0.2-0.5c-0.5-0.2-0.8-0.6-1.3-0.6c-0.4,0-0.7,0.4-1.1,0.6
			c0,0.1,0.1,0.2,0.1,0.5C180.8,183.7,181.5,183.7,182.3,183.8z M183.1,222.9c0.1,0.2,0.2,0.5,0.2,0.7c0.5-0.2,1.1-0.5,1.5-0.6
			c-0.1-0.2-0.2-0.7-0.4-0.7C184,222.5,183.5,222.7,183.1,222.9z"/>
		<path style="fill:#FFFFFF;" d="M205.4,126.8c-3.1,1.5-5.9,3.1-8.6,4.4c0.7,1.6,1.5,3.1,2,4.6c0.2,0.6-0.1,1.6-0.6,2.1
			s-1.4,0.8-2.1,0.6c-0.6-0.1-1.1-0.9-1.4-1.5c-0.6-1.1-0.9-2.2-1.4-3.6c-1.8,1.2-3.4,2.2-4.8,3.3c-0.4,0.2-0.4,0.9-0.5,1.5
			c0.5,0,0.9,0.1,1.4,0.1c0.9-0.1,1.6,0.1,2.4,0.7c1.6,1.4,4.9,2.8,7.3,1.2c0.5-0.4,0.8-0.8,1.1-1.3c0.2-0.4,0.2-0.8,0.6-1.2
			c1.3-1.5,1.5-3.2,1.2-5.2c-0.1-0.5,0.4-1.2,0.7-1.4c0.6-0.5,1.4-0.8,2.2-1.2c0.1,0.2,0.2,0.5,0.2,0.6c-0.9,2.6-1.9,5.3-3.1,7.9
			c-1.8,3.8-6.5,5.5-10.2,4.1c-0.8-0.4-0.9-0.1-1.3,0.6c-0.4,0.9-1.1,1.8-1.8,2.4s-1.3,0.1-1.4-0.6c-0.1-0.5-0.1-1.1-0.1-1.5
			c-0.1-1.6,0-1.6,1.6-1.5c0.4,0,0.9-0.1,1.2-0.5c0.1-0.1,0-0.8-0.2-0.9c-0.4-0.2-0.8-0.4-1.2-0.4s-0.6,0.1-0.8,0.2
			c-0.6-0.5-1.1-1.2-1.4-1.1c-0.5,0.2-0.9,0.8-1.3,1.3c-0.2,0.2-0.2,0.7-0.5,0.8c-1.6,0.9-1.9,2.8-2.7,4.4c-0.8,1.4-1.6,2.8-3.3,3.5
			c-0.1-0.1-0.2-0.2-0.4-0.2c0.2-0.4,0.5-0.7,0.8-0.9c1.6-1.3,2.4-3.1,2.1-5.1c-0.1-1.2,0.2-2,1.3-2.5c0.4-0.1,0.8-0.4,1.1-0.7
			c0.4-0.5,0.7-1.2,0.6-1.8c0-0.2-0.9-0.5-1.5-0.7c-0.8-0.2-1.8-0.4-3.1-0.6c1.5-0.9,2.7-1.9,3.9-2.6c0.7-0.5,1.5-0.7,2.2-1.2
			c1.2-0.8,1.4-2,0.6-3.1c-0.6-0.8-0.5-1.3,0-2.1c0.7-1.3,1.1-2.6,0.8-4.1c-0.2-1.2,0.2-2.6,0.7-3.6c0.7-1.4,1.2-2.6,0.6-4.1
			c-0.2-0.5-0.1-1.3,0.2-1.8c1.3-2,0.8-4,0.8-6.1c-0.1-2.4-0.1-4.7,0.1-6.9c0.1-1.2,0.8-2.1,1.1-3.3c0.1-0.7,0-1.5-0.1-2.4
			c-0.2-1.8-0.5-3.5-0.6-5.2c0-0.6,0.1-1.2,0.2-1.6c0.2-0.6,0.6-1.5,0.8-1.5c0.7,0.1,1.6,0.4,2,0.8c0.8,0.9,1.6,2.1,2,3.3
			c0.8,2.2,1.9,4.5,1.3,6.9c-0.2,1.2-0.5,2.4-0.6,3.4c-0.1,2-0.2,4.1-0.2,6.1c0,0.7,0.7,1.5,0.6,2.1c-0.2,1.1-0.8,2.1-1.2,3.3
			c-0.5,1.3-0.8,2.6-1.2,4c-0.4,2-0.7,4-0.9,6.1c0,0.6,0.5,1.3,0.9,1.6c1.5,1.2,1.8,1.9,1.2,3.8c-0.1,0.4,0,0.8,0.1,1.2
			c0.4,0,0.8,0,1.2-0.1c1.2-0.7,2.2-1.6,3.4-2.4c1.3-0.7,2.6-1.4,4-1.9C204.7,125,205.3,125.7,205.4,126.8z"/>
		<path style="fill:#FFFFFF;" d="M210.6,104.4c0.2,0.1,0.5,0.2,0.8,0.2c0.6,0,1.4,0.1,1.8-0.1s0.2-1.2,0-1.8
			c-1.4-3.3-1.9-6.7-2.1-10.1c0-0.5,0.1-0.8,0.1-1.8c0.9,0.9,1.6,1.5,2.2,2.1c0.1,0,0.2-0.1,0.4-0.1c-0.6-1.6-1.1-3.3-1.6-4.9
			c-0.1,0-0.2-0.1-0.4-0.1c-0.5,0.8-0.9,1.6-1.5,2.6c-0.5-0.4-1.1-0.6-1.2-1.1c-0.7-1.8-1.4-3.5-2-5.4c-0.2-0.6-0.1-1.3-0.1-2
			c0-0.4,0.4-0.7,0.6-1.2c0.4,0.4,0.8,0.6,0.9,1.1c0.4,0.8,0.5,1.8,0.7,2.6c0.4,1.4,1.4,2,2.7,1.9c1.4-0.1,2.2,0.6,2.8,1.6
			c0.6,0.9,1.2,1.9,1.8,2.8c0.1,0,0.2-0.1,0.4-0.1c-0.2-1.1-0.5-2-0.5-3.1c-0.2-1.8,0.4-2.5,2.1-2.8c0.5-0.1,0.9-0.4,1.4-0.6
			c1.1-0.5,2-0.2,2.1,0.8c0.2,1.3,0.4,2.6,0.1,3.9c-0.1,0.6-0.9,1.3-1.6,1.4c-0.9,0.2-1.1,0.8-0.9,1.5c0.1,0.7,0.6,0.9,1.3,0.8
			c0.4-0.1,0.9,0.4,1.1,0.6c0.4,0.9,0.5,2,0.7,2.9c0.5,2.1,1.1,4.2,1.5,6.4c0.1,0.7,0.1,1.5,0.2,2.2c0.1,1.4,0.2,2.8,0.2,4.2
			c0,0.9-0.4,1.5-1.5,1.6c-1.2,0.1-2.1,0.4-3.4-0.1c-1.8-0.6-1.4-2.5-2.4-3.4c-0.4-0.4-0.9-0.7-1.4-0.7c-0.4,0-0.7,0.5-1.2,0.7
			c0.2,0.4,0.6,0.6,0.7,0.9c0.4,0.5,0.8,1.1,0.8,1.5c-0.1,2-0.2,3.9-0.5,6c-0.1-0.1-0.4-0.2-0.6-0.5c-0.8-1.1-1.5-1.1-2.4,0
			c-1.3,1.5-2.7,1.8-4,1.1c-1.3-0.8-1.3-2.4-1.3-4.1c0-2.5,1.2-4.5,2-6.6C210.2,105.1,210.5,104.8,210.6,104.4L210.6,104.4z
			 M214.6,95.7c-0.1,0-0.2,0-0.4,0c-0.9,2.7,0.2,5.3,0.9,7.9c0.5-0.4,0.9-0.9,0.8-1.3C215.5,100.1,215,97.9,214.6,95.7z"/>
		<path style="fill:#FFFFFF;" d="M149.5,154.9c0.2,1.8,0,2.5-1.8,2.9c-1.9,0.6-2.7,2.4-4,3.6c-2,2-4.1,3.9-6.2,5.8
			c-0.4,0.4-0.4,0.8-0.7,1.2c-0.4,0.4-1.1,1.1-1.3,0.9c-0.6-0.4-1.1-0.9-1.4-1.5c0-0.1,0.4-0.7,0.6-0.7c1.1,0,1.5-0.6,2-1.4
			c0.4-0.6,1.1-1.1,1.4-1.9c-1.3,0.8-2.7,1.6-4,2.4c-0.5,0.2-0.8,0.6-1.3,0.8c-1.2,0.6-1.4,1.8-0.7,2.8c0.2,0.5,0.6,1.2,0.4,1.5
			c-0.4,0.7-1.1-0.1-1.3,0c-0.9,0.2-2,0.8-2.7,1.4c-0.8,0.7-1.4,1.6-2.1,2.6c-0.2,0.4-0.5,0.8-0.8,1.5c-0.1-0.6-0.2-1.1-0.4-1.5
			c-0.8-0.4-1.5-0.4-2,0.7c-0.4,0.9-1.2,1.2-2,0.6c-1.1-0.7-1.8-0.2-2.6,0.7c-1.1,1.2-2.1,2.2-3.2,3.4c-0.8,0.9-1.8,0.4-2.4-0.2
			c-0.2-0.2,0-1.3,0.4-1.8c1.6-2.4,4.1-3.6,6.3-5.1c0.2-0.1,0.5-0.4,0.6-0.6c0.6-1.1,1.3-2.1,1.8-3.2c0.4-0.9,0.9-1.1,1.8-0.8
			c0.9,0.2,1.2,0.6,0.7,1.4c-0.4,0.6-0.7,1.2-1.3,2c1.8-0.2,2.6-1.2,3.2-2.2c1.3-2.1,2.8-3.9,4.9-5.4c0.7-0.5,0.8-1.9,1.2-2.9
			c0.1-0.4,0.4-0.9,0.7-1.2c0.5-0.5,1.2-0.7,1.8-1.1c1.1-0.7,2-1.6,3.1-2.4c0.6-0.4,1.4-0.4,2.1-0.6c0.6-0.1,1.2-0.4,2.1-0.7
			c-0.9,1.6-0.8,3.4-2.5,4.5c-0.8,0.5-1.3,1.3-0.5,2.4c2.5-1.5,4.5-3.4,5.8-6c0.2-0.6,0.4-1.3,0.5-1.9c0.1-1.2,0.7-1.4,1.6-0.8
			C148.1,154.6,148.8,154.6,149.5,154.9z"/>
		<path style="fill:#FFFFFF;" d="M210.6,104.4c-1.3-0.7-1.9-1.9-2-3.3c-0.1-0.9-0.6-1.8-0.9-2.6c-1.2-2.7-2.4-5.4-3.5-8.1
			c-0.2-0.5-0.8-0.9-1.2-1.3c-0.2,0.6-0.7,1.2-0.8,1.8c-0.1,3.2-0.2,6.2-0.4,9.4c0,0.4-0.2,0.8-0.4,1.2c-0.2,0-0.4,0-0.6,0
			c-0.1-1.1-0.2-2-0.1-3.1c0.1-1.4,0.6-2.8-0.7-4.1c-0.2-0.2-0.2-0.8-0.1-1.2c0.5-2.4,1.1-4.6,1.5-6.9c0.1-0.4,0.2-0.7,0.5-1.1
			c0.5-0.8,0.7-1.5-0.1-2.4c-0.4-0.4-0.5-1.3-0.4-2c0.1-0.8,0-1.3-0.8-1.5c-0.8-0.2-1.1-0.7-0.8-1.6c0.2-0.9,0.1-1.9,0.1-2.8
			c0-0.5,0.2-0.9,0.5-1.5c0.4,0.2,0.6,0.4,0.7,0.6c1.2,1.3,1.9,1.3,3.3,0.4c1.4-0.9,3.1-1.6,4.5-2.6c0.6-0.4,0.9-0.8,1.4-1.3
			c0.6-0.8,1.1-0.8,1.4,0c1.1,2,2,4.1,2.9,6.2c0.2,0.6,0.4,1.5,0.1,1.9c-0.4,0.4-1.3,0.4-2,0.2c-1.5-0.4-3.1-0.9-4.6-1.4
			c-0.4-0.1-0.6-0.6-0.9-0.8c-0.6-0.5-1.4-1.4-1.6-1.2c-1.1,0.5-2.1,1.2-2.8,2.1c-0.6,0.7-0.9,1.9,0.4,2.7c0.1,0.1,0.2,0.2,0.2,0.4
			c-0.4,2.5,2,3.5,2.6,5.5c0.6,2,1.9,3.8,2.5,5.8c0.9,2.9,1.5,6,2.1,9.1C210.6,101.8,210.5,103.1,210.6,104.4L210.6,104.4z
			 M210,72.4c-0.2,0.1-0.5,0.2-0.7,0.4c-0.4,0.4-0.9,0.7-0.8,0.9c0.1,0.4,0.6,0.7,0.9,0.9c0.4-0.4,0.8-0.7,0.9-1.2
			C210.5,73.2,210.1,72.9,210,72.4z"/>
		<path style="fill:#FFFFFF;" d="M132.1,161.5c-1.3-0.2-2.1-0.5-2.9-0.6c0-1.2,0-2.5,0-4.2c0.2-0.7,0.7-2,1.2-3.2
			c-0.1-0.1-0.2-0.2-0.4-0.4c-0.5,0.2-1.1,0.5-1.4,0.8c-0.8,0.9-1.6,1.9-1.4,3.4c0.1,0.6-0.4,1.3-0.8,1.8c-0.4,0.4-1.3,0.7-1.4,0.6
			c-0.6-0.5-1.9-0.4-1.6-1.9c0.2-1.2,0.1-2.5,0.1-3.6c0-0.2-0.4-0.4-0.5-0.6c-0.2,0.2-0.6,0.4-0.6,0.6c-0.2,1.2-0.1,2.4-0.5,3.5
			c-0.4,1.2-0.9,2.2-1.5,3.4c0,0.1-0.9-0.1-0.9-0.2c0-0.9-0.1-1.9,0.2-2.7c0.8-2.2,1.4-4.4,0.9-6.8c-0.1-0.8,0.1-1.8,0.1-2.6
			c0-0.1,0.1-0.4,0-0.4c-0.9-1.6-1.9-3.3-2.9-5.2c0.1-0.1,0.7-0.7,0.9-0.7c0.6,0.2,1.3,0.7,1.6,1.2c0.8,1.8,1.6,3.6,1.5,5.6
			c0,0.9,0.4,1.8,0.7,3.1c1.6-2,0.5-4.2,1.9-6.1c1.4-0.5,3.1-1.3,4.9-1.8c0.6-0.1,1.4,0.7,2.1,1.1c-0.1,0.1-0.1,0.2-0.2,0.4
			c0.4-0.2,0.6-0.4,0.9-0.6c0.1,0,0.1,0.1,0.2,0.1c-0.5,0.8-0.9,1.6-1.5,2.6c2.2,0.8,2.1,0.9,1.8,2.9c-0.4,1.5-1.6,2.9-0.8,4.8
			c0.1,0.1-0.2,0.5-0.4,0.7c-0.2,1.1-0.9,2,0.4,2.9C132.1,159.8,132,160.6,132.1,161.5z"/>
		<path style="fill:#FFFFFF;" d="M198.1,237.5c-0.2-0.7-0.5-1.3-0.5-2c-0.2-1.8-0.5-3.6-0.7-5.4c-0.2-1.8-0.6-3.5-0.9-5.3
			c-0.2-1.1-0.6-2.1-0.8-3.2c-0.2,0-0.5,0.1-0.7,0.1c0.4,3.5,0.6,7.2,0.9,10.7c0,0.5,0.1,0.9,0.2,1.4c0.2,1.2-0.2,2.5,1.2,3.3
			c0.5,0.2,0.5,1.5,0.5,2.4c0,0.2-0.8,0.6-1.3,0.7c-0.9,0.2-1.3-0.2-1.3-1.2c-0.2-3.4-0.5-6.8-0.7-10.2c0-0.6-0.4-1.1-0.5-1.6
			c-0.1-2.2-0.2-4.5-0.4-6.9c1.3,0.1,2-0.1,2.1-1.3c0.1-0.8,0.8-0.7,1.4-0.2c0.4,0.2,0.7,0.5,0.9,0.8c1.2,1.8,3.4,1.4,4.9,2.4
			c0.7,0.5,1.1-0.1,1.1-0.9c0-0.5,0.4-0.9,0.6-1.4c0.1-0.1,0.8,0.1,0.8,0.2c0,0.5,0,1.1-0.1,1.5c0,0.2-0.4,0.5-0.2,0.6
			c0.7,0.9,0.4,1.9-0.1,2.7c-0.2,0.4-0.5,0.8-0.6,1.3c-0.2,0.8-0.4,1.8-0.5,2.2c0.8,0.7,1.4,1.2,1.8,1.6c0.1,0.2,0,0.9-0.2,1.2
			c-0.4,0.2-0.9,0.2-1.3,0.1c-0.7-0.4-1.4-0.9-2-1.4c-0.6-0.6-0.7-1.1-0.2-2c0.5-1.1,0.5-2.4,0.6-3.5c0-0.2-0.5-0.6-0.8-0.8
			c-0.6-0.4-1.2-0.5-1.9-0.7c-1.8-0.6-2-0.4-1.8,1.5c0.1,0.9,0,1.9,0.1,2.8c0.4,3.4,0.8,6.8,1.2,10.2
			C198.4,237.3,198.2,237.3,198.1,237.5z"/>
		<path style="fill:#FFFFFF;" d="M150.2,141.6c1.6-2.2,3.6-2.2,5.6-0.2c0.1,0.1,0.4,0.2,0.5,0.4c0.2,0.5,0.6,0.9,0.8,1.4
			c-0.5,0.2-0.9,0.6-1.5,0.6c-0.8,0-1.3,0.4-1.5,1.1c-0.1,0.5-0.6,0.8-0.9,1.1c-1.8,0.9-1.8,0.9-0.9,2.2c-0.6,0.7-0.9,1.5-1.5,2
			c-0.6,0.5-1.4,0.6-2.1,0.9c-0.7,0.4-1.4,0.8-2.1,1.2c-0.6,0.2-1.2,0.5-1.8,0.6c-0.1-0.1-0.2-0.2-0.4-0.4c0.5-1.8,0.5-3.8,1.5-5.1
			c0.7-0.9,1.1-2,1.8-2.9c0.7-0.8,0.9-1.8,0.2-2.7c-0.4-0.5-0.2-1.2-0.4-1.8c0.7,0.2,1.5,0.4,2.2,0.7
			C149.9,140.8,150.1,141.2,150.2,141.6z"/>
		<path style="fill:#FFFFFF;" d="M133.8,228C133.8,227.9,133.8,228,133.8,228c-2.4,0.7-2.6,1.1-1.9,3.4c0.6,2.2,0.9,4.5,1.5,6.7
			c0.4,1.1,1.1,2,1.5,3.1c0.2,0.5,0.4,1.1,0.6,1.6c-0.5,0.1-1.1,0.5-1.5,0.5c-3.9-0.1-4-0.2-3.6-4.1c0.2-2.8,0-5.5,0-8.4
			c-0.2,0-0.5,0-0.6,0c-0.1,0.8-0.2,1.6-0.4,2.5c-0.2,2.7-0.4,5.4-0.5,8.1c0,0.4-0.1,0.8-0.4,1.1c-0.2,0.2-0.7,0.5-1.1,0.5
			c-0.2-0.1-0.7-0.6-0.7-0.8c0-0.5,0.2-0.9,0.4-1.5c0.2-1.3,0.4-2.6,0.5-4c0.1-0.7-0.1-1.5,0.1-2.2c0.4-1.5,0.6-2.9,0.1-4.6
			c-0.5-1.4,0.1-1.9,1.6-1.9c0.8,0,1.6-0.1,2.5-0.4c0.2-0.1,0.5-0.6,0.6-0.9c0.1-0.2-0.2-0.6-0.1-0.8c0-0.7,0.1-1.4,0.2-2h0.7
			c0.1,0.6,0.1,1.3,0.2,2C133.7,226.3,133.7,227,133.8,228z"/>
		<path style="fill:#FFFFFF;" d="M137.7,151.5c1.5,1.2,1.6,2.2,0.5,3.3c-1.1,0.9-2.4,1.8-3.6,2.6c-0.1,0-0.7-0.5-0.7-0.6
			c0.4-1.8,0.7-3.6,1.1-5.4c0.2-1.2,0.1-2.4,0.2-3.5c0.1-1.2,0-2.5,0.4-3.5c0.6-2.1,3.3-3.1,5.2-1.9c1.3,0.7,1.5,1.6,0.8,2.9
			c-0.5,1.1-1.6,1.9-1.3,3.3c0,0.2-0.4,0.5-0.6,0.7C138.9,149.9,138.3,150.8,137.7,151.5z M139.1,147.6c0.1-0.1,0.2-0.2,0.4-0.4
			c-0.1-1.1-0.6-1.9-2.1-1.6C137.9,146.3,138.5,146.9,139.1,147.6z"/>
		<path style="fill:#FFFFFF;" d="M168.9,226c0,0.2,0.1,0.5,0,0.6c-1.2,1.8-0.7,3.9-0.7,5.8c0,1.3,0.1,2.6,0.4,3.9
			c0.2,1.6,0.8,3.3,1.1,4.9c0.1,0.8,0.1,1.6-1.1,1.8c-1.8,0.1-2.7-0.1-2.7-1.3c0-1.4,0.2-2.8,0.7-4.2c0.8-2.2,0.2-4.5,0.1-6.7
			c-0.1-3.3-0.2-6.6-0.4-9.9c0-0.4,0.5-0.7,0.8-1.1c0.4,0.2,0.8,0.6,0.9,0.8C168.3,222.4,168.6,224.2,168.9,226L168.9,226z"/>
		<path style="fill:#FFFFFF;" d="M116.1,161.3c-0.9-1.3-1.2-2.2-0.7-3.4c0.6-1.6,0-3.3-0.7-4.8c-0.5-1.1-1.1-2.2-0.8-3.2
			c0.2-0.9,1.4-1.9,2.2-2.1c0.6-0.1,1.9,0.8,2.4,1.5c1.3,2.1,0.8,4.5,0.5,6.8C118.7,158.2,116.8,159.2,116.1,161.3z"/>
		<path style="fill:#FFFFFF;" d="M146.8,226.9c0.4,1.6,0.9,3.3,0.9,4.8c0,1.1,0.5,1.8,0.8,2.7c0.4,1.2,0.4,2.6,0.5,3.9
			c0.1,1.4,0,2.8,0.1,4.2c0.1,0.9-0.2,1.3-1.2,1.2c-0.5,0-1.1,0-1.5,0c-0.8,0-1.1-0.4-1.1-1.3c0.1-1.8-0.1-3.6-0.1-5.4
			c0-1.1,0.2-2.1,0.4-3.2c0.1-2,0.2-4,0.4-6c0-0.4,0.2-0.6,0.4-0.9C146.4,226.9,146.5,226.9,146.8,226.9z"/>
		<path style="fill:#FFFFFF;" d="M114.3,175.1c0.1-1.2,0-2.5,0.4-3.5c0.2-1.1,1.1-1.9,1.5-2.8c0.2-0.4,0.2-0.8,0.2-1.3
			c-0.5,0.1-1.1,0.2-1.4,0.5c-0.5,0.4-0.9,0.9-1.4,1.5c-0.9-1.5-0.1-3.6,1.3-4c0.5-0.1,1.1-0.5,1.4-0.8c0.9-0.8,2-0.7,3.1-0.2
			c0.9,0.4,0.6,1.1,0.5,1.8c-0.1,0.2-0.1,0.5-0.1,0.7c1.1,2.1,0,3.4-1.6,4.5c-1.4,0.8-2.4,2.1-2.9,3.5c-0.1,0.2-0.2,0.4-0.5,0.5
			C114.7,175.1,114.4,175.1,114.3,175.1z"/>
		<path style="fill:#FFFFFF;" d="M214.8,234.4c-0.1,0.5-0.1,1.1-0.4,1.5c-0.1,0.4-0.6,0.7-0.9,0.9c-0.1,0.1-0.7-0.1-0.7-0.2
			c0-0.4,0.1-0.8,0.2-1.2c0.1-0.2,0.2-0.5,0.5-0.7c1.2-1.2,2.5-2.2,1.8-4.2c-0.1-0.2,0.5-0.9,0.6-0.8c1.5,0.2,2.1-1.2,3.2-1.6
			s1.5-0.5,1.5,0.9c0,1.3,0.2,2.7,0.2,4c0,1.1-1.5,2.8-2.6,3.1c-0.4,0.1-0.8,0.2-1.2,0.2c-0.9,0.2-1.5,0-1.6-1.1
			c0-0.2-0.1-0.5-0.2-0.7C215,234.4,214.9,234.4,214.8,234.4z"/>
		<path style="fill:#FFFFFF;" d="M154,128c0.2,1.5,0.6,2.8,0.8,4.1c0.1,0.9-1.5,2-2.6,1.8c-0.8-0.1-1.5-0.5-2,0.6
			c-0.1,0.2-0.9,0.1-1.4,0c-0.7-0.2-1.4-0.5-2-0.8c-0.4-0.1-0.6-0.5-0.8-0.8c-0.7-0.8-1.4-1.6-2-2.5c-0.2-0.4-0.2-0.8-0.4-1.2
			c0.5,0,1.1-0.1,1.5-0.1c0.4,0,0.7,0.5,1.1,0.5c0.9,0,1.3,0.4,1.3,1.3c0,1.3,1.1,1.5,1.9,1.6c0.4,0,0.9-0.6,1.2-0.9
			c0.6-0.8,0.8-1.9,1.4-2.6C152.3,128.4,153.2,128.3,154,128z"/>
		<path style="fill:#FFFFFF;" d="M144.6,224c-0.4,3.8-0.7,7.2-1.1,10.5c-0.2,2.6-0.6,5.1-0.9,7.6c-0.1,0.5-0.6,1.2-1.1,1.2
			c-1.4,0.4-2-0.2-1.5-1.6c0.1-0.6,0.4-1.3,0.7-1.6c1.3-1.3,1.1-3.1,1.3-4.6c0.4-2.8,0.7-5.8,1.1-8.6c0.1-0.6-0.4-1.3-0.4-1.9
			c-0.1-0.5-0.2-1.2,0-1.5c0.2-0.4,1.1-0.8,1.4-0.6C144.4,223.1,144.5,223.8,144.6,224z"/>
		<path style="fill:#FFFFFF;" d="M213.6,221.2c0.1-0.2,0.4-0.8,0.6-1.4c0.4-0.7,0.7-0.8,1.4-0.4c0.7,0.5,1.5,0.8,2.4,1.2
			c1.9,0.7,2.2,1.3,1.5,3.2c-0.5,1.1-2.9,2.6-3.9,2.1c-0.7-0.2-1.3-1.1-1.5-1.6C213.7,223.3,213.9,222.4,213.6,221.2z"/>
		<path style="fill:#FFFFFF;" d="M141.5,136.4c2.4,2.5,2.7,5.5,3.3,8.5c0.4,1.5-1.1,2.4-1.3,3.8c-0.1,0.9-0.6,2-0.6,2.9
			c0.1,1.4-0.7,1.8-1.8,1.9c-0.2,0-0.7-0.1-0.9-0.4c-0.1-0.1,0-0.6,0.1-0.8c1.8-3.3,2.8-6.7,2.1-10.6c-0.2-1.4-0.1-2.8-1.4-4
			C141.1,137.6,141.5,136.9,141.5,136.4z"/>
		<path style="fill:#FFFFFF;" d="M129.6,163.1c-1.1,1.3-2.1,2.4-2.9,3.4c-0.4,0.5-0.2,1.1-0.4,2.1c-0.7-0.7-1.3-1.3-2-1.8
			c-0.4-0.4-0.6-0.8-1.1-0.9c-0.9-0.2-1.5-0.7-1.3-1.6c0.1-0.7,0.4-1.9,0.9-2.1c0.8-0.4,1.9-1.2,2.9,0.1c0.4,0.5,1.2,0.5,1.9,0.6
			C128.2,163.1,128.7,163.1,129.6,163.1z"/>
		<path style="fill:#FFFFFF;" d="M232.6,208.2c1.2,1.4,1.5,4.1,0.9,5.4c-0.5,0.8-1.6,0.9-2.1-0.1c-0.7-1.2-1.4-1.9-2.7-2.1
			c-0.6-0.1-1.2-0.9-1.6-1.5c0-0.1,0-0.4,0.1-0.5c0.7-0.1,1.5-0.5,2.1-0.4C230.4,209.5,231.6,209.5,232.6,208.2z"/>
		<path style="fill:#FFFFFF;" d="M232.4,223.3c0.1,0.2,0.4,0.6,0.5,0.9c0.5,2,0.8,4,1.2,6c0.1,0.8-0.1,1.3-0.8,1.5
			c-0.8,0.2-1.2-0.2-1.3-1.1c-0.4-1.5-0.8-3.1-1.3-4.6C230.3,225.2,231.4,223.3,232.4,223.3z"/>
		<path style="fill:#FFFFFF;" d="M206.3,233.3c3.2,0,3.2,0,4.1-3.3c0.1-0.4,0.5-0.7,0.7-0.9c0.2-0.2,0.5-0.5,0.8-0.7
			c1.2,1.4,1.2,1.5,0,2.7c-0.4,0.4-0.7,1.2-0.6,1.6c0.2,1.5-0.8,2.1-1.9,2.7c-1.1,0.6-1.9,0-2.5-0.9
			C206.9,234,206.6,233.7,206.3,233.3z"/>
		<path style="fill:#FFFFFF;" d="M190.4,146.8c0.1,1.4,0.2,2.7,0.2,4c0,0.8-0.4,1.4-1.2,1.4c-0.7,0-1.6-0.1-2-0.6
			c-0.4-0.6-0.2-1.5-0.1-2.2c0.1-0.6,0.6-1.1,0.9-1.6C188.6,146.8,189.2,146.3,190.4,146.8z"/>
		<path style="fill:#FFFFFF;" d="M178.4,142.5c-0.2,1.2-0.2,2.1-0.7,2.8c-0.2,0.6-1.1,1.1-1.6,1.1c-0.5,0-0.9-0.8-1.2-1.4
			c-0.2-0.4-0.2-0.9-0.1-1.4c0.1-0.6,0.1-1.4,0.6-1.6c0.7-0.5,1.5-0.6,2.4-0.6C177.9,141.3,178.1,142.2,178.4,142.5z"/>
		<path style="fill:#FFFFFF;" d="M73.7,217.9c0.1,0.4,0.2,0.5,0.2,0.6c-1.1,2.2-0.4,4.6-0.8,6.8c-0.2,1.2-1.3,1.6-2.4,0.9
			c-0.2-0.2-0.6-0.7-0.6-0.9c0.5-1.2,1.1-2.4,1.6-3.6c0.4-0.8,0.7-1.8,1.1-2.7C73.2,218.7,73.4,218.4,73.7,217.9z"/>
		<path style="fill:#FFFFFF;" d="M115.7,240.6c0.5-0.2,0.7-0.4,0.9-0.5c0.4-0.2,0.8-0.5,1.2-0.7c0.2,0.6,0.6,1.1,0.7,1.6
			c0,0.2-0.6,0.8-0.8,0.8c-0.9,0-1.9-0.2-2.7-0.5c-0.2-0.1-0.6-0.5-0.6-0.8c0-1.8,0-3.5,0.1-5.3c0-0.2,0.5-0.6,0.7-0.8
			c0.1,0.2,0.5,0.6,0.5,0.8c0,1.2-0.1,2.4-0.1,3.4C115.5,239.3,115.6,239.9,115.7,240.6z"/>
		<path style="fill:#FFFFFF;" d="M128.3,134.2c0.2,0.2,0.6,0.4,0.7,0.7c1.1,1.9,2.1,3.9,3.3,5.8c0.7,1.1,0.8,2,0.4,3.1
			c-0.1,0.2-0.4,0.5-0.6,0.7c-0.2-0.2-0.6-0.6-0.6-0.8c0.4-1.6-0.4-2.8-1.5-3.8c-0.1,0-0.1-0.1-0.2-0.2c-0.6-1.6-1.2-3.3-1.8-5.1
			C128.1,134.3,128.2,134.3,128.3,134.2z"/>
		<path style="fill:#FFFFFF;" d="M194.1,156.5c-0.1,0.1-0.5,0.9-1.1,1.1c-1.2,0.1-2.9-1.2-2.7-1.9c0.4-0.8,1.2-1.6,2-2.1
			C193.2,153.1,194,154.4,194.1,156.5z"/>
		<path style="fill:#FFFFFF;" d="M189.5,235.7c-1.5-0.5-2.1-1.6-2.4-2.9c-0.4-1.3,0.8-1.6,1.6-1.8c1.1-0.1,1.4,0.6,1.3,1.5
			C190,233.6,189.7,234.6,189.5,235.7z"/>
		<path style="fill:#FFFFFF;" d="M176.5,150.2c-1.4,1.3-3.8,0.9-4.7-0.6c-0.6-1.1-1.1-2-2.5-2.2c-0.2,0-0.5-0.8-0.7-1.2
			c0.5-0.1,1.1-0.4,1.3-0.2c0.7,0.4,1.5,0.9,1.8,1.6c0.6,1.6,1.6,2.2,3.3,2.4C175.4,149.9,175.9,150,176.5,150.2z"/>
		<path style="fill:#FFFFFF;" d="M128.8,139c0.1,1.5-1.1,2.5-2.2,2c-0.8-0.4-1.8-0.7-2.5-1.2c-0.4-0.2-0.7-1.1-0.5-1.2
			c0.2-0.4,0.8-0.6,1.3-0.6c0.4,0,0.7,0.2,0.9,0.5C126.7,139.5,127.6,139.9,128.8,139z"/>
		<path style="fill:#FFFFFF;" d="M211,226.9c-1.3,0-1.6-0.6-0.9-2.2c-0.8,0-1.5,0-2.4,0c0.1-1.1,2.4-2.4,3.2-1.9
			c0.2,0.1,0.4,0.5,0.4,0.7C211.2,224.6,211.2,225.7,211,226.9z"/>
		<path style="fill:#FFFFFF;" d="M203.4,237.6c-0.1,0.2-0.5,0.7-0.7,1.2c-0.4-0.5-0.8-0.9-0.9-1.4c-0.1-0.8-0.1-1.8-0.1-2.7
			c0-0.4,0.4-0.6,0.6-0.9c0.2,0.2,0.6,0.5,0.7,0.7C203.2,235.3,203.2,236.3,203.4,237.6z"/>
		<path style="fill:#FFFFFF;" d="M135.6,132.6c0.2,0.2,0.6,0.6,0.6,0.8c0.1,0.8,0,1.5,0.1,2.4c-0.8-0.4-1.5-0.7-2.2-1.1
			c-0.1,0,0-0.7,0.2-1.1C134.7,133.3,135.1,133.1,135.6,132.6z"/>
		<path style="fill:#FFFFFF;" d="M136.7,223.2c0.9-0.8,1.4-0.7,1.6,0.5c0.2,0.8,0.6,1.5,0.7,2.4c0.1,0.2,0,0.6-0.1,0.9
			c-0.4-0.1-0.8-0.2-0.9-0.5C137.6,225.5,137.2,224.4,136.7,223.2z"/>
		<path style="fill:#FFFFFF;" d="M111.9,180.6c0.5,0.8,0.9,1.4,0.8,1.8c-0.2,0.6-0.8,1.1-1.3,1.5c-0.5-0.5-1.3-1.1-1.2-1.3
			C110.5,182.2,111,181.6,111.9,180.6z"/>
		<path style="fill:#FFFFFF;" d="M207.4,230.7c-0.2-0.8-0.5-1.6-0.7-2.6c0-0.2,0.2-0.8,0.4-0.8c0.4,0,0.8,0.1,0.9,0.4
			C208.6,228.7,208.5,229.7,207.4,230.7z"/>
		<path style="fill:#FFFFFF;" d="M151,222c0.4-1.3,0.6-2.6,0.9-3.9c0.1,0,0.2,0.1,0.4,0.1c0.5,2,0.6,2.9-0.8,3.9
			C151.3,222.2,151.1,222,151,222z"/>
		<path style="fill:#FFFFFF;" d="M141.1,135.5c-1.9-1.2-2.2-2.1-1.3-4c0.7,1.4,1.2,2.6,1.8,3.8C141.5,135.3,141.2,135.3,141.1,135.5
			z"/>
		<path style="fill:#FFFFFF;" d="M104.3,236.2c0.1,1.2,0.2,2.4,0.4,3.6c-0.6,0-1.2,0-1.8,0C103.4,238.4,103.9,237.3,104.3,236.2z"/>
		<path style="fill:#FFFFFF;" d="M156.5,152.8c-0.2-1.2-0.5-2.2-0.7-3.4C157.5,150.6,157.7,151.5,156.5,152.8z"/>
		<path style="fill:#FFFFFF;" d="M120.6,234c-0.7,0.1-1.3,0.2-2,0.2c-0.2,0-0.4-0.4-0.6-0.6c0.2-0.2,0.5-0.5,0.7-0.5
			c0.6,0,1.3,0.2,1.9,0.4C120.6,233.6,120.6,233.8,120.6,234z"/>
		<path style="fill:#FFFFFF;" d="M104.2,186.7c-0.2-1.6,1.1-1.9,2-2.5C106.3,185.8,104.7,185.8,104.2,186.7z"/>
		<path style="fill:#FFFFFF;" d="M161.1,155c-0.7,0.2-1.3,0.5-2,0.7c-0.1-0.2-0.2-0.7-0.2-0.7c0.6-0.4,1.3-0.6,1.9-0.8
			C160.9,154.5,161,154.8,161.1,155z"/>
		<path style="fill:#FFFFFF;" d="M128,138.4c-1.9-0.1-2.1-0.5-1.5-2C127,137,127.4,137.6,128,138.4z"/>
		<path style="fill:#FFFFFF;" d="M208,221.5c-0.1-0.5-0.2-1.1-0.4-1.5c0.4,0,0.7-0.1,1.1-0.1c0,0.5,0.1,0.9,0.1,1.5
			C208.5,221.3,208.2,221.3,208,221.5z"/>
		<path style="fill:#FFFFFF;" d="M189.2,159.1c0.6,0,1.2-0.1,1.8-0.1c0,0.2,0.1,0.7,0,0.7c-0.6,0.1-1.2,0.1-1.8,0.1
			C189.2,159.6,189.2,159.3,189.2,159.1z"/>
		<path d="M90,234.5c0.8-1.2,1.4-2,2-2.8c0.4-0.5,0.7-0.8,1.1-1.2c0.2-0.2,0.5-0.8,0.6-0.8c1.3,0.1,2.6,0.4,3.9,0.7
			c0.4,0.1,0.7,1.3,0.5,1.6c-0.6,0.8-1.4,1.4-2.1,2c-0.2-0.4-0.5-0.6-0.7-0.9c-0.2-0.5-0.5-0.9-0.8-1.5c-0.2,0.1-0.6,0.4-0.6,0.5
			c-0.1,0.7-0.1,1.4,0,2c0.2,0.7,0.8,1.2,1.3,1.8c-0.8,0-1.5-0.1-2.4-0.1c-0.4,0-0.7,0.1-0.9,0C91.3,235.5,90.7,235.1,90,234.5z"/>
		<path d="M154.5,206.9c-1.3,0.5-2.5,0.5-2.9,1.2c-1.9,2.2,0.1,3.5,1.8,4.8c-0.1,0.1-0.2,0.2-0.4,0.4c-0.4-0.2-0.9-0.2-1.2-0.6
			c-0.8-0.8-1.5-1.4-2.8-0.9c-0.4,0.1-1.2,0-1.5-0.4c-0.2-0.4-0.2-1.2,0-1.5c0.6-0.9,0.8-2.2,2.6-1.9c0.4,0.1,0.9-0.9,1.5-1.2
			c0.7-0.4,1.4-0.7,2.2-0.8C154,205.9,154.4,206.6,154.5,206.9z"/>
		<path d="M185.7,207.5c0.5,0.2,0.9,0.4,1.5,0.6c-1.1,3.3-3.4,4.5-6.7,3.8c0.2-2,1.1-2.7,2.8-2.8c0.8-0.1,1.6-0.7,2.5-0.9
			C185.8,207.8,185.8,207.6,185.7,207.5z"/>
		<path d="M173.1,229.1c1.6,0,5.2,3.3,5.8,5.3c-0.9,0.2-1.8,0.2-2.5-0.5c-1.2-1.3-1.3-1.3-2.5,0.4
			C173.7,232.4,173.4,230.7,173.1,229.1z"/>
		<path d="M180.7,229.6c-0.2,0.4-0.5,0.7-0.7,1.2c-0.4-0.4-0.8-0.7-1.2-1.2c-0.6-0.7-0.9-1.4-1.5-2.1c-0.5-0.6-0.6-1.1,0.2-1.4
			c1.1-0.5,2.2,0,2.6,1.1C180.3,227.9,180.4,228.6,180.7,229.6z"/>
		<path d="M195.4,209.1c-0.8,0.7-1.6,1.5-1.9,1.4c-0.8-0.5-1.4-1.3-2.1-1.9c0.6-0.6,1.4-1.6,1.8-1.5
			C193.9,207.3,194.5,208.3,195.4,209.1z"/>
		<path d="M121.7,218c0.1-0.1,0.4-0.5,0.5-0.5c1.2,0.1,2.4,0.4,3.4,0.7c0.2,0.1,0.6,0.7,0.5,0.8c-0.4,0.6-0.8,1.1-1.4,1.4
			c-0.2,0.1-0.8-0.1-1.1-0.4C123,219.7,122.4,219,121.7,218z"/>
		<path d="M144.3,214c-1.9-1.3-2.1-1.8-1.4-3.2c0.2-0.5,0.8-0.7,1.2-1.1c0.4,0.6,1.1,1.3,1.1,1.9C145.1,212.4,144.6,213.2,144.3,214
			z"/>
		<path d="M105.3,229.9c-0.6-0.6-1.5-1.3-1.4-1.4c0.4-0.8,1.1-1.5,1.6-2.4c0.6,0.8,1.2,1.5,1.5,2.5C107,228.7,106,229.3,105.3,229.9
			z"/>
		<path d="M185.4,226.5c-0.4,0.8-0.5,1.6-0.8,2.2c-0.4,0.5-1.1,0.6-1.6,0.7c-0.2,0-0.7-0.9-0.6-1.3c0.2-0.6,0.6-1.3,1.2-1.6
			C183.9,226.2,184.6,226.4,185.4,226.5z"/>
		<path d="M136.5,212c1.2,0,1.9-0.1,2.7,0c0.5,0.1,1.2,0.6,1.2,0.9c0,0.6-0.4,1.3-0.7,1.6c-0.1,0.1-1.1-0.2-1.4-0.6
			C137.6,213.6,137.1,212.9,136.5,212z"/>
		<path d="M108.2,224.2c0.8,0,1.4,0,2.1,0c0.4,0,0.9,0.2,1.1,0.5c0.1,0.6,0.1,1.2-0.1,1.8c-0.1,0.2-0.7,0.5-0.9,0.5
			C109.4,226.7,108.2,224.9,108.2,224.2z"/>
		<path d="M131.8,215.8c0.7-0.4,1.1-0.7,1.5-0.7c0.5,0,1.1,0.2,1.4,0.5c0.6,0.5,1.2,0.9,1.6,1.5c0.2,0.2,0.2,0.6,0.4,0.9
			c-0.4,0-0.9,0.2-0.9,0.1c-0.6-1.1-1.4-1.1-2.5-1.1C133,217,132.7,216.5,131.8,215.8z"/>
		<path d="M186.8,219.3c-0.7,0.6-1.1,0.9-1.4,1.2c-0.6-0.7-1.2-1.4-1.6-2.1c-0.1-0.1,0.9-1.1,0.9-0.9
			C185.4,217.8,186,218.5,186.8,219.3z"/>
		<path d="M120.4,219.9c0.1,0.7,0.2,1.4,0.4,2.2c0,0,0,0.1-0.1,0.1c-0.6,0.2-1.3,0.6-1.9,0.8c-0.1-0.7-0.4-1.4-0.1-2
			c0.2-0.6,0.8-1.1,1.3-1.6C120.2,219.7,120.3,219.8,120.4,219.9z"/>
		<path d="M102.5,230c-0.4,0.4-0.8,0.8-1.3,1.2c-0.1,0-0.6-0.6-0.8-0.8c-0.1-0.1-0.1-0.2-0.1-0.4c0-0.5-0.1-1.1-0.1-1.5
			c0.4,0,0.7-0.1,0.9,0c0.6,0.2,1.2,0.6,1.8,0.9C102.8,229.6,102.7,229.8,102.5,230z"/>
		<path d="M192.5,184c-2.1-0.5-4-0.9-6.1-1.5C187.9,181.6,191.1,182.4,192.5,184z"/>
		<path d="M157.7,206.6c0.7,0.6,1.5,1.1,2.2,1.8c0.1,0.1,0,1.1-0.2,1.2c-0.5,0.1-1.2,0.1-1.3-0.2c-0.5-0.7-0.7-1.6-1.1-2.5
			C157.5,206.7,157.6,206.6,157.7,206.6z"/>
		<path d="M214.7,204.5c-1.5-0.2-2.7-0.4-3.9-0.5c-0.1,0-0.5-0.4-0.5-0.5c0-0.2,0.2-0.5,0.5-0.6C211.4,202.7,214,203.6,214.7,204.5z
			"/>
		<path d="M116,223.7c-0.5,0.7-0.9,1.2-1.3,1.6c-0.2-0.4-0.7-0.7-0.7-0.9c0.1-0.6,0.5-1.3,0.8-1.9
			C115.2,222.9,115.5,223.2,116,223.7z"/>
		<path d="M194.5,190.3c-1.1,0.2-2.4-0.6-2.2-1.4c0-0.2,0.2-0.6,0.5-0.6c0.2-0.1,0.7,0,0.8,0.2C193.9,189,194.1,189.6,194.5,190.3z"
			/>
		<path d="M177.6,217.2c-0.4,1.3-0.9,1.6-1.8,1.1c-0.2-0.1-0.1-0.6-0.1-0.9C176.3,217.3,176.8,217.2,177.6,217.2z"/>
		<path d="M128.9,218.4c0-0.5-0.2-1.1-0.1-1.5c0-0.2,0.7-0.2,1.2-0.2c-0.1,0.6-0.2,1.2-0.2,1.9C129.5,218.4,129.1,218.4,128.9,218.4
			z"/>
		<path d="M177.7,220.7c-0.7,0.6-1.3,0.7-1.8-0.1c-0.1-0.2,0-0.7,0.2-0.8C176.8,219.6,177.4,219.7,177.7,220.7z"/>
		<path d="M182.3,183.8c-0.7,0-1.4-0.1-2.1-0.1c0-0.1-0.1-0.2-0.1-0.5c0.4-0.2,0.7-0.6,1.1-0.6c0.5,0,0.8,0.5,1.3,0.6
			C182.4,183.5,182.3,183.6,182.3,183.8z"/>
		<path d="M183.1,222.9c0.5-0.2,1.1-0.5,1.5-0.6c0,0,0.2,0.5,0.4,0.7c-0.5,0.2-1.1,0.5-1.5,0.6C183.2,223.3,183.1,223.1,183.1,222.9
			z"/>
		<path d="M214.6,95.7c0.5,2.2,1.1,4.5,1.4,6.7c0.1,0.4-0.5,0.9-0.8,1.3c-0.7-2.7-1.9-5.2-0.9-7.9C214.2,95.7,214.3,95.7,214.6,95.7
			z"/>
		<path d="M210,72.4c0.1,0.4,0.4,0.8,0.4,1.2c-0.1,0.5-0.6,0.8-0.9,1.2c-0.4-0.4-0.8-0.6-0.9-0.9c-0.1-0.2,0.6-0.6,0.8-0.9
			C209.5,72.8,209.8,72.5,210,72.4z"/>
		<path d="M139.1,147.6c-0.6-0.6-1.2-1.3-1.8-1.9c1.5-0.2,1.9,0.6,2.1,1.6C139.4,147.3,139.2,147.5,139.1,147.6z"/>
		<path style="fill:#E63027;stroke:#000000;stroke-width:0.5847;" d="M24.1,213.8c0,0,44.1,29.4,125.2,29.4s126.7-30.9,126.7-30.9
			l-20.1,70.3c0,0-34.8,17.1-105.9,17.1S42.5,280.4,42.5,280.4L24.1,213.8z"/>
	</g>
	<g id="rbb">
		<g id="rbb-front">
			<g>
				<g>
					<path style="fill:#FFFFFF;" d="M78.3,282.5l-9.5-2.8l-0.1-0.2l0.2-0.1c0.9,0.1,1.6,0.1,2.1-0.2c0.5-0.4,0.8-0.9,1.1-1.9
						l2.8-9.6c0.2-0.9,0.4-1.5,0.1-2.1c-0.2-0.6-0.7-0.9-1.5-1.3v-0.2l0.2-0.1l3.2,0.8l4,1.2c4.9,1.4,6.9,3.4,6.2,6
						c-0.2,0.9-0.9,1.5-2,2c-0.8,0.2-1.9,0.4-2.9,0.2c3.2,1.6,4.5,3.5,3.9,5.6c-0.5,1.6-1.5,2.7-3.2,3.2
						C81.5,283.1,80,283,78.3,282.5z M75.7,272.5l-1.5,5.2c-0.4,1.2-0.2,2,0.4,2.6c0.4,0.4,1.2,0.7,2.6,1.1c3.5,1.1,5.6,0.2,6.3-2.4
						c0.4-1.4,0.1-2.6-0.8-3.6c-0.8-0.8-1.9-1.5-3.4-1.9L75.7,272.5z M75.9,271.9l3.6,1.1c2.8,0.8,4.5,0.2,5.2-1.9
						c0.7-2.2-0.6-3.8-3.8-4.7l-3.2-0.9L75.9,271.9z"/>
					<path style="fill:#FFFFFF;" d="M73.7,263.9l3.2,0.8l4,1.2c4.9,1.4,6.9,3.4,6.2,6c-0.2,0.9-0.9,1.5-2,2c-0.6,0.2-1.3,0.4-2,0.4
						c-0.2,0-0.6,0-0.9,0c3.2,1.6,4.5,3.5,3.9,5.6c-0.5,1.6-1.5,2.7-3.2,3.2c-0.6,0.1-1.1,0.2-1.6,0.2c-0.9,0-1.9-0.1-2.9-0.5
						l-9.5-2.8l-0.1-0.2l0.2-0.1c0.4,0.1,0.7,0.1,0.9,0.1c0.5,0,0.9-0.1,1.2-0.2c0.5-0.4,0.8-0.9,1.1-1.9l2.8-9.6
						c0.2-0.9,0.4-1.5,0.1-2.1c-0.2-0.6-0.7-0.9-1.5-1.3v-0.2L73.7,263.9 M81.7,273.3c1.5,0,2.6-0.7,3.1-2.2
						c0.7-2.2-0.6-3.8-3.8-4.7l-3.2-0.9l-1.9,6.4l3.6,1.1C80.2,273.2,81,273.3,81.7,273.3 M79.7,281.9c2,0,3.2-0.9,3.8-2.8
						c0.4-1.4,0.1-2.6-0.8-3.6c-0.8-0.8-1.9-1.5-3.4-1.9l-3.5-1.1l-1.5,5.2c-0.4,1.2-0.2,2,0.4,2.6c0.4,0.4,1.2,0.7,2.6,1.1
						C78,281.8,79,281.9,79.7,281.9 M73.7,263.7L73.7,263.7l-0.2,0.2l-0.1,0.1v0.1v0.2v0.1h0.1c0.7,0.4,1.2,0.7,1.4,1.2
						c0.1,0.5,0.1,1.1-0.1,1.9l-2.8,9.6c-0.2,0.8-0.6,1.4-1.1,1.8c-0.2,0.1-0.6,0.2-1.1,0.2c-0.2,0-0.6,0-0.9-0.1h-0.1l-0.1,0.1
						l-0.2,0.1l-0.1,0.1l0.1,0.1l0.1,0.2v0.1h0.1l9.5,2.8c1.1,0.4,2.1,0.5,3.1,0.5c0.6,0,1.2-0.1,1.8-0.2c1.6-0.5,2.8-1.5,3.3-3.3
						c0.6-2-0.5-3.9-3.1-5.4c0.7,0,1.4-0.1,2-0.4c1.2-0.4,1.9-1.2,2.1-2.1c0.2-0.9,0.2-1.9-0.2-2.7c-0.8-1.5-2.8-2.7-6.1-3.6l-4-1.2
						L73.7,263.7L73.7,263.7L73.7,263.7z M76.1,271.8l1.8-6l2.9,0.8c1.8,0.5,2.9,1.2,3.4,2.1c0.4,0.6,0.4,1.4,0.1,2.2
						c-0.4,1.4-1.3,2.1-2.8,2.1c-0.6,0-1.3-0.1-2-0.4L76.1,271.8L76.1,271.8z M79.7,281.7c-0.7,0-1.6-0.1-2.6-0.5
						c-1.6-0.5-2.2-0.8-2.5-1.1c-0.5-0.5-0.6-1.3-0.2-2.4l1.4-5.1l3.3,0.9c1.4,0.5,2.6,1.1,3.3,1.9c0.9,0.9,1.2,2.1,0.7,3.4
						C82.7,280.9,81.5,281.7,79.7,281.7L79.7,281.7z"/>
				</g>
				<g>
					<path style="fill:#FFFFFF;" d="M92.2,282.6c-0.1,0.8-0.2,1.4-0.1,1.8c0.1,0.6,0.5,1.1,1.1,1.3l0.1,0.2l-0.1,0.1l-5.1-1.1
						l-0.1-0.2l0.1-0.2c0.7,0,1.3-0.1,1.6-0.7c0.2-0.4,0.5-0.9,0.6-1.8l1.2-5.4c0.1-0.6,0.1-0.9,0.1-1.2c-0.1-0.4-0.4-0.7-0.7-0.8
						l-0.5-0.2v-0.2l0.1-0.1l3.3-0.4h0.2L92.2,282.6z M92.8,269.4c0.1-0.4,0.2-0.6,0.5-0.7c0.2-0.1,0.6-0.2,0.8-0.1
						c0.4,0.1,0.6,0.2,0.7,0.5c0.2,0.2,0.2,0.6,0.2,0.8c-0.1,0.4-0.2,0.6-0.5,0.7c-0.2,0.1-0.6,0.2-0.8,0.1
						c-0.4-0.1-0.6-0.2-0.7-0.5C92.8,270,92.7,269.8,92.8,269.4z"/>
					<path style="fill:#FFFFFF;" d="M94,268.6c0.1,0,0.1,0,0.2,0c0.4,0.1,0.6,0.2,0.7,0.5c0.2,0.2,0.2,0.6,0.2,0.8
						c-0.1,0.4-0.2,0.6-0.5,0.7c-0.2,0.1-0.4,0.1-0.6,0.1c-0.1,0-0.1,0-0.2,0c-0.4-0.1-0.6-0.2-0.7-0.5c-0.2-0.2-0.2-0.6-0.2-0.8
						c0.1-0.4,0.2-0.6,0.5-0.7C93.5,268.6,93.8,268.6,94,268.6 M93.9,273.9h0.2l-1.9,8.7c-0.1,0.8-0.2,1.4-0.1,1.8
						c0.1,0.6,0.5,1.1,1.1,1.3l0.1,0.2l-0.1,0.1l-5.1-1.1l-0.1-0.2l0.1-0.2c0.1,0,0.1,0,0.2,0c0.6,0,1.1-0.2,1.4-0.7
						c0.2-0.4,0.5-0.9,0.6-1.8l1.2-5.4c0.1-0.6,0.1-0.9,0.1-1.2c-0.1-0.4-0.4-0.7-0.7-0.8l-0.5-0.2v-0.2l0.1-0.1L93.9,273.9
						 M94,268.4c-0.2,0-0.5,0.1-0.7,0.2c-0.4,0.2-0.6,0.5-0.6,0.8c-0.1,0.4,0,0.7,0.2,1.1c0.2,0.4,0.5,0.5,0.8,0.6
						c0.1,0,0.2,0,0.4,0c0.2,0,0.5-0.1,0.7-0.2c0.4-0.2,0.6-0.5,0.6-0.8c0.1-0.4,0-0.7-0.2-1.1s-0.5-0.5-0.8-0.6
						C94.1,268.4,94,268.4,94,268.4L94,268.4z M93.9,273.7L93.9,273.7l-3.4,0.4h-0.1l0,0l-0.1,0.1l-0.1,0.1v0.1v0.2v0.1h0.1l0.5,0.2
						c0.4,0.1,0.6,0.4,0.6,0.7c0,0.1,0,0.5-0.1,1.1l-1.2,5.4c-0.1,0.8-0.4,1.3-0.6,1.6s-0.7,0.6-1.3,0.6c0,0-0.1,0-0.2,0h-0.1
						l-0.1,0.1l-0.1,0.2l-0.1,0.1v0.1l0.1,0.2v0.1h0.1l5.1,1.1h0.1l0.1-0.1l0.1-0.1l0.1-0.1l-0.1-0.1l-0.1-0.2v-0.1h-0.1
						c-0.6-0.2-0.8-0.6-0.9-1.1c-0.1-0.4,0-0.9,0.1-1.8l1.9-8.7v-0.2h-0.2L93.9,273.7L93.9,273.7L93.9,273.7z"/>
				</g>
				<g>
					<path style="fill:#FFFFFF;" d="M108.1,285c-0.6,1.2-1.5,2-2.7,2.6c-1.2,0.6-2.5,0.7-3.8,0.5c-1.6-0.2-2.9-1.2-3.9-2.6
						c-0.8-1.3-1.2-2.9-0.8-4.6c0.4-1.8,1.2-3.2,2.5-4.1c1.3-0.9,2.9-1.3,4.7-1.1c1.2,0.2,2.4,0.8,3.3,1.8c0.9,0.9,1.4,2.1,1.4,3.3
						c0,0.2-0.5,0.2-1.4,0.1l-8.1-1.3c-0.1,0.2-0.1,0.6-0.2,1.1v0.2c-0.2,1.5-0.1,2.9,0.6,4c0.7,1.2,1.8,2,3.3,2.2
						c0.9,0.1,1.9,0,2.8-0.5s1.6-1.1,2.1-1.9c0.1,0,0.1,0,0.2,0C108.1,284.9,108.1,285,108.1,285z M99.5,279l6.9,1.2
						c0.1-1.1-0.1-1.9-0.6-2.6c-0.5-0.7-1.2-1.2-2.2-1.3C101.9,275.9,100.5,276.9,99.5,279z"/>
					<path style="fill:#FFFFFF;" d="M102.9,275.7c0.4,0,0.8,0,1.2,0.1c1.2,0.2,2.4,0.8,3.3,1.8c0.9,0.9,1.4,2.1,1.4,3.3
						c0,0.1-0.2,0.2-0.6,0.2c-0.2,0-0.5,0-0.8-0.1l-8.1-1.3c-0.1,0.2-0.1,0.6-0.2,1.1v0.2c-0.2,1.5-0.1,2.9,0.6,4
						c0.7,1.2,1.8,2,3.3,2.2c0.2,0,0.5,0.1,0.7,0.1c0.7,0,1.4-0.1,2.1-0.5c0.9-0.5,1.6-1.1,2.1-1.9h0.1h0.1c0.1,0,0.1,0.1,0.1,0.1
						c-0.6,1.2-1.5,2-2.7,2.6c-0.8,0.4-1.8,0.6-2.6,0.6c-0.4,0-0.7,0-1.1-0.1c-1.6-0.2-2.9-1.2-3.9-2.6c-0.8-1.3-1.2-2.9-0.8-4.6
						c0.4-1.8,1.2-3.2,2.5-4.1C100.5,276,101.6,275.7,102.9,275.7 M106.6,280.2c0.1-1.1-0.1-1.9-0.6-2.6s-1.2-1.2-2.2-1.3
						c-0.2,0-0.5-0.1-0.7-0.1c-1.5,0-2.7,0.9-3.5,2.8L106.6,280.2 M102.9,275.4c-1.3,0-2.6,0.4-3.6,1.2c-1.4,1.1-2.2,2.5-2.6,4.2
						c-0.4,1.8,0,3.4,0.9,4.8s2.2,2.4,4,2.6c0.4,0.1,0.7,0.1,1.1,0.1c0.9,0,1.9-0.2,2.7-0.6c1.2-0.6,2.2-1.4,2.8-2.6l0.1-0.1V285
						c-0.1-0.1-0.1-0.2-0.2-0.2s-0.1,0-0.2,0h-0.1h-0.1v0.1c-0.5,0.8-1.1,1.4-2,1.8c-0.6,0.4-1.3,0.5-2,0.5c-0.2,0-0.5,0-0.7-0.1
						c-1.5-0.2-2.5-0.9-3.2-2.1c-0.6-1.1-0.7-2.4-0.5-3.9v-0.2c0.1-0.4,0.1-0.6,0.1-0.8l7.9,1.3c0.4,0,0.6,0.1,0.8,0.1
						c0.5,0,0.7-0.1,0.8-0.5c0-1.3-0.5-2.5-1.4-3.5c-1.1-1.1-2.1-1.6-3.4-1.9C103.8,275.4,103.4,275.4,102.9,275.4L102.9,275.4z
						 M99.9,278.9c0.7-1.6,1.8-2.5,3.2-2.5c0.2,0,0.5,0,0.7,0c0.9,0.1,1.6,0.6,2.1,1.2c0.4,0.6,0.6,1.3,0.6,2.2L99.9,278.9
						L99.9,278.9z"/>
				</g>
				<g>
					<path style="fill:#FFFFFF;" d="M114.3,286.3c-0.1,0.9,0,1.5,0.1,2c0.2,0.6,0.8,0.9,1.5,1.1h0.1l0.1,0.2l-0.1,0.1l-5.6-0.7
						l-0.1-0.2l0.1-0.2c0.7,0,1.2-0.4,1.5-0.8c0.2-0.4,0.4-0.9,0.5-1.8l0.7-5.6c0.1-1.1-0.1-1.8-0.7-1.9l-0.5-0.1l-0.1-0.2l0.1-0.1
						l3.1-0.7h0.2l-0.4,3.3c1.4-2.1,2.7-3.1,4.1-2.8l1.2,0.6l-0.9,2l-0.7-0.4c-0.2-0.2-0.4-0.4-0.6-0.4c-0.2-0.1-0.4-0.1-0.6-0.1
						c-0.6-0.1-1.1,0.2-1.5,0.8c-0.6,0.8-0.9,1.8-1.2,2.9L114.3,286.3z"/>
					<path style="fill:#FFFFFF;" d="M115,277.2h0.2l-0.4,3.3c1.3-1.9,2.6-2.8,3.8-2.8c0.1,0,0.2,0,0.2,0l1.2,0.6l-0.9,2l-0.7-0.4
						c-0.2-0.2-0.4-0.4-0.6-0.4c-0.2-0.1-0.4-0.1-0.6-0.1c-0.1,0-0.1,0-0.2,0c-0.5,0-0.9,0.2-1.3,0.8c-0.6,0.8-0.9,1.8-1.2,2.9
						l-0.4,3.2c-0.1,0.9,0,1.5,0.1,2c0.2,0.6,0.8,0.9,1.5,1.1h0.1l0.1,0.2l-0.1,0.1l-5.6-0.7l-0.1-0.2l0.1-0.2
						c0.7,0,1.2-0.4,1.5-0.8c0.2-0.4,0.4-0.9,0.5-1.8l0.7-5.6c0.1-1.1-0.1-1.8-0.7-1.9l-0.5-0.1l-0.1-0.2l0.1-0.1L115,277.2
						 M115,277L115,277l-3.2,0.7h-0.1l0,0l-0.1,0.1l-0.1,0.1v0.1l0.1,0.2v0.1h0.1l0.5,0.1c0.2,0,0.7,0.2,0.6,1.6l-0.7,5.6
						c-0.1,0.8-0.2,1.4-0.5,1.6c-0.2,0.5-0.7,0.7-1.3,0.7h-0.1l-0.1,0.1l-0.1,0.2l-0.1,0.1v0.1l0.1,0.2v0.1h0.1l5.6,0.7h0.1l0.1-0.1
						l0.1-0.1l0.1-0.1l-0.1-0.1l-0.1-0.2l-0.1-0.1h-0.1h-0.1c-0.7-0.1-1.2-0.5-1.4-0.9c-0.2-0.4-0.2-0.9-0.1-1.9l0.4-3.2
						c0.2-1.1,0.7-2,1.2-2.8c0.4-0.5,0.7-0.7,1.2-0.7h0.1c0.1,0,0.4,0.1,0.5,0.1l0,0l0,0c0.1,0,0.4,0.1,0.5,0.2l0,0l0,0l0.7,0.4
						l0.2,0.1l0.1-0.2l0.9-2l0.1-0.2l-0.2-0.1l-1.2-0.6l0,0l0,0c-0.1,0-0.2,0-0.4,0c-1.2,0-2.4,0.7-3.5,2.2l0.2-2.4v-0.2h-0.2
						L115,277L115,277L115,277z"/>
				</g>
				<g>
					<path style="fill:#FFFFFF;" d="M125,289.3l-0.2,3.8c0,0.8,0,1.4,0.1,1.9c0.2,0.6,0.7,0.9,1.4,1.1l0.2,0.2l-0.1,0.2l-5.4-0.4
						l-0.1-0.2l0.1-0.2c0.7-0.1,1.2-0.4,1.5-0.9c0.2-0.4,0.4-0.9,0.4-1.8l0.7-11.3c0.1-1.2-0.2-1.8-0.8-1.9l-0.5-0.1l-0.1-0.2
						l0.1-0.1l2.9-0.8h0.2l-0.1,2.7c1.4-1.9,3.1-2.7,5.1-2.6c1.5,0.1,2.8,0.8,3.8,2c0.9,1.3,1.4,2.7,1.3,4.2
						c-0.1,1.8-0.8,3.3-2.1,4.5c-1.3,1.2-2.8,1.8-4.7,1.6C127.1,290.9,125.8,290.3,125,289.3z M125.1,286.3c0.1,1.1,0.5,2,1.2,2.7
						c0.7,0.7,1.5,1.2,2.6,1.2c1.3,0.1,2.4-0.4,3.2-1.4c0.7-0.9,1.1-2,1.2-3.4c0.1-1.5-0.1-2.8-0.7-3.9c-0.7-1.2-1.8-1.9-3.2-2
						c-1.1-0.1-2,0.2-2.7,0.9c-0.6,0.6-1.1,1.4-1.4,2.6L125.1,286.3z"/>
					<path style="fill:#FFFFFF;" d="M125.4,278.4h0.2l-0.1,2.7c1.3-1.8,2.8-2.6,4.6-2.6c0.1,0,0.2,0,0.4,0c1.5,0.1,2.8,0.8,3.8,2
						c0.9,1.3,1.4,2.7,1.3,4.2c-0.1,1.8-0.8,3.3-2.1,4.5c-1.2,1.1-2.6,1.6-4.2,1.6c-0.1,0-0.4,0-0.5,0c-1.5-0.1-2.7-0.7-3.6-1.8
						l-0.2,3.8c0,0.8,0,1.4,0.1,1.9c0.2,0.6,0.7,0.9,1.4,1.1l0.2,0.2l-0.1,0.2l-5.4-0.4l-0.1-0.2l0.1-0.2c0.7-0.1,1.2-0.4,1.5-0.9
						c0.2-0.4,0.4-0.9,0.4-1.8l0.7-11.3c0.1-1.2-0.2-1.8-0.8-1.9l-0.5-0.1l-0.1-0.2l0.1-0.1L125.4,278.4 M129.3,290.3
						c1.2,0,2.1-0.5,2.9-1.4c0.7-0.9,1.1-2,1.2-3.4c0.1-1.5-0.1-2.8-0.7-3.9c-0.7-1.2-1.8-1.9-3.2-2c-0.1,0-0.2,0-0.2,0
						c-0.9,0-1.8,0.4-2.4,0.9s-1.1,1.4-1.4,2.6l-0.2,3.2c0.1,1.1,0.5,2,1.2,2.7c0.7,0.7,1.5,1.2,2.6,1.2
						C129,290.3,129.1,290.3,129.3,290.3 M125.3,278.2L125.3,278.2l-3.1,0.8h-0.1l0,0l-0.1,0.1l-0.1,0.1v0.1l0.1,0.2v0.1h0.1
						l0.5,0.1c0.5,0.1,0.7,0.7,0.6,1.6l-0.7,11.3c0,0.8-0.1,1.4-0.4,1.6c-0.2,0.5-0.7,0.7-1.3,0.8h-0.1l-0.1,0.1l-0.1,0.2l-0.1,0.1
						l0.1,0.1l0.1,0.2l0.1,0.1h0.1l5.4,0.4h0.1l0.1-0.1l0.1-0.2l0.1-0.1l-0.1-0.1l-0.2-0.2l0,0h-0.1c-0.7-0.1-1.1-0.5-1.3-0.9
						c-0.1-0.4-0.2-0.9-0.1-1.8l0.2-3.2c0.9,0.8,2.1,1.3,3.5,1.4c0.1,0,0.4,0,0.5,0c1.6,0,3.1-0.6,4.3-1.8c1.4-1.3,2.1-2.8,2.2-4.6
						c0.1-1.6-0.4-3.1-1.3-4.4c-0.9-1.3-2.4-2-3.9-2.1c-0.1,0-0.2,0-0.4,0c-1.6,0-3.1,0.7-4.3,2.1l0.1-2v-0.2h-0.2L125.3,278.2
						L125.3,278.2L125.3,278.2z M129.3,290c-0.1,0-0.2,0-0.2,0c-1.1-0.1-1.9-0.5-2.5-1.2c-0.7-0.7-1.1-1.5-1.1-2.6l0.2-3.2
						c0.2-0.9,0.7-1.8,1.3-2.4s1.4-0.9,2.2-0.9c0.1,0,0.1,0,0.2,0c1.3,0.1,2.4,0.7,2.9,1.9c0.6,1.1,0.8,2.2,0.7,3.6
						c-0.1,1.3-0.5,2.5-1.1,3.3C131.3,289.6,130.4,290,129.3,290L129.3,290z"/>
				</g>
				<g>
					<path style="fill:#FFFFFF;" d="M141.5,288.2c0,0.9,0.1,1.5,0.4,1.9c0.2,0.5,0.8,0.8,1.6,0.9h0.1l0.1,0.2l-0.1,0.2l-5.6-0.1
						l-0.1-0.2l0.1-0.2c0.7-0.1,1.2-0.5,1.4-0.9c0.1-0.4,0.2-0.9,0.2-1.8l0.1-5.8c0-1.2-0.2-1.8-0.9-1.9l-0.5-0.1l-0.1-0.2l0.1-0.1
						l3.1-0.9h0.2l-0.1,3.3c1.2-2.2,2.5-3.3,3.8-3.2l1.3,0.5l-0.8,2l-0.7-0.2c-0.2-0.2-0.5-0.4-0.6-0.4c-0.2-0.1-0.5-0.1-0.6-0.1
						c-0.6,0-1.1,0.4-1.4,0.9c-0.5,0.8-0.8,1.9-0.9,3.1V288.2z"/>
					<path style="fill:#FFFFFF;" d="M141.4,279.1h0.2l-0.1,3.3c1.2-2.1,2.4-3.2,3.8-3.2l0,0l1.3,0.5l-0.8,2l-0.7-0.2
						c-0.2-0.2-0.5-0.4-0.6-0.4c-0.2-0.1-0.5-0.1-0.6-0.1l0,0c-0.6,0-1.1,0.4-1.4,0.9c-0.5,0.8-0.8,1.9-0.9,3.1l-0.1,3.2
						c0,0.9,0.1,1.5,0.4,1.9c0.2,0.5,0.8,0.8,1.6,0.9h0.1l0.1,0.2l-0.1,0.2l-5.6-0.1l-0.1-0.2l0.1-0.2c0.7-0.1,1.2-0.5,1.4-0.9
						c0.1-0.4,0.2-0.9,0.2-1.8l0.1-5.8c0-1.2-0.2-1.8-0.9-1.9l-0.5-0.1l-0.1-0.2l0.1-0.1L141.4,279.1 M141.4,278.9L141.4,278.9
						l-3.1,0.9h-0.1l0,0l-0.1,0.1l-0.1,0.1v0.1l0.1,0.2v0.1h0.1l0.5,0.1c0.2,0,0.8,0.1,0.7,1.6l-0.1,5.8c0,0.8-0.1,1.4-0.2,1.8
						c-0.2,0.5-0.6,0.7-1.3,0.8h-0.1v0.1l-0.1,0.2v0.1l0.1,0.1l0.1,0.2l0.1,0.1h0.1l5.6,0.1h0.1l0.1-0.1l0.1-0.2l0.1-0.1l-0.1-0.1
						l-0.1-0.2l-0.1-0.1h-0.1h-0.1c-0.7-0.1-1.2-0.4-1.5-0.8c-0.2-0.4-0.4-0.9-0.4-1.8l0.1-3.2c0.1-1.1,0.5-2.1,0.9-2.9
						c0.4-0.6,0.7-0.8,1.2-0.8c0.2,0,0.4,0,0.6,0.1l0,0l0,0c0.1,0,0.4,0.1,0.5,0.2l0,0l0,0l0.7,0.2l0.2,0.1l0.1-0.2l0.8-2l0.1-0.2
						l-0.2-0.1l-1.3-0.5l0,0l0,0l0,0c-1.3,0-2.5,0.8-3.5,2.6v-2.4v-0.2h-0.2L141.4,278.9L141.4,278.9L141.4,278.9z"/>
				</g>
				<g>
					<path style="fill:#FFFFFF;" d="M161.6,285.2c0,1.8-0.6,3.3-1.9,4.5s-2.8,1.8-4.7,1.9c-1.9,0-3.4-0.5-4.7-1.6
						c-1.3-1.2-2-2.7-2-4.5s0.6-3.3,1.9-4.6c1.3-1.2,2.8-1.8,4.6-1.9c1.9,0,3.4,0.6,4.7,1.6C160.9,281.9,161.5,283.4,161.6,285.2z
						 M159.3,285.3c0-1.5-0.5-2.8-1.2-3.9c-0.8-1.2-2-1.8-3.4-1.8c-1.4,0-2.6,0.7-3.3,1.9c-0.6,1.1-0.9,2.4-0.8,3.9
						c0,1.5,0.5,2.8,1.2,3.9c0.8,1.2,2,1.8,3.4,1.8c1.4,0,2.6-0.7,3.3-1.9C159.1,288.2,159.3,286.9,159.3,285.3z"/>
					<path style="fill:#FFFFFF;" d="M155,279.1c1.8,0,3.3,0.6,4.6,1.6c1.3,1.2,2,2.7,2,4.5s-0.6,3.3-1.9,4.5s-2.8,1.8-4.7,1.9h-0.1
						c-1.8,0-3.3-0.6-4.5-1.6c-1.3-1.2-2-2.7-2-4.5s0.6-3.3,1.9-4.6c1.3-1.2,2.8-1.8,4.6-1.9C154.9,279.1,154.9,279.1,155,279.1
						 M155.1,291C155.1,291,155.2,291,155.1,291c1.5,0,2.6-0.7,3.4-1.9c0.6-1.1,0.9-2.4,0.8-3.9c0-1.5-0.5-2.8-1.2-3.9
						c-0.8-1.2-2-1.8-3.4-1.8h-0.1c-1.4,0-2.6,0.7-3.3,1.9c-0.6,1.1-0.9,2.4-0.8,3.9c0,1.5,0.5,2.8,1.2,3.9
						C152.6,290.5,153.7,291,155.1,291 M155,278.9h-0.1c-1.9,0-3.5,0.7-4.8,1.9c-1.3,1.3-2,2.8-2,4.7s0.7,3.4,2.1,4.7
						c1.3,1.2,2.8,1.8,4.7,1.8h0.1c1.9,0,3.5-0.7,4.8-1.9c1.3-1.3,2-2.8,1.9-4.7c0-1.9-0.7-3.4-2.1-4.6
						C158.4,279.4,156.8,278.9,155,278.9L155,278.9z M155.1,290.7c-1.3,0-2.4-0.6-3.2-1.6c-0.7-0.9-1.2-2.2-1.2-3.6
						c0-1.5,0.2-2.7,0.8-3.8c0.7-1.2,1.6-1.8,3.1-1.8h0.1c1.3,0,2.4,0.6,3.2,1.6c0.7,1.1,1.2,2.2,1.2,3.6c0,1.5-0.2,2.7-0.8,3.8
						C157.6,290.2,156.6,290.7,155.1,290.7L155.1,290.7L155.1,290.7z"/>
				</g>
				<g>
					<path style="fill:#FFFFFF;" d="M176.6,286.6c-0.4,1.3-1.1,2.2-2.1,3.1c-1.1,0.8-2.2,1.3-3.5,1.3c-1.8,0.1-3.2-0.5-4.3-1.6
						c-1.2-1.2-1.8-2.6-1.9-4.4s0.4-3.3,1.4-4.6s2.6-1.9,4.3-2c1.2-0.1,2.5,0.2,3.6,1.1c1.2,0.7,1.9,1.8,2.1,2.9
						c0,0.2-0.5,0.4-1.3,0.5l-8.2,0.5c0,0.2,0,0.7,0,1.2v0.2c0.1,1.6,0.6,2.8,1.4,3.8c0.9,1.1,2.1,1.5,3.8,1.4
						c0.9-0.1,1.9-0.5,2.6-1.1c0.8-0.6,1.3-1.4,1.6-2.4c0.1,0,0.1,0,0.2,0C176.5,286.5,176.6,286.5,176.6,286.6z M166.9,282.6
						l7.1-0.5c-0.1-1.1-0.6-1.9-1.2-2.5c-0.6-0.6-1.4-0.8-2.5-0.8C168.4,279.1,167.3,280.4,166.9,282.6z"/>
					<path style="fill:#FFFFFF;" d="M171,278.4c1.1,0,2.2,0.4,3.3,1.1c1.2,0.7,1.9,1.8,2.1,2.9c0,0.2-0.5,0.4-1.3,0.5l-8.2,0.5
						c0,0.2,0,0.7,0,1.2v0.2c0.1,1.6,0.6,2.8,1.4,3.8c0.8,0.9,2,1.4,3.3,1.4c0.1,0,0.2,0,0.4,0c0.9-0.1,1.9-0.5,2.6-1.1
						c0.8-0.6,1.3-1.4,1.6-2.4c0.1,0,0.1,0,0.2,0l0,0c0.1,0,0.1,0,0.2,0.1c-0.4,1.3-1.1,2.2-2.1,3.1c-1.1,0.8-2.2,1.3-3.5,1.3
						c-0.1,0-0.2,0-0.5,0c-1.5,0-2.8-0.6-3.9-1.6c-1.2-1.2-1.8-2.6-1.9-4.4c-0.1-1.8,0.4-3.3,1.4-4.6c1.1-1.3,2.6-1.9,4.3-2
						C170.7,278.4,170.9,278.4,171,278.4 M166.9,282.6l7.1-0.5c-0.1-1.1-0.6-1.9-1.2-2.5c-0.6-0.5-1.3-0.8-2.1-0.8
						c-0.1,0-0.2,0-0.4,0C168.4,279.1,167.3,280.4,166.9,282.6 M171,278.2c-0.1,0-0.2,0-0.4,0c-1.9,0.1-3.3,0.8-4.5,2.1
						c-1.2,1.3-1.6,2.9-1.5,4.7c0.1,1.8,0.8,3.3,2,4.5c1.2,1.1,2.5,1.6,4.1,1.6c0.1,0,0.4,0,0.5,0c1.3-0.1,2.6-0.6,3.6-1.4
						c1.1-0.8,1.8-1.9,2.1-3.2v-0.1l-0.1-0.1c-0.1-0.1-0.2-0.1-0.4-0.2l0,0h-0.1c-0.1,0-0.2,0-0.2,0.1H176v0.1
						c-0.2,0.8-0.7,1.6-1.5,2.2c-0.7,0.6-1.6,0.9-2.5,1.1c-0.1,0-0.2,0-0.4,0c-1.3,0-2.4-0.5-3.2-1.3c-0.8-0.9-1.3-2.1-1.4-3.6v-0.2
						c0-0.4,0-0.7,0-0.9l8-0.5c0.7,0,1.5-0.1,1.5-0.7c-0.2-1.3-0.9-2.2-2.2-3.1C173.2,278.5,172.1,278.2,171,278.2L171,278.2z
						 M167.2,282.4c0.4-2,1.4-3.1,3.2-3.2c0.1,0,0.2,0,0.2,0c0.8,0,1.5,0.2,2,0.7c0.6,0.5,0.9,1.2,1.1,2L167.2,282.4L167.2,282.4z"
						/>
				</g>
				<g>
					<path style="fill:#FFFFFF;" d="M189.5,279.7l-3.4,9.8c-0.1,0.1-0.2,0.1-0.4,0.1s-0.1,0-0.4-0.1l-5.8-9.4
						c-0.6-0.9-1.2-1.4-1.9-1.4l-0.2-0.2l0.1-0.2l2.4-0.2l2.4-0.4l0.2,0.2l-0.1,0.2c-0.6,0.1-0.9,0.4-1.1,0.6c0,0.1-0.1,0.1,0,0.4
						c0,0.2,0.1,0.6,0.5,1.1l4.3,7.1l2.6-7.3c0.1-0.5,0.1-0.8,0.1-1.1c-0.1-0.7-0.6-1.2-1.5-1.2l-0.2-0.2l0.1-0.2l2-0.1l2-0.4
						l0.2,0.2l-0.1,0.2C190.6,277.6,190,278.5,189.5,279.7z"/>
					<path style="fill:#FFFFFF;" d="M191.2,276.7l0.2,0.2l-0.1,0.2c-0.7,0.5-1.4,1.3-1.8,2.6l-3.4,9.8c-0.1,0.1-0.2,0.1-0.4,0.1l0,0
						c-0.1,0-0.1,0-0.2-0.1l-5.8-9.4c-0.6-0.9-1.2-1.4-1.9-1.4l-0.2-0.2l0.1-0.2l2.4-0.2l2.4-0.4l0.2,0.2l-0.1,0.2
						c-0.6,0.1-0.9,0.4-1.1,0.6c0,0.1-0.1,0.1,0,0.4c0,0.2,0.1,0.6,0.5,1.1l4.3,7.1l2.6-7.3c0.1-0.5,0.1-0.8,0.1-1.1
						c-0.1-0.7-0.6-1.2-1.5-1.2l-0.2-0.2l0.1-0.2l2-0.1L191.2,276.7 M191.3,276.5h-0.1l-2,0.4l-2,0.1h-0.1v0.1l-0.1,0.2v0.1l0.1,0.1
						l0.2,0.2l0.1,0.1h0.1c1.1,0,1.3,0.6,1.3,0.9c0,0.2,0,0.6-0.1,0.9l-2.4,6.7l-4.1-6.6c-0.2-0.4-0.4-0.7-0.4-0.9
						c0-0.1,0-0.1,0-0.1c0-0.1,0.2-0.4,0.9-0.5h0.1v-0.1l0.1-0.2v-0.1l-0.1-0.1l-0.2-0.2l-0.1-0.1h-0.1l-2.4,0.4l-2.4,0.2h-0.1v0.1
						l-0.1,0.2v0.1l0.1,0.1l0.2,0.2l0.1,0.1h0.1c0.6,0,1.2,0.5,1.6,1.3l5.8,9.4l0,0l0,0c0.1,0.1,0.2,0.1,0.4,0.1
						c0.2,0,0.4-0.1,0.5-0.2l0,0v-0.1l3.4-9.8c0.5-1.2,0.9-2,1.6-2.5h0.1v-0.1l0.1-0.2v-0.1l-0.1,0.1L191.3,276.5L191.3,276.5
						L191.3,276.5z"/>
				</g>
				<g>
					<path style="fill:#FFFFFF;" d="M205.5,282.7c-0.2,1.3-0.8,2.4-1.8,3.3c-0.9,0.9-2.1,1.4-3.4,1.6c-1.6,0.2-3.2-0.1-4.5-1.2
						c-1.3-1.1-2-2.4-2.4-4.1c-0.2-1.8,0-3.3,1.1-4.7s2.4-2.2,4.1-2.5c1.2-0.2,2.5,0,3.6,0.7c1.3,0.6,2,1.5,2.4,2.7
						c0,0.2-0.4,0.5-1.3,0.6l-8.1,1.3c0,0.2,0,0.7,0.1,1.2v0.2c0.2,1.5,0.8,2.8,1.8,3.6c1.1,0.9,2.4,1.3,3.9,1.1
						c0.9-0.1,1.8-0.6,2.5-1.3c0.7-0.7,1.2-1.5,1.3-2.5c0.1,0,0.1-0.1,0.2-0.1C205.4,282.6,205.5,282.6,205.5,282.7z M195.5,279.8
						l7.1-1.2c-0.2-1.1-0.7-1.8-1.4-2.2c-0.7-0.5-1.5-0.7-2.6-0.6C196.7,276.2,195.7,277.4,195.5,279.8z"/>
					<path style="fill:#FFFFFF;" d="M199.6,275.2c0.9,0,1.9,0.2,2.8,0.7c1.3,0.6,2,1.5,2.4,2.7c0,0.2-0.4,0.5-1.3,0.6l-8.1,1.3
						c0,0.2,0,0.7,0.1,1.2v0.2c0.2,1.5,0.8,2.8,1.8,3.6c0.8,0.7,1.8,1.1,2.9,1.1c0.4,0,0.6,0,0.9-0.1c0.9-0.1,1.8-0.6,2.5-1.3
						c0.7-0.7,1.2-1.5,1.3-2.5c0.1,0,0.1-0.1,0.2-0.1l0,0c0.1,0,0.1,0,0.2,0.1c-0.2,1.3-0.8,2.4-1.8,3.3c-0.9,0.9-2.1,1.4-3.4,1.6
						c-0.4,0-0.7,0.1-1.1,0.1c-1.3,0-2.5-0.5-3.4-1.3c-1.3-1.1-2-2.4-2.4-4.1c-0.2-1.8,0-3.3,1.1-4.7c0.9-1.4,2.4-2.2,4.1-2.5
						C199.1,275.2,199.4,275.2,199.6,275.2 M195.5,279.8l7.1-1.2c-0.2-1.1-0.7-1.8-1.4-2.2c-0.5-0.4-1.2-0.6-1.9-0.6
						c-0.2,0-0.5,0-0.7,0.1C196.7,276.2,195.7,277.4,195.5,279.8 M199.6,275c-0.4,0-0.6,0-0.9,0.1c-1.8,0.4-3.3,1.2-4.2,2.6
						c-0.9,1.4-1.4,3.1-1.1,4.8c0.2,1.8,1.1,3.2,2.4,4.2c1.1,0.8,2.2,1.3,3.5,1.3c0.4,0,0.7,0,1.1-0.1c1.3-0.2,2.5-0.8,3.5-1.8
						c0.9-0.9,1.6-2.1,1.9-3.4v-0.1l-0.1-0.1c-0.1-0.1-0.2-0.1-0.4-0.1l0,0c-0.1,0-0.2,0-0.4,0.1h-0.1v0.1c-0.1,0.8-0.6,1.6-1.3,2.4
						c-0.7,0.7-1.5,1.1-2.4,1.3c-0.4,0-0.6,0.1-0.9,0.1c-1.1,0-2-0.4-2.7-1.1c-0.9-0.8-1.5-2-1.8-3.5v-0.2c0-0.4-0.1-0.6-0.1-0.9
						l7.9-1.3c0.8-0.1,1.2-0.2,1.3-0.5c0.1-0.1,0.1-0.2,0.1-0.4c-0.4-1.3-1.2-2.2-2.5-2.8C201.6,275.2,200.6,275,199.6,275
						L199.6,275z M195.8,279.6c0.2-2,1.2-3.2,2.8-3.4c0.2,0,0.5,0,0.7,0c0.7,0,1.2,0.2,1.6,0.6c0.6,0.5,1.1,1.1,1.3,1.9L195.8,279.6
						L195.8,279.6z"/>
				</g>
				<g>
					<path style="fill:#FFFFFF;" d="M211.8,281.9c0.2,0.8,0.5,1.5,0.8,1.8c0.4,0.5,1.1,0.6,1.9,0.5h0.1l0.2,0.1l-0.1,0.2l-5.5,1.2
						l-0.1-0.1v-0.2c0.7-0.2,1.1-0.7,1.2-1.3c0.1-0.4,0-1.1-0.1-1.8l-1.2-5.6c-0.2-1.1-0.7-1.6-1.3-1.6h-0.5l-0.1-0.2v-0.1l2.7-1.6
						h0.2l0.7,3.3c0.6-2.4,1.6-3.8,2.9-4l1.3,0.1l-0.2,2.1l-0.7-0.1c-0.2-0.1-0.5-0.2-0.7-0.1c-0.2,0-0.5,0-0.6,0
						c-0.6,0.1-0.9,0.6-1.2,1.3c-0.2,0.9-0.4,2-0.2,3.2L211.8,281.9z"/>
					<path style="fill:#FFFFFF;" d="M213.5,272.4l1.3,0.1l-0.2,2.1l-0.7-0.1c-0.2-0.1-0.4-0.1-0.6-0.1h-0.1c-0.1,0-0.1,0-0.2,0
						c-0.1,0-0.2,0-0.4,0c-0.6,0.1-0.9,0.6-1.2,1.3c-0.2,0.9-0.4,2-0.2,3.2l0.7,3.2c0.2,0.8,0.5,1.5,0.8,1.8
						c0.4,0.4,0.8,0.6,1.4,0.6c0.1,0,0.2,0,0.5,0h0.1l0.2,0.1l-0.1,0.2l-5.5,1.2l-0.1-0.1v-0.2c0.7-0.2,1.1-0.7,1.2-1.3
						c0.1-0.4,0-1.1-0.1-1.8l-1.2-5.6c-0.2-1.1-0.7-1.6-1.3-1.6l0,0h-0.5l-0.1-0.2v-0.1l2.7-1.6h0.2l0.7,3.3
						C211.2,274,212.1,272.6,213.5,272.4 M213.4,272.2L213.4,272.2c-1.3,0.2-2.2,1.4-2.9,3.3l-0.5-2.4v-0.2h-0.2h-0.2l0,0l0,0
						l-2.7,1.6h-0.1v0.1v0.1v0.1l0.1,0.1l0.1,0.2l0.1,0.1h0.1h0.5l0,0c0.2,0,0.8,0,1.1,1.4l1.2,5.6c0.1,0.8,0.2,1.4,0.1,1.8
						c-0.1,0.5-0.5,0.8-1.1,1.1h-0.1v0.1v0.2v0.1l0.1,0.1l0.1,0.1l0.1,0.1h0.1l5.5-1.2h0.1v-0.1l0.1-0.2l0.1-0.1l-0.1-0.1l-0.2-0.1
						l-0.1-0.1h-0.1h-0.1c-0.1,0-0.2,0-0.4,0c-0.6,0-0.9-0.1-1.3-0.5c-0.4-0.4-0.6-0.8-0.7-1.6l-0.7-3.2c-0.1-1.1,0-2.1,0.2-3.1
						c0.1-0.6,0.5-0.9,0.9-1.1c0.1,0,0.2,0,0.4,0s0.1,0,0.2,0l0,0l0,0h0.1c0.1,0,0.2,0,0.5,0.1l0,0l0,0l0.7,0.1h0.2v-0.2l0.2-2.1
						v-0.2h-0.2L213.4,272.2L213.4,272.2L213.4,272.2z"/>
				</g>
				<g>
					<path style="fill:#FFFFFF;" d="M227.7,277.7c0.4,1.2,0.1,2.2-0.7,3.2c-0.7,0.8-1.6,1.4-2.9,1.8c-1.3,0.4-2.7,0.5-4,0.2
						c-0.1,0-0.2,0.1-0.2,0.2h-0.2l-0.6-2.6c0-0.1,0.1-0.1,0.1-0.1c0.1,0,0.2,0,0.4,0.1c0.5,0.7,1.1,1.3,1.9,1.5
						c0.8,0.2,1.6,0.2,2.5,0c0.8-0.2,1.4-0.6,1.9-1.1c0.6-0.6,0.7-1.3,0.5-2c-0.2-0.7-0.7-1.2-1.5-1.5c-0.6-0.2-1.4-0.4-2.2-0.2
						c-2.7,0.2-4.3-0.6-4.8-2.4c-0.4-1.2,0-2.1,0.8-2.9c0.7-0.7,1.6-1.2,2.8-1.5c1.3-0.4,2.5-0.5,3.5-0.2l0.4,2.4
						c0,0-0.1,0.1-0.2,0.1c-0.1,0-0.1,0-0.2,0c-0.4-0.7-0.8-1.2-1.6-1.4c-0.7-0.2-1.4-0.2-2.1,0c-0.7,0.2-1.2,0.5-1.5,0.9
						c-0.5,0.5-0.6,1.1-0.4,1.6c0.4,1.3,1.6,1.9,3.9,1.8c1.2,0,2.1,0,2.8,0.2C226.8,276,227.5,276.7,227.7,277.7z"/>
					<path style="fill:#FFFFFF;" d="M223.6,270c0.5,0,0.8,0,1.3,0.1l0.4,2.4c0,0-0.1,0.1-0.2,0.1l0,0c-0.1,0-0.1,0-0.2,0
						c-0.4-0.7-0.8-1.2-1.6-1.4c-0.4-0.1-0.7-0.2-1.1-0.2c-0.4,0-0.7,0-1.1,0.1c-0.7,0.2-1.2,0.5-1.5,0.9c-0.5,0.5-0.6,1.1-0.4,1.6
						c0.4,1.2,1.4,1.8,3.3,1.8c0.1,0,0.4,0,0.6,0s0.5,0,0.6,0c0.9,0,1.6,0.1,2.2,0.4c0.9,0.4,1.5,1.1,1.9,2c0.4,1.2,0.1,2.2-0.7,3.2
						c-0.7,0.8-1.6,1.4-2.9,1.8c-0.8,0.2-1.6,0.4-2.5,0.4c-0.5,0-0.9,0-1.5-0.1c-0.1,0-0.2,0.1-0.2,0.2h-0.2l-0.6-2.6
						c0-0.1,0.1-0.1,0.1-0.1s0,0,0.1,0s0.1,0,0.2,0.1c0.5,0.7,1.1,1.3,1.9,1.5c0.5,0.1,0.8,0.2,1.3,0.2c0.4,0,0.8,0,1.2-0.1
						c0.8-0.2,1.4-0.6,1.9-1.1c0.6-0.6,0.7-1.3,0.5-2c-0.2-0.7-0.7-1.2-1.5-1.5c-0.5-0.2-1.1-0.2-1.6-0.2c-0.1,0-0.4,0-0.5,0
						c-0.4,0-0.6,0-0.9,0c-2.2,0-3.5-0.8-3.9-2.4c-0.4-1.2,0-2.1,0.8-2.9c0.7-0.7,1.6-1.2,2.8-1.5C222.2,270.2,222.9,270,223.6,270
						 M223.6,269.8c-0.7,0-1.5,0.1-2.4,0.4c-1.3,0.4-2.2,0.9-2.9,1.6c-0.9,0.9-1.2,2-0.8,3.2c0.5,1.6,1.9,2.5,4.1,2.5
						c0.2,0,0.6,0,0.9,0c0.1,0,0.4,0,0.5,0c0.6,0,1.2,0.1,1.6,0.2c0.7,0.2,1.2,0.7,1.4,1.4c0.2,0.7,0,1.3-0.5,1.8
						c-0.5,0.5-1.1,0.8-1.8,1.1c-0.4,0.1-0.8,0.1-1.2,0.1c-0.5,0-0.8-0.1-1.2-0.2c-0.8-0.2-1.4-0.7-1.8-1.4l0,0l0,0
						c-0.1-0.1-0.2-0.1-0.4-0.1h-0.1c-0.2,0-0.4,0.2-0.4,0.4v0.1v0.1l0.6,2.6v0.2l0.2-0.1h0.2h0.1v-0.1l0,0c0.5,0.1,0.9,0.1,1.4,0.1
						c0.8,0,1.8-0.1,2.6-0.4c1.3-0.4,2.4-0.9,3.1-1.9c0.8-1.1,1.2-2.1,0.8-3.4c-0.2-1.1-0.9-1.8-2-2.1c-0.6-0.2-1.4-0.4-2.4-0.4
						c-0.2,0-0.5,0-0.7,0c-0.2,0-0.4,0-0.5,0c-1.8,0-2.8-0.5-3.1-1.5c-0.1-0.6,0-1.1,0.4-1.5c0.4-0.4,0.8-0.7,1.4-0.8
						c0.4-0.1,0.7-0.1,0.9-0.1c0.4,0,0.7,0.1,1.1,0.2c0.7,0.2,1.2,0.7,1.4,1.3v0.1h0.1c0.1,0,0.2,0.1,0.4,0.1l0,0l0,0
						c0.1,0,0.2-0.1,0.2-0.1l0.1-0.1v-0.1l-0.4-2.4v-0.1h-0.1C224.6,269.8,224.1,269.8,223.6,269.8L223.6,269.8z"/>
				</g>
			</g>
			<g>
				<g>
					<path style="fill:#FFFFFF;" d="M81.5,251.3l-1.1,4.4c-0.2,0.9-0.2,1.6-0.1,2.1c0.2,0.6,0.7,0.9,1.5,1.3v0.2l-0.2,0.1l-6.2-1.5
						l-0.1-0.2l0.1-0.1c0.8,0.1,1.5,0,1.9-0.5c0.4-0.4,0.6-0.9,0.8-1.9l2.5-9.8c0.2-0.9,0.2-1.5,0.1-2c-0.1-0.6-0.6-1.1-1.4-1.3
						v-0.2l0.2-0.1l2.9,0.6l4.3,1.1c1.9,0.5,3.3,1.1,4.5,1.9c1.5,1.2,2.1,2.6,1.8,4.1c-0.6,2.2-2.5,3.3-5.6,2.9
						c0.9,0.6,1.8,1.4,2.2,2.2c0.4,0.6,0.7,1.4,1.1,2.6c0.4,1.2,0.7,2.1,1.1,2.6c0.7,1.3,1.6,2.1,2.7,2.5c0,0.1,0,0.1,0,0.1
						s-0.2,0-0.7,0c-0.5,0-1.1-0.2-1.6-0.5c-0.6-0.2-1.2-0.6-1.8-0.9c-0.7-0.5-1.2-1.2-1.6-2c-0.1-0.6-0.4-1.5-0.7-2.8
						c-0.6-2-1.6-3.4-3.4-4.1L81.5,251.3z M81.8,250.9l3.2,0.8c3.2,0.8,5.2,0,5.8-2.7c0.6-2.6-0.6-4.2-3.6-4.9l-3.4-0.8L81.8,250.9z
						"/>
					<path style="fill:#FFFFFF;" d="M79.8,241.7l2.9,0.6l4.3,1.1c1.9,0.5,3.3,1.1,4.5,1.9c1.5,1.2,2.1,2.6,1.8,4.1
						c-0.5,2-2.1,3.1-4.7,3.1c-0.4,0-0.6,0-0.9,0c0.9,0.6,1.8,1.4,2.2,2.2c0.4,0.6,0.7,1.4,1.1,2.6c0.4,1.2,0.7,2.1,1.1,2.6
						c0.7,1.3,1.6,2.1,2.7,2.5c0,0.1,0,0.1,0,0.1s-0.1,0-0.2,0s-0.4,0-0.5,0c-0.5,0-1.1-0.2-1.6-0.5c-0.6-0.2-1.2-0.6-1.8-0.9
						c-0.7-0.5-1.2-1.2-1.6-2c-0.1-0.6-0.4-1.5-0.7-2.8c-0.6-2-1.6-3.4-3.4-4.1l-3.2-0.8l-1.1,4.4c-0.2,0.9-0.2,1.6-0.1,2.1
						c0.2,0.6,0.7,0.9,1.5,1.3v0.2l-0.2,0.1l-6.2-1.5l-0.1-0.2l0.1-0.1c0.2,0,0.4,0,0.5,0c0.6,0,1.1-0.1,1.4-0.5
						c0.4-0.4,0.6-0.9,0.8-1.9l2.5-9.8c0.2-0.9,0.2-1.5,0.1-2c-0.1-0.6-0.6-1.1-1.4-1.3v-0.2L79.8,241.7 M86.9,252
						c2,0,3.2-1.1,3.6-3.1c0.6-2.6-0.6-4.2-3.6-4.9l-3.4-0.8l-1.9,7.6l3.2,0.8C85.7,251.9,86.4,252,86.9,252 M79.8,241.5L79.8,241.5
						l-0.2,0.2l-0.1,0.1v0.1v0.2v0.1h0.1c0.7,0.4,1.1,0.7,1.3,1.2c0.1,0.4,0,1.1-0.1,1.9l-2.5,9.8c-0.2,0.8-0.5,1.4-0.8,1.8
						c-0.2,0.2-0.7,0.4-1.3,0.4c-0.1,0-0.4,0-0.5,0h-0.1l-0.1,0.1l-0.1,0.1l-0.1,0.1l0.1,0.1l0.1,0.2v0.1h0.1l6.2,1.5h0.1l0.1-0.1
						l0.2-0.1l0.1-0.1v-0.1v-0.2v-0.1h-0.1c-0.8-0.2-1.3-0.7-1.4-1.2c-0.1-0.4-0.1-1.1,0.1-1.9l1.1-4.1l2.9,0.8
						c1.5,0.6,2.7,2,3.2,3.9c0.4,1.3,0.6,2.1,0.7,2.8c0.5,0.9,0.9,1.6,1.8,2.1c0.6,0.4,1.2,0.7,1.8,1.1c0.6,0.2,1.2,0.5,1.8,0.5
						c0.2,0,0.5,0,0.6,0s0.4,0,0.5-0.2c0-0.1,0-0.2,0-0.4V262h-0.1c-1.1-0.4-1.9-1.2-2.6-2.4c-0.2-0.5-0.6-1.4-1.1-2.6
						c-0.4-1.2-0.7-2-1.1-2.6c-0.4-0.7-0.9-1.3-1.6-1.8h0.1c2.7,0,4.5-1.1,4.9-3.2c0.5-1.8-0.2-3.2-1.9-4.4c-1.2-0.8-2.7-1.5-4.6-2
						l-4.3-1.1L79.8,241.5L79.8,241.5L79.8,241.5z M82,250.6l1.8-7.2l3.2,0.8c1.6,0.4,2.7,1.1,3.2,2c0.5,0.7,0.5,1.6,0.2,2.7
						c-0.5,1.9-1.6,2.8-3.5,2.8c-0.6,0-1.3-0.1-2-0.4L82,250.6L82,250.6z"/>
				</g>
				<g>
					<path style="fill:#FFFFFF;" d="M110.3,259.1c-0.4,1.8-1.2,3.2-2.6,4.1c-1.4,0.9-3.1,1.3-4.9,0.9c-1.8-0.4-3.3-1.2-4.3-2.5
						c-1.1-1.4-1.5-2.9-1.2-4.8c0.4-1.8,1.2-3.2,2.7-4.1c1.4-0.9,3.1-1.3,4.8-0.9c1.8,0.4,3.3,1.2,4.3,2.5
						C110.2,255.7,110.7,257.3,110.3,259.1z M108.2,258.7c0.2-1.5,0-2.8-0.5-4c-0.6-1.3-1.6-2.1-3.1-2.4c-1.4-0.2-2.6,0.2-3.5,1.3
						c-0.8,0.9-1.3,2.1-1.5,3.6c-0.2,1.5,0,2.8,0.5,4c0.6,1.3,1.6,2.1,3.1,2.4c1.4,0.2,2.6-0.2,3.5-1.3
						C107.4,261.4,108,260.3,108.2,258.7z"/>
					<path style="fill:#FFFFFF;" d="M103.5,251.7c0.5,0,0.8,0,1.3,0.1c1.8,0.4,3.3,1.2,4.3,2.5c1.1,1.4,1.4,2.9,1.2,4.7
						c-0.4,1.8-1.2,3.2-2.6,4.1c-1.1,0.7-2.4,1.1-3.6,1.1c-0.5,0-0.8,0-1.3-0.1c-1.8-0.4-3.3-1.2-4.3-2.5c-1.1-1.4-1.5-2.9-1.2-4.8
						c0.4-1.8,1.2-3.2,2.7-4.1C101,252,102.2,251.7,103.5,251.7 M103.9,263.7c1.1,0,2-0.5,2.8-1.3c0.8-0.9,1.3-2.1,1.5-3.6
						c0.2-1.5,0-2.8-0.5-4c-0.6-1.3-1.6-2.1-3.1-2.4c-0.2,0-0.5-0.1-0.7-0.1c-1.1,0-2,0.5-2.8,1.3c-0.8,0.9-1.3,2.1-1.5,3.6
						c-0.2,1.5,0,2.8,0.5,4c0.6,1.3,1.6,2.1,3.1,2.4C103.4,263.7,103.6,263.7,103.9,263.7 M103.5,251.4c-1.3,0-2.6,0.4-3.8,1.2
						c-1.5,0.9-2.5,2.5-2.8,4.2c-0.4,1.9,0.1,3.5,1.3,4.9c1.1,1.4,2.6,2.2,4.5,2.6c0.5,0.1,0.9,0.1,1.3,0.1c1.3,0,2.6-0.4,3.8-1.1
						c1.5-0.9,2.5-2.5,2.7-4.2c0.4-1.9-0.1-3.5-1.2-4.9s-2.6-2.4-4.5-2.6C104.5,251.6,104,251.4,103.5,251.4L103.5,251.4z
						 M103.9,263.4c-0.2,0-0.5,0-0.7-0.1c-1.4-0.2-2.4-0.9-2.9-2.2c-0.6-1.2-0.7-2.5-0.5-3.9c0.2-1.5,0.7-2.7,1.5-3.5
						c0.7-0.8,1.5-1.3,2.6-1.3c0.2,0,0.5,0,0.7,0.1c1.4,0.2,2.4,0.9,2.9,2.2c0.6,1.2,0.7,2.5,0.5,3.9c-0.2,1.4-0.7,2.6-1.5,3.5
						C105.7,263.1,104.9,263.4,103.9,263.4L103.9,263.4z"/>
				</g>
				<g>
					<path style="fill:#FFFFFF;" d="M121.8,262.9c-0.1,1.2-0.7,2.1-1.9,2.7c-0.9,0.5-2.1,0.7-3.4,0.6c-1.4-0.1-2.7-0.6-3.8-1.3
						c-0.1,0-0.2,0-0.2,0.1h-0.2l0.5-2.6c0.1-0.1,0.1-0.1,0.2-0.1s0.2,0.1,0.2,0.2c0.1,0.8,0.5,1.5,1.2,2.1c0.6,0.6,1.4,0.8,2.4,0.9
						c0.8,0.1,1.5,0,2.1-0.4c0.7-0.4,1.1-0.9,1.2-1.6c0.1-0.7-0.2-1.4-0.8-2c-0.5-0.5-1.2-0.8-2-1.1c-2.6-0.8-3.9-2.1-3.6-3.9
						c0.1-1.2,0.7-2,1.9-2.5c0.9-0.5,2-0.6,3.2-0.5c1.3,0.1,2.5,0.5,3.4,1.1l-0.6,2.4c-0.1,0-0.1,0-0.2,0s-0.1-0.1-0.1-0.1
						c0-0.8-0.4-1.4-0.9-2c-0.6-0.5-1.2-0.7-2-0.8c-0.7-0.1-1.3,0-1.8,0.4c-0.6,0.4-0.9,0.8-0.9,1.4c-0.1,1.3,0.8,2.4,2.9,3.1
						c1.2,0.4,2,0.8,2.6,1.3C121.6,261,122,261.9,121.8,262.9z"/>
					<path style="fill:#FFFFFF;" d="M117.7,253.7c0.2,0,0.6,0,0.9,0c1.3,0.1,2.5,0.5,3.4,1.1l-0.6,2.4h-0.1l0,0
						c-0.1,0-0.1-0.1-0.1-0.1c0-0.8-0.4-1.4-0.9-2c-0.6-0.5-1.2-0.7-2-0.8c-0.1,0-0.2,0-0.5,0c-0.5,0-0.9,0.1-1.4,0.4
						c-0.6,0.4-0.9,0.8-0.9,1.4c-0.1,1.3,0.8,2.4,2.9,3.1c1.2,0.4,2,0.8,2.6,1.3c0.8,0.7,1.1,1.5,0.9,2.6c-0.1,1.2-0.7,2.1-1.9,2.7
						c-0.8,0.4-1.6,0.6-2.6,0.6c-0.2,0-0.5,0-0.8,0c-1.4-0.1-2.7-0.6-3.8-1.3l0,0c-0.1,0-0.2,0-0.2,0.1h-0.2l0.5-2.6
						c0.1-0.1,0.1-0.1,0.2-0.1l0,0c0.1,0,0.2,0.1,0.2,0.2c0.1,0.8,0.5,1.5,1.2,2.1c0.6,0.6,1.4,0.8,2.4,0.9c0.2,0,0.4,0,0.5,0
						c0.6,0,1.2-0.1,1.6-0.4c0.7-0.4,1.1-0.9,1.2-1.6c0.1-0.7-0.2-1.4-0.8-2c-0.5-0.5-1.2-0.8-2-1.1c-2.6-0.8-3.9-2.1-3.6-3.9
						c0.1-1.2,0.7-2,1.9-2.5C116.1,253.8,116.9,253.7,117.7,253.7 M117.7,253.4c-0.9,0-1.8,0.1-2.5,0.5c-1.2,0.5-1.9,1.4-2,2.7
						c-0.2,1.9,1.1,3.3,3.8,4.1c0.7,0.2,1.4,0.6,1.9,1.1c0.6,0.6,0.8,1.1,0.8,1.8c-0.1,0.7-0.5,1.2-1.1,1.5
						c-0.5,0.2-0.9,0.4-1.5,0.4c-0.1,0-0.4,0-0.5,0c-0.8-0.1-1.5-0.4-2.1-0.9c-0.6-0.6-1.1-1.2-1.1-2l0,0l0,0c0-0.1-0.1-0.2-0.4-0.4
						l0,0l0,0c-0.1,0-0.2,0.1-0.4,0.2l0,0v0.1l-0.5,2.6v0.2h0.2h0.2h0.2l0.1-0.1l0,0c1.2,0.7,2.5,1.1,3.9,1.3c0.2,0,0.6,0,0.8,0
						c0.9,0,1.9-0.2,2.7-0.6c1.2-0.6,1.9-1.5,2-2.8c0.1-1.1-0.2-2-1.1-2.7c-0.6-0.5-1.5-0.9-2.6-1.4c-2-0.7-2.9-1.5-2.8-2.8
						c0.1-0.6,0.4-0.9,0.8-1.3c0.4-0.2,0.8-0.4,1.3-0.4c0.1,0,0.2,0,0.4,0c0.7,0.1,1.4,0.4,1.9,0.8c0.6,0.5,0.8,1.1,0.8,1.8v0.1v0.1
						c0.1,0.1,0.1,0.1,0.2,0.2l0,0h0.1c0.1,0,0.1,0,0.2,0h0.1v-0.1l0.6-2.4V255l-0.1-0.1c-1.1-0.6-2.1-1.1-3.5-1.2
						C118.3,253.4,118.1,253.4,117.7,253.4L117.7,253.4z"/>
				</g>
				<g>
					<path style="fill:#FFFFFF;" d="M142.4,267.4l-9.9-0.2l-0.2-0.2l0.1-0.2c0.9-0.1,1.6-0.4,2-0.7c0.4-0.4,0.6-1.1,0.6-2.1
						l0.2-10.1c0-0.9-0.1-1.6-0.4-2c-0.4-0.5-0.9-0.8-1.8-0.9l-0.1-0.2l0.1-0.2h3.3l4.1,0.1c5.1,0.1,7.6,1.5,7.5,4.2
						c0,0.9-0.5,1.8-1.4,2.4c-0.8,0.5-1.6,0.8-2.7,1.1c3.5,0.7,5.3,2.2,5.2,4.5c0,1.8-0.8,2.9-2.2,3.9
						C145.7,267.2,144.2,267.4,142.4,267.4z M137.4,258.4l-0.1,5.4c0,1.3,0.2,2,0.9,2.5c0.5,0.2,1.3,0.4,2.7,0.4
						c3.6,0.1,5.5-1.2,5.6-3.9c0-1.4-0.6-2.6-1.6-3.3c-0.9-0.6-2.2-0.9-3.8-0.9L137.4,258.4z M137.5,257.8l3.8,0.1
						c2.9,0.1,4.5-0.9,4.5-3.2c0.1-2.4-1.5-3.5-4.8-3.5l-3.3-0.1L137.5,257.8z"/>
					<path style="fill:#FFFFFF;" d="M136.5,250.5l4.1,0.1c5.1,0.1,7.6,1.5,7.5,4.2c0,0.9-0.5,1.8-1.4,2.4c-0.8,0.5-1.6,0.8-2.7,1.1
						c3.5,0.7,5.3,2.2,5.2,4.5c0,1.8-0.8,2.9-2.2,3.9c-1.2,0.6-2.6,0.9-4.2,0.9c-0.1,0-0.2,0-0.4,0l-9.9-0.2l-0.2-0.2l0.1-0.2
						c0.9-0.1,1.6-0.4,2-0.7s0.6-1.1,0.6-2.1l0.2-10.1c0-0.9-0.1-1.6-0.4-2c-0.4-0.5-0.9-0.8-1.8-0.9l-0.1-0.2l0.1-0.2L136.5,250.5
						 M141.5,257.9c2.7,0,4.1-1.1,4.2-3.2c0.1-2.4-1.5-3.5-4.8-3.5l-3.3-0.1l-0.1,6.7l3.8,0.1C141.4,257.9,141.4,257.9,141.5,257.9
						 M141.4,266.7c3.4,0,5.2-1.3,5.2-3.9c0-1.4-0.6-2.6-1.6-3.3c-0.9-0.6-2.2-0.9-3.8-0.9l-3.6-0.1l-0.1,5.4c0,1.3,0.2,2,0.9,2.5
						c0.5,0.2,1.3,0.4,2.7,0.4C141.1,266.7,141.2,266.7,141.4,266.7 M136.5,250.3L136.5,250.3h-3.3h-0.1l-0.1,0.1l-0.1,0.2l-0.1,0.1
						l0.1,0.1l0.1,0.2v0.1h0.1c0.8,0.1,1.3,0.4,1.6,0.8c0.2,0.4,0.4,1.1,0.4,1.9l-0.2,10.1c0,0.9-0.2,1.5-0.6,1.9
						c-0.4,0.4-0.9,0.6-1.9,0.7h-0.1l-0.1,0.1l-0.1,0.2l-0.1,0.1l0.1,0.1l0.2,0.2l0.1,0.1h0.1l9.9,0.2c0.1,0,0.2,0,0.4,0
						c1.8,0,3.2-0.4,4.3-0.9c1.5-0.8,2.4-2.2,2.4-4c0-2.1-1.4-3.6-4.3-4.5c0.7-0.2,1.3-0.5,1.9-0.8c0.9-0.7,1.5-1.5,1.5-2.6
						c0-0.9-0.2-1.9-0.9-2.5c-1.2-1.2-3.4-1.9-6.8-1.9L136.5,250.3L136.5,250.3L136.5,250.3z M137.7,257.6l0.1-6.2l3.1,0.1
						c1.9,0,3.1,0.4,3.9,1.2c0.5,0.5,0.7,1.3,0.7,2.1c0,2-1.3,2.9-4,2.9c-0.1,0-0.2,0-0.2,0L137.7,257.6L137.7,257.6z M141.4,266.5
						c-0.1,0-0.2,0-0.4,0c-1.8,0-2.4-0.2-2.6-0.4c-0.6-0.4-0.8-1.1-0.8-2.2l0.1-5.2l3.4,0.1c1.5,0,2.7,0.4,3.6,0.9
						c1.1,0.7,1.6,1.8,1.6,3.1C146.3,265.3,144.6,266.5,141.4,266.5L141.4,266.5z"/>
				</g>
				<g>
					<path style="fill:#FFFFFF;" d="M163.8,263.6c-0.4,1.3-1.2,2.2-2.2,2.9c-1.1,0.7-2.2,1.2-3.5,1.2c-1.8,0-3.2-0.6-4.2-1.8
						c-1.1-1.2-1.6-2.6-1.6-4.4s0.5-3.3,1.6-4.5c1.2-1.2,2.6-1.9,4.3-1.9c1.2,0,2.4,0.4,3.5,1.2c1.2,0.8,1.8,1.8,2,2.9
						c0,0.2-0.5,0.4-1.3,0.4l-8.2,0.2c0,0.2,0,0.7,0,1.2v0.2c0,1.6,0.5,2.8,1.3,3.9c0.9,1.1,2.1,1.5,3.6,1.5c0.9,0,1.9-0.4,2.7-0.9
						c0.8-0.6,1.4-1.4,1.6-2.2c0.1,0,0.1,0,0.2,0C163.7,263.4,163.8,263.4,163.8,263.6z M154.3,259.2l7.1-0.1
						c-0.1-1.1-0.5-1.9-1.1-2.5c-0.6-0.6-1.4-0.9-2.5-0.8C155.9,255.8,154.8,257,154.3,259.2z"/>
					<path style="fill:#FFFFFF;" d="M158.3,255.2c1.2,0,2.4,0.4,3.4,1.2c1.2,0.8,1.8,1.8,2,2.9c0,0.2-0.5,0.4-1.3,0.4l-8.2,0.2
						c0,0.2,0,0.7,0,1.2v0.2c0,1.6,0.5,2.8,1.3,3.9c0.8,1.1,2,1.5,3.5,1.5h0.1c0.9,0,1.9-0.4,2.7-0.9c0.8-0.6,1.4-1.4,1.6-2.2
						c0.1,0,0.1,0,0.1,0s0,0,0.1,0s0.1,0,0.2,0.1c-0.4,1.3-1.2,2.2-2.2,2.9c-1.1,0.7-2.2,1.2-3.5,1.2H158c-1.6,0-3.1-0.6-4.1-1.8
						s-1.6-2.6-1.6-4.4c0-1.8,0.5-3.3,1.6-4.5s2.6-1.9,4.3-1.9C158.2,255.2,158.3,255.2,158.3,255.2 M154.3,259.2l7.1-0.1
						c-0.1-1.1-0.5-1.9-1.1-2.5c-0.6-0.6-1.4-0.8-2.4-0.8h-0.1C155.9,255.8,154.8,257,154.3,259.2 M158.3,255h-0.1
						c-1.9,0-3.4,0.7-4.6,2c-1.2,1.3-1.8,2.8-1.8,4.7c0,1.8,0.6,3.3,1.8,4.6c1.2,1.2,2.6,1.9,4.2,1.9h0.1c1.4,0,2.6-0.5,3.6-1.2
						c1.1-0.8,1.9-1.9,2.2-3.1v-0.1l-0.1-0.1c-0.1-0.1-0.2-0.2-0.4-0.2h-0.1c-0.1,0-0.1,0-0.2,0h-0.1v0.1c-0.2,0.8-0.8,1.5-1.6,2.1
						c-0.8,0.6-1.6,0.8-2.6,0.9h-0.1c-1.4,0-2.5-0.5-3.3-1.4s-1.2-2.2-1.2-3.8v-0.2c0-0.4,0-0.7,0-0.9l8-0.2c0.8,0,1.2-0.1,1.4-0.4
						c0.1-0.1,0.1-0.2,0.1-0.4c-0.2-1.3-0.9-2.4-2.1-3.2C160.7,255.3,159.5,255,158.3,255L158.3,255z M154.5,259
						c0.5-2,1.5-2.9,3.3-3.1h0.1c0.9,0,1.6,0.2,2.1,0.8c0.5,0.5,0.8,1.2,0.9,2.1L154.5,259L154.5,259z"/>
				</g>
				<g>
					<path style="fill:#FFFFFF;" d="M169.6,263.8c0,0.8,0.1,1.4,0.4,1.8c0.2,0.6,0.7,0.9,1.4,0.9l0.1,0.2l-0.1,0.2l-5.2,0.2L166,267
						l0.1-0.2c0.7-0.1,1.2-0.5,1.4-1.1c0.1-0.4,0.2-1.1,0.1-1.9l-0.4-5.6c0-0.6-0.1-0.9-0.2-1.2c-0.1-0.4-0.5-0.6-0.9-0.6h-0.5
						l-0.1-0.2l0.1-0.1l3.2-1.2h0.2L169.6,263.8z M166.6,250.9c0-0.4,0.1-0.6,0.4-0.8c0.2-0.2,0.5-0.4,0.8-0.4
						c0.4,0,0.6,0.1,0.8,0.2c0.2,0.2,0.4,0.5,0.4,0.8c0,0.4-0.1,0.6-0.4,0.8s-0.5,0.4-0.8,0.4c-0.4,0-0.6-0.1-0.8-0.2
						C166.9,251.4,166.6,251.2,166.6,250.9z"/>
					<path style="fill:#FFFFFF;" d="M167.8,249.7c0.2,0,0.6,0.1,0.8,0.2c0.2,0.2,0.4,0.5,0.4,0.8c0,0.4-0.1,0.6-0.4,0.8
						s-0.5,0.4-0.8,0.4c0,0,0,0-0.1,0c-0.2,0-0.6-0.1-0.8-0.2c-0.2-0.2-0.4-0.5-0.4-0.8c0-0.4,0.1-0.6,0.4-0.8
						C167.2,249.8,167.4,249.7,167.8,249.7L167.8,249.7 M169.1,254.9l0.5,8.9c0,0.8,0.1,1.4,0.4,1.8c0.2,0.6,0.7,0.9,1.4,0.9
						l0.1,0.2l-0.1,0.2l-5.2,0.2L166,267l0.1-0.2c0.7-0.1,1.2-0.5,1.4-1.1c0.1-0.4,0.2-1.1,0.1-1.9l-0.4-5.6c0-0.6-0.1-0.9-0.2-1.2
						c-0.1-0.4-0.5-0.6-0.9-0.6h-0.5l-0.1-0.2l0.1-0.1l3.2-1.2H169.1 M167.8,249.4L167.8,249.4c-0.5,0-0.8,0.1-1.1,0.5
						c-0.2,0.2-0.4,0.6-0.4,0.9c0,0.4,0.2,0.7,0.5,0.9s0.6,0.4,0.9,0.4h0.1c0.4,0,0.7-0.1,0.9-0.5c0.2-0.2,0.4-0.6,0.4-0.9
						c0-0.4-0.2-0.7-0.5-0.9C168.5,249.6,168.2,249.4,167.8,249.4L167.8,249.4z M169.3,254.6h-0.2h-0.2l0,0l0,0l-3.2,1.2h-0.1v0.1
						l-0.1,0.1l-0.1,0.1v0.1l0.1,0.2v0.1h0.1h0.5c0.4,0,0.6,0.2,0.8,0.5c0.1,0.1,0.1,0.5,0.1,1.1l0.4,5.6c0,0.8,0,1.4-0.1,1.8
						c-0.2,0.5-0.6,0.8-1.2,0.9h-0.1v0.1l-0.1,0.2l-0.1,0.1l0.1,0.1l0.1,0.2l0.1,0.1h0.1l5.2-0.2h0.1l0.1-0.1l0.1-0.2l0.1-0.1
						l-0.1-0.1l-0.1-0.2l-0.1-0.1h-0.1c-0.6-0.1-0.9-0.4-1.2-0.8c-0.1-0.4-0.2-0.9-0.4-1.6l-0.5-8.9V254.6L169.3,254.6z"/>
				</g>
				<g>
					<path style="fill:#FFFFFF;" d="M181.5,264c-0.9,1.6-2.2,2.6-3.9,2.7c-1.1,0.1-2,0-2.7-0.5c-0.9-0.5-1.4-1.2-1.4-2.2
						c-0.1-2,1.4-3.3,4.7-3.9c0.8-0.1,1.8-0.5,2.7-0.9l-0.1-1.4c-0.2-2.1-1.3-3.2-3.2-2.9c-0.8,0.1-1.4,0.4-2,0.8
						c-0.7,0.5-0.9,1.2-0.9,1.9c-0.2-0.1-0.6-0.2-0.8-0.4c-0.4-0.1-0.6-0.4-0.6-0.5c0.1-0.6,0.7-1.1,2-1.8c1.1-0.6,2-0.8,2.6-0.9
						c1.4-0.1,2.5,0.1,3.3,0.6c0.9,0.6,1.5,1.5,1.6,2.8l0.5,5.4c0.1,1.4,0.5,2.1,1.1,2.1c0.2,0,0.5-0.1,0.7-0.4l0.1,0.2
						c-1.2,0.6-1.9,0.9-2.4,1.1C182.1,266.2,181.8,265.6,181.5,264L181.5,264z M181.2,262.2l-0.2-2.2c-0.1,0.1-0.8,0.4-2.1,0.7
						c-2.5,0.5-3.6,1.4-3.4,3.2c0.1,0.7,0.4,1.3,0.9,1.6s1.2,0.6,1.9,0.5c0.9-0.1,1.6-0.5,2.2-1.3
						C181.1,263.9,181.3,263.1,181.2,262.2z"/>
					<path style="fill:#FFFFFF;" d="M178.6,254.2c1.1,0,1.9,0.2,2.6,0.7c0.9,0.6,1.5,1.5,1.6,2.8l0.5,5.4c0.1,1.4,0.5,2.1,0.9,2.1
						l0,0c0.2,0,0.5-0.1,0.7-0.4l0.1,0.2c-1.2,0.6-1.9,0.9-2.4,1.1c0,0,0,0-0.1,0c-0.6,0-0.9-0.7-1.2-2V264
						c-0.9,1.6-2.2,2.6-3.9,2.7c-0.2,0-0.4,0-0.6,0c-0.8,0-1.5-0.1-2.1-0.5c-0.9-0.5-1.4-1.2-1.4-2.2c-0.1-2,1.4-3.3,4.7-3.9
						c0.8-0.1,1.8-0.5,2.7-0.9l-0.1-1.4c-0.1-2-1.1-3.1-2.8-3.1c-0.1,0-0.2,0-0.4,0c-0.8,0.1-1.4,0.4-2,0.8
						c-0.7,0.5-0.9,1.2-0.9,1.9c-0.2-0.1-0.6-0.2-0.8-0.4c-0.4-0.1-0.6-0.4-0.6-0.5c0.1-0.6,0.7-1.1,2-1.8c1.1-0.6,2-0.8,2.6-0.9
						C178.1,254.2,178.4,254.2,178.6,254.2 M178,265.9c0.1,0,0.2,0,0.4,0c0.9-0.1,1.6-0.5,2.2-1.3c0.6-0.7,0.8-1.6,0.7-2.5l-0.2-2.2
						c-0.1,0.1-0.8,0.4-2.1,0.7c-2.5,0.5-3.6,1.4-3.4,3.2c0.1,0.7,0.4,1.3,0.9,1.6C176.8,265.8,177.4,265.9,178,265.9 M178.6,253.9
						c-0.2,0-0.5,0-0.7,0c-0.7,0-1.5,0.4-2.7,0.9c-1.3,0.7-2,1.3-2.1,1.9v0.1v0.1c0.1,0.2,0.4,0.5,0.8,0.6c0.2,0.1,0.5,0.2,0.8,0.4
						l0.4,0.1v-0.4c0-0.7,0.2-1.2,0.8-1.6c0.6-0.5,1.2-0.7,1.9-0.7c0.1,0,0.2,0,0.4,0c1.5,0,2.4,0.9,2.6,2.8l0.1,1.3
						c-0.9,0.4-1.8,0.7-2.6,0.8c-3.4,0.6-5.2,2-4.9,4.1c0.1,1.1,0.6,1.9,1.5,2.4c0.6,0.4,1.4,0.5,2.2,0.5c0.2,0,0.4,0,0.6,0
						c1.5-0.1,2.8-0.9,3.8-2.2c0.2,1.1,0.7,1.6,1.3,1.6c0,0,0,0,0.1,0c0.5,0,1.2-0.4,2.4-1.1l0.2-0.1l-0.1-0.2l-0.1-0.2l-0.1-0.4
						l-0.2,0.2c-0.1,0.1-0.4,0.2-0.6,0.2l0,0c-0.4,0-0.7-0.7-0.8-1.9l-0.5-5.4c-0.1-1.4-0.7-2.4-1.8-3.1
						C180.6,254.2,179.7,253.9,178.6,253.9L178.6,253.9z M178,265.7c-0.6,0-1.1-0.1-1.4-0.5c-0.5-0.4-0.7-0.8-0.8-1.5
						c-0.1-1.5,0.9-2.5,3.3-2.8c1.1-0.4,1.5-0.6,1.9-0.7l0.1,1.9c0.1,0.8-0.1,1.6-0.7,2.4c-0.5,0.7-1.2,1.1-2,1.2
						C178.3,265.7,178.1,265.7,178,265.7L178,265.7z"/>
				</g>
				<g>
					<path style="fill:#FFFFFF;" d="M195.3,262.5c-0.8,1.6-2,2.7-3.8,2.8c-1.1,0.1-2,0-2.7-0.4c-0.9-0.5-1.4-1.2-1.5-2.1
						c-0.2-2,1.3-3.3,4.6-4.1c0.8-0.2,1.6-0.6,2.7-1.1l-0.2-1.4c-0.2-2.1-1.4-3.1-3.3-2.8c-0.8,0.1-1.4,0.4-2,0.8
						c-0.7,0.6-0.9,1.2-0.8,1.9c-0.2-0.1-0.6-0.1-0.8-0.2c-0.4-0.1-0.6-0.2-0.7-0.5c0.1-0.6,0.7-1.2,1.9-1.8
						c1.1-0.6,1.9-0.9,2.6-1.1c1.4-0.2,2.5,0,3.3,0.5c0.9,0.6,1.5,1.5,1.8,2.8l0.7,5.4c0.2,1.4,0.6,2.1,1.2,2c0.2,0,0.5-0.1,0.7-0.4
						l0.1,0.2c-1.1,0.7-1.9,1.1-2.2,1.2C196.1,264.5,195.7,263.9,195.3,262.5L195.3,262.5z M194.9,260.5l-0.4-2.2
						c-0.1,0.1-0.8,0.4-2,0.8c-2.5,0.6-3.5,1.6-3.3,3.3c0.1,0.7,0.5,1.3,0.9,1.6c0.6,0.4,1.2,0.5,1.9,0.4c0.9-0.1,1.6-0.6,2.1-1.4
						C194.8,262.3,195.1,261.4,194.9,260.5z"/>
					<path style="fill:#FFFFFF;" d="M192.2,252.6c0.9,0,1.6,0.2,2.4,0.6c0.9,0.6,1.5,1.5,1.8,2.8l0.7,5.4c0.2,1.4,0.6,2,1.1,2
						c0,0,0,0,0.1,0c0.2,0,0.5-0.1,0.7-0.4l0.1,0.2c-1.1,0.7-1.9,1.1-2.2,1.2h-0.1c-0.5,0-0.9-0.6-1.2-1.9v-0.1
						c-0.8,1.6-2,2.7-3.8,2.8c-0.4,0-0.6,0.1-0.8,0.1c-0.7,0-1.3-0.1-1.9-0.4c-0.9-0.5-1.4-1.2-1.5-2.1c-0.2-2,1.3-3.3,4.6-4.1
						c0.8-0.2,1.6-0.6,2.7-1.1l-0.2-1.4c-0.2-1.9-1.2-2.9-2.7-2.9c-0.2,0-0.4,0-0.6,0c-0.8,0.1-1.4,0.4-2,0.8
						c-0.7,0.6-0.9,1.2-0.8,1.9c-0.2-0.1-0.6-0.1-0.8-0.2c-0.4-0.1-0.6-0.2-0.7-0.5c0.1-0.6,0.7-1.2,1.9-1.8
						c1.1-0.6,1.9-0.9,2.6-1.1C191.5,252.6,191.9,252.6,192.2,252.6 M191.8,264.5c0.1,0,0.2,0,0.5,0c0.9-0.1,1.6-0.6,2.1-1.4
						c0.5-0.8,0.7-1.6,0.6-2.6l-0.4-2.2c-0.1,0.1-0.8,0.4-2,0.8c-2.5,0.6-3.5,1.6-3.3,3.3c0.1,0.7,0.5,1.3,0.9,1.6
						C190.7,264.4,191.2,264.5,191.8,264.5 M192.2,252.4c-0.4,0-0.7,0-1.1,0.1c-0.7,0.1-1.5,0.5-2.7,1.1c-1.3,0.7-1.9,1.4-2,2v0.1
						v0.1c0.1,0.2,0.4,0.5,0.8,0.6c0.2,0.1,0.6,0.2,0.8,0.2l0.4,0.1v-0.4c-0.1-0.7,0.1-1.2,0.7-1.8c0.5-0.5,1.2-0.7,1.9-0.8
						c0.2,0,0.4,0,0.6,0c1.4,0,2.2,0.8,2.5,2.7l0.1,1.3c-0.9,0.5-1.8,0.7-2.5,0.9c-3.4,0.8-5.1,2.2-4.7,4.4c0.1,1.1,0.7,1.9,1.6,2.4
						c0.6,0.2,1.2,0.4,2,0.4c0.2,0,0.6,0,0.9-0.1c1.5-0.2,2.7-1.1,3.6-2.5c0.4,1.1,0.7,1.5,1.3,1.5h0.1c0.5,0,1.2-0.5,2.4-1.2
						l0.1-0.1l-0.1-0.2l-0.1-0.2l-0.1-0.4l-0.2,0.2c-0.1,0.1-0.4,0.2-0.6,0.2l0,0c-0.4,0-0.7-0.7-0.8-1.9l-0.7-5.4
						c-0.2-1.4-0.8-2.4-1.9-2.9C194,252.6,193.2,252.4,192.2,252.4L192.2,252.4z M191.8,264.3c-0.5,0-0.9-0.1-1.3-0.4
						c-0.5-0.4-0.8-0.8-0.8-1.4c-0.2-1.5,0.8-2.5,3.2-3.1c1.1-0.4,1.5-0.6,1.8-0.7l0.2,1.9c0.1,0.8-0.1,1.6-0.6,2.4
						c-0.5,0.7-1.2,1.2-2,1.3C192,264.3,191.9,264.3,191.8,264.3L191.8,264.3z"/>
				</g>
				<g>
					<path style="fill:#FFFFFF;" d="M204.5,259.8c0.1,0.8,0.4,1.5,0.7,1.8c0.4,0.5,0.9,0.6,1.9,0.6h0.1l0.2,0.2l-0.1,0.2l-5.6,1.1
						l-0.1-0.1l0.1-0.2c0.7-0.2,1.1-0.6,1.2-1.2c0.1-0.4,0.1-0.9-0.1-1.9l-1.1-5.6c-0.2-1.1-0.6-1.6-1.3-1.6h-0.5l-0.1-0.2l0.1-0.1
						l2.8-1.5h0.2l0.6,3.3c0.7-2.4,1.8-3.6,3.1-3.9l1.3,0.2l-0.4,2.1l-0.7-0.1c-0.2-0.1-0.5-0.2-0.7-0.2c-0.2,0-0.5,0-0.6,0
						c-0.6,0.1-0.9,0.5-1.2,1.2c-0.2,0.9-0.4,2-0.4,3.2L204.5,259.8z"/>
					<path style="fill:#FFFFFF;" d="M206.5,250.3l1.3,0.2l-0.4,2.1l-0.7-0.1c-0.2-0.1-0.4-0.2-0.6-0.2H206c-0.1,0-0.2,0-0.2,0
						c-0.1,0-0.2,0-0.4,0c-0.6,0.1-0.9,0.5-1.2,1.2c-0.2,0.9-0.4,2-0.4,3.2l0.6,3.2c0.1,0.8,0.4,1.5,0.7,1.8
						c0.4,0.4,0.8,0.6,1.5,0.6c0.1,0,0.2,0,0.2,0h0.1l0.2,0.2l-0.1,0.2l-5.6,1.1l-0.1-0.1l0.1-0.2c0.7-0.2,1.1-0.6,1.2-1.2
						c0.1-0.4,0.1-0.9-0.1-1.9l-1.1-5.6c-0.2-1.1-0.6-1.6-1.3-1.6l0,0h-0.5l-0.1-0.2l0.1-0.1l2.8-1.5h0.2l0.6,3.3
						C204.1,251.8,205.2,250.5,206.5,250.3 M206.5,250L206.5,250c-1.3,0.2-2.4,1.3-3.1,3.2l-0.5-2.4v-0.2h-0.2h-0.2l0,0l0,0
						l-2.8,1.5h-0.1v0.1l-0.1,0.1l-0.1,0.1l0.1,0.1l0.1,0.2l0.1,0.1h0.1h0.5l0,0c0.2,0,0.8,0,1.1,1.4l1.1,5.6
						c0.1,0.8,0.1,1.4,0.1,1.8c-0.1,0.5-0.5,0.8-1.1,1.1h-0.1v0.1l-0.1,0.2v0.1l0.1,0.1l0.1,0.1l0.1,0.1h0.1l5.6-1.1h0.1v-0.1
						l0.1-0.2l0.1-0.1l-0.1-0.1l-0.2-0.2l-0.1-0.1H207h-0.1c-0.1,0-0.1,0-0.2,0c-0.6,0-1.1-0.1-1.4-0.5c-0.2-0.4-0.5-0.8-0.7-1.8
						l-0.6-3.2c-0.1-1.1,0-2.1,0.4-3.1c0.2-0.6,0.5-0.9,1.1-1.1c0.1,0,0.2,0,0.2,0c0.1,0,0.1,0,0.2,0l0,0l0,0c0,0,0,0,0.1,0
						s0.2,0,0.5,0.1l0,0l0,0l0.7,0.1h0.2v-0.2l0.4-2.1v-0.2h-0.2L206.5,250L206.5,250L206.5,250z"/>
				</g>
				<g>
					<path style="fill:#FFFFFF;" d="M221,257.3c-0.9,1.9-2.4,3.1-4,3.5c-1.6,0.4-3.1,0.1-4.3-0.7s-2.1-2.1-2.5-3.8
						c-0.5-1.9-0.2-3.5,0.7-5.1c0.9-1.5,2.4-2.5,4.2-2.9c1.3-0.4,2.6-0.1,4,0.5l-0.9-4.1c-0.1-0.6-0.2-0.9-0.4-1.2
						c-0.2-0.4-0.6-0.5-1.1-0.4h-0.6l-0.1-0.2l0.1-0.1l2.9-1.6h0.2l3.3,14.1c0.4,1.6,0.9,2.5,1.5,2.6l0.7-0.2c0,0.1,0,0.4-0.1,0.5
						l-2.7,1.4L221,257.3z M220.6,255.2l-0.7-3.2c-0.4-1.1-1.1-1.9-1.9-2.5c-0.9-0.6-1.9-0.7-3.1-0.5c-1.3,0.4-2.2,1.2-2.7,2.5
						c-0.4,1.1-0.5,2.4-0.1,3.8c0.4,1.4,0.9,2.5,1.8,3.4c1.1,1.1,2.2,1.4,3.5,1.1c0.9-0.2,1.9-0.8,2.5-1.8
						C220.6,257.1,220.8,256.2,220.6,255.2z"/>
					<path style="fill:#FFFFFF;" d="M219.2,241.2l3.3,14.1c0.4,1.6,0.9,2.5,1.5,2.6l0.7-0.2c0,0.1,0,0.4-0.1,0.5l-2.7,1.4l-0.8-2.2
						c-0.9,1.9-2.4,3.1-4,3.5c-0.5,0.1-0.9,0.1-1.4,0.1c-1.1,0-2-0.4-2.9-0.9c-1.3-0.8-2.1-2.1-2.5-3.8c-0.5-1.9-0.2-3.5,0.7-5.1
						s2.4-2.5,4.2-2.9c0.5-0.1,0.9-0.1,1.3-0.1c0.8,0,1.8,0.2,2.6,0.6l-0.9-4.1c-0.1-0.6-0.2-0.9-0.4-1.2c-0.2-0.2-0.5-0.4-0.9-0.4
						h-0.1h-0.6l-0.1-0.2l0.1-0.1l2.9-1.6L219.2,241.2 M216.6,259.9c0.2,0,0.6,0,0.8-0.1c0.9-0.2,1.9-0.8,2.5-1.8
						c0.7-0.9,0.9-1.9,0.7-2.8l-0.7-3.2c-0.4-1.1-1.1-1.9-1.9-2.5c-0.6-0.4-1.3-0.6-2-0.6c-0.4,0-0.7,0-1.1,0.1
						c-1.3,0.4-2.2,1.2-2.7,2.5c-0.4,1.1-0.5,2.4-0.1,3.8c0.4,1.4,0.9,2.5,1.8,3.4C214.7,259.4,215.6,259.9,216.6,259.9
						 M219.4,240.9h-0.2h-0.2l0,0l0,0l-2.9,1.6l0,0l0,0l-0.1,0.1l-0.1,0.1l0.1,0.1l0.1,0.2l0.1,0.1h0.1h0.6h0.1
						c0.4,0,0.6,0.1,0.7,0.4c0.1,0.1,0.2,0.4,0.4,1.1l0.8,3.6c-0.7-0.2-1.5-0.5-2.2-0.5c-0.5,0-0.9,0-1.4,0.1
						c-1.9,0.5-3.4,1.4-4.3,3.1c-0.9,1.5-1.2,3.3-0.7,5.2c0.4,1.6,1.3,2.9,2.6,3.9c0.9,0.6,2,0.9,3.1,0.9c0.5,0,0.9-0.1,1.4-0.2
						c1.6-0.4,2.9-1.4,3.9-3.2l0.6,1.8l0.1,0.2l0.2-0.1l2.7-1.4l0,0l0,0c0.1-0.2,0.2-0.5,0.1-0.6l-0.1-0.2l-0.2,0.1l-0.6,0.2
						c-0.6-0.1-0.9-1.1-1.3-2.5l-3.3-14.1L219.4,240.9L219.4,240.9z M216.6,259.7c-0.9,0-1.6-0.4-2.5-1.2c-0.8-0.8-1.4-1.9-1.8-3.3
						s-0.4-2.6,0.1-3.6c0.5-1.2,1.3-2,2.6-2.2c0.4-0.1,0.7-0.1,1.1-0.1c0.7,0,1.3,0.1,1.9,0.5c0.8,0.5,1.4,1.3,1.8,2.4l0.7,3.2
						c0.2,0.9,0,1.8-0.6,2.7c-0.6,0.8-1.4,1.4-2.4,1.6C217.2,259.7,216.8,259.7,216.6,259.7L216.6,259.7z"/>
				</g>
			</g>
		</g>
	</g>
</g>
</svg>
