<svg id="Layer_1" data-name="Layer 1" xmlns="http://www.w3.org/2000/svg" xmlns:xlink="http://www.w3.org/1999/xlink" viewBox="0 0 566.93 710.48"><defs><style>.cls-1{fill:url(#New_Gradient_Swatch_6);}.cls-2{fill:url(#New_Gradient_Swatch_7);}.cls-3{fill:#1d1d1b;}</style><linearGradient id="New_Gradient_Swatch_6" x1="-35.89" y1="35.89" x2="602.82" y2="674.59" gradientUnits="userSpaceOnUse"><stop offset="0.07" stop-color="#fc0"/><stop offset="0.16" stop-color="#fff"/><stop offset="0.39" stop-color="#ffdf00"/><stop offset="0.53" stop-color="#e96e24"/><stop offset="0.71" stop-color="#f3c500"/><stop offset="0.84" stop-color="#fff"/><stop offset="1" stop-color="#f7a600"/></linearGradient><linearGradient id="New_Gradient_Swatch_7" x1="-16.14" y1="55.64" x2="583.07" y2="654.84" gradientUnits="userSpaceOnUse"><stop offset="0.01" stop-color="#f7a600"/><stop offset="0.1" stop-color="#fc0"/><stop offset="0.26" stop-color="#fff"/><stop offset="0.35" stop-color="#fd0"/><stop offset="0.49" stop-color="#fc0"/><stop offset="0.75" stop-color="#fff"/><stop offset="1" stop-color="#f7a600"/></linearGradient></defs><rect class="cls-1" width="566.93" height="710.48"/><rect class="cls-2" x="19.66" y="19.84" width="527.61" height="670.8"/><path class="cls-3" d="M139.59,499.26h8.93c9.87,0,18.15,3.6,18.15,14.69,0,4.39-1.66,8.14-5.33,10.59,6.48,1.58,10.3,7.41,10.3,13.89,0,10.8-8.72,15.12-19.45,15.12h-12.6Zm6,23.91h2.3c6.85,0,12.68-.8,12.68-9.22,0-8.21-5.19-9.07-12.6-9.07h-2.38Zm0,24.77h6.05c6.77,0,13.9-1.66,13.9-9.94s-8.07-9.65-14.69-9.65h-5.26Z"/><path class="cls-3" d="M180.49,499.26h28.15v5.62h-22.1V521H208v5.61H186.54v21.32h22.1v5.61H180.49Z"/><path class="cls-3" d="M225,547.94h15v5.61h-21V499.26h6Z"/><path class="cls-3" d="M296.41,526.26c.15,7.35-.65,13.4-5.61,19.16a26.83,26.83,0,0,1-20.09,9.07,28.08,28.08,0,1,1,.36-56.16c9.5,0,17.21,4.24,23,11.73l-4.4,4.11c-4.53-6.41-10.65-10.23-18.65-10.23-12.38,0-22.17,10.44-22.17,22.68A21.88,21.88,0,0,0,255.15,542c4,4,9.72,6.91,15.41,6.91,9.43,0,19.37-6.91,19.37-17H273.8v-5.62Z"/><path class="cls-3" d="M311.17,553.55h-6.05V499.26h6.05Z"/><path class="cls-3" d="M328.09,531.59c0,4-.15,8.64,2.37,12.1,2.38,3.31,7,5.18,11,5.18a14.38,14.38,0,0,0,10.66-4.82c2.88-3.46,2.66-8.21,2.66-12.46V499.26h6v34c0,5.9-.43,10.58-4.75,15a20,20,0,0,1-14.62,6.19,20.31,20.31,0,0,1-14-5.54c-4.76-4.54-5.33-9.51-5.33-15.7v-34h6Z"/><path class="cls-3" d="M378.56,496.17l19.73,45.58,19.8-45.58,11,57.38h-6.2l-7-36.72h-.14l-17.5,39-17.43-39h-.14l-7,36.72h-6.19Z"/><path class="cls-3" d="M75.5,638.65l30.66-75.55,30.66,75.55L161.7,568h11.44l-36.32,99.2-30.66-75.93L75.5,667.17,39.18,568H50.62Z"/><path class="cls-3" d="M195,662.29H184.46V568H195Z"/><path class="cls-3" d="M209.84,564,283.73,641V568h10.56v98.58L220.4,589.61v72.68H209.84Z"/><path class="cls-3" d="M309.63,564,383.51,641V568h10.56v98.58l-73.89-76.94v72.68H309.63Z"/><path class="cls-3" d="M408.78,568h49.13v9.76H419.34v28h37.44v9.76H419.34v37h38.57v9.76H408.78Z"/><path class="cls-3" d="M483.93,662.29H473.38V568h13.69c18,0,34.68,4.76,34.68,26,0,14.5-9.17,24.76-23.75,26l30.16,42.28H515.22l-28.65-41.4h-2.64Zm0-50.66h3.27c11.94,0,24-2.25,24-16.89,0-15.5-11.44-17-24.13-17h-3.14Z"/><path class="cls-3" d="M39.84,354V192h60.45c28.94,0,48.36,11.17,48.36,42.12,0,14.62-4.75,26.44-17.92,33.1v.43c23.32,3,33.26,18.7,33.26,41.26,0,34-29.15,45.14-58.95,45.14Zm42.32-98.43h4.75c11.23,0,22.89-1.94,22.89-15.69,0-14.83-13.18-15.7-24.62-15.7h-3Zm0,66.19h5.4c12.52,0,33.68.65,33.68-17.19,0-19.56-20.95-17.63-34.76-17.63H82.16Z"/><path class="cls-3" d="M219.68,227.66v27.09H267.4v35.67H219.68v27.94H270V354H177.36V192H270v35.67Z"/><path class="cls-3" d="M329.79,227.66v27.09H377.5v35.67H329.79v27.94h50.3V354H287.47V192h92.62v35.67Z"/><path class="cls-3" d="M533,354H480.27l-39.94-62.33h-.44V354H397.57V192h63.27c32.16,0,56.56,15.25,56.56,49.86,0,22.35-12.52,41.7-35.62,45.78Zm-93.06-89.41H444c13.81,0,29.36-2.58,29.36-20.2S457.81,224.22,444,224.22h-4.11Z"/><path class="cls-3" d="M68.72,436.63,63,451H40.19L72,368.25H95.51L126.68,451H103.74l-5.38-14.39Zm15-42.8h-.22l-8.88,26.34H92.54Z"/><path class="cls-3" d="M150.5,421.71h.22l17.34-53.46h17.12l16.25,53.46h.22l15.59-53.46h22.39L213.18,451h-22l-14.49-48h-.22l-16.24,48H138.43l-24.7-82.77h22.39Z"/><path class="cls-3" d="M252.9,436.63,247.2,451H224.37l31.83-82.77h23.49L310.87,451H287.92l-5.38-14.39Zm15-42.8h-.22l-8.88,26.34h17.89Z"/><path class="cls-3" d="M386.37,451H359.6l-20.31-31.84h-.22V451H317.56V368.25h32.15c16.36,0,28.76,7.8,28.76,25.47,0,11.41-6.36,21.29-18.11,23.38Zm-47.3-45.67h2.09c7,0,14.92-1.31,14.92-10.32s-7.9-10.31-14.92-10.31h-2.09Z"/><path class="cls-3" d="M392.19,368.25h30.52c23.05,0,42,18.11,42,41.39S445.64,451,422.71,451H392.19Zm21.52,64.55h4.83c12.84,0,23.81-7,23.81-23.16,0-14.82-9.76-23.16-23.59-23.16h-5.05Z"/><path class="cls-3" d="M515.79,389.55a22.59,22.59,0,0,0-14.27-5.49c-3.95,0-9.22,2.3-9.22,6.91,0,4.83,5.82,6.7,9.55,7.91l5.49,1.64c11.52,3.41,20.41,9.22,20.41,22.61,0,8.24-2,16.69-8.56,22.29s-15.15,7.79-23.49,7.79a51,51,0,0,1-29.08-9.44l9.21-17.34c5.38,4.72,11.74,8.56,19.11,8.56,5.05,0,10.42-2.52,10.42-8.34,0-6-8.45-8.12-13.06-9.44-13.51-3.84-22.39-7.35-22.39-23.38,0-16.8,12-27.77,28.54-27.77a56.55,56.55,0,0,1,25.89,6.8Z"/><rect class="cls-3" x="39.18" y="465.21" width="487.56" height="19.84"/><rect class="cls-3" x="39.18" y="48.04" width="487.56" height="19.84"/><path class="cls-3" d="M65.1,82.17l16.44,61.58,20.23-61.58H121.5l20.23,61.58,16.44-61.58h25.92l-28.45,95.34H130.35l-18.71-55.26L92.92,177.51H67.63L39.18,82.17Z"/><path class="cls-3" d="M375.64,177.51H344.79l-23.64-36.67v36.67H296.37V82.17h38.56a37.84,37.84,0,0,1,13.91,2.34,26.19,26.19,0,0,1,15.61,15.74,32.55,32.55,0,0,1,2,11.38q0,10.88-5.24,17.64t-15.49,9.17Zm-54.49-52.73h4.68c4.88,0,8.64-1,11.25-3S341,116.82,341,113s-1.31-6.7-3.92-8.72-6.37-3-11.25-3h-4.68Z"/><path class="cls-3" d="M405.74,82.17v74.35h29.71v21H381V82.17Z"/><path class="cls-3" d="M443.16,82.17h36.67a43.3,43.3,0,0,1,18.27,3.92A49.67,49.67,0,0,1,513,96.52a48.4,48.4,0,0,1,10.06,15.18,46.84,46.84,0,0,1,.06,36.16,48.15,48.15,0,0,1-10,15.23,49.12,49.12,0,0,1-14.92,10.5,43.59,43.59,0,0,1-18.4,3.92H443.16ZM468,156.52h5.69a30.71,30.71,0,0,0,11.5-2,24.66,24.66,0,0,0,8.54-5.57,23.72,23.72,0,0,0,5.31-8.41,30.08,30.08,0,0,0,1.83-10.68,29.44,29.44,0,0,0-1.89-10.62,23.89,23.89,0,0,0-13.91-14,30.64,30.64,0,0,0-11.38-2H468Z"/><path class="cls-3" d="M235.45,78.83c-27.45,0-52.76,20.25-52.76,49.1,0,30.87,22.14,52.63,52.76,52.63s52.77-21.76,52.77-52.63C288.22,99.08,262.91,78.83,235.45,78.83Zm-3.15,74.69H194l11.8-12.24q4.66-4.86,7.32-8.24a44.37,44.37,0,0,0,3.94-5.71,15.09,15.09,0,0,0,1.61-3.78,12,12,0,0,0,.32-2.47,6.44,6.44,0,0,0-.35-2.08,5.1,5.1,0,0,0-5-3.53,5,5,0,0,0-3.94,1.64,6,6,0,0,0-1.42,4.1,14.86,14.86,0,0,0,.19,2H194.94a20.36,20.36,0,0,1,1.36-7.57,17.29,17.29,0,0,1,3.82-5.87A17,17,0,0,1,206,106a20.18,20.18,0,0,1,7.41-1.32,20.85,20.85,0,0,1,7.35,1.26,17.62,17.62,0,0,1,5.84,3.53,16.4,16.4,0,0,1,3.85,5.4,16.58,16.58,0,0,1,1.39,6.78,15.76,15.76,0,0,1-1.68,7.23,25.23,25.23,0,0,1-5.33,6.78l-7.89,7.39h15.4Zm39-5.59a19,19,0,0,1-22.68,5.12,18.61,18.61,0,0,1-6.38-5.12,24,24,0,0,1-4.16-8,36.45,36.45,0,0,1,0-20.63,23.86,23.86,0,0,1,4.16-7.92,18.73,18.73,0,0,1,6.38-5.08,18.64,18.64,0,0,1,22.68,5.08,24,24,0,0,1,4.13,7.92,36.45,36.45,0,0,1,0,20.63A24.15,24.15,0,0,1,271.29,147.93Z"/><path class="cls-3" d="M262.52,119.48a8.33,8.33,0,0,0-2.49-2.91,5.58,5.58,0,0,0-3.25-1,5.5,5.5,0,0,0-3.28,1,8.9,8.9,0,0,0-2.5,2.91,16.3,16.3,0,0,0-1.61,4.48,29.54,29.54,0,0,0,0,11.45,16.93,16.93,0,0,0,1.61,4.48,8.68,8.68,0,0,0,2.5,2.93,5.44,5.44,0,0,0,3.28,1.05,5.52,5.52,0,0,0,3.25-1.05,8.14,8.14,0,0,0,2.49-2.93,17.67,17.67,0,0,0,1.58-4.48,29,29,0,0,0,0-11.45A17,17,0,0,0,262.52,119.48Z"/></svg>