<?xml version="1.0" encoding="utf-8"?>
<!-- Generator: Adobe Illustrator 27.4.1, SVG Export Plug-In . SVG Version: 6.00 Build 0)  -->
<svg version="1.1" id="Layer_1" xmlns="http://www.w3.org/2000/svg" xmlns:xlink="http://www.w3.org/1999/xlink" x="0px" y="0px"
	 viewBox="0 0 640 480" style="enable-background:new 0 0 640 480;" xml:space="preserve">
<g>
	<path d="M177.2,172.6c0.7,0,1.2,0.2,1.5,0.6c0.3,0.4,0.5,0.9,0.5,1.6v37.9c0,5.5-1.7,9.9-5.2,13c-3.5,3.2-8.4,4.8-14.6,4.8
		c-3,0-5.8-0.4-8.2-1.2c-2.4-0.8-4.5-2-6.3-3.6c-1.7-1.5-3.1-3.4-4-5.6c-0.9-2.2-1.4-4.6-1.4-7.4v-89.9c0-5.5,1.7-9.9,5.2-13.1
		c3.5-3.2,8.4-4.8,14.7-4.8c3,0,5.7,0.4,8.1,1.2s4.6,2,6.3,3.6s3.1,3.4,4,5.6c0.9,2.2,1.4,4.6,1.4,7.4V162c0,0.6-0.2,1.1-0.5,1.6
		c-0.4,0.4-0.9,0.6-1.5,0.6h-5.8c-2,0-3.5-0.6-4.5-1.7s-1.5-2.6-1.5-4.4v-35.3c0-1.9-0.5-3.4-1.5-4.5s-2.5-1.7-4.6-1.7
		c-2,0-3.5,0.6-4.5,1.7s-1.5,2.6-1.5,4.5v89.9c0,1.9,0.5,3.4,1.5,4.5s2.5,1.7,4.6,1.7c2,0,3.5-0.6,4.5-1.7c1-1.1,1.5-2.6,1.5-4.5
		v-28.5c-4.1,0-6.2-2-6.2-6v-3.5c0-0.7,0.2-1.2,0.6-1.6s0.9-0.5,1.5-0.5L177.2,172.6L177.2,172.6z"/>
	<path d="M215.6,122.8c0-5.5,1.7-9.9,5.2-13.1c3.5-3.2,8.4-4.8,14.6-4.8c3,0,5.7,0.4,8.1,1.2s4.6,2,6.3,3.6s3.1,3.4,4,5.6
		c0.9,2.2,1.4,4.6,1.4,7.4v89.9c0,5.5-1.7,9.9-5.2,13c-3.5,3.2-8.4,4.8-14.6,4.8c-3,0-5.8-0.4-8.2-1.2c-2.4-0.8-4.5-2-6.3-3.6
		c-1.7-1.5-3.1-3.4-4-5.6c-0.9-2.2-1.4-4.6-1.4-7.4L215.6,122.8L215.6,122.8z M241.4,122.8c0-1.9-0.5-3.4-1.5-4.5s-2.5-1.7-4.6-1.7
		c-2,0-3.5,0.6-4.5,1.7s-1.5,2.6-1.5,4.5v89.9c0,1.9,0.5,3.4,1.5,4.5s2.5,1.7,4.6,1.7c2,0,3.5-0.6,4.5-1.7c1-1.1,1.5-2.6,1.5-4.5
		V122.8z"/>
	<path d="M399.8,106.6c0.6,0,1.1,0.2,1.5,0.5c0.4,0.4,0.6,0.9,0.6,1.6v3.5c0,1.8-0.5,3.2-1.5,4.4c-1,1.1-2.2,1.6-3.8,1.6h-6.4v106.9
		c0,1-0.4,1.9-1.1,2.6c-0.7,0.7-1.6,1.1-2.6,1.1h-6.4c-1,0-1.9-0.4-2.6-1.1c-0.7-0.7-1.1-1.6-1.1-2.6V118.2h-6.4
		c-1.6,0-2.9-0.6-3.8-1.6c-1-1.1-1.5-2.6-1.5-4.4v-3.5c0-0.7,0.2-1.2,0.6-1.6s0.9-0.5,1.5-0.5L399.8,106.6L399.8,106.6z"/>
	<path d="M435.3,111.9c0-1.6,0.5-2.9,1.7-3.8c1.1-1,2.5-1.4,4.3-1.4h5.8c0.7,0,1.2,0.2,1.5,0.6c0.3,0.4,0.5,0.9,0.5,1.6v116.3
		c0,1-0.4,1.9-1.1,2.6c-0.7,0.7-1.6,1.1-2.6,1.1H439c-1,0-1.9-0.4-2.6-1.1c-0.7-0.7-1.1-1.6-1.1-2.6L435.3,111.9L435.3,111.9z"/>
	<path d="M561.4,111.9c0-1.6,0.5-2.9,1.7-3.8c1.1-1,2.5-1.4,4.3-1.4h5.8c0.7,0,1.2,0.2,1.5,0.6c0.3,0.4,0.5,0.9,0.5,1.6v116.3
		c0,1-0.4,1.9-1.1,2.6c-0.7,0.7-1.6,1.1-2.6,1.1h-6.4c-1,0-1.9-0.4-2.6-1.1c-0.7-0.7-1.1-1.6-1.1-2.6L561.4,111.9L561.4,111.9z"/>
	<path d="M523.1,106.6c0.7,0,1.2,0.2,1.5,0.6c0.3,0.4,0.5,0.9,0.5,1.6v117.8c0,0.6-0.2,1.1-0.5,1.5c-0.3,0.4-0.9,0.6-1.5,0.6h-5.8
		c-1.8,0-3.2-0.4-4.1-1.3c-1-0.9-1.5-2-1.8-3.5c0-0.8-0.3-2.5-0.8-5c-0.5-2.5-1.2-5.5-2-9c-0.8-3.5-1.7-7.3-2.6-11.5
		c-1-4.2-1.9-8.4-2.9-12.8s-1.9-8.6-2.8-12.8c-0.9-4.2-1.6-8-2.1-11.5l1,61.2c0.1,1.8-0.4,3.3-1.5,4.4c-1,1.1-2.6,1.7-4.6,1.7h-5.8
		c-0.7,0-1.2-0.2-1.5-0.6c-0.3-0.4-0.5-0.9-0.5-1.5V108.8c0-0.6,0.2-1.1,0.5-1.6c0.3-0.4,0.9-0.6,1.5-0.6h5.8c1.7,0,3.1,0.5,4.2,1.4
		s1.7,2.2,1.8,3.7c0.1,1.1,0.5,3.1,0.9,5.9c0.5,2.9,1.1,6.2,1.9,10.1c0.8,3.9,1.6,8.1,2.5,12.6c0.9,4.6,1.8,9.1,2.7,13.6
		c0.9,4.5,1.8,8.8,2.7,12.9s1.6,7.6,2.3,10.6l-1-65.6c0-1.6,0.5-2.9,1.7-3.8c1.1-1,2.5-1.4,4.3-1.4L523.1,106.6L523.1,106.6z"/>
	<path d="M330.9,166.9c-4.2-16.4-8.7-32.9-9.7-47.9C319.5,91.7,339.6,89,339.6,89s-50-5.5-47.6,31.9c2.4,37.4,16,70.2,17.1,87
		c1.1,16.8-18.3,30-18.3,30s23.9-2.2,37.8-12.8c0-0.1,0-0.2-0.1-0.3c-0.3-0.2-0.6-0.5-0.9-0.8c-0.2-0.2-0.2-0.5-0.1-0.7
		c0.1-0.2,0.4-0.4,0.6-0.3l2.8,0.2c4.8-4.4,7.9-10,7.4-17.2c-0.8-11.8-3.7-24.5-7-37.3l-0.7-0.5c-0.3-0.2-0.4-0.5-0.2-0.8l0.1-0.2
		C330.7,167.1,330.8,167,330.9,166.9L330.9,166.9z M309.5,225c0.1-0.2,0.4-0.3,0.6-0.3c0.6,0,1.1,0.2,1.5,0.4c1.4,0.7,1.6,2,1.9,3.4
		c0,0.2,0,0.4-0.1,0.6c-0.1,0.1-0.3,0.2-0.5,0.2l-1.5-0.1c-0.2,0-0.4-0.2-0.5-0.4c-0.4-0.9-0.8-1.9-1.4-3.1
		C309.3,225.4,309.3,225.2,309.5,225L309.5,225z M319.6,144.7l-0.2,0.4c-0.2,0.2-0.5,0.3-0.7,0.2l-1.4-0.4c0,0-0.1,0-0.1,0
		c-0.1-0.1-0.3-0.2-0.3-0.3c-0.1-0.2-0.1-0.4,0-0.6l0.1-0.2c0.1-0.3,0.4-0.8,1-0.6c0.4,0.1,0.8,0.3,1.2,0.5l0.2,0.1
		c0.2,0.1,0.3,0.2,0.4,0.4C319.7,144.3,319.7,144.5,319.6,144.7L319.6,144.7z"/>
	<path d="M379.1,287.7c-0.1,0-0.2,0-0.3-0.1l-0.6-0.6c-0.1-0.1-0.1-0.2-0.1-0.3c0-0.1,0.1-0.1,0.1-0.1c-0.3-0.2-0.6-0.4-0.9-0.5
		c-4.9-2.5-9.9-2.3-14.4-0.8c0.1-0.5,0.1-1.1,0.2-1.6c0.2-1.8,0.3-3.7,0.4-5.6c0-0.1,0-0.2,0-0.3c0-13.3-32.5-17.2-53.3-17.4
		l0.6,0.1c0.2,0,0.3,0.2,0.3,0.4l0,0.4c0,0.1-0.1,0.2-0.1,0.2c-0.1,0-0.1,0.1-0.2,0.1h0l-1.2-0.1c-0.2,0-0.3-0.2-0.3-0.4l0-0.4
		c0-0.1,0.1-0.2,0.1-0.2c0,0,0,0,0.1,0c-0.5,0-1,0-1.5,0c-2.9,0-6,0.1-9.3,0.2l0.4,1c0,0.1,0,0.3,0,0.4c-0.1,0.1-0.2,0.1-0.3,0.1
		c0,0,0,0-0.1,0l-2.1-0.4c-0.1,0-0.2-0.1-0.3-0.2c0-0.1,0-0.3,0.1-0.4l0.4-0.4c-19.3,1.1-42.5,5.3-44.1,15.9h-0.1c0,0.2,0,0.5,0,0.7
		c0,0.2,0,0.3,0,0.5c0,0.4,0,0.8,0.1,1.1c0.1,1.6,0.1,3.2,0.3,4.7c0.7,7.6,2.4,16,4.7,24.4c0.3,0.1,0.6,0.1,0.9-0.1h0l1.2-1l-2-1
		c-0.2-0.1-0.3-0.3-0.2-0.5c0.1-0.1,0.2-0.2,0.3-0.2c0.5,0,0.6-0.1,0.6-0.1c0,0,0-0.1-0.4-0.6c-0.1-0.1-0.1-0.3,0-0.4
		c0.1-0.1,0.2-0.2,0.4-0.2l2.1,0.2c0.1,0,0.3,0.1,0.3,0.2l1,3c0.1,0.2,0,0.4-0.2,0.4l-1.1,0.5l1.1,0.2c0.2,0,0.3,0.2,0.3,0.4
		c0,0.1-0.1,0.1-0.1,0.2c-0.9,0.8-1.9,0.9-2.8,0.9c-0.3,0-0.5,0-0.8,0.1c1.8,6.1,4,12.3,6.6,18.2c0.1,0,0.2,0,0.4,0
		c0.2,0,0.3,0.1,0.4,0.3c0,0.2-0.1,0.3-0.2,0.4l-0.2,0.1c3.4,7.7,7.3,15,11.7,21.3c-18.1,3.5-30.2,9.9-30.2,17.2
		c0,11,27.5,19.9,61.4,19.9s61.4-8.9,61.4-19.9c0-7.3-12.1-13.7-30.2-17.2c4-5.8,7.7-12.4,10.9-19.5c1.9,0.7,3.9,1.2,6,1.2h0.1
		c10.9,0,24-18,26.9-29.8c1.6-6.8,0-11-2-13.5l-0.9-0.1c-0.1,0-0.2-0.1-0.2-0.1c-0.1-0.1-0.1-0.2-0.1-0.3c0-0.2,0.1-0.4,0.2-0.6
		c-0.1-0.1-0.3-0.3-0.4-0.4l-0.1,0.1C379.3,287.7,379.2,287.7,379.1,287.7L379.1,287.7z M266.5,380.8c-0.3,0.1-0.6,0.2-0.8,0.3
		c0,0-0.1,0.1-0.1,0.1c-0.1,0-0.1,0-0.2,0c-0.1,0-0.2,0-0.2-0.1c-0.1-0.1-0.2-0.3-0.1-0.5c0,0,0,0,0,0v-1.5c0-0.2,0.1-0.3,0.2-0.3
		c0.1,0,0.3,0,0.4,0.1l1,1.4c0.1,0.1,0.1,0.2,0,0.3C266.7,380.7,266.6,380.8,266.5,380.8L266.5,380.8z M356.6,279.9l0.1-0.2
		c0.1-0.2,0.3-0.2,0.4-0.2l2.5,0.7c0.2,0,0.3,0.2,0.3,0.4l0,0.3c0,0.2-0.1,0.3-0.3,0.3l-2.7,0.4h0c-0.1,0-0.2,0-0.3-0.1
		c0-0.1-0.1-0.1-0.1-0.1c-0.1-0.1-0.2-0.3-0.1-0.5C356.3,280.5,356.4,280.2,356.6,279.9L356.6,279.9z M321.4,261.6
		c0-0.1,0.2-0.2,0.4-0.2l1.6,0.1c0.1,0,0.2,0,0.2,0.1s0.1,0.2,0.1,0.3l-0.1,1c0,0.2-0.2,0.3-0.4,0.3c-0.1,0-0.1,0-0.2-0.1l-1.5-1.1
		C321.4,262,321.3,261.8,321.4,261.6L321.4,261.6z M317.7,260.9l2,0.1c0.1,0,0.2,0,0.2,0.1c0.1,0.1,0.1,0.2,0.1,0.3l-0.1,0.6
		c0,0.1-0.1,0.2-0.1,0.2c-0.2,0.2-0.4,0.3-0.7,0.3c-0.5,0-0.8-0.3-1.1-0.6c-0.2-0.2-0.4-0.3-0.5-0.4c-0.2-0.1-0.3-0.2-0.2-0.4
		C317.4,261,317.6,260.9,317.7,260.9L317.7,260.9z M298.2,262.5c0-0.1,0.1-0.1,0.1-0.2c0-0.1,0.1-0.1,0.2-0.2c0.1,0,0.2,0,0.3,0
		l1,0.6c0.1,0.1,0.2,0.2,0.2,0.3s-0.1,0.2-0.2,0.3c-0.1,0.1-0.2,0.2-0.3,0.2c-0.2,0.2-0.4,0.3-0.6,0.3h-0.1c-0.3,0-0.8-0.4-0.9-0.8
		C297.9,262.9,298.1,262.6,298.2,262.5L298.2,262.5z M261.3,277.8c0.2-0.4,0.7-0.8,1.4-1.2c4.7-3,19.5-7.6,45.3-7.6
		c29.4,0,44.5,5.9,46.6,8.7c0,0,0,0,0,0.1c-0.7,1-3.2,2.4-7.3,3.8c-5.5-1.9-13.1-3.4-21.9-4.2c-1.6-0.2-3.2-0.3-4.9-0.4
		c-0.3,0.5-0.5,0.9-1,0.9c-0.3,0-0.7-0.1-1.4-0.3c-0.2,0-0.3-0.2-0.3-0.4c0-0.2,0.1-0.3,0.3-0.4l0.1,0c-3.3-0.2-6.7-0.3-10.2-0.3
		c-4.5,0-8.8,0.2-12.9,0.5c-10.7,0.8-20,2.4-26.5,4.6C264.5,280.2,262.1,278.8,261.3,277.8L261.3,277.8z M354.7,280.5l-0.1,0.6
		c0,0.1-0.1,0.2-0.2,0.2c0,0-0.1,0-0.2,0c0,0-0.1,0-0.1,0l-2.1-0.8c-0.2-0.1-0.3-0.2-0.2-0.4c0-0.2,0.2-0.3,0.4-0.3l2.2,0.1
		c0.1,0,0.2,0.1,0.3,0.1C354.7,280.3,354.7,280.4,354.7,280.5z M326.3,283.7c-0.2-0.5,0-1,0.5-2.2c0-0.1,0-0.2,0-0.3
		c0-0.1,0-0.2,0-0.3c0-0.2,0.2-0.3,0.4-0.3l3.3-0.1h0c0.1,0,0.2,0.1,0.3,0.2c0.1,0.1,0.1,0.2,0,0.3c-0.3,0.8-0.8,1.1-1.6,1.1
		c-0.2,0-0.3,0-0.5,0c0,0.5,0.1,0.7,0.7,0.8c0.6,0.1,1.1,0.3,1.6,0.5c0.2,0.1,0.4,0.1,0.5,0.2c0.1,0,0.2,0.1,0.3,0.2
		c0.1,0.1,0.1,0.3,0,0.4c-0.1,0.1-0.2,0.1-0.3,0.1c-0.6,0.3-1.3,0.5-2.1,0.5c-0.4,0-0.8-0.1-1.2-0.2l-0.2-0.1
		C327,284.3,326.5,284.1,326.3,283.7L326.3,283.7z M326.4,285.8c-0.2,0.1-0.3,0.2-0.4,0.3c-0.2,0.2-0.3,0.3-0.5,0.3
		c-0.1,0-0.2,0-0.3,0c-0.1,0-0.2,0-0.3,0c-0.1,0-0.1,0-0.2,0c-0.2,0-0.3-0.2-0.4-0.4v-0.5c0-0.2,0.1-0.4,0.3-0.4l1.5-0.1
		c0.2,0,0.3,0.1,0.4,0.2C326.6,285.5,326.6,285.7,326.4,285.8z M310,292.3l-0.6,1.4c-0.1,0.1-0.2,0.2-0.3,0.2c0,0-0.1,0-0.1,0
		l-0.3-0.1c-0.2-0.1-0.3-0.3-0.2-0.4l0.5-1.5c0-0.1,0.1-0.2,0.2-0.2s0.2,0,0.3,0l0.4,0.3C310,292,310,292.2,310,292.3L310,292.3z
		 M264.2,309.2c-0.1,0.2-0.3,0.3-0.4,0.5l-0.1,0.1c-0.1,0.1-0.1,0.1-0.2,0.1h0c-0.1,0-0.2-0.1-0.2-0.1c0,0-0.1-0.1-0.1-0.1
		c-0.2-0.1-0.4-0.3-0.3-0.6c0-0.2,0.2-0.4,0.3-0.6c0-0.1,0.1-0.1,0.2-0.2s0.2-0.2,0.3-0.2h0c0.1,0,0.2,0.1,0.3,0.2
		c0.1,0.1,0.1,0.2,0.2,0.3C264.2,308.7,264.4,308.9,264.2,309.2L264.2,309.2z M281.3,358.1c-0.2,0-0.4,0-0.6-0.1c0,0-0.1,0-0.1,0
		c-0.1,0-0.3,0-0.4-0.1l0,0c-0.1-0.1-0.1-0.3,0-0.4c0,0,0,0,0-0.1c0.1-0.3,0.3-0.8,1-0.8c0.2,0,0.3,0,0.5,0.1c0.2,0,0.3,0.1,0.5,0.1
		c0.1,0,0.2,0.1,0.3,0.2c0.1,0.1,0.1,0.2,0,0.4C282.2,357.8,281.8,358.1,281.3,358.1L281.3,358.1z M285.1,356.8
		c0,0.1-0.1,0.2-0.1,0.2c-0.1,0-0.1,0.1-0.2,0.1c0,0,0,0-0.1,0l-0.5-0.1c-0.1,0-0.2-0.1-0.2-0.2c-0.1-0.1-0.1-0.2,0-0.3l0.2-1
		c0-0.2,0.2-0.3,0.4-0.3l0.4,0.1c0.2,0,0.3,0.2,0.3,0.4L285.1,356.8z M290.7,365.1c-0.1,0.1-0.1,0.1-0.2,0.1h0l-1.1-0.1
		c-0.1,0-0.2-0.1-0.3-0.2c-0.1-0.1-0.1-0.2,0-0.3l0.6-1.6c0.1-0.2,0.2-0.3,0.4-0.2l0.4,0.1c0.1,0,0.3,0.2,0.3,0.3l0.1,1.6
		C290.8,365,290.7,365.1,290.7,365.1L290.7,365.1z M294.9,367.4l-0.4,0.3c-0.1,0-0.1,0.1-0.2,0.1c0,0-0.1,0-0.1,0l-1.9-0.6
		c-0.1,0-0.2-0.1-0.2-0.2c0-0.1,0-0.2,0-0.3l0.8-2.1c0-0.1,0.1-0.2,0.2-0.2c0.1,0,0.2,0,0.3,0l1.1,0.5c0.1,0,0.2,0.1,0.2,0.2
		s0,0.2,0,0.3l-0.4,0.7l0.7,0.6c0.1,0.1,0.1,0.2,0.1,0.3C295.1,367.3,295,367.4,294.9,367.4L294.9,367.4z M318.5,367.5
		c0,0.1-0.1,0.2-0.3,0.3h0c-0.1,0-0.2-0.1-0.3-0.2c-0.8-1.4-0.7-1.6,0.7-2.8c0.1-0.1,0.3-0.1,0.4,0c0.1,0.1,0.2,0.2,0.2,0.4
		L318.5,367.5z M346.1,318.3c-1.1,2.9-2.2,5.7-3.4,8.5c-3.8,8.5-8.2,16.2-12.9,22.3c-6.8,8.7-14.3,14.3-21.7,14.3
		c-7.4,0-14.9-5.6-21.7-14.3c-0.3-0.4-0.6-0.9-1-1.3c0,0.1,0,0.1-0.1,0.1c-0.1,0.1-0.2,0.1-0.2,0.1c0,0-0.1,0-0.1,0l-1.5-0.6
		c-0.1,0-0.2-0.1-0.2-0.3c0-0.1,0-0.2,0.1-0.3c0.4-0.4,0.7-0.5,1-0.5h0c-3.1-4.4-6.1-9.5-8.8-15c-0.3,0.2-0.6,0.4-0.9,0.4h0
		c-0.9,0-1.7-0.2-2.7-0.4c-0.4-0.1-0.9-0.1-1.4-0.2c-0.1,0-0.3-0.1-0.3-0.3c0-0.1,0-0.3,0.1-0.4l1.4-1l-0.8-0.4
		c-0.1-0.1-0.2-0.2-0.2-0.4c0-0.1,0.2-0.3,0.3-0.3c0.3,0,0.6-0.1,1-0.1c0.5,0,1.2,0.1,1.7,0.7c0.1-0.2,0.3-0.4,0.4-0.6
		c0,0,0.1-0.1,0.1-0.1c-3-6.6-5.6-13.7-7.7-20.9c-0.1,0-0.2,0.1-0.3,0.1c-0.5,0-0.9-0.3-1.9-1.2c-0.1-0.1-0.2-0.3-0.1-0.5
		c0.1-0.1,0.3-0.2,0.4-0.1l1.5,0.5c-1.6-5.9-2.9-11.8-3.8-17.6c11.9,5.2,32,6.9,45.8,6.9s34-1.6,45.8-6.9c-0.1,0.7-0.2,1.4-0.3,2
		c-0.8,5-1.9,10.1-3.3,15.2C349,309.9,347.6,314.2,346.1,318.3L346.1,318.3z M374.6,300.4c-2.6,10.9-14,23.2-18.5,23.2h0
		c-0.9,0-1.8-0.2-2.7-0.5c3.5-9.1,6.2-18.5,8-27.5c3.9-2.4,8.2-3.7,12.1-1.7C375.1,294.6,375.5,296.8,374.6,300.4L374.6,300.4z
		 M382.1,299.2c0.3,0,0.5-0.1,0.8-0.2c0.1,0,0.3,0,0.4,0.1c0.1,0.1,0.1,0.2,0.1,0.4c-0.5,1.4-1.3,1.5-2,1.7c-0.2,0-0.4,0.1-0.6,0.1
		c0,0-0.1,0-0.1,0c-0.1,0-0.2,0-0.2-0.1c-0.1-0.1-0.1-0.2-0.1-0.3C380.6,299.5,381.4,299.3,382.1,299.2L382.1,299.2z"/>
	<path d="M79.6,110.4c0.1-1,0.5-1.9,1.1-2.6s1.1-1.1,1.7-1.1H90c0.6,0,1.1,0.4,1.7,1.1s0.9,1.6,1,2.6l14.9,114.9
		c0.2,2.4-0.4,3.6-1.8,3.6h-5.5c-0.6,0-1.2-0.3-1.7-1c-0.6-0.7-0.9-1.5-1.1-2.5l-2.7-19.9c-0.1-1-0.5-1.8-0.9-2.3
		c-0.5-0.5-1-0.6-1.6-0.2l-13.7,9.2c-0.6,0.4-1.1,1.1-1.6,2.1s-0.8,2-0.9,3l-1.1,8.1c-0.1,1-0.5,1.9-1.1,2.5s-1.1,1-1.7,1h-5.5
		c-1.4,0-2-1.2-1.8-3.6L79.6,110.4L79.6,110.4z M79.1,192.9c-0.1,1-0.1,1.8,0.3,2.3c0.3,0.5,0.8,0.5,1.4,0l9.8-6.4
		c0.6-0.4,1-1.1,1.3-2.1c0.3-1,0.4-2,0.2-3l-5.3-41.2c-0.1-1-0.3-1.5-0.5-1.5s-0.4,0.5-0.5,1.5L79.1,192.9z"/>
	<path d="M70.7,431c0,0,0.1,0,0.1-0.2l2.5-10.5c0.1-0.3,0.3-0.5,0.6-0.5h2c0.3,0,0.5,0.2,0.5,0.5V435c0,0.3-0.2,0.5-0.5,0.5h-1.3
		c-0.3,0-0.5-0.2-0.5-0.5l0.1-9.2c0-0.1,0-0.2-0.1-0.2c0,0-0.1,0.1-0.1,0.2l-2.2,9.2c-0.1,0.3-0.3,0.5-0.6,0.5H70
		c-0.3,0-0.5-0.2-0.6-0.5l-2.1-9.2c-0.1-0.1-0.1-0.2-0.1-0.2s0,0.1,0,0.2l0.1,9.2c0,0.3-0.2,0.5-0.5,0.5h-1.3
		c-0.3,0-0.5-0.2-0.5-0.5l0,0v-14.7c0-0.3,0.2-0.5,0.5-0.5h2.1c0.3,0,0.5,0.2,0.6,0.5l2.4,10.5C70.7,430.9,70.7,431,70.7,431z"/>
	<path d="M87.8,435v-14.7c0-0.3,0.2-0.5,0.5-0.5h1.3c0.3,0,0.5,0.2,0.5,0.5V435c0,0.3-0.2,0.5-0.5,0.5h-1.3
		C88,435.5,87.8,435.3,87.8,435L87.8,435z"/>
	<path d="M103.9,427.7c0,4.5,0.1,6.4,2.2,6.4c1.4,0,1.9-0.5,2-2.2l0.1-1c0-0.3,0.2-0.5,0.5-0.5h1.3c0.3,0,0.5,0.2,0.5,0.5
		c-0.1,2.7-0.4,4.8-4.4,4.8c-4.5,0-4.6-2.8-4.6-8.1c0-5.1,0-8.2,4.6-8.2c4,0,4.3,1.4,4.4,4.7c0,0.3-0.2,0.5-0.5,0.5h-1.3
		c-0.3,0-0.5-0.2-0.5-0.5c0-2.6-0.4-3-2.1-3c-0.5,0-0.9,0.1-1.2,0.4C104,422.2,103.9,424.1,103.9,427.7L103.9,427.7z"/>
	<path d="M129.6,424.3c0,2.2-0.7,3.5-1.9,4.3c-0.2,0.1-0.3,0.3-0.3,0.5c0,0.1,0,0.1,0.1,0.2l2.3,5.8c0,0,0,0.1,0,0.2
		c0,0.1-0.1,0.3-0.3,0.3h-1.5c-0.3,0-0.6-0.2-0.6-0.5l-1.9-5.1c-0.1-0.3-0.4-0.4-0.6-0.4H124c-0.3,0-0.5,0.2-0.5,0.5v5
		c0,0.3-0.2,0.5-0.5,0.5h-1.3c-0.3,0-0.5-0.2-0.5-0.5l0,0v-14.7c0-0.3,0.2-0.5,0.5-0.5h2.5C127.5,419.8,129.6,421,129.6,424.3
		L129.6,424.3z M124,427.7h0.7c1.6,0,2.6-1.2,2.6-3.3c0-2.2-1.4-3-2.5-3H124c-0.3,0-0.5,0.2-0.5,0.5c0,0,0,0,0,0v5.3
		C123.5,427.5,123.7,427.7,124,427.7L124,427.7z"/>
	<path d="M149.7,427.7c0,5,0.1,8.1-4.7,8.1c-4.6,0-4.8-2.8-4.8-8.1s0.2-8.2,4.8-8.2c2.3,0,3.5,0.7,4.1,2
		C149.7,422.9,149.7,424.9,149.7,427.7L149.7,427.7z M147.3,427.7c0-4.7-0.1-6.5-2.3-6.5s-2.4,1.8-2.4,6.5c0,4.6,0.2,6.4,2.4,6.4
		c1.6,0,2.1-0.9,2.2-3.5C147.3,429.8,147.3,428.9,147.3,427.7z"/>
	<path d="M167.3,427.2c1,0.4,2.1,1.5,2.1,3.8c0,2-0.8,4.5-4.4,4.5h-4c-0.3,0-0.5-0.2-0.5-0.5c0,0,0,0,0,0v-14.7
		c0-0.3,0.2-0.5,0.5-0.5h3.2c3,0,4.6,1.6,4.6,3.9c0,1.7-0.9,2.8-1.6,3.2C167.1,427,167.1,427.1,167.3,427.2L167.3,427.2z
		 M162.8,421.9v4c0,0.3,0.2,0.5,0.5,0.5h1.3c1.4,0,2.1-1.2,2.1-2.7s-0.8-2.3-2.3-2.3h-1.1C163,421.4,162.8,421.6,162.8,421.9
		L162.8,421.9z M164.5,434c1.8,0,2.7-1.1,2.7-3.1c0-2.1-1.2-2.8-2.3-2.8h-1.5c-0.3,0-0.5,0.2-0.5,0.5c0,0,0,0,0,0v5
		c0,0.3,0.2,0.5,0.5,0.5L164.5,434L164.5,434z"/>
	<path d="M188.5,424.3c0,2.2-0.7,3.5-1.9,4.3c-0.2,0.1-0.3,0.3-0.3,0.5c0,0.1,0,0.1,0,0.2l2.3,5.8c0,0,0,0.1,0,0.2
		c0,0.1-0.1,0.3-0.3,0.3h-1.5c-0.3,0-0.5-0.2-0.6-0.5l-1.9-5.1c-0.1-0.3-0.4-0.4-0.6-0.4h-0.9c-0.3,0-0.5,0.2-0.5,0.5v5
		c0,0.3-0.2,0.5-0.5,0.5h-1.3c-0.3,0-0.5-0.2-0.5-0.5c0,0,0,0,0,0v-14.7c0-0.3,0.2-0.5,0.5-0.5h2.5
		C186.4,419.8,188.5,421,188.5,424.3L188.5,424.3z M182.9,427.7h0.7c1.6,0,2.6-1.2,2.6-3.3c0-2.2-1.4-3-2.5-3h-0.8
		c-0.3,0-0.5,0.2-0.5,0.5c0,0,0,0,0,0v5.3C182.4,427.5,182.6,427.7,182.9,427.7L182.9,427.7z"/>
	<path d="M202.5,419.8h1.7c0.3,0,0.5,0.2,0.6,0.5L208,435c0,0.3-0.1,0.5-0.4,0.5h-1.2c-0.3,0-0.5-0.2-0.6-0.5l-0.6-2.6
		c0-0.3-0.3-0.4-0.5-0.3l-3,1.2c-0.2,0.1-0.5,0.4-0.6,0.6l-0.2,1c-0.1,0.3-0.3,0.5-0.6,0.5H199c-0.3,0-0.4-0.2-0.4-0.5l3.2-14.8
		C202,420,202.2,419.8,202.5,419.8z M202.1,431.2l2.1-0.8c0.2-0.1,0.4-0.4,0.3-0.6l-1.2-5.3c-0.1-0.3-0.2-0.3-0.2,0l-1.5,6.5
		C201.7,431.2,201.9,431.3,202.1,431.2L202.1,431.2z"/>
	<path d="M224.8,430c0,0,0-0.1,0-0.2l-0.1-9.5c0-0.3,0.2-0.5,0.5-0.5h1.3c0.3,0,0.5,0.2,0.5,0.5V435c0,0.3-0.2,0.5-0.5,0.5h-1.4
		c-0.3,0-0.6-0.2-0.6-0.4l-3.7-9.4c0-0.1-0.1-0.2-0.1-0.2s0,0.1,0,0.2l0.1,9.3c0,0.3-0.2,0.5-0.5,0.5h-1.3c-0.3,0-0.5-0.2-0.5-0.5
		c0,0,0,0,0,0v-14.7c0-0.3,0.2-0.5,0.5-0.5h1.4c0.3,0,0.6,0.2,0.6,0.5l3.7,9.5C224.7,429.9,224.7,430,224.8,430L224.8,430z"/>
	<path d="M247.5,427.7c0,5.8-0.4,7.8-5.3,7.8h-3.5c-0.3,0-0.5-0.2-0.5-0.5v-14.7c0-0.3,0.2-0.5,0.5-0.5h3.4c1.3,0,2.2,0.2,3,0.5
		C247.3,421.3,247.5,423.7,247.5,427.7L247.5,427.7z M245.1,427.7c0-4.5-0.1-6.3-3-6.3h-1.2c-0.3,0-0.5,0.2-0.5,0.5c0,0,0,0,0,0
		v11.4c0,0.3,0.2,0.5,0.5,0.5h1.3c1.3,0,2-0.5,2.4-1.4C245.1,431.3,245.1,429.9,245.1,427.7L245.1,427.7z"/>
	<path d="M260.5,429.7v3.7c0,0.3,0.2,0.5,0.5,0.5h3.5c0.3,0,0.5,0.2,0.5,0.5v0.6c0,0.3-0.2,0.5-0.5,0.5h-5.8c-0.3,0-0.5-0.2-0.5-0.5
		v-14.7c0-0.3,0.2-0.5,0.5-0.5h5.7c0.3,0,0.5,0.2,0.5,0.5v0.7c0,0.3-0.2,0.5-0.5,0.5h-3.4c-0.3,0-0.5,0.2-0.5,0.5v4.8
		c0,0.3,0.2,0.4,0.5,0.3l2.2-0.9c0.2-0.1,0.5,0,0.5,0.3v1c0,0.3-0.2,0.6-0.5,0.7l-2.2,0.9C260.7,429.1,260.5,429.4,260.5,429.7
		L260.5,429.7z"/>
	<path d="M284,424.3c0,2.2-0.7,3.5-1.9,4.3c-0.2,0.1-0.3,0.3-0.3,0.5c0,0.1,0,0.1,0,0.2l2.3,5.8c0,0,0,0.1,0,0.2
		c0,0.1-0.1,0.3-0.3,0.3h-1.5c-0.3,0-0.5-0.2-0.6-0.5l-1.9-5.1c-0.1-0.3-0.4-0.4-0.6-0.4h-0.9c-0.3,0-0.5,0.2-0.5,0.5v5
		c0,0.3-0.2,0.5-0.5,0.5h-1.3c-0.3,0-0.5-0.2-0.5-0.5c0,0,0,0,0,0v-14.7c0-0.3,0.2-0.5,0.5-0.5h2.5C281.9,419.8,284,421,284,424.3
		L284,424.3z M278.4,427.7h0.7c1.6,0,2.6-1.2,2.6-3.3c0-2.2-1.4-3-2.5-3h-0.8c-0.3,0-0.5,0.2-0.5,0.5c0,0,0,0,0,0v5.3
		C277.9,427.5,278.1,427.7,278.4,427.7L278.4,427.7z"/>
	<path d="M295.1,435v-14.7c0-0.3,0.2-0.5,0.5-0.5h1.3c0.3,0,0.5,0.2,0.5,0.5V435c0,0.3-0.2,0.5-0.5,0.5h-1.3
		C295.3,435.5,295.1,435.3,295.1,435C295.1,435,295.1,435,295.1,435z"/>
	<path d="M312.9,431.8v-11.5c0-0.3,0.2-0.5,0.5-0.5h1.3c0.3,0,0.5,0.2,0.5,0.5v11.8c0,2.9-1.5,3.7-4,3.7c-2.3,0-3.4-1.6-3.4-2.6
		c0-0.2,0.2-0.4,0.4-0.4h1c0.6,0,0.8,1.3,2.1,1.3c1.2,0,1.5-0.8,1.5-1.3C312.9,432.6,312.9,432.2,312.9,431.8L312.9,431.8z"/>
	<path d="M342.9,425c1.5,0,2.8,1.2,2.8,2.8c0,1.5-1.2,2.8-2.8,2.8c-1.5,0-2.8-1.2-2.8-2.8C340.1,426.3,341.4,425,342.9,425z"/>
	<path d="M380,427.7c0,5.8-0.4,7.8-5.3,7.8h-3.5c-0.3,0-0.5-0.2-0.5-0.5v-14.7c0-0.3,0.2-0.5,0.5-0.5h3.4c1.3,0,2.2,0.2,3,0.5
		C379.8,421.3,380,423.7,380,427.7L380,427.7z M377.6,427.7c0-4.5-0.1-6.3-3-6.3h-1.2c-0.3,0-0.5,0.2-0.5,0.5v11.4
		c0,0.3,0.2,0.5,0.5,0.5h1.3c1.3,0,2-0.5,2.4-1.4C377.6,431.3,377.6,429.9,377.6,427.7z"/>
	<path d="M393,429.7v3.7c0,0.3,0.2,0.5,0.5,0.5h3.5c0.3,0,0.5,0.2,0.5,0.5v0.6c0,0.3-0.2,0.5-0.5,0.5h-5.8c-0.3,0-0.5-0.2-0.5-0.5
		v-14.7c0-0.3,0.2-0.5,0.5-0.5h5.7c0.3,0,0.5,0.2,0.5,0.5v0.7c0,0.3-0.2,0.5-0.5,0.5h-3.4c-0.3,0-0.5,0.2-0.5,0.5v4.8
		c0,0.3,0.2,0.4,0.5,0.3l2.2-0.9c0.2-0.1,0.5,0,0.5,0.3v1c0,0.3-0.2,0.6-0.5,0.7l-2.2,0.9C393.2,429.1,393,429.4,393,429.7
		L393,429.7z"/>
	<path d="M414.5,430c0,0,0-0.1,0-0.2l-0.1-9.5c0-0.3,0.2-0.5,0.5-0.5h1.3c0.3,0,0.5,0.2,0.5,0.5V435c0,0.3-0.2,0.5-0.5,0.5h-1.4
		c-0.3,0-0.5-0.2-0.7-0.4l-3.7-9.4c0-0.1-0.1-0.2-0.1-0.2s0,0.1,0,0.2l0.1,9.3c0,0.3-0.2,0.5-0.5,0.5h-1.3c-0.3,0-0.5-0.2-0.5-0.5
		v-14.7c0-0.3,0.2-0.5,0.5-0.5h1.4c0.3,0,0.6,0.2,0.7,0.5l3.7,9.5C414.4,429.9,414.4,430,414.5,430L414.5,430z"/>
	<path d="M437.2,427.7c0,5.8-0.4,7.8-5.3,7.8h-3.5c-0.3,0-0.5-0.2-0.5-0.5v-14.7c0-0.3,0.2-0.5,0.5-0.5h3.4c1.3,0,2.2,0.2,3,0.5
		C436.9,421.3,437.2,423.7,437.2,427.7L437.2,427.7z M434.8,427.7c0-4.5-0.1-6.3-3-6.3h-1.2c-0.3,0-0.5,0.2-0.5,0.5v11.4
		c0,0.3,0.2,0.5,0.5,0.5h1.3c1.3,0,2-0.5,2.4-1.4C434.7,431.3,434.8,429.9,434.8,427.7L434.8,427.7z"/>
	<path d="M450.2,429.7v3.7c0,0.3,0.2,0.5,0.5,0.5h3.5c0.3,0,0.5,0.2,0.5,0.5v0.6c0,0.3-0.2,0.5-0.5,0.5h-5.8c-0.3,0-0.5-0.2-0.5-0.5
		v-14.7c0-0.3,0.2-0.5,0.5-0.5h5.7c0.3,0,0.5,0.2,0.5,0.5v0.7c0,0.3-0.2,0.5-0.5,0.5h-3.4c-0.3,0-0.5,0.2-0.5,0.5v4.8
		c0,0.3,0.2,0.4,0.5,0.3l2.2-0.9c0.2-0.1,0.5,0,0.5,0.3v1c0,0.3-0.2,0.6-0.5,0.7l-2.2,0.9C450.4,429.1,450.2,429.4,450.2,429.7
		L450.2,429.7z"/>
	<path d="M473.7,424.3c0,2.2-0.7,3.5-1.9,4.3c-0.2,0.1-0.3,0.3-0.3,0.5c0,0.1,0,0.1,0,0.2l2.3,5.8c0,0,0,0.1,0,0.2
		c0,0.1-0.1,0.3-0.3,0.3H472c-0.3,0-0.6-0.2-0.7-0.5l-1.9-5.1c-0.1-0.3-0.4-0.4-0.6-0.4h-0.9c-0.3,0-0.5,0.2-0.5,0.5v5
		c0,0.3-0.2,0.5-0.5,0.5h-1.3c-0.3,0-0.5-0.2-0.5-0.5v-14.7c0-0.3,0.2-0.5,0.5-0.5h2.5C471.6,419.8,473.7,421,473.7,424.3
		L473.7,424.3z M468.1,427.7h0.7c1.6,0,2.6-1.2,2.6-3.3c0-2.2-1.4-3-2.5-3h-0.8c-0.3,0-0.5,0.2-0.5,0.5c0,0,0,0,0,0v5.3
		C467.6,427.5,467.8,427.7,468.1,427.7L468.1,427.7z"/>
	<path d="M490.3,431c0,0,0.1,0,0.1-0.2l2.5-10.5c0.1-0.3,0.3-0.5,0.6-0.5h2c0.3,0,0.5,0.2,0.5,0.5V435c0,0.3-0.2,0.5-0.5,0.5h-1.3
		c-0.3,0-0.5-0.2-0.5-0.5l0.2-9.2c0-0.1,0-0.2,0-0.2c0,0,0,0.1-0.1,0.2l-2.2,9.2c0,0.3-0.3,0.5-0.6,0.5h-1.3c-0.3,0-0.5-0.2-0.6-0.5
		l-2.2-9.2c0-0.1-0.1-0.2-0.1-0.2c0,0,0,0.1,0,0.2l0.1,9.2c0,0.3-0.2,0.5-0.5,0.5H485c-0.3,0-0.5-0.2-0.5-0.5v-14.7
		c0-0.3,0.2-0.5,0.5-0.5h2.1c0.3,0,0.5,0.2,0.6,0.5l2.4,10.5C490.2,430.9,490.2,431,490.3,431L490.3,431z"/>
	<path d="M516.3,427.7c0,5,0.1,8.1-4.7,8.1c-4.6,0-4.8-2.8-4.8-8.1s0.2-8.2,4.8-8.2c2.3,0,3.5,0.7,4.1,2
		C516.3,422.9,516.3,424.9,516.3,427.7z M513.9,427.7c0-4.7-0.1-6.5-2.3-6.5s-2.4,1.8-2.4,6.5c0,4.6,0.2,6.4,2.4,6.4
		c1.6,0,2.1-0.9,2.2-3.5C513.9,429.8,513.9,428.9,513.9,427.7L513.9,427.7z"/>
	<path d="M533.7,430c0,0,0-0.1,0-0.2l-0.1-9.5c0-0.3,0.2-0.5,0.5-0.5h1.3c0.3,0,0.5,0.2,0.5,0.5V435c0,0.3-0.2,0.5-0.5,0.5H534
		c-0.3,0-0.5-0.2-0.7-0.4l-3.7-9.4c0-0.1-0.1-0.2-0.1-0.2s0,0.1,0,0.2l0.1,9.3c0,0.3-0.2,0.5-0.5,0.5h-1.3c-0.3,0-0.5-0.2-0.5-0.5
		v-14.7c0-0.3,0.2-0.5,0.5-0.5h1.4c0.3,0,0.6,0.2,0.7,0.5l3.7,9.5C533.6,429.9,533.6,430,533.7,430L533.7,430z"/>
	<path d="M556.3,427.7c0,5.8-0.4,7.8-5.3,7.8h-3.5c-0.3,0-0.5-0.2-0.5-0.5v-14.7c0-0.3,0.2-0.5,0.5-0.5h3.4c1.3,0,2.2,0.2,3,0.5
		C556.1,421.3,556.3,423.7,556.3,427.7L556.3,427.7z M554,427.7c0-4.5-0.1-6.3-3-6.3h-1.2c-0.3,0-0.5,0.2-0.5,0.5v11.4
		c0,0.3,0.2,0.5,0.5,0.5h1.3c1.3,0,2-0.5,2.4-1.4C553.9,431.3,554,429.9,554,427.7L554,427.7z"/>
	<path d="M569.3,429.7v3.7c0,0.3,0.2,0.5,0.5,0.5h3.5c0.3,0,0.5,0.2,0.5,0.5v0.6c0,0.3-0.2,0.5-0.5,0.5h-5.8c-0.3,0-0.5-0.2-0.5-0.5
		v-14.7c0-0.3,0.2-0.5,0.5-0.5h5.7c0.3,0,0.5,0.2,0.5,0.5v0.7c0,0.3-0.2,0.5-0.5,0.5h-3.4c-0.3,0-0.5,0.2-0.5,0.5v4.8
		c0,0.3,0.2,0.4,0.5,0.3l2.2-0.9c0.2-0.1,0.5,0,0.5,0.3v1c0,0.3-0.2,0.6-0.5,0.7l-2.2,0.9C569.5,429.1,569.3,429.4,569.3,429.7
		L569.3,429.7z"/>
	<path d="M316.1,44.2l3.1,6.3l7,1l-5.1,4.9l1.2,7l-6.2-3.3l-6.2,3.3l1.2-7l-5-4.9l7-1L316.1,44.2z"/>
</g>
</svg>
