<?xml version="1.0" encoding="utf-8"?>
<!-- Generator: Adobe Illustrator 25.2.0, SVG Export Plug-In . SVG Version: 6.00 Build 0)  -->
<svg version="1.1" xmlns="http://www.w3.org/2000/svg" xmlns:xlink="http://www.w3.org/1999/xlink" x="0px" y="0px" width="320px"
	 height="320px" viewBox="0 0 320 320" style="enable-background:new 0 0 320 320;" xml:space="preserve">
<g id="Background">
	
		<radialGradient id="SVGID_1_" cx="5.8138" cy="5.2091" r="17.912" gradientTransform="matrix(11.0257 0 0 7.7061 95.8993 119.8582)" gradientUnits="userSpaceOnUse">
		<stop  offset="1.500496e-02" style="stop-color:#90BE0C"/>
		<stop  offset="0.559" style="stop-color:#8DB50D"/>
		<stop  offset="1" style="stop-color:#89AA0E"/>
	</radialGradient>
	<rect style="fill:url(#SVGID_1_);" width="320" height="320"/>
</g>
<g id="Ajuinvrij">
	<path style="fill:#FFFFFF;" d="M269.6,173.3l10-13.3l-10-13.3l6.5-15.3l-12.9-10.5l2.7-16.4l-15-7.1l-1.3-16.6l-16.3-3.3L228,61.6
		l-16.6,0.7l-8.9-14.1l-16,4.6l-12-11.5L160,49.6l-14.4-8.3l-12,11.5l-16-4.6l-8.9,14.1L92,61.6l-5.3,15.8l-16.3,3.3l-1.3,16.6
		l-15,7.1l2.7,16.4l-12.9,10.5l6.5,15.3l-10,13.3l10,13.3l-6.5,15.3l12.9,10.5l-2.7,16.4l15,7.1l1.3,16.6l16.3,3.3l5.3,15.8
		l16.6-0.7l8.9,14.1l16-4.6l12,11.5l14.4-8.3l14.4,8.3l12-11.5l16,4.6l8.9-14.1l16.6,0.7l5.3-15.8l16.3-3.3l1.3-16.6l15-7.1
		l-2.7-16.4l12.9-10.5L269.6,173.3z M160,266c-58.5,0-106-47.5-106-106c0-58.5,47.5-106,106-106s106,47.5,106,106
		C266,218.5,218.5,266,160,266z M160,58c-56.2,0-102,45.8-102,102s45.8,102,102,102s102-45.8,102-102S216.2,58,160,58z M160,258
		c-54,0-98-44-98-98c0-54,44-98,98-98s98,44,98,98C258,214,214,258,160,258z M239.8,148.3V164c0,4.5-2.4,8.2-7.5,8.2
		c-3.6,0-6-1.4-7.6-4.2l3.6-2.7c0.9,1.6,2.1,2.3,3.3,2.3c1.9,0,2.9-1,2.9-4.1v-15.2H239.8z M217.1,148.3v23.5h5.3v-23.5H217.1z
		 M214.1,171.8h-5.9l-4.5-8.5h-2.9v8.5h-5.3v-23.5h8.5c5,0,9,1.7,9,7.3c0,3.5-1.7,5.6-4.2,6.8L214.1,171.8z M207.7,155.6
		c0-2.3-1.5-3.1-4.3-3.1h-2.7v6.6h2.7C206.2,159.1,207.7,157.9,207.7,155.6z M187.7,148.3l-2.8,10.9c-0.7,2.6-1.2,4.9-1.9,7.5h-0.1
		c-0.7-2.6-1.2-5-1.9-7.5l-2.8-10.9h-5.6l7.1,23.5h6.4l7.1-23.5H187.7z M165.2,148.3v8.3c0,2.8,0.4,6.1,0.7,8.5h-0.2l-2.3-5.2
		l-6.1-11.7h-5.4v23.5h5v-8.3c0-2.8-0.4-5.9-0.7-8.5h0.2l2.3,5.1l6.1,11.7h5.4v-23.5H165.2z M142,148.3v23.5h5.3v-23.5H142z
		 M132.3,148.3v13.1c0,4.6-1.5,6.2-4.2,6.2s-4.1-1.6-4.1-6.2v-13.1h-5.3v12.6c0,7.9,3.3,11.3,9.4,11.3s9.3-3.4,9.3-11.3v-12.6H132.3
		z M109.1,148.3v15.2c0,3.1-1,4.1-2.9,4.1c-1.2,0-2.4-0.7-3.3-2.3l-3.6,2.7c1.6,2.8,4,4.2,7.6,4.2c5.2,0,7.5-3.7,7.5-8.2v-15.7
		H109.1z M98.6,171.8H93l-1.4-5.6h-7.1l-1.5,5.6h-5.4l7.4-23.5h6.3L98.6,171.8z M90.5,162l-0.6-2.2c-0.6-2.4-1.3-5.1-1.9-7.6h-0.2
		c-0.6,2.5-1.2,5.2-1.8,7.6l-0.6,2.2H90.5z M226,177.4h-21.5c-3.2,22-16.5,30.3-29.4,34.2c14.8-5.8,23.6-20.1,24.6-34.2h-79.4
		c0.9,14.2,9.8,28.4,24.6,34.2c-12.9-3.9-26.2-12.3-29.4-34.2H94c3.5,25.1,25.3,45.3,53.5,50c-1.1,3.5-2.9,6.3-3.7,7.7
		c1-1.3,3.4-3.8,5-7.5c0.5,0.1,0.9,0.2,1.4,0.2c0.1,0.4,0.1,0.9,0.1,1.3c0.3,2.8,0.1,5.8-1,8.1c-1,2.3-2.6,3.8-3.6,4.6
		c1-0.7,2.9-2,4.3-4.2c1.4-2.3,2.2-5.5,2.3-8.5c0-0.3,0-0.7,0-1c0.7,0.1,1.3,0.1,2,0.2c0.1,0.8,0.1,1.5,0.1,2.3
		c0.1,5.7-2.1,11.7-2.9,14c1.2-2.2,4.2-7.8,5-13.9c0.1-0.8,0.2-1.6,0.2-2.3c0.7,0,1.5,0,2.2,0c0.4,1,0.7,2,0.8,3
		c0.3,2.9-1.5,6-2.5,8c-1,1.9-1.6,3.7-1.4,5.3c0.2,1.5,0.8,2.7,1.2,3.4c-0.4-0.8-0.8-2-0.7-3.4c0.1-1.4,1.1-3.1,2.1-4.6
		c1.6-2.7,3.9-5.5,4.1-8.8c0-1-0.2-1.9-0.5-2.7c0.5,0,1.1,0,1.6,0c0.6,1.6,1.2,3.1,1.7,4.6c0.9,2.7,1.4,5.6,0.9,8.1
		c-0.5,2.5-1.7,4.3-2.4,5.3c0.9-0.9,2.4-2.5,3.2-5.1c0.9-2.5,0.9-5.8,0.3-8.8c-0.3-1.4-0.6-2.8-1-4.2c0.6,0,1.1-0.1,1.7-0.2
		c0,0.9,0.1,1.8,0.3,2.7c1.2,6.7,5.6,10.8,7.2,12.6c-1.3-1.9-4.9-7.1-5.2-12.6c-0.1-1-0.1-2,0-3c0.5-0.1,1-0.2,1.6-0.2
		c0.1,0.3,0.2,0.5,0.2,0.8c0.6,1.9,1.1,3.9,1.9,5.7c0.4,0.9,0.9,1.7,1.6,2.4c0.7,0.6,1.6,1,2.4,1c1.6,0,2.7-0.7,3.5-1.1
		c-0.8,0.3-2.1,0.7-3.4,0.5c-1.4-0.2-2.3-1.5-2.8-3.2c-0.4-1.7-0.6-3.7-0.9-5.8c0-0.2-0.1-0.5-0.1-0.7
		C201.6,221.9,222.6,202,226,177.4z M190.1,140.6h22.3c-6.1-5.9-13.4-10.7-19.9-14.9c-3.9-2.5-7.3-5-10.4-7.6
		c-13.2-11.8-7.4-20.2-4.7-23.4c-6.3,2.3-8.2,4.5-9.4,8c-4.7-8-6.3-16,1.6-30.8c-11.1,9.5-12.7,13.6-14.3,26.2
		c-3.1-10.3-6-12.5-17-18.2c9.4,9.1,16.4,22.8,0.4,37.6c-3.2,2.8-6.9,5.5-11.1,8.2c-6.6,4.2-13.8,9-19.9,14.9h22.3
		c2.7-2.8,5.6-5.4,8.7-7.6c-2.4,2.1-4.7,4.7-6.8,7.6h56.3c-2.1-2.9-4.4-5.4-6.8-7.6C184.4,135.3,187.4,137.8,190.1,140.6z"/>
</g>
</svg>
