<?xml version="1.0" encoding="utf-8"?>
<!-- Generator: Adobe Illustrator 27.4.1, SVG Export Plug-In . SVG Version: 6.00 Build 0)  -->
<svg version="1.1" id="Laag_8" xmlns="http://www.w3.org/2000/svg" xmlns:xlink="http://www.w3.org/1999/xlink" x="0px" y="0px"
	 viewBox="0 0 453.5 453.5" style="enable-background:new 0 0 453.5 453.5;" xml:space="preserve">
<path d="M78.1,118.5l3.4,2.7l1.9-2.4l3.7,3l-6.5,8l-3.7-3c1-1.2,1.3-1.6,1.5-1.9l-10.1-8.1c-0.4,0.5-0.5,0.7-1.5,1.9l-3.7-3
	c0,0,9.5-12.2,9.8-12.6c4-5,7.7-5.5,10.9-3c2.5,2,3.5,6.5,0.4,10.4L78.1,118.5z M71.3,113l3.4,2.7l5.6-7c1.3-1.6,1.2-3,0.2-3.9
	c-1-0.8-2.3-0.5-3.6,1.1C76.5,106.4,71.3,113,71.3,113z M94.9,99.7l-6.2-7l-2,1.8l-3.2-3.6l7.7-6.8l3.2,3.6l-2,1.8l5.4,6.1
	c2.4,2.7,4.9,2.8,8.1,0c3.2-2.8,3.3-5.4,1-8l-5.4-6.1l-2,1.8l-3.2-3.6l7.7-6.8l3.2,3.6l-2,1.8l6.2,7c3.6,4.1,3,9.5-2.1,14.1
	C104,103.8,98.5,103.8,94.9,99.7z M130.3,70.8l-6.8,4.2l2.4,3.8l2.6-1.6l2.5,4l-8.7,5.5l-2.5-4c1.3-0.8,1.7-1.1,2-1.3l-6.9-11
	c-0.6,0.4-1.2,0.8-2,1.3l-2.7-4.3c14-8.8,14.2-8.9,14.5-9.1c4.3-2.7,8.6-2,10.6,1.3c1.7,2.7,1.4,5.6-0.8,7.7l3.3,2.9
	c0.8,0.8,1.7,0.6,2.4,0.2c0.5-0.3,0.9-0.8,1.1-1.2l2.5,4c-0.9,1.1-1.8,1.9-2.7,2.5c-2.3,1.4-4.4,1-6.3-0.8L130.3,70.8z M121.3,71.5
	l7.7-4.8c1.7-1.1,2.1-2.4,1.4-3.6c-0.7-1.1-2-1.3-3.6-0.3c-0.1,0-0.1,0.1-7.7,5L121.3,71.5z M165.2,58.8l-1.2-3l4.4-1.8
	c0,0,3,7.4,3,7.5l-22.9,9.4l-1.8-4.4l2.2-0.9l-4.9-12l-2.2,0.9l-1.8-4.4l22.4-9.1l2.7,6.6l-4.5,1.8l-0.9-2.2l-11.1,4.6l1.4,3.3
	l7.2-2.9l1.9,4.6l-7.2,2.9l1.6,4L165.2,58.8z M198.5,31.9l11.6,16.3c0.3,0,0.6-0.1,2.4-0.4l0.8,4.7l-9.6,1.6
	c-0.3-1.6-0.5-2.7-0.8-4.2l2-0.7l-1.7-2.3l-9.4,1.6l-0.8,2.7l2.1,0c0.2,1.6,0.4,2.8,0.6,4.3l-9.6,1.6l-0.8-4.7
	c1.7-0.3,2.1-0.3,2.4-0.4l5.7-19.2L198.5,31.9z M200.1,42.6c-1.1-1.5-2.1-3-3.1-4.5l-0.5,0.1c-0.5,1.7-1,3.6-1.5,5.3L200.1,42.6z
	 M226.2,30.1l6.4,13.9l6.7-13.7l8.6,0.1l-0.1,4.8l-2.4,0L245.2,48l2.4,0l-0.1,4.8l-10.3-0.1l0.1-4.4l3-0.3l0.1-9.2l-6.9,13.9l-2.2,0
	l-6.6-14l-0.1,9.2l3,0.4l-0.1,4.4l-10.3-0.1l0.1-4.8l2.4,0l0.2-12.9l-2.4,0l0.1-4.8L226.2,30.1z M257.8,31.8c0,0,14.1,2.8,14.5,2.9
	c4.4,0.9,8.7,2.8,7.5,8.2c-0.4,1.6-1.4,2.6-2.6,3.6c1,1.5,1.5,3.3,1.1,5.1c-1.4,6.3-7.1,6.5-11.2,5.6c-0.4-0.1-14.2-3.3-14.2-3.3
	l1-4.7c1.5,0.3,1.6,0.4,2.3,0.6l2.8-12.8c-0.3-0.1-2.4-0.4-2.4-0.4L257.8,31.8z M262.1,46.4l-1,4.4c0,0,6.5,1.5,7.4,1.7
	c1.9,0.4,4,0.4,4.5-1.7c0.4-1.7-1.8-2.4-3.6-2.8L262.1,46.4z M263.1,41.7l8.3,1.8c1.6,0.4,2.7-0.5,2.9-1.5c0.2-1-0.3-2-2-2.4
	c0,0-0.1,0-8.4-1.7L263.1,41.7z M303.8,44.5l1.8,20c0.3,0.1,0.6,0.3,2.2,0.9l-1.7,4.5l-9.1-3.5c0.5-1.5,0.9-2.6,1.4-4.1l2,0.4
	l-0.3-2.9l-8.9-3.4l-2.1,1.9l1.8,1c-0.6,1.5-1.1,2.6-1.7,4l-9.1-3.5l1.7-4.5c1.6,0.6,2,0.7,2.3,0.8l14.6-13.7L303.8,44.5z
	 M299.9,54.6c-0.2-1.8-0.3-3.7-0.4-5.5L299,49c-1.3,1.2-2.6,2.6-3.9,3.8L299.9,54.6z M335.8,62.4l0.9-0.5l3.6,2.2l-4,6.8l-3.9-2.3
	l0.5-1.4c-0.3-2.3-2.2-4-4-5.1c-3.8-2.2-7.5-1.5-9.7,2.3c-2.4,4-0.8,7.9,3,10.1c2.9,1.7,6.2,1.2,8.4-1.1l2.5,3.6
	c-3.7,5.1-9.7,4-14,1.5c-6.2-3.7-8-10.7-4.4-16.8c3.9-6.6,10.7-7.3,16.8-3.7C333.2,59.1,334.8,60.4,335.8,62.4z M368,86.4l-3.1,3.7
	l-1.8-1.5l-8.3,9.9l1.8,1.5l-3.1,3.6l-7.9-6.7l2.9-3.4l2.5,1.7l2.8-3.3l-8.9-7.5l-2.8,3.3l2.1,2.2l-2.9,3.4l-7.8-6.6l3.1-3.6
	l1.8,1.5l8.3-9.9l-1.8-1.5l3.1-3.7l7.8,6.6l-2.9,3.4l-2.5-1.7l-2.3,2.8l8.9,7.5l2.3-2.8l-2.1-2.2l2.9-3.4L368,86.4z M389,110.5
	l-5.5,4.6l-3.1-3.7l1.8-1.5l-3-3.5l-9.9,8.3l1.7,2.1l-3.6,3.1l-6.6-7.9l3.6-3.1l1.7,2.1l9.9-8.3l-3-3.5l-1.8,1.5l-3.1-3.7l5.5-4.6
	L389,110.5z M136.1,397.1c0.3,0.2,0.6,0.3,0.8,0.3l-1,1.8c-4.2-1.1-4-6-4.7-13.1l-6.2,0.5l-2.5,4l-1.8-1.1l9.1-14.3l1.8,1.1
	l-5.3,8.3l16.2-1.3l2.8,1.8l-11.9,0.9C133.5,392.1,134.4,395.9,136.1,397.1z M156.9,409l-14.2-6.5l7.1-15.4l13.8,6.3l-0.9,1.9
	l-11.9-5.4l-2.1,4.7l10,4.6l-0.9,1.9l-10-4.6l-2.3,5.1l12.3,5.6L156.9,409z M165.4,405.7l3.1-10.2l2,0.6l-3,9.8
	c-0.9,3.1,0.5,5.6,4.4,6.8c3.8,1.2,6.5-0.1,7.4-3.2l3-9.8l2,0.6l-3.1,10.2c-1.2,3.9-5,5.7-9.9,4.2S164.2,409.6,165.4,405.7z
	 M190.3,419.1l-2.1-0.4l2.9-16.7l10,1.7c4.3,0.7,6.2,2.9,5.7,5.9c-0.5,2.7-3.2,4.3-5.9,4.1c0.5,4.9,1.2,5.8,2.5,6
	c0.5,0.1,1.1,0,1.7-0.1l-0.3,2c-1,0.1-1.8,0.2-2.5,0c-2.2-0.4-2.9-1.9-3.5-8.1l-7.3-1.3L190.3,419.1z M199.9,411.9
	c2.5,0.4,4.1-1,4.4-2.5c0.3-1.9-0.9-3.2-4-3.7c-1.9-0.3-3.9-0.6-7.5-1.2l-1,6.1L199.9,411.9z M211.7,418.1l1.8-0.6
	c0.6,3,3.8,3.8,6.6,3.9c2.5,0.1,6.4-0.4,6.6-3.3c0.2-5.1-14.9-0.5-14.6-7.6c0.2-4.2,5.4-5.2,8.6-5.1c3.6,0.2,7.6,1.2,8.2,5.4
	l-1.8,0.6c-0.6-3-3.7-3.9-6.6-4.1c-2.6-0.1-5.9,0.5-6,3c-0.2,4.5,14.8,0.5,14.4,7.6c-0.2,4.6-5,5.7-8.7,5.6
	C216.6,423.4,212.3,422.4,211.7,418.1z M251.2,422.4l-14.3,0.8l-1-17l2.1-0.1l0.9,14.9l12.2-0.7L251.2,422.4z M268.9,413.9l-9.3,1.7
	l-1.7,6.1l-2.2,0.4l5.1-18.2l2.8-0.5l11.3,15.1l-2.2,0.4L268.9,413.9z M260.2,413.5l7.3-1.4l-4.8-6.5l-0.3,0.1L260.2,413.5z
	 M279.4,408.6c1.2,4.1,4.9,5.8,8.9,4.6c3.4-1,5-3.8,4.5-7.3l-6.3,1.9l-0.6-1.8l8.5-2.6c2,7-1.4,10.6-5.7,11.9
	c-5.2,1.6-9.9-0.9-11.5-6c-1.7-5.4,1.1-9.8,6.3-11.3c3.5-1.1,7.8-0.8,9.8,3l-1.5,1.2c-1.6-2.6-4.9-3.1-7.7-2.3
	C280,401.2,278.1,404.5,279.4,408.6z M318.9,402.5l-14.2,6.6l-7.1-15.4l13.7-6.4l0.9,1.9l-11.9,5.5l2.2,4.7l10-4.6l0.9,1.9l-10,4.6
	l2.4,5.1l12.3-5.7L318.9,402.5z M327.3,397.7l-1.8,1.1l-9.3-14.2l8.5-5.6c3.6-2.4,6.5-2.1,8.2,0.4c1.5,2.3,0.6,5.3-1.5,7
	c3.7,3.3,4.8,3.4,5.9,2.7c0.4-0.3,0.8-0.8,1.2-1.3l1.1,1.7c-0.6,0.8-1.2,1.4-1.8,1.7c-1.8,1.2-3.4,0.6-8.1-3.6l-6.2,4.1L327.3,397.7
	z M329.4,385.8c2.1-1.4,2.3-3.5,1.5-4.8c-1-1.6-2.9-1.7-5.4,0c-1.6,1.1-3.3,2.2-6.3,4.2l3.4,5.2L329.4,385.8z M78.8,205.6l-5.4-5.4
	c-1.1-1.1-2.5-1.1-2.5-1.1H40.6c-0.8,0-1.3,0.6-1.3,1.3v64.2c0,0.8,0.6,1.3,1.3,1.3H71c0,0,1.3,0.1,2.5-1.1l5.4-5.4
	c1.1-1.1,1.1-2.5,1.1-2.5v-18.3h-0.1c-0.1-0.5-0.3-1.1-1-1.7l-3.7-3.7l3.7-3.8c1.1-1.1,1.1-2.5,1.1-2.5v-19
	C79.9,208.1,80,206.8,78.8,205.6z M65.8,250c0,0.2-0.1,0.4-0.3,0.7l-1.3,1.3H53.3v-12.3h10c0.1,0,0.4,0.1,0.6,0.3l1.6,1.6
	c0.3,0.3,0.3,0.7,0.3,0.7V250z M65.8,223.6c0,0.2-0.1,0.4-0.3,0.7l-1.3,1.3H53.3v-12.3h10c0.1,0,0.4,0,0.6,0.3l1.6,1.6
	c0.3,0.3,0.3,0.7,0.3,0.7V223.6z M96.3,264.7l2.3-7.8h19.2l2.3,7.8c0.3,0.7,1,1.3,1.7,1.3h10.9c0.8,0,1.6-0.7,1.4-1.3
	c-6.3-21.3-12.6-42.8-18.9-64.1v-0.1c-0.3-0.9-0.7-1.3-1.3-1.3h-4.2h-3h-4.2c-0.7,0-1,0.5-1.3,1.3v0.1l-18.9,64.1
	c-0.2,0.7,0.7,1.3,1.4,1.3h10.9C95.3,266.1,96,265.4,96.3,264.7z M108.3,224.5l5.7,19.6h-11.6L108.3,224.5z M131.2,213.5h12.2v51.5
	c0.1,0.7,0.7,1.1,1.3,1.1h11.3c0.7,0,1.2-0.5,1.3-1.1v-51.5h12.1c0.8,0,1.4-0.6,1.4-1.3v-11.3c0-0.8-0.7-1.4-1.4-1.4h-38.3
	c-0.8,0-1.4,0.7-1.4,1.4v11.3C129.7,212.9,130.4,213.5,131.2,213.5z M176.3,259.7l5.4,5.4c1.1,1.1,2.5,1.1,2.5,1.1h24.8
	c0,0,1.3,0.1,2.5-1.1l5.4-5.4c1.1-1.1,1.1-2.5,1.1-2.5v-22.7c0,0,0.1-1.3-1.1-2.5l-5.4-5.4c-1.1-1.2-2.5-1.1-2.5-1.1H191l-1.3-1.3
	c-0.4-0.4-0.3-0.8-0.3-0.8l-0.1,0.1v-7.8c0,0,0-0.4,0.4-0.8l1.5-1.5c0.3-0.3,0.5-0.3,0.7-0.3h11.9v4.8c0,0.8,0.6,1.3,1.3,1.3h11.3
	c0.8,0,1.4-0.6,1.4-1.3v-9.9l-0.1-0.1h0.1c0,0,0.1-1.3-1.1-2.5l-5.4-5.4c-1.1-1.2-2.5-1.1-2.5-1.1h-24.8c0,0-1.3-0.2-2.5,1.1
	l-5.4,5.4c-1.1,1.1-1,2.5-1,2.5h-0.1v22.7h0.1c0,0-0.2,1.3,1,2.5l5.4,5.4c1.1,1.1,2.5,1.1,2.5,1.1h17.2c0.2,0,0.3,0.1,0.5,0.3
	l1.6,1.5c0.3,0.4,0.3,0.8,0.3,0.8v7.2c0,0,0,0.4-0.3,0.8l-1.6,1.5c-0.2,0.2-0.3,0.3-0.5,0.3h-12.1v-4.3c0-0.8-0.6-1.3-1.3-1.3h-11.3
	c-0.8,0-1.4,0.6-1.4,1.3v9.3c0,0.1,0.1,0.2,0.1,0.2S175.1,258.5,176.3,259.7z M258.8,213.3c0.7,0,1.3-0.6,1.3-1.3v-11.4
	c0-0.8-0.7-1.3-1.3-1.3h-34.8c-0.8,0-1.3,0.6-1.3,1.3v64.2c0,0.8,0.6,1.3,1.3,1.3h34.8c0.7,0,1.3-0.6,1.3-1.3v-11.4
	c0-0.8-0.7-1.3-1.3-1.3h-22.1v-12.3h16.9c0.8,0,1.3-0.6,1.3-1.3v-11.4c0-0.8-0.6-1.3-1.3-1.3h-16.9v-12.3H258.8z M305.8,264.7v-11.4
	c0-0.7-0.7-1.3-1.4-1.3h-25.6v-51.5c-0.1-0.6-0.7-1.1-1.3-1.1h-11.3c-0.7,0-1.2,0.5-1.3,1.1h-0.1v64.2c0,0.8,0.7,1.3,1.4,1.3h38.3
	C305.1,266.1,305.8,265.5,305.8,264.7z M324,264.7v-63.9c0-0.8-0.6-1.3-1.3-1.3h-11.4c-0.8,0-1.3,0.6-1.3,1.3v63.9
	c0,0.8,0.6,1.3,1.3,1.3h11.4C323.4,266.1,324,265.5,324,264.7z M364.7,199.2h-34.8c-0.8,0-1.3,0.6-1.3,1.3v64.2
	c0,0.8,0.6,1.3,1.3,1.3h34.8c0.7,0,1.3-0.6,1.3-1.3v-11.4c0-0.8-0.7-1.3-1.3-1.3h-22.1v-12.3h16.9c0.8,0,1.3-0.6,1.3-1.3v-11.4
	c0-0.8-0.6-1.3-1.3-1.3h-16.9v-12.3h22.1c0.7,0,1.3-0.6,1.3-1.3v-11.4C366.1,199.8,365.4,199.2,364.7,199.2z M414.3,264.7l-9.8-24
	l0.3-0.2l5.5-5.5c1.1-1.1,1-2.5,1-2.5v-24.3c0,0,0.2-1.5-1-2.7l-5.5-5.5c-1.1-1.1-2.5-1-2.5-1h-30.4c-0.7,0-1.3,0.6-1.3,1.3v64.2
	c0,0.7,0.7,1.3,1.3,1.3h11.4c0.8,0,1.3-0.7,1.3-1.3v-23.2h4.4l9.4,23.2c0.3,0.7,1,1.3,1.7,1.3h12.8
	C413.6,266.1,414.5,265.4,414.3,264.7z M396.9,225.6l-1.5,1.5c-0.3,0.3-0.6,0.3-0.7,0.3h-10v-14.2h9.9c0,0,0.4-0.1,0.8,0.3l1.5,1.5
	c0.4,0.4,0.3,0.8,0.3,0.8v9C397.2,224.8,397.3,225.2,396.9,225.6z M240.1,137.2c0.4-1.5,0.9-2.7,1.6-3.5c-2.1,5.6-0.2,10.3,2.5,11.4
	c-0.6,1.2-0.9,2.5-0.8,3.8c0.8-2.2,3-3.5,4.8-3.7c0,0,0,0,0,0c1,0.1,2.1,0,3.2-0.3c1.7,0.2,4.5,0.9,7,2.2c0.4,0.4,0.8,0.8,1.3,1.1
	c1,0.6,2,0.6,2.9-0.1c1.9,0.2,3.2-1.6,2.8-3.8c1-1.9,0-3.8-1.9-4.8c0,0,0,0,0,0c0,0,0,0-0.1,0c0,0,0,0,0,0c-3.5-2.7-6.1-5-8.6-8.3
	c0.4,0.2,0.7,0.3,1.1,0.2c-0.2-0.2-0.4-0.4-0.5-0.7c0.2,0.1,0.9,0.2,1.1,0.2c-2-2.1-4-4.6-7.3-5.9c0.6-1.8,0.9-3.6,0.7-5.1
	c0-0.4-0.1-0.3-0.3,0c-0.5,1.1-1.2,2.3-1.9,3.3c0.2-1.1,0.2-2.5,0.2-3.6c-0.1-0.7-0.3-0.3-0.4-0.1c-0.8,1.9-2.5,3.3-3,4.9
	c0,0,0,0,0,0c0,0,0,0,0,0C241.5,128,240,134.4,240.1,137.2z M262.7,142.3c0.4-0.8,1.7-0.5,1.5,0.6c-0.1,0.5-0.7,0.7-1.2,0.4
	c0,0.2,0.1,0.4,0.2,0.7C262.6,143.6,262.5,142.8,262.7,142.3z M252.5,132.4c-1.2-0.1-1.9-1.2-3.6-1.5
	C250.9,130.8,251.4,131.7,252.5,132.4z M251.9,133.3c-0.2-0.1-0.5-0.2-0.8-0.3c0,0.5-0.3,0.9-0.8,0.9c-0.8,0.1-1.4-0.8-0.9-1.4
	c-0.6-0.2-1.2-0.4-1.9-0.5C249.4,131.6,251.2,131.9,251.9,133.3z M193.7,129.3c-1.3-0.4-2-1.2-2.6-2.2c-0.4-0.8-0.7-0.4-0.8-0.1
	c-0.6,1.6,1.1,3.2,2.5,3.6C193.1,130.1,193.3,129.7,193.7,129.3z M186.7,140.4c-0.9,0.1,0.2,3,0.7,3.4c1.1,0.2,2.3,0.2,3.1,0
	c-0.3,0.3-1.4,0.6-1.9,0.6c1.5,0.7,3.6,0.9,4.9,0.7c4.3,1.9,9.3,3.5,12.3-0.6c-0.3,1.2-0.8,1.9-1.9,2.8c8.9-0.8,7-14.4,3.4-16.5
	c1.3,0.6,2.4,2,3.3,3.6c-0.3-2.6-2.2-6.9-5.8-9.8c-2.4,0.1-10.1,3-11.5,6.1c0.7,0.3,1.2,0.5,2.1,0.6c-3.5,0.6-5.1-1.2-6.4-2.9
	c-0.3-0.3-0.5-0.2-0.6,0.2c-0.2,0.8,0.2,1.7,0.7,2.6c1.1,1.8,3.9,3.2,4,4.6c-0.3-0.4-0.7-0.8-1.2-1c-0.1,1.2-0.3,2.2-0.9,3.3
	c-1.1,1.2-2.2,1.9-3.7,2.5c0.1,0.2,0,0.5-0.1,0.6C187.3,141,187.1,140.3,186.7,140.4z M192.5,137.1c0.5-0.3,1.7,0.1,1.7,1
	c0,0.1,0,0.3-0.1,0.2c-0.1-0.1-0.1-0.2-0.2-0.2c-0.3,0.6-1.4,0.1-0.8-0.6C193,137.2,192.8,137.1,192.5,137.1
	C192.5,137.1,192.4,137.1,192.5,137.1z M263,306.7v0.9h4.6v-0.9h-1.8v-11.8H263v0.9h1.8v10.9H263z M270.3,304.5v1.4
	c0,1,0.8,1.8,1.8,1.8h1.8c1,0,1.8-0.8,1.8-1.8v-9.1c0-1-0.8-1.8-1.8-1.8h-1.8c-1,0-1.8,0.8-1.8,1.8v3.6c0,1,0.8,1.8,1.8,1.8h1.3
	c0.7,0,1.2-0.3,1.4-0.9v4.6c0,0.5-0.4,0.9-0.9,0.9h-1.8c-0.5,0-0.9-0.4-0.9-0.9v-1.4H270.3z M274,301.2h-1.8c-0.5,0-0.9-0.4-0.9-0.9
	v-3.6c0-0.5,0.4-0.9,0.9-0.9h1.8c0.5,0,0.9,0.4,0.9,0.9v3.6C274.9,300.8,274.5,301.2,274,301.2z M284.6,299.5v-2.8
	c0-1-0.8-1.8-1.8-1.8h-1.8c-1,0-1.8,0.8-1.8,1.8v2.8c0,0.7,0.3,1.2,0.9,1.4c-0.6,0.2-0.9,0.7-0.9,1.4v3.6c0,1,0.8,1.8,1.8,1.8h1.8
	c1,0,1.8-0.8,1.8-1.8v-3.6c0-0.7-0.3-1.2-0.9-1.4C284.2,300.7,284.6,300.2,284.6,299.5z M283.6,305.8c0,0.5-0.4,0.9-0.9,0.9h-1.8
	c-0.5,0-0.9-0.4-0.9-0.9v-3.6c0-0.5,0.4-0.9,0.9-0.9h1.8c0.5,0,0.9,0.4,0.9,0.9V305.8z M283.6,299.5c0,0.5-0.4,0.9-0.9,0.9h-1.8
	c-0.5,0-0.9-0.4-0.9-0.9v-2.8c0-0.5,0.4-0.9,0.9-0.9h1.8c0.5,0,0.9,0.4,0.9,0.9V299.5z M293.3,298.1v-1.4c0-1-0.8-1.8-1.8-1.8h-1.8
	c-1,0-1.8,0.8-1.8,1.8v9.1c0,1,0.8,1.8,1.8,1.8h1.8c1,0,1.8-0.8,1.8-1.8v-3.6c0-1-0.8-1.8-1.8-1.8h-1.3c-0.7,0-1.2,0.3-1.4,0.9v-4.6
	c0-0.5,0.4-0.9,0.9-0.9h1.8c0.5,0,0.9,0.4,0.9,0.9v1.4H293.3z M289.7,301.4h1.8c0.5,0,0.9,0.4,0.9,0.9v3.6c0,0.5-0.4,0.9-0.9,0.9
	h-1.8c-0.5,0-0.9-0.4-0.9-0.9v-3.6C288.8,301.8,289.2,301.4,289.7,301.4z M159.2,304v1.8c0,1,0.8,1.8,1.8,1.8h1.8
	c1,0,1.8-0.8,1.8-1.8v-1.6c0-0.8-0.3-1.4-0.7-1.8l-3.4-3.4c-0.3-0.3-0.4-0.7-0.4-1.1v-1.2c0-0.5,0.4-0.9,0.9-0.9h1.8
	c0.5,0,0.9,0.4,0.9,0.9v1.8h0.9v-1.8c0-1-0.8-1.8-1.8-1.8H161c-1,0-1.8,0.8-1.8,1.8v1.2c0,0.8,0.3,1.4,0.7,1.8l3.4,3.4
	c0.3,0.3,0.4,0.7,0.4,1.1v1.6c0,0.5-0.4,0.9-0.9,0.9H161c-0.5,0-0.9-0.4-0.9-0.9V304H159.2z M168,294.9v12.8h0.9v-12.8H168z
	 M177,307.6h0.7v-12.8h-0.9v9.8l-3.5-9.8h-1.1v12.8h0.9V297L177,307.6z M186.5,305.8v-9.1c0-1-0.8-1.8-1.8-1.8H181v12.8h3.6
	C185.7,307.6,186.5,306.8,186.5,305.8z M185.6,305.8c0,0.5-0.4,0.9-0.9,0.9h-2.7v-10.9h2.7c0.5,0,0.9,0.4,0.9,0.9V305.8z
	 M195.3,298.5v-1.8c0-1-0.8-1.8-1.8-1.8h-1.8c-1,0-1.8,0.8-1.8,1.8v1.2c0,0.8,0.3,1.4,0.7,1.8l3.4,3.4c0.3,0.3,0.4,0.7,0.4,1.1v1.6
	c0,0.5-0.4,0.9-0.9,0.9h-1.8c-0.5,0-0.9-0.4-0.9-0.9V304h-0.9v1.8c0,1,0.8,1.8,1.8,1.8h1.8c1,0,1.8-0.8,1.8-1.8v-1.6
	c0-0.8-0.3-1.4-0.7-1.8l-3.4-3.4c-0.3-0.3-0.4-0.7-0.4-1.1v-1.2c0-0.5,0.4-0.9,0.9-0.9h1.8c0.5,0,0.9,0.4,0.9,0.9v1.8H195.3z
	 M159.4,291.8h35.3V291h-35.3V291.8z M159.4,312h35.3v-0.8h-35.3V312z M293.1,291h-31v0.8h31V291z M293.1,311.3h-31v0.8h31V311.3z
	 M239.3,311.3c1.4,1.8,3.4-2,5.9,1.1c1.9,2.5,3.9,5.4,6.5,8.3c2,2.2,4.7,4,7,6.4c1.6,1.6,2.3,3.6,2.9,4.6c1.4,1.9,4.3-3.3,3.4-5.8
	c-0.3-0.9-0.9-1.8-1.7-2.6c-4.2-4.8-9.1-9-13.6-13.4c-2.2-2.2-1.7-2.9-2.5-3.8c-0.4-0.4-0.9-0.6-1.5-0.3c-1.6-1.8-3.1-3.6-4.7-5.4
	c6.8-8,12.2-15.8,14-23.4c-1,1.7-1.7,4.3-3.6,7.7c-0.3,0-0.7,0-1,0.1c0.3,0.1,0.5,0.3,0.7,0.5c-0.1,0.3-0.3,0.5-0.4,0.8
	c-0.3-0.1-0.7-0.1-1,0c0.3,0.1,0.6,0.2,0.8,0.5c-2,3.4-4.1,6.6-6.6,9.7c-0.2,0-0.4,0-0.6,0c0,0.3,0.1,0.4,0.2,0.6
	c-0.9,1.1-1.9,2.3-2.8,3.4c0,0,0,0,0,0c-0.2,0.2-0.3,0.4-0.5,0.6c0,0,0,0,0,0c-0.1,0.2-0.3,0.3-0.4,0.5c-2.1,2.4-4.2,4.7-6.3,7
	c-0.1,0.2-0.3,0.3-0.4,0.5c0-0.1,0-0.2-0.1-0.3c0,0,0,0,0-0.1c0,0,0,0,0,0c0,0,0,0,0,0c-0.3,0.8-1.4,1.7-2,2.4c0,0,0,0,0,0
	c-0.2,0-0.3-0.1-0.4-0.1c-0.1-0.1-0.2-0.1-0.3-0.2c0.1,0.2,0.2,0.5,0.4,0.6c-0.5,0.6-1.2,1.2-1.8,1.9c0,0,0,0,0,0
	c0,0-0.1,0.1-0.1,0.1c-0.1,0.1-0.2,0.2-0.2,0.3c-0.1,0.1-0.2,0.2-0.3,0.3c0,0,0,0,0,0c-1,1.1-2,2.3-2.6,3.5
	c-0.5-0.9-0.3-2.4,0.7-3.4c-0.2,0-0.3,0.2-0.5,0.3c0.2-0.3,0.7-0.8,1.3-1.5c0.2-0.2,0.4-0.4,0.6-0.7c0.3-0.3,0.6-0.7,1-1
	c0.4-0.4,0.8-0.8,1.1-1.1c0.1-0.1,0.2-0.2,0.3-0.3c0,0,0,0,0,0c0.4-0.3,0.7-0.7,1-1c0,0,0,0,0,0c0.1-0.1,0.3-0.3,0.4-0.4
	c0,0,0.1-0.1,0.1-0.1c0.1-0.1,0.2-0.2,0.3-0.3c0,0,0.1-0.1,0.1-0.1c0.1-0.1,0.1-0.2,0.2-0.2c0,0,0.1-0.1,0.1-0.1
	c0.1-0.1,0.1-0.2,0.2-0.3c0.1-0.1,0.2-0.2,0.3-0.3c1.7-1.4,2.6-3.6,4.1-4.7c0.5-0.6,1.1-1.3,1.7-2c0,0,0,0,0,0c0,0,0,0,0,0
	c0.3-0.3,0.6-0.7,0.8-1c0,0,0-0.1,0.1-0.1c0,0,0,0,0,0c0.5-0.6,0.8-1.2,0.8-1.6c1.6-0.5,3-3.9,4.2-4.5c-0.1-0.2-0.2-0.3-0.4-0.4
	c2.7-2.4,4.6-5.8,6.2-9.3c-0.1,0.1-0.3,0.2-0.4,0.2c1.6-1.5,2.5-4.3,5-6.2c-3.2,0.6-10.8,6.4-20.9,15.1c-4-5-7.9-10-11.7-15.2
	c-1-1.3-2-3.1-3.7-3.5c-1.5-0.3-3.1,1-4.4,2c-4.1,3-8.3,6-12.4,9c3.5-1.1,5.7,1.2,7.9,4.6c-0.1-0.3-0.1-0.5-0.1-0.8
	c1.2,2.3,3.3,4.2,5.1,6.1c1.4,1.4,2.6,3.3,3.9,4.6c0.2,0.2,0.4,0.3,0.6,0.5c0.2,0.1,0.5,0.2,0.6,0.3c0.2,0.2,0.3,0.5,0.4,0.8
	c0.5,0.7,1.2,1.5,1.9,2.2c-0.7,0.6-1.3,1.2-2,1.9c-0.6-0.6-1.2-1.3-1.9-1.9c-1.6-1.7-2.9-3.4-4.4-5.1c-1.3-1.4-2.5-2.7-3.6-4.1
	c-0.9-1-1.7-2-2.6-3c0-0.2,0-0.3,0-0.4c-0.2-0.1-0.4-0.1-0.6-0.1c-0.5-0.5-0.8-1.2-1.3-1.7c0.1-0.3,0.2-0.5,0.3-0.7
	c-0.3,0-0.5,0.1-0.7,0.3c-1.2-1.1-1.9-3-3.5-3.3c5.5,7.1,11.4,14,17.7,20.6c-1.1,1-2.2,2-3.4,3.1c-0.5-0.3-1-0.2-1.4,0.2
	c-0.8,0.8-0.4,1.5-2.6,3.5c-4.5,4-9.4,7.7-13.7,12.2c-0.7,0.8-1.4,1.6-1.7,2.4c-0.9,2.3,1.5,7.4,3,5.7c0.7-0.9,1.5-2.8,3-4.2
	c2.4-2.2,5.1-3.8,7-5.8c2.6-2.7,4.7-5.3,6.6-7.6c2.5-2.8,4.3,0.9,5.7-0.7l3.4,3.2c0,0,0,0,0,0c1-1,2-2.1,3-3.1
	c1.2,1.2,2.5,2.3,3.7,3.4c0,0,0,0,0,0L239.3,311.3z M263.1,330.8c0.2-0.2,0.6-0.5,0.6-0.8c0,0,0,0.2,0,0.2c0.2-0.2,0.4-0.5,0.6-0.8
	c-0.6,1.3-1.4,2.3-2,2.2c0,0,0-0.1,0-0.1c-0.3,0-0.6-0.4-0.7-0.8c0.2,0.2,0.5,0.3,0.6,0.3c0,0,0,0,0,0.1
	C262.5,331.1,262.8,331,263.1,330.8z M260.3,324.3c0.2-0.2,0.6-0.2,0.8,0.1c0.2,0.2,0.2,0.6-0.1,0.8c-0.2,0.2-0.6,0.2-0.8-0.1
	C260.1,324.9,260.1,324.5,260.3,324.3z M260.6,325.8c0,0,0,0.1,0,0.1C260.7,325.9,260.7,325.9,260.6,325.8c0.3,0,0.6-0.1,0.8-0.3
	c0.2-0.1,0.4-0.4,0.4-0.7c0.1,0.2,0.1,0.4,0,0.6c-0.1,0.2-0.2,0.4-0.3,0.5c0,0,0-0.1,0-0.1c-0.4,0.3-1,0.3-1.4-0.1
	c0-0.1-0.1-0.2-0.2-0.3c0,0,0,0,0,0.1c-0.1-0.2-0.1-0.4-0.1-0.6C259.9,325.5,260.2,325.8,260.6,325.8z M252.2,278.5
	c-0.8,0.6-1.7,1.1-2.4,1.7c-0.5,0.3-1.2,0.8-1.3,1.5c-0.1-0.3-0.2-0.4-0.4-0.2c0.1-0.2,0.1-0.3,0.2-0.4c-0.1,0-0.2,0-0.3,0
	C249.5,280.1,250.8,279.3,252.2,278.5z M244.6,283.7c1-0.8,2-1.6,3-2.3c0.1,0,0.2,0,0.3,0c-0.1,0.1-0.2,0.3-0.2,0.4
	c-0.3,0.2-0.5,0.4-0.6,0.7c-1.2,0.6-2.4,1.4-3.7,2.6c-0.8,0.8-1.3,1-2.2,1.5C242.3,285.6,243.5,284.6,244.6,283.7z M219.2,276.1
	c0.5,0.6,0.4,1.4-0.1,1.9c-0.6,0.5-1.4,0.4-1.9-0.1c-0.5-0.6-0.4-1.4,0.1-1.9C217.9,275.5,218.7,275.5,219.2,276.1z M206.3,283.1
	c0.2,0.2,0.4,0.4,0.5,0.6c-0.5-0.3-1.1-0.4-1.7-0.3c0.8-0.5,1.7-1.2,2.6-1.8c0,0.1,0,0.2,0,0.3c0.2-0.1,0.3-0.1,0.4-0.1
	C207.5,282.1,206.9,282.6,206.3,283.1z M208.5,281.4c0,0,0-0.1,0-0.1c-0.1,0.1-0.2,0.2-0.3,0.3c0-0.1,0.1-0.3,0.1-0.4
	c-0.1,0-0.3,0.1-0.4,0.1c1.1-0.8,2.1-1.5,3-2.1C210.1,279.9,209.3,280.6,208.5,281.4z M216.1,275.9c-0.1,0-0.1,0.1-0.2,0.1
	c0-0.1-0.1-0.3,0-0.4c-0.6,0.4-1.6,1.2-2,1.2c0.1-0.1,0.3-0.4,0.3-0.5c0,0,0,0.1,0,0.1c0.6-0.3,1.4-1.1,2.1-1.6c0,0.1,0,0.2,0,0.2
	c0.2-0.2,0.3-0.3,0.5-0.4c-0.1,0.2-0.2,0.3-0.2,0.4c-0.3,0.3-0.5,0.6-0.6,1C216.1,276.1,216.1,276,216.1,275.9z M219.2,278.8
	c0,0,0-0.1,0-0.1c-0.5,0.4-1.1,0.5-1.7,0.3c-0.2,0.1-0.4,0-0.8-0.5c-0.4-0.4-0.5-0.9-0.4-1.4c0,0.4,0.2,0.8,0.4,1.1
	c0,0,0.2,0.2,0.1,0.3c0,0,0,0,0.1-0.1c0.7,0.6,1.7,0.6,2.3,0c0.1-0.1,0.2-0.2,0.3-0.3c0,0.1,0.1,0,0.1-0.2c0.1-0.2,0.2-0.4,0.2-0.7
	C220,277.8,219.7,278.5,219.2,278.8z M200.8,325.2c0.2-0.2,0.6-0.2,0.8,0c0.2,0.2,0.2,0.5,0,0.8c-0.2,0.2-0.6,0.2-0.8,0
	C200.6,325.8,200.6,325.4,200.8,325.2z M199.3,332.1C199.4,332.1,199.4,332.1,199.3,332.1c-0.1,0-0.2,0-0.2-0.1
	c-0.3-0.1-0.7-0.5-1-1.1c0,0,0,0.1,0,0.1c-0.2-0.3-0.4-0.8-0.6-1.2c0.2,0.3,0.3,0.5,0.5,0.8c0,0,0-0.1,0-0.2c0,0.3,0.4,0.6,0.6,0.8
	c0.3,0.2,0.5,0.3,0.8,0.3c0,0,0-0.1,0-0.1c0.2,0,0.4-0.1,0.6-0.3C200,331.6,199.6,332.1,199.3,332.1z M201.9,326.7
	c-0.3,0.1-0.5,0.2-0.4,0.2c-0.4,0.1-0.8,0.1-1.1-0.2c-0.1-0.1-0.2-0.3-0.3-0.5c0,0,0,0-0.1,0.1c0-0.2,0-0.5,0.1-0.6
	c0,0.3,0.1,0.5,0.3,0.7c0.2,0.2,0.5,0.3,0.7,0.3c0,0-0.1-0.1-0.1-0.1c0.2,0.1,0.6-0.1,0.8-0.2c0.1-0.1,0.2-0.3,0.2-0.4
	C202.2,326.2,202.1,326.5,201.9,326.7z M221,276.6c-0.1-0.2-0.2-0.3-0.2-0.4c-0.1,0.1-0.2,0.1-0.3,0.1c0.1-0.2,0.1-0.5,0-0.7
	c0,0,0,0,0.1,0c0-0.1-0.1-0.3-0.2-0.4c0.1,0.1,0.4,0.3,0.4,0.5c0-0.1,0.1-0.1,0.1-0.2c0.2,0.7,1.3,1.7,1.8,2.7
	C222.2,277.7,221.5,276.8,221,276.6z M232.3,291.2c-0.4-0.6-0.5-0.9-0.6-1.2c0.6,0.8,1.2,1.7,1.9,2.5c-0.1,0.1-0.1,0.1-0.2,0.2
	C233,292.2,232.6,291.7,232.3,291.2z M213.3,313.3c0.2-0.2,0.6-0.2,0.8,0c0.2,0.2,0.2,0.6,0,0.8c-0.2,0.2-0.5,0.2-0.8,0
	C213.1,313.8,213.1,313.5,213.3,313.3z M213.1,314.5c0.2,0.1,0.5,0.2,0.8,0.1c0,0,0,0.1-0.1,0.1c0.3,0,0.5-0.2,0.7-0.5
	c0,0,0.1,0,0.1,0c0.1-0.1,0.1-0.3,0.1-0.4c0,0.2,0.1,0.4,0,0.5c0,0-0.1,0-0.1,0c0,0.1-0.1,0.1-0.1,0.2c-0.2,0.3-0.6,0.5-0.9,0.5
	c-0.1-0.1-0.3-0.2-0.5-0.2c-0.3-0.2-0.5-0.6-0.5-0.9C212.8,314.1,212.9,314.3,213.1,314.5z M207.1,319.2c0.2-0.2,0.6-0.2,0.8,0
	c0.2,0.2,0.2,0.6,0,0.8c-0.2,0.2-0.6,0.2-0.8,0C206.9,319.8,206.9,319.4,207.1,319.2z M206.5,319.8c0,0.2,0.1,0.5,0.3,0.7
	c0.2,0.2,0.4,0.3,0.6,0.3c0,0,0,0.1,0,0.1c0,0,0.1-0.1,0-0.1c0.4,0,0.7-0.3,0.9-0.7c0,0.2,0,0.4-0.1,0.5c0,0,0,0,0-0.1
	c-0.1,0.1-0.2,0.2-0.2,0.3c-0.3,0.4-0.9,0.4-1.3,0.1c0,0,0,0,0,0.1c-0.1-0.1-0.3-0.3-0.3-0.5C206.4,320.2,206.5,319.9,206.5,319.8z
	 M211.3,320c-0.8,0.6-1.5,1.4-1.6,1.7c-0.7,0.6-1.5,1.4-2.3,2c0,0,0-0.1,0-0.1c-1.1,1-2.5,2-3.7,3.1c0.7-0.8,1.6-1.7,2.6-2.6
	c-0.1,0.1-0.1,0.1-0.1,0.2c0.9-0.6,5.2-4.5,6.8-6.7c0,0.1,0,0.2-0.1,0.2c0.7-0.7,1.4-1.5,2.2-2.4C213.9,317,212.7,318.6,211.3,320z
	 M216.1,309.1C216,309.1,216,309.1,216.1,309.1c-0.2,0-0.4,0-0.5,0c-0.2,0-0.4,0.1-0.4,0.3c0,0,0-0.1,0-0.1c-0.1,0-0.1,0.1-0.2,0.2
	c0-0.4,0.4-1,0.9-0.9c0,0,0-0.1,0-0.1c0.5,0.1,1.1,0.7,1.4,1.1c0,0,0-0.1,0-0.1c0.2,0.3,0.5,0.6,0.6,1
	C217.3,309.8,216.6,309.3,216.1,309.1z M218.8,307.8c0.1,0.1,0.2,0.2,0.3,0.3c-0.6,0.8,0.1,1.6,0.7,2.5c-0.9-0.8-1.6-1.9-2.3-2.3
	c1-1,1.9-2.3,3.1-3.3c-0.1,0-0.2,0-0.3,0c0.7-0.5,1.5-1.3,2.1-1.9c0.2,0,0.3-0.1,0.4-0.2c0,0,0,0,0,0c0-0.1,0-0.1,0-0.2c0,0,0,0,0,0
	c1.5-1.4,3.8-3.2,4.6-4.2c0,0.1,0,0.2,0,0.3c0,0.1-0.1,0.2-0.2,0.4c0,0-0.1,0.1-0.1,0.1c0,0,0.1,0,0.1,0c0,0,0.1,0,0.1,0.1
	c-0.6,0.5-1.1,1-1.7,1.5c-0.7,0.6-1.3,1.2-2,1.8c-0.1,0-0.1,0-0.2,0c0,0,0,0,0,0c-0.1,0.1-0.2,0.2-0.1,0.4c-0.2,0.1-0.3,0.2-0.5,0.3
	c0,0,0,0,0,0C221.4,304.7,220,306.2,218.8,307.8z M233.5,315.6c0.4-0.4,0.7-0.8,0.9-1.4c0.1-0.1,0.2-0.1,0.3-0.3
	c0.1,0.1,0.1,0.2,0,0.6c0.1,0,0.1,0,0.2,0C234.5,314.9,234,315.2,233.5,315.6z M237.8,311.8c-0.7,0.5-1.2,1.1-1.8,1.8
	c-0.4,0.3-0.6,0.4-0.8,0.4c0.2-0.3,0.4-0.6,0.4-0.9c0.1,0,0.2,0,0.3,0c0.7-0.5,1.7-1.6,2.2-1.7c-0.2,0.1-0.4,0.3-0.5,0.5
	C237.7,311.9,237.7,311.9,237.8,311.8z M254.1,317.8c0.2-0.2,0.6-0.2,0.8,0.1c0.2,0.2,0.2,0.6-0.1,0.8c-0.2,0.2-0.6,0.2-0.8-0.1
	C253.9,318.3,253.9,318,254.1,317.8z M253.5,318.5c0,0.1,0,0.3,0.1,0.4c0,0,0.1,0,0.1,0c0.2,0.2,0.5,0.4,0.8,0.4
	c0,0-0.1-0.1-0.1-0.1c0.3,0.1,0.6,0,0.8-0.2c0.4-0.4,0.3-0.4,0.4-0.7c0.1,0.4,0,0.8-0.3,1c-0.2,0-0.4,0.1-0.5,0.2
	c-0.4,0.1-0.8,0-1-0.3c0-0.1-0.1-0.1-0.1-0.2c0,0-0.1,0-0.1,0C253.4,318.9,253.4,318.6,253.5,318.5z M255.6,323
	c-0.1,0-0.2,0-0.2-0.1c1,1,2,2,2.6,2.8c-1.9-1.9-4.1-3.7-5.9-5.6c-0.3-0.1-0.9-1-1.6-1.8c-1.4-1.6-2.6-3.3-3.9-5
	c0.7,0.9,1.5,1.8,2.1,2.6c0-0.1,0-0.2,0-0.2C250.3,318.1,254.7,322.4,255.6,323z M247.9,311.2c0.2-0.2,0.6-0.2,0.8,0.1
	c0.2,0.2,0.2,0.6-0.1,0.8c-0.2,0.2-0.6,0.2-0.8-0.1C247.6,311.8,247.6,311.4,247.9,311.2z M247.5,312.4c0.2,0.2,0.6,0.4,0.8,0.3
	c0,0,0,0.1-0.1,0.1c0.3,0,0.6-0.1,0.8-0.3c0.2-0.2,0.3-0.4,0.4-0.7c0,0.2,0.1,0.4,0,0.7c0,0,0-0.1,0-0.1c-0.1,0.2-0.2,0.3-0.3,0.5
	c-0.3,0.3-0.8,0.3-1.1,0.2c0.1-0.1-0.1-0.2-0.4-0.3c-0.2-0.2-0.3-0.5-0.3-0.8C247.3,312.1,247.3,312.2,247.5,312.4z M246.4,306.1
	c0.5-0.1,0.8,0.7,0.9,1.1c-0.1-0.1-0.1-0.2-0.2-0.2c0,0,0,0.1,0,0.1c-0.1-0.2-0.2-0.3-0.4-0.3c-0.2,0-0.3,0-0.5,0
	c0-0.1-0.2-0.1-0.2,0c-0.6,0.2-1.2,0.6-1.9,1.1c0.4-0.3,0.6-0.7,0.9-0.9c0,0.1-0.1,0.2-0.1,0.2C245.2,306.8,245.8,306.1,246.4,306.1
	z M244,305c0.1,0.2,0.2,0.3,0.4,0.5c0.1,0.2,0.2,0.3,0.3,0.3c-0.1,0-0.3,0-0.4-0.1c-0.7,0.4-0.9,0.8-0.8,1c-0.7,0.5-1.3,1-1.8,1.6
	c-0.1-0.1-0.4,0.1-0.8,0.5c0.2-0.3,0.4-0.5,0.5-0.9c0.2-0.2,0.3-0.4,0.4-0.7c0.1,0.1,0.1,0.2,0.1,0.3c0.5-0.5,0.8-1,1-1.4
	c-0.4-0.2-0.1-0.9-0.1-1.4c-0.3-0.4-0.6-0.9-0.9-1.3c-0.6-0.8-0.7-0.9-1.4-1.5c-0.1-0.1-0.2-0.2-0.3-0.3c0.2-0.2,0.4-0.4,0.5-0.6
	C241.4,301.7,242.9,303.7,244,305z M229.3,313.2c0.6-0.7,1.3-1.4,1.9-2c0.7,0.7,1.2,1.7,1.9,2.4c-0.3-0.1-0.5-0.2-0.7-0.3
	c0.5,1.4,0.6,2.8,0,4.1C232.3,315.8,230.6,314.3,229.3,313.2z M173.4,168.5l4-1.5c-3.9-9-16.5-8.3-22,1.2
	c-5.9,10.2-0.9,20.5,9.6,20.5c6.9,0,12.4-5.6,17.4-12.2h6.7l-1.8,5.1c-1.3,3.7-1,7.1,2.6,7.1c2.1,0,4.4-1.5,6.7-3.7
	c0.1,2.2,1.6,3.7,4.4,3.7c3,0,6.3-2.3,9.4-5.4c0.2,3.1,2.8,5.4,6.8,5.4c3.6,0,7.2-1.8,10.4-4.3c-0.2,2.5,1.4,4.3,4.3,4.3
	c2.5,0,5.3-1.7,8-4c-0.1,2.3,1.5,4,4.4,4c3,0,6.3-2.3,9.4-5.4c0.2,3.1,2.8,5.4,6.8,5.4c5.7,0,11.3-4.4,15.4-9.2c0,0,0,0,0,0
	c0,0,0,0,0,0c2.4-2.8,4.3-5.3,8.3-10.7l0.7,0.8c0.6,0.8,0.9,1.8,0.3,2.8l-5.3,9.2c-2.1,3.7-0.6,7.1,3.4,7.1c4.1,0,8.9-4.4,13-9.2
	c-0.3-0.7-1.2-1.4-1.9-1.7l-0.3,0.4c-3.6,4.2-7.1,7.5-9.3,7.5c-1.1,0-1.7-0.8-0.6-2.7l5-8.7c1.7-3,0.9-4.8-0.7-6.8l-2.8-3.4
	c-0.7-0.9-0.7-1.9,0.3-2.9l-2.6-2.8c-2.8,2.5-3.1,5.4-1.3,7.7l0.4,0.6c-2.2,3.1-5.2,7.4-8.5,11.2c0,0,0,0,0,0c0,0,0,0,0,0l-0.3,0.4
	c-3.6,4.2-8.2,7.5-11.7,7.5c-3.1,0-4.9-1.9-2.6-6l0.5-0.9c3.2,1.3,9.3,0.7,13-5.8l0.7-1.2c2.7-4.6,0.1-8.1-4-8.1
	c-4,0-7.3,2.1-9.4,5.8l-4.8,8.3l-0.3,0.3c-3.6,4.2-7.1,7.5-9.3,7.5c-1.1,0-1.7-0.8-0.6-2.7l10.7-18.7h-5l-7.8,13.6c0,0,0,0,0,0
	l-0.3,0.4c-3.6,4.2-7.1,7.5-9.3,7.5c-1.1,0-1.7-0.8-0.6-2.7l16.8-29.3h-5l-13.9,24.1c0,0,0,0,0,0l-0.3,0.4
	c-3.6,4.2-8.2,7.5-11.7,7.5c-3.1,0-4.9-1.9-2.6-6l0.5-0.9c3.2,1.3,9.3,0.7,13-5.8l0.7-1.2c2.7-4.6,0.1-8.1-4-8.1
	c-4,0-7.3,2.1-9.4,5.8l-4.8,8.3l-0.3,0.3c-3.6,4.2-7.1,7.5-9.3,7.5c-1.1,0-1.7-0.8-0.6-2.7l10.7-18.7h4.1l1.4-2.4H214l4.7-8.2h-5
	l-4.7,8.2h-4.5l-1.4,2.4h4.6l-7.8,13.6c0,0,0,0,0,0l-0.3,0.4c-3.6,4.2-7,7.2-7.9,7.2c-0.7,0-0.8-0.5-0.1-2.4l9.9-28.8
	c-11-3.6-23.6,30.2-36.3,30.3c-7.7,0-9.8-7.4-5.8-14C163.5,163,171,162.8,173.4,168.5z M264.5,170.7c2.9-5,8-4.1,5,1.1l-0.7,1.2
	c-2.4,4.1-5.6,4-7.5,3.3L264.5,170.7z M221.2,170.7c2.9-5,8-4.1,5,1.1l-0.7,1.2c-2.4,4.1-5.6,4-7.5,3.3L221.2,170.7z M194.9,159.9
	l-5,14.2h-5.8C187.8,169,191.3,163.6,194.9,159.9z M253.7,158.7c0,1.6,1.2,2.9,2.9,2.9s2.9-1.3,2.9-2.9s-1.3-2.9-2.9-2.9
	S253.7,157.1,253.7,158.7z M224.5,72.2c-65.4,0-121.6,39.7-145.7,96.4l5.3,2.3c7.6-17.8,18.5-34.1,32.6-48.2
	C145.5,93.8,183.8,78,224.5,78c40.7,0,79,15.9,107.8,44.7c13,13,23.4,28,30.9,44.3l5.2-2.5C343.4,110,288.4,72.2,224.5,72.2z
	 M360.4,168.3C336.8,116.8,284.9,81,224.5,81c-61.8,0-114.8,37.5-137.6,91l0.5,0.2c7.4-17.4,18.1-33.3,31.8-47.1
	c28.1-28.1,65.5-43.6,105.2-43.6c39.7,0,77.1,15.5,105.2,43.6c12.7,12.7,22.9,27.4,30.2,43.3L360.4,168.3z M102.5,316.8
	c27.1,38.2,71.6,63.1,122,63.1c48,0,90.7-22.6,118-57.8l-0.5-0.4c-3.8,4.8-7.9,9.5-12.3,13.9c-28.1,28.1-65.5,43.6-105.2,43.6
	c-39.7,0-77.1-15.5-105.2-43.6c-6-6-11.5-12.5-16.3-19.3L102.5,316.8z M332.3,338.3c-28.8,28.8-67.1,44.7-107.8,44.7
	c-40.7,0-79-15.9-107.8-44.7c-6.1-6.1-11.7-12.7-16.6-19.6l-4.6,3.6c28.7,40.2,75.8,66.5,129,66.5c50.9,0,96.2-24,125.1-61.3
	l-4.6-3.4C341.1,328.9,336.9,333.7,332.3,338.3z M140.6,148.1c18-18.3,41.9-30.8,68.7-34.3c2.4,1.6,5.3,2.7,5,3
	c-0.3,0.4-4.9-2.1-6.5-2.2c-3.8-0.2-5.9,0.9-5.8,1.7c0.2,0.7,0.7,7,5.3,6.8c3.1-0.1,5.7-3,7.4-1.4c0.5,0.5-0.9,2.9,0,3.9
	c0.2,0.2,0.5,0.8,0.6,1.1c0.1,0.4,2.9,8.8,2.9,11.8c0,0.8-0.6,2.4-0.6,3.2c0,0.8-0.1,2.6,0.4,3.2c0.7,0.9,3.2,2.5,6.4,2.5
	c4.5-0.1,5.4-1.5,6.1-2.5c0.5-0.6,0.4-2.4,0.4-3.2c0-0.8-0.6-2.4-0.6-3.2c0-3,2.8-11.4,2.9-11.8c0.1-0.3,0.4-0.9,0.6-1.1
	c0.9-1-0.5-3.4,0-3.9c1.6-1.6,4.3,1.3,7.4,1.4c4.6,0.2,5.1-6,5.3-6.8c0.2-0.7-3.5-1.6-5.8-1.7c-1.6,0-6.2,2.6-6.5,2.2
	c-0.3-0.4,2.7-1.5,5.1-3.1c26.6,3.3,50.4,15.6,68.4,33.6l0.5-0.4c-18-18-41.7-30.3-68.2-33.8c1.3-1,2.3-2.1,2.2-3.3
	c-2.3,0.3-7.7,3.5-8.9,1.9c0-0.1,1-0.2,1-0.3c-0.1-0.3-2.5-0.9-2.6-1.3c-0.1-0.4,1.1-0.5,1.5-0.8c0.3-0.3-2.2-0.2-2.3-0.3
	c-0.1-0.2-0.8,0.1-1-0.1c-0.1-0.2,0.5-0.7,0.4-0.9c-0.5-0.8-3.3,0.5-4.2,0.4v-0.1c0.1-0.2,0.6-0.9,0-1c0,0,0,0-0.1,0l-1.9,0.8
	c0,0,0.7-1.8-0.4-1.7c-1.6,0.2-1.4,1.8-3.2,1.9c-0.2,0-3.3,0.5-3.4,0.7c0,0.1,0.3,0.8,0.2,0.8c-0.4,0.6-1.6,0.3-1.8,0.5
	c-0.2,0.2,0,0.8-0.2,0.9c-0.2,0.2-1-0.1-1.1,0.2c0,0.1,0.2,0.1,0.2,0.2c-1.2,1.7-5.7-1.4-8-1.8c-0.2,1.2,0.9,2.4,2.2,3.4
	c-26.7,3.6-50.5,16.1-68.5,34.4L140.6,148.1z M217.4,126.6c0,0.1-0.3-0.3-0.4-0.4c-0.7-0.5-3-1.1-1.2-3.2c0.1-0.2-0.3-0.9-0.3-0.9
	S218.1,124.4,217.4,126.6z M222.2,143.9c-0.2,0.5-1.7,0.2-2.1-0.2c-0.4-0.4-0.7-2-0.2-2.4c0.8-0.6,3.9,1,3.9,1s-2.7-0.7-3,0
	C220.6,142.8,222.4,143.4,222.2,143.9z M228.4,143.7c-0.4,0.4-1.8,0.7-2.1,0.2c-0.2-0.5,1.6-1.1,1.3-1.6c-0.3-0.7-3,0-3,0
	s3.1-1.7,3.9-1C229,141.7,228.8,143.3,228.4,143.7z M231.5,126.2c-0.1,0.1-0.3,0.5-0.4,0.4c-0.7-2.1,2-4.4,2-4.4s-0.5,0.7-0.3,0.9
	C234.5,125.1,232.2,125.7,231.5,126.2z M294.9,324.6c-19.6,14.7-44,23.5-70.4,23.5c-26.9,0-51.7-9.1-71.6-24.4l-0.4,0.6
	c19.9,15.3,44.9,24.4,72,24.4c26.5,0,51-8.7,70.8-23.5L294.9,324.6z M113.1,309.4c-0.4-0.6-0.6-0.9-1.1-1.5c-0.6,0.4-0.9,0.6-1.5,1
	c-0.8,0.6-0.9,2-0.1,3.1c0.7,1,1.1,1.6,1.9,2.6c0.8,1.1,2.2,1.5,3,0.9c0.6-0.5,0.9-0.7,1.5-1.1c0.5-0.4,0.8-1,0.8-1.7
	c0-2.5,0-3.7,0.1-6.2c0-0.2,0.1-0.4,0.3-0.6c0.5-0.3,0.7-0.5,1.2-0.8c0.2-0.2,0.5-0.1,0.7,0.2c0.7,1,1,1.4,1.7,2.4
	c0.2,0.3,0.2,0.6,0,0.7c-0.6,0.4-0.9,0.7-1.5,1.1c0.4,0.6,0.6,0.9,1.1,1.4c0.6-0.4,0.9-0.7,1.5-1.1c0.8-0.6,0.8-1.9,0.1-3
	c-0.7-0.9-1-1.4-1.7-2.3c-0.7-1-2-1.4-2.9-0.9c-0.5,0.3-0.7,0.5-1.2,0.8c-0.5,0.4-0.9,1-0.9,1.6c-0.1,2.5-0.2,3.7-0.2,6.2
	c0,0.2-0.1,0.4-0.3,0.6c-0.6,0.4-0.9,0.7-1.5,1.1c-0.2,0.2-0.5,0.1-0.7-0.2c-0.7-1-1.1-1.5-1.8-2.6c-0.2-0.3-0.2-0.6,0-0.8
	C112.2,310.1,112.5,309.9,113.1,309.4z M116.5,320.1c0.5,0.6,0.7,0.9,1.2,1.4c4-3.3,6-5,9.9-8.3c-0.4-0.5-0.7-0.8-1.1-1.3
	C122.5,315.1,120.5,316.8,116.5,320.1z M130.1,316.1c-3.9,3.5-5.8,5.2-9.7,8.6c0.5,0.6,0.7,0.8,1.2,1.4c2.8-2.6,4.2-3.9,7.1-6.5
	c-1.7,3.9-2.5,5.8-3.9,9.8c0.4,0.4,0.6,0.7,1.1,1.1c3.7-3.7,5.5-5.5,9.2-9.2c-0.5-0.5-0.7-0.7-1.2-1.2c-2.5,2.4-3.8,3.7-6.3,6.1
	c1.4-3.6,2.1-5.4,3.7-8.8C130.9,316.9,130.6,316.7,130.1,316.1z M132.1,336.4c3.1-3.5,4.6-5.2,7.7-8.7c0.8,0.7,1.3,1.1,2.1,1.8
	c0.4-0.4,0.5-0.6,0.9-1.1c-2.2-1.8-3.2-2.8-5.3-4.8c-0.4,0.4-0.6,0.6-1,1c0.8,0.8,1.2,1.2,2,1.9c-3.1,3.4-4.7,5.1-7.8,8.6
	C131.2,335.6,131.5,335.9,132.1,336.4z M143.5,336.6c-1.5-1.2-2.3-1.8-3.7-3c-0.3,0.4-0.5,0.6-0.8,1c1.5,1.3,2.2,1.9,3.8,3.1
	C143,337.2,143.2,337,143.5,336.6z M143.8,345.8c1,0.7,1.5,1,2.4,1.7c1.1,0.7,2.4,0.6,3-0.2c1-1.6,1.6-2.4,2.6-4
	c-1.2-0.8-1.8-1.2-3.1-2.1c-0.3,0.5-0.5,0.7-0.8,1.1c0.7,0.5,1,0.7,1.7,1.1c-0.8,1.1-1.1,1.7-1.9,2.8c-0.2,0.2-0.5,0.3-0.7,0.1
	c-1-0.7-1.5-1-2.4-1.7c-0.3-0.2-0.4-0.5-0.2-0.7c2.2-3,3.2-4.5,5.4-7.5c0.2-0.2,0.4-0.2,0.7-0.1c0.9,0.6,1.3,0.9,2.2,1.6
	c0.3,0.2,0.3,0.5,0.2,0.7c-0.4,0.6-0.6,0.9-1,1.5c0.6,0.4,0.8,0.6,1.4,0.9c0.4-0.6,0.6-0.9,1-1.5c0.6-0.9,0.2-2.1-0.8-2.7
	c-0.9-0.6-1.3-0.9-2.2-1.5c-1-0.7-2.2-0.6-2.9,0.2c-2.2,3-3.3,4.5-5.5,7.5C142.4,343.7,142.7,345,143.8,345.8z M159.8,340.7
	c-0.6-0.3-0.8-0.5-1.4-0.8c-2.7,4.4-4.1,6.6-6.8,11.1c0.6,0.4,0.9,0.6,1.5,0.9C155.8,347.4,157.1,345.2,159.8,340.7z M163,342.5
	c-2.5,4.5-3.8,6.8-6.3,11.3c2.3,1.3,3.4,1.9,5.7,3c0.2-0.5,0.4-0.7,0.6-1.2c-1.7-0.8-2.5-1.3-4.1-2.2c2.2-4.1,3.3-6.1,5.5-10.2
	C163.8,343,163.5,342.9,163,342.5z M170.9,346.6c-2.2,4.7-3.3,7-5.5,11.7c2.3,1.1,3.5,1.6,5.9,2.6c0.2-0.5,0.3-0.8,0.5-1.3
	c-1.7-0.7-2.6-1.1-4.2-1.8c1.9-4.2,2.9-6.3,4.8-10.5C171.8,347,171.5,346.9,170.9,346.6z M179.1,350.1c-1.9,4.8-2.8,7.3-4.7,12.1
	c0.7,0.3,1,0.4,1.6,0.6c1.8-4.9,2.7-7.3,4.6-12.1C180,350.5,179.7,350.4,179.1,350.1z M187.9,357.1c0.6,0.2,0.9,0.3,1.6,0.5
	c0.2-0.7,0.3-1.1,0.5-1.8c0.3-1-0.4-2-1.5-2.4c-1-0.3-1.5-0.5-2.5-0.8c-1.1-0.4-2.3,0.1-2.6,1.1c-0.2,0.5-0.3,0.8-0.5,1.4
	c-0.2,0.6-0.1,1.3,0.2,1.8c1.2,2,1.8,3,3.2,4.9c0.1,0.2,0.2,0.4,0.1,0.7c-0.2,0.7-0.3,1.1-0.5,1.8c-0.1,0.3-0.4,0.4-0.7,0.3
	c-1.1-0.3-1.6-0.5-2.7-0.9c-0.3-0.1-0.5-0.4-0.4-0.6c0.2-0.7,0.3-1.1,0.6-1.8c-0.6-0.2-1-0.3-1.6-0.5c-0.2,0.7-0.4,1.1-0.6,1.8
	c-0.3,1,0.4,2.1,1.6,2.5c1.1,0.4,1.7,0.5,2.8,0.9c1.2,0.4,2.5-0.2,2.7-1.1c0.2-0.7,0.3-1.1,0.5-1.8c0.2-0.6,0.1-1.3-0.3-1.8
	c-1.3-1.9-2-2.9-3.2-4.9c-0.1-0.2-0.1-0.4-0.1-0.6c0.2-0.5,0.3-0.8,0.4-1.4c0.1-0.3,0.3-0.4,0.7-0.3c1,0.3,1.5,0.5,2.5,0.8
	c0.3,0.1,0.5,0.3,0.4,0.6C188.2,356,188.1,356.3,187.9,357.1z M205.2,362.2c0.2-1.2,0.3-1.8,0.5-3.1c0.2-1-0.6-2-1.8-2.2
	c-1.9-0.3-2.8-0.5-4.6-0.9c-1.1,5.1-1.6,7.6-2.7,12.7c2,0.4,3.1,0.6,5.1,1c1.3,0.2,2.4-0.5,2.6-1.5c0.2-1.5,0.4-2.3,0.6-3.8
	c0.1-0.5-0.3-1-0.9-1.3C204.6,363.1,205.1,362.7,205.2,362.2z M202.6,368c0,0.3-0.3,0.4-0.6,0.4c-1.4-0.2-2-0.4-3.4-0.6
	c0.4-1.9,0.6-2.8,0.9-4.7c1.3,0.3,2,0.4,3.3,0.6c0.3,0.1,0.5,0.3,0.5,0.5C203,365.7,202.8,366.5,202.6,368z M203.6,361.9
	c0,0.3-0.3,0.4-0.6,0.4c-1.3-0.2-1.9-0.3-3.2-0.6c0.3-1.6,0.5-2.4,0.8-4c1.2,0.2,1.9,0.4,3.1,0.6c0.3,0.1,0.5,0.3,0.4,0.5
	C203.9,360.1,203.8,360.7,203.6,361.9z M209.6,370.9c0.6-5.2,0.9-7.7,1.5-12.9c-0.6-0.1-0.9-0.1-1.6-0.2c-0.7,5.1-1,7.7-1.6,12.9
	C208.5,370.7,208.9,370.8,209.6,370.9z M213.3,367.5c-0.1,0.7-0.1,1.1-0.2,1.8c-0.1,1,0.9,1.9,2.1,2c0.9,0.1,1.4,0.1,2.3,0.1
	c1.3,0.1,2.3-0.7,2.4-1.7c0.2-4.4,0.3-6.7,0.4-11.1c-0.6,0-0.9,0-1.6-0.1c-0.2,4.4-0.3,6.7-0.6,11.1c0,0.3-0.3,0.5-0.6,0.4
	c-0.9-0.1-1.4-0.1-2.3-0.1c-0.3,0-0.6-0.2-0.5-0.5c0.1-0.7,0.1-1.1,0.1-1.8C214.3,367.6,213.9,367.6,213.3,367.5z M234.1,358.5
	c-1.9,0.1-2.8,0.2-4.7,0.2c0.2,5.2,0.2,7.8,0.4,13c2.1-0.1,3.1-0.1,5.2-0.2c1.3-0.1,2.2-1,2.1-2c-0.3-3.7-0.5-5.5-0.8-9.2
	C236.2,359.2,235.2,358.4,234.1,358.5z M234.8,370.1c-1.4,0.1-2.1,0.1-3.4,0.2c-0.2-4.1-0.3-6.1-0.4-10.2c1.3-0.1,1.9-0.1,3.2-0.2
	c0.3,0,0.5,0.2,0.6,0.4c0.3,3.7,0.4,5.5,0.7,9.2C235.4,369.8,235.2,370,234.8,370.1z M245.4,357.3c-2.3,0.4-3.4,0.5-5.7,0.8
	c0.6,5.2,0.9,7.7,1.4,12.9c2.5-0.3,3.8-0.4,6.3-0.8c-0.1-0.5-0.1-0.8-0.2-1.4c-1.8,0.3-2.7,0.4-4.5,0.6c-0.2-1.9-0.4-2.8-0.6-4.7
	c1.3-0.2,2-0.2,3.3-0.4c-0.1-0.6-0.1-0.8-0.2-1.4c-1.3,0.2-1.9,0.3-3.3,0.4c-0.2-1.6-0.3-2.4-0.5-4c1.7-0.2,2.5-0.3,4.2-0.6
	C245.5,358.1,245.5,357.8,245.4,357.3z M258.1,368c-1.2-5-1.8-7.6-3-12.6c-0.6,0.1-0.9,0.2-1.5,0.4c0.8,3.4,1.2,5.1,1.9,8.5
	c-2.2-3.1-3.3-4.7-5.4-7.8c-0.7,0.1-1,0.2-1.7,0.3c0.9,5.1,1.4,7.7,2.3,12.8c0.7-0.1,1-0.2,1.7-0.3c-0.7-3.8-1.1-5.7-1.8-9.4
	c2.3,3.5,3.5,5.2,6.1,8.5C257.3,368.2,257.5,368.1,258.1,368z M267,365.6c1.2-0.4,2-1.5,1.6-2.5c-1.1-3.5-1.7-5.3-2.9-8.8
	c-0.3-1-1.5-1.5-2.6-1.1c-1.8,0.6-2.7,0.8-4.6,1.3c1.3,5,2,7.5,3.4,12.5C264,366.5,265,366.2,267,365.6z M263.6,354.5
	c0.3-0.1,0.6,0,0.6,0.3c1.1,3.5,1.7,5.3,2.8,8.8c0.1,0.3-0.1,0.5-0.4,0.6c-1.3,0.4-2,0.6-3.3,1c-1.1-3.9-1.7-5.9-2.8-9.8
	C261.7,355.1,262.3,354.9,263.6,354.5z M279,361.3c-0.2-0.5-0.3-0.8-0.5-1.3c-1.7,0.7-2.6,1-4.3,1.7c-0.7-1.8-1-2.7-1.7-4.5
	c1.3-0.5,1.9-0.7,3.1-1.2c-0.2-0.5-0.3-0.8-0.5-1.3c-1.2,0.5-1.9,0.7-3.1,1.2c-0.6-1.5-0.8-2.3-1.4-3.8c1.6-0.6,2.4-0.9,4-1.6
	c-0.2-0.5-0.3-0.8-0.5-1.3c-2.2,0.9-3.3,1.3-5.5,2.1c1.7,4.9,2.6,7.3,4.4,12.2C275.4,362.8,276.6,362.3,279,361.3z M287.3,357.6
	c0.7-0.3,1-0.5,1.7-0.8c-1.6-1.7-2.4-2.5-3.9-4.2c0.8-0.6,1-1.6,0.7-2.3c-0.7-1.4-1-2.1-1.7-3.4c-0.5-0.9-1.7-1.2-2.8-0.7
	c-1.7,0.8-2.6,1.2-4.4,2c2.1,4.8,3.1,7.1,5.2,11.9c0.6-0.3,1-0.4,1.6-0.7c-0.9-2-1.3-3-2.2-4.9c0.9-0.4,1.3-0.6,2.2-1
	C285.1,355,285.8,355.9,287.3,357.6z M280.9,353.1c-0.8-1.7-1.2-2.6-2-4.3c1.2-0.5,1.8-0.8,2.9-1.4c0.3-0.1,0.6-0.1,0.7,0.2
	c0.7,1.4,1,2.1,1.7,3.4c0.1,0.2,0,0.5-0.3,0.7C282.7,352.2,282.1,352.5,280.9,353.1z M301.6,349.5c-2.8-4.4-4.2-6.6-7-10.9
	c-0.7,0.5-1.1,0.7-1.8,1.2c0.8,3.3,1.2,5,1.9,8.4c-2.6-2.3-3.9-3.4-6.4-5.8c-0.8,0.4-1.1,0.6-1.9,1.1c2.5,4.6,3.7,6.9,6.2,11.4
	c0.6-0.3,0.9-0.5,1.6-0.9c-1.9-3.4-2.9-5.2-4.8-8.6c2.7,2.6,4.1,3.8,7,6.3c0.3-0.2,0.4-0.2,0.7-0.4c-0.8-3.7-1.2-5.6-2.1-9.2
	c2.1,3.3,3.1,5,5.2,8.4C300.7,350.1,301,349.9,301.6,349.5z M307,345.9c1-0.7,1.5-1.1,2.4-1.8c1.1-0.8,1.4-2.1,0.8-2.9
	c-2.3-2.9-3.4-4.4-5.7-7.3c-0.6-0.8-1.9-0.9-2.9-0.1c-0.9,0.7-1.3,1-2.2,1.6c-1,0.7-1.3,1.9-0.7,2.8c2.1,3.1,3.1,4.6,5.2,7.7
	C304.5,346.6,305.9,346.6,307,345.9z M300.3,336.4c0.9-0.6,1.3-1,2.2-1.6c0.3-0.2,0.6-0.2,0.7,0c2.2,3,3.3,4.5,5.6,7.4
	c0.2,0.2,0.1,0.5-0.2,0.7c-1,0.7-1.4,1.1-2.4,1.8c-0.3,0.2-0.6,0.2-0.8,0c-2.1-3-3.2-4.5-5.3-7.6C299.9,336.9,300,336.6,300.3,336.4
	z M320.6,334.8c-3.5-3.8-5.3-5.7-8.8-9.6c-0.5,0.5-0.7,0.7-1.2,1.1c2.3,2.6,3.5,3.9,5.8,6.5c-3.5-1.5-5.2-2.4-8.6-4.1
	c-0.6,0.5-0.8,0.7-1.4,1.2c3.3,4,4.9,6,8.2,10.1c0.6-0.5,0.8-0.7,1.4-1.2c-2.5-2.9-3.7-4.4-6.2-7.4c3.8,1.8,5.7,2.7,9.6,4.3
	C319.9,335.5,320.1,335.3,320.6,334.8z M327.6,327.9c0.9-1,1.1-2.4,0.3-3.1c-2.7-2.5-4.1-3.8-6.8-6.3c-0.8-0.7-2.1-0.5-2.9,0.4
	c-1.4,1.5-2.1,2.2-3.6,3.6c3.6,3.7,5.4,5.6,9,9.3C325.2,330.4,326,329.6,327.6,327.9z M319.2,320c0.2-0.3,0.5-0.3,0.7-0.1
	c2.7,2.5,4,3.8,6.7,6.3c0.2,0.2,0.2,0.5-0.1,0.8c-1,1.1-1.5,1.6-2.6,2.7c-2.9-2.9-4.3-4.3-7.2-7.2C317.7,321.5,318.2,321,319.2,320z
	 M329.8,313.8c-0.9,1.1-1.4,1.7-2.3,2.8c-1.2-1-1.8-1.5-3.1-2.6c1.2-1.4,1.8-2.2,2.9-3.7c-0.4-0.3-0.7-0.5-1.1-0.9
	c-1.6,2-2.4,3-4,4.9c3.9,3.4,5.9,5.1,9.8,8.5c1.8-2.1,2.7-3.2,4.4-5.4c-0.4-0.3-0.7-0.5-1.1-0.9c-1.2,1.6-1.9,2.4-3.2,3.9
	c-1.5-1.2-2.2-1.8-3.7-3.1c0.9-1.1,1.4-1.7,2.3-2.8C330.5,314.3,330.3,314.1,329.8,313.8z M108.8,171.6c0.4-0.7,0.5-1,0.9-1.6
	c-5-1.2-7.6-1.7-12.7-2.6c-0.5,0.9-0.7,1.3-1.1,2.2c3.7,3.7,5.6,5.4,9.4,8.9c0.3-0.7,0.5-1,0.8-1.7c-0.6-0.6-0.9-0.8-1.5-1.4
	c0.9-1.7,1.3-2.6,2.2-4.3C107.6,171.3,108,171.4,108.8,171.6z M103.6,174.5c-2.1-2-3.2-3-5.3-5c2.9,0.5,4.3,0.8,7.1,1.4
	C104.7,172.3,104.3,173,103.6,174.5z M116.8,158.7c-4-2.9-6.1-4.3-10.1-7.1c-0.6,0.9-0.9,1.3-1.5,2.1c1.9,2.8,2.9,4.2,4.8,6.9
	c-3.3-0.7-4.9-1-8.2-1.6c-0.5,0.9-0.8,1.4-1.4,2.3c4.3,2.5,6.4,3.8,10.6,6.3c0.4-0.6,0.5-0.9,0.9-1.5c-3.2-2-4.8-2.9-8-4.9
	c3.6,0.6,5.4,1,8.9,1.8c0.2-0.3,0.2-0.4,0.4-0.6c-2.2-2.9-3.2-4.4-5.3-7.4c3.1,2.1,4.7,3.2,7.8,5.3
	C116.2,159.6,116.4,159.3,116.8,158.7z M122,151.6c0.8-1,0.8-2.3,0.1-2.9c-1.1-0.9-1.7-1.4-2.8-2.4c-0.4-0.3-1-0.3-1.6,0.2
	c0.3-0.7,0.3-1.3-0.1-1.6c-0.9-0.8-1.4-1.1-2.3-1.9c-0.7-0.6-2.1-0.3-2.9,0.8c-1.4,1.8-2.1,2.7-3.5,4.5c4,3,5.9,4.4,9.9,7.4
	C120.1,154.1,120.7,153.3,122,151.6z M111.1,147.6c0.9-1.2,1.4-1.8,2.3-3c0.2-0.3,0.5-0.4,0.7-0.2c0.9,0.8,1.4,1.1,2.3,1.9
	c0.2,0.2,0.2,0.5,0,0.8c-0.9,1.1-1.4,1.7-2.2,2.9C113,149.1,112.4,148.6,111.1,147.6z M115.2,150.8c0.9-1.2,1.3-1.7,2.2-2.9
	c0.2-0.3,0.5-0.4,0.7-0.2c1.1,0.9,1.7,1.4,2.8,2.3c0.2,0.2,0.2,0.5,0,0.7c-0.9,1.1-1.3,1.6-2.1,2.8
	C117.4,152.5,116.7,151.9,115.2,150.8z M130,142.5c0.5-0.5,0.7-0.7,1.2-1.2c-4.5-2.5-6.7-3.8-11.3-6.1c-0.6,0.7-0.9,1-1.5,1.7
	c2.6,4.5,4,6.6,6.8,10.9c0.5-0.5,0.7-0.8,1.1-1.3c-0.5-0.7-0.7-1-1.1-1.7c1.2-1.3,1.8-2,3-3.3C128.9,141.9,129.3,142.1,130,142.5z
	 M124.4,143.6c-1.6-2.4-2.3-3.7-3.8-6.2c2.6,1.3,3.9,2,6.4,3.4C126,142,125.5,142.5,124.4,143.6z M129.4,127.8
	c0.3-0.2,0.6-0.3,0.7-0.1c0.4,0.5,0.6,0.7,1,1.2c0.5-0.5,0.8-0.7,1.3-1.2c-0.4-0.5-0.6-0.7-1-1.2c-0.6-0.7-2-0.6-3,0.3
	c-0.9,0.8-1.4,1.2-2.2,2.1c-1,0.9-1.2,2.3-0.5,3c2.5,2.6,3.7,3.8,6.1,6.4c0.7,0.7,1.9,0.6,2.8-0.3c0.8-0.8,1.2-1.1,2.1-1.9
	c0.9-0.8,1.1-2.1,0.5-2.8c-0.4-0.5-0.6-0.7-1-1.2c-0.5,0.4-0.8,0.7-1.3,1.1c0.4,0.5,0.6,0.7,1,1.2c0.2,0.2,0.1,0.5-0.1,0.7
	c-0.8,0.7-1.3,1.1-2.1,1.9c-0.2,0.2-0.5,0.3-0.7,0.1c-2.4-2.6-3.6-3.9-6-6.5c-0.2-0.2-0.1-0.5,0.1-0.7
	C128,129,128.5,128.6,129.4,127.8z M134.6,121.7c-0.6,0.4-0.8,0.7-1.4,1.1c3.1,3.8,4.7,5.8,7.8,9.6c0.5-0.4,0.8-0.6,1.3-1
	c-1.5-1.8-2.2-2.8-3.7-4.6c1.3-1,1.9-1.5,3.2-2.5c1.4,1.9,2.1,2.8,3.5,4.7c0.5-0.4,0.8-0.6,1.3-1c-2.9-4-4.4-6-7.3-10
	c-0.6,0.4-0.9,0.6-1.4,1.1c1.2,1.7,1.9,2.5,3.1,4.1c-1.3,1-1.9,1.5-3.2,2.5C136.5,124.1,135.9,123.3,134.6,121.7z M148.4,112
	c-2.6,1.6-3.9,2.5-6.5,4.2c0.3,0.4,0.5,0.7,0.8,1.1c1-0.7,1.5-1,2.4-1.7c2.5,3.7,3.7,5.5,6.1,9.2c0.5-0.4,0.8-0.5,1.4-0.9
	c-2.4-3.7-3.6-5.6-6-9.3c1-0.6,1.5-1,2.5-1.6C148.8,112.7,148.7,112.4,148.4,112z M156.7,107.2c-2.3,1.2-3.4,1.8-5.7,3.2
	c2.5,4.3,3.8,6.4,6.3,10.7c2.1-1.2,3.1-1.8,5.2-2.9c-0.2-0.5-0.4-0.7-0.6-1.2c-1.5,0.8-2.3,1.2-3.8,2.1c-0.9-1.6-1.4-2.4-2.3-4
	c1.2-0.7,1.8-1,3-1.6c-0.3-0.5-0.4-0.7-0.6-1.2c-1.2,0.6-1.8,1-3,1.7c-0.8-1.3-1.1-2-1.9-3.3c1.6-0.9,2.5-1.4,4.1-2.2
	C157.1,107.9,157,107.7,156.7,107.2z M161,105.1c-0.6,0.3-1,0.5-1.6,0.8c2.2,4.4,3.3,6.6,5.6,11.1c2.1-1.1,3.2-1.6,5.3-2.5
	c-0.2-0.5-0.3-0.7-0.5-1.2c-1.6,0.7-2.4,1.1-3.9,1.8C163.9,111,163,109,161,105.1z M168.1,101.9c1.9,4.6,2.9,6.8,4.8,11.4
	c0.6-0.2,0.9-0.4,1.5-0.6c-1.9-4.6-2.8-6.9-4.7-11.5C169.1,101.5,168.7,101.6,168.1,101.9z M180.6,109c-0.8,0.3-1.2,0.4-2,0.7
	c-0.3,0.1-0.6,0-0.7-0.2c-0.2-0.7-0.4-1-0.6-1.7c-0.6,0.2-0.9,0.3-1.5,0.6c0.3,0.7,0.4,1,0.6,1.6c0.3,0.9,1.5,1.3,2.6,0.9
	c0.8-0.3,1.2-0.4,2-0.7c1.1-0.4,1.8-1.4,1.5-2.4c-1.3-4-2-6-3.3-10.1c-0.7,0.2-1,0.3-1.7,0.5c1.4,4,2.1,6,3.4,10
	C181,108.6,180.9,108.9,180.6,109z M189,95c-1.2,3.3-1.7,4.9-2.7,8.2c-0.8-2.8-1.2-4.2-2-6.9c-0.7,0.2-1,0.3-1.7,0.5
	c1.4,4.7,2.1,7.1,3.6,11.9c0.6-0.2,0.9-0.3,1.5-0.4c-0.3-1-0.4-1.5-0.7-2.5c0.4-1.2,0.6-1.8,1-3c1.7,1.7,2.6,2.6,4.2,4.4
	c0.7-0.2,1.1-0.3,1.8-0.4c-2.1-2.3-3.2-3.4-5.4-5.6c0.9-2.6,1.3-3.9,2.4-6.4C190.1,94.7,189.7,94.8,189,95z M199.8,92.8
	c-2.5,0.4-3.8,0.7-6.3,1.2c1.1,4.8,1.6,7.3,2.6,12.1c2.3-0.5,3.4-0.7,5.7-1.1c-0.1-0.5-0.1-0.8-0.2-1.3c-1.7,0.3-2.5,0.4-4.2,0.8
	c-0.4-1.8-0.6-2.7-0.9-4.5c1.3-0.3,2-0.4,3.3-0.6c-0.1-0.5-0.1-0.8-0.2-1.3c-1.3,0.2-2,0.4-3.3,0.6c-0.3-1.5-0.5-2.3-0.8-3.8
	c1.8-0.4,2.7-0.5,4.5-0.8C199.9,93.6,199.9,93.3,199.8,92.8z M210.9,92.7c1.1-0.1,1.7-0.2,2.9-0.2c0.3,0,0.6,0.1,0.6,0.4
	c0,0.7,0.1,1.1,0.1,1.8c0.7,0,1-0.1,1.7-0.1c0-0.7-0.1-1.1-0.1-1.8c-0.1-1-1.1-1.7-2.4-1.6c-1.2,0.1-1.7,0.1-2.9,0.2
	c-1.3,0.1-2.2,1-2.1,2c0.1,0.5,0.1,0.8,0.2,1.4c0.1,0.6,0.4,1.1,0.9,1.4c2,1.2,2.9,1.9,4.8,3.2c0.2,0.1,0.3,0.3,0.3,0.6
	c0,0.7,0.1,1.1,0.1,1.8c0,0.3-0.2,0.5-0.5,0.5c-1.1,0.1-1.6,0.1-2.7,0.2c-0.3,0-0.6-0.1-0.6-0.4c-0.1-0.7-0.1-1.1-0.2-1.8
	c-0.7,0.1-1,0.1-1.6,0.2c0.1,0.7,0.1,1.1,0.2,1.8c0.1,1,1.1,1.7,2.3,1.5c1.1-0.1,1.6-0.1,2.6-0.2c1.2-0.1,2.1-0.9,2-1.9
	c0-0.7-0.1-1.1-0.1-1.8c0-0.6-0.4-1.2-0.8-1.5c-1.9-1.3-2.9-2-4.8-3.2c-0.2-0.1-0.3-0.3-0.3-0.5c-0.1-0.5-0.1-0.8-0.1-1.4
	C210.3,92.9,210.5,92.7,210.9,92.7z M225.8,103.1c0-0.5,0-0.8,0-1.3c-1.7,0-2.6,0-4.3,0c-0.1-4.4-0.1-6.6-0.2-11c-0.7,0-1,0-1.7,0
	c0.2,4.9,0.2,7.4,0.4,12.4C222.3,103.1,223.4,103.1,225.8,103.1z M234.1,101.5c0.1,0.8,0.2,1.2,0.3,2c0.6,0,1,0.1,1.6,0.1
	c-0.8-5-1.3-7.6-2.4-12.6c-0.8-0.1-1.3-0.1-2.1-0.1c-1.6,4.9-2.4,7.3-3.8,12.2c0.6,0,1,0,1.6,0.1c0.2-0.8,0.3-1.2,0.6-2
	C231.6,101.3,232.4,101.4,234.1,101.5z M232.5,93.1c0.6,2.8,0.8,4.2,1.3,7.1c-1.4-0.1-2.1-0.1-3.5-0.2
	C231.1,97.2,231.6,95.8,232.5,93.1z M246.7,96.1c0.1-0.7,0.2-1,0.3-1.7c0.2-1-0.7-1.9-2-2.1c-1.1-0.2-1.7-0.2-2.9-0.4
	c-1.3-0.2-2.4,0.5-2.5,1.5c-0.4,3.5-0.6,5.3-1,8.8c-0.1,1,0.8,1.9,1.9,2c1.1,0.1,1.6,0.2,2.6,0.3c1.2,0.2,2.2-0.5,2.4-1.4
	c0.3-1.8,0.4-2.7,0.7-4.5c-1.4-0.2-2.2-0.3-3.6-0.5c-0.1,0.5-0.1,0.8-0.2,1.3c0.8,0.1,1.2,0.2,1.9,0.3c-0.2,1.3-0.3,1.9-0.5,3.2
	c0,0.3-0.3,0.4-0.6,0.4c-1.1-0.2-1.6-0.2-2.7-0.4c-0.3,0-0.5-0.2-0.5-0.5c0.4-3.5,0.6-5.3,1.1-8.8c0-0.3,0.3-0.4,0.6-0.4
	c1.1,0.1,1.7,0.2,2.9,0.4c0.3,0,0.5,0.3,0.5,0.5c-0.1,0.7-0.2,1-0.3,1.7C245.7,95.9,246.1,96,246.7,96.1z M248.6,105.3
	c2.3,0.4,3.4,0.7,5.7,1.2c0.1-0.5,0.2-0.8,0.3-1.3c-1.7-0.4-2.5-0.6-4.2-0.9c0.4-1.8,0.5-2.7,0.9-4.5c1.3,0.3,2,0.4,3.3,0.7
	c0.1-0.5,0.2-0.8,0.3-1.3c-1.3-0.3-2-0.4-3.3-0.7c0.3-1.5,0.5-2.3,0.8-3.8c1.8,0.4,2.7,0.5,4.5,1c0.1-0.5,0.2-0.8,0.3-1.3
	c-2.5-0.6-3.7-0.8-6.3-1.3C249.9,98.1,249.5,100.5,248.6,105.3z M265.1,96.6c-2-0.6-3-0.9-5.1-1.4c-1.2,4.8-1.9,7.2-3.1,12
	c0.6,0.2,0.9,0.2,1.5,0.4c0.5-2,0.8-3,1.4-5c0.9,0.2,1.3,0.4,2.2,0.6c0,2.1-0.1,3.2-0.1,5.4c0.7,0.2,1,0.3,1.6,0.5
	c0.1-2.2,0.1-3.3,0.1-5.5c1,0.1,1.8-0.4,2-1.2c0.4-1.4,0.7-2.1,1.1-3.5C267.1,98,266.4,96.9,265.1,96.6z M265.2,98.4
	c-0.4,1.4-0.6,2.1-1.1,3.5c-0.1,0.3-0.3,0.4-0.7,0.3c-1.3-0.4-1.9-0.6-3.2-0.9c0.5-1.8,0.7-2.6,1.2-4.4c1.3,0.4,2,0.5,3.3,0.9
	C265.1,97.9,265.3,98.2,265.2,98.4z M266.8,110.1c0.6,0.2,0.9,0.3,1.5,0.5c1.7-4.7,2.5-7,4.2-11.7c-0.7-0.2-1-0.3-1.7-0.6
	C269.2,103,268.4,105.4,266.8,110.1z M273.7,108.8c-0.6-0.2-0.9-0.4-1.5-0.6c-0.3,0.7-0.4,1-0.6,1.7c-0.3,0.9,0.3,2,1.4,2.4
	c0.8,0.3,1.2,0.5,2,0.8c1.1,0.4,2.3,0.1,2.7-0.8c1.7-3.9,2.6-5.8,4.3-9.7c-0.6-0.3-1-0.4-1.6-0.7c-1.7,3.9-2.5,5.9-4.1,9.8
	c-0.1,0.2-0.4,0.3-0.7,0.2c-0.8-0.3-1.2-0.5-2-0.8c-0.3-0.1-0.4-0.4-0.3-0.6C273.3,109.8,273.5,109.5,273.7,108.8z M287.3,111.3
	c-0.2,0.4-0.3,0.6-0.5,1.1c1.7,0.9,2.5,1.3,4.2,2.2c0.2-0.4,0.4-0.6,0.6-1.1C289.8,112.6,289,112.2,287.3,111.3z M298.4,125.7
	c2.5-3.7,3.7-5.5,6.2-9.1c1,0.7,1.5,1,2.4,1.7c0.3-0.4,0.5-0.6,0.8-1.1c-2.5-1.8-3.8-2.7-6.4-4.3c-0.3,0.4-0.4,0.7-0.7,1.1
	c1,0.6,1.5,0.9,2.5,1.6c-2.4,3.7-3.7,5.5-6.1,9.2C297.6,125.2,297.8,125.3,298.4,125.7z M314.6,122.3c-1.7-1.4-2.5-2-4.3-3.3
	c-3,4-4.4,6-7.4,9.9c0.5,0.4,0.8,0.6,1.3,1c1.3-1.6,1.9-2.5,3.2-4.1c0.8,0.6,1.1,0.9,1.9,1.5c-0.8,2-1.3,3-2.1,4.9
	c0.5,0.4,0.8,0.7,1.4,1.1c0.9-2,1.3-3,2.1-5.1c0.9,0.4,1.8,0.4,2.4-0.3c0.9-1.1,1.4-1.7,2.3-2.8
	C315.9,124.5,315.6,123.2,314.6,122.3z M313.9,124.1c-0.9,1.1-1.4,1.7-2.3,2.8c-0.2,0.2-0.5,0.2-0.7,0c-1.1-0.9-1.6-1.3-2.7-2.1
	c1.1-1.4,1.7-2.2,2.8-3.6c1.1,0.9,1.7,1.3,2.8,2.2C314,123.6,314.1,123.9,313.9,124.1z M310,134.6c0.5,0.4,0.8,0.7,1.3,1.1
	c0.7-0.5,1-0.7,1.7-1.2c1.3,1.2,1.9,1.8,3.2,3c-0.4,0.7-0.6,1.1-1,1.8c0.5,0.5,0.7,0.7,1.2,1.2c2.5-4.5,3.7-6.8,6-11.4
	c-0.6-0.6-1-0.9-1.6-1.5C316.4,130.4,314.2,131.8,310,134.6z M316.8,136.3c-1.1-1-1.6-1.5-2.7-2.5c2.4-1.6,3.6-2.4,6.1-3.9
	C318.9,132.5,318.2,133.8,316.8,136.3z M318.2,142.4c0.5,0.5,0.7,0.7,1.2,1.2c3.6-3.4,5.4-5.1,9-8.5c-0.5-0.5-0.8-0.8-1.3-1.3
	C323.5,137.2,321.8,139,318.2,142.4z M324.4,149.3c3.4-2.9,5.1-4.3,8.4-7.2c0.8,1,1.2,1.4,2,2.4c0.4-0.3,0.6-0.5,1-0.8
	c-2-2.6-3.1-3.8-5.3-6.2c-0.4,0.4-0.6,0.5-1,0.9c0.8,0.9,1.2,1.4,2,2.3c-3.3,2.9-5,4.4-8.3,7.3C323.7,148.5,323.9,148.7,324.4,149.3
	z M335.9,154.6c0.4-0.3,0.6-0.5,1.1-0.8c-0.8-1.2-1.3-1.8-2.2-3c1.2-0.9,1.8-1.4,3.1-2.3c1.2,1.6,1.8,2.4,2.9,4.1
	c0.4-0.3,0.7-0.5,1.1-0.8c-1.6-2.3-2.4-3.5-4.1-5.7c-3.9,3-5.9,4.6-9.8,7.6c1.5,2,2.3,3.1,3.8,5.2c0.4-0.3,0.7-0.5,1.1-0.8
	c-1.1-1.6-1.6-2.3-2.7-3.8c1.5-1.1,2.2-1.6,3.6-2.7C334.6,152.8,335.1,153.4,335.9,154.6z M336.3,166.1c0.7,1.1,1.9,1.7,2.7,1.2
	c3.7-2.1,5.5-3.2,9.2-5.3c-0.4-0.7-0.6-1-1-1.7c-3.6,2.2-5.4,3.3-9.1,5.5c-0.2,0.1-0.5,0-0.7-0.3c-0.6-1-0.9-1.5-1.6-2.6
	c-0.2-0.3-0.2-0.6,0-0.7c3.6-2.3,5.3-3.5,8.9-5.8c-0.4-0.7-0.6-1-1.1-1.6c-3.5,2.4-5.3,3.5-8.8,5.9c-0.8,0.5-0.9,1.9-0.2,3
	C335.4,164.5,335.7,165.1,336.3,166.1z M343,178.5c1.6-1.5,2.4-2.3,4-3.9c0.7,0.9,1.6,1.3,2.3,0.9c1.3-0.6,2-0.9,3.3-1.6
	c0.9-0.4,1.1-1.8,0.4-3.2c-1.1-2.2-1.6-3.2-2.8-5.3c-4.3,2.4-6.5,3.6-10.8,5.9c0.3,0.6,0.5,1,0.9,1.6c1.8-1,2.7-1.5,4.6-2.4
	c0.5,0.9,0.7,1.4,1.2,2.4c-1.6,1.5-2.3,2.3-3.9,3.7C342.5,177.4,342.6,177.8,343,178.5z M346,170c1.6-0.8,2.4-1.3,4-2.1
	c0.7,1.4,1.1,2.1,1.8,3.5c0.2,0.4,0.1,0.7-0.1,0.8c-1.3,0.6-2,1-3.3,1.6c-0.2,0.1-0.5,0-0.7-0.4C347,172,346.7,171.3,346,170z"/>
</svg>
