<?xml version="1.0" encoding="utf-8"?>
<!-- Generator: Adobe Illustrator 27.4.1, SVG Export Plug-In . SVG Version: 6.00 Build 0)  -->
<svg version="1.1" id="Layer_2" xmlns="http://www.w3.org/2000/svg" xmlns:xlink="http://www.w3.org/1999/xlink" x="0px" y="0px"
	 viewBox="0 0 400 300" style="enable-background:new 0 0 400 300;" xml:space="preserve">
<path d="M350,221.8c-0.3,1.4-0.5,2.8-1,4.1c-0.2,0.6-0.8,1.3-1.4,1.5c-3.6,1-7.3,1.8-11,2.6c-2.4,0.5-4.7,0-7-0.8
	c-0.9-0.3-1.3-0.9-1.6-1.9c-0.8-2.9-1.6-5.7-2.6-8.5c-0.8-2.1-2.2-3.8-4-5.2c-0.7-0.5-1.6-0.8-2.6-1.3c0,2.1-0.1,3.8,0,5.5
	c0.1,3.1,0.4,6.2,0.6,9.3c0.1,1.1-0.3,1.5-1.4,1.4c-1.6-0.2-3.2-0.3-5.1-0.4c2.9-5.5,0.9-10.6-0.3-15.8c-0.5-2.2-0.9-4.4-1.2-6.6
	c-0.3-2,0.2-3.9,1.5-5.4c4.5-5.4,4.2-11.5,2.8-17.8c-0.6-2.8-1.1-5.5-1.6-8.3c-0.1-0.4-0.1-0.8-0.1-1.2c1.7,0.6,3.4,1.3,5.3,2
	c0-3,0-5.8,0-8.5c0-17.1,0-34.3,0-51.4c0-1.3,0.4-2.3,1.3-3.2c2.8-2.8,5.5-5.7,8.2-8.5c0.3-0.3,0.7-0.6,1.2-1.1
	c0.1,0.6,0.2,1,0.2,1.4c0,12.5-0.1,25.1-0.1,37.6c0,8.4,0,16.7,0,25.1c0,1,0.3,1.6,1.3,1.9c0.9,0.3,1.7,0.8,2.5,1.4
	c1.2,0.9,1.9,2.1,1.6,3.8c-1,5.1-0.4,10.2,0.1,15.3c0.8,8.1,1.7,16.2,1.4,24.4c0,0.9,0.3,1.3,1.1,1.5c1.8,0.6,3.5,1.2,5.2,2
	c2.3,1,4.5,2.1,6.8,3.1C350,220.4,350,221.1,350,221.8z M286.5,225.5c1.8,4.4,2.3,9.1,2.4,13.9c0,1.1,0.4,1.8,1.3,2.3
	c3.1,2.1,6.5,2.8,10.1,2.7c3.9,0,7.8-0.4,11.7-0.6c1,0,1.5-0.6,1.8-1.4c0.7-2.2,1.5-4.4,2.1-6.7c0.1-0.4-0.2-1.1-0.6-1.4
	c-1.6-1.2-3.2-2.4-4.8-3.5c-2.5-1.6-5.1-3-7.6-4.6c-0.4-0.2-0.8-1-0.7-1.4c2.2-9.1,2.7-18.3,3.5-27.6c0.6-7,1.3-14.1,3.5-20.8
	c0.3-0.8,0-1.9-0.4-2.7c-1-2-2.9-3.1-4.8-4.1c-0.9-0.4-1.1-0.9-0.9-1.8c0.4-3,0.7-5.9,1-8.9c0.4-3.9,0.8-7.8,1.2-11.8
	c0.6-5.9,1.3-11.8,1.9-17.7c0.8-7.2,1.5-14.4,2.3-21.6c0-0.4,0-0.8,0-1.3c-0.3,0.1-0.4,0.1-0.5,0.2c-3.6,2.9-7.2,5.9-10.7,8.9
	c-0.3,0.3-0.6,0.9-0.6,1.3c-0.3,2.2-0.5,4.5-0.8,6.7c-0.8,7.8-1.6,15.6-2.4,23.4c-0.8,7.2-1.5,14.5-2.3,21.7
	c-0.3,2.4-0.6,4.9-0.9,7.4c-2.6-1-5.3-1.7-7.3-4.3c-0.1,1.5-0.2,2.7-0.2,3.9c0,4.3,0.2,8.6,0.1,12.9c-0.2,5.9-2,11.2-6.7,15.2
	c-1.9,1.6-3.1,3.7-3.2,6.2c-0.2,2.7-0.2,5.5-0.1,8.2c0.2,4.2,0.9,8.3-0.2,12.4c-0.6,2.2-1.6,4.3-2.4,6.5c2.2,0.5,4.5,1.1,7.1,1.7
	c1.8-6.2,1.2-12.8,2.9-19.2C283.8,221.1,285.5,223,286.5,225.5z M262.4,150.2c4.1,0,8.2,0,12.4-0.1c0.7,0,1.5-0.5,2-1
	c3.4-3.2,6.7-6.6,10-9.8c0.5-0.5,0.5-0.8,0-1.3c-2.5-2.5-4.9-5.2-7.6-7.5c-6.8-5.9-14.8-7.9-23.5-5.7c-12.5,3.2-21.2,15.5-19.2,28.9
	c2.1,13.8,15.3,24.1,29,22c10-1.6,17.2-7,21-16.5c1-2.4,1.2-5.2,1.7-7.8c0.1-0.6,0.1-1.4-0.9-1.4c-2.9,0-5.9,0-8.8-0.1
	c-1,0-1.3,0.5-1.3,1.4c-0.1,6-5.6,12.3-11.9,13.5c-6.1,1.1-11.4-0.9-15.1-5.8c-3.8-4.9-4.4-10.5-1.2-16.1c2.7-4.7,6.7-7.6,12.3-8
	c3.8-0.3,7,1,10.1,3c1,0.7,0.9,1.1,0.2,1.9c-2.5,2.4-4.9,4.9-7.3,7.4c-0.9,0.9-1.7,1.8-2.7,2.9C262.1,150.1,262.3,150.2,262.4,150.2
	z M165,162.4c0,4.1,0,8.2,0,12.2c0,1.1,0.3,1.5,1.4,1.4c2.5-0.1,4.9,0,7.4-0.1c2.1,0,2.1,0,2.1-2.1c0-7.2,0-14.4,0-21.6
	c0-2.1-0.2-4.2-0.5-6.3c-2-13.9-15.9-25-31.5-21.3c-18.1,4.4-26.4,25.5-14.6,40.8c6.4,8.4,15.2,11.8,25.7,9.9c1.1-0.2,1-0.8,0.8-1.6
	c-0.6-2.5-1.2-5-1.7-7.5c-0.2-1.2-0.6-2-2-1.5c-0.5,0.2-1,0.1-1.6,0.1c-6.9,0.4-13.4-4.2-15.2-11.1c-1.9-7,1.1-13.8,7.1-17.2
	c9.3-5.4,21.4,0.8,22.4,11.6c0.5,4.7,0.1,9.4,0.1,14.2C164.8,162.4,164.9,162.4,165,162.4z M208,161.3c0,4.4,0,8.8,0,13.3
	c0,1.1,0.3,1.5,1.5,1.5c2.6-0.1,5.2,0,7.8,0c1.8,0,1.8,0,1.8-1.8c0-8.4-0.1-16.7,0.1-25.1c0.1-4.3,2.2-7.9,5.5-10.7
	c2.4-2.1,5.3-3.3,8.5-3.6c0.4,0,1.1-0.6,1.1-0.9c0.1-3,0-6,0-9c0-0.9-0.5-1-1.3-1c-4,0.3-7.8,1.3-11.2,3.3c-8.3,4.9-13,12-13.4,21.6
	c-0.2,4.1,0,8.2,0,12.4C208.1,161.3,208.1,161.3,208,161.3z M180,161c0,4.6,0,9.1,0,13.7c0,1,0.3,1.4,1.4,1.4c2.6-0.1,5.3-0.1,7.9,0
	c1.3,0,1.7-0.4,1.7-1.7c-0.1-8.1,0-16.2-0.1-24.3c0-3.1,0.8-5.9,2.6-8.4c2.7-3.9,6.5-6.2,11.2-6.7c0.6-0.1,1.4,0,1.4-1
	c0-2.9-0.1-5.8-0.1-8.7c0-0.9-0.4-1.2-1.4-1.2c-6.6,0.4-12.3,3.1-17,7.7c-4.9,4.8-7.5,10.7-7.5,17.7
	C180.1,153.2,180.1,157.1,180,161C180,161,180,161,180,161z M150.2,204.7c-30.2,0-54.7-24.5-54.7-54.7c0-30.2,24.5-54.7,54.7-54.7
	c14.6,0,27.9,5.8,37.7,15.1l32.2-32.2c-18.1-17.6-42.7-28.5-69.9-28.5C94.9,49.8,50,94.7,50,150s44.9,100.2,100.2,100.2
	c27.2,0,51.9-10.8,69.9-28.4l-32.2-32.2C178.1,198.9,164.8,204.7,150.2,204.7z"/>
</svg>
