<?xml version="1.0" encoding="utf-8"?>
<!-- Generator: Adobe Illustrator 27.6.1, SVG Export Plug-In . SVG Version: 6.00 Build 0)  -->
<svg version="1.1" id="Layer_1" xmlns="http://www.w3.org/2000/svg" xmlns:xlink="http://www.w3.org/1999/xlink" x="0px" y="0px"
	 viewBox="0 0 300 100" style="enable-background:new 0 0 300 100;" xml:space="preserve">
<g>
	<path style="fill:#002D52;" d="M80.8,42.4l-2-2.6c-3.2-4.1-7.2-7.5-11.8-10.1c-0.2-0.2-0.5-0.5-0.7-0.8c-1.2-1.5-2.9-1.6-4.7-1.2
		c-1,0.2-2,0.5-3.1,0.7c-0.6,0.1-1.2,0.1-1.8,0.1c-0.6,0-1.2,0-1.8-0.1c-1-0.2-2-0.5-3.1-0.7c-1.8-0.4-3.5-0.3-4.7,1.2
		c-0.2,0.3-0.4,0.5-0.7,0.8c-4.5,2.5-8.6,6-11.8,10.1l-2,2.6c-0.5,0.6-0.6,1.4-0.4,2.1c3.6,10.2,10.8,18.1,16.5,23
		c0.1,0.1,0.1,0.1,0.2,0.2c0.3,0.2,0.5,0.4,0.7,0.6c0.1,0.1,0.2,0.2,0.3,0.3c0.2,0.2,0.4,0.4,0.7,0.6c0.1,0.1,0.3,0.2,0.4,0.3
		c0.2,0.1,0.4,0.3,0.6,0.4l0,0c0.2,0.2,0.5,0.4,0.7,0.6c-0.4-1.9-0.8-4.2-1.3-6.6h11.2c-0.5,2.4-0.9,4.7-1.3,6.6
		c0.2-0.2,0.5-0.4,0.7-0.6l0,0c0.2-0.1,0.4-0.3,0.6-0.4c0.1-0.1,0.3-0.2,0.4-0.3c0.2-0.2,0.4-0.4,0.7-0.6c0.1-0.1,0.2-0.2,0.3-0.3
		c0.2-0.2,0.5-0.4,0.7-0.6c0.1-0.1,0.1-0.1,0.2-0.2c5.7-5,12.9-12.9,16.5-23C81.4,43.8,81.3,43,80.8,42.4z M60.7,37.5
		c0,0,0.5-0.3,1.2-0.7c0,0,0.2,0.6,0.5,1.1c0.4-1.1,1.1-2.2,2.4-2.5c0.2,1.2-0.2,2.2-1.2,2.6C62.7,38.6,61.5,38.3,60.7,37.5
		C60.7,37.5,60.7,37.5,60.7,37.5z M56.8,36.2L56.8,36.2L56.8,36.2L56.8,36.2z M48.6,35.4c1.3,0.3,2,1.4,2.4,2.5c0,0,0,0,0,0
		c0.4-0.5,0.5-1.1,0.5-1.1c0.7,0.4,1.2,0.7,1.2,0.7c-0.8,0.9-2,1.1-3,0.6C48.8,37.6,48.4,36.6,48.6,35.4z M46.7,40.7
		c0.8,1.9,2.2,1.9,3.6,1.8c1.2-0.1,1.2-0.1,1.6,1c0.5,1.2,1,2.4,2.1,3.5c0,0-0.4-3.8-0.4-4.4c0-0.6,0-1.4,2.9-1.4
		c2.9,0,2.9,0.8,2.9,1.4c0,0.6-0.4,4.4-0.4,4.4c1.1-1,1.7-2.2,2.1-3.5c0.4-1.1,0.4-1.1,1.6-1c1.4,0.1,2.9,0.1,3.6-1.8
		c0.2,1-0.3,1.6-0.8,2.1c-2,1.9-3.7,4-5,6.5c-0.3,0.6-0.7,1.1-1.1,1.6c-0.8,1-2,1.5-3.1,1.5c-1.2,0-2.3-0.5-3.1-1.5
		c-0.4-0.5-0.8-1-1.1-1.6c-1.2-2.5-2.9-4.6-5-6.5C47,42.3,46.6,41.8,46.7,40.7z M37.8,41.5l5.6,0c0.6,0.8,1.1,1.6,1.5,2.4h-7.5
		L37.8,41.5z M38.2,48.1H47c0.4,0.9,0.7,1.7,1,2.4h-9C38.7,49.8,38.4,48.9,38.2,48.1z M40.9,54.8h8.4l0.5,2.4h-7.5
		C41.8,56.4,41.3,55.6,40.9,54.8z M47.2,63.9c-0.7-0.8-1.3-1.6-2-2.5h5.4l0.5,2.5H47.2z M66.2,63.9h-3.8l0.5-2.5h5.4
		C67.6,62.3,66.9,63.1,66.2,63.9z M71.2,57.2h-7.5l0,0c-0.3,1.2-0.5,2.7-0.8,4.2l0.2-1.3H50.4l0.2,1.3c-0.3-1.5-0.6-3-0.8-4.2l14,0
		l0.5-2.4h8.4C72.1,55.6,71.7,56.4,71.2,57.2z M74.5,50.6h-9c0.3-0.7,0.6-1.5,1-2.4h8.8C75.1,48.9,74.8,49.8,74.5,50.6z M68.6,43.9
		c0.5-0.8,1-1.6,1.5-2.4l5.6,0l0.4,2.4H68.6z"/>
	<path style="fill:#112E51;" d="M103.2,70.6l0.6,0.5c-0.1,0.1-0.3,0.3-0.5,0.5s-0.5,0.4-0.8,0.5c-0.3,0.1-0.7,0.2-1.2,0.2
		c-0.6,0-1.2-0.1-1.6-0.4s-0.8-0.7-1.1-1.2c-0.3-0.5-0.4-1-0.4-1.7c0-0.5,0.1-0.9,0.2-1.3c0.2-0.4,0.4-0.7,0.6-1.1
		c0.3-0.3,0.6-0.5,1-0.7c0.4-0.2,0.8-0.3,1.3-0.3c0.4,0,0.8,0.1,1.1,0.2c0.3,0.1,0.6,0.3,0.8,0.5s0.4,0.4,0.5,0.5l-0.6,0.5
		c-0.1-0.1-0.2-0.3-0.4-0.4c-0.2-0.2-0.3-0.3-0.6-0.4c-0.2-0.1-0.5-0.2-0.8-0.2c-0.5,0-0.9,0.1-1.2,0.3s-0.6,0.5-0.8,0.9
		c-0.2,0.4-0.3,0.8-0.3,1.2c0,0.5,0.1,0.9,0.3,1.2s0.4,0.7,0.8,0.9c0.3,0.2,0.7,0.3,1.2,0.3c0.4,0,0.7-0.1,0.9-0.2s0.4-0.3,0.6-0.4
		C103.1,70.8,103.2,70.7,103.2,70.6z M108.1,72.4c-0.5,0-0.9-0.1-1.3-0.3c-0.4-0.2-0.7-0.4-1-0.7c-0.3-0.3-0.5-0.7-0.7-1.1
		c-0.2-0.4-0.2-0.8-0.2-1.3s0.1-0.9,0.2-1.3c0.2-0.4,0.4-0.7,0.7-1c0.3-0.3,0.6-0.5,1-0.7s0.8-0.3,1.3-0.3c0.5,0,0.9,0.1,1.3,0.3
		s0.7,0.4,1,0.7c0.3,0.3,0.5,0.7,0.7,1c0.2,0.4,0.2,0.8,0.2,1.3s-0.1,0.9-0.2,1.3c-0.2,0.4-0.4,0.7-0.7,1.1c-0.3,0.3-0.6,0.5-1,0.7
		C109,72.3,108.6,72.4,108.1,72.4z M108.1,71.5c0.5,0,0.9-0.1,1.2-0.3c0.3-0.2,0.6-0.5,0.8-0.9c0.2-0.4,0.3-0.8,0.3-1.2
		c0-0.5-0.1-0.9-0.3-1.2c-0.2-0.4-0.4-0.7-0.8-0.9c-0.3-0.2-0.7-0.3-1.2-0.3c-0.5,0-0.9,0.1-1.2,0.3c-0.3,0.2-0.6,0.5-0.8,0.9
		s-0.3,0.8-0.3,1.2c0,0.4,0.1,0.9,0.3,1.2s0.4,0.7,0.8,0.9C107.3,71.4,107.7,71.5,108.1,71.5z M112.8,72.2l0.3-6.3h0.9l1.9,3.3
		l1.9-3.3h0.8l0.3,6.3h-0.9l-0.2-4.8l-1.8,3h-0.5l-1.7-2.9l-0.2,4.8H112.8z M120.7,72.2v-6.3h3.9v0.8h-3v1.9h2.3v0.8h-2.3v2.7H120.7
		z M128.6,72.4c-0.5,0-0.9-0.1-1.3-0.3c-0.4-0.2-0.7-0.4-1-0.7c-0.3-0.3-0.5-0.7-0.7-1.1c-0.2-0.4-0.2-0.8-0.2-1.3s0.1-0.9,0.2-1.3
		c0.2-0.4,0.4-0.7,0.7-1c0.3-0.3,0.6-0.5,1-0.7s0.8-0.3,1.3-0.3c0.5,0,0.9,0.1,1.3,0.3s0.7,0.4,1,0.7c0.3,0.3,0.5,0.7,0.7,1
		c0.2,0.4,0.2,0.8,0.2,1.3s-0.1,0.9-0.2,1.3c-0.2,0.4-0.4,0.7-0.7,1.1c-0.3,0.3-0.6,0.5-1,0.7C129.5,72.3,129.1,72.4,128.6,72.4z
		 M128.6,71.5c0.5,0,0.9-0.1,1.2-0.3c0.3-0.2,0.6-0.5,0.8-0.9c0.2-0.4,0.3-0.8,0.3-1.2c0-0.5-0.1-0.9-0.3-1.2
		c-0.2-0.4-0.4-0.7-0.8-0.9c-0.3-0.2-0.7-0.3-1.2-0.3c-0.5,0-0.9,0.1-1.2,0.3c-0.3,0.2-0.6,0.5-0.8,0.9s-0.3,0.8-0.3,1.2
		c0,0.4,0.1,0.9,0.3,1.2s0.4,0.7,0.8,0.9C127.8,71.4,128.2,71.5,128.6,71.5z M133.4,72.2v-6.3h2c0.5,0,1,0.1,1.3,0.3
		c0.3,0.2,0.6,0.4,0.7,0.7c0.1,0.3,0.2,0.6,0.2,0.9c0,0.4-0.1,0.8-0.3,1.1c-0.2,0.3-0.5,0.5-0.9,0.7l1.5,2.7h-1l-1.3-2.6h-1.3v2.6
		H133.4z M134.3,68.9h1.2c0.4,0,0.7-0.1,0.9-0.3c0.2-0.2,0.3-0.5,0.3-0.8c0-0.3-0.1-0.6-0.3-0.8c-0.2-0.2-0.5-0.3-0.9-0.3h-1.2V68.9
		z M141,72.2v-5.5h-2.2v-0.8h5.4v0.8h-2.2v5.5H141z M148.5,72.2v-6.3h0.9v6.3H148.5z M151.2,72.2v-6.3h0.9l3.4,4.9v-4.9h0.9v6.3
		h-0.9l-3.4-4.9v4.9H151.2z M161.3,72.2v-6.3h0.9v2.8l2.6-2.8h1l-2.3,2.6l2.6,3.7h-1.1l-2.1-3.1l-0.7,0.8v2.3H161.3z M167.4,72.2
		v-6.3h0.9v6.3H167.4z M171.9,72.2v-5.5h-2.2v-0.8h5.4v0.8h-2.2v5.5H171.9z M180.4,70.6l0.6,0.5c-0.1,0.1-0.3,0.3-0.5,0.5
		s-0.5,0.4-0.8,0.5c-0.3,0.1-0.7,0.2-1.2,0.2c-0.6,0-1.2-0.1-1.6-0.4s-0.8-0.7-1.1-1.2c-0.3-0.5-0.4-1-0.4-1.7
		c0-0.5,0.1-0.9,0.2-1.3c0.2-0.4,0.4-0.7,0.6-1.1c0.3-0.3,0.6-0.5,1-0.7c0.4-0.2,0.8-0.3,1.3-0.3c0.4,0,0.8,0.1,1.1,0.2
		c0.3,0.1,0.6,0.3,0.8,0.5s0.4,0.4,0.5,0.5l-0.6,0.5c-0.1-0.1-0.2-0.3-0.4-0.4c-0.2-0.2-0.3-0.3-0.6-0.4c-0.2-0.1-0.5-0.2-0.8-0.2
		c-0.5,0-0.9,0.1-1.2,0.3s-0.6,0.5-0.8,0.9c-0.2,0.4-0.3,0.8-0.3,1.2c0,0.5,0.1,0.9,0.3,1.2s0.4,0.7,0.8,0.9
		c0.3,0.2,0.7,0.3,1.2,0.3c0.4,0,0.7-0.1,0.9-0.2s0.4-0.3,0.6-0.4C180.3,70.8,180.4,70.7,180.4,70.6z M182.5,72.2v-6.3h0.9v2.6h3.4
		v-2.6h0.9v6.3h-0.9v-2.8h-3.4v2.8H182.5z M189.6,72.2v-6.3h4v0.8h-3v1.8h2.3v0.8h-2.3v2h3.3v0.8H189.6z M195.3,72.2v-6.3h0.9
		l3.4,4.9v-4.9h0.9v6.3h-0.9l-3.4-4.9v4.9H195.3z M207.2,72.2l-2.4-6.3h1l1.9,5.2l1.9-5.2h1l-2.4,6.3H207.2z M211.8,72.2v-6.3h4v0.8
		h-3v1.8h2.3v0.8h-2.3v2h3.3v0.8H211.8z M217.6,72.2v-6.3h0.9l3.4,4.9v-4.9h0.9v6.3h-0.9l-3.4-4.9v4.9H217.6z M226.4,72.2v-5.5h-2.2
		v-0.8h5.4v0.8h-2.2v5.5H226.4z M230.9,72.2v-6.3h0.9v6.3H230.9z M233.6,72.2v-6.3h0.9v5.5h3.3v0.8H233.6z M238.7,72.2l2.5-6.3h0.9
		l2.5,6.3h-1l-0.6-1.8h-2.6l-0.6,1.8H238.7z M240.6,69.7h2l-1-2.8L240.6,69.7z M246.5,72.2v-5.5h-2.2v-0.8h5.4v0.8h-2.2v5.5H246.5z
		 M251,72.2v-6.3h0.9v6.3H251z M256.7,72.4c-0.5,0-0.9-0.1-1.3-0.3c-0.4-0.2-0.7-0.4-1-0.7c-0.3-0.3-0.5-0.7-0.7-1.1
		c-0.2-0.4-0.2-0.8-0.2-1.3s0.1-0.9,0.2-1.3c0.2-0.4,0.4-0.7,0.7-1c0.3-0.3,0.6-0.5,1-0.7s0.8-0.3,1.3-0.3c0.5,0,0.9,0.1,1.3,0.3
		s0.7,0.4,1,0.7c0.3,0.3,0.5,0.7,0.7,1c0.2,0.4,0.2,0.8,0.2,1.3s-0.1,0.9-0.2,1.3c-0.2,0.4-0.4,0.7-0.7,1.1c-0.3,0.3-0.6,0.5-1,0.7
		C257.5,72.3,257.1,72.4,256.7,72.4z M256.7,71.5c0.5,0,0.9-0.1,1.2-0.3c0.3-0.2,0.6-0.5,0.8-0.9c0.2-0.4,0.3-0.8,0.3-1.2
		c0-0.5-0.1-0.9-0.3-1.2c-0.2-0.4-0.4-0.7-0.8-0.9c-0.3-0.2-0.7-0.3-1.2-0.3c-0.5,0-0.9,0.1-1.2,0.3c-0.3,0.2-0.6,0.5-0.8,0.9
		s-0.3,0.8-0.3,1.2c0,0.4,0.1,0.9,0.3,1.2s0.4,0.7,0.8,0.9C255.8,71.4,256.2,71.5,256.7,71.5z M261.5,72.2v-6.3h0.9l3.4,4.9v-4.9
		h0.9v6.3h-0.9l-3.4-4.9v4.9H261.5z"/>
	<path style="fill:#EB2126;" d="M98.4,56.7V33.4h8.8c2.4,0,4.5,0.4,6.4,1.2c1.9,0.8,3.3,2.1,4.4,3.8c1.1,1.7,1.6,4,1.6,6.7
		c0,2.6-0.5,4.7-1.6,6.4c-1.1,1.7-2.6,3-4.4,3.8c-1.9,0.8-4,1.3-6.4,1.3H98.4z M103.7,52h3.2c2.3,0,4.1-0.6,5.4-1.8
		c1.3-1.2,1.9-2.9,1.9-5c0-2.1-0.6-3.9-1.7-5.1c-1.2-1.3-3-1.9-5.5-1.9h-3.2V52z M155.8,56.7V33.4h5.3v9.3l7.8-9.3h6.1l-8,9.1
		l9.1,14.2h-6.4l-6.2-10.1l-2.4,2.7v7.5H155.8z M188.1,57.3c-1.7,0-3.3-0.3-4.8-0.9c-1.5-0.6-2.7-1.5-3.9-2.6
		c-1.1-1.1-2-2.4-2.6-3.9c-0.6-1.5-0.9-3.1-0.9-4.8c0-1.7,0.3-3.4,0.9-4.8c0.6-1.5,1.5-2.8,2.5-3.9c1.1-1.1,2.4-2,3.9-2.6
		c1.5-0.6,3.1-0.9,4.8-0.9c1.7,0,3.3,0.3,4.8,0.9c1.5,0.6,2.7,1.5,3.9,2.6c1.1,1.1,2,2.4,2.6,3.9c0.6,1.5,0.9,3.1,0.9,4.8
		c0,1.7-0.3,3.3-0.9,4.8c-0.6,1.5-1.5,2.8-2.6,3.9c-1.1,1.1-2.4,2-3.9,2.6C191.4,56.9,189.8,57.3,188.1,57.3z M188.1,52.3
		c1.4,0,2.6-0.3,3.5-1c1-0.7,1.7-1.6,2.3-2.7c0.5-1.1,0.8-2.3,0.8-3.7s-0.3-2.5-0.8-3.6c-0.5-1.1-1.3-2-2.3-2.6c-1-0.7-2.2-1-3.5-1
		c-1.4,0-2.6,0.3-3.5,1c-1,0.7-1.7,1.5-2.3,2.6c-0.5,1.1-0.8,2.3-0.8,3.6s0.3,2.5,0.8,3.7c0.5,1.1,1.3,2,2.3,2.7
		C185.5,52,186.7,52.3,188.1,52.3z M203.4,56.7V33.4h8.7c1.9,0,3.5,0.3,4.6,0.9c1.1,0.6,2,1.3,2.5,2.2c0.5,0.9,0.8,1.9,0.8,3
		c0,1-0.2,1.8-0.6,2.5c-0.4,0.7-0.9,1.2-1.5,1.6c-0.5,0.4-1,0.6-1.4,0.7c0.2,0,0.4,0.1,0.6,0.2c0.2,0.1,0.5,0.2,0.7,0.3
		c1,0.4,1.7,1.1,2.4,2c0.6,0.9,0.9,2,0.9,3.2c0,2.4-0.8,4.1-2.5,5.1c-1.6,1-3.9,1.5-6.6,1.5H203.4z M208.5,42.7h3.1
		c0.8,0,1.5-0.2,2.2-0.6c0.7-0.4,1-1.1,1-2c0-0.7-0.2-1.2-0.5-1.6c-0.3-0.4-0.7-0.6-1.2-0.8c-0.5-0.1-1-0.2-1.5-0.2h-3.1V42.7z
		 M208.5,52.6h3.4c0.5,0,1.1-0.1,1.7-0.2c0.6-0.1,1.1-0.4,1.6-0.8c0.4-0.4,0.7-1.1,0.7-2c0-0.8-0.2-1.5-0.6-1.9
		c-0.4-0.4-1-0.7-1.6-0.9s-1.2-0.2-1.7-0.2h-3.4V52.6z M224.5,56.7V33.4h8.6c1.8,0,3.3,0.3,4.5,1c1.2,0.7,2.1,1.5,2.7,2.7
		c0.6,1.1,0.9,2.3,0.9,3.6c0,1.5-0.3,2.8-1,3.9c-0.7,1.1-1.6,2-2.8,2.7l5.2,9.3h-5.8l-4.3-8.5h-2.9v8.5H224.5z M229.6,43.9h3.2
		c1,0,1.7-0.3,2.3-0.9c0.6-0.6,0.8-1.3,0.8-2.2c0-1-0.3-1.7-0.9-2.3c-0.6-0.6-1.3-0.8-2.3-0.8h-3.2V43.9z M244.8,56.7l8.7-23.3h5.8
		l8.5,23.3h-5.8l-1.8-5.3h-8.2l-1.8,5.3H244.8z M253.3,47.2h5.7l-2.8-8.8L253.3,47.2z M123.2,52v4.7h16.7V52L123.2,52z M123.2,33.4
		V38h16.7v-4.6H123.2z M123.2,47h16.7v-4.4h-16.7V47z"/>
</g>
</svg>
