<?xml version="1.0" encoding="utf-8"?>
<!-- Generator: Adobe Illustrator 27.4.1, SVG Export Plug-In . SVG Version: 6.00 Build 0)  -->
<svg version="1.1" id="Layer_1" xmlns="http://www.w3.org/2000/svg" xmlns:xlink="http://www.w3.org/1999/xlink" x="0px" y="0px"
	 viewBox="0 0 600 240" style="enable-background:new 0 0 600 240;" xml:space="preserve">
<path style="fill:#5B5859;" d="M72.8,143.3H74l-0.8,10.8H44.5V153h0.7c1.7,0,2.8-0.2,3.3-0.7c0.5-0.5,0.8-1,1-1.8
	c0.1-0.7,0.2-2.5,0.2-5.4v-17c0-2.6-0.1-4.4-0.2-5.2c-0.1-0.8-0.5-1.4-1-1.8c-0.5-0.3-1.6-0.5-3.3-0.5v-1.2H70l0.8,8.7h-1.2
	c-0.5-2.4-1.2-4.1-2-5.2c-0.8-1-1.7-1.7-2.8-1.9c-1.1-0.3-2.8-0.4-5.3-0.4h-4.8v14.6h3.7c1.7,0,2.9-0.1,3.6-0.4
	c0.7-0.3,1.1-0.7,1.3-1.3c0.2-0.6,0.3-1.7,0.3-3.4h1.2v11.9h-1.2c0-1.9-0.2-3.2-0.5-3.9c-0.3-0.7-0.8-1.1-1.4-1.3
	c-0.6-0.2-1.7-0.3-3.2-0.3h-3.8v8.2c0,4.1,0.3,6.5,0.8,7.3c0.5,0.7,2,1.1,4.3,1.1h2.6c1.8,0,3.3-0.2,4.5-0.7
	c1.2-0.5,2.3-1.4,3.4-2.9C71.3,147.9,72.1,145.9,72.8,143.3 M98.4,155h-1.6l-12-27.6c-0.2-0.5-0.6-1.3-1-2.6
	c-0.7-1.6-1.4-2.7-2.1-3.3c-0.7-0.6-1.9-0.9-3.6-0.9v-1.2h14.9v1.2c-1.9,0-3.1,0.1-3.8,0.4c-0.6,0.3-1,0.8-1,1.6
	c0,0.5,0.4,1.7,1.2,3.5l10,23.1l8-19.2c1.3-3.2,2-5.3,2-6.3c0-2-1.4-3-4.2-3v-1.2H116v1.2c-1.1,0-2,0.4-2.8,1.2
	c-0.8,0.7-1.5,1.8-2.1,3.2l-2.3,5.5L98.4,155z M150,143.3h1.2l-0.8,10.8h-28.7V153h0.7c1.7,0,2.8-0.2,3.3-0.7c0.5-0.5,0.8-1,1-1.8
	c0.1-0.7,0.2-2.5,0.2-5.4v-17c0-2.6-0.1-4.4-0.2-5.2c-0.1-0.8-0.5-1.4-1-1.8c-0.5-0.3-1.6-0.5-3.3-0.5v-1.2h24.8l0.8,8.7h-1.2
	c-0.5-2.4-1.2-4.1-2-5.2c-0.8-1-1.7-1.7-2.8-1.9c-1.1-0.3-2.9-0.4-5.3-0.4H132v14.6h3.7c1.7,0,2.9-0.1,3.6-0.4
	c0.7-0.3,1.1-0.7,1.3-1.3c0.2-0.6,0.3-1.7,0.3-3.4h1.2v11.9h-1.2c0-1.9-0.2-3.2-0.5-3.9c-0.3-0.7-0.8-1.1-1.4-1.3
	c-0.6-0.2-1.7-0.3-3.2-0.3H132v8.2c0,4.1,0.3,6.5,0.8,7.3c0.5,0.7,2,1.1,4.3,1.1h2.6c1.8,0,3.3-0.2,4.5-0.7c1.2-0.5,2.3-1.4,3.4-2.9
	C148.6,147.9,149.4,145.9,150,143.3 M187.4,143.9l-0.3,10.2h-29.5V153h1c1.5,0,2.5-0.2,3.1-0.6c0.6-0.4,0.9-1,1.1-1.8
	c0.2-0.8,0.2-2.6,0.2-5.5v-17c0-2.8-0.1-4.5-0.2-5.3c-0.2-0.8-0.5-1.4-1-1.7c-0.5-0.3-1.7-0.5-3.4-0.5h-0.8v-1.2h16.7v1.2h-1.5
	c-1.7,0-2.8,0.1-3.4,0.4c-0.5,0.3-0.9,0.8-1.1,1.6s-0.3,2.6-0.3,5.5v18.2c0,2.5,0.1,4.1,0.2,4.7c0.1,0.6,0.5,1.1,1.1,1.5
	c0.6,0.3,1.9,0.5,3.9,0.5h2.6c2.1,0,3.7-0.2,4.7-0.6c1-0.4,2-1.2,2.9-2.5s1.8-3.3,2.5-6C186.2,143.9,187.4,143.9,187.4,143.9z
	 M207.2,139l6.8-11.5c1.1-1.9,1.7-3.2,1.7-4c0-0.7-0.3-1.4-0.9-2c-0.6-0.6-1.7-0.9-3.2-0.9v-1.2H223v1.2c-1.6,0.2-2.8,0.8-3.8,1.8
	c-1,0.9-2.2,2.7-3.7,5.2l-7.8,13v4.6c0,3,0.1,4.8,0.3,5.6c0.2,0.8,0.6,1.4,1.2,1.7c0.6,0.3,1.7,0.5,3.5,0.5v1.2h-14.8V153h0.6
	c1.5,0,2.5-0.2,3.1-0.6c0.6-0.4,0.9-1,1.1-1.8c0.2-0.8,0.2-2.6,0.2-5.5v-4.3l-8.7-14.2c-1.8-2.9-2.9-4.6-3.5-5.1
	c-0.6-0.6-1.6-0.8-3.1-0.9v-1.2h14.1v1.2c-2.6,0-4,0.6-4,1.8c0,0.5,0.4,1.4,1.3,2.9L207.2,139z M259.8,154.9l-24.6-32.5v24.1
	c0,2,0.1,3.3,0.3,3.9c0.2,0.6,0.8,1.2,1.7,1.7c0.9,0.5,2.3,0.8,4.1,0.8v1.2h-13V153c1.7-0.1,2.9-0.4,3.8-0.9c0.9-0.5,1.4-1,1.6-1.6
	c0.2-0.6,0.2-1.9,0.2-4v-18.4c0-2.7-0.1-4.4-0.4-5.3c-0.2-0.9-0.6-1.5-1.2-1.7c-0.5-0.3-1.7-0.4-3.6-0.4v-1.2h10.2l20.6,27.2v-20.8
	c0-1.5-0.2-2.6-0.5-3.2c-0.3-0.6-1-1.1-1.9-1.5c-1-0.4-2.1-0.5-3.5-0.5v-1.2h12.6v1.2c-1.5,0.1-2.6,0.4-3.5,0.8
	c-0.8,0.4-1.4,1-1.6,1.6c-0.2,0.6-0.3,1.7-0.3,3.2v28.7H259.8z M309.6,148.2l12.7-28.7h10.7v1.2h-1.3c-1.7,0-2.8,0.1-3.4,0.4
	c-0.5,0.3-0.9,0.8-1.1,1.6c-0.2,0.8-0.3,2.6-0.3,5.5v17c0,2.7,0.1,4.5,0.2,5.4c0.1,0.8,0.5,1.5,1,1.9c0.6,0.4,1.6,0.6,3.2,0.6h1.5
	v1.2h-16.6V153h1.2c1.5,0,2.5-0.2,3.1-0.6c0.6-0.4,0.9-1,1.1-1.8c0.2-0.8,0.2-2.6,0.2-5.5V123l-13.8,31.1h-1.2L293.1,123v20.3
	c0,2.8,0.1,4.7,0.3,5.7c0.2,1,0.7,1.9,1.6,2.6c0.9,0.8,2.1,1.2,3.7,1.3v1.2h-12.4V153c1.5-0.1,2.7-0.5,3.6-1.2
	c0.9-0.7,1.5-1.6,1.7-2.7c0.2-1.1,0.3-3,0.3-5.9v-15.1c0-2.8-0.1-4.5-0.2-5.4c-0.2-0.8-0.5-1.4-1-1.7c-0.5-0.3-1.7-0.5-3.4-0.5h-0.9
	v-1.2h10.6L309.6,148.2z M337.9,136.6c0-5.4,1.8-9.7,5.4-12.9c3.6-3.2,8.1-4.9,13.4-4.9c5.4,0,9.9,1.6,13.5,4.8
	c3.6,3.2,5.4,7.6,5.4,13.1c0,5.4-1.7,9.7-5.2,13.1c-3.5,3.3-8,5-13.7,5c-5.5,0-10-1.7-13.6-5C339.7,146.5,337.9,142.1,337.9,136.6
	 M343.8,136.7c0,5.6,1.1,9.8,3.3,12.6c2.2,2.8,5.6,4.2,10,4.2c3.9,0,7-1.4,9.3-4.2c2.3-2.8,3.4-7,3.4-12.5c0-5.4-1.1-9.5-3.4-12.4
	c-2.2-2.9-5.5-4.3-9.7-4.3c-4.2,0-7.4,1.4-9.6,4.2C344.9,127.1,343.8,131.2,343.8,136.7 M417.9,154.1h-9.3c-1.7-1.2-4.2-4.2-7.6-9.1
	c-1.1-1.6-2.2-3.1-3.4-4.5c-1.2-1.4-2-2.3-2.4-2.6c-0.4-0.3-1.1-0.5-2.1-0.5h-1.4v7.7c0,2.7,0.1,4.5,0.2,5.4c0.1,0.8,0.5,1.5,1,1.9
	c0.6,0.4,1.6,0.6,3.2,0.6h1.7v1.2h-16.6V153h1.1c1.5,0,2.5-0.2,3.1-0.6c0.6-0.4,0.9-1,1.1-1.8c0.2-0.8,0.2-2.6,0.2-5.5v-17
	c0-2.8-0.1-4.5-0.2-5.3c-0.2-0.8-0.5-1.4-1-1.7c-0.5-0.3-1.7-0.5-3.4-0.5h-0.6v-1.2l5-0.3c3.3-0.2,5.9-0.2,7.9-0.2
	c3.3,0,6,0.3,8.1,0.9c2.1,0.6,3.8,1.6,5,3c1.3,1.4,1.9,3.1,1.9,5c0,2.3-0.8,4.2-2.5,5.8c-1.7,1.6-4.1,2.6-7.4,3
	c1.5,0.7,3.8,3.2,7,7.6c2.6,3.5,4.7,5.8,6.2,6.9c1.5,1.1,3.3,1.7,5.3,1.7L417.9,154.1L417.9,154.1z M391.6,136.2
	c1.3,0,2.6-0.1,4-0.2c1.4-0.1,2.6-0.3,3.6-0.6c1-0.3,1.8-0.8,2.4-1.3c0.6-0.6,1.1-1.4,1.5-2.3c0.4-1,0.5-2.1,0.5-3.5
	c0-2.4-0.6-4.4-1.8-5.9c-1.2-1.5-3.9-2.2-8-2.2c-0.6,0-1.4,0-2.2,0.1V136.2z M452.2,143.3h1.2l-0.8,10.8H424V153h0.7
	c1.7,0,2.8-0.2,3.3-0.7c0.5-0.5,0.8-1,1-1.8c0.1-0.7,0.2-2.5,0.2-5.4v-17c0-2.6-0.1-4.4-0.2-5.2c-0.1-0.8-0.5-1.4-1-1.8
	c-0.5-0.3-1.6-0.5-3.3-0.5v-1.2h24.8l0.8,8.7h-1.2c-0.5-2.4-1.2-4.1-2-5.2c-0.8-1-1.7-1.7-2.8-1.9c-1.1-0.3-2.8-0.4-5.3-0.4h-4.8
	v14.6h3.7c1.7,0,2.9-0.1,3.6-0.4c0.7-0.3,1.1-0.7,1.3-1.3c0.2-0.6,0.3-1.7,0.3-3.4h1.2v11.9h-1.2c0-1.9-0.2-3.2-0.5-3.9
	c-0.3-0.7-0.8-1.1-1.4-1.3c-0.6-0.2-1.7-0.3-3.2-0.3h-3.8v8.2c0,4.1,0.3,6.5,0.8,7.3c0.5,0.7,2,1.1,4.3,1.1h2.6
	c1.8,0,3.3-0.2,4.5-0.7c1.2-0.5,2.3-1.4,3.4-2.9C450.8,147.9,451.6,145.9,452.2,143.3 M488.2,143.3h1.2l-0.8,10.8H460V153h0.7
	c1.7,0,2.8-0.2,3.3-0.7c0.5-0.5,0.8-1,1-1.8c0.1-0.7,0.2-2.5,0.2-5.4v-17c0-2.6-0.1-4.4-0.2-5.2c-0.1-0.8-0.5-1.4-1-1.8
	c-0.5-0.3-1.6-0.5-3.3-0.5v-1.2h24.8l0.8,8.7h-1.2c-0.5-2.4-1.2-4.1-2-5.2c-0.8-1-1.7-1.7-2.8-1.9c-1.1-0.3-2.8-0.4-5.3-0.4h-4.8
	v14.6h3.7c1.7,0,2.9-0.1,3.6-0.4c0.7-0.3,1.1-0.7,1.3-1.3c0.2-0.6,0.3-1.7,0.3-3.4h1.2v11.9h-1.2c0-1.9-0.2-3.2-0.5-3.9
	c-0.3-0.7-0.8-1.1-1.4-1.3c-0.6-0.2-1.7-0.3-3.2-0.3h-3.8v8.2c0,4.1,0.3,6.5,0.8,7.3c0.5,0.7,2,1.1,4.3,1.1h2.6
	c1.8,0,3.3-0.2,4.5-0.7c1.2-0.5,2.3-1.4,3.4-2.9C486.8,147.9,487.6,145.9,488.2,143.3 M525.6,143.9l-0.2,10.2h-29.5V153h1
	c1.5,0,2.5-0.2,3.1-0.6c0.6-0.4,0.9-1,1.1-1.8c0.2-0.8,0.2-2.6,0.2-5.5v-17c0-2.8-0.1-4.5-0.2-5.3c-0.2-0.8-0.5-1.4-1-1.7
	c-0.5-0.3-1.7-0.5-3.4-0.5h-0.8v-1.2h16.7v1.2h-1.5c-1.7,0-2.8,0.1-3.4,0.4c-0.5,0.3-0.9,0.8-1.1,1.6c-0.2,0.8-0.3,2.6-0.3,5.5v18.2
	c0,2.5,0.1,4.1,0.2,4.7c0.1,0.6,0.5,1.1,1.1,1.5c0.6,0.3,1.9,0.5,3.9,0.5h2.6c2.1,0,3.7-0.2,4.7-0.6c1-0.4,2-1.2,2.9-2.5
	c0.9-1.3,1.8-3.3,2.5-6C524.5,143.9,525.6,143.9,525.6,143.9z M532.5,153.8v-11.2h1.3c1.5,7.3,4.9,10.9,10.3,10.9
	c2.4,0,4.3-0.7,5.7-2.1c1.3-1.4,2-3,2-4.7c0-1.7-0.6-3.2-1.8-4.4c-1.2-1.2-3.3-2.4-6.5-3.7c-2.8-1.2-4.9-2.2-6.3-3.1
	c-1.4-0.9-2.5-2.1-3.3-3.5c-0.8-1.4-1.2-3-1.2-4.6c0-2.5,0.9-4.5,2.6-6.2c1.7-1.6,3.9-2.5,6.5-2.5c1.5,0,2.9,0.2,4.1,0.7
	c1.3,0.5,2.6,1.5,4,3c0.8-0.9,1.2-2,1.3-3h1.1v9.1h-1.1c-0.6-2.6-1.8-4.7-3.4-6.2c-1.6-1.5-3.6-2.3-5.7-2.3c-2.1,0-3.6,0.6-4.5,1.7
	c-1,1.1-1.4,2.3-1.4,3.7c0,1.6,0.6,3,1.8,4.1c1.2,1.1,3.4,2.4,6.5,3.8c3,1.3,5.2,2.4,6.5,3.2c1.4,0.8,2.4,1.9,3.3,3.4
	c0.8,1.4,1.2,3.1,1.2,5c0,3-1,5.4-3,7.2c-2,1.9-4.6,2.8-7.9,2.8c-3.8,0-7-1.5-9.5-4.4c-0.6,0.8-1,1.9-1.3,3.4
	C533.8,153.8,532.5,153.8,532.5,153.8z M171.2,79.9h59.6V81h-59.6V79.9z M370.4,79.9h58.4V81h-58.4V79.9z M332.9,57.8
	c-7.9-4-14.5-3-19.6,0.7c2.2-21.4,24.5-25,29.9-14.7c-0.4-0.1-0.7-0.2-1.1-0.2c-2.1,0-3.8,1.7-3.8,3.8c0,2.1,1.7,3.8,3.8,3.8
	c1.3,0,2.5-0.7,3.2-1.8c0.1-0.2,3-3.9-2.9-9.7c-4.8-4.8-17-5.2-25.8,3.6c-7.5,7.5-16.2,16-16.2,16s-0.9-0.9-2.5-2.5
	c0.2-0.5,0.4-1.1,0.6-1.6c3-9.3,1.7-15-1-16.9c-0.4-0.3-1.2-0.7-2.2-0.7c-2.1,0-3.8,1.7-3.8,3.8c0,2.1,1.7,3.8,3.8,3.8
	c1.2,0,2.3-0.6,3-1.4c0.5,2.8-0.1,7.3-1.6,11.8c-2.7-2.7-8.8-9.6-13.2-13.9c-4.3-4.3-10.7-6.5-17.2-4.6c-14.6,4.2-15.5,26,1.8,34.8
	c7.9,4,14.5,3,19.6-0.6c-2.2,21.4-24.5,25-29.9,14.7c0.4,0.1,0.7,0.2,1.1,0.2c2.1,0,3.8-1.7,3.8-3.8c0-2.1-1.7-3.8-3.8-3.8
	c-1.4,0-3.3,0.9-3.7,3.2c-0.4,2.6,1.3,6.3,3.4,8.4c7.1,6.8,30.4,5.6,33.1-22.4c1.9-2.2,3.5-4.8,4.8-7.5c2.2,2.2,3.8,3.8,3.8,3.8h0
	c0,0,5.7-5.6,10.6-10.6c-0.8,2.6-1.4,5.5-1.7,8.8c-3.1,3.5-5.3,7.9-6.8,12.3c-2.5,7.9-1.9,13.3-0.1,15.8c1.7,2.4,4.6,1.9,5.8,0.7
	c0.7-0.7,1.2-1.7,1.2-2.8c0-2.1-1.7-3.8-3.8-3.8c-1.1,0-2.2,0.5-2.8,1.3c-0.8-4.8,1.5-14,5.8-20.3c0.2-0.2,0.4-0.5,0.5-0.7
	c-0.7,17.8,11.4,32.1,25.6,28C349.4,88.5,350.3,66.7,332.9,57.8 M288,68.8c-4.1,2.9-9.8,4.5-16.1,2.3c-9.7-3.3-16.9-14.9-11.6-24.6
	c4.2-7.7,22.3-10.8,26.9,12.7C287.8,62.8,288.1,65.9,288,68.8 M292.5,64.2c-0.2,0.2-0.4,0.5-0.5,0.7c0.1-3.8-0.3-7.5-1.2-10.9
	c1.6,1.6,3.3,3.3,4.7,4.8C294.6,60.8,293.6,62.6,292.5,64.2 M340.8,83.1c-4.2,7.7-22.3,10.8-26.9-12.7c-0.7-3.5-0.9-6.7-0.8-9.6
	c4.1-2.9,9.8-4.5,16.1-2.3C338.9,61.7,346.1,73.3,340.8,83.1 M128.7,188.9h8v0.8h-7.1v4.4h6.4v0.8h-6.4v4.5h7.2v0.8h-8.1V188.9z
	 M144.6,194.4l-4.3-5.5h1l3.8,4.9l3.8-4.9h1l-4.3,5.5l4.5,5.7h-1l-4-5.2l-4,5.2h-1L144.6,194.4z M154.1,188.9h4.1
	c2.5,0,4.2,1.3,4.2,3.4v0c0,2.4-2,3.6-4.4,3.6h-3v4.2h-0.8V188.9z M158,195.2c2.1,0,3.5-1.1,3.5-2.8v0c0-1.8-1.4-2.7-3.4-2.7H155
	v5.5H158z M166.4,188.9h4.7c1.4,0,2.5,0.4,3.2,1.1c0.5,0.5,0.8,1.3,0.8,2.1v0c0,1.9-1.4,2.9-3.3,3.2l3.7,4.8h-1.1l-3.6-4.6h-3.7v4.6
	h-0.8L166.4,188.9L166.4,188.9z M171,194.7c1.9,0,3.3-0.9,3.3-2.6v0c0-1.5-1.2-2.4-3.2-2.4h-3.8v5H171z M179.6,188.9h8v0.8h-7.1v4.4
	h6.4v0.8h-6.4v4.5h7.2v0.8h-8.1V188.9z M191.2,198.5l0.5-0.6c1.2,1.1,2.4,1.7,4,1.7c1.7,0,2.8-0.9,2.8-2.2v0c0-1.2-0.6-1.9-3.2-2.4
	c-2.7-0.5-3.8-1.5-3.8-3.2v0c0-1.7,1.5-2.9,3.6-2.9c1.6,0,2.7,0.4,3.8,1.4l-0.5,0.7c-1.1-0.9-2.1-1.3-3.3-1.3
	c-1.6,0-2.7,0.9-2.7,2.1v0c0,1.2,0.6,1.9,3.3,2.4c2.6,0.5,3.7,1.5,3.7,3.1v0c0,1.8-1.6,3.1-3.7,3.1
	C193.9,200.3,192.5,199.7,191.2,198.5z M202.8,198.5l0.5-0.6c1.2,1.1,2.4,1.7,4,1.7c1.7,0,2.8-0.9,2.8-2.2v0c0-1.2-0.6-1.9-3.2-2.4
	c-2.7-0.5-3.8-1.5-3.8-3.2v0c0-1.7,1.5-2.9,3.6-2.9c1.6,0,2.7,0.4,3.8,1.4l-0.5,0.7c-1.1-0.9-2.1-1.3-3.3-1.3
	c-1.6,0-2.7,0.9-2.7,2.1v0c0,1.2,0.6,1.9,3.3,2.4c2.6,0.5,3.7,1.5,3.7,3.1v0c0,1.8-1.6,3.1-3.7,3.1
	C205.6,200.3,204.2,199.7,202.8,198.5z M215.5,188.9h0.8v11.2h-0.8V188.9z M221.4,188.9h0.8l7.7,9.7v-9.7h0.8v11.2h-0.6l-7.9-10v10
	h-0.8V188.9z M235.1,194.6L235.1,194.6c0-3.1,2.2-5.8,5.5-5.8c1.8,0,3,0.5,4.1,1.5l-0.5,0.6c-0.9-0.8-1.9-1.3-3.6-1.3
	c-2.7,0-4.6,2.3-4.6,5v0c0,2.9,1.8,5.1,4.8,5.1c1.4,0,2.8-0.6,3.6-1.3v-3.2h-3.7v-0.8h4.5v4.3c-1,0.9-2.6,1.7-4.4,1.7
	C237.2,200.3,235.1,197.7,235.1,194.6z M256.2,188.9h0.8v10.4h6.6v0.8h-7.4L256.2,188.9L256.2,188.9z M267.8,188.9h0.8v11.2h-0.8
	V188.9z M273.6,188.9h7.9v0.8h-7.1v4.6h6.3v0.8h-6.3v5.1h-0.8L273.6,188.9L273.6,188.9z M285.7,188.9h8v0.8h-7.1v4.4h6.4v0.8h-6.4
	v4.5h7.2v0.8h-8.1V188.9z M297.2,201.4c0.7-0.4,0.9-0.7,0.9-1.3h-0.4v-1.4h1.1v1.2c0,1-0.4,1.5-1.3,1.9L297.2,201.4z M309.2,194.6
	L309.2,194.6c0-3.2,2.4-5.8,5.6-5.8c2,0,3.2,0.7,4.4,1.8l-0.6,0.6c-1-0.9-2.1-1.6-3.8-1.6c-2.7,0-4.7,2.2-4.7,5v0c0,2.8,2.1,5,4.7,5
	c1.6,0,2.7-0.6,3.9-1.7l0.6,0.5c-1.2,1.2-2.5,2-4.5,2C311.6,200.3,309.2,197.8,309.2,194.6z M323.1,188.9h4.7c1.4,0,2.5,0.4,3.2,1.1
	c0.5,0.5,0.8,1.3,0.8,2.1v0c0,1.9-1.4,2.9-3.3,3.2l3.7,4.8h-1.1l-3.6-4.6H324v4.6h-0.8L323.1,188.9L323.1,188.9z M327.8,194.7
	c1.9,0,3.3-0.9,3.3-2.6v0c0-1.5-1.2-2.4-3.2-2.4H324v5H327.8z M336.3,188.9h8v0.8h-7.1v4.4h6.4v0.8h-6.4v4.5h7.2v0.8h-8.1V188.9z
	 M352.9,188.8h0.8l5.2,11.3H358l-1.4-3.1H350l-1.4,3.1h-0.9L352.9,188.8z M356.2,196.2l-2.9-6.5l-3,6.5H356.2z M364.5,189.7h-3.9
	v-0.8h8.6v0.8h-3.9v10.4h-0.8L364.5,189.7L364.5,189.7z M373.5,188.9h0.8v11.2h-0.8V188.9z M379.4,188.9h0.8l7.7,9.7v-9.7h0.8v11.2
	h-0.6l-7.9-10v10h-0.8L379.4,188.9L379.4,188.9z M393.1,194.6L393.1,194.6c0-3.1,2.2-5.8,5.5-5.8c1.8,0,3,0.5,4.1,1.5l-0.5,0.6
	c-0.9-0.8-1.9-1.3-3.6-1.3c-2.7,0-4.6,2.3-4.6,5v0c0,2.9,1.8,5.1,4.8,5.1c1.4,0,2.8-0.6,3.6-1.3v-3.2h-3.7v-0.8h4.5v4.3
	c-1,0.9-2.6,1.7-4.4,1.7C395.2,200.3,393.1,197.7,393.1,194.6z M413.4,198.5l0.5-0.6c1.2,1.1,2.4,1.7,4,1.7c1.7,0,2.8-0.9,2.8-2.2v0
	c0-1.2-0.6-1.9-3.2-2.4c-2.7-0.5-3.8-1.5-3.8-3.2v0c0-1.7,1.5-2.9,3.6-2.9c1.6,0,2.7,0.4,3.8,1.4l-0.5,0.7c-1.1-0.9-2.1-1.3-3.3-1.3
	c-1.6,0-2.7,0.9-2.7,2.1v0c0,1.2,0.6,1.9,3.3,2.4c2.6,0.5,3.7,1.5,3.7,3.1v0c0,1.8-1.6,3.1-3.7,3.1
	C416.2,200.3,414.8,199.7,413.4,198.5z M428.9,189.7H425v-0.8h8.6v0.8h-3.9v10.4h-0.8L428.9,189.7L428.9,189.7z M441.4,195.7
	l-4.8-6.8h1l4.2,6l4.2-6h1l-4.8,6.8v4.4h-0.8L441.4,195.7L441.4,195.7z M450.8,188.9h0.8v10.4h6.6v0.8h-7.4V188.9z M462.3,188.9h8
	v0.8h-7.1v4.4h6.4v0.8h-6.4v4.5h7.2v0.8h-8.1V188.9z"/>
</svg>
