<?xml version="1.0" encoding="utf-8"?>
<!-- Generator: Adobe Illustrator 27.4.1, SVG Export Plug-In . SVG Version: 6.00 Build 0)  -->
<svg version="1.1" id="Layer_1" xmlns="http://www.w3.org/2000/svg" xmlns:xlink="http://www.w3.org/1999/xlink" x="0px" y="0px"
	 viewBox="0 0 1400 500" style="enable-background:new 0 0 1400 500;" xml:space="preserve">
<path d="M318.2,327.8c-1-1.7-1.8-3.7-1.8-5.8c-0.1-10.9-0.2-21.8-0.2-32.6c0-46.3,0.1-92.5,0.3-138.8c0-2,0.6-4.2,1.5-5.9
	c1.8-3.1,4.1-5.8,7.4-7.6c0.6-0.3,1.1-0.9,1.6-1.3c-0.5-2.1-2-1.9-3.4-1.9c-15.9,0-31.8,0-47.7,0c-2.3,0-4.7,0.1-7,0.1
	c-1.7,0-2.9,0.8-3.5,2.3c-2,5.2-3.9,10.3-5.8,15.5c-0.8,2.2-1.3,4.6-2.1,6.8c-0.8,2.3-2.1,4.4-2.6,6.7c-0.7,3-1.6,5.9-2.7,8.7
	c-0.8,2.2-1.7,4.5-2.5,6.8c-3.7,11-7.4,21.9-11.2,32.9c-1.6,4.8-3.4,9.5-5.1,14.2c-0.5,1.5-1.1,3-1.6,4.5c-0.8,2.8-1.5,5.6-2.5,8.3
	c-1.7,4.7-3.6,9.2-4.8,14.1c-0.2,0.8-0.6,1.7-1.6,1.8c-1.2-3.4-2.3-6.6-3.6-9.9c-0.9-2.2-1.9-4.4-2.7-6.7c-2.5-7-4.9-14.1-7.5-21.1
	c-2-5.6-4.2-11.2-6.3-16.8c-4.1-11.1-8.2-22.2-12.4-33.3c-1.6-4.4-3.3-8.8-4.9-13.2c-0.9-2.3-1.7-4.7-2.6-7
	c-1.5-3.9-2.9-7.8-4.3-11.6c-1-2.7-1.9-3.3-4.8-3.3h-52.7c-0.6,0-1.2,0-1.8,0c-1.2,0.1-2,0.7-2.3,2.1c0.8,0.6,1.6,1.2,2.3,1.8
	c4.3,3.3,7.8,7.2,8.3,13c0,0.4,0.3,0.8,0.4,1.2c0.2,1,0.6,2.1,0.6,3.1c0,26.4,0,52.8,0,79.2c0,27.7,0,55.3-0.1,83
	c0,0.8-0.1,1.6-0.3,2.4c-0.2,1-0.5,2-0.7,3.1c-0.2,0.7-0.2,1.5-0.5,2.2c-2,4-4.4,7.6-8.4,10c-0.6,0.4-1.2,0.9-1.9,1.5
	c0.6,0.7,1.2,1.2,1.5,1.6c1.1-0.2,1.9-0.5,2.7-0.5c2.8-0.1,5.7-0.2,8.5-0.2c11.8,0,23.6-0.1,35.5-0.1c2.9,0,6-0.4,8.8,0.8
	c1.2,0.5,2.1-0.6,1.5-1.7c-0.6-1-1.5-1.8-2.4-2.4c-5.5-3.2-7.1-8.5-8-14.2c-0.3-2-0.1-4.1-0.1-6.2c-0.1-29.3-0.1-58.7-0.2-88
	c0-0.5,0.2-1,0.3-1.6c0.4,0.2,0.6,0.2,0.6,0.3c2.1,5.8,4.1,11.5,6.2,17.3c1.3,3.7,2.7,7.5,4,11.2c1.5,4.2,2.9,8.4,4.4,12.6
	c2.7,7.7,5.5,15.5,8.2,23.2c0.8,2.3,1.5,4.5,2.3,6.8c1.1,3,2.2,5.9,3.2,8.9c0.8,2.3,1.6,4.7,2.4,7c1.9,5.5,3.9,10.9,5.8,16.4
	c0.5,1.4,0.8,2.9,1.3,4.2c0.7,1.7,1.6,3.2,2.2,4.9c1.2,3.4,2.2,6.9,3.3,10.3c1.7,5.1,3.4,10.2,5.2,15.2c1.6,4.6,3.9,8.9,5,13.7
	c0.2,1,1,2,1.8,3.5c0.7-1.4,1.2-2.3,1.5-3.2c0.9-2.7,1.7-5.5,2.6-8.3c0.4-1.3,0.8-2.6,1.2-4c0.6-1.9,1.1-3.9,1.6-5.8
	c0.3-1,0.5-2,0.8-3c1.1-3.2,2.2-6.3,3.3-9.5c0.5-1.5,1-3.1,1.5-4.7c0.6-1.9,1.1-3.8,1.7-5.6c1-3.2,2.1-6.4,3-9.7
	c1-3.2,1.7-6.5,2.7-9.8c1-3.4,2.3-6.6,3.4-10c1.3-4.2,2.4-8.4,3.6-12.5c1.1-3.4,2.4-6.8,3.5-10.2c1.3-4,2.5-8,3.8-12.1
	c1-3.3,2-6.6,3-9.9c1.3-4.3,2.7-8.7,4-13c1-3.2,1.8-6.6,2.8-9.8c1.2-3.9,2.5-7.7,3.8-11.6c0.2-0.6,0.6-1.2,1-1.8
	c0.2,0,0.3,0.1,0.5,0.1c-0.1,1.4-0.3,2.7-0.3,4.1c-0.1,7.3-0.3,14.6-0.3,21.9c0,17.8,0,35.6,0,53.3c0,2.1-0.3,4.2,0.1,6.2
	c0.7,3.6,0.2,7-0.3,10.6c-0.7,5.4-3.2,9.5-7.5,12.6c-0.7,0.5-1.4,1-1.8,1.7c-0.3,0.5-0.2,1.3,0,1.8c0.2,0.3,1.1,0.5,1.5,0.3
	c1.8-1,3.7-0.8,5.6-0.8c17.6,0,35.1,0.1,52.7,0.2c1,0,2,0,3,0.3c2.3,0.6,2.4,0.6,4-1.5c-0.6-0.5-1.1-1.1-1.7-1.4
	C322,333.3,319.9,330.7,318.2,327.8z M1301.6,352.8c-4.9-3.3-8.7-7.8-12.4-12.2c-4.8-5.8-9.1-12-13.6-18.1
	c-2.4-3.4-4.8-6.8-7.1-10.2c-1.7-2.7-3.1-5.5-4.7-8.2c-1.4-2.4-2.9-4.8-4.2-7.3c-2.2-4.3-4.3-8.6-6.5-12.9c-2-3.9-4.1-7.8-6.3-11.6
	c-2.2-3.8-4.4-7.7-6.7-11.3c-2.7-4.2-5.7-8.3-8.6-12.6c1.2-0.9,2.3-1.8,3.4-2.6c7-4.8,11.6-11.5,15-19.2c1.8-4,3.1-8.1,4-12.4
	c0.5-2.4,0.8-4.7,0.9-7.1c0.1-2.3-0.3-4.7,0.7-6.9c0.2-0.4-0.1-1-0.1-1.4c-0.2-1.1-0.4-2.1-0.5-3.2c-0.1-2.4,0-4.8-0.1-7.2
	c0-0.6,0-1.3-0.2-2c-0.7-2.4-1.4-4.8-2.1-7.2c-0.7-2.5-1.5-4.9-2.6-7.2c-4.3-9.5-11.3-16.3-20.6-20.8c-2.4-1.2-5-2.1-7.5-3.2
	c-2.9-1.3-5.8-2.2-9-2.2c-0.2,0-0.3,0-0.5-0.1c-3.1-1.3-6.3-1.1-9.6-1.1c-0.7,0-1.3-0.1-2-0.2c-1.5-0.2-2.9-0.7-4.4-0.7
	c-13.8,0-27.6,0-41.5,0c-13,0-26,0-39-0.1c-1.5,0-2.2,0.7-2.9,2.1c0.6,0.5,1.2,1,1.8,1.4c5.8,3.6,8.5,8.9,8.6,15.6c0,1.5,0,3,0,4.5
	c0,51.3,0,102.5,0,153.8c0,1.6-0.4,3.3-0.9,4.9c-1.5,5-5.1,8.2-9.5,10.6c-0.3,1.4,0.4,2,1.7,2.2c0.5,0.1,1,0.1,1.5,0.1
	c19.7,0,39.3,0,59-0.1c0.4,0,0.9,0.1,1.2-0.1c0.5-0.3,1.1-0.8,1.3-1.3c0.1-0.3-0.4-1-0.8-1.4c-0.6-0.5-1.2-0.8-1.9-1.2
	c-3.1-2-5.3-4.8-6.4-8.4c-0.6-1.9-0.9-3.9-1.2-5.8c-0.1-0.7-0.2-1.5-0.2-2.2c0-17.4,0-34.7,0-52.1c0-1.1,0.1-2.1,0.2-3.2
	c0.6-0.2,1-0.4,1.3-0.4c4.8,0.2,9.6-0.5,14.4,0.7c3.8,0.9,6.5,2.7,8.3,6c2.9,5.2,5.8,10.5,8.6,15.7c3.3,6.2,6.5,12.5,9.9,18.7
	c1.4,2.6,2.9,5.3,4.6,7.7c4.4,6.1,9.2,12,14.5,17.4c5.9,5.9,12.6,10.6,19.9,14.5c8,4.3,16.4,7.4,25.3,9c2,0.4,4.1,0.6,6.1,1.2
	c1.8,0.6,3.6,0.7,5.4,0.8c2.7,0.1,5.4-0.1,8,0.5c2.1,0.5,4.1,0.4,6.2,0.5c1.2,0.1,2-0.5,2.2-1.8
	C1301.9,353.1,1301.8,352.9,1301.6,352.8z M1207.3,205.1c-0.6,5.4-2.1,10.8-5.8,15.1c-2.7,3.1-6,5.3-10,6.7c-2.8,1-5.5,1.1-8.3,1.1
	c-4.5,0.1-9,0.1-13.5,0.1c-0.7,0-1.5-0.1-2.4-0.2v-52.7c0.9-0.1,1.6-0.2,2.3-0.2c5.3,0,10.7-0.2,16,0.1c6,0.3,11.5,2.2,16,6.5
	c2.5,2.4,3.8,5.4,4.8,8.6C1208,195,1207.9,200.2,1207.3,205.1z M1196.2,183.2c-0.5-0.3-1.5-0.3-2,0c-0.3,0.2-0.5,1.2-0.4,1.7
	c0.6,1.7,0.3,3.3,0,4.9c-0.3,1.5-0.6,3.1-0.8,4.6c-0.7,4.9-2.2,9.3-5.8,13.1c-3.7,3.9-8.1,5.7-13.2,6.2c-0.3,0-0.6,0.2-1,0.4v5.6
	c1.5,0.8,2.8,0.5,4.2,0.1c0.7-0.2,1.4-0.6,2.1-0.6c2.1-0.1,3.8-0.9,5.6-1.9c4.8-2.7,8.5-6.5,11.2-11.3c1.9-3.4,2.8-7,3.5-10.8
	c0.3-1.8-0.3-3.8,0.7-5.6c0.2-0.3,0-0.8-0.1-1.2C1199.5,186.2,1198.1,184.5,1196.2,183.2z M1200.3,188.4c-0.8-2.2-2.2-3.9-4-5.2
	c-0.5-0.3-1.5-0.3-2,0c-0.3,0.2-0.5,1.2-0.4,1.7c0.6,1.7,0.3,3.3,0,4.9c-0.3,1.5-0.6,3.1-0.8,4.6c-0.7,4.9-2.2,9.3-5.8,13.1
	c-3.7,3.9-8.1,5.7-13.2,6.2c-0.3,0-0.6,0.2-1,0.4v5.6c1.5,0.8,2.8,0.5,4.2,0.1c0.7-0.2,1.4-0.6,2.1-0.6c2.1-0.1,3.8-0.9,5.6-1.9
	c4.8-2.7,8.5-6.5,11.2-11.3c1.9-3.4,2.8-7,3.5-10.8c0.3-1.8-0.3-3.8,0.7-5.6C1200.5,189.3,1200.4,188.8,1200.3,188.4z M788.3,332.5
	c-3.4-3.1-5.5-6.7-5.3-11.5c0.2-4.5,0-9,0-13.5c0-23.5,0-47,0-70.5c0-20.9,0-41.7-0.1-62.6c0-2.4-0.4-4.8-0.6-7.1c0-0.3,0-0.7,0-1
	c0.2-2.3,0.4-4.6,0.8-6.9c0.3-1.9,0.5-4,1.5-5.7c1.6-2.7,3.3-5.4,6.3-6.9c0.6-0.3,1.1-0.8,1.5-1.3c0.6-0.8,0.2-1.9-0.8-2.2
	c-0.5-0.1-1-0.1-1.5-0.1c-19.5,0-39,0-58.4,0c-0.4,0-0.9-0.1-1.2,0c-0.5,0.2-1.3,0.5-1.4,1c-0.2,0.5,0.1,1.3,0.4,1.8
	c0.4,0.6,1.2,0.9,1.8,1.3c4.2,3.2,7.1,7.3,7.1,12.7c0.1,19.5,0,39,0,58.6v2.3h-5.5c-13.9,0-27.8,0-41.7,0h-2.9v-2.8
	c0-19.4,0-38.9,0-58.3c0-1.4,0.1-2.8,0.6-4.1c1.3-3.8,3.8-6.8,7.1-9.1c0.8-0.6,2.2-0.9,1.9-2.3c-0.4-1.6-1.9-1.1-2.9-1.1
	c-8.6,0-17.2,0-25.7,0c-10.9,0-21.8,0-32.7,0c-1,0-2.2-0.2-3,1.2c0.5,0.6,0.9,1.2,1.5,1.8c0.7,0.6,1.4,1.2,2.1,1.8
	c4.5,3.7,6.5,8.5,6.5,14.4c-0.1,51.7,0,103.4-0.1,155c0,2.6,0.1,5.2-0.8,7.8c-0.8,2.4-1.7,4.5-3.5,6.1c-1.4,1.4-3.1,2.5-4.6,3.8
	c-0.4,0.3-0.8,0.8-1.2,1.3c0.5,0.6,0.9,1,1.1,1.2c3.2-0.2,6.2-0.4,9-0.4c13.3,0,26.6,0.1,40,0.2c2.2,0,4.4,0.5,6.7,0
	c2.1-0.5,4.5-0.4,6.5,1c0.5-0.8,0.9-1.4,1.3-2c-1.7-1.5-3.4-2.8-5-4.3c-3.3-3.1-4.9-6.7-4.9-11.4c0.2-19.5,0.1-39.1,0.1-58.6v-5.5
	h50c0.1,0.7,0.2,1.1,0.2,1.5c0,21.6,0,43.2,0,64.8c0,0.6,0,1.2-0.2,1.7c-1.2,3.5-3.1,6.6-6.1,8.9c-1.2,0.9-2.2,1.9-3.3,2.9
	c1.2,2,2.6,2.4,4.7,1.7c1-0.4,2.1-0.7,3.1-0.7c2.2-0.1,4.3,0,6.5,0c14.7,0.1,29.3,0.3,44,0.3c1.5,0,2.9,0,4.3,0.7
	c0.1,0.1,0.3,0,0.7-0.1c0.2-0.5,0.5-1.1,0.8-1.8C791.2,335,789.7,333.8,788.3,332.5z M1104.4,144.5c-0.3-0.5-1.1-0.9-1.7-1.1
	c-0.4-0.2-1,0-1.5,0c-4,0-8,0-12,0c-12.5,0-25,0-37.5,0c-1,0-2.1-0.2-2.5,1.1c-0.4,1.2,0.6,1.7,1.3,2.4c1.8,1.7,3.6,3.4,5.3,5.3
	c2.1,2.4,3.1,5.3,3.1,8.6v59.3c0,0,0,0,0,0c0,20.2,0,40.4,0,60.6c0,0.7-0.2,1.5-0.4,2.2c-0.3,1.3-0.6,2.5-1,3.8
	c-1,3.2-1.7,6.6-3,9.7c-1.1,2.4-2.9,4.5-5,6.4c-4.2,3.9-9.4,6.2-14.8,6.6c-5.5,0.4-11.2,1.1-16.8-0.7c-3.4-1.1-6.6-2.1-9.4-4.3
	c-7.2-5.6-9.7-13.5-10.6-22.2c-0.2-2-0.2-4.1-0.4-6.2c-0.1-1.4-0.6-2.8-0.6-4.1c0-33.6-0.1-67.3,0-100.9c0-4-0.3-8,0.7-12.1
	c0.8-3.1,1.8-5.9,3.9-8.2c1.4-1.6,3.3-2.8,4.9-4.2c0.5-0.4,1.1-1.3,1-1.7c-0.2-0.5-1.1-0.9-1.7-1.1c-0.7-0.2-1.5-0.1-2.2-0.1
	c-18.9,0-37.8,0-56.7,0c-0.6,0-1.2-0.1-1.7,0c-0.6,0.2-1.2,0.6-1.4,1.1c-0.2,0.4,0.2,1.1,0.5,1.5c0.8,0.8,1.8,1.4,2.7,2.2
	c3.8,3.4,6.4,7.2,6.4,12.7c-0.1,38.2-0.1,76.4,0,114.7c0,5.1-0.6,10.2,0.8,15.3c0.7,2.6,0.6,5.5,1.1,8.3c0.9,4.5,2.3,8.9,4.1,13
	c2.8,6.3,7.2,11.4,12.3,16.1c5.8,5.3,12.9,7.6,20,10.2c2.3,0.8,4.8,1,7.2,1.5c0.5,0.1,1.1,0.1,1.4,0.4c1.1,0.9,2.3,0.8,3.6,0.8
	c2,0,4-0.2,5.8,0.9c0.3,0.2,0.8,0.1,1.2,0.1c8.5,0,17,0,25.5,0c0.5,0,1.1,0.1,1.5-0.1c2-1.1,4.2-0.8,6.3-0.9
	c1.1-0.1,2.1-0.2,3.2-0.5c2.3-0.6,4.6-1.7,6.9-1.8c2.5-0.1,4.6-1.3,6.9-1.9c4.2-1.1,8.2-3.1,11.7-5.8c5.2-4.1,9.8-8.6,13.1-14.5
	c1.2-2.2,2.2-4.4,3-6.7c1.4-3.8,2.6-7.6,3.8-11.5c0.1-0.3,0.1-0.7,0.1-1c0-2,0-4,0.8-5.9c0.3-0.7,0.2-1.6,0.3-2.5
	c0.1-2.3,0.1-4.7,0.1-7c0-38.3,0-76.6,0-114.9c0-2.9-0.7-6,0.9-8.8c0.1-0.2,0-0.5,0.1-0.7c0-2.3,1.2-4.2,2.5-5.8
	c1.7-2.2,4.1-3.9,6.2-5.7C1104.1,145.7,1104.9,145.3,1104.4,144.5z M406,241.7c-0.4-1.1-1-2.2-1.5-3.5c-1.7,2.2-2.6,4.4-1.7,7
	C405.8,246.1,407,244.4,406,241.7z M406,241.7c-0.4-1.1-1-2.2-1.5-3.5c-1.7,2.2-2.6,4.4-1.7,7C405.8,246.1,407,244.4,406,241.7z
	 M496.7,335.7c-2.9-2.8-5.9-5.6-7.5-9.5c-1.2-3.1-2.8-6-3.9-9.1c-1-2.8-1.7-5.7-2.6-8.5c-1.4-4.1-3.3-8-4.1-12.1
	c-0.7-3.4-2.3-6.3-3.2-9.6s-2-6.5-3.1-9.7c-1.1-3.3-2.2-6.6-3.3-9.9c-0.9-2.6-1.8-5.2-2.6-7.8c-0.9-2.8-1.6-5.7-2.5-8.5
	c-0.9-2.8-1.8-5.5-2.7-8.3c-1-3-2-5.9-3-8.9c-0.9-2.6-1.9-5.1-2.7-7.7c-0.6-2-1.1-4.1-1.6-6.1c-1.1-3.7-2.8-7.1-3.7-10.9
	c-1-4.1-2.5-8-3.9-12c-0.9-2.6-2-5.1-2.8-7.7c-1-3.2-1.7-6.5-2.7-9.8c-1.9-5.9-3.9-11.8-5.9-17.7c-0.7-2-1.2-4.1-1.8-6.2
	c-0.3-1-0.7-2.1-0.7-3.1c0.1-2.7-0.4-5.2-1.1-7.8c-0.2-1-0.7-1.4-1.7-1.4c-0.6,0-1.2,0-1.8,0c-13.7,0-27.3,0-41,0
	c-1.6,0-3.2,0-4.8,0c-1.4,0.1-2,1-1.3,2.2c0.5,1,1.3,1.9,2,2.9c1.7,2.4,2.7,4.9,2.8,8c0.1,3.9-0.9,7.5-2,11.1
	c-0.9,3.1-1.9,6.1-2.9,9.2c-0.4,1.3-1.1,2.7-1.1,4c-0.1,2.7-1.3,5.1-2,7.6c-1.3,4.6-2.8,9.1-4,13.7c-1,3.8-2.1,7.6-3.3,11.4
	c-1,3-2.1,6.1-2.7,9.2c-0.5,2.5-1.3,4.9-2,7.3c-1.3,4.6-2.7,9.2-4,13.8c-1.1,4-2.2,8-3.3,11.9c-1.3,4.6-2.5,9.2-3.9,13.8
	c-1,3.5-2.2,6.9-3.3,10.4c-0.6,2-1.1,4.1-1.7,6.1c-0.6,2.2-1,4.5-1.8,6.6c-1.3,3.5-2.2,7-3.1,10.7c-0.4,1.8-0.7,3.7-1.3,5.5
	c-1.4,4.3-2.9,8.6-4.5,12.9c-1.8,5-4.4,9.5-8.1,13.3c-1.3,1.3-1.2,1.3-0.2,2.8c2-0.1,3.8-0.3,5.6-0.3c9.3-0.1,18.6-0.2,28-0.2
	c3.2,0,6.3,0,9.5,0.3c2.2,0.3,4.2-0.2,6.5-0.8c-0.6-1-1-1.8-1.5-2.5c-1.5-1.9-2.2-4.1-2.3-6.3c-0.1-3.2-0.2-6.4,0.8-9.6
	c0.8-2.7,1.1-5.5,1.8-8.2c0.6-2.5,1.4-5,2.1-7.5c0.5-1.8,0.8-3.7,1.3-5.5c0.7-2.5,1.6-4.9,2.3-7.3c0.7-2.5,0.7-2.5,3.4-2.5
	c12.7,0,25.3,0,38,0c0.7,0,1.5,0.1,2.2,0.1c1.5,4.8,3,9.5,4.5,14.1c1.7,5.2,3.4,10.4,5,15.6c1,3.2,2.1,6.4,1.8,10
	c-0.3,3.3-1.7,5.8-4.6,7.5c-0.8,0.5-1.7,1-2.7,1.6c0.6,0.8,1.1,1.4,1.5,1.9c1.5-0.3,2.8-0.7,4.1-0.7c3.8-0.1,7.7,0,11.5,0
	c13.2,0,26.5,0,39.7,0c2.2,0,4.4,0.3,7,0.5c0.2-0.2,0.6-0.7,1.2-1.2C497,336.1,496.9,335.8,496.7,335.7z M394.9,252.8
	c0.1-0.5,0.1-1.1,0.2-1.6c1.2-4.9,2.5-9.8,3.7-14.7c0.9-3.9,1.7-7.9,2.7-11.8c0.6-2.6,1.4-5.1,2.1-7.6c0.5-1.8,1-3.6,1.4-5.4
	c0.3,0,0.6,0,0.8,0c4,13.6,7.9,27.1,11.6,40.8C415.6,253,400.6,253.3,394.9,252.8z M402.8,245.2c3,1,4.2-0.8,3.2-3.5
	c-0.4-1.1-1-2.2-1.5-3.5C402.7,240.4,401.9,242.5,402.8,245.2z M406,241.7c-0.4-1.1-1-2.2-1.5-3.5c-1.7,2.2-2.6,4.4-1.7,7
	C405.8,246.1,407,244.4,406,241.7z M935.5,298.2c0-0.4,0.1-0.9,0-1.2c-0.2-0.6-0.5-1.4-0.9-1.6c-0.4-0.1-1.3,0.3-1.6,0.7
	c-1.1,1.4-2.4,2.4-3.8,3.5c-3.8,2.9-7.9,4.5-12.6,5c-0.7,0.1-1.3,0.2-2,0.3c-1.4,0.3-2.9,0.7-4.4,0.7c-10.3,0.1-20.7,0.1-31,0.1
	c-3.3,0-6.6,0-9.9-0.8c-2.9-0.7-4.7-2.3-5.8-4.8c-1.2-2.6-1.3-5.3-1.3-8c0-11.6,0-23.3-0.1-34.9c0-0.5,0.2-1.1,0.3-1.8h2.8
	c14.1,0,28.1-0.1,42.2,0.1c2.3,0,4.5,0.8,6.8,1.2c0.2,0,0.5,0.2,0.6,0.4c1.4,1.2,2.8,2.4,4.1,3.6c0.7,0.6,1.3,1.3,2,2
	c1.5-1.1,1.4-2.4,1.4-3.6c0-13.2,0-26.4,0.1-39.6c0-0.6,0-1.2-0.1-1.7c-0.4-1.6-1.3-1.9-2.5-0.8c-0.3,0.3-0.5,0.7-0.8,1
	c-2.4,2.3-4.9,4.3-8.4,4.3c-0.9,0-1.8,0.3-2.7,0.5c-1,0.2-2,0.5-2.9,0.5c-12.4,0-24.8,0-37.2,0c-1.3,0-2.7,0-4,0
	c-1,0-1.5-0.6-1.6-1.5c-0.1-0.5-0.1-1-0.1-1.5c0-13.4,0-26.7,0-40.1c0-3.4-1-4.1,4.2-4.1c13.7,0,27.3,0,40.9,0c2.3,0,4.7,0.1,7,0.6
	c3.9,0.8,7.5,2.5,10.6,5.2c0.4,0.3,1,0.5,1.8,0.9c0.2-1.3,0.4-2.4,0.4-3.4c0-10.6,0-21.3,0-31.9c0-3.6-0.2-3.8-3.8-3.8
	c-37.3,0-74.6,0-111.9,0c-0.7,0-1.3,0-2,0.1c-1.3,0.2-1.8,1.3-1,2.3c0.5,0.6,1.3,1,2,1.5c3.5,2.3,5.9,5.5,6.9,9.4
	c0.8,3.2,1.2,6.4,1.2,9.8c-0.1,48.3-0.1,96.7-0.1,145c0,4.3,0.7,8.6-0.9,12.8c-0.5,1.2-0.7,2.6-1.3,3.7c-1.3,2.5-3.2,4.4-5.4,6.1
	c-1,0.7-1.9,1.5-3,2.4c0.8,0.7,1.4,1.2,1.7,1.6c1.6-0.2,2.9-0.6,4.2-0.6c3.7-0.1,7.5-0.1,11.2-0.1c34.2,0,68.4,0,102.6,0
	c1.7,0,3.5,0.2,5.2,0.4c1.3,0.1,2.5-0.6,2.6-1.9c0.1-0.4,0-0.8,0-1.2C935.5,322.4,935.5,310.3,935.5,298.2z M624.9,331.7
	c0.2-11.6,0.4-23.2,0.5-34.8c0-0.5-0.4-1.3-0.7-1.4c-0.5-0.1-1.2,0.2-1.7,0.5c-0.7,0.5-1.1,1.2-1.8,1.7c-3.1,2.7-6.3,4.9-10.4,5.9
	c-3.1,0.8-6.2,1.9-9.4,1.9c-11.1,0.2-22.1,0.2-33.2,0c-2.2,0-4.5-0.7-6.4-1.8c-3.5-1.9-4.5-5.5-4.5-9.1c-0.1-44.3,0-88.5-0.1-132.8
	c0-4,1.4-7.4,3.7-10.5c1.4-1.9,3.1-3.5,5-4.8c0.7-0.5,1.3-1.1,1-2.1c-0.3-1.1-1.2-1.2-2.2-1.2h-0.2c-19.4,0-38.8,0-58.2,0
	c-0.6,0-1.2-0.1-1.7,0.1c-0.5,0.2-1.2,0.5-1.3,1c-0.1,0.4,0.1,1.1,0.5,1.5c0.5,0.5,1.2,0.9,1.8,1.4c1.7,1.6,3.7,3,4.9,4.9
	c2.2,3.6,3.1,7.7,3.2,11.9c0.1,25.6,0,51.2,0,76.8h0c0,24.2,0,48.3,0,72.5c0,3.4-0.2,6.7-0.8,10.1c-0.9,4.6-3.1,7.9-6.8,10.5
	c-0.9,0.6-1.7,1.4-2.4,2.2c-0.3,0.3-0.3,1.2-0.1,1.5c0.2,0.3,1,0.5,1.5,0.5c1.9-0.2,3.8-0.6,5.6-0.7c7.7-0.1,15.3,0,23,0
	c26.2,0,52.4-0.1,78.7,0c3.4,0,6.8,0.4,10.2,0.7c1.8,0.1,3.2-1.4,2.7-3.3C625,333.7,624.9,332.7,624.9,331.7z M918.7,132.1
	c-0.2-2.1-1.5-3.2-3.6-3.2c-2.6,0-5.2,0-7.7,0c-65.1,0-130.2,0-195.2,0c-0.4,0-0.9-0.1-1.2,0c-0.4,0.1-1.1,0.4-1.1,0.7
	c-0.1,0.5,0.1,1.1,0.4,1.5c0.2,0.3,0.6,0.5,1,0.8c2.4,1.7,4.9,3.4,7.3,5.2c1.8,1.3,3.6,1.8,5.8,1.7c2.6-0.1,2.6-0.1,2.5-2.7
	c0-0.1,0.1-0.3,0.2-0.4c6.4-0.5,43.4-0.2,45.4,0.4v2.5c3.4,0.4,6.5,0.5,9.2-2.1c1.8-1.7,4.1-2.8,6.1-4.2c1.4-1,2.6-0.7,3.9,0.3
	c1.9,1.4,3.9,2.5,5.7,4c2.2,1.9,4.6,2.4,7.4,2.1c2.3-0.2,2.5-0.4,1.6-3.1h105.6c0.2,0.3,0.3,0.4,0.3,0.5c0.8,2.3,1.3,2.7,3.8,2.5
	c1.7-0.1,2.7-1.1,2.9-3.2C918.9,134.4,918.8,133.3,918.7,132.1z M1223.4,138.7c-4.8-2.9-9.9-5-15.3-6.6c-4.2-1.3-8.3-2.1-12.7-2.3
	c-0.7,0-1.4,0.1-2-0.2c-1.9-1-3.9-0.8-5.9-0.8c-29.4,0-58.8,0-88.1,0c-21.4,0-42.8,0-64.2,0c-1.8,0-3.6-0.3-5.5,0.4
	c0,1.6,0.8,2.4,1.8,3c2.4,1.6,4.9,3.2,7.2,4.9c2.5,1.8,5.2,1.8,8.2,1.2c-0.1-0.9-0.1-1.8-0.1-2.6h37c0.1,1,0.2,1.9,0.3,2.7
	c3.8,1.1,6.8-0.1,9.5-2.5c1.2-1.1,2.6-1.9,4-2.9c1.7,1.2,3.4,2.1,4.7,3.3c2.7,2.7,5.9,2.5,9.3,2.1v-2.8c0.5,0,1-0.1,1.5-0.1
	c25.9,0,51.8,0,77.6,0c0.8,0,1.7,0,2.5,0.2c3.2,1.2,6.7,0.4,10,1.8c2.1,0.9,4.5,1,6.7,1.6c2.2,0.6,4.3,1.4,6.5,2
	c0.3,0.1,0.7,0.1,1,0.2c2,0.5,3.9,1,5.9,1.6c1.5,0.5,3,1.2,4.5,1.7c0.7,0.2,1.6,0.3,2.3-0.5C1228.3,141.8,1225.9,140.2,1223.4,138.7
	z M1116,321.8c-0.8-0.3-1.8-0.2-2.7-0.3c-0.5-0.1-1-0.2-1.6-0.3c0.2-0.5,0.3-0.7,0.4-0.9c1.7-2.6,3.8-5.1,3.6-8.5
	c0-0.2,0.1-0.3,0.2-0.5c1-1.7,1-3.7,1-5.6c0-48.8,0-97.5,0.1-146.3c0-4.5-2.6-6.7-5.7-8.7c-0.3,0.1-0.6,0.1-0.8,0.2
	c-0.1,1.1-0.2,2.2-0.2,3.3c0,49.2,0,98.4-0.1,147.5c0,3.4,0.4,6.8-0.8,10.3c-1.2,3.2-2.6,6.1-5.4,8c-2.7,1.9-5.4,3.5-8.1,5.3
	c-0.6,0.4-1.1,1.1-1.6,1.6c0.5,1.4,1.5,1.3,2.4,1.3c4.3,0,8.7,0,13-0.1c2.2,0,4.3,0,6.4,0c0.3-0.7,0.5-1.1,0.7-1.6
	c0.2-0.4,0.4-0.9,0.7-1.3C1118.2,323.5,1117.8,322.4,1116,321.8z M809.4,321.4c-1.1,0-2.2,0.5-3.6,0.8c0.3-0.6,0.3-0.9,0.5-1.2
	c3.6-4.7,4.8-10,4.8-15.9c-0.1-47.8,0-95.7,0-143.5c0-1.7,0.1-3.5,0-5.2c0-0.8-0.2-1.7-0.7-2.3c-1.2-1.7-2.8-2.9-4.8-3.7
	c-1.1,1-1,2.3-1,3.6c-0.1,3.7-0.1,7.3-0.1,11c0,33.6,0,67.3,0,100.9c0,14.7-0.1,29.4-0.1,44.1c0,2.4-0.8,4.4-2.2,6.2
	c-0.9,1.1-1.9,2.1-2.9,3.1c-2.3,2.4-5.2,3.8-7.8,5.7c-0.9,0.6-2.5,1-1.9,2.5c0.4,1.2,1.9,0.8,2.9,0.8c5.2,0,10.3,0,15.5-0.1
	c2.3,0,3.5-1,4.2-3.1C812.7,322.6,811.9,321.4,809.4,321.4z M119.7,321.4c-1.1-0.2-2.1-0.1-3.5-0.2c0.5-1,0.9-1.9,1.4-2.6
	c2.5-3.3,3.1-7,3.1-11c0-52.8,0-105.7,0.1-158.5c0-3-1.1-5-3.3-6.8c-0.6-0.5-1.2-0.9-2-0.5c-0.8,0.5-1.1,1.1-0.9,2.1
	c0.2,1.2,0.3,2.5,0.2,3.7c-0.1,2.1-0.4,4.1-0.4,6.2c0,41.8,0,83.6,0,125.3c0,9.5,0.1,19.1-0.1,28.7c-0.1,5.5-2.9,9.7-7.5,12.7
	c-2.6,1.7-5.1,3.4-7.7,5.1c-0.6,0.5-1.5,1-1,2c0.4,1,1.2,0.9,2.1,0.8c1.3-0.2,2.6-0.3,4-0.3c4,0,8-0.2,12,0c2.8,0.2,4.1-1.5,5.3-3.4
	C122.4,323.2,121.6,321.7,119.7,321.4z M372.9,145.6c-0.6,1.8-1.2,3.6-1.8,5.4c-0.2,0.6-0.1,1.4-0.4,1.9c-1.7,3.1-2,6.6-3,9.9
	c-1.1,3.5-1.9,7.2-2.9,10.7c-1,3.5-2.1,7-3.1,10.5c-1.1,3.9-2.1,7.8-3.2,11.7c-0.4,1.4-0.9,2.8-1.3,4.2c-0.5,1.7-1.1,3.4-1.6,5.2
	c-0.7,2.5-1.2,5-1.9,7.4c-1.3,4.4-2.7,8.8-4,13.2c-0.8,2.5-1.3,5.1-2.1,7.6c-1.2,3.5-2.2,7-2.9,10.6c-0.4,1.8-0.8,3.7-1.4,5.5
	c-1.1,3.7-2.4,7.4-3.4,11.1c-0.9,3.2-1.5,6.4-2.5,9.5c-1.7,5.6-3.6,11.1-4.8,16.8c-0.7,3.2-1.9,6.3-2.9,9.4
	c-0.6,1.8-1.4,3.5-1.8,5.4c-0.5,2.7-1.3,5.3-2.6,7.7c-1.3,2.4-2.5,4.9-3.8,7.3c-0.7,1.3-1,2.6-0.5,4.1c0.3,1,0.6,2,0.9,3.1
	c0.7,2.8,2.7,4.3,5.5,4.3c0.7,0,1.5-0.1,2.1-0.1c0.6-0.9,1.1-1.6,1.6-2.4c0.5-0.8,1-1.6,1.5-2.4c-2.3-2.2-2.3-2.2-7.4-1.1
	c3.6-4.1,5-8.8,7.1-13.1c0.3-0.7,0.6-1.4,0.8-2.1c0.5-2.1,0.9-4.2,1.5-6.2c1.4-4.7,3-9.4,4.4-14.2c0.4-1.4,0.8-2.8,1.2-4.3
	c0.9-3.3,1.6-6.5,2.6-9.8c1-3.5,2.2-7,3.3-10.6c1.1-3.7,2.1-7.5,3.2-11.2c0.9-3.3,2-6.6,2.9-10c0.9-3.3,1.5-6.8,2.5-10.1
	c1-3.5,2.3-7,3.4-10.5c0.9-3,1.6-6,2.5-9.1c0.6-2.2,1.1-4.3,1.7-6.5c0.6-2.3,1.3-4.5,1.9-6.8c0.5-1.9,0.8-3.8,1.5-5.7
	c1.4-3.9,3-7.6,3.5-11.8c0-0.3,0.3-0.6,0.4-0.9c0.6-2,1.3-3.9,1.9-5.9c0.6-1.9,0.7-4,1.6-5.7c1.3-2.4,1.2-5.1,2.1-7.6
	c0.7-1.9,1-4,1.7-5.9C378,150.7,376.9,147.7,372.9,145.6z M501.3,321.3c3.5-4.8,4.9-9.7,4.9-15.4c-0.2-43.3-0.1-86.6,0-129.8
	c0-6.6,0-13.1-0.1-19.7c0-0.9-0.2-2.1-0.7-2.8c-0.8-1.1-2-1.9-3.2-2.8c-1.1-0.9-2.3-0.4-2.5,1.1c-0.1,0.7,0,1.5,0,2.2v58
	c0,32.5,0,65,0,97.4c0,2.3-0.6,4.3-1.9,6c-1.2,1.5-2.6,2.8-3.9,4.2c-0.5,0.6-1.5,1.1-1,2.1c1,1.9,2.1,3.8,3.3,5.5
	c0.3,0.4,1.1,0.6,1.8,0.6c1.7,0.1,3.5-0.1,5.2,0.1c1.9,0.2,3-0.7,3.7-2.3c0.4-0.9,0.7-1.8,1-2.7
	C506.1,320.8,503.8,321.5,501.3,321.3z M319.6,120.3c-21.2,0-42.5,0-63.7,0c-0.6,0-1.2,0-1.7,0c-0.9,0-1.6,0.3-1.9,1.2
	c-0.8,2.2-1.7,4.3-2.4,6.5c-1.1,3.3-2,6.6-3.1,9.9c-1.4,4.2-2.8,8.5-4.2,12.7c-0.5,1.4-0.9,2.8-1.4,4.2c-0.8,1.9-1.7,3.8-2.4,5.7
	c-1.6,4.5-3,9.1-4.6,13.7c-1.1,3.2-2.3,6.4-3.4,9.6c-2.1,6.1-4,12.2-6.1,18.4c-1.3,3.8-2.7,7.6-4,11.5c-0.8,2.4-1.7,4.8-2.4,7.2
	c-0.4,1.5-1,3.1-0.8,4.5c0.2,2,1,4,1.6,5.9c0.1,0.3,0.8,0.7,1.1,0.7c0.4,0,0.8-0.6,0.9-1c2.2-6.1,4.3-12.3,6.5-18.5
	c0.5-1.3,0.8-2.7,1.2-4c1.1-2.9,2.4-5.8,3.3-8.7c0.8-2.8,1.7-5.6,2.8-8.4c1.2-2.9,2.2-5.9,3.2-8.8c2.3-6.9,4.5-13.8,6.8-20.6
	c0.8-2.5,1.8-5,2.6-7.4c0.7-2,1.2-4,1.9-6c0.8-2.2,1.7-4.3,2.5-6.5c1.4-4,2.9-8,4.2-12.1c1.1-3.3,1.1-3.4,4.4-3.4
	c14.1,0,28.1,0,42.2,0c0.8,0,1.5,0,2.2,0.1c0.2,0,0.4,0.2,0.7,0.3c0.1,0.7,0.1,1.3,0.2,1.9c3.7,1.1,6.3,0.7,8.8-1.3
	c2.2-1.8,4.5-3.6,7.2-4.8c0.8-0.3,1.4-1.1,2.2-1.7C322.6,120.1,321.1,120.3,319.6,120.3z M1051.9,155.8c0-0.5-0.1-1.1-0.4-1.4
	c-1.1-1.2-2.3-2.4-3.6-3.5c-1.1-0.9-2-0.4-2.2,1.1c0,0.3,0,0.7,0,1c0,6.6,0,13.3,0,19.9c0,30,0,59.9,0,89.9c0,2.8-0.2,5.5-1,8.1
	c-0.6,2.2-1,4.5-1.5,6.8c-1.7,7.9-6.6,13-14,15.9c-2.3,0.9-5,1.1-7.5,1.2c-3.6,0.2-7.3,0-11,0c-1,0-2.2-0.3-3.1,0.9
	c1.2,2.2,3.8,4.8,5.7,5.6c0.5,0.2,1.1,0.4,1.7,0.4c5.2,0.3,10.5,0,15.5-1.7c7.3-2.5,12.8-7.3,16.5-14c2.1-3.8,2.8-8.1,3.8-12.2
	c0.2-0.9,0.2-2,0.3-3c0.3-2.1,0.8-4.2,0.8-6.4c0.1-35.5,0-71.1,0-106.6C1051.9,157.1,1051.9,156.4,1051.9,155.8z M636.8,163.7
	c0-2.3,0-4.7,0-7c0-0.6,0-1.4-0.4-1.9c-1.4-1.7-2.9-3.4-4.8-4.6c-0.4,0.2-0.5,0.3-0.5,0.3c-0.1,0.1-0.2,0.2-0.3,0.4
	c-0.1,0.1-0.1,0.1-0.1,0.2c-0.1,0.2-0.1,0.3-0.1,0.5c0,0.2-0.1,0.3-0.1,0.5c0,55.2,0,110.3,0,165.5c0,0.8,0.1,1.6,0.2,2.5
	c0,0.1,0.1,0.2,0.1,0.2c0.1,0.1,0.1,0.1,0.2,0.2c1.3,0.6,1.7-0.3,2.2-1.2c2.5-4.6,3.8-9.4,3.8-14.8
	C636.8,257.6,636.8,210.7,636.8,163.7z M951.6,306.4c-0.5-2.2-1.1-4.3-1.6-6.5c-0.4-1.5-0.8-3.1-0.8-4.6c-0.1-3.2-0.6-6.4-1.5-9.5
	c-0.4-1.4-0.5-2.9-0.7-4.4c-0.2-1.3-0.5-2.6-0.5-3.9c-0.1-5.2-0.2-10.3-0.2-15.4c0-34.9-0.1-69.7-0.1-104.6c0-3.2-2.2-6.1-5.7-7.1
	c-0.2,0.9-0.5,1.7-0.5,2.6c-0.1,4.3-0.2,8.6-0.2,13c0,31.5-0.2,63.1,0.1,94.6c0.1,7.7-0.5,15.4,1.1,23c0.7,3.4,1.1,6.8,2.2,10.1
	c0.5,1.5,1.1,2.9,1.5,4.4c1.1,3.6,3.1,6.8,5.1,9.9c0.4,0.6,1,1.1,1.5,1.6c0.2-0.1,0.5-0.2,0.7-0.3
	C951.9,308.4,951.8,307.4,951.6,306.4z M209.2,363.2c-0.8-2.1-1.7-4.3-2.5-6.4c-0.1-0.1-0.2-0.2-0.4-0.3c-0.4,0.2-0.8,0.5-1.4,0.7
	c-0.3-0.5-0.5-0.9-0.7-1.4c-1.2-3.3-2.4-6.6-3.6-10c-1.4-4.1-2.8-8.2-4.3-12.3c-1-3-2.2-5.9-3.2-8.9c-1-2.9-1.8-5.8-2.8-8.7
	c-1.2-3.3-2.6-6.4-3.8-9.7c-1.2-3.3-2.2-6.7-3.4-10.1c-0.8-2.4-1.8-4.8-2.7-7.2c-0.7-2.1-1.3-4.3-2-6.4c-1.8-5.1-3.6-10.1-5.4-15.2
	c-0.5-1.2-0.8-2.5-1.4-3.7c-0.2-0.4-0.8-0.8-1.1-0.7c-0.3,0-0.6,0.6-0.8,1c-0.1,0.2,0,0.5,0,0.7c0,3.6,0,7.1,0,10.7
	c0,0.6,0.1,1.2,0.3,1.7c2,5.2,3.3,10.5,5.5,15.6c1.9,4.4,3.1,9.1,4.7,13.6c1.1,3.1,2.2,6.2,3.2,9.4c0.9,2.4,1.8,4.8,2.6,7.2
	c1.4,4.2,2.8,8.5,4.3,12.7c1,2.8,2.2,5.5,3.2,8.3c1.4,4,2.6,8,4,11.9c1.3,3.8,2.8,7.4,4.1,11.2c0.6,1.6,0.8,3.3,1.2,5
	c0.3,1.1,1.1,1.8,2.1,2.2c0.3-0.2,0.5-0.3,0.5-0.4c1.3-3.3,2.5-6.6,3.8-9.9C209.3,363.7,209.3,363.4,209.2,363.2z M731.5,158.1
	c0-3.4-1.8-5.4-4-7.3c-1.3-1.1-2.4-0.5-2.5,1.2c-0.1,1.4,0.1,2.8,0.1,4.2c0,14.9,0,29.7,0,44.6c0,1.9-0.2,3.8-0.3,5.8h-28
	c-3.9,0-4.5,0.6-4.2,4.5c0,0.7,0.2,1.4,0.4,2.2h38.2c0.1-1.4,0.2-2.5,0.2-3.7C731.4,192.5,731.3,175.3,731.5,158.1z M564.2,129.3
	c-0.9-0.1-1.9-0.4-2.8-0.4c-24.8,0-49.6-0.1-74.4-0.1c-0.7,0-1.3,0-2,0.2c-1.1,0.3-1.3,1.3-0.4,2.1c0.3,0.3,0.7,0.4,1,0.7
	c2.7,1.8,5.5,3.5,8,5.5c2.6,2.1,5.2,1.6,8,1c0.2,0,0.3-0.3,0.4-0.5c-0.2-0.7-0.4-1.4-0.7-2.1c5.1-0.5,43.6-0.3,45.4,0.3
	c-0.1,0.8-0.1,1.6-0.2,2.7c1.6,0.1,3,0,4.4,0.2c1.9,0.3,3.2-0.7,4.4-1.8c1.8-1.7,4-2.8,5.9-4.3c1.1-0.9,2.1-1.8,3.2-2.6
	C564.3,129.8,564.2,129.6,564.2,129.3z M1003.8,129.6c-0.1-0.3-0.9-0.5-1.4-0.7c-0.6-0.1-1.2,0-1.7,0c-24.5,0-49.1,0-73.6,0
	c-0.9,0-1.8,0.1-2.5,0.2c-0.7,1.7,0.3,2.4,1.3,3.1c2.2,1.5,4.6,2.7,6.6,4.4c2.8,2.4,5.8,2.5,9.2,1.9c-0.1-1-0.2-1.8-0.2-2.7h45.5
	v2.7c3.7,1.1,6.7,0.1,9.4-2.1c1.4-1.2,3.1-2.1,4.7-3.2c0.8-0.6,1.8-1,2.4-1.7C1003.7,131,1003.9,130.1,1003.8,129.6z M693.9,129
	c-0.8,0-1.5-0.1-2.2-0.1h-64.4c-3.4,0-6.8,0-10.2,0c-0.8,0-1.7,0.2-2.5,0.4c-0.1,2,1.2,2.6,2.2,3.3c2,1.3,4.3,2.4,5.9,4
	c2.7,2.8,5.8,2.2,9.1,2c-0.1-1.1-0.2-2-0.3-2.9h45.8c0,0.5-0.1,0.8-0.1,1.1c-0.2,1.8-0.1,1.8,1.6,2c2.5,0.3,4.7-0.2,6.8-1.8
	c2.4-1.8,4.8-3.5,7.4-5.1C694.2,131.2,694.5,130.4,693.9,129z M732.5,322.9c-0.9-0.8-1.8-1.8-3.2-1.5c-0.6,0.1-1.3,0-2,0
	c-0.1-0.4-0.1-0.5-0.1-0.5c0.1-0.3,0.3-0.6,0.4-0.9c2.5-4.3,3.7-9,3.7-14c0-14,0-28.1,0.1-42.1c0-0.6-0.1-1.2-0.1-1.7
	c-0.2-1-0.8-1.6-1.8-1.7c-3.3-0.5-4.2,0.2-4.2,3.6c0,12,0,23.9-0.1,35.8c0,3.2,0.1,6.5-0.2,9.7c-0.2,1.9-0.7,4-1.7,5.6
	c-2,3-4.6,5.6-7.9,7.5c-1.8,1-3.5,2.3-5.1,3.5c-0.4,0.3-0.4,1.1-0.6,1.7c0.5,0.2,1,0.5,1.5,0.5c4.4,0,8.8-0.2,13.2-0.2
	c2.1,0,4.1,0,6,0c0.8-1.3,1.6-2.2,2.1-3.2C732.7,324.4,732.9,323.2,732.5,322.9z M926.1,277.1c0-0.6-0.2-1.1-0.5-2
	c-1.7,1-2.2,2.3-2.9,3.5c-2.6,4.3-6.1,7.6-10.8,9.6c-0.8,0.3-1.6,0.5-2.3,0.9c-2.9,1.7-6.1,2.1-9.2,2.2c-9.8,0.1-19.6,0.1-29.5,0.1
	c-0.8,0-1.5,0-2.2,0c-1.1,0-1.7,0.7-1.6,1.8c0.3,2.8,1,5,4.6,4.9c8.3-0.2,16.6,0,25-0.1c2.8,0,5.7,0.5,8.3-1c0.3-0.2,0.7,0,1-0.1
	c1.4-0.3,2.9-0.5,4.3-1c2.8-1.1,5.4-2.4,8.2-3.6c0.5-0.2,1.1-0.3,1.7-0.5c0.2,0.5,0.4,0.9,0.4,1.3c-0.1,1.2-0.3,2.4-0.4,3.7
	c0,0.7-0.1,1.8,0.3,2c0.6,0.3,1.6,0.2,2.3-0.1c2.2-1.1,3.5-2.7,3.3-5.5C925.8,287.9,926.1,282.5,926.1,277.1z M170.5,126.2
	c-0.8-1.9-1.6-3.8-2.4-5.7c-4.5-0.5-68-0.3-70,0.2c-0.4,0.9,0,1.2,0.8,1.6c2.7,1.5,5.5,2.9,7.7,5c2.6,2.3,5.3,2.4,8.3,2
	c0.2,0,0.4-0.2,0.7-0.4c0.1-0.7,0.2-1.4,0.3-2.2h45.6c1,0,2-0.1,2.6,0.9c0.9,1.6,2.5,1.7,4.1,1.7
	C170.8,129.4,171.4,128.5,170.5,126.2z M616.3,278c0-0.7-0.2-1.4-0.3-2c-1.5-0.3-2,0.4-2.5,1.4c-2.4,4.2-5.3,8-9.9,10.1
	c-2.9,1.3-5.6,3.2-9.1,3.1c-0.2,0-0.5,0.1-0.7,0.2c-1.3,0.2-2.6,0.6-3.9,0.6c-7.8,0.1-15.5,0-23.2,0c-0.7,0-1.3,0-2,0
	c-1.7,0.1-2.4,1-2.1,2.7c0.1,0.8,0.4,1.6,0.6,2.4c0.2,1.1,0.9,1.5,1.9,1.6c0.6,0,1.2,0,1.7,0c7.3,0,14.7-0.2,22,0
	c3.3,0.1,6.5-0.7,9.5-1.6c3.8-1.1,7.7-2.4,11.2-5.2c0.1,1.1,0.1,1.9,0.2,2.7c0.1,1,0,2,0.2,3c0.1,1,0.8,1.4,1.8,1.3
	c2.4-0.3,4.5-2.6,4.5-5C616.4,288.1,616.4,283.1,616.3,278z M263.4,322.9c-0.3-1-1.1-1.5-2.1-1.5c-1.2,0.1-2.4,0.4-4,0.7
	c0.5-1,0.9-1.7,1.4-2.4c2.2-3.4,3.8-7.1,3.8-11.1c0.1-11.5,0-22.9,0-34.4c0-1.3-0.3-2.6-0.5-4.2c-1.6,0.9-2,1.9-2.3,3.1
	c-0.9,3.2-1.6,6.4-2.9,9.4c-0.9,2-1,4-1,6c0,6.9,0,13.8,0,20.7c0,1-0.2,2.1-0.5,3.1c-1.3,4.3-4.3,7.2-7.9,9.6
	c-1.3,0.9-2.5,2-3.5,3.2c-0.5,0.5-0.8,1.6-0.6,2.2c0.3,0.5,1.3,1,2.1,1c4.8,0.1,9.7,0.1,14.5,0C261.7,328.1,264,324.7,263.4,322.9z
	 M423.3,132.1c-0.1-2.9-0.6-3.3-3.4-3.3c-17.6,0-35.3,0-52.9,0c-0.7,0-1.3,0-2,0c-1.2,0.2-1.7,1.1-1.2,2.1c0.2,0.4,0.6,0.8,1,1.1
	c1.4,1.5,2.8,3,4.2,4.6c0.8,0.9,1.6,1.9,3,2c1.3,0,2.6,0,4,0c0.2-1.1,0.4-1.9,0.6-3h39.6c1.4,2.8,2.5,3.4,5.2,3
	c1.2-0.2,1.8-0.8,1.8-1.9C423.4,135.3,423.4,133.7,423.3,132.1z M913.9,199.5c0-0.8-0.6-1.6-1-2.8c-0.9,0.8-1.4,1.2-1.9,1.8
	c-1.9,2.2-3.8,4.4-5.7,6.5c-1.4,1.5-3.1,2.7-5.4,2.7c-0.4,0-0.9,0-1.2,0.2c-1.1,1-2.3,0.7-3.6,0.7c-7.9,0-15.8,0-23.7,0
	c-0.9,0-1.8,0.1-2.7,0.2c-0.5,0.1-1,0.4-1.2,0.7c-0.7,1.4-0.8,2.9-0.1,4.3c0.6,1.2,1.6,1.5,2.9,1.5c3.8-0.1,7.7,0.1,11.5-0.1
	c6.1-0.3,12.2,0.8,18.3-0.8c2.2-0.6,4.4-1.6,7-1.9c0.1,1.2,0,2.5,0.2,3.7c0.1,0.6,0.7,1.5,1.2,1.6c1.8,0.6,5.4-1.9,5.4-3.7
	C914,209.5,914,204.5,913.9,199.5z M434.1,323.8c-0.4-2.2-0.8-2.5-3-2.5c-1.6,0-3.3,0-5,0c0.4-1.8,0.8-3.5,1.1-5.2
	c0.2-1,0.5-2.1,0.2-2.9c-1.2-3.1-0.4-6.6-1.9-9.7c-1.3-2.6-1.7-5.7-2.7-8.5c-1.1-3.2-2-3.8-4.8-3.6c-2.1,0.1-2.9,1.4-2.2,3.4
	c0.2,0.5,0.5,1,0.7,1.6c1.5,5.1,2.9,10.2,4.6,15.2c1.3,3.7-1.4,8.4-4.1,9.7c-2.6,1.3-5.2,2.6-7.8,3.9c-0.6,0.3-1.3,0.8-1.7,1.4
	c-0.3,0.4-0.2,1.1-0.2,1.5c6.7,0,13.1,0,19.5,0c1.8,0,3.5,0,5.2,0c1.6-0.1,2.2-0.7,2.2-2.3C434.3,325.2,434.2,324.5,434.1,323.8z
	 M1213.3,318c-1.4-2-3.1-3.7-4.3-5.8c-3.1-5.2-6-10.5-8.9-15.8c-4.3-7.9-8.5-15.8-12.7-23.7c-0.6-1-1.3-1.9-2-2.9
	c-1.5-2.1-3.6-2.8-6.7-1.9c0.3,1.1,0.4,2.1,0.8,3.1c1.4,2.8,3,5.5,4.4,8.4c4.3,9.2,9.4,18,15.5,26.1c3.7,4.9,7.6,9.7,12.1,13.9
	c0.7,0.6,1.5,1.1,2.4,1.6C1214.8,319.4,1213.9,318.7,1213.3,318z M638,323.5c-0.1-0.4-0.4-0.7-0.6-1c-1.4-1.4-3.1-1.3-4.9-0.8
	c-1.5,0.4-2,1-2.1,2.6c-0.1,1.1,0,2.3,0,3.8c1.6,0,2.8,0,3.9,0C635.7,328.1,638.2,324.9,638,323.5z M1200.3,188.4
	c-0.8-2.2-2.2-3.9-4-5.2c-0.5-0.3-1.5-0.3-2,0c-0.3,0.2-0.5,1.2-0.4,1.7c0.6,1.7,0.3,3.3,0,4.9c-0.3,1.5-0.6,3.1-0.8,4.6
	c-0.7,4.9-2.2,9.3-5.8,13.1c-3.7,3.9-8.1,5.7-13.2,6.2c-0.3,0-0.6,0.2-1,0.4v5.6c1.5,0.8,2.8,0.5,4.2,0.1c0.7-0.2,1.4-0.6,2.1-0.6
	c2.1-0.1,3.8-0.9,5.6-1.9c4.8-2.7,8.5-6.5,11.2-11.3c1.9-3.4,2.8-7,3.5-10.8c0.3-1.8-0.3-3.8,0.7-5.6
	C1200.5,189.3,1200.4,188.8,1200.3,188.4z M1200.3,188.4c-0.8-2.2-2.2-3.9-4-5.2c-0.5-0.3-1.5-0.3-2,0c-0.3,0.2-0.5,1.2-0.4,1.7
	c0.6,1.7,0.3,3.3,0,4.9c-0.3,1.5-0.6,3.1-0.8,4.6c-0.7,4.9-2.2,9.3-5.8,13.1c-3.7,3.9-8.1,5.7-13.2,6.2c-0.3,0-0.6,0.2-1,0.4v5.6
	c1.5,0.8,2.8,0.5,4.2,0.1c0.7-0.2,1.4-0.6,2.1-0.6c2.1-0.1,3.8-0.9,5.6-1.9c4.8-2.7,8.5-6.5,11.2-11.3c1.9-3.4,2.8-7,3.5-10.8
	c0.3-1.8-0.3-3.8,0.7-5.6C1200.5,189.3,1200.4,188.8,1200.3,188.4z M406,241.7c-0.4-1.1-1-2.2-1.5-3.5c-1.7,2.2-2.6,4.4-1.7,7
	C405.8,246.1,407,244.4,406,241.7z M406,241.7c-0.4-1.1-1-2.2-1.5-3.5c-1.7,2.2-2.6,4.4-1.7,7C405.8,246.1,407,244.4,406,241.7z
	 M1200.3,188.4c-0.8-2.2-2.2-3.9-4-5.2c-0.5-0.3-1.5-0.3-2,0c-0.3,0.2-0.5,1.2-0.4,1.7c0.6,1.7,0.3,3.3,0,4.9
	c-0.3,1.5-0.6,3.1-0.8,4.6c-0.7,4.9-2.2,9.3-5.8,13.1c-3.7,3.9-8.1,5.7-13.2,6.2c-0.3,0-0.6,0.2-1,0.4v5.6c1.5,0.8,2.8,0.5,4.2,0.1
	c0.7-0.2,1.4-0.6,2.1-0.6c2.1-0.1,3.8-0.9,5.6-1.9c4.8-2.7,8.5-6.5,11.2-11.3c1.9-3.4,2.8-7,3.5-10.8c0.3-1.8-0.3-3.8,0.7-5.6
	C1200.5,189.3,1200.4,188.8,1200.3,188.4z M406,241.7c-0.4-1.1-1-2.2-1.5-3.5c-1.7,2.2-2.6,4.4-1.7,7
	C405.8,246.1,407,244.4,406,241.7z"/>
</svg>
