<?xml version="1.0" encoding="utf-8"?>
<!-- Generator: Adobe Illustrator 27.4.1, SVG Export Plug-In . SVG Version: 6.00 Build 0)  -->
<svg version="1.1" id="Layer_3" xmlns="http://www.w3.org/2000/svg" xmlns:xlink="http://www.w3.org/1999/xlink" x="0px" y="0px"
	 viewBox="0 0 1240 640" style="enable-background:new 0 0 1240 640;" xml:space="preserve">
<g>
	<g>
		<path d="M638.9,159.3c0,57.4-19.7,79.4-44.2,79.4c-25.4,0-42.4-27-42.4-78.5c0-50.6,18.1-78,44.9-78
			C623.2,82.2,638.9,110.6,638.9,159.3z M570.4,160.5c0,31.5,6.1,62.8,25.4,62.8c19.7,0,25-33.3,25-63.3c0-28.6-5.2-62.4-25.2-62.4
			C576.5,97.6,570.4,129.4,570.4,160.5z"/>
		<path d="M688.9,155.5c0-9.3-0.7-20.2-0.9-28.4h15.7l0.9,17.2h0.5c3.6-10.4,12.9-19.1,23.1-19.1c1.4,0,2.5,0.2,3.6,0.2v17.9
			c-1.1-0.2-2.3-0.2-3.6-0.2c-11.1,0-19.3,10.2-21.1,22.9c-0.5,2.9-0.7,6.4-0.7,10v60.8h-17.5V155.5z"/>
		<path d="M819.1,236.9l-1.1-11.6h-0.7c-4.8,8.4-12.5,13.4-21.8,13.4c-14.7,0-26.1-12.5-26.1-31.3c0-27.4,22-39.7,46.7-39.9v-3.4
			c0-14.7-3.6-25-17.5-25c-6.8,0-12.9,2.3-18.1,5.7l-3.9-12.2c4.5-3.4,14.7-7.3,25.6-7.3c22,0,31.5,14.5,31.5,39.2V212
			c0,8.4,0,17.9,1.1,24.9H819.1z M816.6,180.2c-9.1,0-30.2,1.6-30.2,25.4c0,14.3,7.3,19.5,13.4,19.5c7.7,0,14.3-5.7,16.3-16.6
			c0.5-2,0.5-4.3,0.5-6.1V180.2z"/>
		<path d="M887,161.4c0-16.8-0.7-26.5-0.9-34.3h15.7l0.9,14.1h0.5c5.9-11.8,14.5-15.9,23.1-15.9c19.1,0,31.8,20.4,31.8,56.5
			c0,40.6-16.8,56.9-34,56.9c-10.2,0-16.1-6.6-19.1-12.7h-0.5v54.4H887V161.4z M904.4,196.5c0,3.4,0,6.6,0.7,9.1
			c3.4,15.7,11.3,18.6,16.1,18.6c14.5,0,19.1-20,19.1-42.2c0-22.7-5.4-41.7-19.3-41.7c-7.9,0-15,10-16.1,20
			c-0.5,2.7-0.5,5.4-0.5,8.4V196.5z"/>
		<path d="M1007.6,79.9h17.5v59h0.5c2.3-3.9,5.7-7.3,9.1-9.5c4.1-2.5,8.4-4.1,14.7-4.1c13.8,0,25.6,11.1,25.6,38.8v72.8h-17.5v-70.8
			c0-13.4-3-26.1-14.7-26.1c-8.2,0-14.3,5.9-17,17.5c-0.5,2.5-0.7,5.7-0.7,8.4v71h-17.5V79.9z"/>
		<path d="M1147.1,98.8c0.2,6.8-4.1,11.3-10.7,11.3c-5.7,0-10-4.5-10-11.3c0-6.8,4.5-11.3,10.2-11.3
			C1143.1,87.4,1147.1,92,1147.1,98.8z M1128.3,236.9V127.1h17.5v109.8H1128.3z"/>
	</g>
	<g>
		<path d="M580.5,353l5.4-13.5l-0.1-0.1l-1.5,1c-0.3,0.2-0.6,0.3-0.8,0.4c-0.3,0.1-0.6,0.1-0.9,0.1c-0.3,0-0.7-0.1-1.1-0.2
			c-0.4-0.1-0.8-0.3-1.3-0.7l-2.9-2.6c-0.3-0.3-0.5-0.6-0.7-0.8c-0.2-0.2-0.2-0.4-0.2-0.6c0-0.2,0-0.3,0.1-0.4
			c0.1-0.1,0.2-0.1,0.3-0.1h0.1c0,0,0.1,0,0.2,0.1c0.1,0,0.2,0.1,0.3,0.1c0.1,0,0.3,0.1,0.5,0.1c0.2,0,0.5,0.1,0.9,0.1
			c0.4,0,0.8-0.1,1.3-0.2c0.5-0.1,0.9-0.3,1.4-0.5c0.3-0.1,0.5-0.2,0.8-0.4c0.3-0.2,0.5-0.3,0.8-0.5c0.7-0.5,1.3-1,1.9-1.5
			c0.6-0.5,1.2-1,1.8-1.5c0.7-0.6,1.2-1.2,1.7-1.7c0.5-0.6,0.9-1.1,1.2-1.5c0.7-1.1,1.2-2,1.6-2.8c0.4-0.7,0.8-1.1,1.1-1.1
			c0.2,0,0.4,0.2,0.6,0.5c0.2,0.3,0.3,0.8,0.4,1.5c0,0.2,0.1,0.5,0.1,0.7c0,0.3,0.1,0.5,0.1,0.8c0.1,0.8,0.2,1.6,0.2,2.3
			c0.1,0.7,0.1,1.3,0.2,1.7c0,0.1,0,0.3,0,0.4c0,0.1-0.1,0.3-0.1,0.5c-0.1,0.3-0.2,0.6-0.4,0.8c-0.2,0.3-0.5,0.6-0.8,1l-4.4,3.5
			l-4.7,11.9l0.1,0.1c0.9-1,2.4-2.7,4.5-5c2.1-2.3,4.7-4.7,7.7-7.3c3.3-2.8,6.9-5.5,10.9-8c4-2.5,8-4.1,12.2-5
			c0.8-0.2,1.7-0.3,2.5-0.4c0.8-0.1,1.6-0.1,2.5-0.1c0.6,0,1.1,0,1.7,0.1c0.6,0.1,1.2,0.2,1.7,0.3c2.4,0.5,4.5,1.7,6.5,3.6
			c2,1.9,2.9,4.7,2.9,8.5c0,0.9-0.1,1.8-0.2,2.7c-0.2,0.9-0.4,1.8-0.7,2.8c-1.8,5.3-5.7,10.2-11.9,14.6c-6.2,4.4-13.4,6.6-21.6,6.6
			c-3.5,0-6.4-0.4-8.7-1.2c-2.3-0.8-4.1-1.7-5.4-2.7c-1.1-0.8-1.9-1.6-2.4-2.3c-0.5-0.7-0.7-1.2-0.7-1.4c0-0.2,0.1-0.4,0.2-0.6
			c0.1-0.2,0.3-0.2,0.5-0.2c0.3,0,0.7,0.4,1.2,1.1c0.5,0.7,1.3,1.5,2.4,2.3c1.1,0.8,2.7,1.6,4.7,2.3c2,0.7,4.7,1.1,8.1,1.1
			c6.5,0,12.1-1.6,16.8-4.7c4.7-3.2,8-6.7,10.1-10.5c0.6-1.2,1.1-2.3,1.4-3.5c0.3-1.2,0.5-2.3,0.5-3.4c0-0.3,0-0.6,0-0.9
			c0-0.3-0.1-0.6-0.1-0.9c-0.3-2.2-1.4-4.2-3.1-6c-1.8-1.8-4.5-2.7-8.1-2.7c-1.6,0-3.2,0.2-4.9,0.6c-1.7,0.4-3.3,0.9-4.9,1.6
			c-3.8,1.5-7.5,3.7-11.1,6.4c-3.6,2.7-6.9,5.6-9.8,8.5c-1.3,1.4-2.6,2.7-3.7,4c-1.1,1.4-2.2,2.6-3.1,3.8c-2.6,6.7-5,12.4-7.2,17
			s-4,6.9-5.4,6.9c-0.9,0-1.7-0.3-2.4-0.8c-0.7-0.5-1-1.2-1-2c0-1.1,1-3.3,3.1-6.6c2-3.3,4.5-6.8,7.5-10.6c0.7-0.9,1.3-1.7,2-2.6
			C579.2,354.7,579.8,353.9,580.5,353L580.5,353z"/>
		<path d="M652.6,331.3c0.2,0.3,0.2,0.6,0.2,0.8c0,0,0,0.1,0,0.1c0,0,0,0.1,0,0.1c0,0.8-0.3,2.3-1,4.4c-0.7,2.1-1.9,4.4-3.6,6.8
			c-0.4,0.6-0.9,1.1-1.4,1.7c-0.5,0.6-1,1.2-1.6,1.7c-0.3,0.3-0.7,0.7-1,1s-0.7,0.7-1.1,1.1c0,0-0.1,0.1-0.1,0.1
			c0,0-0.1,0.1-0.1,0.1c-0.7,0.7-1.5,1.4-2.1,2.1c-0.7,0.7-1.2,1.3-1.6,1.8c0,0-0.1,0.1-0.1,0.2c0,0.1-0.1,0.2-0.2,0.2
			c-0.2,0.3-0.5,0.7-0.7,1c-0.2,0.4-0.4,0.7-0.6,1.1c-0.1,0.2-0.2,0.5-0.2,0.7c0,0.2-0.1,0.5-0.1,0.7c0,0.1,0,0.4,0.1,0.7
			c0,0.4,0.1,0.7,0.3,1.2c0.1,0.5,0.4,0.9,0.7,1.3c0.3,0.4,0.7,0.6,1.2,0.6c0.6,0,1.4-0.5,2.4-1.4c1-0.9,2.2-2,3.4-3.1
			c0.1,0,0.2-0.1,0.3-0.2c0.1-0.1,0.2-0.2,0.3-0.3c1.1-1,2.2-1.9,3.2-2.8c1-0.8,1.9-1.2,2.5-1.2c0.9,0,1.5,0.6,1.8,1.7
			c0.3,1.1,0.4,3.9,0.4,8.3c0,0.7,0.1,1.1,0.3,1.3c0.2,0.2,0.5,0.4,0.7,0.4c0.1,0,0.2,0,0.2,0s0.1,0,0.2,0c0.2,0,0.4,0,0.6-0.1
			c0.2,0,0.4-0.1,0.6-0.1c0.5-0.1,1-0.4,1.5-0.7c0.5-0.3,1-0.6,1.5-1c0,0,0.1-0.1,0.2-0.2c0.1-0.1,0.2-0.1,0.2-0.2
			c0.7-0.6,1.3-1,1.6-1.2c0.3-0.2,0.6-0.3,0.8-0.3c0.2,0,0.3,0,0.4,0.1c0.1,0.1,0.1,0.2,0.1,0.4c0,0,0,0.1,0,0.1c0,0,0,0.1-0.1,0.1
			c-0.1,0.1-0.2,0.3-0.4,0.4c-0.2,0.1-0.4,0.4-0.8,0.7c-0.2,0.2-0.7,0.6-1.4,1.2c-0.7,0.6-1.5,1.2-2.5,1.8c-0.2,0.1-0.4,0.3-0.6,0.4
			c-0.2,0.1-0.4,0.3-0.6,0.4c-0.9,0.6-1.8,1.1-2.7,1.5c-0.9,0.4-1.5,0.7-2,0.7c-1.2,0-1.9-0.6-2.3-1.7c-0.4-1.1-0.6-2.4-0.6-3.8
			c0,0,0-0.1,0-0.2c0-0.1,0-0.1,0-0.2v-3.8c0-0.6-0.1-1-0.2-1.5c-0.1-0.4-0.3-0.6-0.6-0.6c-0.3,0-0.7,0.2-1.1,0.6
			c-0.4,0.4-0.8,0.8-1.4,1.3l-6.8,6.1c-0.7,0.7-1.4,1.3-1.8,1.6c-0.5,0.3-0.9,0.5-1.3,0.6c-0.1,0-0.3,0-0.5,0c-0.2,0-0.3,0-0.5,0
			c-0.8,0-1.4-0.5-1.7-1.5c-0.3-1-0.4-2.2-0.4-3.7c0-0.3,0-0.5,0-0.8s0-0.5,0.1-0.7c0.1-0.8,0.5-1.8,1.2-3c0.7-1.2,2-3.3,3.9-6.4
			c0.5-0.8,1.2-1.8,2-3.1c0.8-1.3,1.6-2.6,2.4-4c0,0,0.1-0.1,0.1-0.2c0-0.1,0.1-0.2,0.1-0.2c0.8-1.2,1.6-2.4,2.3-3.6
			c0.7-1.2,1.4-2.1,2-2.9c1.8-2.5,2.9-4.1,3.5-4.7c0.6-0.6,1-0.9,1.4-1c0,0,0.1,0,0.1,0c0,0,0.1,0,0.1,0
			C652.1,330.9,652.4,331.1,652.6,331.3z"/>
		<path d="M663.2,358.3l6.2-6.8c0.1-0.1,0.2-0.2,0.3-0.3c0.1-0.1,0.2-0.2,0.3-0.2c0.2-0.2,0.4-0.3,0.6-0.3c0.2,0,0.4,0,0.7,0
			c0.3,0,0.6,0.1,0.7,0.2c0.1,0.2,0.2,0.4,0.2,0.6c0,0.2-0.1,0.5-0.3,0.8c-0.2,0.3-0.6,0.7-1.1,1.2c-0.1,0.1-0.3,0.3-0.4,0.5
			c-0.1,0.2-0.3,0.3-0.4,0.5c-0.3,0.3-0.5,0.6-0.8,0.9c-0.3,0.3-0.5,0.6-0.7,0.9c-0.4,0.5-0.7,1-0.9,1.5c-0.2,0.5-0.3,1-0.3,1.4
			c0,1,0.3,1.8,0.9,2.4c0.6,0.6,1.5,0.9,2.6,0.9c0.2,0,0.5,0,0.7,0c0.3,0,0.5-0.1,0.7-0.1c0.7-0.2,1.4-0.5,2.2-0.9
			c0.7-0.4,1.6-0.9,2.4-1.5c0.8-0.6,1.3-1,1.6-1.3c0.3-0.3,0.5-0.4,0.7-0.4c0.1,0,0.3,0,0.3,0.1c0.1,0.1,0.1,0.3,0.1,0.6
			c0,0.1-0.1,0.3-0.3,0.6c-0.2,0.3-0.5,0.5-0.7,0.7c-0.1,0.1-0.2,0.2-0.3,0.3c-0.1,0.1-0.2,0.2-0.3,0.2c-0.1,0-0.2,0.1-0.2,0.1
			c0,0-0.1,0.1-0.1,0.1c-0.4,0.3-0.8,0.6-1.2,0.9c-0.4,0.3-0.9,0.7-1.3,1c-1.2,0.9-2.5,1.8-3.9,2.5c-1.4,0.7-2.8,1.1-4.3,1.1
			c-1.6,0-2.7-0.4-3.4-1.3c-0.7-0.9-1-2-1-3.5c0-0.6,0-1.1,0.1-1.7C662.9,359.6,663,359,663.2,358.3L663.2,358.3z M674.4,339.9
			c0.2,0.1,0.4,0.2,0.6,0.4c0.2,0.1,0.3,0.3,0.5,0.5c0.1,0.2,0.3,0.4,0.6,0.6c0,0.1,0.1,0.2,0.2,0.2c0.1,0,0.1,0.1,0.2,0.1
			c0.3,0.2,0.6,0.4,0.8,0.5c0.3,0.1,0.5,0.2,0.7,0.2c0.1,0,0.3,0.1,0.3,0.2c0.1,0.1,0.1,0.2,0.1,0.3c0,0.1-0.1,0.2-0.2,0.5
			c-0.1,0.2-0.3,0.4-0.6,0.6c-0.4,0.3-0.8,0.6-1.4,0.9c-0.6,0.3-1.2,0.4-1.9,0.4c-0.7,0-1.4-0.2-2-0.6c-0.6-0.4-1-0.8-1.2-1.2
			c0-0.1-0.1-0.3-0.1-0.4s-0.1-0.3-0.1-0.4c0-0.2,0.1-0.4,0.2-0.6c0.1-0.2,0.2-0.4,0.4-0.6c0.1-0.2,0.3-0.4,0.5-0.6
			c0.2-0.2,0.4-0.4,0.6-0.5c0.3-0.2,0.5-0.4,0.8-0.5c0.2-0.1,0.4-0.2,0.6-0.2C674,339.7,674.2,339.8,674.4,339.9z"/>
		<path d="M681.4,361.7c0-1.7,0.6-4,1.8-6.8c1.2-2.8,3-6.6,5.3-11.4c2.3-4.3,4.1-7.4,5.4-9.5c1.3-2,2.4-3.1,3.4-3.1
			c0.4,0,0.6,0.2,0.8,0.5c0.2,0.3,0.2,0.7,0.2,1.3c0,2.6-0.7,5.1-2.1,7.6c-1.4,2.5-3,4.9-4.6,7c-1.7,2.2-3.3,4.3-4.7,6.1
			c-1.4,1.8-2.1,3.4-2.1,4.6c0,1,0.4,1.8,1.3,2.4c0.8,0.6,1.8,1,2.8,1.3c0.5,0.1,0.9,0.2,1.4,0.2c0.4,0.1,0.8,0.1,1.2,0.1
			c0.9,0,1.7-0.2,2.6-0.5c0.8-0.3,1.6-0.7,2.2-1.1c0.7-0.4,1.3-0.8,1.7-1.1c0.5-0.3,0.8-0.5,0.9-0.5c0.1,0,0.2,0.1,0.3,0.2
			c0.1,0.1,0.1,0.3,0.1,0.5c0,0.1-0.4,0.6-1.1,1.3c-0.7,0.7-1.7,1.5-2.9,2.3c-0.7,0.5-1.6,1-2.4,1.5c-0.9,0.5-1.8,0.9-2.7,1.3
			c-0.6,0.2-1.2,0.3-1.8,0.5c-0.6,0.1-1.2,0.2-1.7,0.2c-0.1,0-0.2,0-0.3,0c-0.1,0-0.2,0-0.4,0c-1.1-0.1-2.1-0.5-3.1-1.1
			C681.9,364.9,681.4,363.7,681.4,361.7L681.4,361.7z"/>
		<path d="M701.2,358.3l6.2-6.8c0.1-0.1,0.2-0.2,0.3-0.3c0.1-0.1,0.2-0.2,0.3-0.2c0.2-0.2,0.4-0.3,0.6-0.3c0.2,0,0.4,0,0.7,0
			c0.3,0,0.6,0.1,0.7,0.2c0.1,0.2,0.2,0.4,0.2,0.6c0,0.2-0.1,0.5-0.3,0.8c-0.2,0.3-0.6,0.7-1.1,1.2c-0.1,0.1-0.3,0.3-0.4,0.5
			c-0.1,0.2-0.3,0.3-0.4,0.5c-0.3,0.3-0.5,0.6-0.8,0.9c-0.3,0.3-0.5,0.6-0.7,0.9c-0.4,0.5-0.7,1-0.9,1.5c-0.2,0.5-0.3,1-0.3,1.4
			c0,1,0.3,1.8,0.9,2.4c0.6,0.6,1.5,0.9,2.6,0.9c0.2,0,0.5,0,0.7,0c0.3,0,0.5-0.1,0.7-0.1c0.7-0.2,1.4-0.5,2.2-0.9
			c0.7-0.4,1.6-0.9,2.4-1.5c0.8-0.6,1.3-1,1.6-1.3c0.3-0.3,0.5-0.4,0.7-0.4c0.1,0,0.3,0,0.3,0.1c0.1,0.1,0.1,0.3,0.1,0.6
			c0,0.1-0.1,0.3-0.3,0.6c-0.2,0.3-0.5,0.5-0.7,0.7c-0.1,0.1-0.2,0.2-0.3,0.3c-0.1,0.1-0.2,0.2-0.3,0.2c-0.1,0-0.2,0.1-0.2,0.1
			c0,0-0.1,0.1-0.1,0.1c-0.4,0.3-0.8,0.6-1.2,0.9c-0.4,0.3-0.9,0.7-1.3,1c-1.2,0.9-2.5,1.8-3.9,2.5c-1.4,0.7-2.8,1.1-4.3,1.1
			c-1.6,0-2.7-0.4-3.4-1.3c-0.7-0.9-1-2-1-3.5c0-0.6,0-1.1,0.1-1.7C700.9,359.6,701,359,701.2,358.3L701.2,358.3z M712.4,339.9
			c0.2,0.1,0.4,0.2,0.6,0.4c0.2,0.1,0.3,0.3,0.5,0.5c0.1,0.2,0.3,0.4,0.6,0.6c0,0.1,0.1,0.2,0.2,0.2c0.1,0,0.1,0.1,0.2,0.1
			c0.3,0.2,0.6,0.4,0.8,0.5c0.3,0.1,0.5,0.2,0.7,0.2c0.1,0,0.3,0.1,0.3,0.2c0.1,0.1,0.1,0.2,0.1,0.3c0,0.1-0.1,0.2-0.2,0.5
			c-0.1,0.2-0.3,0.4-0.6,0.6c-0.4,0.3-0.8,0.6-1.4,0.9c-0.6,0.3-1.2,0.4-1.9,0.4c-0.7,0-1.4-0.2-2-0.6c-0.6-0.4-1-0.8-1.2-1.2
			c0-0.1-0.1-0.3-0.1-0.4c0-0.1-0.1-0.3-0.1-0.4c0-0.2,0.1-0.4,0.2-0.6c0.1-0.2,0.2-0.4,0.4-0.6c0.1-0.2,0.3-0.4,0.5-0.6
			c0.2-0.2,0.4-0.4,0.6-0.5c0.3-0.2,0.5-0.4,0.8-0.5c0.2-0.1,0.4-0.2,0.6-0.2C712,339.7,712.3,339.8,712.4,339.9z"/>
		<path d="M719,383.3c-0.3-0.2-0.4-0.4-0.5-0.6c-0.1-0.1-0.2-0.3-0.2-0.4c0-0.1,0-0.3,0-0.4c0-1,0.3-2.2,0.9-3.5
			c0.6-1.3,1.3-2.6,2.1-4c0,0,0.1-0.1,0.1-0.2c0-0.1,0.1-0.2,0.1-0.2c0,0,0.1-0.1,0.1-0.2c0-0.1,0.1-0.1,0.1-0.2
			c0.1-0.2,0.2-0.4,0.3-0.5c0.1-0.2,0.2-0.3,0.3-0.5c0.9-1.4,1.7-2.7,2.4-3.9c0.7-1.2,1-2.4,1-3.5c0-0.3,0-0.6,0-0.9
			c0-0.3-0.1-0.6-0.2-0.9c-0.2-1-0.5-2-1-3c-0.5-1-1-1.8-1.5-2.4c-0.2-0.3-0.5-0.5-0.7-0.7c-0.3-0.2-0.5-0.2-0.7-0.2
			c-0.2,0-0.4,0.1-0.6,0.2c-0.2,0.2-0.4,0.3-0.6,0.5c0,0.1-0.1,0.2-0.2,0.2c-0.1,0.1-0.2,0.2-0.2,0.2c-0.1,0.1-0.2,0.2-0.3,0.2
			c-0.1,0-0.2,0.1-0.3,0.1c-0.2,0-0.4-0.1-0.5-0.2c-0.2-0.1-0.2-0.3-0.2-0.5c0-0.1,0.2-0.5,0.7-1.1c0.5-0.6,1-1.2,1.7-1.8
			c0.2-0.2,0.5-0.4,0.7-0.6c0.2-0.2,0.4-0.4,0.6-0.6c0.6-0.5,1.1-0.9,1.6-1.3c0.5-0.4,1-0.5,1.3-0.5c0.8,0,1.4,0.4,1.8,1.1
			c0.4,0.7,0.7,1.6,1,2.4c0.1,0.6,0.2,1.1,0.2,1.6c0,0.5,0.1,1,0.1,1.3c0,0.4,0,0.7,0,1.1c0,0.4,0,0.7,0,1.1c0,0.9-0.1,1.7-0.2,2.5
			c-0.1,0.8-0.2,1.4-0.3,1.8l0.1-0.1c0.3-0.6,0.9-1.5,1.6-2.8c0.8-1.2,1.7-2.5,2.7-3.8c1.1-1.4,2.2-2.7,3.5-3.9
			c1.3-1.2,2.5-2.2,3.8-2.8c0.5-0.2,0.9-0.4,1.4-0.5c0.5-0.1,0.9-0.2,1.4-0.2c0.2,0,0.5,0,0.8,0.1c0.3,0,0.6,0.1,0.9,0.3
			c0.7,0.3,1.3,0.8,1.9,1.4c0.6,0.7,0.9,1.6,0.9,2.9c0,0.4,0,0.8-0.1,1.2c-0.1,0.4-0.2,0.8-0.4,1.2c-0.6,1.5-1.6,2.9-3,4.3
			c-1.4,1.4-2.9,2.5-4.5,3.2c-0.7,0.3-1.4,0.6-2.1,0.8c-0.7,0.2-1.3,0.3-2,0.3s-1.1-0.1-1.5-0.4s-0.6-0.6-0.6-1c0-0.4,0.1-0.7,0.3-1
			c0.2-0.2,0.4-0.5,0.8-0.7c0.3-0.2,0.8-0.3,1.5-0.3c0.4,0,0.7,0,1,0.1c0.3,0,0.6,0.1,0.8,0.2c0.2,0,0.5,0.1,0.7,0.2
			c0.2,0.1,0.4,0.1,0.6,0.1c0,0,0.1,0,0.2,0c0.1,0,0.1,0,0.2,0c0.9-0.1,1.8-0.6,2.5-1.5c0.8-0.8,1.2-2,1.2-3.3c0-1.1-0.3-2-0.9-2.8
			c-0.6-0.8-1.4-1.2-2.3-1.2c-2.1,0-4.1,1.5-5.9,4.4c-1.8,2.9-3.3,6.2-4.6,9.9c-0.2,0.5-0.5,1.4-1,2.7c-0.5,1.3-1.1,2.7-1.8,4.2
			c-0.5,1.1-1.1,2.2-1.6,3.2c-0.6,1-1.2,1.9-1.8,2.6c-0.4,0.5-0.7,0.8-1.1,1.1c-0.4,0.3-0.7,0.4-1.1,0.4
			C719.6,383.6,719.2,383.5,719,383.3z"/>
		<path d="M805.3,327.1l1.3-2.3c0.2-0.3,0.4-0.5,0.6-0.8c0.2-0.3,0.4-0.4,0.7-0.4c0.3,0,0.5,0.1,0.6,0.2c0.1,0.2,0.2,0.4,0.2,0.6
			c0,0.3,0,0.6-0.1,0.9c-0.1,0.3-0.2,0.7-0.4,1l-1,1.9c2.8,2.2,4.8,4.7,6,7.5c1.2,2.7,1.7,5.6,1.7,8.6c0,0.6,0,1.2-0.1,1.8
			c0,0.6-0.1,1.3-0.2,1.9c-0.7,4.7-2.7,9-6,12.9c-3.3,3.9-7.6,5.9-12.9,5.9c-2.1,0-3.8-0.3-5.2-1c-1.4-0.7-2.1-1.8-2.1-3.5
			c0,0,0-0.1,0-0.2c0-0.1,0-0.1,0-0.2c0-1.1,0.3-2.2,0.8-3.3c0.5-1.1,1.2-2.5,2.2-4.2c-0.3,0-0.7,0.1-1.1,0.2
			c-0.4,0.1-0.9,0.1-1.3,0.2c-0.9,0.1-2,0.3-3.1,0.4c-1.1,0.1-2.3,0.2-3.4,0.3c-0.7,0-1.3,0.1-2,0.1c-0.7,0-1.3,0-2,0
			c-4.5,0-8.3-1.1-11.3-3.3c-3-2.2-4.6-5.3-4.6-9.3c0-5.5,2.6-10.2,7.7-14c5.2-3.8,11.7-5.7,19.5-5.7c3.2,0,6.2,0.4,9,1.1
			C801.5,325.5,803.7,326.3,805.3,327.1L805.3,327.1z M792.5,351.9l10.3-19.9c-0.1,0-0.3-0.1-0.5-0.2c-0.2-0.1-0.3-0.2-0.5-0.3
			c-1.8-0.9-4.3-1.8-7.4-2.5c-3.1-0.8-6.5-1.2-10.1-1.2c-5.9,0-10.3,1-13.4,2.9c-3.1,1.9-4.6,4.9-4.6,8.9c0,3,1.2,5.3,3.5,7
			c2.3,1.7,4.9,3,7.7,3.8c2.1,0.7,4.1,1.1,6,1.3c1.9,0.2,3.3,0.3,4.2,0.3c1.1,0,2.1,0,3-0.1C791.4,352.1,792,352,792.5,351.9
			L792.5,351.9z M804.7,333.2l-9.5,18.6l5.8-0.9c0.1,0,0.2,0.1,0.3,0c0.1,0,0.2-0.1,0.3-0.1c0.3,0,0.6-0.1,0.8-0.1
			c0.2,0,0.4-0.1,0.6-0.1c0.3,0,0.6,0.1,0.7,0.2c0.1,0.2,0.2,0.4,0.2,0.6c0,0.3-0.1,0.5-0.4,0.6c-0.3,0.1-0.7,0.3-1.2,0.4
			c-0.1,0-0.3,0.1-0.5,0.1c-0.2,0-0.3,0.1-0.5,0.1l-7.4,1.5c-0.3,0.7-0.5,1.2-0.8,1.7c-0.3,0.5-0.5,1-0.6,1.5c0,0.2-0.1,0.4-0.1,0.6
			c0,0.2,0,0.4,0,0.6c0,0.7,0.3,1.4,1,2c0.7,0.6,2.1,0.9,4.3,0.9c5,0,8.6-1.3,10.7-3.9c2.2-2.6,3.4-5.4,3.6-8.5
			c0-0.3,0.1-0.5,0.1-0.8c0-0.2,0-0.5,0-0.7c0-2.4-0.4-4.6-1.3-6.5c-0.9-1.9-1.9-3.5-2.9-4.8c-0.6-0.8-1.2-1.5-1.8-2
			C805.6,334,805.1,333.6,804.7,333.2L804.7,333.2z"/>
		<path d="M830.7,349.7c0.7,0,1.3,0.3,1.8,0.8c0.5,0.5,0.8,1.1,0.8,1.8c0,2-1.1,3.5-3.4,4.6c-2.3,1.1-5.1,1.8-8.5,2.2
			c0.2,0.9,0.6,1.6,1.3,2c0.7,0.5,1.3,0.8,2.1,1c0.7,0.2,1.3,0.3,1.9,0.3c0.6,0,1,0,1.3,0c0,0,0.1,0,0.1,0c1.3,0,2.5-0.2,3.6-0.6
			c1.1-0.4,2.2-0.8,3.1-1.3c0.9-0.4,1.6-0.8,2.2-1.2c0.6-0.4,1-0.6,1.1-0.6c0.2,0,0.4,0.1,0.4,0.2c0,0.1,0,0.2,0,0.4
			c0,0.1,0,0.2-0.1,0.3c0,0.1-0.1,0.2-0.1,0.3c-0.1,0.1-0.2,0.3-0.3,0.4c-0.1,0.1-0.3,0.3-0.5,0.4c0,0-0.1,0.1-0.2,0.1
			c-0.1,0-0.2,0.1-0.2,0.1c-0.7,0.5-1.6,1.1-2.4,1.7c-0.9,0.6-2,1.3-3.5,2.1c-0.2,0.1-0.4,0.2-0.5,0.3c-0.2,0.1-0.3,0.2-0.5,0.3
			c-0.7,0.4-1.5,0.7-2.3,0.9c-0.8,0.2-1.8,0.4-3,0.4c-2.1,0-3.9-0.6-5.2-1.7c-1.4-1.2-2-2.5-2-4.1c0-0.3,0-0.7,0.1-1
			c0.1-0.4,0.2-0.7,0.3-1c0.6-1.4,1.6-2.8,3-4.2c1.4-1.3,3-2.4,4.6-3.3c0.9-0.5,1.8-0.9,2.7-1.2C829.1,349.9,830,349.8,830.7,349.7
			L830.7,349.7z M829.2,353.6c0-0.3-0.1-0.5-0.1-0.6c-0.1-0.2-0.2-0.3-0.3-0.5c-0.1-0.1-0.3-0.2-0.6-0.2c-1.3,0-2.5,0.5-3.7,1.5
			c-1.1,1-2,2.1-2.5,3.3c-0.1,0.1-0.2,0.3-0.2,0.4c0,0.1-0.1,0.3-0.1,0.4c0.4,0,0.9-0.1,1.5-0.2c0.6-0.1,1.3-0.2,2-0.4
			c1-0.3,2-0.7,2.9-1.3C828.7,355.5,829.2,354.7,829.2,353.6L829.2,353.6z"/>
		<path d="M853.9,362l-1.5-2.5c-0.1-0.2-0.3-0.4-0.3-0.6c-0.1-0.2-0.1-0.4-0.1-0.7c0-0.5,0.9-1.8,2.7-4.1c1.8-2.3,3.9-4.7,6.3-7.4
			c0.1-0.1,0.2-0.2,0.3-0.3c0.1-0.1,0.2-0.2,0.3-0.4c2.2-2.2,3.9-4.5,4.9-6.9c1-2.4,1.5-4.9,1.5-7.4c0-2-0.4-3.4-1.3-4.3
			c-0.9-0.9-1.9-1.4-2.9-1.5c-0.1,0-0.2,0-0.3,0c-0.1,0-0.2,0-0.3,0c-0.5,0-0.9,0-1.2-0.1c-0.3-0.1-0.5-0.3-0.5-0.6c0,0,0-0.1,0-0.1
			c0-0.2,0.2-0.4,0.5-0.5c0.3-0.2,0.7-0.2,1.3-0.2c2.4,0,4.2,0.8,5.2,2.4c1.1,1.6,1.6,3.5,1.6,5.9c0,1.3-0.1,2.4-0.3,3.4
			c-0.2,1-0.4,1.8-0.6,2.5c0,0.1,0,0.2,0,0.3c0,0.1-0.1,0.2-0.1,0.3l0.3-0.1c1-0.8,2.2-1.7,3.6-2.9c1.3-1.1,2.8-2.3,4.4-3.4
			c1.7-1.2,3.4-2.4,5.3-3.6c1.8-1.2,3.7-2.2,5.6-3c1.5-0.7,3.1-1.3,4.6-1.7c1.5-0.4,3-0.6,4.4-0.6c2.4,0,4.1,0.6,5.3,1.8
			c1.1,1.2,1.7,2.6,1.8,4c0,0,0,0.1,0,0.1c0,0,0,0.1,0,0.1c0,2-0.8,3.8-2.2,5.3c-1.4,1.5-3,2.8-4.7,3.9c-1.8,1.1-3.4,1.9-4.9,2.5
			c-1.5,0.6-2.2,1-2.2,1.3c0,0.2,0.5,0.3,1.4,0.3c0.9,0,2.2,0.1,3.8,0.1c4.8,0,8.7,0.6,11.5,2c2.8,1.3,4.2,3.3,4.2,6.1
			c0,0.5,0,0.9,0,1.2c0,0.3-0.1,0.6-0.1,0.9l2-0.6l0.6-0.1c0.2,0,0.4,0.1,0.5,0.3c0.1,0.1,0.2,0.3,0.2,0.6c0,0.2-0.1,0.4-0.3,0.5
			c-0.2,0.2-0.4,0.3-0.8,0.4l-2.6,0.6c-0.3,0.8-0.8,1.7-1.4,2.6c-0.6,0.9-1.4,1.9-2.5,2.9c-0.1,0.1-0.2,0.2-0.3,0.3
			c-0.1,0.1-0.3,0.2-0.4,0.3c-1.6,1.5-3.4,2.8-5.2,3.9c-1.8,1.1-3.7,2.1-5.6,3c-3.2,1.5-6.3,2.6-9.3,3.3c-3,0.7-5.5,1-7.5,1
			c-3.4,0-6.1-0.4-8.1-1.2c-2-0.8-3-1.9-3-3.2c0-1,0.8-2.1,2.4-3.2c1.6-1.1,4.9-2.3,9.8-3.5l25.8-6.6c-0.2-2.5-1.4-4.1-3.7-4.9
			c-2.3-0.8-4.8-1.3-7.5-1.4c0,0-0.1,0-0.1,0c0,0-0.1,0-0.1,0c-0.6,0-1.1-0.1-1.6-0.1c-0.5,0-1.1,0-1.6,0c-2.2-0.1-4.1-0.3-5.6-0.5
			c-1.6-0.2-2.3-0.8-2.3-1.7c0-0.4,0.2-0.8,0.6-1.2c0.4-0.4,0.9-0.7,1.5-1.1c0.8-0.5,1.9-1,3.1-1.6c1.2-0.6,2.5-1.1,3.8-1.7
			c2.1-1.1,4.1-2.3,5.9-3.8c1.8-1.5,2.8-3.3,3-5.5c0-1.6-0.5-2.8-1.6-3.7c-1.1-0.9-2.3-1.3-3.8-1.3c-2.4,0-6.2,1.5-11.2,4.6
			c-5.1,3.1-11.4,9.6-18.8,19.6c-0.4,0.6-0.8,1.1-1.3,1.7c-0.4,0.6-0.9,1.2-1.4,1.9c-0.9,1.2-1.8,2.5-2.7,3.7
			c-0.9,1.3-1.7,2.6-2.4,3.9c-0.1,0.3-0.3,0.5-0.4,0.8c-0.1,0.2-0.3,0.4-0.4,0.6c-0.1,0.2-0.3,0.3-0.5,0.5c-0.2,0.1-0.4,0.2-0.6,0.2
			c-0.1,0-0.3,0-0.4-0.1c-0.1-0.1-0.3-0.2-0.3-0.3c-0.1-0.1-0.2-0.2-0.3-0.3C854.1,362.3,854,362.2,853.9,362L853.9,362z M905,356
			l-18.2,4.9c-6.6,1.9-10.9,3.4-12.9,4.6c-2.1,1.2-3.1,2.1-3.1,2.9c0,0.7,0.7,1.2,2,1.6c1.3,0.4,3.1,0.6,5.4,0.6
			c1.5,0,3.2-0.2,5.3-0.6c2-0.4,4.1-1,6.2-1.7c3.8-1.3,7.2-3,10.4-5.1C903.2,360.9,904.8,358.5,905,356L905,356z"/>
		<path d="M921.4,357.2l-3.1-1.8l-2,1.9c-0.1,0.1-0.2,0.2-0.3,0.3c-0.1,0.1-0.3,0.1-0.5,0.1c-0.2,0-0.3,0-0.4-0.1
			c-0.1-0.1-0.1-0.2-0.2-0.4c0-0.1,0-0.2,0.1-0.3s0.1-0.2,0.2-0.3c0,0,0.1,0,0.1-0.1c0,0,0.1-0.1,0.1-0.1c0.1-0.1,0.2-0.2,0.2-0.2
			c0.1-0.1,0.1-0.1,0.2-0.2l1.3-1.3c-0.1,0-0.3-0.2-0.4-0.3c-0.1-0.2-0.2-0.4-0.2-0.6c0-0.2,0.2-0.6,0.5-1.1c0.3-0.5,0.8-1,1.3-1.6
			c0.2-0.2,0.4-0.4,0.5-0.5s0.3-0.3,0.5-0.5c0.6-0.5,1.1-1,1.6-1.3c0.5-0.4,0.8-0.6,1.1-0.6c0.3,0,0.5,0.1,0.8,0.2
			c0.2,0.2,0.3,0.5,0.3,0.9c0,0.2,0,0.4-0.1,0.6c-0.1,0.2-0.2,0.4-0.3,0.6c-0.1,0.1-0.2,0.3-0.2,0.3c-0.1,0.1-0.2,0.2-0.2,0.4
			c-0.1,0.1-0.3,0.3-0.4,0.4c-0.1,0.1-0.2,0.3-0.3,0.3c1.3,0.7,2.3,1.4,3,1.8c0.7,0.5,1.1,0.9,1.3,1.3c0.1,0.1,0.1,0.3,0.2,0.4
			c0,0.1,0,0.3,0,0.4c0,0.5-0.2,1-0.5,1.3c-0.3,0.4-0.7,0.7-1,1c-0.1,0-0.2,0.1-0.2,0.1c0,0-0.1,0.1-0.1,0.1
			c-0.3,0.2-0.6,0.5-0.9,0.8c-0.3,0.3-0.4,0.6-0.4,1c0,0.6,0.3,1,0.8,1.4c0.5,0.4,1.1,0.7,1.7,0.8c0.2,0,0.4,0.1,0.6,0.1
			c0.2,0,0.4,0,0.6,0c0.3,0,0.6,0,0.8-0.1c0.3,0,0.6-0.1,0.8-0.2c0.7-0.2,1.3-0.5,2-0.9c0.7-0.4,1.3-0.8,1.9-1.2
			c0.8-0.6,1.5-1.1,2.1-1.6c0.6-0.5,1-0.7,1.2-0.7c0,0,0.1,0,0.1,0s0.1,0,0.1,0c0.1,0,0.2,0.1,0.2,0.1c0.1,0,0.1,0.1,0.1,0.3
			c0,0.2-0.4,0.7-1.3,1.6c-0.9,0.9-2,1.8-3.3,2.9c-0.6,0.5-1.1,0.9-1.7,1.3s-1.2,0.8-1.8,1.1c-0.8,0.5-1.6,0.8-2.3,1.1
			c-0.8,0.3-1.5,0.4-2.2,0.4c-0.6,0-1.1-0.1-1.5-0.3c-0.4-0.2-0.9-0.4-1.3-0.6c-0.1-0.1-0.2-0.2-0.2-0.2c0,0-0.1-0.1-0.2-0.1
			c-0.2-0.2-0.4-0.5-0.6-0.7c-0.2-0.2-0.3-0.4-0.5-0.7c-0.1-0.2-0.3-0.5-0.3-0.7c-0.1-0.2-0.1-0.4-0.1-0.6c0-0.2,0.1-0.5,0.2-0.7
			c0.2-0.2,0.4-0.5,0.6-0.7c0.2-0.1,0.4-0.3,0.6-0.5c0.2-0.2,0.4-0.3,0.7-0.5c0.5-0.4,1-0.8,1.4-1.2c0.4-0.3,0.6-0.7,0.6-0.9
			c0-0.1,0-0.2-0.1-0.3c0-0.1-0.1-0.2-0.2-0.3c0-0.1-0.1-0.2-0.3-0.3C921.7,357.4,921.6,357.3,921.4,357.2L921.4,357.2z"/>
		<path d="M936.6,362.9c0-0.4,0.1-0.8,0.2-1.2c0.1-0.4,0.3-0.9,0.5-1.4c0.9-1.7,2.3-3.3,4.4-4.9c2-1.5,4.2-2.5,6.6-3.1
			c0.5-0.1,1-0.2,1.5-0.2c0.5-0.1,1-0.1,1.5-0.1c0.7,0,1.2,0,1.5,0.1c0.3,0.1,0.7,0.2,0.9,0.2c0.1,0,0.2,0,0.2,0
			c0.1,0,0.1,0.1,0.2,0.1c0.2-0.7,0.4-1.3,0.7-1.9c0.3-0.6,0.8-0.9,1.5-0.9c0.5,0,0.9,0.2,1.2,0.6c0.3,0.4,0.5,0.8,0.5,1.4
			c0,0,0,0.2-0.1,0.5c0,0.3-0.1,0.5-0.1,0.9c0,0-0.1,0.1-0.1,0.1c0,0,0,0.1,0,0.1c0,0.3-0.1,0.5-0.1,0.8c0,0.3-0.1,0.5-0.1,0.6
			c0,0,0,0.1,0,0.1c0,0,0,0.1,0.1,0.1c0.1,0.1,0.2,0.3,0.5,0.4c0.2,0.1,0.4,0.3,0.7,0.6c0.3,0.3,0.5,0.7,0.8,1.2
			c0.3,0.5,0.4,1.1,0.4,1.8v1.8c0,0.4,0.1,0.7,0.2,0.9c0.1,0.2,0.3,0.3,0.6,0.3c0.4,0,0.8-0.1,1.4-0.4c0.6-0.3,1.1-0.5,1.7-0.9
			c0.2-0.1,0.3-0.2,0.5-0.3c0.1-0.1,0.3-0.2,0.4-0.3c0.7-0.4,1.4-0.8,2-1.2c0.6-0.4,0.9-0.6,1-0.6c0.1,0,0.2,0.1,0.3,0.2
			c0.1,0.1,0.1,0.3,0.2,0.4c0,0,0,0.1,0,0.1c0,0.1-0.4,0.6-1.3,1.3c-0.8,0.7-1.9,1.5-3.1,2.4c-0.5,0.3-1,0.6-1.5,0.9
			c-0.5,0.3-1,0.6-1.5,0.9c-0.9,0.6-1.8,1-2.8,1.3c-0.9,0.3-1.7,0.5-2.4,0.5c-0.7,0-1.3-0.2-1.8-0.6c-0.5-0.4-0.8-0.9-0.8-1.7
			c0-0.7,0.1-1.2,0.4-1.8c0.3-0.5,0.5-1,0.9-1.5c0.3-0.5,0.6-0.9,0.9-1.4c0.3-0.4,0.4-0.9,0.4-1.3c0-0.3-0.1-0.5-0.2-0.6
			c-0.1-0.1-0.3-0.2-0.5-0.2c-0.1,0-0.3,0.1-0.5,0.2c-0.2,0.1-0.3,0.3-0.5,0.4c0,0-0.1,0-0.1,0c0,0-0.1,0.1-0.1,0.1
			c-0.6,0.5-1.3,1-2.2,1.7c-0.8,0.7-1.7,1.4-2.7,2.1c-0.4,0.3-0.8,0.7-1.2,1c-0.4,0.3-0.8,0.6-1.3,0.9c-1.2,0.8-2.3,1.5-3.3,2
			c-1.1,0.5-2,0.8-2.9,0.8c-1,0-1.9-0.4-2.7-1C937,365,936.6,364.1,936.6,362.9L936.6,362.9z M946.9,361.7c0.8-0.3,1.6-0.8,2.5-1.4
			c0.5-0.3,1-0.7,1.5-1c0.5-0.4,1-0.7,1.4-1.1c0.5-0.5,0.9-0.9,1.3-1.4c0.3-0.5,0.5-0.9,0.5-1.3c0-0.6-0.1-1.1-0.3-1.5
			c-0.2-0.4-0.8-0.7-1.6-0.7c-1.9,0-3.5,0.4-4.9,1.2c-1.4,0.8-2.4,1.7-3.2,2.7c-0.4,0.5-0.7,1-0.9,1.5c-0.2,0.5-0.3,0.9-0.3,1.3
			c0,0.1,0,0.3,0.1,0.5c0,0.2,0.1,0.3,0.1,0.5c0.2,0.3,0.4,0.5,0.7,0.8c0.3,0.3,0.7,0.4,1.2,0.4C945.5,362.2,946.1,362,946.9,361.7z
			"/>
		<path d="M970,359.9c0-1.1,0.6-2.9,1.7-5.6c1.2-2.7,2.6-5.5,4.2-8.4c0.3-0.6,0.7-1.2,1-1.8c0.3-0.6,0.7-1.2,1-1.8
			c1.7-3,3.3-5.7,4.8-7.9c1.5-2.3,2.5-3.4,2.9-3.4c0.4,0,0.6,0.2,0.7,0.5c0.1,0.3,0.2,0.8,0.2,1.3c0,3.1-0.7,6-2.1,8.6
			c-1.4,2.6-3,5-4.6,7c-1.7,2.1-3.3,3.9-4.7,5.4c-1.4,1.5-2.1,2.7-2.1,3.5c0,0.3,0.2,0.7,0.5,1.1c0.3,0.4,0.8,0.9,1.3,1.3
			c0.4,0.4,0.9,0.7,1.5,1.1c0.6,0.4,1.1,0.7,1.6,1c0.7,0.4,1.4,0.7,2,0.9c0.7,0.2,1.2,0.3,1.7,0.3c1.6,0,2.8-0.5,3.5-1.5
			c0.7-1,1-2.1,1-3.3c-0.4,0-0.9,0-1.4-0.1c-0.5-0.1-1.1-0.2-1.6-0.3c-0.3,0-0.6-0.1-0.9-0.2c-0.3-0.1-0.6-0.2-0.9-0.4
			c-0.5-0.2-0.8-0.5-1.1-0.8c-0.3-0.3-0.4-0.6-0.4-1c0-0.1,0.1-0.4,0.2-0.8c0.1-0.4,0.3-0.8,0.6-1.3c0.2-0.5,0.5-0.9,0.8-1.3
			c0.3-0.4,0.7-0.7,1-0.8c0,0,0.1-0.1,0.2-0.1s0.1,0,0.2,0c0.5,0,1,0.3,1.5,0.8c0.6,0.5,1.2,1.1,1.8,1.7c0.4,0.5,0.9,0.9,1.3,1.3
			c0.5,0.4,0.9,0.7,1.4,1c0.2,0.1,0.4,0.2,0.6,0.2c0.2,0,0.4,0.1,0.6,0.1c0.3,0,0.5,0,0.8-0.1c0.2,0,0.5-0.1,0.7-0.1
			c0.2,0,0.3-0.1,0.5-0.1c0.1,0,0.3-0.1,0.3-0.1c0.1,0,0.2,0,0.3,0.1c0,0.1,0.1,0.2,0.1,0.2c0,0.2-0.1,0.4-0.4,0.6
			c-0.3,0.2-0.6,0.4-1.1,0.6c-0.1,0-0.2,0.1-0.3,0.2c-0.1,0.1-0.3,0.1-0.5,0.2c-0.4,0.1-0.8,0.3-1.4,0.4c-0.5,0.1-1.1,0.2-1.7,0.2
			c0.1,0.3,0.1,0.6,0.1,0.9c0,0.3,0,0.6,0,0.9c0,0.3-0.1,0.8-0.4,1.4c-0.3,0.6-0.6,1.2-1.2,1.8c-0.7,0.9-1.7,1.7-2.9,2.4
			c-1.3,0.7-2.8,1.1-4.6,1.1c-0.4,0-0.8,0-1.2-0.1c-0.4-0.1-0.9-0.2-1.3-0.3c-1.4-0.4-2.7-1.1-3.9-2.2
			C970.6,363.1,970,361.7,970,359.9L970,359.9z"/>
		<path d="M993.2,362.9c0-0.4,0.1-0.8,0.2-1.2c0.1-0.4,0.3-0.9,0.5-1.4c0.9-1.7,2.3-3.3,4.4-4.9c2-1.5,4.2-2.5,6.6-3.1
			c0.5-0.1,1-0.2,1.5-0.2c0.5-0.1,1-0.1,1.5-0.1c0.7,0,1.2,0,1.5,0.1c0.3,0.1,0.7,0.2,0.9,0.2c0.1,0,0.2,0,0.2,0
			c0.1,0,0.1,0.1,0.2,0.1c0.2-0.7,0.4-1.3,0.7-1.9c0.3-0.6,0.8-0.9,1.5-0.9c0.5,0,0.9,0.2,1.2,0.6s0.5,0.8,0.5,1.4
			c0,0,0,0.2-0.1,0.5c0,0.3-0.1,0.5-0.1,0.9c0,0-0.1,0.1-0.1,0.1c0,0,0,0.1,0,0.1c0,0.3-0.1,0.5-0.1,0.8c0,0.3-0.1,0.5-0.1,0.6
			c0,0,0,0.1,0,0.1c0,0,0,0.1,0.1,0.1c0.1,0.1,0.2,0.3,0.5,0.4c0.2,0.1,0.4,0.3,0.7,0.6c0.3,0.3,0.5,0.7,0.8,1.2
			c0.3,0.5,0.4,1.1,0.4,1.8v1.8c0,0.4,0.1,0.7,0.2,0.9c0.1,0.2,0.3,0.3,0.6,0.3c0.4,0,0.8-0.1,1.4-0.4c0.6-0.3,1.1-0.5,1.7-0.9
			c0.2-0.1,0.4-0.2,0.5-0.3c0.1-0.1,0.3-0.2,0.4-0.3c0.7-0.4,1.4-0.8,2-1.2c0.6-0.4,0.9-0.6,1-0.6c0.1,0,0.2,0.1,0.3,0.2
			c0.1,0.1,0.1,0.3,0.2,0.4c0,0,0,0.1,0,0.1c0,0.1-0.4,0.6-1.3,1.3c-0.8,0.7-1.9,1.5-3.1,2.4c-0.5,0.3-1,0.6-1.5,0.9
			c-0.5,0.3-1,0.6-1.5,0.9c-0.9,0.6-1.8,1-2.8,1.3c-0.9,0.3-1.7,0.5-2.4,0.5c-0.7,0-1.3-0.2-1.8-0.6c-0.5-0.4-0.8-0.9-0.8-1.7
			c0-0.7,0.1-1.2,0.4-1.8c0.3-0.5,0.5-1,0.9-1.5c0.3-0.5,0.6-0.9,0.9-1.4s0.4-0.9,0.4-1.3c0-0.3-0.1-0.5-0.2-0.6
			c-0.1-0.1-0.3-0.2-0.5-0.2c-0.1,0-0.3,0.1-0.5,0.2c-0.2,0.1-0.3,0.3-0.5,0.4c0,0-0.1,0-0.1,0c0,0-0.1,0.1-0.1,0.1
			c-0.6,0.5-1.3,1-2.2,1.7c-0.8,0.7-1.7,1.4-2.7,2.1c-0.4,0.3-0.8,0.7-1.2,1c-0.4,0.3-0.8,0.6-1.3,0.9c-1.2,0.8-2.3,1.5-3.3,2
			c-1.1,0.5-2,0.8-2.9,0.8c-1,0-1.9-0.4-2.7-1C993.5,365,993.2,364.1,993.2,362.9L993.2,362.9z M1003.4,361.7
			c0.8-0.3,1.6-0.8,2.5-1.4c0.5-0.3,1-0.7,1.5-1c0.5-0.4,1-0.7,1.4-1.1c0.5-0.5,0.9-0.9,1.3-1.4c0.3-0.5,0.5-0.9,0.5-1.3
			c0-0.6-0.1-1.1-0.3-1.5c-0.2-0.4-0.8-0.7-1.6-0.7c-1.9,0-3.5,0.4-4.9,1.2c-1.4,0.8-2.4,1.7-3.2,2.7c-0.4,0.5-0.7,1-0.9,1.5
			c-0.2,0.5-0.3,0.9-0.3,1.3c0,0.1,0,0.3,0.1,0.5c0,0.2,0.1,0.3,0.1,0.5c0.2,0.3,0.4,0.5,0.7,0.8c0.3,0.3,0.7,0.4,1.2,0.4
			C1002,362.2,1002.6,362,1003.4,361.7z"/>
		<path d="M1026.1,364.1c0-1.5,0.1-2.8,0.5-3.9c0.3-1.1,0.8-2.2,1.4-3.2c0.1-0.3,0.5-0.7,0.9-1.2c0.5-0.5,1.1-1.1,1.7-1.7
			c0.2-0.2,0.4-0.4,0.7-0.6c0.3-0.2,0.5-0.4,0.7-0.6c0.7-0.6,1.3-1,1.9-1.4c0.6-0.4,1.1-0.6,1.5-0.6c0.3,0,0.5,0.1,0.6,0.2
			c0.1,0.1,0.1,0.3,0.1,0.5c0,0.3-0.2,0.7-0.7,1.3c-0.5,0.6-1,1.3-1.6,2.1c-0.2,0.3-0.5,0.7-0.7,1.1c-0.2,0.4-0.4,0.8-0.6,1.2
			c-0.3,0.6-0.5,1.2-0.7,1.7c-0.2,0.5-0.3,1-0.3,1.4c0,0.2,0,0.4,0.1,0.6c0.1,0.2,0.2,0.3,0.4,0.3c0.1,0,0.3-0.1,0.6-0.2
			s0.5-0.4,0.7-0.6c0,0,0.1,0,0.1-0.1c0,0,0.1-0.1,0.1-0.1c0.2-0.2,0.4-0.4,0.6-0.6c0.2-0.2,0.3-0.3,0.4-0.4c0.4-0.4,1-0.8,1.6-1.4
			c0.7-0.6,1.3-1.2,2.1-1.8c0.3-0.3,0.7-0.5,1-0.8c0.3-0.3,0.7-0.5,1-0.8c0.8-0.6,1.6-1.1,2.4-1.5c0.8-0.4,1.5-0.6,2.1-0.6
			c0.9,0,1.5,0.5,1.8,1.5c0.3,1,0.5,2.1,0.6,3.2c0,0,0,0.1,0,0.1s0,0.1,0,0.1c0,0.1,0,0.2,0,0.3c0,0.1,0,0.2,0,0.3
			c0.1,1.7,0.3,2.9,0.6,3.5c0.3,0.6,0.7,0.9,1.4,0.9c0.3,0,0.8-0.1,1.3-0.5c0.5-0.3,1.1-0.7,1.7-1.1c0.1-0.1,0.2-0.2,0.3-0.2
			c0.1-0.1,0.2-0.2,0.3-0.2c0.7-0.5,1.3-0.9,1.8-1.3c0.5-0.4,0.9-0.6,1.1-0.6c0.2,0,0.4,0,0.5,0.1c0.1,0.1,0.1,0.2,0.1,0.4
			c0,0.2-0.4,0.7-1.2,1.4c-0.8,0.7-1.7,1.6-2.8,2.4c-0.3,0.2-0.7,0.5-1,0.7c-0.3,0.3-0.7,0.5-1,0.7c-0.3,0.2-0.6,0.4-0.9,0.6
			c-0.3,0.2-0.6,0.4-0.9,0.6c-0.1,0-0.2,0.1-0.3,0.2s-0.2,0.2-0.4,0.2c-0.4,0.2-0.8,0.4-1.2,0.6c-0.4,0.1-0.9,0.2-1.4,0.2
			c-0.7,0-1.2-0.3-1.6-0.9c-0.4-0.6-0.7-1.2-0.8-2c-0.1-0.4-0.2-0.8-0.2-1.2c0-0.4-0.1-0.7-0.1-1c0-0.3-0.1-0.6-0.1-0.8
			c0-0.3,0-0.5,0-0.8c-0.1-1.2-0.3-2-0.5-2.5s-0.6-0.7-1.1-0.7c0,0-0.1,0-0.2,0c-0.1,0-0.1,0-0.2,0c-0.6,0.1-1.3,0.5-2.2,1.2
			c-0.8,0.7-2.3,2-4.5,3.9c-1.4,1.3-2.8,2.5-4,3.5c-1.2,1-2.1,1.5-2.7,1.5c-0.4,0-0.7-0.2-0.9-0.6
			C1026.2,365.8,1026.1,365.1,1026.1,364.1L1026.1,364.1z"/>
		<path d="M1062,366.6c-0.5,0-1-0.2-1.5-0.4c-0.6-0.3-1.2-0.8-1.6-1.4c-0.5-0.7-0.7-1.7-0.7-3c0-2.1,0.9-4,2.8-5.7
			c1.9-1.7,4-3,6.2-3.8c1-0.4,2-0.7,3-0.9c1-0.2,1.9-0.3,2.7-0.3c0,0,0.2,0,0.4,0c0.2,0,0.5,0,0.8,0.1c0.3,0,0.6,0.1,0.9,0.3
			c0.3,0.1,0.4,0.3,0.4,0.6c0,0.3-0.1,0.6-0.2,0.7c-0.1,0.1-0.3,0.2-0.6,0.2c-0.1,0-0.2,0-0.3,0c-0.1,0-0.3-0.1-0.5-0.1
			c-0.1,0-0.3,0-0.5,0c-0.2,0-0.4,0-0.7,0c-0.5,0-1.1,0.1-1.7,0.3c-0.6,0.2-1.3,0.4-1.9,0.8c-1.2,0.6-2.3,1.4-3.4,2.4
			c-1.1,1-1.7,2.1-1.9,3.1c0,0.1-0.1,0.2-0.1,0.3c0,0.1,0,0.2,0,0.3s0,0.2,0,0.5c0,0.2,0.1,0.4,0.2,0.7c0.1,0.3,0.4,0.5,0.7,0.8
			c0.3,0.3,0.9,0.4,1.6,0.4c1.2,0,2.5-0.6,3.9-1.7c1.4-1.1,2.8-2.4,4.3-3.7c0.1-0.1,0.3-0.2,0.4-0.3c0.1-0.1,0.2-0.2,0.4-0.4
			c0.3-0.3,0.5-0.6,0.8-0.9c0.2-0.4,0.4-0.7,0.6-1.2c0.6-1.3,1.2-2.9,2-5c0.8-2.1,2-4.7,3.8-7.9c0.1-0.2,0.4-0.8,1-1.8
			c0.6-1,1.2-2.1,2-3.2c0.2-0.2,0.3-0.5,0.5-0.7c0.1-0.2,0.3-0.5,0.4-0.7c0.7-1,1.4-1.8,2-2.6c0.6-0.7,1.1-1.1,1.5-1.1
			c0.4,0,0.6,0.2,0.8,0.7c0.1,0.4,0.2,1,0.2,1.8c0,0.1,0,0.2,0,0.3c0,0.1,0,0.2,0,0.3c-0.1,1.9-0.6,3.8-1.6,5.7
			c-1,2-2.5,4.2-4.6,6.7c-0.3,0.3-0.6,0.6-0.8,0.9c-0.3,0.3-0.6,0.6-0.8,0.9c-1.2,1.3-2.2,2.7-3.1,4.2c-0.9,1.5-1.4,3.1-1.4,4.8
			c0,1.5,0.3,2.7,0.9,3.5c0.6,0.8,1.3,1.4,2.1,1.6c0.2,0.1,0.5,0.2,0.7,0.2c0.3,0,0.5,0.1,0.7,0.1c0.9,0,1.8-0.2,2.6-0.7
			c0.9-0.4,1.6-0.9,2.3-1.4c0.4-0.3,0.7-0.6,1.1-0.8c0.3-0.3,0.6-0.5,0.9-0.7c0,0,0.1,0,0.1,0c0,0,0.1-0.1,0.1-0.1
			c0,0,0-0.1,0.1-0.1c0,0,0.1-0.1,0.2-0.1c0,0,0.1-0.1,0.2-0.1c0.1,0,0.2,0,0.2,0c0.1,0,0.3,0.1,0.4,0.2c0.1,0.1,0.2,0.3,0.2,0.5
			c0,0,0,0.1-0.1,0.2c0,0.1-0.1,0.2-0.1,0.2c0,0.1-0.1,0.2-0.1,0.2c0,0-0.1,0.1-0.1,0.1c0,0-0.1,0.1-0.1,0.1
			c-0.4,0.4-0.9,0.8-1.5,1.3c-0.6,0.5-1.3,1-2,1.6c-0.7,0.5-1.3,1-2,1.5c-0.7,0.5-1.4,0.9-2.1,1.3c-0.6,0.3-1.2,0.5-1.8,0.7
			c-0.6,0.2-1.2,0.3-1.7,0.3c-0.3,0-0.6,0-0.9-0.1s-0.7-0.1-1-0.3c-0.7-0.3-1.4-0.8-2.1-1.6c-0.6-0.8-0.9-1.9-0.9-3.4
			c0-0.4,0-0.9,0.1-1.5c0.1-0.6,0.2-1.2,0.3-1.8l-0.1-0.2c-0.5,0.5-1,1.1-1.7,1.8c-0.7,0.7-1.4,1.5-2.3,2.2
			c-0.5,0.6-1.1,1.1-1.7,1.6c-0.6,0.5-1.2,1-1.8,1.4c-0.7,0.6-1.5,1-2.3,1.3c-0.8,0.3-1.5,0.5-2.2,0.5
			C1062.8,366.7,1062.5,366.7,1062,366.6z"/>
		<path d="M1106.1,349.7c0.7,0,1.3,0.3,1.8,0.8c0.5,0.5,0.8,1.1,0.8,1.8c0,2-1.1,3.5-3.4,4.6c-2.3,1.1-5.1,1.8-8.5,2.2
			c0.2,0.9,0.6,1.6,1.3,2s1.3,0.8,2.1,1c0.7,0.2,1.3,0.3,1.9,0.3c0.6,0,1,0,1.3,0c0,0,0.1,0,0.1,0c1.3,0,2.5-0.2,3.6-0.6
			c1.1-0.4,2.2-0.8,3.1-1.3c0.9-0.4,1.6-0.8,2.2-1.2c0.6-0.4,1-0.6,1.1-0.6c0.2,0,0.4,0.1,0.4,0.2c0,0.1,0,0.2,0,0.4
			c0,0.1,0,0.2-0.1,0.3c0,0.1-0.1,0.2-0.1,0.3c-0.1,0.1-0.2,0.3-0.4,0.4c-0.1,0.1-0.3,0.3-0.5,0.4c0,0-0.1,0.1-0.2,0.1
			c-0.1,0-0.2,0.1-0.2,0.1c-0.7,0.5-1.6,1.1-2.4,1.7c-0.9,0.6-2,1.3-3.5,2.1c-0.2,0.1-0.4,0.2-0.5,0.3c-0.2,0.1-0.3,0.2-0.5,0.3
			c-0.7,0.4-1.5,0.7-2.3,0.9c-0.8,0.2-1.8,0.4-3,0.4c-2.1,0-3.9-0.6-5.2-1.7c-1.4-1.2-2-2.5-2-4.1c0-0.3,0-0.7,0.1-1
			c0.1-0.4,0.2-0.7,0.3-1c0.6-1.4,1.6-2.8,3-4.2c1.4-1.3,3-2.4,4.6-3.3c0.9-0.5,1.8-0.9,2.7-1.2
			C1104.5,349.9,1105.3,349.8,1106.1,349.7L1106.1,349.7z M1104.5,353.6c0-0.3-0.1-0.5-0.1-0.6c-0.1-0.2-0.2-0.3-0.4-0.5
			c-0.1-0.1-0.4-0.2-0.6-0.2c-1.3,0-2.5,0.5-3.7,1.5c-1.1,1-2,2.1-2.5,3.3c-0.1,0.1-0.2,0.3-0.2,0.4c0,0.1-0.1,0.3-0.1,0.4
			c0.4,0,0.9-0.1,1.5-0.2c0.6-0.1,1.3-0.2,2-0.4c1-0.3,2-0.7,2.9-1.3C1104.1,355.5,1104.5,354.7,1104.5,353.6L1104.5,353.6z"/>
		<path d="M1121.6,357.2l-3.1-1.8l-2,1.9c-0.1,0.1-0.2,0.2-0.4,0.3c-0.1,0.1-0.3,0.1-0.5,0.1c-0.2,0-0.3,0-0.4-0.1
			c-0.1-0.1-0.1-0.2-0.2-0.4c0-0.1,0-0.2,0.1-0.3s0.1-0.2,0.2-0.3c0,0,0.1,0,0.1-0.1c0,0,0.1-0.1,0.1-0.1c0.1-0.1,0.2-0.2,0.2-0.2
			c0.1-0.1,0.1-0.1,0.2-0.2l1.3-1.3c-0.1,0-0.3-0.2-0.4-0.3c-0.1-0.2-0.2-0.4-0.2-0.6c0-0.2,0.2-0.6,0.5-1.1c0.3-0.5,0.8-1,1.3-1.6
			c0.2-0.2,0.4-0.4,0.5-0.5s0.3-0.3,0.5-0.5c0.6-0.5,1.1-1,1.6-1.3c0.5-0.4,0.8-0.6,1.1-0.6c0.3,0,0.5,0.1,0.8,0.2
			c0.2,0.2,0.3,0.5,0.3,0.9c0,0.2,0,0.4-0.1,0.6c-0.1,0.2-0.2,0.4-0.3,0.6c-0.1,0.1-0.2,0.3-0.2,0.3c-0.1,0.1-0.2,0.2-0.2,0.4
			c-0.1,0.1-0.3,0.3-0.4,0.4c-0.1,0.1-0.2,0.3-0.3,0.3c1.3,0.7,2.3,1.4,3,1.8c0.7,0.5,1.1,0.9,1.3,1.3c0.1,0.1,0.2,0.3,0.2,0.4
			c0,0.1,0,0.3,0,0.4c0,0.5-0.2,1-0.5,1.3c-0.3,0.4-0.7,0.7-1,1c-0.1,0-0.2,0.1-0.2,0.1c0,0-0.1,0.1-0.1,0.1
			c-0.3,0.2-0.6,0.5-0.9,0.8c-0.3,0.3-0.4,0.6-0.4,1c0,0.6,0.3,1,0.8,1.4c0.5,0.4,1.1,0.7,1.7,0.8c0.2,0,0.4,0.1,0.6,0.1
			c0.2,0,0.4,0,0.6,0c0.3,0,0.6,0,0.8-0.1c0.3,0,0.6-0.1,0.8-0.2c0.6-0.2,1.3-0.5,2-0.9c0.6-0.4,1.3-0.8,1.9-1.2
			c0.8-0.6,1.5-1.1,2.1-1.6c0.6-0.5,1-0.7,1.2-0.7c0,0,0.1,0,0.1,0c0,0,0.1,0,0.1,0c0.1,0,0.2,0.1,0.2,0.1c0.1,0,0.1,0.1,0.1,0.3
			c0,0.2-0.4,0.7-1.3,1.6c-0.9,0.9-2,1.8-3.3,2.9c-0.6,0.5-1.1,0.9-1.7,1.3s-1.2,0.8-1.8,1.1c-0.8,0.5-1.6,0.8-2.3,1.1
			c-0.8,0.3-1.5,0.4-2.2,0.4c-0.6,0-1.1-0.1-1.5-0.3c-0.4-0.2-0.9-0.4-1.3-0.6c-0.1-0.1-0.2-0.2-0.2-0.2c0,0-0.1-0.1-0.2-0.1
			c-0.2-0.2-0.4-0.5-0.6-0.7c-0.2-0.2-0.3-0.4-0.5-0.7c-0.1-0.2-0.3-0.5-0.3-0.7c-0.1-0.2-0.1-0.4-0.1-0.6c0-0.2,0.1-0.5,0.2-0.7
			c0.2-0.2,0.4-0.5,0.6-0.7c0.2-0.1,0.4-0.3,0.6-0.5c0.2-0.2,0.4-0.3,0.7-0.5c0.5-0.4,1-0.8,1.4-1.2c0.4-0.3,0.6-0.7,0.6-0.9
			c0-0.1,0-0.2-0.1-0.3c0-0.1-0.1-0.2-0.2-0.3c0-0.1-0.1-0.2-0.3-0.3C1121.9,357.4,1121.7,357.3,1121.6,357.2L1121.6,357.2z"/>
	</g>
	<rect x="549.4" y="294.6" style="fill:#D6B98D;" width="597.6" height="7.5"/>
	<g>
		<path d="M730.7,450.2c-1.3,0.5-3.9,1.4-7.4,1.4c-3.3,0-6.4-0.9-8.9-3.3c-2.1-2.1-3.5-5.5-3.5-9.5c0-7,4.6-12.9,13.2-12.9
			c2.7,0,4.9,0.6,5.9,1.1l-0.6,1.5c-1.3-0.6-3-1.1-5.4-1.1c-6.9,0-11.2,4.5-11.2,11.3c0,7.1,4.2,11.3,10.8,11.3
			c2.7,0,4.3-0.4,5.3-0.9v-8.9h-5.8v-1.5h7.6V450.2z"/>
		<path d="M752.4,442.2c0,6.7-4.6,9.6-8.6,9.6c-4.6,0-8.2-3.6-8.2-9.2c0-6.1,4-9.5,8.5-9.5C749.1,433,752.4,436.7,752.4,442.2z
			 M737.4,442.4c0,4.5,2.9,7.9,6.5,7.9c3.7,0,6.7-3.4,6.7-8c0-3.3-1.8-7.8-6.6-7.8C739.5,434.5,737.4,438.6,737.4,442.4z"/>
		<path d="M771.6,447c0,1.6,0,3,0.2,4.4h-1.7l-0.1-3.2h-0.1c-0.9,1.7-3,3.6-6.1,3.6c-2.3,0-6.1-1.2-6.1-7.9v-10.4h1.8v10.1
			c0,3.9,1.2,6.7,4.7,6.7c2.6,0,4.5-1.8,5.3-3.6c0.2-0.6,0.3-1.3,0.3-2v-11.2h1.8V447z"/>
		<path d="M792.8,424.8v22.4c0,1.3,0,2.9,0.1,4.2h-1.6l-0.2-3.4h-0.1c-0.9,2-3.1,3.8-6.4,3.8c-4.4,0-7.7-3.7-7.7-9
			c0-6,3.7-9.7,8.1-9.7c3.1,0,5.1,1.6,5.9,3.2h0.1v-11.4H792.8z M791,440.5c0-0.5,0-1.2-0.2-1.6c-0.6-2.4-2.7-4.4-5.6-4.4
			c-3.9,0-6.4,3.4-6.4,8c0,4,2,7.7,6.3,7.7c2.6,0,5-1.7,5.8-4.7c0.1-0.5,0.2-0.9,0.2-1.5V440.5z"/>
		<path d="M798.4,449c1,0.6,2.4,1.2,4,1.2c2.8,0,4.2-1.5,4.2-3.4c0-2-1.2-3-3.8-4.1c-3-1.1-4.6-2.7-4.6-4.9c0-2.6,2.1-4.9,5.5-4.9
			c1.6,0,3.1,0.5,4,1.1l-0.7,1.5c-0.6-0.5-1.8-1.1-3.6-1.1c-2.3,0-3.5,1.5-3.5,3.1c0,1.9,1.3,2.7,3.7,3.7c2.9,1.1,4.6,2.6,4.6,5.3
			c0,3.1-2.4,5.1-6.1,5.1c-1.7,0-3.4-0.5-4.6-1.2L798.4,449z"/>
		<path d="M813.5,437.7c0-1.6,0-2.9-0.1-4.3h1.7l0.1,3.2h0.1c1.2-2.1,2.9-3.6,5.8-3.6c2.5,0,4.4,1.6,5.2,3.9h0.1
			c0.5-1.1,1.2-1.9,1.8-2.4c1.2-1,2.4-1.5,4.3-1.5c1.8,0,5.9,1,5.9,7.8v10.6h-1.8V441c0-4-1.6-6.4-4.7-6.4c-2.2,0-4,1.6-4.7,3.6
			c-0.2,0.5-0.3,1.1-0.3,1.8v11.5H825v-11.2c0-3.3-1.5-5.6-4.4-5.6c-2.4,0-4.3,1.9-5,4c-0.2,0.5-0.3,1.1-0.3,1.7v11.1h-1.8V437.7z"
			/>
		<path d="M847,428.3c0,0.8-0.6,1.5-1.5,1.5c-0.8,0-1.4-0.7-1.4-1.5c0-0.8,0.6-1.6,1.5-1.6C846.4,426.7,847,427.4,847,428.3z
			 M844.6,451.3v-17.9h1.8v17.9H844.6z"/>
		<path d="M867.5,424.8v22.4c0,1.3,0,2.9,0.1,4.2H866l-0.2-3.4h-0.1c-0.9,2-3.1,3.8-6.4,3.8c-4.4,0-7.7-3.7-7.7-9
			c0-6,3.7-9.7,8.1-9.7c3.1,0,5.1,1.6,5.9,3.2h0.1v-11.4H867.5z M865.7,440.5c0-0.5,0-1.2-0.2-1.6c-0.6-2.4-2.7-4.4-5.6-4.4
			c-3.9,0-6.4,3.4-6.4,8c0,4,2,7.7,6.3,7.7c2.6,0,5-1.7,5.8-4.7c0.1-0.5,0.2-0.9,0.2-1.5V440.5z"/>
		<path d="M881.6,440.3v1.6h-8.9v-1.6H881.6z"/>
		<path d="M897.4,447.1c0,1.4,0,2.9,0.3,4.3H896l-0.3-2.6h-0.1c-0.9,1.4-2.9,3-5.8,3c-3.6,0-5.3-2.5-5.3-4.9c0-4.2,3.6-6.7,11-6.6
			v-0.5c0-1.8-0.3-5.3-4.6-5.3c-1.6,0-3.2,0.4-4.5,1.3l-0.6-1.3c1.6-1.1,3.7-1.5,5.3-1.5c5.2,0,6.2,3.9,6.2,7.1V447.1z M895.6,441.7
			c-3.9-0.1-9.1,0.5-9.1,4.8c0,2.6,1.7,3.7,3.6,3.7c3,0,4.7-1.8,5.3-3.6c0.1-0.4,0.2-0.8,0.2-1.1V441.7z"/>
		<path d="M906,429.4v4h5.1v1.5H906v11.7c0,2.3,0.7,3.7,2.6,3.7c0.9,0,1.6-0.1,2.1-0.3l0.2,1.3c-0.6,0.3-1.4,0.4-2.5,0.4
			c-1.3,0-2.4-0.4-3.1-1.3c-0.8-0.9-1.1-2.5-1.1-4.3v-11.3h-3v-1.5h3v-3.3L906,429.4z"/>
		<path d="M915.4,442.2c0,5.7,3.1,8,6.8,8c2.6,0,4-0.5,5-1l0.5,1.4c-0.7,0.4-2.5,1.2-5.6,1.2c-5.2,0-8.4-3.7-8.4-9
			c0-6,3.4-9.7,8.1-9.7c5.9,0,7,5.5,7,8.1c0,0.5,0,0.7-0.1,1.1H915.4z M926.9,440.8c0-2.5-1-6.3-5.3-6.3c-4,0-5.7,3.5-6,6.3H926.9z"
			/>
		<path d="M933.9,424.8h1.8v26.5h-1.8V424.8z"/>
		<path d="M944.6,428.3c0,0.8-0.6,1.5-1.5,1.5c-0.8,0-1.4-0.7-1.4-1.5c0-0.8,0.6-1.6,1.5-1.6C944,426.7,944.6,427.4,944.6,428.3z
			 M942.3,451.3v-17.9h1.8v17.9H942.3z"/>
		<path d="M951.1,442.2c0,5.7,3.1,8,6.8,8c2.6,0,4-0.5,5-1l0.5,1.4c-0.7,0.4-2.5,1.2-5.6,1.2c-5.2,0-8.4-3.7-8.4-9
			c0-6,3.4-9.7,8.1-9.7c5.9,0,7,5.5,7,8.1c0,0.5,0,0.7-0.1,1.1H951.1z M962.6,440.8c0-2.5-1-6.3-5.3-6.3c-4,0-5.7,3.5-6,6.3H962.6z"
			/>
		<path d="M969.5,438.8c0-1.8,0-3.6-0.2-5.4h1.6l0.1,3.6h0.1c0.8-2.2,2.7-4,5.1-4c0.3,0,0.5,0,0.7,0.1v1.7c-0.3-0.1-0.5-0.1-0.9-0.1
			c-2.5,0-4.2,2.1-4.7,5c-0.1,0.5-0.1,1.1-0.1,1.7v9.9h-1.8V438.8z"/>
		<path d="M759.3,488.7c0,8.7-3.1,12.9-8,12.9c-3.8,0-7.3-3.7-7.4-12.4c0-8.8,3.9-12.7,8-12.7C756.2,476.5,759.3,480.3,759.3,488.7z
			 M745.8,489.2c0,6.8,2.3,10.9,5.8,10.9c4.1,0,5.9-4.6,5.9-11.2c0-6.4-1.7-10.9-5.9-10.9C748.3,478,745.8,482,745.8,489.2z"/>
		<path d="M774.2,501.2v-7.1h-11.6v-1.2l11.9-16h1.5v15.7h3.7v1.5h-3.7v7.1H774.2z M774.2,492.6v-9.8c0-1.2,0-2.3,0.1-3.4l-0.1,0
			c-0.7,1.4-1.3,2.2-1.9,3.1l-7.6,10.1v0.1H774.2z"/>
		<path d="M783.8,500c0.7,0.1,1.6,0,2.8-0.2c2-0.3,3.8-1.3,5.3-2.8c1.6-1.7,2.8-4.2,3.3-7.7l-0.1,0c-1.5,2-3.7,3.1-6.3,3.1
			c-4.6,0-7-3.6-7-7.4c0-4.5,3.1-8.6,7.8-8.6c4.2,0,7.3,3.6,7.3,10.1c0,5.5-1.9,9.3-4.2,11.5c-1.6,1.6-3.8,2.8-5.7,3.1
			c-1.3,0.3-2.5,0.4-3.3,0.3V500z M783.6,484.9c0,3.6,2.2,5.9,5.5,5.9c2.6,0,4.7-1.3,5.8-3.1c0.2-0.3,0.3-0.6,0.3-1.1
			c0-5.1-1.9-8.7-5.9-8.7C785.9,478,783.6,480.9,783.6,484.9z"/>
		<path d="M814.3,476.9v1.3l-11,23h-1.8l10.8-22.7v-0.1h-12.3v-1.5H814.3z"/>
		<path d="M813.1,502.7l11.9-27.1h1.8l-12,27.1H813.1z"/>
		<path d="M841.8,478.5h-9.2l-1.2,7.8c0.6-0.1,1.2-0.1,2.2-0.1c1.6,0,3.1,0.3,4.5,1c1.9,0.9,3.8,3.1,3.8,6.3c0,4.9-3.7,8.1-8.2,8.1
			c-2.5,0-4.6-0.8-5.6-1.6l0.7-1.4c0.9,0.6,2.8,1.5,5,1.5c3.5,0,6.3-2.6,6.3-6.3c0-3.5-2.2-6.2-7-6.2c-1.5,0-2.6,0.1-3.5,0.3l1.6-11
			h10.5V478.5z"/>
		<path d="M861.9,488.7c0,8.7-3.1,12.9-8,12.9c-3.8,0-7.3-3.7-7.4-12.4c0-8.8,3.9-12.7,8-12.7C858.7,476.5,861.9,480.3,861.9,488.7z
			 M848.3,489.2c0,6.8,2.3,10.9,5.8,10.9c4.1,0,5.9-4.6,5.9-11.2c0-6.4-1.7-10.9-5.9-10.9C850.8,478,848.3,482,848.3,489.2z"/>
		<path d="M865.9,499.9c0-1,0.6-1.7,1.5-1.7c0.9,0,1.5,0.7,1.5,1.7c0,0.9-0.6,1.7-1.6,1.7C866.5,501.6,865.8,500.8,865.9,499.9z"/>
		<path d="M887.9,488.7c0,8.7-3.1,12.9-8,12.9c-3.8,0-7.3-3.7-7.4-12.4c0-8.8,3.9-12.7,8-12.7C884.8,476.5,887.9,480.3,887.9,488.7z
			 M874.4,489.2c0,6.8,2.3,10.9,5.8,10.9c4.1,0,5.9-4.6,5.9-11.2c0-6.4-1.7-10.9-5.9-10.9C876.9,478,874.4,482,874.4,489.2z"/>
		<path d="M905.1,478.1c-0.7,0-1.6,0-2.7,0.3c-5.2,1.1-8.2,5.6-8.7,10.4h0.1c1.1-1.8,3.3-3.4,6.3-3.4c4.4,0,7.2,3.3,7.2,7.8
			c0,4.2-2.6,8.4-7.6,8.4c-4.4,0-7.9-3.6-7.9-10.2c0-4.9,1.7-8.7,4-11c1.7-1.8,4.2-3.1,6.8-3.6c0.9-0.2,1.8-0.3,2.4-0.3V478.1z
			 M905.5,493.3c0-4.3-2.5-6.4-5.8-6.4c-2.3,0-4.5,1.4-5.6,3.5c-0.2,0.4-0.4,0.9-0.4,1.4c0,4.9,2.2,8.3,6.2,8.3
			C903.2,500.1,905.5,497.4,905.5,493.3z"/>
		<path d="M911.6,499.9c0-1,0.6-1.7,1.5-1.7c0.9,0,1.5,0.7,1.5,1.7c0,0.9-0.6,1.7-1.6,1.7C912.2,501.6,911.6,500.8,911.6,499.9z"/>
		<path d="M919.5,498.5c0.9,0.6,2.9,1.5,5.2,1.5c5,0,6.2-3.4,6.1-5.6c0-4.1-3.6-5.7-7.2-5.7h-1.5v-1.5h1.6c2.7,0,6.1-1.5,6.1-4.9
			c0-2.2-1.3-4.3-4.7-4.3c-1.9,0-3.6,0.9-4.7,1.7l-0.7-1.3c1.2-0.9,3.4-1.9,5.6-1.9c4.6,0,6.3,2.9,6.3,5.6c0,2.5-1.6,4.6-4.5,5.8
			v0.1c3,0.6,5.5,2.9,5.5,6.4c0,3.6-2.6,7.2-8.2,7.2c-2.5,0-4.7-0.9-5.7-1.6L919.5,498.5z"/>
		<path d="M950.3,478.1c-0.7,0-1.6,0-2.7,0.3c-5.2,1.1-8.2,5.6-8.7,10.4h0.1c1.1-1.8,3.3-3.4,6.3-3.4c4.4,0,7.2,3.3,7.2,7.8
			c0,4.2-2.6,8.4-7.6,8.4c-4.4,0-7.9-3.6-7.9-10.2c0-4.9,1.7-8.7,4-11c1.7-1.8,4.2-3.1,6.8-3.6c0.9-0.2,1.8-0.3,2.4-0.3V478.1z
			 M950.7,493.3c0-4.3-2.5-6.4-5.8-6.4c-2.3,0-4.5,1.4-5.6,3.5c-0.2,0.4-0.4,0.9-0.4,1.4c0,4.9,2.2,8.3,6.2,8.3
			C948.4,500.1,950.7,497.4,950.7,493.3z"/>
		<path d="M639.5,557.4c1.6-0.1,2.9-0.6,3.7-1.5c0.9-1.1,1.3-2.5,1.3-7.3v-15.5h1.8v16.7c0,3.2-0.4,5.4-1.9,7.1
			c-1.3,1.4-3.6,1.9-4.7,1.9L639.5,557.4z M646.9,528c0,0.8-0.5,1.5-1.5,1.5c-0.8,0-1.4-0.7-1.4-1.5c0-0.8,0.6-1.6,1.5-1.6
			C646.3,526.4,646.9,527.2,646.9,528z"/>
		<path d="M666.6,546.7c0,1.6,0,3,0.2,4.4h-1.7l-0.1-3.2h-0.1c-0.9,1.7-3,3.6-6.1,3.6c-2.3,0-6.1-1.2-6.1-7.9v-10.4h1.8v10.1
			c0,3.9,1.2,6.7,4.7,6.7c2.6,0,4.5-1.8,5.3-3.6c0.2-0.6,0.3-1.3,0.3-2v-11.2h1.8V546.7z"/>
		<path d="M673,533.1l3,10.2c0.6,2.1,1.1,3.9,1.5,5.6h0.1c0.5-1.6,1.1-3.6,1.8-5.6l3.6-10.2h1.7l3.4,10.1c0.7,2.2,1.3,4,1.8,5.7h0.1
			c0.4-1.7,0.9-3.5,1.6-5.6l3.2-10.2h1.8l-6,17.9h-1.5l-3.4-10c-0.7-2.2-1.4-4.1-1.9-6.1h-0.1c-0.5,2.1-1.2,4.1-1.9,6.2l-3.6,9.9
			h-1.6l-5.5-17.9H673z"/>
		<path d="M701.1,541.9c0,5.7,3.1,8,6.8,8c2.6,0,4-0.5,5-1l0.4,1.4c-0.7,0.4-2.5,1.2-5.6,1.2c-5.2,0-8.4-3.7-8.4-9
			c0-6,3.4-9.7,8.1-9.7c5.9,0,7,5.5,7,8.1c0,0.5,0,0.7-0.1,1.1H701.1z M712.5,540.5c0-2.5-1-6.3-5.3-6.3c-4,0-5.7,3.5-6,6.3H712.5z"
			/>
		<path d="M719.6,524.5h1.8V551h-1.8V524.5z"/>
		<path d="M728.5,541.9c0,5.7,3.1,8,6.8,8c2.6,0,4-0.5,5-1l0.4,1.4c-0.7,0.4-2.5,1.2-5.6,1.2c-5.2,0-8.4-3.7-8.4-9
			c0-6,3.4-9.7,8.1-9.7c5.9,0,7,5.5,7,8.1c0,0.5,0,0.7-0.1,1.1H728.5z M740,540.5c0-2.5-1-6.3-5.3-6.3c-4,0-5.7,3.5-6,6.3H740z"/>
		<path d="M747,537.4c0-1.6,0-2.9-0.1-4.3h1.7l0.1,3.3h0.1c1-2,3.3-3.7,6.2-3.7c1.7,0,6.3,0.9,6.3,7.6V551h-1.8v-10.6
			c0-3.3-1.3-6.2-5-6.2c-2.5,0-4.7,1.8-5.4,4.1c-0.1,0.4-0.2,1-0.2,1.6V551H747V537.4z"/>
		<path d="M783.2,541.9c0,6.7-4.6,9.6-8.6,9.6c-4.6,0-8.2-3.6-8.2-9.2c0-6.1,4-9.5,8.5-9.5C779.8,532.7,783.2,536.4,783.2,541.9z
			 M768.1,542.1c0,4.5,2.9,7.9,6.5,7.9c3.7,0,6.7-3.4,6.7-8c0-3.3-1.8-7.8-6.6-7.8C770.2,534.2,768.1,538.3,768.1,542.1z"/>
		<path d="M788.5,538.5c0-1.8,0-3.6-0.2-5.4h1.6l0.1,3.6h0.1c0.8-2.2,2.7-4,5.1-4c0.3,0,0.5,0,0.7,0.1v1.7c-0.3-0.1-0.5-0.1-0.9-0.1
			c-2.5,0-4.2,2.1-4.7,5c-0.1,0.5-0.1,1.1-0.1,1.7v9.9h-1.8V538.5z"/>
		<path d="M811.7,546.8c0,1.4,0,2.9,0.3,4.3h-1.6l-0.3-2.6H810c-0.9,1.4-2.9,3-5.8,3c-3.6,0-5.3-2.5-5.3-4.9c0-4.2,3.6-6.7,11-6.6
			v-0.5c0-1.8-0.3-5.3-4.6-5.3c-1.6,0-3.2,0.4-4.5,1.3l-0.6-1.3c1.6-1.1,3.7-1.5,5.3-1.5c5.2,0,6.2,3.9,6.2,7.1V546.8z M809.9,541.4
			c-3.9-0.1-9.1,0.5-9.1,4.8c0,2.6,1.7,3.7,3.6,3.7c3,0,4.7-1.8,5.3-3.6c0.1-0.4,0.2-0.8,0.2-1.1V541.4z"/>
		<path d="M818,538.8c0-2.2,0-4-0.2-5.7h1.7l0.1,3.4h0.1c1.3-2.4,3.5-3.8,6.6-3.8c4.6,0,7.7,3.8,7.7,9.1c0,6.4-3.8,9.7-8.2,9.7
			c-2.6,0-4.9-1.2-6.1-3.3h-0.1v10.3H818V538.8z M819.8,544c0,0.5,0,1,0.1,1.4c0.7,2.8,3.1,4.6,5.9,4.6c4.1,0,6.5-3.3,6.5-8.1
			c0-4-2.2-7.7-6.3-7.7c-2.6,0-5.2,1.8-5.9,4.7c-0.1,0.5-0.3,1-0.3,1.5V544z"/>
		<path d="M839.5,524.5h1.8v11.8h0.1c0.5-1,1.4-2,2.4-2.6c1-0.7,2.3-1,3.6-1c1.7,0,6.2,0.9,6.2,7.6V551h-1.8v-10.6
			c0-3.3-1.3-6.2-4.9-6.2c-2.5,0-4.6,1.8-5.4,4c-0.2,0.6-0.2,1-0.2,1.8v11h-1.8V524.5z"/>
		<path d="M862.4,528c0,0.8-0.6,1.5-1.5,1.5c-0.8,0-1.4-0.7-1.4-1.5c0-0.8,0.6-1.6,1.5-1.6C861.8,526.4,862.4,527.1,862.4,528z
			 M860.1,551v-17.9h1.8V551H860.1z"/>
		<path d="M884.7,553.4c-1.9,1.1-4.1,1.6-6.5,1.6c-6.1,0-11.1-4.5-11.1-11.7c0-7.7,5.2-14.4,13.5-14.4c6.5,0,10.6,4.6,10.6,10.8
			c0,5.7-3.2,8.9-6.4,8.9c-1.3,0-2.8-1-2.5-3.5h-0.2c-1.4,2.4-3.2,3.5-5.6,3.5c-2,0-3.9-1.7-3.9-4.6c0-4.7,3.9-9,8.9-9
			c1.6,0,2.8,0.3,3.7,0.7l-1.3,6.7c-0.7,3.3-0.1,4.7,1.2,4.7c2.1,0.1,4.3-2.8,4.3-7.1c0-5.8-3.3-9.8-9.2-9.8
			c-6.3,0-11.5,5-11.5,12.9c0,6.2,4.2,10.3,9.6,10.3c2.3,0,4.3-0.5,5.8-1.4L884.7,553.4z M883.5,536.8c-0.4-0.2-1.2-0.4-2.3-0.4
			c-3.8,0-6.9,3.5-6.9,7.7c0,1.8,1,3.1,2.9,3.1c2.6,0,4.9-3.4,5.4-5.8L883.5,536.8z"/>
		<path d="M910.9,548.4c0,4.6-1,6.9-2.5,8.3c-1.6,1.6-4.1,2.1-6.1,2.1c-2.1,0-4.3-0.5-5.7-1.6l0.6-1.4c1.3,0.8,3,1.5,5.3,1.5
			c3.8,0,6.5-1.9,6.5-7.3v-2.5H909c-0.9,1.8-3,3.5-6.2,3.5c-4.5,0-7.7-3.9-7.7-8.8c0-6.2,4.1-9.5,8.1-9.5c3.6,0,5.3,1.9,6.1,3.4h0.1
			l0.1-3h1.6c-0.1,1.3-0.1,2.8-0.1,4.6V548.4z M909.1,540c0-0.7,0-1.2-0.2-1.8c-0.7-2.2-2.6-4.1-5.6-4.1c-3.8,0-6.4,3.1-6.4,7.9
			c0,4,2.1,7.5,6.4,7.5c2.4,0,4.6-1.5,5.6-4c0.2-0.6,0.3-1.3,0.3-1.9V540z"/>
		<path d="M917.4,537.4c0-1.6,0-2.9-0.1-4.3h1.7l0.1,3.2h0.1c1.2-2.1,2.9-3.6,5.8-3.6c2.5,0,4.4,1.6,5.2,3.9h0.1
			c0.5-1.1,1.2-1.9,1.8-2.4c1.2-1,2.4-1.5,4.3-1.5c1.8,0,5.9,1,5.9,7.8V551h-1.8v-10.4c0-4-1.6-6.4-4.7-6.4c-2.2,0-4,1.6-4.7,3.6
			c-0.2,0.5-0.3,1.1-0.3,1.8V551h-1.8v-11.2c0-3.3-1.5-5.6-4.4-5.6c-2.4,0-4.3,1.9-5,4c-0.2,0.5-0.3,1.1-0.3,1.7V551h-1.8V537.4z"/>
		<path d="M959.8,546.8c0,1.4,0,2.9,0.3,4.3h-1.6l-0.3-2.6h-0.1c-0.9,1.4-2.9,3-5.8,3c-3.6,0-5.3-2.5-5.3-4.9c0-4.2,3.6-6.7,11-6.6
			v-0.5c0-1.8-0.3-5.3-4.6-5.3c-1.6,0-3.2,0.4-4.5,1.3l-0.6-1.3c1.6-1.1,3.7-1.5,5.3-1.5c5.2,0,6.2,3.9,6.2,7.1V546.8z M958,541.4
			c-3.9-0.1-9.1,0.5-9.1,4.8c0,2.6,1.7,3.7,3.6,3.7c3,0,4.7-1.8,5.3-3.6c0.1-0.4,0.2-0.8,0.2-1.1V541.4z"/>
		<path d="M968.5,528c0,0.8-0.6,1.5-1.5,1.5c-0.8,0-1.4-0.7-1.4-1.5c0-0.8,0.6-1.6,1.5-1.6S968.5,527.1,968.5,528z M966.2,551v-17.9
			h1.8V551H966.2z"/>
		<path d="M974.5,524.5h1.8V551h-1.8V524.5z"/>
		<path d="M982,549.8c0-1,0.6-1.7,1.5-1.7c0.9,0,1.5,0.7,1.5,1.7c0,0.9-0.6,1.7-1.6,1.7C982.6,551.5,982,550.7,982,549.8z"/>
		<path d="M1002.5,550.3c-0.8,0.4-2.7,1.2-5.3,1.2c-5.2,0-8.6-3.8-8.6-9.2c0-5.7,3.9-9.6,9.2-9.6c2.2,0,4,0.6,4.7,1.1l-0.6,1.5
			c-0.9-0.5-2.2-1-4.2-1c-4.8,0-7.3,3.7-7.3,7.9c0,4.7,3,7.8,7.1,7.8c2.1,0,3.5-0.6,4.5-1L1002.5,550.3z"/>
		<path d="M1022.2,541.9c0,6.7-4.6,9.6-8.6,9.6c-4.6,0-8.2-3.6-8.2-9.2c0-6.1,4-9.5,8.5-9.5C1018.9,532.7,1022.2,536.4,1022.2,541.9
			z M1007.2,542.1c0,4.5,2.9,7.9,6.5,7.9c3.7,0,6.7-3.4,6.7-8c0-3.3-1.8-7.8-6.6-7.8C1009.3,534.2,1007.2,538.3,1007.2,542.1z"/>
		<path d="M1027.6,537.4c0-1.6,0-2.9-0.1-4.3h1.7l0.1,3.2h0.1c1.2-2.1,2.9-3.6,5.8-3.6c2.5,0,4.4,1.6,5.2,3.9h0.1
			c0.5-1.1,1.2-1.9,1.8-2.4c1.2-1,2.4-1.5,4.3-1.5c1.8,0,5.9,1,5.9,7.8V551h-1.8v-10.4c0-4-1.6-6.4-4.7-6.4c-2.2,0-4,1.6-4.7,3.6
			c-0.2,0.5-0.3,1.1-0.3,1.8V551h-1.8v-11.2c0-3.3-1.5-5.6-4.4-5.6c-2.4,0-4.3,1.9-5,4c-0.2,0.5-0.3,1.1-0.3,1.7V551h-1.8V537.4z"/>
	</g>
	<path style="fill:#231F20;" d="M439.9,107c-7.1-9.9-6.5-31.2-24.9-28.6l-280.4,3.3c-14.3,19.8-13,45.4-24.4,66.2
		C79,286.8,87.1,440.6,156.8,560.8c63.6,2.7,131.2-5.1,194,0.3c30.8-8.7,76.5,16.2,89.4-17.7c7-21.1,17.8-40.4,21.2-62.9
		C501,361.2,488.1,219.8,439.9,107z M424.7,547c-86,5.7-178.7,6.2-264.7,1.5C87.5,411.7,81.2,230.5,143.4,88.3l265-1.1
		c18-3.3,21.8,22.9,30.1,35.3C487.1,252.7,492.1,425.6,424.7,547z M387.5,233.1c-3.5-10.7-13.1-17.4-24.6-16.7
		c-41.1-16.7-31.6-66.3-31.6-99.8c-4.2-7.5-12.6-11.6-19.5-15c-47.8-10.4-92,10.5-121.8,46.2c-1.3,7.3-5.3,20.4,5.6,24l-0.3-11.9
		c5.4-13.5,18.9-21.8,32.6-23.5c43,4.4,17.9,52.6,26,75.8l-24.3-6.6c-11.9,1.4-17.1,10.9-24,19.7c-7.3,11.7,0.7,27.8,0.9,38.2
		l-5.1,0.1c-9-0.1-16.4,6.9-20.5,14.2c-2.6,39.3,20.5,71.3,47.5,99.4c38,36.6,26.9,97.1,20.9,144.8c24.2,17.8,60.4,22.3,88.5,6.5
		c17.6-18.1,8.7-44.2,5.2-66.1c13.6-4,30.2-5.5,37.7-19.7c13.7-31.7-17.5-54.8-34.6-73.8C365.6,325.9,393,283.8,387.5,233.1z
		 M268.9,116.7c16.8-5.1,45.2-10.2,52.3,14.2c-3.6,31.1,0.4,63.1,12.7,89.5c-3.6,14.2-4.3,30.4-18.2,38.6
		c-28.9-0.4-35.1-32.7-44.6-52.6C270.3,176.5,254,144.8,268.9,116.7z M221.4,226.7c6.2-9.2,20.4-5.6,29.1-4.4
		c23.9,20,28.7,54.1,59,69.6c18.9-8.7,23.4-29.4,35-44.1c12,5.5,22.2,20.4,35,16.5c-4.1,23.9-17,44.4-25.8,66.6
		c-26.5,9-53.6,2.8-76.8-14C248.4,296,213,264.4,221.4,226.7z M330.6,518.3c-3.9,3.3-8.5,4.2-13.9,4
		c-38.2-25.8-51.1-68.7-57.9-111.1c22.8,16,44.5,34.2,70.3,42.9C339.9,471.2,340.7,501.1,330.6,518.3z M370.1,435.8
		c-1,18.8-22.9,9.2-32.6,9.5c-36.1-17.5-86.5-40.8-95.5-85.7c-25.1-22.5-56.9-41.1-52.4-76.6c3.7-9.5,12.7-12.2,22.4-11
		c35.3,42.1,78.5,83.6,127.1,107.6C361,391.7,368.8,413.1,370.1,435.8z M302.6,155.5c-11.2,0.7-24.7-4.8-33.2-16.5
		c10.6-7.8,31.2-24.2,41.4-2.8C316.8,144,309,152.1,302.6,155.5z"/>
</g>
</svg>
