<?xml version="1.0" encoding="utf-8"?>
<!-- Generator: Adobe Illustrator 27.4.1, SVG Export Plug-In . SVG Version: 6.00 Build 0)  -->
<svg version="1.1" id="Layer_1" xmlns="http://www.w3.org/2000/svg" xmlns:xlink="http://www.w3.org/1999/xlink" x="0px" y="0px"
	 viewBox="0 0 1000 500" style="enable-background:new 0 0 1000 500;" xml:space="preserve">
<g>
	<path style="fill:#96C224;" d="M285.7,156.1c0,0.7,0,1.2,0,1.7c0,41.1,0,82.3,0,123.4c0,2.6,0.1,5.2,0.3,7.7c0,1-0.2,1.4-1.3,1.4
		c-11.5-0.1-23.1-0.1-34.6-0.1c-2,0-4.1,0-6.2,0c0-15.5,0-30.8,0-46.2c-0.6,0-1,0-1.4,0c-6.3,0-12.6,0-18.9,0
		c-1.9,0-3.4,0.6-4.8,1.8c-6.6,5.7-13.1,11.3-19.7,16.9c-10,8.6-20,17.2-29.9,25.9c-1.2,1-2.3,1.5-3.9,1.5c-13.9-0.1-27.9,0-41.8,0
		c-2.6,0-4-1.1-4.4-3.3c-0.3-1.3,0.2-2.4,1-3.3c0.9-0.9,1.8-1.8,2.8-2.7c13.6-11.8,27.2-23.6,40.8-35.3c0.4-0.3,0.7-0.7,1.2-1.3
		c-0.8,0-1.2-0.1-1.6-0.1c-3.8,0-7.7,0-11.5,0c-9.4-0.1-17.1-6.2-19.1-15.4c-0.4-1.6-0.4-3.3-0.4-5c0-16,0-31.9,0-47.9
		c0-11.2,8.5-19.7,19.7-19.7c33.5,0,67.1,0,100.6,0c10.5,0,21.1,0,31.6,0C284.6,156.1,285.1,156.1,285.7,156.1z M214.6,216.4
		C214.6,216.4,214.6,216.4,214.6,216.4c9.2,0,18.5,0,27.7,0c1.1,0,1.3-0.4,1.3-1.3c0-9.9,0-19.7,0-29.6c0-1.7-0.1-1.7-1.8-1.6
		c-11.5,0.1-23,0.2-34.6,0.2c-6.6,0-13.2-0.1-19.8,0.1c-2.6,0.1-5.2,0.4-7.6,1c-5.8,1.4-9.8,4.9-11,10.9c-0.4,2.2-0.3,4.5-0.2,6.7
		c0.3,5.9,3.6,9.7,8.9,11.8c3.4,1.4,7,1.8,10.6,1.8C197,216.4,205.8,216.4,214.6,216.4z M632.1,206.9c-25.4,0-50.8,0-76.3,0
		c-1.1,0-1.5-0.2-1.5-1.4c0.1-7,0-14,0-21c0-0.4,0-0.7,0.1-1.2c0.3,0,0.6-0.1,0.9-0.1c9.3,0,18.6,0,28,0c24,0,47.9,0.1,71.9,0.1
		c1,0,1.4-0.3,1.3-1.3c0-8.2,0-16.3,0-24.5c0-0.4-0.1-0.9-0.1-1.3c-46.4,0-92.6,0-138.9,0c0,44.7,0,89.3,0,134
		c2.2,0.1,4.4,0.4,6.6,0.4c42.1,0,84.1,0,126.2,0c1.7,0,3.3,0,5-0.1c1.3-0.1,2.5-0.3,3.8-0.4c0-10,0-19.8,0-29.7c-1.2,0-2.4,0-3.5,0
		c-33.4,0-66.7,0-100.1,0c-1.1,0-1.4-0.2-1.4-1.4c0.1-7.8,0.1-15.5,0-23.3c0-1.1,0.3-1.5,1.4-1.5c10.1,0,20.1-0.1,30.2-0.1
		c17.6,0,35.2,0,52.8,0c0.5,0,1.1-0.1,1.6-0.1c0-9,0-18,0-27.3C637.4,206.9,634.8,206.9,632.1,206.9z M793,215.4
		c23-16.4,46.1-32.7,69.1-49.1c1.6-1.1,3.2-2.2,4.5-3.5c2.2-2.1,1.1-5.7-1.9-6.5c-0.7-0.2-1.4-0.3-2.1-0.3c-15.9,0-31.9,0-47.8,0
		c-0.9,0-2,0.4-2.7,0.9c-5.3,3.9-10.5,8-15.7,12c-14.8,11.4-29.6,22.7-44.5,34.1c-0.6,0.5-1.2,0.9-2.1,1.5c0-0.8,0-1.2,0-1.6
		c0-15.2,0-30.3,0.1-45.5c0-1.2-0.3-1.5-1.5-1.5c-11.2,0-22.3,0-33.5,0c-0.4,0-0.9,0-1.4,0c0,0.6,0,1,0,1.4c0,43.6,0,87.2,0,130.8
		c0,0.3,0,0.7,0,1c-0.1,0.9,0.3,1.1,1.1,1.1c1.8-0.1,3.6-0.1,5.4-0.1c9.5,0,19,0,28.5,0.1c1.2,0,1.5-0.4,1.5-1.6
		c-0.1-6.5-0.3-13-0.2-19.5c0-10,0.1-19.9,0.2-29.9c0-0.1,0.1-0.3,0.2-0.6c0.9,0.5,1.7,1,2.4,1.5c9.7,6.6,19.3,13.2,29,19.8
		c9.2,6.2,18.3,12.4,27.5,18.6c4.3,2.9,8.7,5.7,12.9,8.7c2.7,1.9,5.3,3.6,8.8,2.8c0.4-0.1,0.9,0,1.4,0c6.6,0,13.2,0.1,19.8,0.1
		c8.4,0,16.7-0.1,25.1-0.2c1.8,0,3.2-1,3.8-2.5c0.6-1.6,0.3-3.2-1.1-4.4c-0.6-0.5-1.2-1-1.8-1.4c-4.2-2.8-8.4-5.7-12.6-8.5
		c-25.3-17.1-50.5-34.3-75.8-51.4c-0.8-0.6-1.6-1.1-2.7-1.9C789,218.3,791,216.9,793,215.4z M326.1,184c18.1,0,36.3,0,54.4,0
		c1,0,1.5,0.1,1.5,1.3c0,23.4,0,46.8,0,70.3c0,11.1,0,22.2,0,33.3c0,1.2,0.4,1.6,1.5,1.5c1.6-0.1,3.2-0.1,4.9-0.1
		c11.1,0,22.1,0.1,33.2,0.1c1.8,0,1.8,0,1.8-1.8c0-34.3,0-68.6,0-102.9c0-1.3,0.4-1.6,1.6-1.6c18.2,0,36.4,0,54.6,0.1
		c1.2,0,1.5-0.3,1.5-1.5c0-8.4,0-16.8,0-25.1c0-0.4,0-0.8-0.1-1.2c-52.3,0-104.4,0-156.6,0c0,9.3,0,18.5,0,27.9
		C325,184,325.5,184,326.1,184z"/>
	<path style="fill:#0E0E0E;" d="M784.9,334.3c1.3-4.5,2.6-9,4-13.5c0.6-2.1,1.3-4.1,1.9-6.2c0.2-0.8,0.6-1.2,1.5-1.2
		c2.5,0,5.1,0,7.7,0c0,9.9,0,19.8,0,29.8c-1.8,0-3.6,0-5.4-0.1c-0.2,0-0.6-0.7-0.6-1.1c0-6.4,0.1-12.8,0.1-19.2c0-1.4,0-2.7-0.3-4.2
		c-0.2,0.8-0.5,1.6-0.7,2.4c-1.8,6.7-3.6,13.4-5.4,20.1c-0.6,2.1-0.6,2.2-2.8,2.1c-3.8-0.1-3.1,0.5-4-3.1
		c-1.6-6.2-3.1-12.5-4.6-18.8c-0.2-0.7-0.4-1.3-0.8-2.3c0,2.3,0,4.3,0,6.3c0,2.1,0.2,4.2,0.2,6.2c0,3.4,0,6.8,0,10.2
		c0,1.1-0.2,1.5-1.4,1.4c-1.1-0.1-2.2-0.1-3.4,0c-0.8,0-1.2-0.2-1.2-1.1c0.1-7,0.1-14.1,0.1-21.1c0-2.1,0-4.2-0.1-6.4
		c0-0.9,0.1-1.4,1.2-1.3c2.2,0.1,4.4,0.1,6.6,0c1,0,1.6,0.3,1.9,1.4c1.6,6.2,3.2,12.3,4.7,18.5c0.1,0.3,0.2,0.7,0.3,1
		C784.8,334.3,784.9,334.3,784.9,334.3z M637.5,321.3c0.1,0.2,0.2,0.3,0.3,0.5c3.2,6.7,6.4,13.5,9.5,20.2c0.4,0.9,0.9,1.3,2,1.3
		c1.7-0.1,3.4,0,5.1,0.1c0.9,0,1.2-0.3,1.1-1.1c0-2.9,0-5.8,0-8.7c0-6.2,0-12.5,0-18.7c0-0.9-0.2-1.4-1.2-1.3c-1,0.1-2,0.1-3,0
		c-1.2-0.1-1.5,0.3-1.5,1.4c0.1,5.5,0.1,11.1,0.1,16.6c0,1.1,0.2,2.2,0.3,3.2c-0.6-0.5-1.1-1.2-1.4-1.8c-2.9-6.1-5.9-12.2-8.8-18.3
		c-0.4-0.8-0.9-1.1-1.8-1.1c-1.2,0-2.3,0-3.5,0c-3.2,0-3.2,0-3.2,3.1c0,8.5,0,17,0,25.5c0,1.1,0.3,1.4,1.3,1.3
		c1.1-0.1,2.2-0.1,3.2,0c0.9,0,1.1-0.3,1.1-1.2c0-2.9,0-5.8,0-8.7c0-4,0-8.1,0-12.1C637.4,321.3,637.4,321.3,637.5,321.3z
		 M481.3,326.6c4.1-3.3,3.4-9.7-1.4-12c-1.1-0.5-2.4-0.9-3.7-1c-4.1-0.2-8.2-0.2-12.3-0.3c-1,0-1.1,0.5-1.1,1.2c0,9.2,0,18.4,0,27.6
		c0,0.9,0.3,1.1,1.1,1.1c3.8-0.1,7.6,0,11.5-0.1c2.1,0,4-0.6,5.8-1.7c4.3-2.8,5.1-9.4,1.5-12.9c-0.6-0.5-1.2-0.9-2.1-1.6
		C480.8,326.9,481.1,326.8,481.3,326.6z M474.9,330.1c2.6,0.4,3.9,2.3,3.6,5c-0.2,2.1-2,3.5-4.4,3.6c-1.4,0-2.7,0-4.1-0.1
		c-0.4,0-0.9-0.5-1-0.8c-0.1-2.6,0-5.2,0-8.1C471.1,329.8,473,329.8,474.9,330.1z M469.3,318.6c0.5-0.6,2-0.2,3.1-0.2c1,0,2,0,3,0.2
		c1.5,0.3,2.5,1.6,2.5,3c0.1,1.6-0.7,3-2.3,3.2c-2,0.3-4,0.3-6.1,0.3c-0.2,0-0.5-0.5-0.5-0.7c-0.1-0.9,0-1.7,0-2.6c0,0,0,0-0.1,0
		C469,320.6,468.7,319.2,469.3,318.6z M352.8,343.2c0.8,0.4,2,0.1,3.1,0.2c0.9,0.1,1.1-0.3,1.1-1.1c0-4.8,0-9.7,0-14.5
		c0-0.8-0.2-1.1-1.1-1.1c-3.5,0-6.9,0-10.4,0c-0.8,0-1,0.3-1,1c0,1,0,2,0,3c-0.1,0.9,0.2,1.2,1.1,1.2c1.4-0.1,2.8-0.1,4.2,0
		c0.3,0,0.8,0.4,0.9,0.6c0.1,2.8-1.1,6.1-4.8,6.5c-3.4,0.3-6.2-1.5-7.1-4.9c-1-3.8-1.1-7.7,0.2-11.4c0.9-2.7,3.1-4.4,5.7-4.5
		c3.2-0.1,4.8,0.9,6.2,3.9c1.9,0,3.9,0,5.9,0c0-0.2,0-0.4,0-0.5c-0.1-0.3-0.1-0.7-0.2-1c-1.4-4.6-4.7-6.8-9.3-7.3
		c-6.4-0.7-11.9,2.1-14.3,8.6c-1.5,4-1.5,8.2-0.5,12.3c0.9,3.8,2.7,7.1,6.5,8.6c4.6,1.8,9,1.7,12.7-2.1
		C352,341.6,352.1,342.8,352.8,343.2z M681.9,343.1c0.8,0.5,2,0.1,3.1,0.2c0.7,0,1.1-0.2,1.1-1c0-4.9,0-9.7,0-14.6
		c0-0.7-0.2-1-0.9-1c-3.5,0-7,0-10.5,0c-0.8,0-1,0.3-1,1.1c0,1,0,2.1,0,3.1c0,0.8,0.3,1,1,1c1.4,0,2.8,0,4.2,0
		c0.3,0,0.8,0.3,0.9,0.5c0.6,1.7-1.1,5.2-2.8,6c-3.4,1.6-7.1,0.2-8.7-3.4c-1.4-3.1-1.2-6.3-0.9-9.5c0.1-1.3,0.6-2.7,1.2-3.9
		c1.1-2.3,2.9-3.5,5.5-3.5c2.5,0,4.7,0.8,5.7,3.4c0.1,0.2,0.4,0.5,0.6,0.5c1.8,0,3.7,0,5.6,0c-0.5-3.2-2-5.5-4.5-7.1
		c-4.9-3.1-14.4-2.8-18.4,4.8c-3,5.6-3,11.5-0.6,17.3c3.1,7.5,12.2,9.2,18.1,3.7c0.1-0.1,0.2-0.1,0.3-0.1
		C681.2,341.5,681.2,342.8,681.9,343.1z M589.2,342.1c0,0.9,0.2,1.3,1.2,1.3c3.3-0.1,6.6,0,10-0.1c5.7-0.2,9.9-2.7,12.1-8.2
		c1.2-2.9,1.3-6,1.1-9.1c-0.4-7.1-5.1-11.9-12.2-12.3c-3.6-0.2-7.2-0.1-10.8-0.2c-1,0-1.3,0.3-1.3,1.3c0.1,4.5,0,9.1,0,13.6
		C589.2,332.9,589.2,337.5,589.2,342.1z M601.1,318.8c2.3,0.2,3.9,1.5,4.8,3.5c1.9,4.1,2,8.2-0.1,12.3c-1.3,2.5-3.4,3.7-6.2,3.9
		c-1.2,0.1-2.3,0.1-3.5,0c-0.3,0-0.8-0.5-0.8-0.7c0-6.3,0-12.6,0-18.9c0,0,0-0.1,0.2-0.3C597.4,318.6,599.3,318.6,601.1,318.8z
		 M701.3,331.6c0.7,6,4.1,11.4,11.3,12.1c6.2,0.7,11.7-2.3,13.8-8c1.8-4.8,1.9-9.7,0-14.5c-1.9-4.8-5.4-7.7-10.6-8
		c-5.4-0.4-9.8,1.4-12.6,6.3c-1.6,2.8-2.2,5.8-1.9,9C701.3,329.6,701.1,330.6,701.3,331.6z M720.5,334.4c-0.7,2.5-2.4,4.1-5,4.5
		c-2.7,0.4-4.9-0.7-6.4-3c-1.7-2.6-2-5.6-1.8-8.5c0.1-1.8,0.5-3.6,1.1-5.3c1-2.7,3.2-4,6.2-4c2.6,0.1,4.8,1.5,5.6,4.2
		c0.6,2.1,0.9,4.3,1.3,6.3C721.2,330.6,721,332.5,720.5,334.4z M538.1,342c-3.1-5.1-6.1-10.1-9.2-15.1c-0.6-1-0.5-1.7,0.3-2.5
		c2.6-2.9,5-5.9,7.5-8.8c0.5-0.6,1-1.2,1.7-2c-2.2,0-4,0-5.9,0c-1,0-1.7,0.4-2.3,1.2c-2.9,3.8-5.9,7.6-8.9,11.4
		c-0.2,0.2-0.3,0.6-0.4,0.8c-0.1-0.1-0.3-0.2-0.4-0.3c0-4.4,0-8.7,0-13.1c-1.7,0-3.3,0.1-4.8,0c-1.1-0.1-1.3,0.4-1.3,1.4
		c0.1,6.2,0.1,12.5,0.1,18.7c0,2.9-0.1,5.7-0.1,8.6c0,0.4,0.3,1.1,0.5,1.1c1.8,0.1,3.7,0,5.5,0c0.1-0.3,0.1-0.4,0.1-0.5
		c0-2.5,0-5.1,0-7.6c0-0.7-0.1-1.5,0.2-1.9c1-1.2,2.2-2.2,3.4-3.4c0.1,0.2,0.3,0.4,0.4,0.6c2.1,3.9,4.2,7.7,6.4,11.6
		c0.3,0.5,1,1.2,1.5,1.2c2,0.1,4.1,0.1,6.4,0.1C538.5,342.7,538.3,342.3,538.1,342z M421.3,319.9c-0.1-1.1,0.4-1.3,1.4-1.3
		c2.9,0.1,5.8,0,8.7,0c3.4,0,3.4,0,3.4-3.3c0-0.2,0-0.4,0-0.6c0.1-0.9-0.3-1.2-1.2-1.2c-5.8,0-11.6,0-17.5,0c-0.8,0-1,0.3-1,1
		c0,9.3,0,18.7,0,28c0,0.7,0.3,0.9,1,0.9c5.9,0,11.9,0,17.8-0.1c0.3,0,0.9-0.4,0.9-0.7c0.3-1.4,0.5-2.9,0.8-4.5c-4.9,0-9.5,0-14.3,0
		c0-2.2,0.1-4.3,0-6.4c-0.1-1.2,0.4-1.4,1.4-1.4c3.4,0,6.8,0,10.2,0c0.4,0,1-0.4,1-0.6c0.1-1.4,0-2.9,0-4.5c-4.3,0-8.4,0-12.7,0
		C421.3,323.3,421.4,321.6,421.3,319.9z M507.1,325.1c-3.4,0-6.7,0-10.1,0c-0.8,0-1.1-0.2-1.1-1.1c0.1-1.2,0-2.3,0-3.5c0-2,0-2,2-2
		c3.4,0,6.7,0,10.1,0c0.9,0,1.2-0.3,1.2-1.2c-0.1-1-0.1-1.9,0-2.9c0.1-1-0.4-1.2-1.2-1.2c-5.7,0-11.3,0-17,0c-0.9,0-1.2,0.3-1.2,1.2
		c0,9.2,0,18.4,0,27.6c0,0.9,0.2,1.2,1.1,1.2c1.9-0.1,3.8-0.1,5.7-0.1c3.8,0,7.6,0.1,11.5,0.1c0.6,0,1.2,0.1,1.4-0.7
		c0.2-1.4,0.4-2.8,0.7-4.3c-0.5,0-0.9-0.1-1.2-0.1c-4,0-7.9,0-11.9,0c-0.9,0-1.2-0.2-1.1-1.1c0.1-1.8,0.1-3.6,0-5.4
		c-0.1-1.1,0.3-1.4,1.3-1.3c3.4,0,6.9,0,10.4,0c0.6,0,1.1,0.1,1.1-0.8c0-1.4,0-2.8,0-4.4C508,325.1,507.6,325.1,507.1,325.1z
		 M583.4,338.1c-3.9,0-7.7,0-11.6,0c-1,0-1.3-0.3-1.2-1.3c0.1-1.9,0-3.7,0-5.6c0-0.7,0.1-1,0.9-1c2.2,0,4.3,0,6.5,0
		c1.6,0,3.2,0.1,4.7,0c0.3,0,0.8-0.4,0.8-0.6c0.1-1.5,0-3,0-4.6c-0.6,0-1.1,0-1.5,0c-3.4,0-6.8,0-10.2,0c-1,0-1.3-0.3-1.2-1.3
		c0.1-1.4,0.1-2.8,0-4.2c0-0.8,0.3-1.1,1.1-1.1c2.9,0,5.7,0,8.6,0c1.2,0,2.9,0.3,3.4-0.3c0.6-0.7,0.2-2.3,0.4-3.6
		c0.1-1-0.3-1.4-1.3-1.3c-5.6,0-11.2,0-16.8,0c-1,0-1.3,0.3-1.3,1.3c0,9.2,0,18.3,0,27.5c0,0.9,0.3,1.2,1.2,1.2
		c2.8-0.1,5.6-0.1,8.4-0.1c2.9,0,5.8,0.1,8.7,0.1c0.5,0,1.2-0.3,1.3-0.6c0.4-1.4,0.5-2.9,0.8-4.6
		C584.3,338.1,583.9,338.1,583.4,338.1z M368.7,318.6c4.1,0,8.2,0,12.2,0c0.9,0,1.2-0.2,1.2-1.1c-0.1-0.9-0.1-1.8,0-2.7
		c0.1-1.1-0.4-1.3-1.4-1.3c-5.4,0-10.8,0-16.2,0c-0.6,0-1.1,0.1-1.7,0.1c0,9.9,0,19.7,0,29.5c0.2,0.1,0.3,0.1,0.4,0.1
		c6,0,12.1,0.1,18.1,0.1c0.3,0,0.9-0.3,1-0.6c0.4-1.4,0.6-2.9,0.9-4.5c-5,0-9.7,0-14.5,0c0-2.7,0-5.3,0-8c4.3,0,8.6,0,12.8,0
		c0-1.8,0-3.4,0-5c-4.3,0-8.5,0-12.8,0C368.7,322.9,368.7,320.7,368.7,318.6z M827.3,335.5c-2.2-6.9-4.4-13.9-6.6-20.8
		c-0.2-0.7-0.4-1.2-1.3-1.2c-2,0-4.1-0.1-6.1,0c-0.4,0-1,0.5-1.1,0.9c-2.2,7-4.3,14.1-6.4,21.1c-0.8,2.6-1.6,5.1-2.4,7.9
		c1.9,0,3.7,0,5.4,0c0.3,0,0.7-0.4,0.8-0.8c0.6-1.7,1.1-3.5,1.5-5.3c0.2-0.7,0.5-1,1.3-1c2.7,0.1,5.3,0,8,0.1c0.4,0,0.9,0.5,1.1,0.8
		c0.6,1.7,1.1,3.4,1.7,5.1c0.1,0.4,0.6,1,0.9,1c1.8,0.1,3.6,0,5.7,0C828.9,340.5,828.1,338,827.3,335.5z M816.2,318.4
		c1.3,4.4,2.5,8.5,3.7,12.6c-2.4,0-4.8,0-7.3,0C813.8,326.9,815,322.8,816.2,318.4z M857.4,342.2c-0.7-2.2-1.4-4.4-2.1-6.5
		c-2.2-7-4.5-14-6.7-21c-0.2-0.7-0.5-1.2-1.3-1.2c-2,0-4.1-0.1-6.1,0c-0.4,0-0.9,0.4-1,0.8c-2.9,9.4-5.7,18.7-8.6,28.1
		c-0.1,0.3-0.1,0.5-0.2,1c1.7,0,3.3,0,4.9,0c0.8,0,1.2-0.3,1.4-1.1c0.4-1.6,0.9-3.1,1.3-4.7c0.2-1,0.6-1.3,1.6-1.3
		c2.6,0.1,5.2,0,7.8,0.1c0.4,0,0.9,0.5,1,0.9c0.6,1.7,1.2,3.5,1.8,5.2c0.1,0.3,0.5,0.8,0.8,0.8c1.9,0.1,3.7,0,5.7,0
		C857.5,342.8,857.4,342.5,857.4,342.2z M847.8,331.1c-2.4,0-4.8,0-7.3,0c1.1-4,2.2-7.9,3.4-11.9c0.1,0,0.3,0,0.4,0
		C845.5,323.1,846.6,327,847.8,331.1z M739.2,331.8c0.8,0,1.4,0.1,2.1,0c2.4-0.2,4.8-0.2,7.1-0.8c3.2-0.8,5.2-3.1,5.8-6.4
		c0.6-3.3,0.1-6.4-2.7-8.7c-1.7-1.4-3.7-2.2-5.8-2.3c-3.8-0.1-7.6-0.1-11.3-0.2c-1.3-0.1-1.6,0.3-1.6,1.6c0,7.9,0,15.8,0,23.7
		c0,1.2,0,2.4,0,3.6c0,0.3,0.4,0.9,0.6,0.9c1.9,0.1,3.7,0,5.8,0C739.2,339.3,739.2,335.6,739.2,331.8z M744.7,318.6
		c2.1,0.1,3.5,1.7,3.5,3.9c0.1,2.5-1.3,4.1-3.6,4.3c-1.6,0.1-3.2,0.1-4.7,0c-0.3,0-0.7-0.4-0.7-0.7c-0.1-2.5,0-5,0-7.6
		C741.1,318.6,742.9,318.5,744.7,318.6z M406.7,313.4c-0.9,0-1.2,0.4-1.4,1.2c-1.6,5.2-3.2,10.4-4.8,15.6c-0.7,2.3-1.3,4.5-2,6.8
		c-0.3-0.3-0.4-0.6-0.5-0.9c-2-7.2-4.1-14.5-6.1-21.7c-0.1-0.4-0.5-0.9-0.8-0.9c-1.9-0.1-3.8,0-5.9,0c0.4,1.1,0.7,2.1,1,3.1
		c2.7,8.5,5.4,17,8.1,25.6c0.3,0.9,0.7,1.2,1.6,1.2c1.6,0,3.2-0.1,4.7,0c1,0,1.6-0.3,1.9-1.3c2.1-6.7,4.4-13.4,6.6-20.2
		c0.9-2.7,1.8-5.3,2.8-8.3C410,313.5,408.3,313.5,406.7,313.4z M877.2,313.5c-5.9,0-11.9,0-17.8,0c-1.2,0-2.9-0.3-3.5,0.3
		c-0.6,0.7-0.2,2.4-0.3,3.6c-0.1,1,0.4,1.3,1.3,1.2c1.9-0.1,3.7,0,5.6,0c0.8,0,1.2,0.3,1.1,1.1c0,0.5,0,0.9,0,1.4c0,7,0,14,0,21
		c0,1.1,0.3,1.4,1.3,1.3c1.1-0.1,2.2,0,3.2,0c1.6,0,1.6,0,1.6-1.7c0-7.2,0-14.3,0-21.5c0-1.6,0-1.6,1.7-1.6c1.9,0,3.7,0,5.6,0
		c0.7,0,1-0.2,1-0.9c0-1.3,0-2.7,0-4.1C877.6,313.5,877.4,313.5,877.2,313.5z M457.6,338.1c-3.5,0-7,0-10.5,0c-1,0-1.4-0.2-1.3-1.3
		c0.1-5.2,0-10.4,0-15.6c0-2.3,0-4.5,0-6.8c0-0.3-0.3-1-0.4-1c-1.9-0.1-3.8,0-5.6,0c0,10,0,19.8,0,29.6c0.2,0.1,0.4,0.1,0.6,0.1
		c5.7,0.1,11.5,0.1,17.2,0.1c0.4,0,1-0.6,1.1-1c0.3-1.3,0.4-2.6,0.6-4.2C458.5,338.1,458,338.1,457.6,338.1z M559.4,338.1
		c-3.5,0-7,0-10.5,0c-1,0-1.4-0.2-1.4-1.3c0.1-7.3,0-14.7,0-22c0-0.4,0-0.9-0.1-1.4c-2.1,0-4.1,0-6,0c0,9.9,0,19.7,0,29.7
		c1.9,0,3.7,0,5.6,0c4,0,8.1,0.1,12.1,0c0.4,0,1-0.3,1.1-0.5c0.3-1.5,0.4-2.9,0.7-4.6C560.3,338.1,559.9,338.1,559.4,338.1z
		 M618.9,328.3c0,4.6,0,9.2,0,13.9c0,0.9,0.2,1.2,1.1,1.2c1.3-0.1,2.6-0.1,3.9,0c0.9,0,1.2-0.3,1.2-1.2c0-2.1,0-4.2,0-6.4
		c0-7,0-14,0-21c0-1-0.3-1.4-1.3-1.3c-1.2,0.1-2.3,0.1-3.5,0c-1.2-0.1-1.4,0.4-1.4,1.4C618.9,319.3,618.9,323.8,618.9,328.3
		C618.9,328.3,618.9,328.3,618.9,328.3z"/>
</g>
</svg>
