<?xml version="1.0" encoding="utf-8"?>
<!-- Generator: Adobe Illustrator 27.4.1, SVG Export Plug-In . SVG Version: 6.00 Build 0)  -->
<svg version="1.1" id="Layer_1" xmlns="http://www.w3.org/2000/svg" xmlns:xlink="http://www.w3.org/1999/xlink" x="0px" y="0px"
	 viewBox="0 0 900 600" style="enable-background:new 0 0 900 600;" xml:space="preserve">
<path d="M746.6,443.4c0.1,4.6,0.3,8.5,0.2,12.3c0,0.8-0.9,1.8-1.6,2.4c-5.8,4.9-11.9,9.6-17.5,14.7c-5.5,4.9-11.9,7.1-18.9,8.4
	c-10.4,1.9-20.7,1.4-30.6-2.6c-5.9-2.4-10.1-6.4-11.2-13c-0.1-0.7-0.4-1.4-0.7-2.5c-1.5,0.8-2.8,1.3-4.1,2.1
	c-12.1,7.9-25.4,13-39.3,16.1c-12.4,2.8-24.3,1.4-35.4-5.5c-4.1-2.5-7.2-5.8-9.1-10.1c-0.3-0.8-0.8-1.5-1.5-2.6
	c-1.4,0.9-2.6,1.7-3.8,2.5c-5.6,3.8-11.1,7.7-16.8,11.3c-6.9,4.3-14.6,6-22.6,5.2c-6.9-0.7-13-3.5-17.6-8.9
	c-2.5-2.9-3.9-6.3-4.1-10.9c-2.5,1.6-4.6,2.6-6.5,4c-4.7,3.4-9.9,5.7-15.3,7.8c-3.2,1.3-6.5,2.6-9.8,3.8
	c-13.3,4.8-26.7,6.5-40.3,1.5c-5.4-2-10.1-4.8-13.7-9.4c-2.4-3.1-3.7-6.5-3.8-10.4c-0.2-7.4-0.4-14.7-0.5-22.1
	c-0.1-10.5-0.1-21,0.1-31.5c0.1-6.5,0.7-13,4.3-18.7c3.7-5.9,8.7-10.6,14.7-14.1c10.1-5.9,21-6.5,32-4.3c7.9,1.6,15.1,5.2,20.9,11.2
	c6.7,6.9,8.2,15.5,7.5,24.7c-0.9,12.2-6.3,22.5-14.6,31.3c-5.5,5.8-12.3,9.6-20.2,12c-0.1,1-0.2,1.9-0.2,2.9c0,6.7,2.8,9.5,9.4,9.2
	c3.5-0.2,6.9-0.9,10.3-1.8c8.5-2.3,16.1-6.7,23.9-10.6c1.9-0.9,1.9-2.3,1.9-4c-0.1-11.4-0.1-22.8-0.1-34.1c0-12,0-24,0-36
	c0-1.5,0.2-2.9,0.3-4.6c15.9,0,31.5,0,47.4,0c0.1,1.7,0.4,3.3,0.4,4.9c0,24.9,0,49.8,0.1,74.7c0,0.8,0,1.5,0,2.3
	c0.2,3.2,1.4,4.1,4.3,2.7c3.5-1.6,7-3.4,10.5-5.1c1.3-0.6,2-1.4,2-3.2c-0.2-13-0.2-26-0.2-39c0-10.9,0-21.8,0-32.6
	c0-1.5,0.3-2.9,0.4-4.6c14.7,0,29,0,43.7,0c0,4.5,0,8.8,0,13.8c4.8-3.9,9.4-6.7,14.4-8.3c4.9-1.6,10-2.9,15.4-4.5
	c0,15.2,0,29.7,0,44.7c-0.7-0.4-1.4-0.7-1.9-1.1c-2.2-2-4.4-4.1-6.5-6.2c-6.1-6.1-13.2-6.1-21-3.4c-0.1,1-0.3,2-0.3,3
	c0,14.9,0,29.8,0,44.6c0,0.7,0,1.5,0.1,2.2c0.6,4.1,2.8,6.2,7,6.5c5.4,0.4,10.8-0.5,15.8-2.5c6.3-2.6,12.6-5.5,18.9-8.2
	c2.9-1.2,3.9-3.2,3.9-6.4c-0.1-30.1-0.1-60.3-0.1-90.4c0-1.1,0.1-2.2,0.2-3.6c1.7-0.2,3.1-0.5,4.6-0.5c12.9,0,25.8,0,38.6,0
	c0.5,0,1,0,1.5,0c2.3,0.2,2.7,0.6,2.8,3.1c0,4.3,0,8.5,0,12.8c0,1.3,0.2,2.7,0.3,4.4c5.1,0,10,0,15.2,0c0.2,8.8,0.3,17.2,0,26.2
	c-5.1,0-9.9,0-15.1,0c-0.2,1.6-0.5,2.6-0.5,3.7c0,17.4,0,34.8,0,52.1c0,5.1,1.1,6,6.2,4.6c3.8-1.1,7.5-2.7,11.2-4.3
	c3.4-1.5,6.7-3.4,10-5.1C743,444.8,744.4,444.3,746.6,443.4z M467,428.6c4-1.1,7.3-2.4,10-4.8c6.1-5.4,9.1-12.4,9.6-20.5
	c0.2-3.3,0-6.8-0.9-10c-1.9-7.1-3.6-8.1-11-7.7c-5.2,0.3-8.3,3.4-8.3,8.6c0,10.1,0,20.2,0,30.4C466.6,425.8,466.8,427,467,428.6z
	 M365.1,450.7c-0.7,3.7-1.1,7.1-2.2,10.2c-1.5,4.1-4.2,7.6-7.6,10.5c-8.2,6.9-17.9,9.6-28.3,10.6c-9.6,0.9-18.9-0.8-28.1-3.5
	c-2.3-0.7-4.5-1.6-6.6-2.7c-0.9-0.4-1.7-1.6-1.9-2.5c-0.7-4.1-0.6-8.2-0.1-12.4c2.8-0.3,5.4-0.5,8-0.8c1.2-0.2,2.5-0.4,3.6-0.8
	c5.5-1.9,6.6-4,6.6-9c-0.1-28.5,0-57,0.1-85.5c0-2,0-4,0-6.3c-5.5-1.2-11.4,0.3-17.2-0.9c0-5.9,0-11.5,0-17.5
	c1.4-0.1,2.6-0.3,3.9-0.3c24.4,0,48.8,0,73.1,0.1c10.9,0,20.9,2.9,29.7,9.8c9.9,7.7,15.9,17.7,18.7,29.8c1.8,7.8,2.2,15.6,1.4,23.5
	c-1.4,14-6.6,26.3-17.5,35.8c-9.3,8.1-20.2,11.6-32.3,11.8c-1,0-2,0-3,0.1C365.4,450.5,365.1,450.6,365.1,450.7z M364.5,429.7
	c0.9,0.1,1.3,0.3,1.8,0.3c0.7,0,1.5,0,2.2-0.1c7.6-0.9,14-4.3,19.3-9.7c7.5-7.6,10.5-16.9,9.6-27.3c-0.4-4.5-0.9-9.1-3-13.4
	c-3.8-7.7-9.8-12.8-17.3-16.4c-3.9-1.9-8.1-2.6-12.7-2.5C364.5,383.7,364.5,406.5,364.5,429.7z M224.3,348.2c-13.1,0-26.3,0-39.4,0
	c-1.3,0-2.6,0.3-4.4,0.5c0,9.6,0,18.8,0,28.1c0,15.2-0.1,30.5,0,45.7c0,13.1,0.2,26.2,0.3,39.4c0,8.2,4.6,14.1,12.7,17
	c11.6,4.2,23.3,4.1,35,0.9c3-0.8,6-2,8.4-3.8c7.5-5.6,14.8-11.6,22.1-17.4c0.5-0.4,1-0.8,1.3-1.3c0.4-0.6,1-1.3,1-1.9
	c0.1-3.8,0-7.7,0-11.7c-3.2,0.1-5.4,1.5-7.7,2.7c-4.2,2.2-8.3,4.7-12.7,6.5c-3.6,1.5-7.3,3.3-11.4,2.1c-0.8-4.4-0.6-57.6,0.2-60.3
	c4.6-0.3,9.4,0.3,14.2-0.4c0.1-1.3,0.2-2.3,0.2-3.3c0-6.1,0-12.3,0-18.4c0-4-0.2-4.2-4.2-4.2c-3.5,0-6.9,0-10.8,0
	c0-6.7,0-12.9,0-19.5C227.2,348.5,225.8,348.2,224.3,348.2z M580.6,135c0.6,2.7,1.9,4.6,4.5,5.9c9.7,5,19.2,10.1,28.8,15.2
	c12.7,6.7,25.4,13.4,38.1,20.1c6.2,3.3,12.4,6.6,18.6,9.8c1.4,0.7,2.2,1.5,1.9,3.2c-1.1,5.1-2.1,10.2-5.5,14.5c-1.6,1.9-3,2.6-5.4,2
	c-3.7-1-7.5-2-11.3-2.4c-8.3-0.9-16.5-2.4-24.7-4.1c-1-0.2-2.4-0.2-3.2,0.4c-4.7,3.2-10.2,3.9-15.5,5.2c-9.1,2.2-18.4,1.9-27.5-0.1
	c-5.3-1.2-10.8-2.4-15.8-4.5c-3.7-1.5-6.3-1.7-8.8,1.6c-0.4,0.5-0.9,0.8-1.4,1.2c-12.7,11.2-24.5,23.2-34.5,36.9
	c-4.6,6.4-8.7,13.1-12,20.3c-0.8,1.8-1.3,3.7-2,5.5c1.1-0.6,1.7-1.3,2.3-2.2c4.5-6.4,8.9-13,13.6-19.3c10.3-13.9,22.6-26,35.3-37.8
	c2.1-1.9,4-2.3,6.7-1.2c9.4,3.9,19.1,6.7,29.4,6.8c9.7,0.1,19.3-0.5,27.9-5.7c3.1-1.9,6.1-2.7,9.5-1.3c0.9,0.4,2,0.4,2.9,0.5
	c4.9,0.7,9.9,1.3,14.8,2.2c5.4,0.9,10.8,2,16.2,3.2c2.3,0.5,3.5-0.2,5.1-1.9c5.3-5.8,7.5-12.9,9.3-20.2c0.7-3.1,0.2-4.3-2.6-5.9
	c-3-1.7-6-3.5-9.1-5.2c-5.9-3.2-11.9-6.4-17.8-9.6c-11.2-6.1-22.4-12.2-33.6-18.3c-9.2-5-18.5-10-27.6-15.1
	c-0.9-0.5-1.8-1.5-2.1-2.4c-1-3.1-1.8-6.2-2.6-9.4c-0.4-1.8-0.7-3.6-1.1-5.7c-1.2,0.5-2.2,0.7-3,1.3c-3.8,2.9-7.7,5.6-11.1,8.8
	c-1.8,1.6-3.6,2.5-5.9,2.8c-4.8,0.7-9.6,1.3-14.4,2.2c-13.8,2.7-27.1,6.6-40.1,12.1c-11.7,4.9-22.9,10.7-33.5,17.5
	c-23.9,15.5-44.4,34.8-61.8,57.4c-2.2,2.9-4.6,5.6-7.1,8.2c-10.7,11.3-22.8,21-35.8,29.5c-9.7,6.3-19.8,11.8-30.5,16
	c-9.5,3.8-19.2,7.2-29.3,9.1c-8.5,1.6-16.9,3.3-25.6,3.3c-5.9,0-11.8,0.1-17.6,0c-5.5-0.1-11-0.1-16.5-0.7
	c-11.6-1.2-23.2-0.8-34.8,0.4c-2,0.2-4,0.1-6,0.6c-10.9,2.7-22.1,4.4-32.4,9.2c-4.6,2.2-9.3,4.2-13.9,6.4c-1,0.5-1.9,1.4-2.9,2.1
	c0.9,0.2,1.6-0.1,2.2-0.4c11.3-4.9,22.8-8.6,35.1-10.2c12.1-1.6,24.2-1.5,36.2,0c7.3,0.9,14.5,2.5,21.9,3.3
	c15.3,1.6,30.5-0.5,45.5-2.8c6.8-1,13.3-3.2,20.1-4.5c7.1-1.3,13.6-4.3,20.1-7c12.2-5.2,23.8-11.5,34.5-19.5
	c12.1-9.1,23.5-19.1,33-30.9c3.8-4.8,7.5-9.7,11.5-14.3c12.7-14.7,26.6-28.1,42.3-39.6c9.5-7,19.6-12.9,30-18.4
	c12.3-6.5,25.1-11.7,38.3-16.1c11.1-3.7,22.3-6.6,33.7-8.6c2.1-0.4,3.7-1.1,5.2-2.6c2.6-2.5,5.3-4.8,8.5-7.7
	C578.8,128.5,579.9,131.7,580.6,135z M584.3,315.6c-2.7-1.8-5.4-3.6-8.2-5.3c-4.6-2.8-9-5.8-13.9-8.1c-12.3-5.9-25.1-10.3-38.7-12.3
	c-12.9-2-25.9-2.3-38.9-1c-14.3,1.5-28.1,5.5-42.2,8.5c-9.1,1.9-18.2,4.4-27.3,6.3c-9.2,1.9-18.4,3.4-27.7,4.8
	c-16,2.4-31.8,2.2-47.5-2.1c-6.9-1.9-13.4-4.7-19.9-7.6c-1.2-0.6-2.5-1.1-3.7-1.7c0,0.8,0.3,1.1,0.6,1.3c8,5.3,16.6,9,25.8,11.6
	c11,3.1,22.2,4.7,33.6,4.9c14,0.2,28-0.1,41.8-2.6c6.9-1.3,13.8-2.3,20.6-3.9c13.8-3.3,27.5-7.2,41.3-10.5c6.4-1.5,13-2.6,19.6-3.1
	c15.6-1.3,30.9,0.7,46,4.9c14.7,4.1,28.2,10.8,41.4,18.5C586.1,317.1,585.3,316.3,584.3,315.6z M573.1,290.5
	c0.8,0.9,1.6,1.9,2.4,2.8c6.5,7.2,13.9,13.3,22.5,17.8c13.8,7.2,28.2,10.5,43.7,6.7c10.5-2.6,20.5-6.5,30.5-10.1
	c11.6-4.2,23.3-8.5,35.6-10.1c6-0.8,12.3-0.8,18.3,0c8.4,1.1,15.8,5.2,22.4,10.7c0.4,0.3,1,0.4,1.5,0.6c-0.1-1-0.4-1.7-0.9-2.2
	c-9.4-8.8-20.8-13.4-33.3-14.9c-14.7-1.7-29.1,1.3-43.1,5.6c-8.1,2.5-15.9,6-23.6,9.4c-11.8,5.1-23.9,7.1-36.9,4.6
	c-11.2-2.2-20.7-7.1-29.5-13.8c-3.1-2.4-6-5.2-8.9-7.8C573.5,290.1,573.3,290.3,573.1,290.5z M512.2,360.5c16.1,0.1,31.8,0.5,48-0.1
	c-0.4-7,0.4-13.7-0.4-20.5c-15.9,0-31.5,0-47.6,0C511.9,346.8,511.8,353.5,512.2,360.5z M178.5,372.3c0.2-1.3,0.5-2.2,0.5-3
	c0-8.9,0-17.7,0.1-26.6c0-1.8-0.9-2.8-2.7-2.9c-2.6-0.1-5.2,0-7.9-0.1c-1.9-0.1-3,0.7-3.8,2.4c-2,4.3-4.2,8.5-6.4,12.7
	c-2.5,4.9-5,9.7-7.5,14.6c-0.3,0.6-0.4,1.4-0.9,2.9C159.9,372.4,169.2,372.5,178.5,372.3z M292.6,251.8l-24.1-11.9l-11.9,24.1
	l24.1,11.9L292.6,251.8z M331.5,250.2l-24.1-11.9l-11.9,24.1l24.1,11.9L331.5,250.2z M367.4,230.6l-24.1-11.9l-11.9,24.1l24.1,11.9
	L367.4,230.6z M400.3,209.6l-24.1-11.9l-11.9,24.1l24.1,11.9L400.3,209.6z"/>
</svg>
