<?xml version="1.0" standalone="no"?>
<!DOCTYPE svg PUBLIC "-//W3C//DTD SVG 20010904//EN"
 "http://www.w3.org/TR/2001/REC-SVG-20010904/DTD/svg10.dtd">
<svg version="1.0" xmlns="http://www.w3.org/2000/svg"
 width="2000.000000pt" height="2000.000000pt" viewBox="0 0 2000.000000 2000.000000"
 preserveAspectRatio="xMidYMid meet">
<metadata>
Created by potrace 1.11, written by Peter Selinger 2001-2013
</metadata>
<g transform="translate(0.000000,2000.000000) scale(0.100000,-0.100000)"
fill="#000000" stroke="none">
<path d="M14140 19971 c-14 -5 -55 -22 -91 -39 -56 -27 -80 -49 -170 -149
-133 -150 -151 -175 -151 -208 0 -38 16 -45 111 -45 98 0 142 -19 181 -78 13
-20 50 -64 81 -98 95 -100 101 -169 27 -313 -41 -81 -43 -87 -43 -175 0 -81 3
-96 27 -137 32 -54 87 -106 135 -126 19 -7 69 -21 111 -29 91 -19 128 -36 137
-64 18 -58 -70 -99 -178 -84 -34 4 -99 8 -144 9 -72 0 -85 -3 -105 -22 -19
-20 -22 -34 -23 -120 -1 -54 -7 -126 -15 -161 -31 -151 26 -279 141 -314 60
-17 98 -2 137 57 17 28 45 56 62 64 28 13 32 12 80 -17 58 -36 90 -40 113 -14
19 20 66 132 102 237 54 162 73 393 40 500 -17 61 -63 133 -110 173 -40 36
-55 62 -55 97 0 14 36 114 80 222 72 177 96 263 72 263 -20 0 -46 -30 -70 -81
-91 -185 -206 -20 -159 229 9 45 32 120 51 165 38 88 43 116 25 149 -12 23
-66 48 -104 48 -14 0 -66 16 -115 35 -89 35 -131 41 -180 26z"/>
<path d="M13758 18931 c-21 -32 -38 -64 -38 -72 1 -8 12 -27 25 -43 l24 -30
38 27 c21 15 51 37 66 49 l28 23 -53 52 -53 52 -37 -58z"/>
<path d="M13791 18701 c-35 -38 -61 -118 -61 -191 0 -31 -9 -125 -21 -209 -20
-149 -20 -153 -2 -184 17 -29 24 -32 72 -35 49 -3 54 -1 92 37 l40 40 -5 250
c-6 281 -14 321 -61 321 -17 0 -37 -11 -54 -29z"/>
<path d="M13124 18150 c-69 -34 -138 -99 -129 -122 5 -13 24 -11 138 19 158
40 185 50 197 74 8 14 4 22 -16 38 -41 32 -116 28 -190 -9z"/>
<path d="M15167 18064 c-118 -67 -191 -133 -313 -283 -91 -111 -122 -166 -110
-196 3 -8 31 -26 62 -40 l58 -25 52 34 c59 40 53 32 176 220 56 87 118 167
163 212 75 75 98 117 69 128 -34 13 -63 4 -157 -50z"/>
<path d="M15600 18076 c-153 -53 -208 -90 -236 -155 -31 -74 -3 -181 48 -181
13 0 70 23 127 50 79 38 107 48 117 39 16 -13 86 -3 126 17 91 47 102 196 17
239 -40 21 -124 17 -199 -9z"/>
<path d="M12393 17776 c-23 -8 -57 -23 -76 -35 -44 -27 -192 -182 -213 -223
-22 -43 -11 -76 31 -94 57 -24 99 -19 460 46 141 25 290 61 311 75 20 13 24
24 24 61 0 40 -5 51 -38 84 -44 45 -73 54 -252 80 -155 23 -189 24 -247 6z"/>
<path d="M14356 17724 c-80 -29 -146 -93 -176 -172 -18 -47 -20 -80 -23 -291
-2 -235 -2 -238 -27 -274 -14 -20 -30 -37 -36 -37 -22 0 -74 70 -115 156 -85
180 -119 214 -196 199 -43 -8 -103 -63 -103 -94 0 -12 7 -37 14 -56 19 -44
141 -224 223 -328 34 -44 70 -99 79 -123 15 -40 15 -47 0 -93 -9 -27 -16 -55
-16 -62 0 -17 248 -346 266 -353 30 -12 101 -6 114 9 12 14 11 32 -6 142 -5
36 -3 43 16 53 48 25 142 47 269 60 127 14 189 48 298 166 100 107 115 134
101 176 -11 31 -49 54 -137 83 -43 14 -74 17 -146 12 -55 -3 -99 -1 -110 5
-55 29 -105 103 -105 153 0 40 27 84 57 91 16 4 65 -2 122 -16 166 -41 246
-31 328 40 20 18 70 40 135 60 57 17 154 49 217 71 178 62 247 53 348 -42 54
-51 55 -51 101 -44 26 3 61 7 77 8 l30 2 0 -65 c1 -90 0 -87 52 -120 37 -24
58 -30 100 -30 117 0 194 74 248 238 16 51 16 56 0 100 -10 26 -19 48 -20 50
-1 1 -26 -9 -56 -23 -30 -14 -71 -25 -91 -25 -34 0 -39 4 -81 68 -47 69 -213
226 -289 271 -67 40 -211 27 -242 -22 -8 -12 -24 -58 -36 -102 -33 -124 -42
-128 -170 -91 -71 20 -201 20 -271 0 -30 -9 -99 -36 -154 -61 -131 -60 -204
-85 -227 -77 -31 9 -40 49 -27 116 19 94 5 94 -98 -1 l-88 -81 -9 31 c-7 22
-5 62 7 133 21 124 21 155 1 184 -12 18 -24 22 -62 21 -26 0 -65 -7 -86 -15z"/>
<path d="M13396 17694 c-30 -31 -32 -44 -11 -83 17 -34 105 -81 150 -81 46 0
79 39 71 83 -7 40 -37 70 -88 92 -55 22 -91 19 -122 -11z"/>
<path d="M12245 17275 c-100 -22 -254 -85 -276 -114 -24 -30 -20 -65 12 -118
47 -76 124 -81 237 -15 161 92 268 108 497 72 215 -34 231 -35 238 -16 8 20
-54 58 -142 86 -35 11 -98 35 -140 54 -42 20 -103 42 -136 51 -71 18 -207 18
-290 0z"/>
<path d="M13116 17088 c-9 -12 -16 -41 -16 -64 0 -34 9 -54 45 -102 67 -92
109 -106 144 -49 20 33 20 34 2 93 -27 89 -46 120 -82 133 -48 17 -76 13 -93
-11z"/>
<path d="M13550 16679 c0 -5 -24 -9 -54 -9 -69 0 -106 -26 -106 -75 0 -29 12
-46 78 -113 91 -94 116 -103 210 -73 85 26 150 66 158 96 11 44 -4 73 -49 96
-60 31 -237 89 -237 78z"/>
<path d="M14075 16221 c-3 -6 2 -48 11 -95 16 -80 19 -86 42 -86 23 0 24 2 19
43 -15 104 -28 147 -47 147 -10 0 -21 -4 -25 -9z"/>
<path d="M14267 16038 c-13 -18 -47 -72 -76 -121 -111 -191 -119 -220 -76
-283 31 -45 31 -75 4 -159 -36 -108 -74 -133 -152 -100 -54 22 -94 61 -113
111 -14 37 -16 65 -11 159 5 89 3 122 -9 150 -8 19 -16 35 -18 35 -1 0 -17 -5
-34 -11 -29 -10 -93 -103 -374 -550 -37 -58 -44 -65 -174 -159 -171 -125 -284
-252 -629 -710 -186 -248 -254 -329 -360 -435 -222 -219 -345 -402 -559 -825
-153 -302 -215 -443 -321 -725 -46 -121 -106 -281 -135 -355 -111 -291 -114
-303 -285 -1005 -73 -300 -85 -353 -105 -464 -19 -103 -41 -152 -91 -197 -19
-18 -21 -17 -59 26 -22 25 -48 64 -59 87 -22 47 -66 82 -218 173 -132 79 -139
96 -73 176 23 27 73 110 111 184 58 110 83 146 136 197 105 103 143 218 109
336 -20 69 -63 127 -141 187 -33 26 -68 61 -78 78 -28 47 -23 121 13 224 33
96 36 130 18 189 -11 37 -9 42 26 93 48 69 60 114 46 165 -15 58 -135 283
-166 312 l-26 24 -30 -34 -31 -34 7 -172 c9 -207 9 -207 -117 -255 -165 -64
-167 -76 -26 -209 110 -104 139 -148 139 -212 0 -62 -25 -94 -105 -135 -105
-56 -208 -128 -248 -175 -40 -46 -67 -114 -67 -168 0 -20 -11 -56 -24 -81 -17
-34 -29 -46 -50 -48 -39 -5 -52 11 -59 71 -15 122 -60 195 -136 218 -34 10
-57 10 -124 -1 -45 -7 -97 -13 -116 -13 -42 1 -154 76 -216 145 -89 99 -106
154 -249 788 -111 492 -123 541 -162 703 -35 142 -63 205 -86 191 -15 -9 -2
-380 17 -499 8 -49 26 -124 40 -165 26 -76 65 -268 109 -545 35 -217 39 -279
24 -360 -7 -38 -13 -99 -13 -135 0 -106 50 -154 179 -170 82 -10 109 -25 135
-71 35 -62 62 -151 55 -182 -7 -35 -34 -52 -136 -88 -77 -27 -84 -28 -93 -12
-37 63 -87 86 -241 107 -104 14 -162 44 -190 98 -9 18 -27 74 -39 124 -27 109
-54 164 -94 195 -27 22 -44 64 -155 404 -167 509 -186 568 -251 795 -43 152
-64 207 -92 248 -42 62 -47 65 -73 57 -18 -6 -20 -15 -20 -84 0 -101 45 -263
260 -931 105 -327 160 -536 160 -611 0 -37 -8 -70 -25 -104 -32 -67 -33 -124
0 -159 13 -14 29 -26 34 -26 22 0 91 -73 130 -139 50 -82 61 -117 61 -196 0
-77 -18 -105 -66 -105 -29 0 -45 10 -88 50 -78 74 -99 77 -193 29 -142 -72
-167 -57 -285 174 -53 104 -111 199 -162 267 -76 101 -137 212 -150 276 -21
98 -324 987 -384 1125 -20 45 -53 79 -78 79 -19 0 -45 -87 -34 -113 5 -12 23
-69 41 -127 104 -350 237 -787 266 -870 14 -41 39 -100 54 -130 16 -30 40 -95
54 -144 25 -86 77 -203 115 -255 23 -34 42 -91 75 -231 35 -146 58 -191 139
-272 72 -71 77 -88 52 -155 -8 -21 -24 -73 -37 -115 -12 -43 -25 -78 -28 -78
-15 0 -102 30 -129 44 -17 9 -45 36 -63 61 -18 25 -36 45 -39 45 -4 0 -40 30
-79 66 -83 77 -163 180 -255 330 -37 60 -106 154 -153 209 -47 55 -93 116
-103 135 -28 56 -151 403 -235 665 -217 681 -227 709 -256 737 -36 36 -54 35
-69 -3 -11 -25 -10 -47 3 -127 16 -100 35 -162 107 -362 61 -168 187 -577 270
-873 l73 -258 104 -177 c58 -97 128 -222 155 -277 70 -139 125 -222 208 -311
58 -63 83 -101 136 -209 42 -86 71 -162 85 -221 20 -89 43 -165 72 -239 20
-51 21 -155 2 -248 -13 -66 -29 -208 -54 -488 -6 -62 -19 -128 -31 -158 -35
-89 -23 -155 44 -232 49 -58 51 -85 12 -176 -86 -202 -115 -240 -306 -407
-237 -208 -437 -363 -476 -371 -99 -18 -237 -103 -291 -177 -28 -40 -47 -51
-185 -112 -368 -165 -540 -254 -1066 -554 -186 -106 -297 -176 -348 -220 -122
-103 -473 -459 -556 -562 -97 -122 -261 -356 -306 -440 -20 -36 -65 -114 -102
-175 -111 -186 -159 -329 -167 -497 -4 -78 -9 -108 -18 -108 -16 0 -218 76
-435 164 -490 199 -1031 463 -1344 658 -43 27 -80 47 -83 45 -2 -2 33 -134 78
-293 71 -254 328 -1176 499 -1789 32 -115 102 -365 155 -555 136 -486 248
-890 360 -1290 52 -190 98 -353 101 -363 13 -44 486 -243 944 -398 2091 -710
4786 -995 7685 -814 1791 112 3504 433 4725 885 164 60 370 146 383 159 9 9
1308 4553 1303 4558 -2 2 -47 -24 -100 -57 -363 -228 -961 -521 -1541 -755
-226 -91 -556 -215 -574 -215 -5 0 -23 58 -40 129 -18 71 -46 172 -62 223 -36
109 -82 302 -100 409 -10 62 -10 118 1 293 19 309 4 480 -60 701 -16 55 -46
161 -66 235 -44 160 -74 236 -139 350 -99 175 -208 321 -353 473 -67 71 -113
128 -128 161 l-24 52 10 1394 c6 767 12 1654 13 1970 3 490 7 588 21 665 24
125 39 153 110 193 100 58 171 145 255 308 51 102 55 162 15 257 -75 176 -113
330 -134 537 -6 62 -22 142 -40 195 -57 177 -76 270 -135 664 -34 223 -33 240
17 363 53 133 61 222 28 313 -31 84 -63 199 -94 340 -21 97 -33 130 -65 177
-60 89 -66 129 -41 278 11 69 20 135 20 148 0 29 -30 29 -56 0 -34 -37 -106
-78 -141 -78 -27 0 -46 12 -103 64 -80 74 -139 99 -240 102 -36 1 -70 2 -75 3
-6 1 -16 10 -23 21 -11 18 -8 22 27 40 67 34 137 139 148 220 6 43 -23 117
-77 195 -39 56 -68 60 -103 13z m0 -958 c109 -218 132 -283 119 -334 -15 -60
-117 -51 -356 31 -95 33 -120 46 -145 73 -11 13 -42 40 -68 61 -48 38 -49 39
-80 23 -18 -9 -56 -34 -85 -56 -116 -87 -146 -179 -77 -242 30 -28 35 -39 35
-77 1 -57 24 -106 97 -202 32 -42 67 -101 77 -130 10 -28 49 -118 87 -199 74
-159 105 -258 169 -541 57 -251 70 -329 70 -425 l0 -83 -30 21 c-43 31 -87
112 -100 186 -6 39 -45 144 -99 266 -191 442 -212 485 -250 522 l-37 37 -27
-48 c-24 -46 -26 -60 -36 -276 -6 -126 -11 -272 -11 -324 0 -101 -15 -172 -38
-180 -32 -13 -37 15 -37 215 l0 197 -34 53 -34 53 18 82 c51 242 107 462 130
506 33 66 32 88 -7 147 -30 44 -33 56 -33 125 0 85 -9 102 -61 119 -19 7 -38
19 -43 28 -21 39 15 362 39 362 4 0 27 -17 51 -38 84 -74 114 -77 210 -19 30
18 114 66 188 107 106 59 145 87 185 133 82 92 80 93 213 -173z m-310 -562
c25 -26 38 -56 61 -140 16 -59 37 -119 46 -133 26 -39 90 -65 164 -65 102 0
125 -19 224 -177 38 -62 76 -113 84 -113 17 0 17 1 -1 97 -8 43 -15 108 -15
145 0 94 22 117 155 164 55 19 110 38 122 41 34 8 71 -5 88 -31 20 -30 37
-183 29 -259 -8 -72 -33 -105 -108 -140 -62 -30 -81 -56 -72 -100 9 -46 24
-57 73 -57 65 0 94 -33 117 -135 10 -44 43 -179 72 -300 29 -121 56 -238 59
-260 15 -94 31 -422 23 -453 -12 -43 -46 -57 -153 -66 -163 -14 -230 23 -279
151 -44 115 -116 163 -182 123 -19 -12 -34 -23 -34 -26 0 -2 16 -25 36 -51 70
-92 69 -88 50 -310 -9 -108 -19 -199 -21 -201 -2 -3 -17 9 -32 25 -38 40 -69
56 -96 47 -12 -4 -50 -33 -84 -64 -34 -32 -78 -63 -98 -70 -78 -26 -169 11
-207 84 -19 34 -23 62 -26 162 -5 146 7 198 97 414 47 114 64 145 78 143 10 0
41 -4 70 -8 41 -6 58 -4 78 9 35 23 33 69 -11 191 -55 153 -79 266 -109 509
-13 107 -10 206 5 206 4 0 13 -7 20 -15 36 -43 132 -117 141 -108 11 11 -87
324 -105 335 -18 12 -19 11 -69 -77 -27 -47 -52 -85 -56 -85 -4 0 -24 15 -44
33 -37 34 -66 99 -142 321 -31 91 -36 119 -32 163 5 47 32 113 47 113 3 0 20
-15 37 -32z m-1094 -384 c84 -29 160 -139 232 -337 47 -131 75 -237 75 -294 0
-17 -11 -88 -25 -156 -18 -90 -28 -190 -37 -360 -12 -232 -12 -235 10 -287 30
-73 28 -105 -17 -217 -54 -137 -85 -240 -115 -379 -41 -198 -62 -347 -57 -421
0 -13 34 -57 76 -102 72 -77 75 -83 75 -128 0 -27 -5 -65 -11 -86 -6 -21 -7
-52 -4 -68 6 -25 11 -29 38 -29 24 0 64 23 162 91 131 91 321 194 382 205 49
9 81 -3 98 -36 30 -58 33 -56 -268 -209 -155 -79 -283 -145 -285 -146 -2 -2
24 -60 56 -131 81 -177 87 -196 72 -249 -29 -103 -153 -151 -219 -84 -32 32
-82 130 -121 239 -13 36 -25 67 -27 69 -3 5 -143 -87 -260 -171 -74 -53 -83
-63 -90 -101 -11 -51 -5 -55 89 -56 80 -1 103 -9 171 -60 105 -79 195 -111
307 -111 101 0 162 28 213 98 20 27 37 54 37 60 0 5 17 34 37 63 61 90 74 136
72 260 -3 143 8 161 129 220 60 29 82 31 82 6 0 -15 -81 -240 -140 -387 -67
-170 -105 -233 -180 -304 -145 -137 -341 -186 -532 -135 -43 12 -84 19 -92 16
-8 -3 -29 -33 -47 -67 -41 -77 -117 -160 -147 -160 -41 0 -62 53 -62 155 0 58
4 95 12 103 7 7 38 12 69 12 82 0 109 12 109 50 0 42 -35 63 -98 58 -42 -3
-53 1 -87 30 -22 17 -46 32 -53 32 -17 0 -68 -54 -88 -93 -9 -16 -41 -54 -73
-86 -48 -47 -64 -73 -101 -161 -24 -57 -66 -138 -93 -178 -64 -95 -152 -161
-179 -134 -7 7 13 35 64 89 97 102 118 154 118 291 0 125 14 154 95 203 43 26
66 48 82 79 44 82 26 107 -92 130 -33 6 -89 17 -125 24 l-65 12 140 93 c77 51
169 108 206 126 125 63 160 140 104 230 -32 52 -32 102 0 165 43 85 57 154 49
255 -7 106 1 143 59 270 35 77 41 100 41 160 0 39 -3 92 -8 118 -8 44 -6 54
30 130 l39 82 -3 361 c-4 387 0 432 45 534 43 98 44 117 17 350 -31 256 -29
332 8 413 15 31 33 57 41 57 7 0 35 -7 60 -16z m1383 -2145 c20 -17 76 -137
72 -155 -2 -13 -223 -113 -249 -114 -4 0 -13 38 -20 85 -14 95 -5 148 31 180
37 34 128 36 166 4z m404 -298 c101 -38 160 -103 160 -176 0 -68 -49 -139
-218 -318 -56 -60 -110 -123 -119 -141 -20 -36 -22 -118 -9 -278 8 -103 8
-108 -11 -108 -16 0 -22 14 -37 88 -20 100 -49 172 -68 172 -22 0 -70 -34
-146 -103 -39 -37 -76 -67 -81 -67 -26 0 -44 17 -66 61 -25 48 -25 49 -25 367
l0 318 28 27 c29 28 223 116 355 162 83 30 152 28 237 -4z m-4340 -319 c0 -5
8 -49 19 -98 41 -195 37 -220 -39 -263 -37 -21 -51 -23 -114 -18 -75 5 -101
-2 -125 -36 -11 -16 -21 -18 -60 -13 -50 7 -139 38 -184 64 -30 18 -167 180
-192 228 -8 16 -15 39 -15 52 0 20 4 22 58 22 34 -1 65 -6 76 -15 11 -8 32
-15 48 -15 40 0 68 -32 68 -78 0 -47 22 -80 66 -98 78 -33 116 -8 178 115 24
47 55 96 69 109 32 30 147 64 147 44z m4495 -172 c17 -37 18 -104 19 -1072 1
-984 0 -1036 -18 -1095 -28 -95 -41 -85 -81 67 -2 8 -18 121 -35 250 -16 129
-34 264 -40 300 -5 36 -14 101 -19 145 -13 91 -34 240 -57 400 -18 119 -14
177 26 350 10 44 23 123 30 175 6 52 25 157 41 233 16 76 29 151 29 167 0 18
13 44 38 74 20 24 40 45 43 45 3 1 14 -17 24 -39z m-5383 -198 c39 -85 45
-104 32 -109 -18 -7 -73 31 -105 71 -29 37 -36 101 -14 151 l17 40 11 -25 c6
-14 33 -71 59 -128z m-327 44 c12 -18 15 -44 13 -103 l-3 -80 -72 35 c-73 35
-82 47 -67 87 7 17 91 85 105 85 5 0 16 -11 24 -24z m-488 -98 c12 -13 62 -95
111 -183 49 -88 106 -187 126 -219 56 -93 60 -168 11 -223 l-25 -28 -19 25
c-16 19 -19 34 -14 67 8 59 -20 126 -77 188 -42 44 -54 69 -104 208 -31 86
-56 164 -56 172 0 22 23 18 47 -7z m-110 -180 c63 -84 62 -82 12 -74 -24 4
-53 15 -63 26 -17 17 -18 23 -7 60 6 22 13 40 15 40 2 0 21 -24 43 -52z m1066
-86 c44 -84 69 -162 106 -328 34 -148 32 -169 -21 -255 -32 -53 -78 -216 -78
-280 0 -62 -24 -107 -64 -124 -48 -20 -90 -19 -110 4 -17 19 -16 24 32 128
119 257 145 419 107 682 -19 129 -29 163 -62 201 -21 26 -24 36 -18 72 l8 43
32 -38 c18 -21 49 -68 68 -105z m-1140 -11 c64 -57 94 -67 143 -46 21 8 39 13
42 11 11 -12 -11 -76 -35 -100 -39 -39 -87 -35 -197 17 -124 59 -151 112 -76
149 51 26 64 23 123 -31z m1906 -106 c72 -36 192 -169 177 -194 -5 -7 -35 -17
-124 -41 -32 -8 -48 -19 -60 -42 -29 -53 -60 -84 -116 -119 -31 -18 -58 -39
-61 -47 -3 -8 3 -29 14 -47 l19 -33 -25 -39 c-46 -69 -95 -112 -152 -134 -31
-11 -92 -42 -136 -69 -100 -60 -180 -89 -196 -73 -14 14 21 207 49 277 18 44
110 201 167 286 41 61 44 98 14 154 -11 22 -24 61 -28 88 l-8 49 26 -6 c93
-21 133 -39 144 -64 6 -14 12 -28 14 -30 2 -3 23 14 47 38 71 69 157 87 235
46z m1597 -120 c21 -39 21 -42 5 -121 -9 -44 -24 -93 -34 -108 -24 -36 -76
-67 -107 -64 -29 4 -78 68 -89 120 -12 50 4 147 27 170 27 27 90 48 137 45 35
-2 42 -6 61 -42z m-2537 -11 c112 -56 118 -131 24 -273 -26 -39 -38 -68 -41
-105 -3 -37 -12 -59 -31 -81 -15 -16 -51 -61 -80 -98 l-52 -68 40 -44 c45 -49
52 -85 26 -134 -24 -47 -260 -215 -292 -209 -39 7 -39 31 0 230 31 155 41 237
52 413 7 121 18 233 25 250 49 126 203 181 329 119z m-1421 -28 c43 -23 69
-56 102 -135 49 -115 59 -157 70 -281 5 -63 18 -142 29 -175 l19 -59 21 34
c28 46 39 88 50 198 13 120 37 176 87 197 77 32 223 85 268 97 41 11 50 10 83
-7 20 -11 49 -32 65 -47 28 -26 31 -26 53 -12 40 26 35 1 -15 -86 l-49 -85 47
-21 c73 -33 86 -53 78 -121 -4 -31 -18 -89 -32 -127 -48 -130 -57 -175 -45
-219 6 -27 6 -47 0 -59 -18 -33 -39 -112 -39 -145 0 -21 10 -44 29 -65 22 -26
29 -46 33 -90 3 -35 1 -58 -5 -58 -6 0 -50 8 -99 17 l-88 17 0 145 0 146 41
104 c46 119 43 135 -21 106 -78 -35 -150 -150 -150 -240 0 -65 -26 -124 -67
-153 -48 -33 -68 -35 -121 -8 -73 37 -75 41 -67 151 9 116 -1 221 -21 229 -20
8 -42 -3 -48 -22 -3 -10 -10 -60 -16 -112 -13 -107 -28 -163 -76 -264 -46 -99
-46 -99 -77 -87 -26 10 -27 13 -27 87 0 59 7 100 31 173 47 144 60 246 47 361
-8 67 -8 115 0 165 l10 70 -100 179 -100 179 23 18 c29 22 42 23 77 5z m3464
-261 c29 -22 57 -54 72 -84 14 -26 37 -62 51 -79 28 -33 117 -72 164 -72 40 0
91 -11 91 -20 0 -8 -64 -36 -102 -44 -40 -9 -118 11 -155 40 -18 14 -48 49
-67 77 -40 63 -85 103 -126 112 -19 4 -36 17 -45 35 -20 39 -19 49 8 60 39 15
61 10 109 -25z m1305 -13 c12 -8 33 -184 33 -280 0 -80 -60 -110 -163 -81 -55
15 -70 45 -65 126 3 59 10 78 48 141 24 41 53 80 64 88 22 15 64 18 83 6z
m1470 -36 c21 -18 48 -38 60 -45 47 -25 119 -9 182 40 13 11 27 19 30 19 4 0
12 -48 19 -107 7 -60 22 -164 32 -233 83 -540 114 -755 149 -1040 27 -219 41
-444 41 -687 0 -180 -3 -263 -11 -263 -21 0 -56 25 -159 114 -285 247 -350
365 -350 640 0 138 -20 380 -50 606 -41 300 -49 423 -50 688 0 249 1 263 20
282 28 28 44 25 87 -14z m-6377 -53 c82 -54 124 -125 142 -236 9 -61 8 -96 -6
-203 -20 -148 -32 -179 -110 -288 -31 -43 -67 -99 -80 -124 l-24 -46 -21 34
c-39 64 -45 107 -27 185 29 125 23 169 -50 351 -57 142 -59 193 -11 256 37 48
99 88 137 88 14 0 37 -7 50 -17z m2654 -145 c29 -33 36 -50 36 -82 0 -45 -34
-104 -44 -76 -15 43 -43 200 -36 200 5 0 25 -19 44 -42z m2447 -228 c29 -16
61 -87 66 -150 5 -50 3 -59 -22 -88 -32 -38 -65 -41 -129 -11 -48 22 -80 53
-90 85 -8 27 50 109 105 146 48 32 44 31 70 18z m-3067 -49 c25 -11 61 -23 81
-27 47 -9 65 -28 65 -71 0 -62 -26 -100 -89 -129 -31 -14 -71 -33 -90 -42 -19
-9 -66 -53 -105 -97 -99 -111 -186 -198 -366 -363 -85 -78 -166 -160 -180
-183 -34 -57 -92 -103 -119 -94 -11 3 -37 26 -57 51 -32 38 -35 48 -26 68 7
17 22 25 50 30 32 5 49 16 79 52 21 25 54 65 73 87 68 81 70 84 25 57 -254
-150 -353 -218 -371 -252 -20 -40 -17 -81 12 -150 39 -92 20 -129 -50 -97 -37
17 -160 -43 -229 -113 -56 -57 -157 -200 -157 -224 0 -31 -18 -11 -29 31 -9
34 -17 46 -35 51 -43 10 -70 0 -93 -36 -49 -76 -53 -80 -87 -80 -18 0 -54 9
-80 21 -74 32 -93 21 -242 -142 -141 -155 -157 -169 -193 -169 -31 0 -88 36
-96 60 -18 56 54 165 170 259 40 32 125 91 190 131 127 80 140 95 232 267 24
44 51 87 59 94 36 30 144 1 144 -39 0 -9 -22 -53 -49 -97 -28 -44 -49 -81 -47
-82 1 -2 26 4 55 13 62 18 113 65 161 148 68 120 182 243 312 339 37 27 52 57
82 167 22 79 49 116 103 144 27 13 96 61 153 106 106 83 168 119 205 120 12 0
63 13 114 29 78 25 91 27 86 13 -4 -10 -20 -52 -36 -95 -42 -113 -50 -126
-118 -188 -64 -59 -73 -82 -50 -133 l12 -25 61 41 c91 62 221 192 281 283 55
84 69 119 80 198 6 45 32 87 54 87 5 0 30 -9 55 -19z m910 -27 c4 -15 6 -27 4
-28 -2 -2 -29 -12 -61 -24 -62 -23 -77 -22 -77 7 0 12 19 27 58 44 31 15 60
27 63 27 4 0 10 -12 13 -26z m2016 -308 c0 -28 -16 -36 -71 -36 -35 0 -39 3
-39 24 0 22 5 25 43 29 23 2 48 4 55 5 7 1 12 -9 12 -22z m-2127 -57 c40 -6
140 -30 222 -54 251 -74 514 -135 625 -146 58 -6 180 -13 272 -16 193 -6 260
5 472 83 166 61 176 62 218 25 19 -17 97 -119 173 -228 76 -109 175 -247 220
-308 94 -127 119 -143 273 -182 53 -13 104 -31 114 -40 21 -19 38 -73 38 -124
0 -54 30 -84 118 -117 123 -47 180 -55 337 -48 166 8 264 -6 375 -53 88 -37
181 -101 223 -154 l31 -37 -34 -35 c-18 -19 -49 -40 -68 -46 -34 -11 -207 -8
-397 7 -74 6 -82 5 -100 -16 -18 -19 -18 -24 -5 -47 45 -78 330 -156 487 -133
112 16 113 16 113 -29 0 -43 -15 -67 -99 -154 -99 -103 -125 -107 -286 -42
-176 71 -919 285 -990 285 -24 0 -40 -9 -67 -40 -41 -45 -69 -55 -144 -47 -49
5 -54 4 -54 -14 0 -10 5 -19 10 -19 6 0 61 -24 123 -52 110 -52 114 -53 207
-53 53 -1 104 -6 116 -13 12 -6 31 -32 43 -56 27 -58 51 -73 131 -79 73 -5
124 -27 185 -80 l40 -35 -67 -7 c-91 -10 -145 0 -198 35 -74 49 -107 36 -116
-46 -6 -48 -5 -53 19 -69 19 -12 37 -15 71 -10 65 10 88 2 157 -60 39 -35 70
-55 86 -55 17 0 45 20 87 60 105 100 135 105 406 66 132 -20 420 -87 439 -103
7 -6 -33 -45 -64 -61 -25 -13 -66 -16 -230 -17 l-200 0 -88 -39 c-48 -21 -89
-42 -92 -47 -3 -4 -3 -20 1 -35 l7 -26 111 6 c61 3 128 9 149 12 34 6 40 3 83
-40 33 -34 51 -45 67 -42 100 21 138 32 179 52 55 28 82 30 133 8 60 -25 145
4 203 71 40 45 40 46 52 248 9 156 8 172 -9 205 -10 21 -26 83 -35 138 -9 56
-23 121 -31 145 -10 27 -13 58 -9 84 l6 41 51 -6 c45 -6 56 -13 98 -58 82 -90
119 -192 119 -335 0 -77 4 -95 30 -146 29 -58 29 -59 9 -77 -21 -19 -18 -46 7
-75 19 -22 17 -73 -7 -144 -11 -33 -22 -98 -25 -145 -9 -125 12 -390 41 -531
24 -119 30 -209 16 -259 -7 -27 42 -206 63 -226 6 -7 44 -19 85 -28 110 -25
179 -66 233 -140 35 -49 37 -90 4 -111 -22 -14 -32 -14 -117 1 -133 23 -229
28 -259 12 -14 -7 -33 -30 -43 -50 -16 -32 -17 -49 -8 -169 32 -427 56 -798
50 -803 -2 -2 -13 -6 -24 -8 -17 -2 -21 4 -26 47 -4 28 -15 70 -24 95 -18 49
-25 162 -29 515 -4 242 -21 365 -59 402 -17 18 -44 26 -127 38 -58 9 -144 25
-192 36 -48 11 -100 19 -115 17 l-28 -3 0 -95 c0 -79 -3 -95 -16 -98 -18 -3
-59 79 -59 118 0 44 -39 66 -135 75 -100 10 -300 12 -535 5 -97 -3 -181 0
-225 7 -99 17 -378 44 -455 44 -36 0 -92 0 -125 1 -33 1 -94 -2 -135 -6 -73
-8 -79 -7 -150 25 l-75 34 -224 -3 -223 -3 -127 -41 c-94 -30 -148 -42 -213
-46 -96 -5 -127 -21 -86 -44 17 -9 55 -12 138 -9 205 7 234 6 267 -8 31 -13
32 -15 27 -60 -14 -121 -25 -151 -70 -202 -24 -27 -44 -59 -44 -70 0 -76 221
-133 281 -72 17 17 19 25 10 61 -5 24 -29 73 -52 109 -43 65 -44 69 -44 147
l0 81 268 3 c266 2 268 2 262 -18 -4 -13 4 -38 23 -73 70 -123 65 -188 -20
-259 -81 -68 -95 -86 -107 -134 -7 -26 -10 -49 -7 -52 3 -2 38 7 78 21 111 38
136 42 159 21 23 -21 24 -45 4 -149 -23 -123 -38 -136 -135 -119 -26 4 -41 1
-60 -14 -14 -11 -81 -100 -150 -198 -74 -105 -140 -189 -163 -205 -45 -32
-113 -49 -201 -49 -77 0 -91 -12 -82 -70 3 -22 11 -51 18 -65 11 -25 12 -25
144 -25 l133 0 58 -47 c109 -88 132 -111 120 -121 -7 -5 -46 -27 -87 -49 -56
-30 -91 -42 -140 -47 -36 -4 -86 -9 -111 -13 -47 -5 -47 -5 -53 28 -20 104
-38 151 -52 137 -3 -4 -11 -44 -17 -90 l-12 -83 -38 -9 c-20 -5 -40 -7 -43 -3
-4 3 -15 76 -25 161 -21 165 -37 229 -61 234 -33 6 -43 -47 -43 -220 0 -136
-3 -170 -15 -181 -9 -9 -47 -17 -93 -21 -75 -6 -78 -5 -88 18 -8 17 -8 38 0
75 15 69 -4 124 -59 169 -22 19 -47 47 -56 63 -20 39 -81 344 -100 494 -8 66
-23 181 -33 255 -30 211 -32 231 -32 393 0 196 -5 204 -152 214 -93 6 -170 -6
-254 -39 -47 -19 -61 -30 -76 -60 -17 -34 -17 -45 -6 -111 11 -67 11 -77 -7
-112 -10 -22 -39 -53 -64 -70 -37 -26 -46 -38 -48 -67 -3 -29 2 -40 29 -63 33
-27 71 -30 120 -10 14 5 18 -10 28 -102 25 -225 33 -296 72 -583 21 -162 48
-342 59 -400 11 -58 20 -106 20 -107 0 -2 -18 -3 -39 -3 -46 0 -40 -25 -66
255 -22 232 -23 240 -55 270 l-27 26 -28 -37 c-28 -36 -28 -37 -22 -144 6
-104 6 -108 -21 -148 -14 -23 -29 -42 -33 -42 -17 0 -69 73 -88 124 -27 72
-42 204 -32 288 6 60 13 76 66 153 91 130 108 162 101 190 -11 44 -47 42 -150
-9 -65 -32 -106 -46 -135 -46 l-41 0 6 58 6 57 -41 23 c-29 17 -50 22 -70 17
-17 -4 -44 0 -65 9 -29 12 -42 26 -60 68 -13 29 -34 63 -47 74 -80 72 -130 48
-144 -68 -4 -32 -11 -58 -15 -58 -4 0 -19 17 -32 38 -14 20 -38 50 -54 65 -27
28 -32 29 -106 25 -92 -4 -87 -19 -59 168 20 132 41 187 84 218 l27 20 27 -27
c25 -25 27 -33 28 -112 0 -78 2 -87 27 -111 21 -22 39 -28 96 -33 52 -5 79
-13 109 -34 59 -41 114 -35 171 16 35 32 28 68 -36 176 -32 54 -64 117 -72
140 -20 61 -1 74 120 90 93 12 161 22 269 42 49 8 70 21 71 40 0 3 -73 9 -162
12 -90 4 -194 13 -232 20 -76 16 -53 19 -371 -56 -82 -19 -208 -47 -280 -62
-211 -44 -312 -79 -619 -215 -183 -80 -351 -147 -451 -178 -239 -75 -244 -77
-429 -167 -94 -45 -295 -129 -446 -185 -151 -56 -358 -142 -460 -190 -194 -92
-278 -125 -472 -185 -109 -33 -121 -39 -154 -80 -42 -50 -55 -56 -189 -100
-55 -18 -128 -45 -162 -59 l-62 -26 -142 30 c-78 16 -145 33 -148 36 -3 3 -10
42 -16 87 -10 79 -11 83 -44 99 -47 23 -63 12 -103 -71 -21 -46 -39 -70 -50
-70 -17 -1 -293 72 -332 88 -18 7 -17 9 10 28 17 12 154 91 306 176 260 146
282 156 355 167 111 17 207 55 415 165 130 68 199 99 239 106 71 11 108 27
206 85 142 84 320 165 687 315 93 38 204 91 247 119 61 39 98 55 166 70 174
40 219 58 724 298 162 77 332 152 379 167 47 16 144 53 215 82 306 128 435
176 534 199 58 13 115 28 126 33 11 5 63 46 115 91 181 157 225 177 424 190
226 15 322 -10 435 -114 55 -50 65 -56 105 -56 36 0 52 7 92 40 79 65 81 65
545 62 l416 -4 20 26 c15 19 22 47 27 123 8 116 14 143 31 143 14 0 26 -45 45
-163 23 -142 56 -182 133 -158 73 22 110 23 187 1 84 -23 259 -35 705 -48 291
-9 316 -14 351 -67 10 -16 35 -30 72 -40 75 -22 210 -93 223 -117 5 -10 9 -38
7 -62 l-3 -44 -37 13 c-21 7 -53 26 -72 43 -42 36 -98 56 -134 47 -15 -3 -49
-21 -77 -38 -45 -29 -57 -32 -128 -32 l-79 -1 -44 -46 c-60 -64 -59 -91 6
-152 48 -44 51 -46 112 -46 35 -1 87 -9 118 -20 30 -10 57 -17 59 -14 2 2 -5
14 -17 27 -25 27 -42 69 -42 106 0 33 62 97 108 110 65 19 134 -24 168 -106
15 -34 10 -57 -35 -153 -31 -69 -28 -74 31 -44 90 46 149 44 308 -9 74 -24
175 -50 223 -57 l88 -13 47 45 c61 58 101 88 119 88 8 0 35 -20 61 -44 46 -42
90 -71 97 -64 11 11 43 93 40 102 -29 95 -48 146 -56 146 -13 0 -87 -38 -121
-61 -31 -23 -61 -24 -77 -5 -19 23 -16 177 4 216 21 40 84 69 151 70 34 0 56
5 64 15 17 20 8 143 -20 286 -18 92 -24 108 -54 135 -53 50 -237 106 -299 90
-23 -5 -26 -13 -33 -62 -8 -68 0 -185 16 -213 8 -15 21 -21 47 -21 31 0 43 8
98 67 47 50 66 65 80 59 15 -5 17 -14 11 -69 -12 -105 -36 -158 -180 -391 -64
-103 -99 -141 -125 -131 -54 20 -174 99 -228 148 -63 60 -133 175 -133 221 0
14 -28 45 -83 92 -56 49 -92 89 -111 125 -34 63 -79 114 -121 136 -16 9 -65
48 -107 86 -148 134 -302 223 -498 285 -309 98 -585 98 -759 1 -129 -73 -129
-73 -155 -55 -13 8 -39 36 -58 62 -25 35 -79 77 -223 174 l-191 127 -99 6
c-112 8 -191 26 -271 64 -52 24 -84 25 -84 3 0 -6 23 -35 50 -63 28 -29 53
-62 57 -75 11 -47 -109 -250 -176 -296 -99 -69 -287 -118 -456 -119 -123 -2
-174 14 -229 69 -65 65 -90 190 -66 332 10 59 21 87 66 155 29 45 54 92 54
104 0 24 -8 27 -95 37 -84 10 -138 34 -256 112 -170 112 -281 138 -489 115
-226 -26 -378 -94 -575 -256 -85 -71 -263 -193 -461 -318 -131 -83 -179 -128
-219 -206 -57 -114 -60 -129 -57 -357 l3 -211 -32 -7 c-46 -9 -124 -7 -152 3
-53 21 -59 135 -11 236 13 28 48 78 78 112 65 74 109 184 84 209 -12 13 -39 6
-198 -51 -100 -35 -190 -66 -199 -67 -10 -2 -17 5 -19 18 -3 18 19 33 130 94
515 282 546 300 541 320 -4 14 -18 21 -57 27 -48 8 -51 10 -54 40 -2 17 -17
47 -36 69 l-33 38 -79 -23 c-102 -29 -195 -75 -424 -206 -229 -131 -450 -243
-552 -281 -43 -16 -78 -31 -78 -34 0 -3 45 -30 100 -60 55 -30 100 -58 100
-62 0 -15 -63 -58 -94 -64 -41 -7 -57 -3 -167 47 -153 69 -166 65 -192 -63
-39 -194 -93 -219 -347 -158 -69 17 -157 33 -195 36 -65 6 -73 5 -99 -17 -23
-21 -28 -34 -32 -84 -3 -45 -10 -65 -26 -82 -13 -12 -80 -42 -149 -67 -198
-70 -205 -74 -305 -212 l-21 -29 -13 60 c-12 58 -24 85 -40 85 -4 0 -50 -47
-101 -105 l-94 -105 -116 0 c-64 0 -131 -5 -150 -11 -55 -19 -100 -58 -121
-107 l-20 -45 -19 24 c-29 37 -42 92 -35 143 8 52 89 192 259 446 211 316 420
485 880 716 236 118 257 115 257 -36 l0 -69 41 -11 c22 -6 63 -11 91 -12 44 0
59 6 121 48 96 66 174 139 199 187 40 80 216 237 264 237 11 0 48 -18 84 -40
90 -55 131 -55 245 4 47 25 93 50 100 56 8 7 23 38 32 69 14 44 30 68 77 113
90 87 139 104 213 73 35 -15 39 -14 83 8 25 13 106 63 180 112 116 76 156 109
290 245 85 86 170 165 189 175 58 29 117 17 211 -45 44 -29 80 -53 80 -55 0
-9 -41 -119 -55 -146 -10 -19 -53 -91 -97 -162 -75 -119 -88 -157 -56 -157 24
1 90 59 132 117 24 32 82 115 130 186 48 70 98 135 112 143 19 13 37 15 80 10
40 -4 56 -3 59 6 2 7 9 75 15 151 12 154 25 231 47 264 8 12 79 65 159 117 79
53 144 100 144 105 0 6 96 58 213 117 116 59 245 127 285 151 170 103 265 126
425 102z m-2265 -143 c40 -37 111 -56 204 -56 28 0 48 -5 48 -11 0 -6 -29 -43
-64 -83 -112 -126 -133 -158 -141 -221 -3 -31 -10 -55 -15 -53 -5 2 -49 40
-99 86 -49 45 -96 82 -104 82 -9 0 -30 12 -47 27 -31 26 -32 29 -27 82 8 93
28 128 89 156 74 35 110 33 156 -9z m-417 -132 c48 -24 53 -38 39 -102 -10
-50 -10 -64 4 -96 42 -100 6 -176 -124 -266 -79 -54 -133 -115 -177 -195 -32
-57 -43 -70 -63 -70 -24 0 -24 1 -22 85 5 124 17 165 77 265 29 50 57 107 61
128 6 38 6 38 -22 31 -43 -10 -74 -31 -121 -83 l-41 -46 -11 28 c-23 60 -6
153 37 200 9 11 44 33 77 49 33 17 75 42 93 56 55 42 130 48 193 16z m-466
-1191 c19 -39 13 -52 -42 -105 l-38 -37 -38 35 c-20 19 -37 41 -37 48 0 15 29
55 74 104 l30 33 18 -23 c10 -13 25 -38 33 -55z m-425 -184 c0 -21 -46 -70
-109 -117 -31 -24 -31 -24 -31 -2 0 39 29 78 82 109 29 17 54 31 56 31 1 0 2
-10 2 -21z m8542 -1649 c80 -163 44 -358 -61 -335 -23 5 -43 22 -73 63 -54 73
-71 87 -138 112 -56 22 -150 101 -150 128 0 17 60 42 107 43 21 1 63 -4 94
-11 66 -15 112 -4 149 35 13 14 29 24 34 22 6 -1 23 -27 38 -57z m-10735 -677
c-15 -45 -20 -94 -24 -223 -3 -91 -9 -180 -15 -198 -23 -76 -104 -98 -159 -43
-16 16 -29 35 -29 43 0 7 25 67 56 133 31 66 73 161 94 210 63 152 73 169 86
151 8 -12 6 -29 -9 -73z m5297 50 c11 -28 19 -130 12 -156 -14 -59 -96 -117
-96 -69 0 9 12 68 26 130 26 108 43 136 58 95z m3028 -72 c62 -67 102 -90 211
-120 43 -12 96 -30 117 -41 46 -23 68 -18 76 19 21 104 40 135 78 125 22 -5
26 -12 26 -43 -1 -20 -7 -53 -15 -74 -11 -33 -11 -44 2 -74 17 -43 13 -65 -32
-158 -19 -38 -41 -104 -49 -145 l-15 -75 59 -53 c51 -45 60 -59 60 -87 0 -36
-28 -65 -63 -65 -50 0 -202 113 -211 157 -4 18 2 53 15 93 12 37 23 104 26
156 l6 91 -31 22 c-64 45 -223 90 -252 72 -24 -16 -14 -222 31 -624 22 -197
37 -362 34 -367 -24 -39 -46 41 -80 280 -50 363 -81 532 -122 678 -23 84 -28
92 -50 92 -23 0 -24 -3 -19 -37 3 -21 10 -94 16 -163 31 -375 49 -562 64 -678
14 -101 15 -104 60 -152 38 -41 46 -56 46 -88 l0 -39 -86 -15 c-60 -10 -87
-11 -89 -4 -2 6 -13 155 -25 331 -14 213 -28 345 -40 395 -12 50 -21 131 -25
240 -3 91 -8 193 -11 228 l-5 62 38 0 c60 0 86 19 103 73 9 26 22 52 29 56 24
16 68 -9 123 -68z m1277 -14 c47 -24 112 -54 144 -67 69 -27 97 -59 96 -109
-2 -83 -59 -160 -154 -207 -82 -40 -113 -41 -161 -6 -57 42 -84 102 -94 209
-7 81 -6 92 17 143 20 48 46 80 62 80 2 0 43 -20 90 -43z m-3255 -61 c8 -36
55 -289 61 -336 5 -37 1 -56 -22 -105 -28 -60 -28 -60 -26 -254 2 -220 9 -276
64 -527 21 -100 39 -191 39 -202 0 -18 -8 -21 -77 -26 -43 -4 -99 -8 -125 -11
-45 -4 -48 -2 -54 22 -11 41 3 183 26 263 41 149 44 182 31 385 -10 158 -30
649 -31 762 0 20 10 43 26 62 l25 31 29 -22 c16 -11 31 -30 34 -42z m2739 12
c7 -50 3 -58 -27 -58 -19 0 -25 7 -30 36 -4 19 -10 42 -13 50 -4 10 4 14 30
14 33 0 35 -2 40 -42z m-4739 -190 c46 -124 66 -200 60 -223 -7 -29 -6 -28
-38 -14 -24 11 -57 74 -105 196 l-20 52 22 16 c39 28 64 20 81 -27z m4906 22
c7 -13 8 -61 4 -140 -7 -114 -8 -120 -28 -120 -12 0 -32 7 -45 16 -19 14 -22
23 -18 53 3 20 8 45 11 56 7 19 3 20 -65 20 -43 0 -74 4 -76 11 -6 17 66 85
111 105 54 25 92 24 106 -1z m-4488 -30 c17 -34 16 -47 -12 -330 -61 -612 -99
-930 -114 -954 -11 -17 -23 -19 -92 -17 -43 1 -80 4 -82 6 -13 13 28 127 65
184 52 79 61 110 73 249 10 112 21 212 45 397 27 208 29 256 11 314 -9 30 -16
76 -16 103 0 44 3 50 33 68 44 28 69 22 89 -20z m5947 -43 c13 -40 71 -333 71
-357 0 -14 -17 -24 -66 -40 -36 -12 -67 -20 -70 -18 -10 10 -84 279 -84 305 1
42 42 115 80 140 38 26 53 20 69 -30z m-6685 11 c3 -13 10 -77 15 -143 10
-134 10 -133 -54 -154 -95 -32 -103 -69 -56 -271 17 -69 44 -186 61 -260 31
-134 39 -157 117 -300 22 -41 44 -88 47 -103 l7 -28 -163 7 c-128 5 -166 9
-175 22 -9 11 -11 104 -6 393 l6 379 -25 0 c-25 0 -26 -2 -37 -107 -6 -60 -15
-189 -21 -288 -16 -285 -22 -349 -31 -366 -6 -13 -19 -15 -61 -11 -29 2 -57 8
-61 12 -5 4 -4 25 2 46 14 47 39 239 51 389 5 61 15 149 21 196 11 75 10 98
-4 172 -27 135 -12 150 148 160 44 3 94 11 112 17 36 13 59 57 49 96 -4 15 -4
57 0 95 6 64 8 69 30 69 16 0 25 -7 28 -22z m919 -310 c15 -62 31 -153 37
-203 5 -54 19 -114 34 -151 34 -81 44 -160 52 -407 l7 -207 -125 0 -125 0 -6
203 c-4 144 -2 238 8 327 8 69 19 209 25 312 11 200 19 238 48 238 15 0 23
-20 45 -112z m4097 44 c28 -34 26 -100 -2 -142 -13 -19 -28 -35 -33 -37 -9 -3
-56 144 -55 171 0 5 7 17 16 27 19 21 48 14 74 -19z m825 4 c15 -11 20 -33 26
-122 11 -151 11 -262 0 -268 -19 -12 -345 -95 -353 -90 -4 3 -8 12 -8 20 0 25
-28 15 -37 -13 -8 -22 -19 -29 -61 -38 -70 -16 -68 -5 17 89 80 88 96 125 87
205 -8 74 9 101 63 101 36 0 107 39 126 70 7 11 101 60 116 60 3 0 14 -6 24
-14z m-529 -63 c11 -16 23 -36 27 -46 8 -21 -12 -64 -43 -92 -36 -32 -50 -70
-50 -133 0 -77 -26 -116 -105 -159 -93 -50 -112 -45 -188 56 l-45 59 86 7 c77
6 89 10 112 36 15 15 39 64 54 111 28 86 65 149 100 174 27 19 29 18 52 -13z
m-1529 -168 c33 -23 35 -59 12 -181 -24 -131 -30 -136 -96 -79 -44 37 -79 102
-89 162 -4 30 -1 44 16 65 34 43 117 61 157 33z m-4670 -142 c17 -6 17 -42 1
-48 -7 -2 -36 -6 -65 -9 -45 -6 -54 -4 -72 16 -20 20 -20 23 -4 41 15 16 26
18 72 12 30 -4 60 -9 68 -12z m5579 -176 c9 -59 14 -110 11 -113 -3 -3 -23 -8
-45 -11 -34 -5 -42 -2 -52 18 -7 12 -15 61 -17 108 -4 75 -2 90 17 120 l22 34
24 -24 c19 -19 27 -45 40 -132z m-5906 68 c10 -18 12 -56 7 -152 -5 -115 1
-204 16 -219 3 -3 33 10 67 30 33 20 65 36 69 36 14 0 51 -97 45 -114 -7 -19
1 -19 -148 -1 -73 8 -122 19 -128 27 -8 12 -3 211 8 328 4 48 25 90 44 90 4 0
13 -11 20 -25z m-736 -175 c3 -44 9 -94 13 -111 l6 -32 -53 6 c-29 4 -55 8
-57 11 -6 6 70 206 78 206 3 0 9 -36 13 -80z m7765 -191 c13 -89 224 -1008
240 -1043 23 -54 58 -80 95 -70 20 5 26 2 26 -9 0 -10 -37 -34 -97 -63 -54
-27 -101 -50 -104 -51 -4 -2 -18 31 -31 74 l-25 78 -18 -35 c-32 -62 -121
-146 -188 -176 -54 -25 -74 -29 -157 -29 -87 0 -101 3 -162 33 -215 106 -298
382 -181 605 98 186 336 281 531 213 40 -15 43 -14 38 2 -3 9 -20 80 -37 156
-17 77 -35 150 -39 162 -12 30 -45 47 -81 42 -41 -6 -58 16 -27 35 64 40 194
106 203 104 6 -2 12 -14 14 -28z m-9488 -58 c236 -48 440 -98 511 -124 210
-76 318 -210 289 -355 -28 -142 -123 -214 -298 -229 l-72 -6 38 -27 c75 -55
116 -122 176 -290 21 -58 49 -127 62 -154 33 -64 113 -148 163 -171 57 -26 50
-39 -18 -33 -104 10 -261 97 -315 175 -14 21 -42 93 -61 160 -76 265 -138 332
-354 384 -63 16 -118 26 -121 23 -13 -13 -80 -325 -80 -375 -1 -48 3 -60 27
-84 15 -15 42 -34 60 -42 33 -14 41 -28 20 -35 -6 -2 -108 19 -227 47 -159 37
-216 55 -216 65 0 10 16 17 50 21 80 9 98 23 124 99 28 83 184 770 184 816 1
61 -17 94 -67 118 -35 17 -42 26 -29 39 8 9 -13 12 154 -22z m5991 -499 c28
-29 27 -83 -2 -112 -13 -13 -33 -20 -60 -20 -95 0 -111 119 -20 153 22 9 63
-2 82 -21z m2690 -41 c8 -7 -16 -138 -27 -149 -3 -3 -20 0 -38 6 -52 19 -111
15 -141 -9 -29 -23 -51 -89 -61 -184 -7 -65 34 -329 60 -392 17 -41 69 -73
116 -73 38 0 74 -26 48 -34 -16 -5 -380 -66 -391 -66 -20 0 -5 31 22 45 34 18
60 62 60 103 0 49 -80 502 -95 538 -15 36 -31 46 -74 48 -55 2 -34 31 63 84
52 29 101 52 109 52 9 0 17 -28 27 -95 7 -53 17 -98 21 -101 5 -3 9 1 9 8 0
29 60 137 95 173 50 49 89 65 145 58 25 -3 48 -9 52 -12z m-4378 -25 c163 -38
254 -107 275 -208 15 -69 1 -131 -39 -180 -32 -39 -128 -93 -186 -106 l-39 -9
45 -12 c136 -36 229 -97 269 -176 21 -40 26 -63 25 -120 -2 -157 -92 -259
-270 -306 -76 -20 -94 -20 -479 -14 -234 4 -404 11 -410 16 -14 14 9 26 63 34
55 8 96 46 111 101 10 39 29 725 23 819 -2 28 -10 64 -17 81 -13 31 -65 64
-103 64 -24 0 -36 15 -26 31 11 18 670 5 758 -15z m-2619 -97 c221 -73 341
-285 291 -512 -30 -136 -105 -225 -242 -289 -118 -55 -279 -51 -410 11 -221
104 -310 358 -204 577 53 108 184 207 311 234 64 13 177 4 254 -21z m6072 -54
c62 -31 104 -82 122 -147 6 -24 24 -145 40 -270 33 -251 44 -288 91 -288 16 0
32 5 35 10 7 12 25 4 25 -10 0 -14 -135 -80 -163 -80 -29 0 -63 35 -73 75 -11
47 -14 48 -43 7 -78 -106 -167 -147 -306 -140 -129 7 -193 52 -216 155 -32
137 64 232 301 298 52 15 116 36 143 47 53 23 55 30 36 133 -21 114 -65 169
-146 181 -125 18 -263 -67 -263 -162 0 -25 -2 -26 -32 -20 -38 8 -78 32 -78
48 0 6 21 32 48 57 134 129 338 174 479 106z m-5077 -73 c106 -35 106 -34 85
-130 -14 -64 -22 -82 -35 -82 -13 0 -19 11 -24 40 -7 44 -52 102 -97 126 -89
45 -188 37 -246 -21 -29 -29 -33 -39 -33 -86 0 -50 3 -55 48 -98 37 -37 70
-55 158 -89 183 -70 239 -128 238 -248 0 -63 -28 -127 -70 -166 -103 -92 -321
-102 -493 -23 -30 14 -62 23 -72 20 -15 -5 -19 -1 -18 17 0 34 25 167 32 174
12 12 37 -6 37 -26 0 -38 41 -101 86 -133 62 -44 98 -55 174 -56 105 -1 173
40 190 114 18 82 -39 163 -144 203 -31 12 -81 32 -112 44 -71 27 -146 86 -167
131 -35 73 -13 191 46 245 13 13 51 34 83 48 53 22 70 24 164 21 71 -3 126
-11 170 -25z m4143 -26 c64 -31 100 -72 122 -137 8 -24 23 -150 34 -280 11
-130 25 -247 30 -260 13 -35 37 -52 63 -46 36 9 42 9 46 -1 4 -13 -133 -72
-168 -72 -23 0 -35 7 -50 33 -11 17 -20 42 -20 54 0 37 -16 35 -45 -6 -57 -83
-146 -125 -266 -125 -76 -1 -92 2 -144 29 -159 81 -145 278 26 365 22 12 100
37 173 55 172 44 206 59 206 88 -1 121 -43 228 -101 257 -118 61 -319 -23
-319 -133 0 -25 -3 -27 -22 -22 -34 10 -81 39 -85 52 -11 31 119 119 240 163
79 30 205 23 280 -14z m-803 -36 c0 -43 30 -568 35 -625 9 -83 26 -118 68
-138 19 -9 40 -17 46 -17 6 0 11 -6 11 -14 0 -10 -19 -16 -72 -20 -133 -11
-297 -11 -299 -1 -1 5 16 19 37 30 25 13 46 34 58 59 18 38 19 47 4 313 -17
304 -16 301 -85 312 -65 11 -47 32 67 77 122 49 130 51 130 24z m-679 -10
c130 -24 259 -125 294 -229 17 -52 17 -55 -1 -68 -11 -8 -50 -13 -108 -14 -50
-1 -190 -4 -311 -8 l-220 -6 -3 -50 c-19 -302 233 -495 478 -364 65 34 134
108 146 155 4 15 13 24 25 24 25 0 24 -11 -6 -71 -116 -228 -428 -301 -626
-145 -113 89 -164 210 -157 374 3 83 8 107 35 165 82 173 270 271 454 237z
m-5685 -539 c188 -43 453 -116 525 -145 128 -52 219 -122 250 -191 36 -79 21
-182 -35 -243 -41 -46 -143 -81 -234 -82 l-37 -1 56 -29 c76 -39 162 -120 189
-177 62 -133 -11 -308 -158 -376 -41 -19 -64 -21 -177 -21 l-130 1 -359 99
c-201 55 -361 105 -364 112 -3 9 13 12 60 12 80 0 122 24 148 83 27 62 220
788 220 828 0 46 -33 97 -75 115 -34 14 -48 44 -21 44 8 0 72 -13 142 -29z
m1303 -276 c72 -37 48 -145 -33 -145 -49 0 -65 8 -82 42 -19 38 -4 82 35 103
33 18 46 18 80 0z m8990 -100 c5 -6 11 -46 13 -90 3 -91 -7 -101 -44 -45 -36
54 -99 82 -178 78 -148 -8 -232 -114 -170 -215 35 -59 86 -75 255 -83 158 -8
189 -15 244 -57 69 -53 93 -181 50 -270 -59 -121 -216 -194 -419 -194 -59 0
-110 -5 -117 -11 -7 -6 -13 -9 -13 -7 0 2 -9 46 -19 97 -23 116 -12 134 42 68
97 -117 298 -120 402 -5 30 33 35 46 35 87 0 61 -27 105 -82 133 -36 19 -66
24 -188 29 -113 5 -155 11 -190 27 -88 39 -130 103 -130 201 0 114 118 218
292 257 69 16 202 15 217 0z m-701 -150 c2 -2 -3 -36 -10 -76 -12 -65 -16 -74
-33 -71 -11 2 -48 4 -81 5 -75 2 -98 -14 -119 -86 -23 -76 -19 -199 11 -339
42 -199 60 -227 159 -238 34 -3 50 -10 50 -19 0 -10 -45 -23 -160 -47 -238
-50 -235 -49 -235 -31 0 9 10 21 23 28 71 37 72 86 8 397 -54 260 -64 284
-126 292 -21 3 -40 10 -42 16 -4 12 176 124 200 124 10 0 19 -29 32 -100 10
-54 22 -97 27 -94 4 3 8 13 8 22 0 26 58 133 88 165 47 50 90 68 147 61 28 -4
51 -8 53 -9z m-8315 -120 c-1 -5 -32 -161 -69 -346 -62 -307 -67 -339 -56
-377 9 -29 23 -47 48 -62 31 -20 42 -47 18 -44 -5 1 -87 16 -182 35 -138 27
-172 36 -170 49 2 8 18 17 38 20 52 9 75 25 94 64 13 28 86 362 110 507 9 53
-6 85 -48 99 -40 13 -47 37 -13 45 35 8 179 23 207 21 14 0 24 -5 23 -11z
m7438 -97 c41 -19 91 -52 113 -73 40 -40 81 -118 71 -135 -10 -16 -70 -29
-340 -70 -339 -52 -307 -43 -300 -88 24 -146 49 -206 116 -277 68 -72 135 -99
234 -93 145 9 240 82 299 231 17 42 43 46 38 6 -5 -48 -62 -150 -110 -198 -80
-80 -203 -131 -314 -131 -148 0 -310 117 -369 267 -19 49 -23 77 -24 178 0
110 2 125 27 178 15 32 52 84 82 115 89 94 188 133 322 129 69 -3 92 -9 155
-39z m-6636 -42 c127 -63 215 -180 215 -287 0 -24 -5 -39 -16 -43 -8 -3 -152
15 -319 41 -168 26 -307 44 -311 41 -13 -13 -24 -87 -24 -165 0 -113 26 -182
94 -248 129 -127 339 -117 466 22 48 53 70 65 70 40 0 -20 -51 -88 -91 -121
-51 -44 -152 -87 -219 -95 -141 -17 -264 24 -353 118 -97 102 -131 214 -109
364 16 111 56 190 131 259 96 90 179 120 309 114 72 -3 95 -9 157 -40z m5894
-30 c9 -11 5 -19 -20 -37 -17 -12 -44 -41 -58 -65 -15 -23 -83 -202 -151 -396
-68 -194 -128 -359 -133 -365 -27 -36 -46 -11 -253 328 -115 188 -222 354
-238 370 -17 16 -40 29 -52 29 -25 0 -51 27 -38 40 9 8 221 33 299 34 52 1 57
-15 11 -37 -70 -33 -73 -25 131 -359 l146 -240 88 252 c97 274 106 323 67 360
-19 17 -44 25 -70 22 -12 -2 -30 27 -23 38 3 5 27 10 53 11 36 0 176 18 223
28 4 0 12 -5 18 -13z m-5235 -34 c2 -4 -1 -52 -9 -107 -7 -55 -11 -101 -10
-103 2 -2 17 16 33 41 57 82 151 146 214 147 15 0 48 -10 72 -22 l45 -21 -35
-69 c-19 -37 -37 -68 -40 -68 -3 0 -26 12 -50 26 -60 35 -114 37 -149 4 -33
-31 -90 -149 -103 -215 -6 -27 -16 -109 -23 -181 -17 -173 -9 -197 74 -237
103 -50 77 -56 -136 -32 -73 8 -150 16 -172 17 -26 2 -40 8 -40 17 0 8 18 20
40 28 75 26 83 50 115 348 32 291 28 330 -30 341 -29 6 -47 29 -30 39 7 5 200
52 222 54 4 1 9 -3 12 -7z m3898 -73 c78 -16 156 -57 212 -108 74 -69 108
-159 69 -180 -10 -5 -142 -16 -293 -25 -151 -9 -290 -19 -309 -22 l-34 -5 7
-78 c16 -191 94 -306 235 -348 149 -43 311 28 381 168 22 42 34 57 45 53 21
-8 19 -18 -16 -85 -41 -77 -122 -152 -206 -192 -57 -26 -83 -32 -158 -35 -110
-5 -180 16 -261 79 -101 77 -154 186 -162 331 -12 220 121 397 332 443 78 17
93 17 158 4z m-3190 -88 l-5 -90 57 55 c32 31 83 68 114 82 49 23 70 27 147
27 76 0 99 -5 148 -27 154 -72 249 -263 219 -442 -53 -321 -413 -491 -663
-312 l-48 35 -6 -62 c-4 -34 -7 -114 -8 -177 -2 -135 6 -155 77 -189 79 -36
60 -44 -86 -37 -210 10 -258 16 -258 32 0 8 13 17 30 20 45 9 77 48 90 107 6
29 21 239 35 468 27 465 26 483 -28 497 -21 6 -32 14 -32 27 0 14 19 24 95 46
138 40 128 45 122 -60z m1109 -61 l-3 -104 44 64 c49 74 111 125 169 140 33 9
49 8 87 -6 26 -10 48 -18 49 -19 4 -2 -48 -129 -56 -137 -4 -5 -25 1 -46 13
-22 11 -59 21 -82 22 -34 2 -47 -3 -72 -27 -31 -30 -63 -101 -81 -180 -16 -71
-15 -358 1 -391 18 -36 57 -65 100 -74 22 -4 35 -14 37 -25 4 -18 -3 -19 -134
-13 -75 4 -168 7 -206 7 -79 0 -92 18 -29 42 65 26 74 50 82 222 11 227 10
389 -2 425 -12 34 -35 51 -68 51 -14 0 -21 6 -21 18 0 14 21 25 98 49 142 45
137 49 133 -77z m1021 99 c115 -25 240 -113 291 -206 73 -134 74 -307 3 -428
-115 -196 -395 -277 -611 -176 -279 130 -338 488 -115 694 117 109 271 150
432 116z"/>
<path d="M14054 15107 c-29 -17 -68 -49 -78 -65 -9 -14 39 -72 58 -72 15 1 66
70 66 89 -1 9 -6 26 -13 38 -10 18 -15 20 -33 10z"/>
<path d="M14341 13510 c-14 -63 -14 -117 -1 -196 13 -81 73 -275 85 -277 17
-2 55 64 50 87 -3 11 -23 107 -45 211 -23 105 -43 198 -46 208 -10 34 -32 17
-43 -33z"/>
<path d="M9246 10136 c48 -51 62 -61 72 -51 11 10 11 18 -1 47 -19 44 -52 68
-95 68 l-34 0 58 -64z"/>
<path d="M12533 7739 c-18 -5 -33 -13 -33 -17 0 -4 82 -27 183 -51 100 -24
189 -46 197 -49 30 -10 -32 46 -79 71 -89 49 -195 67 -268 46z"/>
<path d="M12083 7693 c-47 -32 -15 -53 83 -53 36 0 44 3 44 18 0 11 -14 25
-35 35 -43 21 -63 21 -92 0z"/>
<path d="M12884 7316 c-15 -24 -15 -28 0 -51 22 -34 74 -65 109 -65 35 0 34
14 -6 80 -39 66 -75 78 -103 36z"/>
<path d="M14120 6330 c-23 -23 -17 -48 14 -55 48 -11 240 -35 244 -30 14 13
-80 66 -157 89 -70 20 -77 20 -101 -4z"/>
<path d="M10184 6116 c-28 -13 -67 -41 -88 -62 -32 -33 -43 -38 -86 -39 -60
-1 -92 -27 -134 -110 -32 -64 -29 -106 10 -132 19 -12 39 -14 98 -8 82 7 101
1 151 -46 42 -39 105 -65 116 -47 6 9 -4 24 -34 48 -70 58 -107 102 -118 143
-9 34 -7 46 16 92 25 52 50 76 90 88 11 3 46 13 78 22 l57 16 -17 30 c-22 37
-65 38 -139 5z"/>
<path d="M10534 6086 c-8 -20 55 -165 76 -176 25 -14 63 -13 78 2 7 7 12 27
12 44 0 28 -9 40 -72 88 -76 60 -86 64 -94 42z"/>
<path d="M12867 6018 l-49 -53 66 -62 c36 -35 73 -63 82 -63 9 0 40 21 70 47
l55 46 -53 54 c-48 49 -95 83 -114 83 -5 0 -30 -24 -57 -52z"/>
<path d="M12446 6025 c8 -20 -102 -72 -185 -86 -99 -18 -149 -64 -167 -156
l-6 -31 57 -7 c124 -16 226 17 300 96 38 41 104 156 93 164 -5 3 -88 35 -93
35 -2 0 -2 -7 1 -15z"/>
<path d="M9591 5853 c-36 -29 -61 -77 -61 -120 0 -19 14 -40 50 -75 27 -26 55
-48 61 -48 15 0 63 110 63 145 0 29 -56 125 -72 125 -4 0 -22 -12 -41 -27z"/>
<path d="M9155 5703 c48 -65 99 -114 139 -135 l40 -20 18 22 c10 12 23 39 29
61 11 34 10 42 -7 60 -31 35 -78 49 -165 49 l-81 0 27 -37z"/>
<path d="M8856 5508 l-40 -20 47 -44 c43 -41 50 -44 101 -44 49 0 61 -4 93
-33 43 -37 83 -40 83 -6 0 28 -93 124 -144 149 -53 25 -90 25 -140 -2z"/>
<path d="M8633 5420 c-39 -16 -28 -110 13 -110 19 0 24 7 29 38 3 20 8 47 11
60 5 24 -12 28 -53 12z"/>
<path d="M11798 5383 c-34 -4 -38 -7 -38 -33 0 -59 70 -66 107 -11 36 54 35
55 -69 44z"/>
<path d="M12340 5351 c-28 -28 -30 -33 -18 -54 16 -29 91 -126 98 -127 3 0 25
18 50 39 l45 39 -25 27 c-14 15 -46 45 -72 67 l-48 40 -30 -31z"/>
<path d="M8150 5345 c-16 -19 -3 -39 77 -124 75 -78 98 -80 160 -16 24 25 43
52 43 59 0 34 -36 54 -125 71 -49 9 -102 18 -116 21 -16 3 -31 -1 -39 -11z"/>
<path d="M7982 5187 c-22 -24 -43 -54 -47 -67 -10 -33 4 -133 18 -127 133 56
125 44 106 153 -15 88 -27 94 -77 41z"/>
<path d="M11793 5214 c-20 -9 -15 -59 7 -79 21 -19 51 -16 85 9 20 14 20 14
-1 43 -20 27 -62 39 -91 27z"/>
<path d="M12303 5022 c-47 -18 -49 -20 -30 -46 12 -16 15 -16 61 3 36 16 47
25 42 37 -3 9 -6 18 -6 20 0 8 -25 3 -67 -14z"/>
<path d="M7643 4963 c-24 -51 -25 -59 -12 -81 22 -40 35 -37 78 20 l40 53 -31
32 c-18 18 -36 33 -41 33 -4 0 -20 -26 -34 -57z"/>
<path d="M7230 4902 c0 -46 100 -162 140 -162 38 0 63 34 68 92 6 75 -12 88
-125 88 -73 0 -83 -2 -83 -18z"/>
<path d="M11905 4803 c-30 -8 -55 -34 -55 -57 1 -26 135 -211 176 -242 l30
-24 23 40 22 40 -25 91 c-26 98 -43 124 -93 145 -33 14 -43 15 -78 7z"/>
<path d="M6992 4728 c-70 -93 -70 -94 -21 -144 24 -24 47 -44 52 -44 16 0 117
75 117 86 0 14 -91 154 -101 154 -4 0 -25 -24 -47 -52z"/>
<path d="M12264 4748 c-18 -18 -37 -44 -44 -57 -13 -25 -7 -75 11 -98 25 -30
117 -5 139 38 12 22 50 132 47 135 -1 2 -29 5 -62 9 -59 7 -61 6 -91 -27z"/>
<path d="M6697 4633 c-4 -3 -7 -30 -7 -60 0 -47 4 -58 35 -91 l35 -37 50 52
c27 28 50 59 50 68 0 10 -24 27 -62 45 -63 30 -89 36 -101 23z"/>
<path d="M11600 4570 c0 -24 39 -289 45 -308 3 -8 18 3 41 28 20 22 43 40 51
40 8 0 39 -23 69 -51 47 -45 61 -52 102 -56 26 -2 54 1 62 6 13 9 13 15 -4 46
-54 100 -202 243 -303 290 -63 30 -63 30 -63 5z"/>
<path d="M6230 4542 c0 -4 -23 -35 -51 -67 -72 -85 -181 -243 -175 -253 3 -5
29 -25 58 -45 52 -35 56 -36 165 -39 l112 -3 -25 30 c-50 62 -65 102 -62 167
2 47 7 63 22 72 14 8 20 8 23 -1 9 -26 81 -137 90 -140 16 -6 153 127 153 148
0 11 -6 35 -14 54 -16 38 -35 45 -179 71 -94 16 -117 17 -117 6z"/>
<path d="M14405 3303 c-78 -28 -111 -57 -147 -130 -30 -62 -33 -74 -32 -163 1
-186 83 -344 210 -406 47 -23 64 -26 117 -22 74 6 128 32 178 85 85 89 95 150
53 334 -30 134 -49 181 -94 233 -68 77 -184 105 -285 69z"/>
<path d="M5371 3653 c-26 -99 -112 -476 -109 -478 2 -1 64 -17 138 -35 276
-67 389 -35 450 127 33 87 26 196 -15 255 -43 61 -128 101 -294 138 -73 17
-139 30 -147 30 -7 0 -18 -17 -23 -37z"/>
<path d="M9106 3088 c-3 -50 -6 -152 -6 -225 l0 -135 198 4 c221 4 258 13 311
73 56 64 61 189 11 270 -25 40 -99 80 -174 94 -33 6 -121 11 -196 11 l-137 0
-7 -92z"/>
<path d="M9096 2649 c-3 -17 -6 -117 -6 -221 0 -225 7 -249 78 -280 37 -17 68
-20 176 -21 201 0 297 38 347 140 33 65 33 188 2 248 -63 119 -186 165 -444
165 l-146 0 -7 -31z"/>
<path d="M6720 3081 c-105 -34 -182 -127 -221 -266 -8 -29 -14 -92 -13 -150 0
-126 24 -193 92 -263 57 -58 118 -82 211 -82 121 0 207 75 263 225 18 49 22
82 23 180 0 111 -2 125 -28 180 -40 86 -70 120 -129 149 -57 28 -155 41 -198
27z"/>
<path d="M12975 2669 c-22 -10 -76 -30 -121 -44 -139 -43 -194 -96 -194 -190
0 -93 64 -156 159 -157 73 0 116 18 159 68 54 60 66 110 57 233 -4 56 -10 103
-14 105 -3 2 -24 -5 -46 -15z"/>
<path d="M11975 2547 c-166 -54 -180 -60 -217 -97 -60 -60 -64 -150 -7 -215
37 -42 85 -59 154 -53 86 7 148 62 181 159 17 49 9 240 -10 237 -6 0 -51 -14
-101 -31z"/>
<path d="M10395 2846 c-59 -27 -99 -75 -125 -151 l-19 -55 88 0 c48 0 156 3
240 7 l152 6 -7 31 c-11 51 -52 123 -81 144 -70 48 -168 56 -248 18z"/>
<path d="M5044 2277 c-2 -7 -29 -104 -59 -216 -56 -207 -57 -220 -18 -221 7 0
70 -16 140 -35 140 -38 248 -46 307 -21 105 44 150 214 83 315 -44 66 -118
101 -335 159 -79 21 -115 27 -118 19z"/>
<path d="M4862 1603 c-67 -255 -67 -300 2 -342 98 -60 328 -98 426 -71 94 25
170 139 170 253 0 98 -62 188 -168 245 -51 27 -327 112 -364 112 -9 0 -31 -67
-66 -197z"/>
<path d="M13340 1611 c-81 -26 -126 -71 -154 -154 -17 -51 -22 -112 -7 -103 4
3 108 21 231 40 122 20 224 37 226 39 2 2 -10 32 -27 66 -42 84 -88 115 -178
118 -36 1 -77 -1 -91 -6z"/>
<path d="M6737 1574 c-55 -17 -116 -72 -147 -135 -12 -22 -20 -42 -18 -43 2
-2 107 -18 233 -37 l230 -35 3 34 c4 45 -22 121 -55 156 -54 59 -164 85 -246
60z"/>
<path d="M11380 1401 c-82 -25 -138 -85 -165 -174 -18 -62 -19 -71 -1 -64 7 3
109 11 227 18 118 7 219 15 226 18 19 10 -31 121 -71 158 -51 47 -143 66 -216
44z"/>
<path d="M8544 1361 c-81 -20 -146 -87 -184 -187 -16 -43 -20 -83 -22 -192 -3
-132 -2 -139 24 -188 93 -177 333 -208 442 -56 57 77 71 132 71 267 0 131 -13
183 -66 260 -49 73 -176 118 -265 96z"/>
<path d="M10262 1348 c-18 -6 -53 -29 -77 -50 -155 -137 -151 -475 9 -626 63
-59 109 -77 201 -76 135 2 219 76 259 231 52 199 -26 432 -168 505 -48 25
-172 34 -224 16z"/>
<path d="M10126 12484 c-21 -21 -20 -27 7 -52 28 -27 35 -27 66 -1 l24 20 -23
24 c-27 29 -52 32 -74 9z"/>
</g>
</svg>
