<?xml version="1.0" standalone="no"?>
<!DOCTYPE svg PUBLIC "-//W3C//DTD SVG 20010904//EN"
 "http://www.w3.org/TR/2001/REC-SVG-20010904/DTD/svg10.dtd">
<svg version="1.0" xmlns="http://www.w3.org/2000/svg"
 width="700.000000pt" height="700.000000pt" viewBox="0 0 700.000000 700.000000"
 preserveAspectRatio="xMidYMid meet">
<metadata>
Created by potrace 1.11, written by Peter Selinger 2001-2013
</metadata>
<g transform="translate(0.000000,700.000000) scale(0.100000,-0.100000)"
fill="#000000" stroke="none">
<path d="M1900 6469 c-366 -5 -914 -18 -1219 -29 l-555 -19 -29 -30 -30 -29
19 -32 c17 -29 29 -35 130 -60 240 -60 400 -172 484 -339 31 -62 66 -206 81
-341 20 -165 20 -4027 1 -4170 -52 -384 -189 -563 -507 -663 -44 -14 -115 -30
-157 -37 -70 -11 -80 -16 -97 -43 l-19 -31 25 -33 25 -33 1137 0 1137 0 28 29
c27 28 27 30 11 60 -19 37 -11 34 -135 56 -191 35 -355 110 -454 210 -93 93
-139 195 -178 400 -20 105 -21 148 -25 1033 l-5 923 574 -6 c630 -7 670 -10
880 -71 440 -126 804 -409 1103 -859 81 -122 321 -542 541 -948 164 -305 465
-545 869 -695 354 -132 626 -185 955 -186 185 0 217 2 331 27 176 37 181 39
168 76 -10 27 -15 29 -77 36 -139 14 -299 61 -447 130 -201 94 -370 217 -571
419 -206 207 -311 349 -684 928 -368 571 -583 810 -914 1019 -113 70 -336 181
-475 236 l-96 37 65 14 c637 132 1047 329 1306 630 202 235 295 506 296 862 1
283 -59 498 -196 704 -247 371 -731 628 -1421 755 -407 75 -713 86 -1875 70z
m1374 -223 c565 -96 888 -303 1071 -684 100 -209 147 -508 125 -806 -26 -374
-127 -627 -338 -848 -213 -223 -518 -355 -952 -413 -169 -23 -529 -29 -1122
-20 l-488 7 0 1388 c0 762 3 1390 7 1394 4 4 365 5 803 3 690 -3 808 -6 894
-21z"/>
</g>
</svg>
