<?xml version="1.0" encoding="utf-8"?>
<!-- Generator: Adobe Illustrator 22.1.0, SVG Export Plug-In . SVG Version: 6.00 Build 0)  -->
<svg version="1.1" xmlns="http://www.w3.org/2000/svg" xmlns:xlink="http://www.w3.org/1999/xlink" x="0px" y="0px" width="300px"
	 height="300px" viewBox="0 0 300 300" style="enable-background:new 0 0 300 300;" xml:space="preserve">
<g id="logo">
	<path d="M225.3,51.4c-0.4,0.2-0.9,0.5-1.4,0.6c-0.4,0.1-1.1,0-1.1-0.1c-0.7-1.7-2.2-2.5-3.4-3.7c0,0-0.1-0.1-0.1-0.1
		c-1-0.9-2.2-0.7-3.2-0.4c-0.2,0-0.3,0.2-0.4,0.4c-0.2,0.4-0.4,1.1-0.5,1.6c-0.2,1-0.6,1.3-1.5,1c-2.1-0.8-4.1-0.4-6.1,0.6
		c-0.7,0.3-1.4,0.6-2.1,0.9c-0.8,0.3-1.1-0.1-1-0.9c0-0.4,0.1-0.9,0.2-1.3c-0.1-0.1-0.2-0.1-0.3-0.2c-0.7,0.6-1.4,1.2-2.2,2
		c-0.1-0.4-0.2-0.7-0.2-0.9c0.1-0.9,0.4-1.7,0.4-2.6v-0.2c0-0.9-0.5-1.2-1.5-0.9c-0.7,0.2-1.4,0.5-1.9,0.9c-0.8,0.7-1.3,1.8-1.3,3.1
		c0,1.6,0.1,3.3,0,4.9c0,0.4-0.5,0.8-0.7,1.2c-0.3-0.3-0.7-0.6-0.9-0.9c-0.5-1-1-2-1.5-3c-0.5-0.8-1.2-1-2.1-0.5
		c-0.9,0.5-1,1.2-0.5,1.9c0.8,1.3,1.6,2.5,2.6,3.7c0.8,1,1.8,1.9,1,3.4c-0.1,0.1-0.1,0.4,0,0.6c1,1.4,2,2.8,3.1,4.1
		c0.1,0.1,0.4,0.2,0.5,0.2c0.4,0,1,0,1.2-0.2c0.2-0.3,0.2-0.9,0-1.3c-0.4-0.8-0.1-1.3,0.6-1.4c1-0.3,2-0.5,3.1-0.5
		c2.2-0.1,3.3-1.8,4.6-3.2c0.7-0.7,0.4-1.5-0.6-1.9c-1.1-0.4-2.1-0.8-3.3-0.4c-1,0.3-2.4-1.4-2-2.5c0.2-0.5,0.5-0.9,1.2-0.7
		c1.8,0.4,3.8,1.3,5.4-0.6c0-0.1,0.1-0.1,0.2-0.1c1.5-0.5,3-0.9,4.4-1.4c1.5-0.6,2.9-0.6,4,0.7c0.5,0.6,1,0.8,1.8,0.4
		c0.2-0.1,0.5,0,0.8,0c0,0.3,0.1,0.6,0,0.9c-0.3,0.7,0.1,1.1,0.6,1.5c1.1,0.8,2.3,0.4,3.1-0.3c0.8-0.7,1.1-1.8,1.5-2.8
		C225.8,52.5,225.4,51.9,225.3,51.4z M202.9,33.1c-0.3-0.2-0.4-0.9-0.2-1.3c0.6-1.6,1.3-3.2,2-4.8c0.1-0.3,0-0.6-0.1-1
		c-0.3,0.2-0.7,0.4-0.8,0.7c-0.2,0.9-0.7,1.7-1.6,1.4c-0.4-0.1-0.7-1.2-0.7-1.9c-0.1-1.6,0.2-3,1-4.5c0.6-1.2-0.1-2-1.4-2
		c-0.7,0-1.3-0.5-2-0.7c-0.3-0.1-0.7-0.2-1.1-0.2c-0.6,0.1-1.1,0.3-1.6,0.6c-0.4,0.2-0.8,0.4-1.1,0.7c-0.3,0.2-0.4,0.6-0.7,0.8
		c-0.7,0.8-1.5,1.5-2.1,2.4c-0.6,0.8-0.2,1.4,0.7,1.3c1.5-0.2,2.5,0.1,3.1,1.5c0.1,0.1,0.2,0.2,0.3,0.3c1.5,1.2,1.7,2.7,0.7,4.4
		c-1.4,2.2-0.3,5,2.2,5.7c0.4,0.1,0.9,0.1,1.3,0.2c0.6,0.2,1.4,0.4,1.1,1.2c-0.1,0.3-0.9,0.6-1.4,0.6c-0.6,0.1-1.3-0.1-1.9-0.2
		c-2.2-0.1-2.5,0.2-2.3,2.4c0,0.5-0.1,1.1-0.2,1.6c-0.3,1.3,0.1,2.7,1.1,3.5c0.9,0.7,2,0.6,2.5-0.3c0.5-1.1,1.1-1.2,2-0.5
		c0.7,0.5,1.2,0.3,1.5-0.5c0.5-1.4,1.2-2.7,1.4-4.2C205.1,37.8,205.4,35.1,202.9,33.1z M182.1,48.1C182.1,48.1,182.1,48,182.1,48.1
		c-0.4-0.5-0.9-0.9-1.5-1c-1-0.3-2.1-0.3-3.2-0.5c-1.9-0.4-3.1,0.4-4.2,1.5c-0.5,0.5-0.9,1-1.3,1.5c-0.7,0.8-0.4,1.6,0.7,1.7
		c1,0.1,2-0.1,2.9-0.3c1.9-0.3,3.8-0.7,5.7-1.1c0.3-0.1,0.9-0.3,1-0.5C182.3,49,182.3,48.4,182.1,48.1z M181.8,54.7
		c-1-0.4-2-0.6-2.9-1.1c-2.6-1.4-5.2-0.9-7.7,0.2c-0.7,0.3-1.6,0.6-1.2,1.7c0.4,1.1,1.3,1.5,2.4,1.1c0.7-0.3,1.4-0.8,2.1-1.1
		c2.2-0.9,4.5-0.4,6.7,0l1.3,0.2c0-0.1,0.1-0.3,0.2-0.4C182.3,55.1,182.1,54.8,181.8,54.7z M211.9,42.3c-1.1,0.6-2.3,1.1-3.2,2
		c-1.1,1-2,2.2-3,3.4c-0.1,0.1-0.2,0.3-0.3,0.4c-0.2,0.4-0.3,0.8-0.2,1c0.1,0.4,0.9,0.5,1.5,0.9c0.6-0.4,1.3-0.8,1.6-1.3
		c0.1-0.2,0.2-0.4,0.3-0.6c1.1-1.7,2.1-3.5,3.8-4.8c0.2-0.1,0.2-0.5,0.3-0.8C212.4,42.4,212.1,42.2,211.9,42.3z M217.1,42.6
		c-1,0.2-2.1,0.6-3,1.1c-0.9,0.5-1.4,1.4-1.2,2.4c0,0.4,0.2,0.9,0.5,1.1c0.2,0.1,0.7-0.1,1.1-0.3c0.7-0.3,1.4-0.7,2.2-1.1
		c0,0.1,0.1,0.2,0.1,0.3c0.2,0,0.4,0,0.6,0c1.2-0.1,2-0.9,2-2.1C219.2,43,218.3,42.3,217.1,42.6z M194.5,38.2c0.1,0,0.1,0,0.2,0
		c-0.1-1-0.1-1.9-0.2-2.8c-0.1-0.7-0.7-1-1.2-0.5c-0.4,0.4-0.7,1-0.8,1.6c-0.1,0.6,0,1.2-0.1,1.9c-0.1,1.2-0.4,2.4-0.4,3.6
		c0,0.3,0.3,0.9,0.6,1c1.1,0.4,2.3-0.5,2.3-1.7C194.7,40.1,194.6,39.2,194.5,38.2z M193.1,61.5c-1-0.5-2-0.7-3.1-1.1
		c0,0.1,0,0.2-0.1,0.3c-0.4,0-0.8-0.1-1.2,0c-0.8,0.2-1,1-0.5,1.6c0.5,0.5,1,1.1,1.6,1.6c0.3,0.2,0.8,0.4,1.2,0.3
		c0.7-0.2,1.5-0.4,2.1-0.8C194,62.9,194.1,62,193.1,61.5z M186.2,55.5c-0.2-0.3-1.1-0.5-1.5-0.4c-0.3,0.1-0.5,1-0.4,1.4
		c0.2,0.7,0.8,1.2,1.2,1.7c0.2,0.2,0.6,0.3,0.8,0.2c0.3-0.1,0.4-0.5,0.6-0.8C186.8,56.9,186.7,56.1,186.2,55.5z M190.5,48.1
		c-0.4-0.5-1.1-0.7-2-0.7c-0.1,0.1-0.5,0.4-0.7,0.7c0,0,0,0.1,0,0.1c-0.1,0.8,1.3,1.7,2.3,1.6c0.3,0,0.7-0.5,0.7-0.7
		C190.8,48.7,190.7,48.3,190.5,48.1z M186.8,41.6c-1.1-0.4-2.9,0.5-3.8,1.7c0,0.1,0.1,0.2,0.1,0.4c1.2-0.3,2.5-0.6,3.7-1
		c0.2-0.1,0.4-0.4,0.6-0.6C187.2,42,187,41.7,186.8,41.6z M193.2,31.3c-0.3,0.5-0.8,1-1,1.6c-0.1,0.2,0.3,0.5,0.7,1
		c0.7-0.5,1.2-0.9,1.7-1.3C194.1,32.2,193.6,31.8,193.2,31.3z M197.3,66.2c-0.2,0-0.4,0.1-0.7,0.2c0.2,0.8,0.3,1.6,0.5,2.4
		c0.2-0.1,0.4-0.1,0.6-0.2C197.6,67.8,197.4,67,197.3,66.2z M147.2,113.3c-0.2,0-0.6,0.4-0.6,0.5c0.1,0.3,0.4,0.6,0.6,0.7
		c0.2,0,0.4-0.3,0.9-0.5C147.7,113.6,147.4,113.3,147.2,113.3z"/>
	<g>
		<path style="fill:none;" d="M205.7,129.3c-0.3,0.4-0.7,0.7-1,1.1c-0.1,0.2,0,0.5-0.1,0.7c-0.3,1.7-0.8,3.4-0.9,5.1
			c-0.2,2-1.1,3.8-0.8,6c0.8,4.6,1.3,9.3,1.9,14c0.1,0.6,0.3,1.3,0.5,1.9h0.3c0.1-0.5,0.3-1,0.4-1.6c0.1-1.3,0.2-2.5,0.2-3.8
			c0-7.4,0-14.8-0.1-22.2C206.1,130,205.8,129.7,205.7,129.3z"/>
		<path style="fill:none;" d="M198,134.8c0.4-0.4,0.8-0.8,1.2-1.1c0.3-0.2,0.6-0.4,1-0.5c0.2,0.3,0.4,0.7,0.5,1
			c0.2,0.8,0.4,1.6,0.5,2.4c0.2,0,0.3-0.1,0.5-0.1c-0.1-1-0.1-2-0.3-2.9c-0.2-1.2,0.1-2,1-2.9c1.2-1.1,2.3-2.5,3.2-3.8
			c0.3-0.4,0.4-1.4,0.1-1.8c-0.8-1.3-3.1-2.1-4.6-1.6c-1.5,0.5-3,1.2-4.4,1.8c-0.3,0.2-0.7,0.6-0.8,0.9c0,2.5,0,5,0,7.5
			c0,0.3,0.1,0.5,0.2,0.8C196.8,135.5,197.3,135.6,198,134.8z"/>
		<path style="fill:none;" d="M198.2,143.6c-0.4-0.4-1.2-0.2-1.1,0.6c0,2.6-0.1,5.1,0.1,7.7c0.4,3.7,1.2,7.4,1.1,11.1
			c0,2.2,0.4,4.5,2,6.2c1.1,1.2,2.5,2.3,3.7,3.4c0.2,0.2,0.5,0.3,0.9,0.5c0.5-10-1.7-19.5-3-29.7
			C200.3,144.9,199.3,144.8,198.2,143.6z"/>
		<path d="M219.8,213.3c-0.3-1.1-0.5-2.3-0.9-3.5c-0.4-1.3-0.8-2.6-1.1-3.9c-0.3-1.6-0.8-3.2-0.7-4.7c0.2-3.5,0.5-6.9-0.5-10.3
			c-0.7-2.2-1.1-4.6-2.1-6.7c-1.5-2.9-3.4-5.5-5.8-7.8c-0.9-0.9-1.2-1.8-1.1-3c0.1-2,0.1-4,0.1-6c0-5.2,0-10.3,0.1-15.5
			c0-3,0.1-6,0.1-8.9c0-5.4,0-10.8,0-16.3c0-1.2,0.1-2.3,0.3-3.5c0.1-0.6,0.3-1.6,0.8-1.8c2.1-0.9,3-2.8,4-4.6
			c0.4-0.7,0.4-1.8,0.1-2.5c-1.2-2.5-1.7-5-1.9-7.7c-0.1-1.4-0.9-2.8-1.2-4.2c-0.5-2.8-1-5.7-1.3-8.5c-0.1-0.6,0.2-1.3,0.4-1.9
			c0.7-1.5,1.1-3,0.3-4.7c-0.6-1.2-0.7-2.7-1-4c-0.2-0.6-0.3-1.4-0.7-1.9c-1-1.1-1-2.2-0.7-3.5c0.2-0.8,0.2-1.6,0.4-2.4
			c-0.1,0-0.2-0.1-0.4-0.1c-0.3,0.3-0.7,0.6-1,0.9c-0.7,0.6-1.5,0.7-2.1-0.1c-1.1-1.3-2.3-1.7-3.9-1.6c-0.2,0-0.3-0.1-0.5-0.1
			c-0.1-0.1-0.2-0.3-0.3-0.4c0.4-0.2,0.8-0.4,1.1-0.7c0.4-0.4,0.7-0.9,1-1.4c0.9-1.6-0.3-2.8-1.1-4c0-0.1-0.7,0-0.8,0.2
			c-0.8,1.2-1.5,2.4-2.1,3.7c-0.2,0.3-0.4,1-0.2,1.2c0.9,0.8,0.7,1.7,0.3,2.7c-0.5,1.2-0.8,1.5-2,1c-1-0.5-1.5-1.3-1.5-2.4
			c0-0.8,0.1-1.5,0.1-2.3c0-0.4-0.2-0.7-0.4-1c-0.3,0.1-0.8,0.2-0.9,0.4c-1.2,1.8-2.3,3.6-3.5,5.4c-0.6,0.9-1.1,2-1.9,2.5
			c-3.3,2-5.5,5-7.7,8c-1.6,2.1-3.1,4.2-4.8,6.3c-0.6,0.8-1.6,1.3-2.3,2.1c-1.3,1.6-2.6,3.3-3.6,5.1c-1.6,2.8-3,5.6-4.3,8.5
			c-1,2.3-1.8,4.6-2.7,6.9c-0.8,2.1-1.7,4.2-2.3,6.4c-0.7,2.1-1.1,4.2-1.6,6.4c-0.6,2.3-1.1,4.6-1.7,7c-0.2,0.8-0.2,1.8-0.5,2.6
			c-0.2,0.5-0.7,0.9-1,1.4c-0.4-0.4-0.8-0.8-1.1-1.2c-0.2-0.3-0.2-0.8-0.5-1c-1-0.7-2-1.4-3-1.9c-1.1-0.6-1.1-1.1-0.2-2.1
			c0.7-0.7,1-1.7,1.5-2.5c0.4-0.7,0.6-1.5,1.2-1.9c2.5-1.7,2.5-5.1,0-6.8c-1.3-0.8-1.6-1.5-1.2-3c0.3-1.1,1.1-2.1,0.4-3.4
			c-0.1-0.2,0.2-0.8,0.5-1.1c0.9-1,0.6-2,0-3.1c-0.4-0.8-0.8-1.6-1.2-2.3c-0.2-0.3-0.5-0.5-0.8-0.8c-0.2,0.3-0.7,0.6-0.7,1
			c0,1.3,0.1,2.7,0.1,4c0,0.3-0.3,0.7-0.5,0.8c-0.7,0.3-1.4,0.5-2,0.8c-0.8,0.3-0.7,0.9-0.3,1.4c0.2,0.3,0.6,0.5,0.9,0.7
			c0.8,0.8,2,1.6,1.8,2.9c-0.1,1.4-1.4,1.5-2.3,2.1c-1.4,0.9-3,1.7-3,3.8c0,0.6-0.5,1.7-0.9,1.7c-1,0.2-0.8-0.9-0.9-1.5
			c-0.4-2-1.3-2.6-3.3-2.2c-0.6,0.1-1.4,0.3-1.8,0.1c-1.7-0.9-3.1-2.3-3.6-4.1c-1-3.7-1.7-7.5-2.6-11.2c-0.5-2.3-1.1-4.7-1.6-7
			c-0.1-0.3-0.3-0.5-0.5-0.8c-0.2,0.2-0.3,0.3-0.3,0.3c0.2,3-0.1,6,1.1,8.8c0.2,0.4,0.2,0.8,0.3,1.3c0.4,2.2,0.8,4.3,1.1,6.5
			c0.1,1.1,0.3,2.3,0,3.3c-0.6,2.2,0.1,3.4,2.4,3.5c0.4,0,1,0.2,1.2,0.5c0.4,0.7,0.7,1.4,0.9,2.2c0.1,0.3-0.1,0.9-0.4,1
			c-0.7,0.4-1.5,0.6-2.5,0.9c-0.7-1.6-2.4-1.4-4-1.7c-0.7-0.1-1.5-0.8-1.7-1.5c-0.5-1.4-0.4-3.1-1.9-4c-1.2-3.7-2.5-7.4-3.6-11.1
			c-0.6-2-1.1-4-1.8-6c-0.2-0.6-0.7-1.2-1.1-1.8c-0.2,0.1-0.4,0.2-0.5,0.2c0,0.7-0.1,1.3,0,2c0.3,1.4,0.8,2.8,1.2,4.2
			c0.3,1.1,0.6,2.1,1,3.2c0.5,1.7,1.1,3.4,1.6,5c0.1,0.4,0.3,0.8,0.4,1.1c0.4,1.5,0.9,3,1.1,4.5c0.1,0.6,0,1.3-0.4,1.8
			c-0.7,1-0.3,1.9,0.4,2.3c1,0.5,1.3,1.3,1.9,2.1c0.6,0.9,0.6,1.7,0.6,2.6c0,0.9-0.7,1.2-1.5,0.7c-0.3-0.2-0.5-0.5-0.8-0.8
			c-0.6-0.6-1.2-0.7-1.9-0.2c-1.7,1.1-2.4,0.8-3.3-1c-0.8-1.5-1.5-3.2-2.6-4.4c-0.8-1-1.4-2-1.8-3.1c-0.1-0.4-0.2-0.8-0.3-1.2
			c-1-3.1-2-6.3-3.1-9.4c-0.5-1.5-1.1-3-1.7-4.5c-0.1-0.3-0.6-0.4-0.9-0.6c-0.1,0.4-0.3,0.8-0.4,1.1c0,0.1,0.1,0.3,0.1,0.5
			c0.8,2.5,1.5,5,2.2,7.4c0.6,1.9,1.1,3.7,1.8,5.6c0.3,0.8,0.9,1.5,1,2.4c0.3,1.4,0.8,2.6,1.6,3.8c0.4,0.6,0.6,1.3,0.8,2.1
			c0.4,1.5,0.5,3.3,1.9,4.2c1,0.7,1.1,1.3,0.7,2.3c-0.1,0.3-0.2,0.6-0.3,0.9c-0.1,0.5-0.3,0.9-0.4,1.3c-0.6-0.2-1.3-0.3-1.9-0.7
			c-0.5-0.3-0.7-0.9-1.1-1.2c-2.2-1.6-3.5-3.8-4.8-6c-0.2-0.4-0.7-0.8-1-1.2c-0.6-0.8-1.4-1.5-1.8-2.4c-0.9-2.3-1.7-4.7-2.5-7.1
			c-0.7-2.2-1.4-4.5-2.1-6.7c-0.4-1.1-0.7-2.3-1.2-3.4c-0.1-0.3-0.6-0.4-0.9-0.7c-0.1,0.3-0.4,0.6-0.4,0.9c0.1,1,0.2,2,0.5,2.9
			c0.2,0.9,0.7,1.8,1,2.7c0.8,2.3,1.6,4.7,2.3,7c0.7,2.3,1.3,4.6,2,6.9c0.2,0.6,0.5,1.1,0.8,1.7c0.6,1.1,1.3,2.2,1.9,3.2
			c1,1.7,1.5,3.6,3.1,5c1.2,1.1,1.9,2.9,2.6,4.4c0.5,1.1,0.4,2.5,1,3.6c0.6,1.2,0.6,2.4,0.3,3.6c-0.1,0.4-0.2,0.9-0.3,1.3
			c-0.2,2-0.4,4-0.6,6c0,0.2,0,0.5-0.1,0.7c-0.7,1.3-0.5,2.4,0.6,3.4c0.3,0.3,0.5,1,0.3,1.3c-0.6,1.4-1.2,3-2.2,4.1
			c-2.2,2.2-4.7,4.1-7.1,6.1c-0.1,0.1-0.3,0.2-0.5,0.3c-1.8,0.4-3.4,1.2-4.4,2.8c-0.1,0.1-0.3,0.2-0.4,0.2c-2.4,1.1-4.9,2.1-7.2,3.4
			c-3.5,1.8-6.8,3.8-10.2,5.7c-0.9,0.5-1.7,1.1-2.4,1.8c-2,2-4.1,3.9-6,6c-1.5,1.7-2.7,3.6-4,5.5c-0.5,0.7-0.8,1.6-1.3,2.3
			c-1.7,2.5-2.8,5.2-2.7,8.4c0,0.9,0.3,1.4,1.2,1.6c6.8,1.9,13.5,4.1,20.4,5.8c14.6,3.5,29.5,5.6,44.5,6.2
			c8.3,0.3,16.6,0.3,24.9,0.1c9.8-0.2,19.4-1.3,29.1-2.8c11-1.7,21.8-4.2,32.4-7.5C220,215.1,220.2,214.8,219.8,213.3z M197.5,119.6
			c1.1-0.3,1.8,0.3,2.4,2.4c-1.1,0.5-2.2,0.9-3.3,1.3C196,120.7,196.2,119.9,197.5,119.6z M196.4,134.5c-0.1-0.3-0.2-0.5-0.2-0.8
			c0-2.5-0.1-5,0-7.5c0-0.3,0.4-0.8,0.8-0.9c1.5-0.7,2.9-1.3,4.4-1.8c1.5-0.5,3.8,0.3,4.6,1.6c0.3,0.5,0.2,1.4-0.1,1.8
			c-1,1.3-2.1,2.7-3.2,3.8c-0.9,0.9-1.2,1.7-1,2.9c0.2,1,0.2,2,0.3,2.9c-0.2,0-0.3,0.1-0.5,0.1c-0.2-0.8-0.3-1.6-0.5-2.4
			c-0.1-0.4-0.3-0.7-0.5-1c-0.3,0.2-0.7,0.3-1,0.5c-0.4,0.3-0.8,0.8-1.2,1.1C197.3,135.6,196.8,135.5,196.4,134.5z M204.8,173.1
			c-0.4-0.2-0.7-0.3-0.9-0.5c-1.2-1.1-2.6-2.2-3.7-3.4c-1.6-1.7-2-4-2-6.2c0.1-3.8-0.7-7.4-1.1-11.1c-0.2-2.5-0.1-5.1-0.1-7.7
			c0-0.8,0.8-1,1.1-0.6c1.1,1.2,2.2,1.3,3.7-0.1C203.1,153.6,205.3,163.1,204.8,173.1z M206.1,156.5c0,0.5-0.2,1-0.4,1.6h-0.3
			c-0.2-0.6-0.4-1.3-0.5-1.9c-0.7-4.7-1.2-9.3-1.9-14c-0.3-2.1,0.6-4,0.8-6c0.2-1.7,0.6-3.4,0.9-5.1c0-0.2,0-0.5,0.1-0.7
			c0.3-0.4,0.6-0.7,1-1.1c0.2,0.4,0.5,0.8,0.5,1.2c0,7.4,0.1,14.8,0.1,22.2C206.2,153.9,206.2,155.2,206.1,156.5z"/>
	</g>
	<path d="M202.1,51.8c0.8-0.8,1.5-1.4,2.2-2c0.1,0.1,0.2,0.1,0.3,0.2c-0.1,0.4-0.2,0.9-0.2,1.3c-0.1,0.8,0.3,1.2,1.1,0.9
		c0.7-0.2,1.4-0.5,2.1-0.9c2-1,3.9-1.5,6.1-0.6c0.9,0.3,1.3,0,1.4-1c0.1-0.7,0.4-1.8,0.9-2c1.1-0.3,2.3-0.5,3.3,0.5
		c1.2,1.2,2.7,2,3.4,3.7c0.1,0.2,0.8,0.2,1.2,0.1c0.5-0.1,0.9-0.4,1.4-0.6c0.2,0.5,0.6,1.1,0.4,1.5c-0.3,1-0.7,2.2-1.5,2.8
		c-0.8,0.7-2,1-3.1,0.3c-0.6-0.4-0.9-0.8-0.6-1.5c0.1-0.3,0-0.6,0-0.9c-0.3,0-0.6-0.1-0.8,0.1c-0.7,0.4-1.3,0.2-1.8-0.4
		c-1.1-1.3-2.5-1.3-4-0.7c-1.4,0.6-2.9,1-4.4,1.4c-0.1,0-0.2,0-0.2,0.1c-1.6,1.9-3.5,0.9-5.4,0.6c-0.8-0.2-1,0.2-1.3,0.7
		c-0.4,1,1,2.8,2,2.5c1.2-0.4,2.3,0,3.3,0.4c1,0.4,1.3,1.1,0.6,1.9c-1.3,1.4-2.4,3.1-4.6,3.2c-1,0-2.1,0.3-3.1,0.5
		c-0.7,0.2-1.1,0.6-0.6,1.4c0.2,0.3,0.2,1,0,1.3c-0.2,0.2-0.8,0.2-1.2,0.2c-0.2,0-0.4-0.1-0.5-0.2c-1-1.4-2.1-2.7-3.1-4.1
		c-0.1-0.1-0.1-0.4,0-0.6c0.8-1.5-0.3-2.3-1-3.4c-0.9-1.2-1.8-2.4-2.6-3.7c-0.4-0.7-0.3-1.5,0.5-1.9c0.9-0.5,1.6-0.2,2.1,0.5
		c0.6,0.9,1,2,1.5,3c0.2,0.4,0.6,0.6,0.9,0.9c0.2-0.4,0.7-0.8,0.7-1.2c0.1-1.6,0-3.3,0-4.9c0-2.1,1.2-3.5,3.1-4
		c1.1-0.2,1.6,0.1,1.5,1.2c0,0.9-0.3,1.7-0.4,2.6C201.9,51.1,202,51.4,202.1,51.8z"/>
	<path d="M198.7,38.3c0.6,0.1,1.3,0.3,1.9,0.2c0.5,0,1.3-0.3,1.4-0.6c0.3-0.8-0.5-1-1.1-1.2c-0.4-0.1-0.9-0.1-1.3-0.3
		c-2.5-0.7-3.6-3.5-2.2-5.7c1.1-1.7,0.9-3.2-0.6-4.4c-0.1-0.1-0.3-0.2-0.4-0.3c-0.6-1.4-1.6-1.7-3.1-1.5c-0.9,0.1-1.3-0.5-0.7-1.3
		c0.6-0.8,1.4-1.6,2.1-2.4c0.2-0.3,0.4-0.6,0.7-0.8c0.3-0.3,0.7-0.5,1.2-0.7c0.5-0.2,1.1-0.5,1.6-0.6c0.3-0.1,0.7,0.1,1.1,0.2
		c0.7,0.2,1.3,0.7,2,0.7c1.3,0.1,2,0.8,1.4,2c-0.8,1.4-1.1,2.9-1,4.5c0,0.7,0.3,1.8,0.7,1.9c0.9,0.3,1.4-0.5,1.6-1.4
		c0.1-0.3,0.5-0.4,0.8-0.7c0,0.3,0.2,0.7,0.1,0.9c-0.6,1.6-1.4,3.2-2,4.8c-0.1,0.4,0,1.1,0.2,1.3c2.5,2,2.2,4.6,1.7,7.2
		c-0.3,1.4-0.9,2.8-1.4,4.2c-0.3,0.7-0.8,1-1.5,0.4c-0.9-0.7-1.5-0.6-2.1,0.5c-0.5,0.9-1.5,1-2.5,0.3c-1-0.7-1.4-2.2-1.1-3.5
		c0.1-0.5,0.3-1.1,0.3-1.6C196.2,38.4,196.4,38.2,198.7,38.3z"/>
	<path d="M177.5,46.6c1.1,0.1,2.1,0.2,3.2,0.5c0.5,0.1,1.1,0.5,1.4,1c0.2,0.3,0.2,0.9,0.1,1.3c-0.1,0.3-0.6,0.5-0.9,0.5
		c-1.9,0.4-3.8,0.8-5.7,1.1c-1,0.2-2,0.4-2.9,0.3c-1.1-0.1-1.3-0.9-0.6-1.7C173.4,47.9,174.8,46,177.5,46.6z"/>
	<path d="M182.4,55.7c-0.4-0.1-0.9-0.1-1.3-0.2c-2.2-0.3-4.5-0.9-6.7,0c-0.7,0.3-1.4,0.8-2.1,1.1c-1.1,0.4-1.9,0-2.4-1.1
		c-0.4-1.1,0.4-1.4,1.2-1.7c2.5-1.1,5.1-1.6,7.7-0.2c0.9,0.5,1.9,0.7,2.9,1.1c0.3,0.1,0.6,0.4,0.8,0.6
		C182.5,55.4,182.5,55.5,182.4,55.7z"/>
	<path d="M206.7,49.9c-0.7-0.3-1.4-0.5-1.5-0.8c-0.1-0.4,0.2-1,0.5-1.4c0.9-1.2,1.9-2.4,3-3.4c0.9-0.8,2.1-1.4,3.2-2
		c0.2-0.1,0.6,0.1,0.9,0.2c-0.1,0.3-0.1,0.7-0.3,0.8c-1.8,1.5-2.9,3.5-4.1,5.4C208,49.2,207.3,49.5,206.7,49.9z"/>
	<path d="M216.6,45.8c-0.7,0.4-1.4,0.7-2.1,1.1c-0.3,0.2-0.9,0.4-1.1,0.3c-0.3-0.2-0.5-0.7-0.5-1.1c-0.1-1,0.3-1.9,1.2-2.4
		c0.9-0.5,2-0.9,3-1.1c1.3-0.3,2.1,0.4,2.2,1.4c0.1,1.2-0.7,2-2,2.1c-0.2,0-0.4,0-0.6,0C216.6,46,216.6,45.9,216.6,45.8z"/>
	<path d="M194.5,38.2c0.1,1,0.2,2,0.2,3c0,1.2-1.1,2.1-2.3,1.7c-0.3-0.1-0.6-0.7-0.6-1c0.1-1.2,0.3-2.4,0.4-3.6
		c0.1-0.6,0-1.3,0.1-1.9c0.1-0.6,0.4-1.2,0.8-1.6c0.5-0.5,1.1-0.2,1.2,0.5c0.1,0.9,0.2,1.9,0.2,2.8
		C194.6,38.2,194.6,38.2,194.5,38.2z"/>
	<path d="M190.1,60.4c1,0.4,2.1,0.6,3.1,1.1c0.9,0.5,0.9,1.4,0,1.9c-0.7,0.4-1.4,0.6-2.1,0.8c-0.4,0.1-0.9-0.1-1.2-0.3
		c-0.6-0.5-1.1-1-1.6-1.6c-0.5-0.5-0.3-1.4,0.5-1.6c0.4-0.1,0.8,0,1.2,0C190,60.6,190,60.5,190.1,60.4z"/>
	<path d="M187,57.7c-0.2,0.3-0.4,0.7-0.6,0.8c-0.2,0.1-0.7,0-0.8-0.2c-0.5-0.5-1-1.1-1.2-1.7c-0.1-0.4,0.1-1.3,0.4-1.4
		c0.4-0.2,1.2,0,1.5,0.4C186.7,56.1,186.8,56.9,187,57.7z"/>
	<path d="M188.5,47.3c1.5,0,2.4,0.7,2.4,1.7c0,0.3-0.5,0.7-0.7,0.7c-1,0.1-2.4-0.9-2.3-1.6C187.8,47.8,188.3,47.5,188.5,47.3z"/>
	<path d="M183,43.3c0.8-1.2,2.6-2.1,3.8-1.7c0.3,0.1,0.5,0.4,0.7,0.5c-0.2,0.2-0.4,0.5-0.6,0.6c-1.2,0.4-2.5,0.7-3.7,1
		C183.1,43.6,183,43.4,183,43.3z"/>
	<path d="M192.8,34c-0.3-0.5-0.7-0.9-0.6-1c0.2-0.6,0.7-1.1,1-1.6c0.4,0.5,0.9,0.9,1.3,1.4C194,33.1,193.5,33.5,192.8,34z"/>
	<path d="M197.3,66.2c0.2,0.8,0.3,1.6,0.5,2.4c-0.2,0-0.4,0.1-0.7,0.1c-0.2-0.8-0.3-1.6-0.5-2.4C196.8,66.3,197,66.2,197.3,66.2z"/>
	<path d="M148.1,114c-0.4,0.3-0.7,0.6-0.9,0.5c-0.3-0.1-0.5-0.4-0.6-0.7c0-0.1,0.4-0.6,0.6-0.5C147.4,113.3,147.7,113.7,148.1,114z"
		/>
	<path style="fill:#FFFFFF;" d="M208.8,182.4c-0.4,0.1-0.8,0.5-0.1,1.2c0.2,0.2,0.2,0.8,0.1,1.1c-1,2.2-0.5,4.5-0.4,6.8
		c0.1,2,1.1,3.8,0.5,5.8c-0.1,0.2,0.1,0.5,0.2,0.8c0.2,0.6,0.3,1.2,0.6,1.9c0.4,0.1,1,0.3,1.7,0.4c1.1,0.2,2.6,1.5,2.8,2.5
		c0,0.2-0.2,0.6-0.4,0.7c-0.5,0.1-0.9,0-1.4-0.1c-0.7-0.1-1.5-0.3-2.2-0.4c-1.3,0-1.8,0.6-1.8,1.8c0.3,3.8,0.5,7.6,0.8,11.4
		c0.1,1.4-0.1,1.6-1.5,1.3c2-1.5,0-3.1,0.3-4.8c0.2-1.6-0.4-3.1-0.1-4.8c0.2-1.5-0.2-3.1-0.4-4.6c-0.1-0.8-0.7-1-1.5-1.1
		c-1.2-0.1-2.4-0.3-3.5-0.6c-1.2-0.3-1.5-0.1-1.3,1.2c0.1,0.4,0.1,0.7,0.1,1.1c-0.1,0-0.3,0.1-0.4,0.1c-0.2-0.5-0.5-1-0.6-1.5
		c-0.1-0.7-0.4-1-1.1-1c-1,0-2-0.3-3-0.3c-1.9,0-3.8,0.2-5.7,0.3c-0.4,0-0.8-0.2-1.2-0.3c-0.7-0.1-1.4-0.1-2.1-0.1
		c-1-0.1-2-0.2-3-0.3c-0.3,0-0.6,0-0.9,0c-0.1,0-0.3,0.3-0.4,0.2c-1.3-0.8-2.6,0.2-3.9-0.1c-0.2,0-0.4,0-0.5-0.1
		c-1.8-1.3-3.7-0.5-5.6-0.7c-2.4-0.2-4.3,1.6-6.6,1.2c-0.1,0-0.2,0.1-0.4,0.4c2,1,4.1-0.5,5.9,0.6c-0.1,0.7-0.2,1.5-0.3,2.3
		c-0.1,0.3-0.4,0.6-0.6,0.8c-0.8,0.7-0.7,1.4,0.3,1.8c0.5,0.2,1,0.4,1.5,0.4c0.5,0,1.1-0.1,1.4-0.4c0.2-0.2,0-0.9-0.2-1.3
		c-0.3-0.6-0.8-1.1-1-1.7c-0.2-0.6,0-1.2,0-2c2.2,0,4.5,0,6.8,0c-0.1,0.1-0.2,0.3-0.3,0.4c0.3,0.7,0.8,1.3,1,2
		c0.1,0.5,0,1.2-0.3,1.5c-0.4,0.6-1.1,0.9-1.6,1.4c-0.3,0.3-0.3,0.9-0.5,1.6c1-0.3,1.7-0.6,2.4-0.8c0.7-0.2,1.1,0.2,1,0.9
		c-0.1,0.6-0.2,1.3-0.3,1.9c-0.2,0.7-0.5,1.1-1.4,0.7c-0.3-0.1-0.9,0-1.1,0.2c-0.7,0.9-1.3,1.9-2,2.8c-0.6,0.8-1.1,1.8-1.9,2.4
		c-0.6,0.4-1.6,0.5-2.4,0.5c-1.2,0-1.5,0.1-1.1,1.3c0.1,0.4,0.3,0.7,0.4,0.8c1.2,0,2.2,0,3.1,0c0.2,0,0.4,0.1,0.5,0.2
		c0.6,0.5,1.2,1,2,1.8c-1.3,0.7-2.6,1.5-4,2.2c-0.5,0.3-1.1,0.2-1.1-0.7c0-0.7-0.3-1.5-0.5-2.2c-0.1,0-0.2,0-0.3,0
		c-0.1,0.8-0.2,1.6-0.3,2.4c-0.1,0.3-0.3,0.5-0.5,0.8c-0.2-0.3-0.5-0.5-0.5-0.8c-0.2-1.2-0.3-2.4-0.4-3.7c-0.1-0.4-0.2-0.8-0.4-1.2
		c-0.1,0-0.3,0-0.4-0.1c-0.1,0.4-0.4,0.9-0.4,1.3c0,1.1,0.1,2.2,0.1,3.3c0,0.6-1.1,1.5-1.7,1.3c-0.7-0.3-1.1-0.8-0.9-1.6
		c0.3-0.9,0-1.8-0.7-2.2c-0.9-0.6-1-1.5-1.2-2.4c-0.3-1.5-0.7-3-0.8-4.5c-0.3-3.3-1.2-6.6-0.8-10c0-0.3-0.4-0.8-0.6-0.9
		c-1.8-0.5-3.6-0.2-5.2,0.6c-0.3,0.2-0.5,1-0.4,1.4c0.2,1.2,0.4,2.3-1.1,2.9c-0.3,0.1-0.5,0.8-0.4,1.1c0.2,0.4,0.6,0.6,1.1,0.8
		c0.2,0.1,0.5-0.1,1.1-0.3c0.2,1.5,0.3,2.9,0.5,4.4c0.3,2.5,0.6,5.1,1,7.6c0.1,0.9,0.3,1.8,0.5,2.8c0.2,0.9-0.3,1.1-0.9,1
		c-0.2-2.3-0.4-4.4-0.6-6.6c0-0.3-0.5-0.6-0.8-0.9c-0.2,0.4-0.7,0.7-0.7,1.1c-0.1,0.8,0.2,1.7,0.1,2.5c0,0.4-0.5,0.8-0.7,1.1
		c-0.3-0.3-0.7-0.6-0.9-1c-0.7-1.5-0.8-3.2-0.6-4.8c0.1-0.5,0.4-0.9,0.7-1.3c0.4-0.7,1.1-1.3,1.3-2c0.2-0.6-0.2-1.1-1-0.8
		c-0.7,0.3-1.3,0.7-1.9,0.9c-0.4,0.1-0.8,0-1.2,0.1c0-0.4,0.1-0.8,0.2-1.4c-0.3-0.2-0.8-0.7-1.3-0.6c-1.2,0.2-1.6-0.3-1.9-1.3
		c-0.1-0.3-0.5-0.7-0.8-0.9c-0.7-0.5-1.3-0.2-1.4,0.7c-0.1,0.4-0.1,0.8-0.2,1.4c-1.4-2.1-1.4-2.1-3.5-1.7c0.1-1.1,0.3-2.1,0.4-3.1
		c0.1-0.5,0.2-1,0.4-1.4c0.2-0.3,0.6-0.6,0.9-0.6c0.2,0,0.6,0.5,0.7,0.8c0.1,0.4,0,0.9,0,1.3c0,1,0.7,1.5,1.6,1.4
		c0.4,0,0.9,0.1,1.2,0.3c0.8,0.8,1.6,0.5,2.3,0c0.7-0.6,0.3-1.2-0.1-1.8c-0.5-0.8-1-1.5-1.3-2.4c-0.3-0.9,0.5-0.8,1.1-0.9
		c1.5-0.2,3-0.4,4.5-0.7c0,0,0.1-0.1,0.3-0.5c-0.9,0-1.7,0-2.5,0c-0.9-0.1-1.8-0.2-2.7-0.3c-0.2,0-0.5-0.2-0.7-0.1
		c-1.6,0.4-3.2,0.8-4.9,1.1c-1.9,0.4-3.8,0.7-5.7,1.3c-1.6,0.5-3.2,1.3-4.7,2c-1.3,0.6-2.6,1.2-3.9,1.7c-1.6,0.6-3.3,1-4.8,1.6
		c-1.5,0.6-2.9,1.5-4.4,2.1c-2.5,1-5,1.9-7.5,2.9c-1.3,0.5-2.6,1.3-3.9,1.9c-1.2,0.5-2.4,0.9-3.7,1.3c-0.9,0.3-1.9,0.4-2.4,1.4
		c-0.2,0.3-0.6,0.5-1,0.6c-1,0.4-2.1,0.6-3,1.1c-1.5,0.7-3,0.6-4.4,0.1c-0.2-0.1-0.3-0.6-0.4-1c-0.1-0.5,0-1.1-0.2-1.6
		c-0.1-0.3-0.6-0.5-0.9-0.6c-0.2,0-0.5,0.4-0.7,0.7c-0.3,0.5-0.5,1-0.6,1.4c-1.6-0.4-3-0.8-4.6-1.3c0.2-0.2,0.5-0.4,0.9-0.6
		c2.1-1.2,4.3-2.4,6.4-3.6c0.2-0.1,0.5-0.3,0.8-0.3c2.9-0.2,5.2-1.9,7.7-3.1c0.3-0.1,0.5-0.3,0.7-0.4c2-0.1,3.3-1.4,5-2.2
		c1.7-0.8,3.5-1.5,5.2-2.3c1.2-0.5,2.4-0.9,3.6-1.5c0.7-0.3,1.3-0.9,2-1.3c0.4-0.2,0.9-0.3,1.3-0.4c0.6-0.2,1.3-0.2,1.9-0.5
		c1.5-0.6,3-1.3,4.4-2c2-1,4.1-2,6.1-2.9c0.8-0.4,1.7-0.6,2.6-0.9c2.2-0.9,4.4-1.9,6.7-2.7c0.9-0.4,2-0.5,3-0.7
		c0.2-0.1,0.4-0.2,0.6-0.3c1-0.9,2-1.8,3.1-2.6c0.7-0.5,1.7-0.7,2.6-0.7c1.8-0.1,3.8-0.4,5.4,0.7c0.3,0.2,0.6,0.4,0.8,0.7
		c0.6,0.7,1.7,1,2.3,0.3c0.9-1,1.9-1,3.1-1c2.1,0,4.1,0,6.2,0c0.7,0,1.4,0,2,0.1c1.3,0.1,1.6-0.2,1.6-1.4c0-0.8,0.1-1.5,0.2-2.3
		c0.1,0,0.3,0,0.4,0c0.1,0.3,0.1,0.5,0.2,0.8c0.1,0.8,0.2,1.7,0.4,2.4c0.3,0.9,0.9,1.2,1.9,0.7c0.4-0.2,0.9-0.1,1.4,0
		c0.7,0.1,1.4,0.4,2.1,0.5c2.6,0.1,5.2,0.2,7.8,0.3c0.6,0,1.1,0,1.7,0.1c0.9,0,1.8-0.1,2.4,0.9c0.3,0.4,1,0.4,1.5,0.6
		c0.7,0.3,1.5,0.6,2.1,1.1c0.3,0.2,0.1,1,0.2,1.5c-0.4-0.2-1-0.2-1.2-0.5c-0.7-0.9-1.8-1.1-2.7-0.4c-0.7,0.6-1.4,0.7-2.3,0.5
		c-0.4-0.1-1,0.6-1.4,1.1c-0.2,0.2-0.2,0.8,0,1c0.5,0.6,1,1.3,2.1,1c0.6-0.1,1.3,0.4,2.2,0.5c-0.2-0.3-0.6-0.5-0.7-0.8
		c-0.1-0.4-0.3-1-0.1-1.3c1.2-1.6,2.8-1.4,3.5,0.6c0.1,0.3,0,0.7-0.2,1c-0.2,0.5-0.6,1-0.7,1.7c0.3-0.1,0.5-0.3,0.8-0.4
		c1.4-0.8,2.7-0.3,4,0.2c1.1,0.4,2.4,0.6,3.6,0.7c0.4,0,0.8-0.6,1.2-0.9c1.1-0.9,1.2-0.9,2.2,0.2c0.2,0.3,0.6,0.4,0.9,0.6
		c0.2-0.4,0.4-0.7,0.5-1.1c0.1-0.2,0-0.4-0.1-0.6c-0.2-0.5-0.4-1.1-0.5-1.6c-0.5,0.3-1.1,0.4-1.5,0.8c-0.6,0.5-1.1,0.5-1.2-0.2
		c-0.1-0.8-0.1-1.7,0.2-2.4c0.2-0.5,1.2-0.9,1.8-0.8c0.9,0.2,1.2-0.3,1.1-0.9c-0.1-1.4-0.3-2.8-0.7-4.1c-0.1-0.4-0.7-0.8-1.2-1
		c-0.8-0.3-1.7-0.5-2.5-0.7c-0.3,0-0.8,0.2-0.8,0.3c0,1-0.2,2.1,0.1,3.1c0.2,0.7,1.2,0.6,1.7-0.2c0.3-0.4,0.7-0.7,1.1-1.1
		c0.1,0.1,0.3,0.1,0.4,0.2c-0.1,0.8-0.1,1.7-0.4,2.4c-0.8,1.6-1.8,3.1-2.7,4.6c-0.1,0.2-0.6,0.5-0.8,0.4c-0.8-0.4-1.6-0.9-2.4-1.4
		c-1.2-0.9-2-2-2.3-3.5c0-0.3-0.5-0.4-0.7-0.7c-0.6-0.6-1.4-1.1-1.7-1.8c-0.4-1-1-1.6-1.9-2c-0.1,0-0.2-0.1-0.3-0.2
		c-2.6-2.8-5.9-4.3-9.7-5c-2.4-0.5-4.5-0.4-6.7,0.6c-0.7,0.3-1.4,1-1.9,0.9c-0.6-0.1-0.9-1.1-1.5-1.6c-1.4-1.1-3-2-4.5-3
		c-0.1-0.1-0.2-0.1-0.3-0.1c-1.8,0-3.6-0.2-5.2-1.2c-0.1-0.1-0.3,0.1-0.5,0.1c0.1,0.2,0.1,0.4,0.2,0.5c0.6,0.6,1.5,1.2,1.1,2.1
		c-0.6,1.2-1.3,2.7-2.4,3.3c-1.6,0.8-3.5,1.3-5.3,1.4c-3.7,0.2-4.6-2.3-3.8-5.8c0.1-0.7,0.8-1.3,1.1-1.9c0.1-0.3,0.3-0.6,0.3-0.8
		c0-0.1-0.5-0.3-0.7-0.3c-1.7,0.1-3.1-0.9-4.3-1.8c-2.1-1.5-4.3-1.2-6.5-1c-0.6,0.1-1.2,0.3-1.9,0.5c-1.4,0.4-2.6,1-3.8,2
		c-2.4,2.1-5.2,3.7-7.9,5.5c-1.4,0.9-2.6,3.8-2.2,5.4c0.2,1,0.1,2.1,0.1,3.2c0,0.1-0.1,0.4-0.2,0.4c-0.8,0-1.6,0.1-2.3,0
		c-0.2,0-0.5-0.8-0.5-1.2c0.1-1.3,0.5-2.4,1.6-3.3c0.6-0.5,0.8-1.5,1.1-2.3c-0.1-0.1-0.2-0.3-0.4-0.4c-1.7,0.6-3.4,1.2-5,1.8
		c-0.1-0.2-0.1-0.3-0.2-0.5c2.9-1.6,5.8-3.2,8.7-4.8c0-0.2-0.1-0.3-0.1-0.5c-0.4-0.1-0.9-0.2-1.4-0.3c0-0.2,0.1-0.6,0-0.7
		c-0.3-0.4-0.7-1-0.9-0.9c-1.1,0.3-2.1,0.6-3.1,1.1c-1.6,0.8-3.2,1.8-4.8,2.7c-1.3,0.7-2.6,1.4-3.9,2c-0.7,0.3-1.5,0.6-2.5,1
		c1.1,0.6,1.9,1.1,2.7,1.5c-0.4,0.8-1.5,1.1-2.5,0.6c-0.6-0.3-1.3-0.6-1.9-0.9c-0.7-0.2-1.1-0.1-1.2,0.8c-0.4,2.9-1.1,3.4-4,2.6
		c-1.1-0.3-2.2-0.6-3.3-0.6c-1.2,0-1.4,0.5-1.3,1.7c0,0.3-0.4,0.8-0.8,0.9c-1.3,0.5-2.6,0.8-3.8,1.5c-0.7,0.4-1.1,1.3-1.8,2.1
		c-0.1-0.5-0.2-1.1-0.3-1.7c-0.1-0.1-0.2-0.1-0.4-0.2c-0.8,0.9-1.6,1.7-2.5,2.7c-0.8,0-1.9-0.1-2.9,0c-1.1,0.2-1.9,0.8-2.1,2
		c-0.8-0.6-1.1-1.9-0.4-3.1c1-1.8,2.2-3.6,3.4-5.3c2.9-4.5,7.5-6.8,12.1-9c1.5-0.8,1.9-0.4,1.8,1.3c0,0.3,0,0.5,0,0.8
		c0.6,0.1,1.2,0.3,1.7,0.3c0.3,0,0.7-0.1,1-0.3c0.9-0.6,1.7-1.2,2.5-1.9c0.5-0.5,0.8-1.3,1.3-1.9c0.7-0.7,1.5-1.4,2.4-1.9
		c0.3-0.2,0.9,0.1,1.2,0.3c1,0.8,1.9,0.9,2.9,0.2c0.6-0.4,1.3-0.6,1.7-0.9c0.3-0.7,0.4-1.5,0.9-1.9c0.9-0.8,1.8-2,3.3-1.1
		c0.2,0.1,0.7-0.1,1-0.3c2.1-1.4,4.3-2.5,5.9-4.5c0.5-0.7,1.2-1.3,1.8-1.8c0.8-0.7,1.7-0.7,2.5-0.2c0.5,0.3,1,0.6,1.6,1.1
		c-0.4,2-1.9,3.8-3,5.6c0.1,0.1,0.3,0.2,0.4,0.3c0.4-0.4,1-0.6,1.3-1.1c0.9-1.2,1.7-2.5,2.6-3.7c0.5-0.8,1.1-1.4,2.2-0.9
		c0.2,0.1,0.4-0.1,0.4-0.1c0.2-1.8,0.1-3.5,0.6-5c0.2-0.8,1.5-1.3,2.3-1.9c0.5-0.3,0.9-0.6,1.4-0.9c0.2-0.2,0.4-0.4,0.6-0.6
		c2.2-1.2,4.5-2.1,6.5-3.5c2.7-1.7,5.3-1.1,7.9-0.2c0.9,0.3,1.8,0.5,2.7,0.7c1.1,0.3,2.2,0.6,3.3,0.8c0.3,0.1,0.7,0.1,1.1,0.1
		c1.9,0.1,3.8,0.5,5.7,0.3c1.6-0.1,3.2-0.8,4.8-1.3c1.7-0.6,1.8-0.7,2.8,0.7c1.7,2.3,3.3,4.8,5.1,7.1c0.5,0.7,1.6,1,2.5,1.2
		c1.9,0.4,1.9,0.4,2.1,2.4c0,0.3,0.4,0.8,0.6,0.9c1.6,0.7,3.1,1.2,5,1c2.2-0.3,4.4,0.1,6.4,1.5c0.2,0.2,0.5,0.3,0.7,0.5
		c0.4,0.3,0.7,0.7,1,1.1c-0.4,0.4-0.8,0.9-1.3,1c-0.7,0.2-1.6,0.2-2.3,0.2c-1.1-0.1-2.2-0.3-3.3-0.3c-0.8,0-1.1,0.6-0.5,1.2
		c0.5,0.5,1.3,0.8,2,1c0.9,0.3,1.9,0.4,2.9,0.5c0.5,0.1,1-0.1,1.6-0.2c0.3,0,0.6,0,1-0.1c0,0.4,0,0.9-0.2,1.2
		c-0.5,0.7-1.1,1.2-1.7,1.8c-0.7,0.7-1.2,0.8-2.2,0.3c-1.8-0.8-3.6-1.3-5.5-1.9c-2.4-0.7-4.8-1.3-7.1-2c-0.7-0.2-1.3-0.2-1.7,0.6
		c-0.1,0.3-0.7,0.4-1.1,0.4c-0.4,0-0.8-0.1-1.3-0.1c0,0.3,0,0.5,0,0.5c1.7,0.4,3.2,2,5.2,1.3c0.2-0.1,0.9,0.4,1,0.8
		c0.3,0.9,0.6,1.2,1.6,1.2c1.1-0.1,2.1,0.5,3,1.5c-1.4,0-2.5,0.4-3.6-0.6c-0.2-0.2-1-0.2-1,0c-0.2,0.4-0.3,1-0.2,1.4
		c0,0.2,0.7,0.5,0.9,0.5c1-0.4,1.6,0,2.3,0.7c0.9,1,1.4,0.8,2.3-0.3c0.4-0.5,1.2-0.9,1.8-1c1.1-0.1,2.1,0.2,3.2,0.3
		c0.7,0.1,1.5,0.2,2.2,0.4c1.1,0.3,2.1,0.6,3.4,0.9c-0.7,1-1.5,1-2.3,1c-1.2,0-2.4-0.2-3.5,0c-1,0.1-1.9,0.7-2.8,1.1
		c0,0,0.1,0.8,0.3,0.8c0.7,0,1.5,0.1,2.2-0.1c0.9-0.2,1.7-0.5,2.3,0.6c0.1,0.1,0.3,0.3,0.5,0.3c0.8-0.2,1.7-0.3,2.4-0.7
		c0.6-0.4,1-0.5,1.6-0.1c0.9,0.5,2.8-0.5,3.1-1.6c0.1-0.5,0.1-1.1,0.2-1.7c0-0.8,0.1-1.5,0.1-2.3c0-0.2,0.1-0.5,0-0.7
		c-0.8-1.3-0.5-2.8-1.1-4.1c-0.2-0.4,0-0.9,0-1.4c0.5,0.1,1,0,1.4,0.3c1.4,1.1,2,2.6,2.1,4.4c0,0.4-0.2,0.9,0,1.3
		C208.2,181.3,208.5,181.9,208.8,182.4z M94.6,218c0.7,0.5,1.1,0.8,1.6,1.1c0.2,0.1,0.5,0,0.8,0c0.7,0,1.3,0.1,2,0.1
		c-0.4-0.5-0.9-1-1.1-1.5c-0.2-0.5-0.1-1.1,0-1.7c0-0.2,0.3-0.3,0.5-0.4c0.2,0.4,0.4,0.9,0.7,1.3c0.2,0.3,0.4,0.5,0.6,0.8
		c0.6-0.6,1.4-1.1,1.8-1.7c0.2-0.3-0.1-1.3-0.4-1.4c-1-0.4-2.2-0.5-3.3-0.6c-0.1,0-0.3,0.5-0.5,0.7c-0.3,0.4-0.6,0.7-0.9,1
		C95.7,216.3,95.2,217,94.6,218z M149.5,194.5c-0.2-0.2-0.5-0.8-0.7-0.8c-0.6,0.1-1.3,0.4-1.9,0.7c-0.5,0.3-1,1.1-1.3,1
		c-1.4-0.3-1.7,0.8-2.2,1.6c-0.2,0.3-0.2,1,0,1.3c0.2,0.3,0.9,0.5,1.3,0.3c1.1-0.4,1.7,0,2.4,0.8c0.3,0.3,0.7,0.3,1,0.5
		c0.1-0.1,0.2-0.2,0.3-0.3c-1.4-1.1-3.1-2.1-1.5-4.1C147.4,194.9,148.5,194.9,149.5,194.5z M176,195c0,0.1,0.1,0.3,0.1,0.4
		c-0.7,0.3-1.4,0.8-2.1,0.8c-1.6,0.2-2.2,0.7-2.4,2.4c2.8,0.6,4.7-0.4,5.7-3.2C176.9,195.3,176.5,195.2,176,195z M165.3,213.4
		c0.2,1.4,0.4,2.8,0.7,4.4c1.1-1.4,1.2-1.4,2.1-0.3c0.6,0.7,1.3,0.7,2.1,0.4C169.7,216.2,166.7,213.4,165.3,213.4z M171.8,213.8
		c-0.2-0.8-0.4-1.5-0.6-2.1c-0.3-0.9-1.3-1.3-2.2-0.9c-0.7,0.3-0.6,0.7-0.2,1.2c0.5,0.6,0.8,1.2,1.3,1.8c0.3,0.4,0.7,0.6,1,1
		C171.3,214.5,171.6,214.1,171.8,213.8z M184.3,196.4c-0.8-0.8-1.3-1.5-2-1.7c-0.4-0.1-1,0.8-1.5,1.3c0.6,0.6,1.1,1.3,1.8,1.6
		C182.9,197.7,183.5,197,184.3,196.4z M121.6,204c0.6,0.7,1.1,1.3,1.6,1.9c0.2,0.2,0.7,0.4,0.9,0.3c0.5-0.3,0.9-0.8,1.2-1.2
		c0.1-0.1-0.2-0.7-0.4-0.7c-1-0.3-1.9-0.4-2.9-0.6C121.9,203.6,121.7,203.9,121.6,204z M140.8,200.6c0.3-0.7,0.7-1.4,0.7-2
		c0-0.6-0.6-1.1-0.9-1.6c-0.4,0.3-0.9,0.5-1,0.9C138.9,199.1,139.1,199.5,140.8,200.6z M107.6,214.1c0.7-0.5,1.6-1,1.5-1.2
		c-0.3-0.7-0.9-1.4-1.3-2.1c-0.5,0.6-1.1,1.2-1.4,2C106.3,213,107.1,213.6,107.6,214.1z M175.8,211.2c-0.7,0-1.3-0.3-1.7-0.1
		c-0.5,0.3-0.8,0.9-1,1.4c-0.1,0.3,0.3,1.1,0.5,1.1c0.5,0,1.1-0.2,1.4-0.6C175.4,212.6,175.5,211.9,175.8,211.2z M134.2,198.9
		c0.6,0.7,1,1.3,1.5,1.8c0.3,0.3,1.1,0.6,1.2,0.5c0.3-0.4,0.7-0.9,0.6-1.4c0-0.3-0.6-0.8-1-0.8C135.8,198.8,135.1,198.9,134.2,198.9
		z M110.1,209.2c-0.1,0.6,1,2.2,1.7,2.3c0.3,0,0.8-0.2,0.8-0.4c0.2-0.5,0.2-1,0.1-1.5c0-0.2-0.5-0.3-0.9-0.4
		C111.4,209.1,110.8,209.2,110.1,209.2z M130.2,202.1c0.7,0.6,1,1.1,1.3,1c0.9-0.1,1.6-0.1,2.1,0.9c0.1,0.1,0.5,0,0.8-0.1
		c-0.1-0.3-0.1-0.6-0.3-0.8c-0.4-0.5-0.9-0.9-1.4-1.3c-0.3-0.2-0.8-0.4-1.2-0.4C131.1,201.5,130.8,201.8,130.2,202.1z M177,205.1
		c-0.7-0.7-1.3-1.2-1.8-1.6c0,0-0.9,0.7-0.8,0.8c0.4,0.7,0.9,1.2,1.4,1.8C176.1,205.8,176.4,205.6,177,205.1z M120.5,205.6
		c-0.1-0.1-0.2-0.2-0.3-0.3c-0.4,0.4-1,0.8-1.1,1.4c-0.2,0.5,0.1,1.1,0.1,1.7c0.5-0.2,1.1-0.5,1.6-0.7c0.1,0,0.1-0.1,0.1-0.1
		C120.7,206.8,120.6,206.2,120.5,205.6z M105.2,214.2c0.1-0.2,0.2-0.4,0.3-0.6c-0.5-0.3-1-0.6-1.5-0.8c-0.2-0.1-0.5,0-0.8,0
		c0,0.4,0,0.9,0.1,1.3c0,0.1,0,0.3,0.1,0.3c0.2,0.3,0.7,0.8,0.7,0.7C104.6,214.9,104.9,214.6,105.2,214.2z M181.8,175.1
		c-1.3-1.5-3.9-2.1-5.2-1.3C178.4,174.3,180,174.7,181.8,175.1z M152.2,194.3c-0.1,0.1-0.2,0.2-0.3,0.2c0.3,0.7,0.5,1.5,0.9,2.1
		c0.1,0.2,0.8,0.3,1.1,0.2c0.2,0,0.3-0.8,0.2-1C153.5,195.2,152.8,194.8,152.2,194.3z M200.7,192.5c-0.6-0.8-2.8-1.6-3.3-1.3
		c-0.2,0.1-0.3,0.3-0.4,0.5c0,0.1,0.2,0.3,0.4,0.4C198.4,192.3,199.4,192.4,200.7,192.5z M116.7,208.8c-0.4-0.4-0.7-0.7-1-0.9
		c-0.2,0.5-0.6,1-0.7,1.6c0,0.2,0.4,0.5,0.6,0.8C116,209.8,116.3,209.3,116.7,208.8z M183.5,180.4c-0.3-0.5-0.5-1.1-0.8-1.6
		c-0.1-0.2-0.5-0.2-0.7-0.2c-0.2,0-0.4,0.3-0.4,0.5C181.5,179.8,182.6,180.6,183.5,180.4z M169.1,203.3c-0.5,0-1.1,0.1-1.6,0.1
		c0,0.3,0,0.7,0.1,0.8C168.2,204.7,168.8,204.4,169.1,203.3z M127.7,204.3c0.2,0,0.4,0,0.7,0c0.1-0.5,0.2-1,0.2-1.6
		c-0.3,0.1-0.9,0.1-1,0.2C127.5,203.4,127.7,203.9,127.7,204.3z M169.2,206.3c-0.2-0.9-0.7-1-1.4-0.8c-0.1,0.1-0.3,0.5-0.2,0.7
		C168.1,206.9,168.6,206.7,169.2,206.3z M173.1,174.9c0.1-0.1,0.1-0.3,0.2-0.4c-0.4-0.2-0.7-0.5-1.1-0.5c-0.3,0-0.6,0.3-0.9,0.5
		c0,0.1,0.1,0.2,0.1,0.4C171.9,174.8,172.5,174.8,173.1,174.9z M173.8,208.1c0.1,0.2,0.2,0.4,0.2,0.6c0.4-0.2,0.9-0.4,1.3-0.5
		c-0.1-0.2-0.2-0.6-0.3-0.6C174.6,207.8,174.2,208,173.8,208.1z"/>
	<path style="fill:#FFFFFF;" d="M192.8,126.4c-2.6,1.3-5,2.6-7.3,3.7c0.6,1.4,1.3,2.6,1.7,3.9c0.2,0.5-0.1,1.4-0.5,1.8
		c-0.4,0.4-1.2,0.7-1.8,0.5c-0.5-0.1-0.9-0.8-1.2-1.3c-0.5-0.9-0.8-1.9-1.2-3.1c-1.5,1-2.9,1.9-4.1,2.8c-0.3,0.2-0.3,0.8-0.4,1.3
		c0.4,0,0.8,0.1,1.2,0.1c0.8-0.1,1.4,0.1,2,0.6c1.4,1.2,4.2,2.4,6.2,1c0.4-0.3,0.7-0.7,0.9-1.1c0.2-0.3,0.2-0.7,0.5-1
		c1.1-1.3,1.3-2.7,1-4.4c-0.1-0.4,0.3-1,0.6-1.2c0.5-0.4,1.2-0.7,1.9-1c0.1,0.2,0.2,0.4,0.2,0.5c-0.8,2.2-1.6,4.5-2.6,6.7
		c-1.5,3.2-5.5,4.7-8.7,3.5c-0.7-0.3-0.8-0.1-1.1,0.5c-0.3,0.8-0.9,1.5-1.5,2c-0.6,0.5-1.1,0.1-1.2-0.5c-0.1-0.4-0.1-0.9-0.1-1.3
		c-0.1-1.4,0-1.4,1.4-1.3c0.3,0,0.8-0.1,1-0.4c0.1-0.1,0-0.7-0.2-0.8c-0.3-0.2-0.7-0.3-1-0.3c-0.3,0-0.5,0.1-0.7,0.2
		c-0.5-0.4-0.9-1-1.2-0.9c-0.4,0.2-0.8,0.7-1.1,1.1c-0.2,0.2-0.2,0.6-0.4,0.7c-1.4,0.8-1.6,2.4-2.3,3.7c-0.7,1.2-1.4,2.4-2.8,3
		c-0.1-0.1-0.2-0.2-0.3-0.2c0.2-0.3,0.4-0.6,0.7-0.8c1.4-1.1,2-2.6,1.8-4.3c-0.1-1,0.2-1.7,1.1-2.1c0.3-0.1,0.7-0.3,0.9-0.6
		c0.3-0.4,0.6-1,0.5-1.5c0-0.2-0.8-0.4-1.3-0.6c-0.7-0.2-1.5-0.3-2.6-0.5c1.3-0.8,2.3-1.6,3.3-2.2c0.6-0.4,1.3-0.6,1.9-1
		c1-0.7,1.2-1.7,0.5-2.6c-0.5-0.7-0.4-1.1,0-1.8c0.6-1.1,0.9-2.2,0.7-3.5c-0.2-1,0.2-2.2,0.6-3.1c0.6-1.2,1-2.2,0.5-3.5
		c-0.2-0.4-0.1-1.1,0.2-1.5c1.1-1.7,0.7-3.4,0.7-5.2c-0.1-2-0.1-4,0.1-5.9c0.1-1,0.7-1.8,0.9-2.8c0.1-0.6,0-1.3-0.1-2
		c-0.2-1.5-0.4-3-0.5-4.4c0-0.5,0.1-1,0.2-1.4c0.2-0.5,0.5-1.3,0.7-1.3c0.6,0.1,1.4,0.3,1.7,0.7c0.7,0.8,1.4,1.8,1.7,2.8
		c0.7,1.9,1.6,3.8,1.1,5.9c-0.2,1-0.4,2-0.5,2.9c-0.1,1.7-0.2,3.5-0.2,5.2c0,0.6,0.6,1.3,0.5,1.8c-0.2,0.9-0.7,1.8-1,2.8
		c-0.4,1.1-0.7,2.2-1,3.4c-0.3,1.7-0.6,3.4-0.8,5.2c0,0.5,0.4,1.1,0.8,1.4c1.3,1,1.5,1.6,1,3.2c-0.1,0.3,0,0.7,0.1,1
		c0.3,0,0.7,0,1-0.1c1-0.6,1.9-1.4,2.9-2c1.1-0.6,2.2-1.2,3.4-1.6C192.2,124.9,192.7,125.5,192.8,126.4z"/>
	<path style="fill:#FFFFFF;" d="M197.2,107.4c0.2,0.1,0.4,0.2,0.7,0.2c0.5,0,1.2,0.1,1.5-0.1c0.3-0.2,0.2-1,0-1.5
		c-1.2-2.8-1.6-5.7-1.8-8.6c0-0.4,0.1-0.7,0.1-1.5c0.8,0.8,1.4,1.3,1.9,1.8c0.1,0,0.2-0.1,0.3-0.1c-0.5-1.4-0.9-2.8-1.4-4.2
		c-0.1,0-0.2-0.1-0.3-0.1c-0.4,0.7-0.8,1.4-1.3,2.2c-0.4-0.3-0.9-0.5-1-0.9c-0.6-1.5-1.2-3-1.7-4.6c-0.2-0.5-0.1-1.1-0.1-1.7
		c0-0.3,0.3-0.6,0.5-1c0.3,0.3,0.7,0.5,0.8,0.9c0.3,0.7,0.4,1.5,0.6,2.2c0.3,1.2,1.2,1.7,2.3,1.6c1.2-0.1,1.9,0.5,2.4,1.4
		c0.5,0.8,1,1.6,1.5,2.4c0.1,0,0.2-0.1,0.3-0.1c-0.2-0.9-0.4-1.7-0.4-2.6c-0.2-1.5,0.3-2.1,1.8-2.4c0.4-0.1,0.8-0.3,1.2-0.5
		c0.9-0.4,1.7-0.2,1.8,0.7c0.2,1.1,0.3,2.2,0.1,3.3c-0.1,0.5-0.8,1.1-1.4,1.2c-0.8,0.2-0.9,0.7-0.8,1.3c0.1,0.6,0.5,0.8,1.1,0.7
		c0.3-0.1,0.8,0.3,0.9,0.5c0.3,0.8,0.4,1.7,0.6,2.5c0.4,1.8,0.9,3.6,1.3,5.4c0.1,0.6,0.1,1.3,0.2,1.9c0.1,1.2,0.2,2.4,0.2,3.6
		c0,0.8-0.3,1.3-1.3,1.4c-1,0.1-1.8,0.3-2.9-0.1c-1.5-0.5-1.2-2.1-2-2.9c-0.3-0.3-0.8-0.6-1.2-0.6c-0.3,0-0.6,0.4-1,0.6
		c0.2,0.3,0.5,0.5,0.6,0.8c0.3,0.4,0.7,0.9,0.7,1.3c-0.1,1.7-0.2,3.3-0.4,5.1c-0.1-0.1-0.3-0.2-0.5-0.4c-0.7-0.9-1.3-0.9-2,0
		c-1.1,1.3-2.3,1.5-3.4,0.9c-1.1-0.7-1.1-2-1.1-3.5c0-2.1,1-3.8,1.7-5.6C196.9,108,197.1,107.7,197.2,107.4L197.2,107.4z M200.6,100
		c-0.1,0-0.2,0-0.3,0c-0.8,2.3,0.2,4.5,0.8,6.7c0.4-0.3,0.8-0.8,0.7-1.1C201.4,103.7,201,101.9,200.6,100z"/>
	<path style="fill:#FFFFFF;" d="M145.2,150.3c0.2,1.5,0,2.1-1.5,2.5c-1.6,0.5-2.3,2-3.4,3.1c-1.7,1.7-3.5,3.3-5.3,4.9
		c-0.3,0.3-0.3,0.7-0.6,1c-0.3,0.3-0.9,0.9-1.1,0.8c-0.5-0.3-0.9-0.8-1.2-1.3c0-0.1,0.3-0.6,0.5-0.6c0.9,0,1.3-0.5,1.7-1.2
		c0.3-0.5,0.9-0.9,1.2-1.6c-1.1,0.7-2.3,1.4-3.4,2c-0.4,0.2-0.7,0.5-1.1,0.7c-1,0.5-1.2,1.5-0.6,2.4c0.2,0.4,0.5,1,0.3,1.3
		c-0.3,0.6-0.9-0.1-1.1,0c-0.8,0.2-1.7,0.7-2.3,1.2c-0.7,0.6-1.2,1.4-1.8,2.2c-0.2,0.3-0.4,0.7-0.7,1.3c-0.1-0.5-0.2-0.9-0.3-1.3
		c-0.7-0.3-1.3-0.3-1.7,0.6c-0.3,0.8-1,1-1.7,0.5c-0.9-0.6-1.5-0.2-2.2,0.6c-0.9,1-1.8,1.9-2.7,2.9c-0.7,0.8-1.5,0.3-2-0.2
		c-0.2-0.2,0-1.1,0.3-1.5c1.4-2,3.5-3.1,5.4-4.3c0.2-0.1,0.4-0.3,0.5-0.5c0.5-0.9,1.1-1.8,1.5-2.7c0.3-0.8,0.8-0.9,1.5-0.7
		c0.8,0.2,1,0.5,0.6,1.2c-0.3,0.5-0.6,1-1.1,1.7c1.5-0.2,2.2-1,2.7-1.9c1.1-1.8,2.4-3.3,4.2-4.6c0.6-0.4,0.7-1.6,1-2.5
		c0.1-0.3,0.3-0.8,0.6-1c0.4-0.4,1-0.6,1.5-0.9c0.9-0.6,1.7-1.4,2.6-2c0.5-0.3,1.2-0.3,1.8-0.5c0.5-0.1,1-0.3,1.8-0.6
		c-0.8,1.4-0.7,2.9-2.1,3.8c-0.7,0.4-1.1,1.1-0.4,2c2.1-1.3,3.8-2.9,4.9-5.1c0.2-0.5,0.3-1.1,0.4-1.6c0.1-1,0.6-1.2,1.4-0.7
		C144,150.1,144.6,150.1,145.2,150.3z"/>
	<path style="fill:#FFFFFF;" d="M197.2,107.4c-1.1-0.6-1.6-1.6-1.7-2.8c-0.1-0.8-0.5-1.5-0.8-2.2c-1-2.3-2-4.6-3-6.9
		c-0.2-0.4-0.7-0.8-1-1.1c-0.2,0.5-0.6,1-0.7,1.5c-0.1,2.7-0.2,5.3-0.3,8c0,0.3-0.2,0.7-0.3,1c-0.2,0-0.3,0-0.5,0
		c-0.1-0.9-0.2-1.7-0.1-2.6c0.1-1.2,0.5-2.4-0.6-3.5c-0.2-0.2-0.2-0.7-0.1-1c0.4-2,0.9-3.9,1.3-5.9c0.1-0.3,0.2-0.6,0.4-0.9
		c0.4-0.7,0.6-1.3-0.1-2c-0.3-0.3-0.4-1.1-0.3-1.7c0.1-0.7,0-1.1-0.7-1.3c-0.7-0.2-0.9-0.6-0.7-1.4c0.2-0.8,0.1-1.6,0.1-2.4
		c0-0.4,0.2-0.8,0.4-1.3c0.3,0.2,0.5,0.3,0.6,0.5c1,1.1,1.6,1.1,2.8,0.3c1.2-0.8,2.6-1.4,3.8-2.2c0.5-0.3,0.8-0.7,1.2-1.1
		c0.5-0.7,0.9-0.7,1.2,0c0.9,1.7,1.7,3.5,2.5,5.3c0.2,0.5,0.3,1.3,0.1,1.6c-0.3,0.3-1.1,0.3-1.7,0.2c-1.3-0.3-2.6-0.8-3.9-1.2
		c-0.3-0.1-0.5-0.5-0.8-0.7c-0.5-0.4-1.2-1.2-1.4-1c-0.9,0.4-1.8,1-2.4,1.8c-0.5,0.6-0.8,1.6,0.3,2.3c0.1,0.1,0.2,0.2,0.2,0.3
		c-0.3,2.1,1.7,3,2.2,4.7c0.5,1.7,1.6,3.2,2.1,4.9c0.8,2.5,1.3,5.1,1.8,7.7C197.2,105.2,197.1,106.3,197.2,107.4
		C197.2,107.4,197.2,107.4,197.2,107.4z M196.7,80.2c-0.2,0.1-0.4,0.2-0.6,0.3c-0.3,0.3-0.8,0.6-0.7,0.8c0.1,0.3,0.5,0.6,0.8,0.8
		c0.3-0.3,0.7-0.6,0.8-1C197.1,80.9,196.8,80.6,196.7,80.2z"/>
	<path style="fill:#FFFFFF;" d="M130.4,155.9c-1.1-0.2-1.8-0.4-2.5-0.5c0-1,0-2.1,0-3.6c0.2-0.6,0.6-1.7,1-2.7
		c-0.1-0.1-0.2-0.2-0.3-0.3c-0.4,0.2-0.9,0.4-1.2,0.7c-0.7,0.8-1.4,1.6-1.2,2.9c0.1,0.5-0.3,1.1-0.7,1.5c-0.3,0.3-1.1,0.6-1.2,0.5
		c-0.5-0.4-1.6-0.3-1.4-1.6c0.2-1,0.1-2.1,0.1-3.1c0-0.2-0.3-0.3-0.4-0.5c-0.2,0.2-0.5,0.3-0.5,0.5c-0.2,1-0.1,2-0.4,3
		c-0.3,1-0.8,1.9-1.3,2.9c0,0.1-0.8-0.1-0.8-0.2c0-0.8-0.1-1.6,0.2-2.3c0.7-1.9,1.2-3.7,0.8-5.8c-0.1-0.7,0.1-1.5,0.1-2.2
		c0-0.1,0.1-0.3,0-0.3c-0.8-1.4-1.6-2.8-2.5-4.4c0.1-0.1,0.6-0.6,0.8-0.6c0.5,0.2,1.1,0.6,1.4,1c0.7,1.5,1.4,3.1,1.3,4.8
		c0,0.8,0.3,1.5,0.6,2.6c1.4-1.7,0.4-3.6,1.6-5.2c1.2-0.4,2.6-1.1,4.2-1.5c0.5-0.1,1.2,0.6,1.8,0.9c-0.1,0.1-0.1,0.2-0.2,0.3
		c0.3-0.2,0.5-0.3,0.8-0.5c0.1,0,0.1,0.1,0.2,0.1c-0.4,0.7-0.8,1.4-1.3,2.2c1.9,0.7,1.8,0.8,1.5,2.5c-0.3,1.3-1.4,2.5-0.7,4.1
		c0.1,0.1-0.2,0.4-0.3,0.6c-0.2,0.9-0.8,1.7,0.3,2.5C130.4,154.5,130.3,155.2,130.4,155.9z"/>
	<path style="fill:#FFFFFF;" d="M186.6,220.5c-0.2-0.6-0.4-1.1-0.4-1.7c-0.2-1.5-0.4-3.1-0.6-4.6c-0.2-1.5-0.5-3-0.8-4.5
		c-0.2-0.9-0.5-1.8-0.7-2.7c-0.2,0-0.4,0.1-0.6,0.1c0.3,3,0.5,6.1,0.8,9.1c0,0.4,0.1,0.8,0.2,1.2c0.2,1-0.2,2.1,1,2.8
		c0.4,0.2,0.4,1.3,0.4,2c0,0.2-0.7,0.5-1.1,0.6c-0.8,0.2-1.1-0.2-1.1-1c-0.2-2.9-0.4-5.8-0.6-8.7c0-0.5-0.3-0.9-0.4-1.4
		c-0.1-1.9-0.2-3.8-0.3-5.9c1.1,0.1,1.7-0.1,1.8-1.1c0.1-0.7,0.7-0.6,1.2-0.2c0.3,0.2,0.6,0.4,0.8,0.7c1,1.5,2.9,1.2,4.2,2
		c0.6,0.4,0.9-0.1,0.9-0.8c0-0.4,0.3-0.8,0.5-1.2c0.1-0.1,0.7,0.1,0.7,0.2c0,0.4,0,0.9-0.1,1.3c0,0.2-0.3,0.4-0.2,0.5
		c0.6,0.8,0.3,1.6-0.1,2.3c-0.2,0.3-0.4,0.7-0.5,1.1c-0.2,0.7-0.3,1.5-0.4,1.9c0.7,0.6,1.2,1,1.5,1.4c0.1,0.2,0,0.8-0.2,1
		c-0.3,0.2-0.8,0.2-1.1,0.1c-0.6-0.3-1.2-0.8-1.7-1.2c-0.5-0.5-0.6-0.9-0.2-1.7c0.4-0.9,0.4-2,0.5-3c0-0.2-0.4-0.5-0.7-0.7
		c-0.5-0.3-1-0.4-1.6-0.6c-1.5-0.5-1.7-0.3-1.5,1.3c0.1,0.8,0,1.6,0.1,2.4c0.3,2.9,0.7,5.8,1,8.7
		C186.8,220.4,186.7,220.4,186.6,220.5z"/>
	<path style="fill:#FFFFFF;" d="M145.8,139c1.4-1.9,3.1-1.9,4.8-0.2c0.1,0.1,0.3,0.2,0.4,0.3c0.2,0.4,0.5,0.8,0.7,1.2
		c-0.4,0.2-0.8,0.5-1.3,0.5c-0.7,0-1.1,0.3-1.3,0.9c-0.1,0.4-0.5,0.7-0.8,0.9c-1.5,0.8-1.5,0.8-0.8,1.9c-0.5,0.6-0.8,1.3-1.3,1.7
		c-0.5,0.4-1.2,0.5-1.8,0.8c-0.6,0.3-1.2,0.7-1.8,1c-0.5,0.2-1,0.4-1.5,0.5c-0.1-0.1-0.2-0.2-0.3-0.3c0.4-1.5,0.4-3.2,1.3-4.3
		c0.6-0.8,0.9-1.7,1.5-2.5c0.6-0.7,0.8-1.5,0.2-2.3c-0.3-0.4-0.2-1-0.3-1.5c0.6,0.2,1.3,0.3,1.9,0.6
		C145.6,138.3,145.7,138.7,145.8,139z"/>
	<path style="fill:#FFFFFF;" d="M131.9,212.5C131.9,212.4,131.9,212.5,131.9,212.5c-2,0.6-2.2,0.9-1.6,2.9c0.5,1.9,0.8,3.8,1.3,5.7
		c0.3,0.9,0.9,1.7,1.3,2.6c0.2,0.4,0.3,0.9,0.5,1.4c-0.4,0.1-0.9,0.4-1.3,0.4c-3.3-0.1-3.4-0.2-3.1-3.5c0.2-2.4,0-4.7,0-7.1
		c-0.2,0-0.4,0-0.5,0c-0.1,0.7-0.2,1.4-0.3,2.1c-0.2,2.3-0.3,4.6-0.4,6.9c0,0.3-0.1,0.7-0.3,0.9c-0.2,0.2-0.6,0.4-0.9,0.4
		c-0.2-0.1-0.6-0.5-0.6-0.7c0-0.4,0.2-0.8,0.3-1.3c0.2-1.1,0.3-2.2,0.4-3.4c0.1-0.6-0.1-1.3,0.1-1.9c0.3-1.3,0.5-2.5,0.1-3.9
		c-0.4-1.2,0.1-1.6,1.4-1.6c0.7,0,1.4-0.1,2.1-0.3c0.2-0.1,0.4-0.5,0.5-0.8c0.1-0.2-0.2-0.5-0.1-0.7c0-0.6,0.1-1.2,0.2-1.7
		c0,0,0.6,0,0.6,0c0.1,0.5,0.1,1.1,0.2,1.7C131.8,211,131.8,211.6,131.9,212.5z"/>
	<path style="fill:#FFFFFF;" d="M135.2,147.4c1.3,1,1.4,1.9,0.4,2.8c-0.9,0.8-2,1.5-3.1,2.2c-0.1,0-0.6-0.4-0.6-0.5
		c0.3-1.5,0.6-3.1,0.9-4.6c0.2-1,0.1-2,0.2-3c0.1-1,0-2.1,0.3-3c0.5-1.8,2.8-2.6,4.4-1.6c1.1,0.6,1.3,1.4,0.7,2.5
		c-0.4,0.9-1.4,1.6-1.1,2.8c0,0.2-0.3,0.4-0.5,0.6C136.2,146.1,135.7,146.8,135.2,147.4z M136.4,144.1c0.1-0.1,0.2-0.2,0.3-0.3
		c-0.1-0.9-0.5-1.6-1.8-1.4C135.4,143,135.9,143.5,136.4,144.1z"/>
	<path style="fill:#FFFFFF;" d="M161.7,210.8c0,0.2,0.1,0.4,0,0.5c-1,1.5-0.6,3.3-0.6,4.9c0,1.1,0.1,2.2,0.3,3.3
		c0.2,1.4,0.7,2.8,0.9,4.2c0.1,0.7,0.1,1.4-0.9,1.5c-1.5,0.1-2.3-0.1-2.3-1.1c0-1.2,0.2-2.4,0.6-3.6c0.7-1.9,0.2-3.8,0.1-5.7
		c-0.1-2.8-0.2-5.6-0.3-8.4c0-0.3,0.4-0.6,0.7-0.9c0.3,0.2,0.7,0.5,0.8,0.7C161.2,207.7,161.5,209.2,161.7,210.8
		C161.7,210.8,161.7,210.8,161.7,210.8z"/>
	<path style="fill:#FFFFFF;" d="M116.8,155.8c-0.8-1.1-1-1.9-0.6-2.9c0.5-1.4,0-2.8-0.6-4.1c-0.4-0.9-0.9-1.9-0.7-2.7
		c0.2-0.8,1.2-1.6,1.9-1.8c0.5-0.1,1.6,0.7,2,1.3c1.1,1.8,0.7,3.8,0.4,5.8C119,153.1,117.4,154,116.8,155.8z"/>
	<path style="fill:#FFFFFF;" d="M142.9,211.5c0.3,1.4,0.8,2.8,0.8,4.1c0,0.9,0.4,1.5,0.7,2.3c0.3,1,0.3,2.2,0.4,3.3
		c0.1,1.2,0,2.4,0.1,3.6c0.1,0.8-0.2,1.1-1,1c-0.4,0-0.9,0-1.3,0c-0.7,0-0.9-0.3-0.9-1.1c0.1-1.5-0.1-3.1-0.1-4.6
		c0-0.9,0.2-1.8,0.3-2.7c0.1-1.7,0.2-3.4,0.3-5.1c0-0.3,0.2-0.5,0.3-0.8C142.6,211.5,142.7,211.5,142.9,211.5z"/>
	<path style="fill:#FFFFFF;" d="M115.3,167.5c0.1-1,0-2.1,0.3-3c0.2-0.9,0.9-1.6,1.3-2.4c0.2-0.3,0.2-0.7,0.2-1.1
		c-0.4,0.1-0.9,0.2-1.2,0.4c-0.4,0.3-0.8,0.8-1.2,1.3c-0.8-1.3-0.1-3.1,1.1-3.4c0.4-0.1,0.9-0.4,1.2-0.7c0.8-0.7,1.7-0.6,2.6-0.2
		c0.8,0.3,0.5,0.9,0.4,1.5c-0.1,0.2-0.1,0.4-0.1,0.6c0.9,1.8,0,2.9-1.4,3.8c-1.2,0.7-2,1.8-2.5,3c-0.1,0.2-0.2,0.3-0.4,0.4
		C115.6,167.5,115.4,167.5,115.3,167.5z"/>
	<path style="fill:#FFFFFF;" d="M200.8,217.9c-0.1,0.4-0.1,0.9-0.3,1.3c-0.1,0.3-0.5,0.6-0.8,0.8c-0.1,0.1-0.6-0.1-0.6-0.2
		c0-0.3,0.1-0.7,0.2-1c0.1-0.2,0.2-0.4,0.4-0.6c1-1,2.1-1.9,1.5-3.6c-0.1-0.2,0.4-0.8,0.5-0.7c1.3,0.2,1.8-1,2.7-1.4
		c0.9-0.4,1.3-0.4,1.3,0.8c0,1.1,0.2,2.3,0.2,3.4c0,0.9-1.3,2.4-2.2,2.6c-0.3,0.1-0.7,0.2-1,0.2c-0.8,0.2-1.3,0-1.4-0.9
		c0-0.2-0.1-0.4-0.2-0.6C201,217.9,200.9,217.9,200.8,217.9z"/>
	<path style="fill:#FFFFFF;" d="M149.1,127.5c0.2,1.3,0.5,2.4,0.7,3.5c0.1,0.8-1.3,1.7-2.2,1.5c-0.7-0.1-1.3-0.4-1.7,0.5
		c-0.1,0.2-0.8,0.1-1.2,0c-0.6-0.2-1.2-0.4-1.7-0.7c-0.3-0.1-0.5-0.4-0.7-0.7c-0.6-0.7-1.2-1.4-1.7-2.1c-0.2-0.3-0.2-0.7-0.3-1
		c0.4,0,0.9-0.1,1.3-0.1c0.3,0,0.6,0.4,0.9,0.4c0.8,0,1.1,0.3,1.1,1.1c0,1.1,0.9,1.3,1.6,1.4c0.3,0,0.8-0.5,1-0.8
		c0.5-0.7,0.7-1.6,1.2-2.2C147.6,127.8,148.4,127.7,149.1,127.5z"/>
	<path style="fill:#FFFFFF;" d="M141.1,209.1c-0.3,3.2-0.6,6.1-0.9,8.9c-0.2,2.2-0.5,4.3-0.8,6.5c-0.1,0.4-0.5,1-0.9,1
		c-1.2,0.3-1.7-0.2-1.3-1.4c0.1-0.5,0.3-1.1,0.6-1.4c1.1-1.1,0.9-2.6,1.1-3.9c0.3-2.4,0.6-4.9,0.9-7.3c0.1-0.5-0.3-1.1-0.3-1.6
		c-0.1-0.4-0.2-1,0-1.3c0.2-0.3,0.9-0.7,1.2-0.5C140.9,208.3,141,208.9,141.1,209.1z"/>
	<path style="fill:#FFFFFF;" d="M199.8,206.7c0.1-0.2,0.3-0.7,0.5-1.2c0.3-0.6,0.6-0.7,1.2-0.3c0.6,0.4,1.3,0.7,2,1
		c1.6,0.6,1.9,1.1,1.3,2.7c-0.4,0.9-2.5,2.2-3.3,1.8c-0.6-0.2-1.1-0.9-1.3-1.4C199.9,208.5,200,207.7,199.8,206.7z"/>
	<path style="fill:#FFFFFF;" d="M138.4,134.6c2,2.1,2.3,4.7,2.8,7.2c0.3,1.3-0.9,2-1.1,3.2c-0.1,0.8-0.5,1.7-0.5,2.5
		c0.1,1.2-0.6,1.5-1.5,1.6c-0.2,0-0.6-0.1-0.8-0.3c-0.1-0.1,0-0.5,0.1-0.7c1.5-2.8,2.4-5.7,1.8-9c-0.2-1.2-0.1-2.4-1.2-3.4
		C138.1,135.6,138.4,135,138.4,134.6z"/>
	<path style="fill:#FFFFFF;" d="M128.3,157.3c-0.9,1.1-1.8,2-2.5,2.9c-0.3,0.4-0.2,0.9-0.3,1.8c-0.6-0.6-1.1-1.1-1.7-1.5
		c-0.3-0.3-0.5-0.7-0.9-0.8c-0.8-0.2-1.3-0.6-1.1-1.4c0.1-0.6,0.3-1.6,0.8-1.8c0.7-0.3,1.6-1,2.5,0.1c0.3,0.4,1,0.4,1.6,0.5
		C127.1,157.3,127.5,157.3,128.3,157.3z"/>
	<path style="fill:#FFFFFF;" d="M215.9,195.6c1,1.2,1.3,3.5,0.8,4.6c-0.4,0.7-1.4,0.8-1.8-0.1c-0.6-1-1.2-1.6-2.3-1.8
		c-0.5-0.1-1-0.8-1.4-1.3c0-0.1,0-0.3,0.1-0.4c0.6-0.1,1.3-0.4,1.8-0.3C214.1,196.7,215.1,196.7,215.9,195.6z"/>
	<path style="fill:#FFFFFF;" d="M215.8,208.5c0.1,0.2,0.3,0.5,0.4,0.8c0.4,1.7,0.7,3.4,1,5.1c0.1,0.7-0.1,1.1-0.7,1.3
		c-0.7,0.2-1-0.2-1.1-0.9c-0.3-1.3-0.7-2.6-1.1-3.9C214,210.1,214.9,208.5,215.8,208.5z"/>
	<path style="fill:#FFFFFF;" d="M193.6,217c2.7,0,2.7,0,3.5-2.8c0.1-0.3,0.4-0.6,0.6-0.8c0.2-0.2,0.4-0.4,0.7-0.6c1,1.2,1,1.3,0,2.3
		c-0.3,0.3-0.6,1-0.5,1.4c0.2,1.3-0.7,1.8-1.6,2.3c-0.9,0.5-1.6,0-2.1-0.8C194.1,217.6,193.8,217.3,193.6,217z"/>
	<path style="fill:#FFFFFF;" d="M180,143.4c0.1,1.2,0.2,2.3,0.2,3.4c0,0.7-0.3,1.2-1,1.2c-0.6,0-1.4-0.1-1.7-0.5
		c-0.3-0.5-0.2-1.3-0.1-1.9c0.1-0.5,0.5-0.9,0.8-1.4C178.5,143.4,179,143,180,143.4z"/>
	<path style="fill:#FFFFFF;" d="M169.8,139.8c-0.2,1-0.2,1.8-0.6,2.4c-0.2,0.5-0.9,0.9-1.4,0.9c-0.4,0-0.8-0.7-1-1.2
		c-0.2-0.3-0.2-0.8-0.1-1.2c0.1-0.5,0.1-1.2,0.5-1.4c0.6-0.4,1.3-0.5,2-0.5C169.4,138.8,169.6,139.5,169.8,139.8z"/>
	<path style="fill:#FFFFFF;" d="M80.7,203.9c0.1,0.3,0.2,0.4,0.2,0.5c-0.9,1.9-0.3,3.9-0.7,5.8c-0.2,1-1.1,1.4-2,0.8
		c-0.2-0.2-0.5-0.6-0.5-0.8c0.4-1,0.9-2,1.4-3.1c0.3-0.7,0.6-1.5,0.9-2.3C80.3,204.6,80.5,204.3,80.7,203.9z"/>
	<path style="fill:#FFFFFF;" d="M116.5,223.2c0.4-0.2,0.6-0.3,0.8-0.4c0.3-0.2,0.7-0.4,1-0.6c0.2,0.5,0.5,0.9,0.6,1.4
		c0,0.2-0.5,0.7-0.7,0.7c-0.8,0-1.6-0.2-2.3-0.4c-0.2-0.1-0.5-0.4-0.5-0.7c0-1.5,0-3,0.1-4.5c0-0.2,0.4-0.5,0.6-0.7
		c0.1,0.2,0.4,0.5,0.4,0.7c0,1-0.1,2-0.1,2.9C116.3,222.1,116.4,222.6,116.5,223.2z"/>
	<path style="fill:#FFFFFF;" d="M127.2,132.7c0.2,0.2,0.5,0.3,0.6,0.6c0.9,1.6,1.8,3.3,2.8,4.9c0.6,0.9,0.7,1.7,0.3,2.6
		c-0.1,0.2-0.3,0.4-0.5,0.6c-0.2-0.2-0.5-0.5-0.5-0.7c0.3-1.4-0.3-2.4-1.3-3.2c-0.1,0-0.1-0.1-0.2-0.2c-0.5-1.4-1-2.8-1.5-4.3
		C127,132.8,127.1,132.8,127.2,132.7z"/>
	<path style="fill:#FFFFFF;" d="M183.2,151.7c-0.1,0.1-0.4,0.8-0.9,0.9c-1,0.1-2.5-1-2.3-1.6c0.3-0.7,1-1.4,1.7-1.8
		C182.4,148.8,183.1,149.9,183.2,151.7z"/>
	<path style="fill:#FFFFFF;" d="M179.3,219c-1.3-0.4-1.8-1.4-2-2.5c-0.3-1.1,0.7-1.4,1.4-1.5c0.9-0.1,1.2,0.5,1.1,1.3
		C179.7,217.2,179.4,218.1,179.3,219z"/>
	<path style="fill:#FFFFFF;" d="M168.2,146.3c-1.2,1.1-3.2,0.8-4-0.5c-0.5-0.9-0.9-1.7-2.1-1.9c-0.2,0-0.4-0.7-0.6-1
		c0.4-0.1,0.9-0.3,1.1-0.2c0.6,0.3,1.3,0.8,1.5,1.4c0.5,1.4,1.4,1.9,2.8,2C167.3,146.1,167.7,146.2,168.2,146.3z"/>
	<path style="fill:#FFFFFF;" d="M127.6,136.8c0.1,1.3-0.9,2.1-1.9,1.7c-0.7-0.3-1.5-0.6-2.1-1c-0.3-0.2-0.6-0.9-0.4-1
		c0.2-0.3,0.7-0.5,1.1-0.5c0.3,0,0.6,0.2,0.8,0.4C125.8,137.2,126.6,137.6,127.6,136.8z"/>
	<path style="fill:#FFFFFF;" d="M197.6,211.5c-1.1,0-1.4-0.5-0.8-1.9c-0.7,0-1.3,0-2,0c0.1-0.9,2-2,2.7-1.6c0.2,0.1,0.3,0.4,0.3,0.6
		C197.7,209.6,197.7,210.5,197.6,211.5z"/>
	<path style="fill:#FFFFFF;" d="M191.1,220.6c-0.1,0.2-0.4,0.6-0.6,1c-0.3-0.4-0.7-0.8-0.8-1.2c-0.1-0.7-0.1-1.5-0.1-2.3
		c0-0.3,0.3-0.5,0.5-0.8c0.2,0.2,0.5,0.4,0.6,0.6C190.9,218.7,190.9,219.5,191.1,220.6z"/>
	<path style="fill:#FFFFFF;" d="M133.4,131.4c0.2,0.2,0.5,0.5,0.5,0.7c0.1,0.7,0,1.3,0.1,2c-0.7-0.3-1.3-0.6-1.9-0.9
		c-0.1,0,0-0.6,0.2-0.9C132.6,132,133,131.8,133.4,131.4z"/>
	<path style="fill:#FFFFFF;" d="M134.3,208.4c0.8-0.7,1.2-0.6,1.4,0.4c0.2,0.7,0.5,1.3,0.6,2c0.1,0.2,0,0.5-0.1,0.8
		c-0.3-0.1-0.7-0.2-0.8-0.4C135.1,210.3,134.8,209.4,134.3,208.4z"/>
	<path style="fill:#FFFFFF;" d="M113.2,172.2c0.4,0.7,0.8,1.2,0.7,1.5c-0.2,0.5-0.7,0.9-1.1,1.3c-0.4-0.4-1.1-0.9-1-1.1
		C112,173.5,112.5,173,113.2,172.2z"/>
	<path style="fill:#FFFFFF;" d="M194.5,214.8c-0.2-0.7-0.4-1.4-0.6-2.2c0-0.2,0.2-0.7,0.3-0.7c0.3,0,0.7,0.1,0.8,0.3
		C195.5,213.1,195.4,213.9,194.5,214.8z"/>
	<path style="fill:#FFFFFF;" d="M146.5,207.4c0.3-1.1,0.5-2.2,0.8-3.3c0.1,0,0.2,0.1,0.3,0.1c0.4,1.7,0.5,2.5-0.7,3.3
		C146.8,207.5,146.6,207.4,146.5,207.4z"/>
	<path style="fill:#FFFFFF;" d="M138.1,133.8c-1.6-1-1.9-1.8-1.1-3.4c0.6,1.2,1,2.2,1.5,3.2C138.4,133.7,138.2,133.7,138.1,133.8z"
		/>
	<path style="fill:#FFFFFF;" d="M106.8,219.4c0.1,1,0.2,2,0.3,3.1c-0.5,0-1,0-1.5,0C106,221.3,106.4,220.4,106.8,219.4z"/>
	<path style="fill:#FFFFFF;" d="M151.2,148.5c-0.2-1-0.4-1.9-0.6-2.9C152,146.7,152.2,147.4,151.2,148.5z"/>
	<path style="fill:#FFFFFF;" d="M120.6,217.6c-0.6,0.1-1.1,0.2-1.7,0.2c-0.2,0-0.3-0.3-0.5-0.5c0.2-0.2,0.4-0.4,0.6-0.4
		c0.5,0,1.1,0.2,1.6,0.3C120.6,217.2,120.6,217.4,120.6,217.6z"/>
	<path style="fill:#FFFFFF;" d="M106.7,177.4c-0.2-1.4,0.9-1.6,1.7-2.1C108.5,176.6,107.1,176.6,106.7,177.4z"/>
	<path style="fill:#FFFFFF;" d="M155.1,150.4c-0.6,0.2-1.1,0.4-1.7,0.6c-0.1-0.2-0.2-0.6-0.2-0.6c0.5-0.3,1.1-0.5,1.6-0.7
		C154.9,150,155,150.2,155.1,150.4z"/>
	<path style="fill:#FFFFFF;" d="M126.9,136.3c-1.6-0.1-1.8-0.4-1.3-1.7C126.1,135.1,126.4,135.6,126.9,136.3z"/>
	<path style="fill:#FFFFFF;" d="M195,206.9c-0.1-0.4-0.2-0.9-0.3-1.3c0.3,0,0.6-0.1,0.9-0.1c0,0.4,0.1,0.8,0.1,1.3
		C195.4,206.8,195.2,206.8,195,206.9z"/>
	<path style="fill:#FFFFFF;" d="M179,153.9c0.5,0,1-0.1,1.5-0.1c0,0.2,0.1,0.6,0,0.6c-0.5,0.1-1,0.1-1.5,0.1
		C179,154.3,179,154.1,179,153.9z"/>
	<path d="M94.6,218c0.7-1,1.2-1.7,1.7-2.4c0.3-0.4,0.6-0.7,0.9-1c0.2-0.2,0.4-0.7,0.5-0.7c1.1,0.1,2.2,0.3,3.3,0.6
		c0.3,0.1,0.6,1.1,0.4,1.4c-0.5,0.7-1.2,1.2-1.8,1.7c-0.2-0.3-0.4-0.5-0.6-0.8c-0.2-0.4-0.4-0.8-0.7-1.3c-0.2,0.1-0.5,0.3-0.5,0.4
		c-0.1,0.6-0.1,1.2,0,1.7c0.2,0.6,0.7,1,1.1,1.5c-0.7,0-1.3-0.1-2-0.1c-0.3,0-0.6,0.1-0.8,0C95.7,218.8,95.2,218.5,94.6,218z"/>
	<path d="M149.5,194.5c-1.1,0.4-2.1,0.4-2.5,1c-1.6,1.9,0.1,3,1.5,4.1c-0.1,0.1-0.2,0.2-0.3,0.3c-0.3-0.2-0.8-0.2-1-0.5
		c-0.7-0.7-1.3-1.2-2.4-0.8c-0.3,0.1-1,0-1.3-0.3c-0.2-0.3-0.2-1,0-1.3c0.5-0.8,0.7-1.9,2.2-1.6c0.3,0.1,0.8-0.8,1.3-1
		c0.6-0.3,1.2-0.6,1.9-0.7C149.1,193.7,149.4,194.3,149.5,194.5z"/>
	<path d="M176,195c0.4,0.2,0.8,0.3,1.3,0.5c-0.9,2.8-2.9,3.8-5.7,3.2c0.2-1.7,0.9-2.3,2.4-2.4c0.7-0.1,1.4-0.6,2.1-0.8
		C176.1,195.3,176.1,195.1,176,195z"/>
	<path d="M165.3,213.4c1.4,0,4.4,2.8,4.9,4.5c-0.8,0.2-1.5,0.2-2.1-0.4c-1-1.1-1.1-1.1-2.1,0.3C165.8,216.2,165.6,214.8,165.3,213.4
		z"/>
	<path d="M171.8,213.8c-0.2,0.3-0.4,0.6-0.6,1c-0.3-0.3-0.7-0.6-1-1c-0.5-0.6-0.8-1.2-1.3-1.8c-0.4-0.5-0.5-0.9,0.2-1.2
		c0.9-0.4,1.9,0,2.2,0.9C171.4,212.4,171.5,213,171.8,213.8z"/>
	<path d="M184.3,196.4c-0.7,0.6-1.4,1.3-1.6,1.2c-0.7-0.4-1.2-1.1-1.8-1.6c0.5-0.5,1.2-1.4,1.5-1.3
		C183,194.9,183.5,195.7,184.3,196.4z"/>
	<path d="M121.6,204c0.1-0.1,0.3-0.4,0.4-0.4c1,0.1,2,0.3,2.9,0.6c0.2,0.1,0.5,0.6,0.4,0.7c-0.3,0.5-0.7,0.9-1.2,1.2
		c-0.2,0.1-0.7-0.1-0.9-0.3C122.7,205.4,122.2,204.8,121.6,204z"/>
	<path d="M140.8,200.6c-1.6-1.1-1.8-1.5-1.2-2.7c0.2-0.4,0.7-0.6,1-0.9c0.3,0.5,0.9,1.1,0.9,1.6
		C141.5,199.2,141.1,199.9,140.8,200.6z"/>
	<path d="M107.6,214.1c-0.5-0.5-1.3-1.1-1.2-1.2c0.3-0.7,0.9-1.3,1.4-2c0.5,0.7,1,1.3,1.3,2.1C109.1,213.1,108.2,213.6,107.6,214.1z
		"/>
	<path d="M175.8,211.2c-0.3,0.7-0.4,1.4-0.7,1.9c-0.3,0.4-0.9,0.5-1.4,0.6c-0.2,0-0.6-0.8-0.5-1.1c0.2-0.5,0.5-1.1,1-1.4
		C174.5,210.9,175.1,211.1,175.8,211.2z"/>
	<path d="M134.2,198.9c1,0,1.6-0.1,2.3,0c0.4,0.1,1,0.5,1,0.8c0,0.5-0.3,1.1-0.6,1.4c-0.1,0.1-0.9-0.2-1.2-0.5
		C135.1,200.2,134.7,199.6,134.2,198.9z"/>
	<path d="M110.1,209.2c0.7,0,1.2,0,1.8,0c0.3,0,0.8,0.2,0.9,0.4c0.1,0.5,0.1,1-0.1,1.5c-0.1,0.2-0.6,0.4-0.8,0.4
		C111.1,211.4,110.1,209.8,110.1,209.2z"/>
	<path d="M130.2,202.1c0.6-0.3,0.9-0.6,1.3-0.6c0.4,0,0.9,0.2,1.2,0.4c0.5,0.4,1,0.8,1.4,1.3c0.2,0.2,0.2,0.5,0.3,0.8
		c-0.3,0-0.8,0.2-0.8,0.1c-0.5-0.9-1.2-0.9-2.1-0.9C131.2,203.1,130.9,202.7,130.2,202.1z"/>
	<path d="M177,205.1c-0.6,0.5-0.9,0.8-1.2,1c-0.5-0.6-1-1.2-1.4-1.8c-0.1-0.1,0.8-0.9,0.8-0.8C175.8,203.8,176.3,204.4,177,205.1z"
		/>
	<path d="M120.5,205.6c0.1,0.6,0.2,1.2,0.3,1.9c0,0,0,0.1-0.1,0.1c-0.5,0.2-1.1,0.5-1.6,0.7c-0.1-0.6-0.3-1.2-0.1-1.7
		c0.2-0.5,0.7-0.9,1.1-1.4C120.3,205.4,120.4,205.5,120.5,205.6z"/>
	<path d="M105.2,214.2c-0.3,0.3-0.7,0.7-1.1,1c-0.1,0-0.5-0.5-0.7-0.7c-0.1-0.1-0.1-0.2-0.1-0.3c0-0.4-0.1-0.9-0.1-1.3
		c0.3,0,0.6-0.1,0.8,0c0.5,0.2,1,0.5,1.5,0.8C105.5,213.8,105.4,214,105.2,214.2z"/>
	<path d="M181.8,175.1c-1.8-0.4-3.4-0.8-5.2-1.3C177.9,173,180.6,173.7,181.8,175.1z"/>
	<path d="M152.2,194.3c0.6,0.5,1.3,0.9,1.9,1.5c0.1,0.1,0,0.9-0.2,1c-0.4,0.1-1,0.1-1.1-0.2c-0.4-0.6-0.6-1.4-0.9-2.1
		C152,194.4,152.1,194.3,152.2,194.3z"/>
	<path d="M200.7,192.5c-1.3-0.2-2.3-0.3-3.3-0.4c-0.1,0-0.4-0.3-0.4-0.4c0-0.2,0.2-0.4,0.4-0.5C197.9,191,200.1,191.7,200.7,192.5z"
		/>
	<path d="M116.7,208.8c-0.4,0.6-0.8,1-1.1,1.4c-0.2-0.3-0.6-0.6-0.6-0.8c0.1-0.5,0.4-1.1,0.7-1.6C116,208.1,116.3,208.4,116.7,208.8
		z"/>
	<path d="M183.5,180.4c-0.9,0.2-2-0.5-1.9-1.2c0-0.2,0.2-0.5,0.4-0.5c0.2-0.1,0.6,0,0.7,0.2C183,179.3,183.2,179.8,183.5,180.4z"/>
	<path d="M169.1,203.3c-0.3,1.1-0.8,1.4-1.5,0.9c-0.2-0.1-0.1-0.5-0.1-0.8C168,203.4,168.5,203.3,169.1,203.3z"/>
	<path d="M127.7,204.3c0-0.4-0.2-0.9-0.1-1.3c0-0.2,0.6-0.2,1-0.2c-0.1,0.5-0.2,1-0.2,1.6C128.2,204.3,127.9,204.3,127.7,204.3z"/>
	<path d="M169.2,206.3c-0.6,0.5-1.1,0.6-1.5-0.1c-0.1-0.2,0-0.6,0.2-0.7C168.5,205.3,169,205.4,169.2,206.3z"/>
	<path d="M173.1,174.9c-0.6,0-1.2-0.1-1.8-0.1c0-0.1-0.1-0.2-0.1-0.4c0.3-0.2,0.6-0.5,0.9-0.5c0.4,0,0.7,0.4,1.1,0.5
		C173.2,174.6,173.1,174.7,173.1,174.9z"/>
	<path d="M173.8,208.1c0.4-0.2,0.9-0.4,1.3-0.5c0,0,0.2,0.4,0.3,0.6c-0.4,0.2-0.9,0.4-1.3,0.5C173.9,208.5,173.8,208.3,173.8,208.1z
		"/>
	<path d="M200.6,100c0.4,1.9,0.9,3.8,1.2,5.7c0.1,0.3-0.4,0.8-0.7,1.1c-0.6-2.3-1.6-4.4-0.8-6.7C200.3,100,200.4,100,200.6,100z"/>
	<path d="M196.7,80.2c0.1,0.3,0.3,0.7,0.3,1c-0.1,0.4-0.5,0.7-0.8,1c-0.3-0.3-0.7-0.5-0.8-0.8c-0.1-0.2,0.5-0.5,0.7-0.8
		C196.3,80.5,196.5,80.3,196.7,80.2z"/>
	<path d="M136.4,144.1c-0.5-0.5-1-1.1-1.5-1.6c1.3-0.2,1.6,0.5,1.8,1.4C136.6,143.9,136.5,144,136.4,144.1z"/>
	<path style="fill:#E63027;stroke:#000000;stroke-width:0.4973;" d="M38.5,200.4c0,0,37.5,25,106.5,25s107.8-26.3,107.8-26.3
		l-17.1,59.8c0,0-29.6,14.5-90.1,14.5s-91.4-16.4-91.4-16.4L38.5,200.4z"/>
</g>
<g id="aymon">
	<g>
		<path d="M68.7,247L84,228.7c0.1-0.1,0.3-0.2,0.5-0.3c0.2-0.1,0.4-0.1,0.6,0c0.2,0.1,0.4,0.2,0.5,0.3s0.2,0.3,0.3,0.5l3.2,23.3
			c0.2,1.5,0.5,2.6,0.9,3.5s1,1.5,1.8,2c0.2,0.1,0.3,0.3,0.4,0.4c0.1,0.2,0.1,0.3,0.1,0.5l-0.1,0.4c-0.1,0.2-0.2,0.4-0.4,0.5
			c-0.2,0.1-0.4,0.1-0.6,0l-5.3-1.8l-5.5-1.3c-0.2,0-0.3-0.1-0.4-0.3c-0.1-0.1-0.1-0.3,0-0.5l0.1-0.3c0-0.1,0.1-0.2,0.3-0.3
			s0.3-0.1,0.5-0.1c1,0,1.6-0.3,1.9-0.9c0.3-0.6,0.4-1.7,0.2-3.2l-0.3-2.6c0-0.3-0.1-0.5-0.3-0.7c-0.2-0.2-0.4-0.3-0.7-0.4l-7.7-2.2
			c-0.3-0.1-0.5-0.1-0.8,0c-0.2,0.1-0.4,0.2-0.6,0.5l-1.6,2c-0.9,1.1-1.2,2-1,2.8c0.2,0.8,1,1.6,2.5,2.4c0.2,0.1,0.3,0.2,0.4,0.4
			s0.1,0.3,0.1,0.4l-0.1,0.3c0,0.2-0.2,0.3-0.3,0.4s-0.3,0.1-0.5,0l-4.1-1.5l-4.3-0.9c-0.2,0-0.3-0.1-0.4-0.3
			c-0.1-0.1-0.1-0.3,0-0.5l0.1-0.3c0-0.1,0.1-0.3,0.3-0.4c0.2-0.1,0.3-0.1,0.5-0.1c0.5,0.1,1.1-0.1,1.8-0.6
			C66.6,249.3,67.5,248.3,68.7,247z M80.1,236.4l-4.8,5.8c-0.2,0.2-0.3,0.4-0.2,0.6c0,0.1,0.2,0.3,0.5,0.3l5.7,1.6
			c0.3,0.1,0.5,0.1,0.6,0c0.1-0.1,0.2-0.3,0.1-0.6l-0.8-7.4l0,0c-0.1-0.4-0.2-0.7-0.4-0.7C80.6,235.9,80.4,236,80.1,236.4z"/>
		<path d="M104,252.7c0.1-0.5,0.1-1.1,0-1.8c-0.1-0.7-0.2-1.2-0.4-1.7l-3.9-10.3c-0.6-1.5-1.1-2.6-1.7-3.3s-1.3-1.4-2.2-1.8
			c-0.2-0.1-0.4-0.2-0.5-0.4s-0.2-0.3-0.2-0.5l0.1-0.4c0-0.2,0.1-0.4,0.3-0.5c0.2-0.1,0.3-0.2,0.5-0.1l5.8,1.1l5.9,0.6
			c0.2,0,0.3,0.1,0.4,0.2c0.1,0.1,0.1,0.3,0.1,0.5l0,0.3c0,0.1-0.1,0.2-0.2,0.3c-0.1,0.1-0.3,0.2-0.5,0.2c-0.9,0.1-1.5,0.5-1.6,1.1
			s0,1.8,0.6,3.3l2.8,7.7c0,0.3,0.1,0.5,0.2,0.5c0.1,0,0.2-0.1,0.4-0.4l5.4-6.6c1-1.2,1.3-2.1,1.1-2.8c-0.2-0.7-1.1-1.4-2.6-2
			c-0.2-0.1-0.3-0.2-0.4-0.3c-0.1-0.1-0.1-0.3-0.1-0.4l0-0.3c0-0.2,0.1-0.3,0.2-0.4c0.1-0.1,0.3-0.1,0.5-0.1l4.3,0.9l4.5,0.4
			c0.2,0,0.3,0.1,0.4,0.2c0.1,0.1,0.1,0.3,0.1,0.5l0,0.3c0,0.2-0.1,0.3-0.2,0.4c-0.1,0.1-0.3,0.2-0.5,0.1c-0.5,0-1.1,0.3-1.9,0.8
			c-0.7,0.6-1.7,1.6-3,3l-6,7c-0.3,0.4-0.6,0.9-0.9,1.5c-0.3,0.6-0.5,1.2-0.5,1.7l-0.7,4.9c-0.2,1.5-0.1,2.6,0.4,3.4
			c0.5,0.8,1.4,1.3,2.8,1.6c0.2,0.1,0.4,0.1,0.5,0.3s0.2,0.3,0.2,0.4l0,0.3c0,0.2-0.1,0.3-0.2,0.4c-0.1,0.1-0.3,0.1-0.5,0.1
			l-6.8-1.2l-6.9-0.7c-0.2,0-0.3-0.1-0.4-0.2c-0.1-0.1-0.1-0.3-0.1-0.5l0-0.3c0-0.1,0.1-0.3,0.3-0.4c0.2-0.1,0.4-0.1,0.6-0.1
			c1.3,0.1,2.2-0.2,2.9-0.8s1-1.7,1.2-3.2L104,252.7z"/>
		<path d="M130.5,258.2c-0.1,1.5,0.2,2.7,0.7,3.3c0.5,0.7,1.4,1.1,2.7,1.2c0.2,0,0.3,0.1,0.4,0.2c0.1,0.1,0.2,0.3,0.2,0.4l0,0.3
			c0,0.2-0.1,0.3-0.2,0.5s-0.3,0.2-0.4,0.2l-4.6-0.3l-4.7,0.2c-0.2,0-0.3,0-0.4-0.2s-0.2-0.3-0.2-0.5l0-0.3c0-0.2,0.1-0.3,0.2-0.4
			s0.3-0.2,0.4-0.2c1.2-0.1,2.1-0.5,2.7-1.2s0.8-1.8,0.9-3.3l0.5-16c0.1-1.5-0.2-2.6-0.8-3.3s-1.6-1.1-3.1-1.2
			c-0.2,0-0.3-0.1-0.4-0.2s-0.2-0.3-0.2-0.4l0-0.3c0-0.2,0.1-0.3,0.2-0.4c0.1-0.1,0.3-0.2,0.4-0.2l3.7,0.3l3.7-0.2
			c0.4,0,0.8,0.2,1.1,0.5c0.3,0.3,0.6,0.8,1,1.6l7.7,16.3h0c0.2,0.4,0.4,0.6,0.7,0.6c0.3,0,0.5-0.2,0.7-0.6l7.5-16.2
			c0.3-0.7,0.7-1.3,1-1.6c0.3-0.3,0.7-0.5,1.1-0.4l3.6,0.3l3.6-0.2c0.2,0,0.3,0.1,0.4,0.2c0.1,0.1,0.2,0.3,0.2,0.4l0,0.3
			c0,0.1-0.1,0.3-0.3,0.4c-0.2,0.1-0.4,0.2-0.6,0.2c-1.3,0.1-2.2,0.5-2.7,1.2c-0.5,0.7-0.8,1.8-0.7,3.3l0.2,16
			c0,1.6,0.3,2.7,0.8,3.4c0.5,0.7,1.3,1.1,2.5,1.2c0.2,0,0.3,0.1,0.4,0.2c0.1,0.1,0.2,0.3,0.2,0.4l0,0.3c0,0.2-0.1,0.3-0.2,0.5
			c-0.1,0.1-0.3,0.2-0.4,0.2l-5.9-0.3l-5.9,0.2c-0.2,0-0.3,0-0.4-0.2s-0.2-0.3-0.2-0.5l0-0.3c0-0.2,0.1-0.3,0.2-0.4s0.3-0.2,0.4-0.2
			c0.9-0.1,1.6-0.5,2-1.1c0.4-0.7,0.5-1.8,0.5-3.4l-0.1-12.1c0-0.5-0.1-0.7-0.2-0.8c-0.1,0-0.3,0.2-0.5,0.6l-8.4,18.1
			c-0.1,0.1-0.2,0.2-0.3,0.3c-0.1,0.1-0.3,0.1-0.4,0.1c-0.1,0-0.3,0-0.4-0.1s-0.3-0.2-0.3-0.3l-8.1-17.1c-0.2-0.4-0.4-0.6-0.5-0.6
			c-0.1,0-0.2,0.3-0.2,0.8L130.5,258.2z"/>
		<path d="M167.5,260.3c-2.9-2.3-4.6-5.4-5.1-9.4c-0.5-4.4,0.6-8.2,3.2-11.3c2.6-3.1,6.3-4.9,10.9-5.4c4.2-0.4,7.8,0.5,10.7,2.7
			s4.6,5.4,5.1,9.4c0.5,4.4-0.6,8.2-3.2,11.3c-2.6,3.1-6.3,4.9-10.9,5.4C174,263.4,170.4,262.5,167.5,260.3z M184.8,257.3
			c1.2-2,1.6-4.4,1.3-7.3c-0.5-4.2-1.7-7.6-3.8-10.1s-4.5-3.6-7.4-3.3c-2.2,0.2-3.8,1.3-5,3.3c-1.2,2-1.6,4.4-1.3,7.3
			c0.5,4.2,1.7,7.6,3.8,10.1s4.5,3.6,7.4,3.3C181.9,260.3,183.6,259.2,184.8,257.3z"/>
		<path d="M202.6,253c0.4,1.5,0.9,2.5,1.7,3c0.8,0.5,1.9,0.6,3.3,0.4c0.2,0,0.3,0,0.5,0.1c0.2,0.1,0.2,0.2,0.3,0.4l0.1,0.3
			c0,0.2,0,0.3-0.1,0.5c-0.1,0.1-0.2,0.2-0.4,0.3l-4.8,1l-4.7,1.5c-0.2,0.1-0.3,0-0.5-0.1c-0.2-0.1-0.2-0.2-0.3-0.4l-0.1-0.3
			c0-0.2,0-0.3,0.1-0.5c0.1-0.1,0.2-0.3,0.4-0.3c1.2-0.4,2-1,2.3-1.8c0.3-0.8,0.3-1.9-0.1-3.4l-4-15.5c-0.4-1.5-0.9-2.5-1.5-3.1
			s-1.5-0.7-2.7-0.5c-0.1,0-0.3,0-0.4-0.1c-0.1-0.1-0.2-0.2-0.2-0.4l-0.1-0.3c0-0.2,0-0.3,0.1-0.5c0.1-0.1,0.2-0.2,0.4-0.3l3.5-0.6
			l3.3-1.1c0.4-0.1,0.8,0,1.3,0.1c0.5,0.2,1.2,0.6,2,1.1l16.9,10.9c0.4,0.2,0.7,0.3,0.9,0.2c0.2-0.1,0.2-0.4,0.1-0.9l-2.5-9.9
			c-0.4-1.5-0.9-2.5-1.7-3c-0.8-0.5-1.9-0.6-3.3-0.4c-0.2,0-0.3,0-0.5-0.1c-0.1-0.1-0.2-0.2-0.3-0.4l-0.1-0.3c0-0.2,0-0.3,0.1-0.5
			c0.1-0.1,0.2-0.2,0.4-0.3l4.8-1l4.7-1.5c0.2-0.1,0.3,0,0.5,0.1c0.1,0.1,0.2,0.2,0.3,0.4l0.1,0.3c0,0.2,0,0.3-0.1,0.5
			c-0.1,0.2-0.2,0.3-0.4,0.3c-1.2,0.4-2,1-2.3,1.8c-0.3,0.8-0.3,1.9,0.1,3.4l5.4,21.2c0,0.1,0,0.3-0.1,0.4c-0.1,0.1-0.2,0.2-0.3,0.2
			c-0.1,0-0.3,0-0.5,0c-0.2,0-0.3-0.1-0.5-0.2l-23.6-15.2c-0.4-0.2-0.7-0.3-0.9-0.2c-0.2,0.1-0.2,0.4-0.1,0.9L202.6,253z"/>
	</g>
	<g>
		<path style="fill:#FFFFFC;" d="M67.8,246.4l15.4-18.3c0.1-0.1,0.3-0.2,0.5-0.3c0.2-0.1,0.4-0.1,0.6,0c0.2,0.1,0.4,0.2,0.5,0.3
			c0.1,0.2,0.2,0.3,0.3,0.5l3.1,23.3c0.2,1.5,0.5,2.6,0.9,3.5c0.4,0.8,1,1.5,1.8,2c0.2,0.1,0.3,0.3,0.4,0.4c0.1,0.2,0.1,0.3,0.1,0.5
			l-0.1,0.4c-0.1,0.2-0.2,0.4-0.4,0.5c-0.2,0.1-0.4,0.1-0.6,0l-5.3-1.8l-5.5-1.3c-0.2,0-0.3-0.1-0.4-0.3c-0.1-0.1-0.1-0.3,0-0.5
			L79,255c0-0.1,0.1-0.2,0.3-0.3c0.2-0.1,0.3-0.1,0.5-0.1c1,0,1.6-0.2,1.9-0.9c0.3-0.6,0.4-1.7,0.2-3.2l-0.3-2.6
			c0-0.3-0.1-0.5-0.3-0.7c-0.2-0.2-0.4-0.3-0.7-0.4l-7.6-2.2c-0.3-0.1-0.5-0.1-0.8,0c-0.2,0.1-0.4,0.2-0.6,0.5l-1.6,2
			c-0.9,1.1-1.2,2-1,2.8c0.2,0.8,1,1.6,2.5,2.4c0.2,0.1,0.3,0.2,0.4,0.4c0.1,0.2,0.1,0.3,0.1,0.4l-0.1,0.3c-0.1,0.2-0.2,0.3-0.3,0.4
			c-0.2,0.1-0.3,0.1-0.5,0l-4.1-1.5l-4.3-1c-0.2,0-0.3-0.1-0.4-0.3s-0.1-0.3,0-0.5l0.1-0.3c0-0.1,0.1-0.3,0.3-0.3
			c0.2-0.1,0.3-0.1,0.5-0.1c0.5,0.1,1.1-0.1,1.8-0.6C65.7,248.6,66.6,247.7,67.8,246.4z M79.3,235.8l-4.8,5.8
			c-0.2,0.2-0.3,0.4-0.2,0.6c0,0.1,0.2,0.3,0.5,0.3l5.7,1.7c0.3,0.1,0.5,0.1,0.6,0c0.1-0.1,0.2-0.3,0.1-0.6l-0.8-7.4l0,0
			c0-0.4-0.2-0.7-0.4-0.7S79.5,235.4,79.3,235.8z"/>
		<path style="fill:#FFFFFC;" d="M103.1,252.1c0.1-0.5,0.1-1.1,0-1.8c-0.1-0.7-0.2-1.2-0.4-1.7l-3.9-10.3c-0.5-1.5-1.1-2.6-1.7-3.3
			c-0.6-0.8-1.3-1.4-2.2-1.8c-0.2-0.1-0.4-0.2-0.5-0.4c-0.1-0.2-0.2-0.3-0.2-0.5l0.1-0.4c0-0.2,0.1-0.4,0.3-0.5
			c0.2-0.1,0.3-0.2,0.5-0.1l5.8,1.1l5.9,0.6c0.2,0,0.3,0.1,0.4,0.2s0.1,0.3,0.1,0.5l0,0.3c0,0.1-0.1,0.2-0.2,0.3
			c-0.1,0.1-0.3,0.2-0.5,0.2c-0.9,0.1-1.5,0.5-1.6,1.1c-0.2,0.7,0,1.8,0.6,3.3l2.8,7.7c0,0.3,0.1,0.5,0.2,0.5s0.2-0.1,0.4-0.4
			l5.4-6.6c1-1.2,1.3-2.1,1.1-2.8s-1.1-1.4-2.6-2c-0.2-0.1-0.3-0.2-0.4-0.3s-0.1-0.3-0.1-0.4l0-0.3c0-0.2,0.1-0.3,0.2-0.4
			s0.3-0.1,0.5-0.1l4.3,0.9l4.5,0.4c0.2,0,0.3,0.1,0.4,0.2c0.1,0.1,0.1,0.3,0.1,0.5l0,0.3c0,0.2-0.1,0.3-0.2,0.4s-0.3,0.2-0.5,0.1
			c-0.5,0-1.1,0.3-1.9,0.8c-0.7,0.6-1.7,1.6-3,3l-6,6.9c-0.3,0.4-0.6,0.9-0.9,1.5c-0.3,0.6-0.5,1.2-0.5,1.7l-0.7,4.9
			c-0.2,1.5-0.1,2.6,0.4,3.4c0.5,0.8,1.4,1.3,2.8,1.6c0.2,0.1,0.4,0.2,0.5,0.3s0.2,0.3,0.2,0.4l0,0.3c0,0.2-0.1,0.3-0.2,0.4
			c-0.1,0.1-0.3,0.1-0.5,0.1l-6.8-1.3l-6.9-0.7c-0.2,0-0.3-0.1-0.4-0.2c-0.1-0.1-0.1-0.3-0.1-0.5l0-0.3c0-0.1,0.1-0.3,0.3-0.4
			s0.4-0.1,0.6-0.1c1.3,0.1,2.2-0.2,2.9-0.8c0.6-0.6,1-1.7,1.3-3.2L103.1,252.1z"/>
		<path style="fill:#FFFFFC;" d="M129.6,257.7c-0.1,1.5,0.1,2.7,0.6,3.3c0.5,0.7,1.4,1.1,2.7,1.2c0.2,0,0.3,0.1,0.4,0.2
			s0.2,0.3,0.2,0.4l0,0.3c0,0.2-0.1,0.3-0.2,0.5c-0.1,0.1-0.3,0.2-0.4,0.2l-4.6-0.3l-4.7,0.2c-0.2,0-0.3,0-0.4-0.2s-0.2-0.3-0.2-0.5
			l0-0.3c0-0.2,0.1-0.3,0.2-0.4c0.1-0.1,0.3-0.2,0.4-0.2c1.2-0.1,2.1-0.5,2.7-1.2c0.5-0.7,0.8-1.8,0.9-3.3l0.5-16
			c0.1-1.5-0.2-2.6-0.8-3.3c-0.6-0.7-1.6-1.1-3.1-1.2c-0.2,0-0.3-0.1-0.4-0.2c-0.1-0.1-0.2-0.3-0.2-0.4l0-0.3c0-0.2,0.1-0.3,0.2-0.4
			c0.1-0.1,0.3-0.2,0.4-0.2l3.7,0.3l3.7-0.2c0.4,0,0.8,0.2,1.1,0.5s0.6,0.8,1,1.6l7.7,16.3h0c0.2,0.4,0.4,0.6,0.7,0.6
			c0.3,0,0.5-0.2,0.7-0.6l7.6-16.1c0.3-0.7,0.7-1.3,1-1.6c0.3-0.3,0.7-0.4,1.1-0.4l3.6,0.3l3.6-0.2c0.2,0,0.3,0.1,0.4,0.2
			c0.1,0.1,0.2,0.3,0.2,0.4l0,0.3c0,0.1-0.1,0.3-0.3,0.4c-0.2,0.1-0.4,0.2-0.6,0.2c-1.3,0.1-2.2,0.5-2.7,1.2
			c-0.5,0.7-0.8,1.8-0.7,3.3l0.2,16c0,1.6,0.3,2.7,0.8,3.4s1.3,1.1,2.5,1.2c0.2,0,0.3,0.1,0.4,0.2c0.1,0.1,0.2,0.3,0.2,0.4l0,0.3
			c0,0.2-0.1,0.3-0.2,0.5c-0.1,0.1-0.3,0.2-0.4,0.2l-5.9-0.3l-5.9,0.2c-0.2,0-0.3,0-0.4-0.2c-0.1-0.1-0.2-0.3-0.2-0.5l0-0.3
			c0-0.2,0.1-0.3,0.2-0.4c0.1-0.1,0.3-0.2,0.4-0.2c0.9-0.1,1.6-0.5,2-1.1c0.4-0.7,0.5-1.8,0.5-3.4l-0.1-12.1c0-0.5-0.1-0.7-0.2-0.8
			c-0.1,0-0.3,0.2-0.5,0.6l-8.4,18.1c-0.1,0.1-0.2,0.2-0.3,0.3s-0.3,0.1-0.4,0.1c-0.1,0-0.3,0-0.4-0.1s-0.3-0.2-0.3-0.3l-8.1-17.1
			c-0.2-0.4-0.4-0.6-0.5-0.6c-0.1,0-0.2,0.3-0.2,0.8L129.6,257.7z"/>
		<path style="fill:#FFFFFC;" d="M166.6,259.9c-2.9-2.3-4.6-5.4-5-9.4c-0.5-4.4,0.6-8.2,3.3-11.3c2.6-3.1,6.3-4.9,10.9-5.4
			c4.2-0.4,7.8,0.5,10.7,2.7c2.9,2.3,4.6,5.4,5,9.4c0.5,4.4-0.6,8.2-3.3,11.3s-6.3,4.9-10.9,5.4C173.1,263,169.5,262.1,166.6,259.9z
			 M183.9,256.9c1.2-2,1.6-4.4,1.3-7.3c-0.4-4.2-1.7-7.6-3.8-10.1c-2.1-2.5-4.5-3.6-7.4-3.3c-2.2,0.2-3.8,1.3-5,3.3
			c-1.2,2-1.6,4.4-1.3,7.3c0.4,4.2,1.7,7.6,3.8,10.1c2.1,2.5,4.5,3.6,7.4,3.3C181,259.9,182.7,258.8,183.9,256.9z"/>
		<path style="fill:#FFFFFC;" d="M201.7,252.7c0.4,1.5,0.9,2.5,1.7,3s1.9,0.7,3.3,0.4c0.2,0,0.3,0,0.5,0.1c0.1,0.1,0.2,0.2,0.3,0.4
			l0.1,0.3c0,0.2,0,0.3-0.1,0.5c-0.1,0.1-0.2,0.2-0.4,0.3l-4.9,0.9l-4.7,1.5c-0.2,0.1-0.3,0-0.5-0.1s-0.2-0.2-0.3-0.4l-0.1-0.3
			c0-0.2,0-0.3,0.1-0.5c0.1-0.1,0.2-0.3,0.4-0.3c1.2-0.4,2-1,2.3-1.8c0.3-0.8,0.3-1.9-0.1-3.4l-3.9-15.5c-0.4-1.5-0.9-2.5-1.5-3.1
			c-0.6-0.5-1.5-0.7-2.7-0.5c-0.1,0-0.3,0-0.4-0.1c-0.1-0.1-0.2-0.2-0.2-0.4l-0.1-0.3c0-0.2,0-0.3,0.1-0.5c0.1-0.1,0.2-0.2,0.4-0.3
			l3.5-0.6l3.3-1.1c0.4-0.1,0.8,0,1.3,0.2s1.2,0.6,2,1.1l16.9,11c0.4,0.2,0.7,0.3,0.9,0.2c0.2-0.1,0.2-0.4,0.1-0.9l-2.5-9.9
			c-0.4-1.5-0.9-2.5-1.7-3c-0.8-0.5-1.9-0.7-3.3-0.4c-0.2,0-0.3,0-0.5-0.1c-0.1-0.1-0.2-0.2-0.3-0.4l-0.1-0.3c0-0.2,0-0.3,0.1-0.5
			c0.1-0.1,0.2-0.2,0.4-0.3l4.9-0.9l4.7-1.5c0.2-0.1,0.3,0,0.5,0.1c0.1,0.1,0.2,0.2,0.3,0.4l0.1,0.3c0,0.2,0,0.3-0.1,0.5
			c-0.1,0.1-0.2,0.3-0.4,0.3c-1.2,0.4-2,1-2.3,1.8c-0.3,0.8-0.3,1.9,0.1,3.4l5.3,21.2c0,0.1,0,0.3-0.1,0.4c-0.1,0.1-0.2,0.2-0.3,0.2
			c-0.1,0-0.3,0-0.5,0c-0.2,0-0.3-0.1-0.5-0.2l-23.5-15.2c-0.4-0.2-0.7-0.3-0.9-0.2c-0.2,0.1-0.2,0.4-0.1,0.9L201.7,252.7z"/>
	</g>
</g>
</svg>
