<svg version="1.1" id="Layer_1" xmlns="http://www.w3.org/2000/svg" xmlns:xlink="http://www.w3.org/1999/xlink" x="0px" y="0px"
	 width="800px" height="300px" viewBox="0 0 800 300" style="enable-background:new 0 0 800 300;" xml:space="preserve">
<g>
	<path d="M138.1,99.7v16.9c0,3.6,0.5,6.2,1.5,7.7c1.2,1.8,3.5,2.9,6.9,3.3l0.4,0.7l-0.6,0.7h-24.6l-0.6-0.7l0.4-0.7
		c3.3-0.4,5.5-1.5,6.7-3.4c1-1.5,1.5-4.1,1.5-7.6V78.2c0-3.5-0.4-5.9-1.2-7.4c-1.1-1.9-3.2-3.1-6.3-3.6l-0.4-0.7l0.6-0.7l11.5-0.4
		l17-0.2c7.3-0.1,13.4,0.9,18.3,2.9c6.9,2.8,10.3,7.4,10.3,13.7c0,8.8-6,14.2-18.1,16.3c4.2,1.5,7.6,3.5,10.2,6.1
		c1.7,1.7,3.8,4.6,6.3,8.5c2.5,4.1,4.6,7,6.2,8.7c3.9,4.2,8.1,6.4,12.5,6.7c0.1,0.2,0.2,0.4,0.2,0.6c0,0.1-0.9,0.4-2.7,0.7
		c-1.8,0.3-4,0.3-6.6-0.1c-2.6-0.4-5-1.1-7.4-2.1c-2.9-1.1-5.5-3-7.8-5.8c-1.1-2.1-2.9-5.3-5.3-9.6c-4-7.1-9.4-11.1-16.3-12
		L138.1,99.7z M138.1,97.6l12.5,0.1c12.6,0.1,18.9-5,18.9-15.4c0-10-6-15-18.1-14.9l-13.3,0.1V97.6z"/>
	<path d="M248.7,106.4c0,6.9-2.4,12.6-7.4,17.1c-4.9,4.5-10.8,6.7-17.8,6.7s-12.9-2.2-17.7-6.6c-5-4.5-7.5-10.3-7.5-17.2
		c0-6.9,2.5-12.7,7.5-17.2c4.8-4.5,10.7-6.7,17.7-6.7s12.9,2.2,17.8,6.8C246.2,93.8,248.7,99.5,248.7,106.4z M240.3,106.4
		c-0.1-5.7-1.5-10.6-4.4-14.7c-3.2-4.6-7.6-6.9-13.1-6.9c-5.6,0-9.8,2.3-12.6,6.9c-2.4,3.9-3.6,8.8-3.5,14.7
		c0.1,5.8,1.5,10.7,4.4,14.7c3.2,4.6,7.6,6.8,13.1,6.8c5.6,0,9.8-2.3,12.6-6.9C239.2,117.1,240.3,112.3,240.3,106.4z"/>
	<path d="M291.4,115.9c0,4.6-2,8.3-6,10.9c-3.5,2.3-7.6,3.5-12.5,3.5c-5.3,0-10.3-1.1-14.9-3.2c-0.5,0-0.9,0.2-1,0.7h-0.8l0.7-10.2
		c0.3-0.3,0.5-0.5,0.7-0.5c0.5,0.1,0.8,0.3,1,0.6c0.8,3.2,2.6,5.8,5.4,7.6c2.6,1.8,5.6,2.7,9.1,2.7c3.1,0,5.7-0.7,7.9-2.1
		c2.5-1.6,3.8-3.9,3.8-6.8c0-2.8-1.3-5.2-4-7.1c-2.1-1.5-4.8-2.6-7.9-3.2c-10.3-1.9-15.4-6.4-15.4-13.3c0-4.5,2-7.8,5.9-10.2
		c3.2-1.9,7.2-2.9,12-2.9c4.9,0,9.4,0.9,13.3,2.8l-1.2,9c-0.3,0.1-0.5,0.2-0.8,0.2c-0.3-0.1-0.5-0.2-0.7-0.4c-0.5-3-1.9-5.3-4.4-7
		c-2.2-1.5-4.8-2.3-7.9-2.3c-2.6,0-4.8,0.6-6.6,1.9c-2.1,1.4-3.1,3.3-3.1,5.8c0,5,4.1,8.4,12.4,10.2c4.5,1,7.9,2.3,10.2,3.9
		C289.8,109,291.4,112,291.4,115.9z"/>
	<path d="M381.4,129.1h-37.7l-0.7-0.7l0.5-0.7c3.7-0.4,6.3-1.4,7.6-3c1.4-1.6,2-4.3,2-8V78.2c0-3.5-0.5-6.1-1.6-7.7
		c-1.3-1.8-3.6-2.9-6.9-3.3l-0.4-0.7l0.6-0.7l12.5-0.5l15.8-0.1c19.4-0.1,29.1,4.9,29.1,15.2c0,3.7-1.7,6.8-5.2,9.3
		c-2.9,2-6.3,3.4-10.4,4.1c13.5,2.5,20.2,7.9,20.2,16.4c0,6.5-2.7,11.5-8.2,14.8C394.1,127.7,388.4,129.1,381.4,129.1z M361.6,92.9
		H376c11.1,0,16.7-4.1,16.7-12.4c0-8.9-6.2-13.2-18.6-13h-12.5V92.9z M361.6,95.2V116c0,4.7,1.3,7.8,3.9,9.2
		c1.6,0.9,5.1,1.3,10.5,1.3c13.9,0,20.9-5.1,20.9-15.4c0-5.6-2.3-9.7-6.8-12.5c-3.7-2.3-8.6-3.4-14.5-3.4H361.6z"/>
	<path d="M460.2,114.9c-1.7,4.7-4.6,8.4-8.7,11.2c-4.1,2.8-8.7,4.2-13.7,4.2c-6.5,0-11.9-2.4-16.1-7.1c-4.1-4.5-6.1-10.1-6.1-16.8
		c0-6.9,2.2-12.5,6.7-17c4.5-4.5,10.1-6.8,16.9-6.8c4.7,0,9.1,1.6,13.4,4.7c4.3,3.1,6.7,7,7.3,11.5c0,0.9-1.7,1.4-5,1.4h-31.4
		c-0.1,1.1-0.2,2.5-0.2,4.3v0.8c0,6.1,1.5,11,4.5,14.8c3.3,4.1,7.9,6.2,13.8,6.2c3.7,0,7.1-1.1,10.3-3.3c3.2-2.2,5.4-5,6.6-8.5
		c0.3-0.1,0.6-0.2,0.9-0.1C459.8,114.4,460,114.6,460.2,114.9z M424.1,97.6h27c-0.3-3.9-1.6-7.1-3.9-9.5c-2.3-2.4-5.3-3.5-9.2-3.5
		C430.8,84.6,426.1,89,424.1,97.6z"/>
	<path d="M479.7,116.9c0,3,0.3,5.3,0.9,6.8c0.9,2.2,2.6,3.5,5.1,3.9l0.6,0.8l-0.4,0.7h-19.8l-0.4-0.7l0.5-0.8
		c2.7-0.4,4.6-1.7,5.5-3.8c0.7-1.5,1-3.8,1-6.9V95.6c0-2.1-0.2-3.6-0.5-4.5c-0.5-1.4-1.7-2.2-3.5-2.5l-1.8-0.3l-0.4-1l0.3-0.4
		l12.1-3.9h0.8V116.9z M471.3,67.2c0-1.2,0.5-2.2,1.4-3c0.9-0.8,2-1.2,3.1-1.2c1.2,0,2.2,0.4,3.2,1.2s1.3,1.8,1.3,3s-0.4,2.2-1.3,3
		c-0.9,0.8-2,1.2-3.2,1.2c-1.2,0-2.2-0.4-3.1-1.2C471.7,69.4,471.3,68.4,471.3,67.2z"/>
	<path d="M522.7,121.4c-3.9,6-9.1,9-15.5,9c-4.1,0-7.5-0.9-10.2-2.6c-3.2-2.1-4.8-5-4.8-8.9c0-7.5,6.4-11.9,19.3-13.2
		c3.1-0.3,6.7-1.2,10.7-2.5v-5.6c0-8.3-3.7-12.4-11.1-12.4c-3,0-5.7,0.8-8,2.3c-2.7,1.7-4.1,4-4.1,6.9c-1-0.5-2-0.9-2.9-1.4
		c-1.3-0.7-2.1-1.3-2.3-2c0.6-2,3.3-4,8-5.9c4.3-1.7,7.7-2.6,10.2-2.6c5.2,0,9.3,1.2,12.4,3.5c3.5,2.6,5.2,6.4,5.2,11.4v20.7
		c0,5.5,1.1,8.3,3.2,8.3c1.1,0,2-0.3,2.7-0.9l0.3,1c-4.5,2.1-7.6,3.1-9.1,3.1c-2.2,0-3.5-2.6-4-7.9V121.4z M522.2,114.1v-8.6
		c-0.4,0.2-3.1,0.9-8.1,2.2c-9.4,0.8-14.1,4.4-14.1,10.7c0,2.7,1,4.9,2.9,6.6c1.9,1.7,4.2,2.5,7,2.5c3.5,0,6.4-1.3,8.8-4
		C521,120.7,522.2,117.6,522.2,114.1z"/>
	<path d="M572.7,121.4c-3.9,6-9.1,9-15.5,9c-4.1,0-7.5-0.9-10.2-2.6c-3.2-2.1-4.8-5-4.8-8.9c0-7.5,6.4-11.9,19.3-13.2
		c3.1-0.3,6.7-1.2,10.7-2.5v-5.6c0-8.3-3.7-12.4-11.1-12.4c-3,0-5.7,0.8-8,2.3c-2.7,1.7-4.1,4-4.1,6.9c-1-0.5-2-0.9-2.9-1.4
		c-1.3-0.7-2.1-1.3-2.3-2c0.6-2,3.3-4,8-5.9c4.3-1.7,7.7-2.6,10.2-2.6c5.2,0,9.3,1.2,12.4,3.5c3.5,2.6,5.2,6.4,5.2,11.4v20.7
		c0,5.5,1.1,8.3,3.2,8.3c1.1,0,2-0.3,2.7-0.9l0.3,1c-4.5,2.1-7.6,3.1-9.1,3.1c-2.2,0-3.5-2.6-4-7.9V121.4z M572.2,114.1v-8.6
		c-0.4,0.2-3.1,0.9-8.1,2.2c-9.4,0.8-14.1,4.4-14.1,10.7c0,2.7,1,4.9,2.9,6.6c1.9,1.7,4.2,2.5,7,2.5c3.5,0,6.4-1.3,8.8-4
		C571,120.7,572.2,117.6,572.2,114.1z"/>
	<path d="M606.1,116.9c0,3.4,0.5,5.8,1.4,7.3c1.1,1.9,3.3,3.1,6.5,3.4h0.4l0.6,0.8l-0.5,0.7h-21.7l-0.4-0.7l0.4-0.8
		c2.7-0.4,4.5-1.7,5.4-3.8c0.6-1.4,0.9-3.7,0.9-6.9V95.1c0-4.3-1.2-6.6-3.7-7l-1.8-0.3l-0.4-1l0.3-0.4l11.4-3.9h1v12.6
		c4.3-8.4,9-12.6,14.3-12.6l4.8,1.6l-2.8,7.8l-2.7-0.9c-0.8-0.8-1.6-1.1-2.4-1.1c-0.8-0.3-1.6-0.4-2.3-0.4c-2.3,0-4.1,1.2-5.3,3.7
		c-1.7,3.2-2.8,7-3.3,11.5V116.9z"/>
	<path d="M666.9,120.7c-5.3,6.3-11.2,9.5-17.8,9.5c-6.3,0-11.4-2.2-15.4-6.5c-4-4.3-6.1-9.7-6.1-16c0-7.3,2.4-13.4,7.1-18.1
		c4.7-4.7,10.7-7.1,18.1-7.1c5.1,0,9.8,1.7,14.2,5v-16c0-2.2-0.2-3.7-0.5-4.6c-0.5-1.3-1.7-2.1-3.6-2.4l-2-0.3l-0.4-1l0.4-0.4
		l12.2-3.5h0.9v55.1c0,6.3,1.2,10,3.5,11.1l2.7-0.2c0,0.6-0.3,1.1-0.8,1.5l-11.4,2.8L666.9,120.7z M667,112.4v-12.3
		c-0.5-4.5-2-8.1-4.7-10.8c-2.9-2.8-6.5-4.2-10.9-4.2c-5.3,0-9.3,2.2-12.1,6.6c-2.4,3.7-3.6,8.4-3.6,14c0,5.3,1.2,10,3.7,14
		c2.9,4.7,6.9,7.1,11.9,7.1c3.9,0,7.5-1.4,10.8-4.3C665.4,119.7,667,116.3,667,112.4z"/>
	<path d="M158.2,219.1h-37.7l-0.7-0.7l0.5-0.7c3.7-0.4,6.3-1.4,7.6-3c1.4-1.6,2-4.3,2-8v-38.4c0-3.5-0.5-6.1-1.6-7.7
		c-1.3-1.8-3.6-2.9-6.9-3.3l-0.4-0.7l0.6-0.7l12.5-0.5l15.8-0.1c19.4-0.1,29.1,4.9,29.1,15.2c0,3.7-1.7,6.8-5.2,9.3
		c-2.9,2-6.3,3.4-10.4,4.1c13.5,2.5,20.2,7.9,20.2,16.4c0,6.5-2.7,11.5-8.2,14.8C170.9,217.7,165.2,219.1,158.2,219.1z M138.4,182.9
		h14.4c11.1,0,16.7-4.1,16.7-12.4c0-8.9-6.2-13.2-18.6-13h-12.5V182.9z M138.4,185.2V206c0,4.7,1.3,7.8,3.9,9.2
		c1.6,0.9,5.1,1.3,10.5,1.3c13.9,0,20.9-5.1,20.9-15.4c0-5.6-2.3-9.7-6.8-12.5c-3.7-2.3-8.6-3.4-14.5-3.4H138.4z"/>
	<path d="M204,206.9c0,3,0.3,5.3,0.9,6.8c0.9,2.2,2.6,3.5,5.1,3.9l0.6,0.8l-0.4,0.7h-19.8l-0.4-0.7l0.5-0.8c2.7-0.4,4.6-1.7,5.5-3.8
		c0.7-1.5,1-3.8,1-6.9v-21.3c0-2.1-0.2-3.6-0.5-4.5c-0.5-1.4-1.7-2.2-3.5-2.5l-1.8-0.3l-0.4-1l0.3-0.4l12.1-3.9h0.8V206.9z
		 M195.6,157.2c0-1.2,0.5-2.2,1.4-3c0.9-0.8,2-1.2,3.1-1.2c1.2,0,2.2,0.4,3.1,1.2c0.9,0.8,1.4,1.8,1.4,3s-0.4,2.2-1.4,3
		c-0.9,0.8-1.9,1.2-3.1,1.2c-1.2,0-2.2-0.4-3.1-1.2C196.1,159.4,195.6,158.4,195.6,157.2z"/>
	<path d="M260.7,204.9c-1.7,4.7-4.6,8.4-8.7,11.2c-4.1,2.8-8.6,4.2-13.6,4.2c-6.5,0-11.9-2.4-16.1-7.1c-4.1-4.5-6.1-10.1-6.1-16.8
		c0-6.9,2.2-12.5,6.7-17c4.5-4.5,10.1-6.8,16.9-6.8c4.7,0,9.1,1.6,13.4,4.7c4.3,3.1,6.7,7,7.3,11.5c0,0.9-1.7,1.4-5,1.4h-31.4
		c-0.1,1.1-0.2,2.5-0.2,4.3v0.8c0,6.1,1.5,11,4.5,14.8c3.3,4.1,7.9,6.2,13.8,6.2c3.7,0,7.1-1.1,10.3-3.3c3.2-2.2,5.4-5,6.6-8.5
		c0.3-0.1,0.6-0.2,0.9-0.1C260.3,204.4,260.5,204.6,260.7,204.9z M224.6,187.6h27c-0.3-3.9-1.6-7.1-3.9-9.5
		c-2.3-2.4-5.3-3.5-9.2-3.5C231.2,174.6,226.6,179,224.6,187.6z"/>
	<path d="M279.6,206.9c0,3.4,0.5,5.8,1.4,7.3c1.1,1.9,3.3,3.1,6.5,3.4h0.4l0.6,0.8l-0.5,0.7h-21.7l-0.4-0.7l0.4-0.8
		c2.7-0.4,4.5-1.7,5.4-3.8c0.6-1.4,0.9-3.7,0.9-6.9v-21.8c0-4.3-1.2-6.6-3.7-7l-1.8-0.3l-0.4-1l0.3-0.4l11.4-3.9h1v12.6
		c4.3-8.4,9-12.6,14.3-12.6l4.8,1.6l-2.8,7.8L293,181c-0.8-0.8-1.6-1.1-2.4-1.1c-0.8-0.3-1.6-0.4-2.3-0.4c-2.3,0-4.1,1.2-5.4,3.7
		c-1.7,3.2-2.8,7-3.3,11.5V206.9z"/>
	<path d="M316.3,214.2v14.2c0,3.2,0.4,5.6,1.1,7c1,2.1,2.9,3.3,5.8,3.7l0.8,0.8l-0.4,0.7h-20.8l-0.4-0.7l0.5-0.8
		c2.6-0.4,4.4-1.7,5.4-3.8c0.7-1.5,1-3.8,1-6.9v-42.9c0-4.3-1.2-6.6-3.5-7l-1.7-0.3l-0.4-1l0.3-0.4l11.1-3.9h0.9v10.5
		c4.9-7.3,11-10.9,18.4-10.9c5.9,0,10.9,2.2,14.8,6.7c3.9,4.5,5.9,9.7,5.9,15.7c0,6.8-2.4,12.6-7.1,17.5c-4.7,4.9-10.5,7.3-17.3,7.3
		C325,219.9,320.2,218,316.3,214.2z M316.3,202.9c0.6,4.1,2.3,7.5,5.1,10.2c2.8,2.7,6.3,4,10.3,4c5.1,0,9-2.1,11.7-6.3
		c2.3-3.5,3.5-7.9,3.5-13.3c0-5.7-1.2-10.5-3.7-14.4c-2.9-4.5-7-6.8-12.4-6.8c-4,0-7.3,1.4-9.9,4.3c-2.3,2.5-3.8,5.8-4.6,10V202.9z"
		/>
	<path d="M374.3,206.9c0,3.4,0.5,5.8,1.4,7.3c1.1,1.9,3.3,3.1,6.5,3.4h0.4l0.6,0.8l-0.5,0.7H361l-0.4-0.7l0.4-0.8
		c2.7-0.4,4.5-1.7,5.4-3.8c0.6-1.4,0.9-3.7,0.9-6.9v-21.8c0-4.3-1.2-6.6-3.7-7l-1.8-0.3l-0.4-1l0.3-0.4l11.4-3.9h1v12.6
		c4.3-8.4,9-12.6,14.3-12.6l4.8,1.6l-2.8,7.8l-2.7-0.9c-0.8-0.8-1.6-1.1-2.4-1.1c-0.8-0.3-1.6-0.4-2.3-0.4c-2.3,0-4.1,1.2-5.4,3.7
		c-1.7,3.2-2.8,7-3.3,11.5V206.9z"/>
	<path d="M446.4,196.4c0,6.9-2.4,12.6-7.3,17.1c-4.9,4.5-10.8,6.7-17.9,6.7c-7,0-12.9-2.2-17.7-6.6c-5-4.5-7.5-10.3-7.5-17.2
		c0-6.9,2.5-12.7,7.5-17.2c4.8-4.5,10.7-6.7,17.7-6.7c7,0,12.9,2.2,17.9,6.8S446.4,189.5,446.4,196.4z M438,196.4
		c-0.1-5.7-1.5-10.6-4.4-14.7c-3.2-4.6-7.6-6.9-13.1-6.9c-5.6,0-9.8,2.3-12.6,6.9c-2.4,3.9-3.6,8.8-3.5,14.7
		c0.1,5.8,1.5,10.7,4.4,14.7c3.2,4.6,7.6,6.8,13.1,6.8c5.6,0,9.8-2.3,12.6-6.9C436.9,207.1,438.1,202.3,438,196.4z"/>
	<path d="M499.3,204.9c-1.7,4.7-4.5,8.4-8.7,11.2c-4.1,2.8-8.6,4.2-13.6,4.2c-6.5,0-11.9-2.4-16.1-7.1c-4.1-4.5-6.1-10.1-6.1-16.8
		c0-6.9,2.2-12.5,6.7-17c4.5-4.5,10.1-6.8,16.9-6.8c4.7,0,9.1,1.6,13.4,4.7c4.3,3.1,6.7,7,7.3,11.5c0,0.9-1.7,1.4-5,1.4h-31.4
		c-0.1,1.1-0.2,2.5-0.2,4.3v0.8c0,6.1,1.5,11,4.5,14.8c3.3,4.1,7.9,6.2,13.8,6.2c3.7,0,7.1-1.1,10.3-3.3c3.2-2.2,5.4-5,6.6-8.5
		c0.3-0.1,0.6-0.2,0.9-0.1C498.9,204.4,499.1,204.6,499.3,204.9z M463.2,187.6h27c-0.3-3.9-1.6-7.1-3.9-9.5
		c-2.3-2.4-5.3-3.5-9.2-3.5C469.9,174.6,465.2,179,463.2,187.6z"/>
	<path d="M546.2,184.1l-16.9,35.5c-0.5,0.3-1,0.5-1.3,0.5c-0.3,0-0.6-0.2-1.1-0.5l-18-38c-1.7-3.7-3.9-5.7-6.5-6.2l-0.7-0.9l0.4-1
		l9.2,0.3l9.1-0.3l0.6,0.9l-0.4,0.8c-2.3,0.3-3.8,1-4.3,1.9c-0.2,0.3-0.3,0.6-0.3,1.1c0,1,0.4,2.4,1.2,4.1l13.4,28.5l12.6-26.3
		c0.5-1.5,0.8-2.9,0.8-4c0-2.9-1.8-4.6-5.4-5.1l-0.7-0.9l0.4-1l7.7,0.3l7.9-0.3l0.6,0.9l-0.4,0.8C551,176.6,548.4,179.6,546.2,184.1
		z"/>
	<path d="M600.8,204.9c-1.7,4.7-4.5,8.4-8.7,11.2c-4.1,2.8-8.6,4.2-13.6,4.2c-6.5,0-11.9-2.4-16.1-7.1c-4.1-4.5-6.1-10.1-6.1-16.8
		c0-6.9,2.2-12.5,6.7-17c4.5-4.5,10.1-6.8,16.9-6.8c4.7,0,9.1,1.6,13.4,4.7c4.3,3.1,6.7,7,7.3,11.5c0,0.9-1.7,1.4-5,1.4h-31.4
		c-0.1,1.1-0.2,2.5-0.2,4.3v0.8c0,6.1,1.5,11,4.5,14.8c3.3,4.1,7.9,6.2,13.8,6.2c3.7,0,7.1-1.1,10.3-3.3c3.2-2.2,5.4-5,6.6-8.5
		c0.3-0.1,0.6-0.2,0.9-0.1C600.3,204.4,600.6,204.6,600.8,204.9z M564.7,187.6h27c-0.3-3.9-1.6-7.1-3.9-9.5
		c-2.3-2.4-5.3-3.5-9.2-3.5C571.3,174.6,566.7,179,564.7,187.6z"/>
	<path d="M619.7,206.9c0,3.4,0.5,5.8,1.4,7.3c1.1,1.9,3.3,3.1,6.5,3.4h0.4l0.6,0.8l-0.5,0.7h-21.7l-0.4-0.7l0.4-0.8
		c2.7-0.4,4.5-1.7,5.4-3.8c0.6-1.4,0.9-3.7,0.9-6.9v-21.8c0-4.3-1.2-6.6-3.7-7l-1.8-0.3l-0.4-1l0.3-0.4l11.4-3.9h1v12.6
		c4.3-8.4,9-12.6,14.3-12.6l4.8,1.6l-2.8,7.8l-2.7-0.9c-0.8-0.8-1.6-1.1-2.4-1.1c-0.8-0.3-1.6-0.4-2.3-0.4c-2.3,0-4.1,1.2-5.3,3.7
		c-1.7,3.2-2.8,7-3.3,11.5V206.9z"/>
	<path d="M677.8,205.9c0,4.6-2,8.3-6,10.9c-3.5,2.3-7.6,3.5-12.5,3.5c-5.3,0-10.3-1.1-14.9-3.2c-0.5,0-0.9,0.2-1,0.7h-0.8l0.7-10.2
		c0.3-0.3,0.5-0.5,0.7-0.5c0.5,0.1,0.8,0.3,1,0.6c0.8,3.2,2.6,5.8,5.4,7.6c2.6,1.8,5.6,2.7,9.1,2.7c3.1,0,5.7-0.7,7.9-2.1
		c2.5-1.6,3.8-3.9,3.8-6.8c0-2.8-1.3-5.2-4-7.1c-2.1-1.5-4.8-2.6-7.9-3.2c-10.3-1.9-15.4-6.4-15.4-13.3c0-4.5,2-7.8,5.9-10.2
		c3.2-1.9,7.2-2.9,12-2.9c4.9,0,9.4,0.9,13.3,2.8l-1.2,9c-0.3,0.1-0.5,0.2-0.8,0.2c-0.3-0.1-0.5-0.2-0.7-0.4c-0.5-3-1.9-5.3-4.4-7
		c-2.2-1.5-4.8-2.3-7.9-2.3c-2.6,0-4.8,0.6-6.6,1.9c-2.1,1.4-3.1,3.3-3.1,5.8c0,5,4.1,8.4,12.4,10.2c4.5,1,7.9,2.3,10.2,3.9
		C676.2,199,677.8,202,677.8,205.9z"/>
</g>
</svg>
