<svg version="1.1" id="Layer_1" xmlns="http://www.w3.org/2000/svg" xmlns:xlink="http://www.w3.org/1999/xlink" x="0px" y="0px"
	 width="1270px" height="189px" viewBox="0 0 1270 189" style="enable-background:new 0 0 1270 189;" xml:space="preserve">
<g>
	<path d="M82.6,94.2v16.9c0,3.6,0.5,6.2,1.5,7.7c1.2,1.8,3.5,2.9,6.9,3.3l0.4,0.7l-0.6,0.7H66.2l-0.6-0.7l0.4-0.7
		c3.3-0.4,5.5-1.5,6.7-3.4c1-1.5,1.5-4.1,1.5-7.6V72.7c0-3.5-0.4-5.9-1.2-7.4c-1.1-1.9-3.2-3.1-6.3-3.6l-0.4-0.7l0.6-0.7L78.4,60
		l17-0.2c7.3-0.1,13.4,0.9,18.3,2.9c6.9,2.8,10.3,7.4,10.3,13.7c0,8.8-6,14.2-18.1,16.3c4.2,1.5,7.6,3.5,10.2,6.1
		c1.7,1.7,3.8,4.6,6.3,8.5c2.5,4.1,4.6,7,6.2,8.7c3.9,4.2,8.1,6.4,12.5,6.7c0.1,0.2,0.2,0.4,0.2,0.6c0,0.1-0.9,0.4-2.7,0.7
		c-1.8,0.3-4,0.3-6.6-0.1c-2.6-0.4-5-1.1-7.4-2c-2.9-1.1-5.5-3-7.8-5.8c-1.1-2.1-2.9-5.3-5.3-9.6c-4-7.1-9.4-11.1-16.3-12L82.6,94.2
		z M82.6,92.2l12.5,0.1c12.6,0.1,18.9-5,18.9-15.4c0-10-6-15-18.1-14.9l-13.3,0.1V92.2z"/>
	<path d="M193.1,100.9c0,6.9-2.4,12.6-7.4,17.1c-4.9,4.5-10.8,6.7-17.8,6.7s-12.9-2.2-17.7-6.6c-5-4.5-7.5-10.3-7.5-17.2
		c0-6.9,2.5-12.7,7.5-17.2c4.8-4.5,10.7-6.7,17.7-6.7s12.9,2.2,17.8,6.8C190.7,88.3,193.1,94,193.1,100.9z M184.7,100.9
		c-0.1-5.7-1.5-10.6-4.4-14.7c-3.2-4.6-7.6-6.9-13.1-6.9c-5.6,0-9.8,2.3-12.6,6.9c-2.4,3.9-3.6,8.8-3.5,14.7
		c0.1,5.8,1.5,10.7,4.4,14.7c3.2,4.6,7.6,6.8,13.1,6.8c5.6,0,9.8-2.3,12.6-6.9C183.6,111.6,184.8,106.8,184.7,100.9z"/>
	<path d="M235.8,110.4c0,4.6-2,8.3-6,10.9c-3.5,2.3-7.6,3.5-12.5,3.5c-5.3,0-10.3-1.1-14.9-3.2c-0.5,0-0.9,0.2-1,0.7h-0.8l0.7-10.2
		c0.3-0.3,0.5-0.5,0.7-0.5c0.5,0.1,0.8,0.3,1,0.6c0.8,3.2,2.6,5.8,5.4,7.6c2.6,1.8,5.6,2.7,9.1,2.7c3.1,0,5.7-0.7,7.9-2.1
		c2.5-1.6,3.8-3.9,3.8-6.8c0-2.8-1.3-5.2-4-7.1c-2.1-1.5-4.8-2.6-7.9-3.2c-10.3-1.9-15.4-6.4-15.4-13.3c0-4.5,2-7.9,5.9-10.2
		c3.2-1.9,7.2-2.9,12-2.9c4.9,0,9.4,0.9,13.3,2.8l-1.2,9c-0.3,0.1-0.5,0.2-0.8,0.2c-0.3-0.1-0.5-0.2-0.7-0.4c-0.5-3-1.9-5.3-4.4-7
		c-2.2-1.5-4.8-2.3-7.9-2.3c-2.6,0-4.8,0.6-6.6,1.9c-2.1,1.4-3.1,3.3-3.1,5.8c0,5,4.1,8.4,12.4,10.2c4.5,1,7.9,2.3,10.2,3.9
		C234.2,103.5,235.8,106.5,235.8,110.4z"/>
	<path d="M312.2,123.6h-37.7l-0.7-0.7l0.5-0.7c3.7-0.4,6.3-1.4,7.6-3c1.4-1.6,2-4.3,2-8V72.7c0-3.5-0.5-6.1-1.6-7.7
		c-1.3-1.8-3.6-2.9-6.9-3.3l-0.4-0.7l0.6-0.7l12.5-0.5l15.8-0.1c19.4-0.1,29.1,4.9,29.1,15.2c0,3.7-1.7,6.8-5.2,9.3
		c-2.9,2-6.3,3.4-10.4,4.1c13.5,2.5,20.2,7.9,20.2,16.4c0,6.5-2.7,11.5-8.2,14.8C325,122.2,319.2,123.6,312.2,123.6z M292.4,87.5
		h14.4c11.1,0,16.7-4.1,16.7-12.4c0-8.9-6.2-13.2-18.6-13h-12.5V87.5z M292.4,89.7v20.7c0,4.7,1.3,7.8,3.9,9.2
		c1.6,0.9,5.1,1.3,10.5,1.3c13.9,0,20.9-5.1,20.9-15.4c0-5.6-2.3-9.7-6.8-12.5c-3.7-2.3-8.6-3.4-14.5-3.4H292.4z"/>
	<path d="M391.1,109.3c-1.7,4.7-4.6,8.4-8.7,11.2s-8.7,4.2-13.7,4.2c-6.5,0-11.9-2.4-16.1-7.1c-4.1-4.5-6.1-10.1-6.1-16.8
		c0-6.9,2.2-12.5,6.7-17c4.5-4.5,10.1-6.8,16.9-6.8c4.7,0,9.1,1.6,13.4,4.7c4.3,3.1,6.7,7,7.3,11.5c0,0.9-1.7,1.4-5,1.4h-31.4
		c-0.1,1.1-0.2,2.5-0.2,4.3v0.8c0,6.1,1.5,11,4.5,14.8c3.3,4.1,7.9,6.2,13.8,6.2c3.7,0,7.1-1.1,10.3-3.3c3.2-2.2,5.4-5.1,6.6-8.5
		c0.3-0.1,0.6-0.2,0.9-0.1C390.7,108.9,390.9,109.1,391.1,109.3z M355,92.2h27c-0.3-3.9-1.6-7.1-3.9-9.5c-2.3-2.4-5.3-3.5-9.2-3.5
		C361.6,79.2,357,83.5,355,92.2z"/>
	<path d="M410.5,111.3c0,3,0.3,5.3,0.9,6.8c0.9,2.2,2.6,3.5,5.1,3.9l0.6,0.8l-0.4,0.7h-19.8l-0.4-0.7l0.5-0.8
		c2.7-0.4,4.6-1.7,5.5-3.8c0.7-1.5,1-3.8,1-6.9V90.1c0-2.1-0.2-3.6-0.5-4.5c-0.5-1.4-1.7-2.2-3.5-2.5l-1.8-0.3l-0.4-1l0.3-0.4
		l12.1-3.9h0.8V111.3z M402.1,61.7c0-1.2,0.4-2.2,1.3-3c0.9-0.8,2-1.2,3.2-1.2c1.2,0,2.2,0.4,3.1,1.2c0.9,0.8,1.4,1.8,1.4,3
		c0,1.2-0.5,2.2-1.4,3c-0.9,0.8-2,1.2-3.1,1.2c-1.2,0-2.2-0.4-3.2-1.2C402.6,64,402.1,63,402.1,61.7z"/>
	<path d="M453.5,115.9c-3.9,6-9.1,9-15.5,9c-4.1,0-7.5-0.9-10.2-2.6c-3.2-2.1-4.8-5-4.8-8.9c0-7.5,6.4-11.9,19.3-13.2
		c3.1-0.3,6.7-1.2,10.7-2.5v-5.6c0-8.3-3.7-12.4-11.1-12.4c-3,0-5.7,0.8-8,2.3c-2.7,1.7-4.1,4-4.1,6.9c-1-0.5-2-0.9-2.9-1.4
		c-1.3-0.7-2.1-1.3-2.3-2c0.6-2,3.3-4,8-5.9c4.3-1.7,7.7-2.6,10.2-2.6c5.2,0,9.3,1.2,12.4,3.5c3.5,2.6,5.2,6.4,5.2,11.4v20.7
		c0,5.5,1.1,8.3,3.2,8.3c1.1,0,2-0.3,2.7-0.9l0.3,1c-4.5,2.1-7.6,3.1-9.1,3.1c-2.2,0-3.5-2.6-4-7.9V115.9z M453,108.6v-8.6
		c-0.4,0.2-3.1,0.9-8.1,2.2c-9.4,0.8-14.1,4.4-14.1,10.7c0,2.7,0.9,4.9,2.8,6.6c1.9,1.7,4.2,2.5,7,2.5c3.5,0,6.4-1.3,8.8-4
		C451.8,115.2,453,112.1,453,108.6z"/>
	<path d="M503.6,115.9c-3.9,6-9.1,9-15.5,9c-4.1,0-7.5-0.9-10.2-2.6c-3.2-2.1-4.8-5-4.8-8.9c0-7.5,6.4-11.9,19.3-13.2
		c3.1-0.3,6.7-1.2,10.7-2.5v-5.6c0-8.3-3.7-12.4-11.1-12.4c-3,0-5.7,0.8-8,2.3c-2.7,1.7-4.1,4-4.1,6.9c-1-0.5-2-0.9-2.9-1.4
		c-1.3-0.7-2.1-1.3-2.3-2c0.6-2,3.3-4,8-5.9c4.3-1.7,7.7-2.6,10.2-2.6c5.2,0,9.3,1.2,12.4,3.5c3.5,2.6,5.2,6.4,5.2,11.4v20.7
		c0,5.5,1.1,8.3,3.2,8.3c1.1,0,2-0.3,2.7-0.9l0.3,1c-4.5,2.1-7.6,3.1-9.1,3.1c-2.2,0-3.5-2.6-4-7.9V115.9z M503.1,108.6v-8.6
		c-0.4,0.2-3.1,0.9-8.1,2.2c-9.4,0.8-14.1,4.4-14.1,10.7c0,2.7,0.9,4.9,2.8,6.6c1.9,1.7,4.2,2.5,7,2.5c3.5,0,6.4-1.3,8.8-4
		C501.9,115.2,503.1,112.1,503.1,108.6z"/>
	<path d="M536.9,111.3c0,3.4,0.5,5.8,1.4,7.3c1.1,1.9,3.3,3.1,6.5,3.4h0.4l0.6,0.8l-0.5,0.7h-21.7l-0.4-0.7l0.4-0.8
		c2.7-0.4,4.5-1.7,5.4-3.8c0.6-1.4,0.9-3.7,0.9-6.9V89.6c0-4.3-1.2-6.6-3.7-7l-1.8-0.3l-0.4-1l0.3-0.4l11.4-3.9h1v12.6
		c4.3-8.4,9-12.6,14.3-12.6l4.8,1.6l-2.8,7.8l-2.7-0.9c-0.8-0.8-1.6-1.1-2.4-1.1c-0.8-0.3-1.6-0.4-2.3-0.4c-2.3,0-4.1,1.2-5.4,3.7
		c-1.7,3.2-2.8,7-3.3,11.5V111.3z"/>
	<path d="M597.8,115.3c-5.3,6.3-11.2,9.5-17.8,9.5c-6.3,0-11.4-2.2-15.5-6.5c-4-4.3-6-9.7-6-16c0-7.3,2.4-13.4,7.1-18.1
		c4.7-4.7,10.7-7.1,18.1-7.1c5.1,0,9.8,1.7,14.2,5v-16c0-2.2-0.2-3.7-0.5-4.6c-0.5-1.3-1.7-2.1-3.6-2.4l-2-0.3l-0.4-1l0.4-0.4
		l12.2-3.5h0.9v55.1c0,6.3,1.2,10,3.5,11.1l2.7-0.2c0,0.6-0.3,1.1-0.8,1.5l-11.4,2.8L597.8,115.3z M597.9,106.9V94.7
		c-0.5-4.5-2-8.1-4.7-10.8c-2.9-2.8-6.5-4.2-10.9-4.2c-5.3,0-9.3,2.2-12.1,6.6c-2.4,3.7-3.6,8.4-3.6,14c0,5.3,1.2,10,3.7,14
		c2.9,4.7,6.9,7.1,11.9,7.1c3.9,0,7.5-1.4,10.8-4.3C596.2,114.2,597.9,110.8,597.9,106.9z"/>
	<path d="M684.7,123.6H647l-0.7-0.7l0.5-0.7c3.7-0.4,6.3-1.4,7.6-3c1.4-1.6,2.1-4.3,2.1-8V72.7c0-3.5-0.5-6.1-1.6-7.7
		c-1.3-1.8-3.6-2.9-6.9-3.3l-0.4-0.7l0.6-0.7l12.5-0.5l15.8-0.1c19.4-0.1,29.1,4.9,29.1,15.2c0,3.7-1.7,6.8-5.2,9.3
		c-2.9,2-6.3,3.4-10.4,4.1c13.5,2.5,20.2,7.9,20.2,16.4c0,6.5-2.7,11.5-8.2,14.8C697.5,122.2,691.7,123.6,684.7,123.6z M664.9,87.5
		h14.4c11.1,0,16.7-4.1,16.7-12.4c0-8.9-6.2-13.2-18.6-13h-12.5V87.5z M664.9,89.7v20.7c0,4.7,1.3,7.8,3.9,9.2
		c1.6,0.9,5.1,1.3,10.5,1.3c13.9,0,20.9-5.1,20.9-15.4c0-5.6-2.3-9.7-6.8-12.5c-3.7-2.3-8.6-3.4-14.5-3.4H664.9z"/>
	<path d="M730.6,111.3c0,3,0.3,5.3,0.9,6.8c0.9,2.2,2.6,3.5,5.1,3.9l0.6,0.8l-0.4,0.7H717l-0.4-0.7l0.5-0.8c2.7-0.4,4.6-1.7,5.5-3.8
		c0.7-1.5,1-3.8,1-6.9V90.1c0-2.1-0.2-3.6-0.5-4.5c-0.5-1.4-1.7-2.2-3.5-2.5l-1.8-0.3l-0.4-1l0.3-0.4l12.1-3.9h0.8V111.3z
		 M722.2,61.7c0-1.2,0.4-2.2,1.3-3c0.9-0.8,2-1.2,3.2-1.2c1.2,0,2.2,0.4,3.1,1.2c0.9,0.8,1.4,1.8,1.4,3c0,1.2-0.5,2.2-1.4,3
		c-0.9,0.8-2,1.2-3.1,1.2c-1.2,0-2.2-0.4-3.2-1.2C722.6,64,722.2,63,722.2,61.7z"/>
	<path d="M787.3,109.3c-1.7,4.7-4.5,8.4-8.7,11.2c-4.1,2.8-8.6,4.2-13.6,4.2c-6.5,0-11.9-2.4-16.1-7.1c-4.1-4.5-6.1-10.1-6.1-16.8
		c0-6.9,2.2-12.5,6.7-17c4.5-4.5,10.1-6.8,16.9-6.8c4.7,0,9.1,1.6,13.4,4.7c4.3,3.1,6.7,7,7.3,11.5c0,0.9-1.7,1.4-5,1.4h-31.4
		c-0.1,1.1-0.2,2.5-0.2,4.3v0.8c0,6.1,1.5,11,4.5,14.8c3.3,4.1,7.9,6.2,13.8,6.2c3.7,0,7.1-1.1,10.3-3.3c3.2-2.2,5.4-5.1,6.6-8.5
		c0.3-0.1,0.6-0.2,0.9-0.1C786.8,108.9,787.1,109.1,787.3,109.3z M751.2,92.2h27c-0.3-3.9-1.6-7.1-3.9-9.5c-2.3-2.4-5.3-3.5-9.2-3.5
		C757.8,79.2,753.2,83.5,751.2,92.2z"/>
	<path d="M806.2,111.3c0,3.4,0.5,5.8,1.4,7.3c1.1,1.9,3.3,3.1,6.5,3.4h0.4l0.6,0.8l-0.5,0.7h-21.7l-0.4-0.7l0.4-0.8
		c2.7-0.4,4.5-1.7,5.4-3.8c0.6-1.4,0.9-3.7,0.9-6.9V89.6c0-4.3-1.2-6.6-3.7-7l-1.8-0.3l-0.4-1l0.3-0.4L805,77h1v12.6
		c4.3-8.4,9-12.6,14.3-12.6l4.8,1.6l-2.8,7.8l-2.7-0.9c-0.8-0.8-1.6-1.1-2.4-1.1c-0.8-0.3-1.6-0.4-2.3-0.4c-2.3,0-4.1,1.2-5.4,3.7
		c-1.7,3.2-2.8,7-3.3,11.5V111.3z"/>
	<path d="M842.9,118.8v14.2c0,3.2,0.4,5.6,1.1,7c1,2.1,2.9,3.3,5.8,3.7l0.8,0.8l-0.4,0.7h-20.8l-0.4-0.7l0.5-0.8
		c2.6-0.4,4.4-1.7,5.4-3.8c0.7-1.5,1-3.8,1-6.9V90.1c0-4.3-1.2-6.6-3.5-7l-1.7-0.3l-0.4-1l0.3-0.4l11.1-3.9h0.9V88
		c4.9-7.3,11-10.9,18.4-10.9c5.9,0,10.9,2.2,14.8,6.7c3.9,4.5,5.9,9.7,5.9,15.7c0,6.8-2.4,12.6-7.1,17.5c-4.7,4.9-10.5,7.3-17.3,7.3
		C851.5,124.3,846.7,122.5,842.9,118.8z M842.9,107.4c0.6,4.1,2.3,7.5,5.1,10.2c2.8,2.7,6.3,4,10.3,4c5.1,0,9-2.1,11.7-6.3
		c2.3-3.5,3.5-7.9,3.5-13.3c0-5.7-1.2-10.5-3.7-14.4c-2.9-4.5-7-6.8-12.4-6.8c-4,0-7.3,1.4-9.9,4.3c-2.3,2.5-3.8,5.8-4.6,10V107.4z"
		/>
	<path d="M900.8,111.3c0,3.4,0.5,5.8,1.4,7.3c1.1,1.9,3.3,3.1,6.5,3.4h0.4l0.6,0.8l-0.5,0.7h-21.7l-0.4-0.7l0.4-0.8
		c2.7-0.4,4.5-1.7,5.4-3.8c0.6-1.4,0.9-3.7,0.9-6.9V89.6c0-4.3-1.2-6.6-3.7-7l-1.8-0.3l-0.4-1l0.3-0.4l11.4-3.9h1v12.6
		c4.3-8.4,9-12.6,14.3-12.6l4.8,1.6l-2.8,7.8l-2.7-0.9c-0.8-0.8-1.6-1.1-2.4-1.1c-0.8-0.3-1.6-0.4-2.3-0.4c-2.3,0-4.1,1.2-5.4,3.7
		c-1.7,3.2-2.8,7-3.3,11.5V111.3z"/>
	<path d="M973,100.9c0,6.9-2.5,12.6-7.4,17.1c-4.9,4.5-10.8,6.7-17.8,6.7s-12.9-2.2-17.7-6.6c-5-4.5-7.5-10.3-7.5-17.2
		c0-6.9,2.5-12.7,7.5-17.2c4.8-4.5,10.7-6.7,17.7-6.7s13,2.2,17.8,6.8C970.5,88.3,973,94,973,100.9z M964.6,100.9
		c-0.1-5.7-1.5-10.6-4.4-14.7c-3.2-4.6-7.6-6.9-13.1-6.9c-5.6,0-9.8,2.3-12.6,6.9c-2.4,3.9-3.6,8.8-3.5,14.7
		c0.1,5.8,1.5,10.7,4.4,14.7c3.2,4.6,7.6,6.8,13.1,6.8c5.6,0,9.8-2.3,12.6-6.9C963.5,111.6,964.7,106.8,964.6,100.9z"/>
	<path d="M1025.9,109.3c-1.7,4.7-4.5,8.4-8.7,11.2c-4.1,2.8-8.6,4.2-13.6,4.2c-6.5,0-11.9-2.4-16.1-7.1c-4.1-4.5-6.1-10.1-6.1-16.8
		c0-6.9,2.2-12.5,6.7-17c4.5-4.5,10.1-6.8,16.9-6.8c4.7,0,9.1,1.6,13.4,4.7c4.3,3.1,6.7,7,7.3,11.5c0,0.9-1.7,1.4-5,1.4h-31.4
		c-0.1,1.1-0.2,2.5-0.2,4.3v0.8c0,6.1,1.5,11,4.5,14.8c3.3,4.1,7.9,6.2,13.8,6.2c3.7,0,7.1-1.1,10.3-3.3c3.2-2.2,5.4-5.1,6.6-8.5
		c0.3-0.1,0.6-0.2,0.9-0.1C1025.4,108.9,1025.7,109.1,1025.9,109.3z M989.8,92.2h27c-0.3-3.9-1.6-7.1-3.9-9.5
		c-2.3-2.4-5.3-3.5-9.2-3.5C996.4,79.2,991.8,83.5,989.8,92.2z"/>
	<path d="M1072.8,88.7l-16.9,35.5c-0.5,0.3-1,0.5-1.3,0.5c-0.3,0-0.6-0.2-1.1-0.5l-18-38c-1.7-3.7-3.9-5.7-6.5-6.2l-0.7-0.9l0.4-1
		l9.2,0.3l9.1-0.3l0.6,0.9l-0.4,0.8c-2.3,0.3-3.8,1-4.3,1.9c-0.2,0.3-0.3,0.6-0.3,1.1c0,1,0.4,2.4,1.2,4.1l13.4,28.5l12.6-26.3
		c0.5-1.5,0.8-2.9,0.8-4c0-2.9-1.8-4.6-5.4-5.1l-0.7-0.9l0.4-1l7.7,0.3l7.9-0.3l0.6,0.9l-0.4,0.8C1077.6,81.1,1075,84.1,1072.8,88.7
		z"/>
	<path d="M1127.3,109.3c-1.7,4.7-4.5,8.4-8.7,11.2c-4.1,2.8-8.6,4.2-13.6,4.2c-6.5,0-11.9-2.4-16.1-7.1c-4.1-4.5-6.1-10.1-6.1-16.8
		c0-6.9,2.2-12.5,6.7-17c4.5-4.5,10.1-6.8,16.9-6.8c4.7,0,9.1,1.6,13.4,4.7c4.3,3.1,6.7,7,7.3,11.5c0,0.9-1.7,1.4-5,1.4h-31.4
		c-0.1,1.1-0.2,2.5-0.2,4.3v0.8c0,6.1,1.5,11,4.5,14.8c3.3,4.1,7.9,6.2,13.8,6.2c3.7,0,7.1-1.1,10.3-3.3c3.2-2.2,5.4-5.1,6.6-8.5
		c0.3-0.1,0.6-0.2,0.9-0.1C1126.9,108.9,1127.1,109.1,1127.3,109.3z M1091.2,92.2h27c-0.3-3.9-1.6-7.1-3.9-9.5
		c-2.3-2.4-5.3-3.5-9.2-3.5C1097.9,79.2,1093.2,83.5,1091.2,92.2z"/>
	<path d="M1146.2,111.3c0,3.4,0.5,5.8,1.4,7.3c1.1,1.9,3.3,3.1,6.5,3.4h0.4l0.6,0.8l-0.5,0.7h-21.7l-0.4-0.7l0.4-0.8
		c2.7-0.4,4.5-1.7,5.4-3.8c0.6-1.4,0.9-3.7,0.9-6.9V89.6c0-4.3-1.2-6.6-3.7-7l-1.8-0.3l-0.4-1l0.3-0.4L1145,77h1v12.6
		c4.3-8.4,9-12.6,14.3-12.6l4.8,1.6l-2.8,7.8l-2.7-0.9c-0.8-0.8-1.6-1.1-2.4-1.1c-0.8-0.3-1.6-0.4-2.3-0.4c-2.3,0-4.1,1.2-5.4,3.7
		c-1.7,3.2-2.8,7-3.3,11.5V111.3z"/>
	<path d="M1204.4,110.4c0,4.6-2,8.3-6,10.9c-3.5,2.3-7.6,3.5-12.5,3.5c-5.3,0-10.3-1.1-14.9-3.2c-0.5,0-0.9,0.2-1,0.7h-0.8l0.7-10.2
		c0.3-0.3,0.5-0.5,0.7-0.5c0.5,0.1,0.8,0.3,1,0.6c0.8,3.2,2.6,5.8,5.4,7.6c2.6,1.8,5.6,2.7,9.1,2.7c3.1,0,5.7-0.7,7.9-2.1
		c2.5-1.6,3.8-3.9,3.8-6.8c0-2.8-1.3-5.2-4-7.1c-2.1-1.5-4.8-2.6-7.9-3.2c-10.3-1.9-15.4-6.4-15.4-13.3c0-4.5,2-7.9,5.9-10.2
		c3.2-1.9,7.2-2.9,12-2.9c4.9,0,9.4,0.9,13.3,2.8l-1.2,9c-0.3,0.1-0.5,0.2-0.8,0.2c-0.3-0.1-0.5-0.2-0.7-0.4c-0.5-3-1.9-5.3-4.4-7
		c-2.2-1.5-4.8-2.3-7.9-2.3c-2.6,0-4.8,0.6-6.6,1.9c-2.1,1.4-3.1,3.3-3.1,5.8c0,5,4.1,8.4,12.4,10.2c4.5,1,7.9,2.3,10.2,3.9
		C1202.8,103.5,1204.4,106.5,1204.4,110.4z"/>
</g>
</svg>
